<?xml version="1.0" encoding="UTF-8"?>
<svg id="_レイヤー_1" data-name="レイヤー 1" xmlns="http://www.w3.org/2000/svg" viewBox="0 0 556.04 663.4">
  <defs>
    <style>
      .cls-1 {
        stroke: #040000;
        stroke-miterlimit: 10;
        stroke-width: .21px;
      }
    </style>
  </defs>
  <path class="cls-1" d="M346.65,388.39v-5.81h11.79v5.65h17.94v6h11.86v6h5.94v11.86h-5.77v6.01h-11.86v6h-6v5.9h-11.97v5.93h-29.76v-5.79h-17.94v-5.79h-65.66v5.69h-17.83v5.86h-29.87v-5.69h-11.97v-6h-5.9v-6.01h-11.97v-5.9h-5.85v-11.97h5.71v-5.9h11.86v-6h17.94v-5.81h12v5.77l.09-.08h-5.96c0,2.3,0,4.17,0,6.05h-5.97v5.97h-5.81v11.84h5.81v5.97h5.97v5.81h17.81c0-2.07,0-3.94,0-5.81h5.97v-5.97h5.97v-5.97h11.93c0-2.21,0-4.09,0-5.96h5.97v-5.97h6.14v-6.01h5.89v-5.67h29.93v5.88h5.88v5.8h5.93v5.97h5.97v5.96h11.93v5.97h5.97v5.97h5.97v5.81h17.81v-5.81h5.97v-5.97h5.81v-11.84h-5.81v-5.97h-5.97v-6.05h-5.96l.09.08Z"/>
  <path class="cls-1" d="M149.76,310.74h-5.9v-11.82h-6.02v-18.01l-.09.08h6.15v-12.09h5.91v-5.61h6v5.82h6v5.71h5.9v-5.96h6v-5.6h5.9v5.79h6.01v5.8h11.87v-5.93h6v-5.68h6v5.86h5.9v5.68h11.97v-5.8h6v-5.77h5.9v5.94h6v5.65h11.97v-5.87h5.9v-5.64h6v5.81h6.01v5.74h11.87v-5.95h6v-5.62h6v5.88h5.9v5.61h11.97v-5.82h6.01v-5.7h5.9v5.86h5.9v5.7h11.97v-5.79h6v-5.79h5.9v5.93h6v5.67h6v-5.87h5.9v-5.67h6v5.8h6v5.77h5.9v-5.94h6v-5.65h6v5.87h5.9v11.88h5.95l-.09-.08v17.79h-5.82v12.04c-2.23,0-4.17,0-6.1,0l.08.09c-.03-5.99-.06-11.99-.09-17.98,1.94,0,3.88,0,5.81,0v-5.89h-5.81v-11.76h-5.88v11.77h-6.15v5.76h-5.89v-5.76c-2.19,0-4.06,0-5.94,0,0-1.94,0-3.88,0-5.82h-5.72v5.74h5.81v5.82h-18.05v-5.74c-2.17,0-4.04,0-5.9,0v-5.81h-5.89v5.81h-6.15v5.76h-11.85v-5.76c-2.19,0-4.06,0-5.94,0v-5.81h-5.89v5.81h-6.15v5.76h-11.85v-5.76c-2.19,0-4.06,0-5.94,0v-5.81h-5.89v5.81h-6.15v5.76h-11.85v-5.76c-2.19,0-4.06,0-5.94,0v-5.81h-5.89v5.81h-6.15v5.76h-11.85v-5.76c-2.19,0-4.06,0-5.94,0,0-1.94,0-3.88,0-5.81h-5.89v5.81h-6.15v5.76h-11.85v-5.76c-2.19,0-4.06,0-5.94,0,0-1.94,0-3.88,0-5.81h-5.89v5.81h-6.15v5.76h-11.85v-5.76c-2.19,0-4.06,0-5.94,0,0-1.94,0-3.88,0-5.81h-5.89v5.81h-6.15v5.76h-5.89v-5.76c-2.19,0-4.06,0-5.94,0v-11.77h-5.88c0,4.06,0,7.91,0,11.76h-5.81v5.89h5.81c-.03,5.99-.06,11.99-.09,17.98l.08-.09Z"/>
  <path class="cls-1" d="M179.59,340.57h-11.9v-5.82h-5.9v-6h-6v-5.89h-6.03c0-4.25,0-8.18,0-12.12,0,0-.08.09-.08.09h6.15v5.77h5.89v-5.94h6v-5.64h6v5.87h5.9v5.65h11.97v-5.8h6v-5.76h5.89v5.94h6v5.66h11.97v-5.87h5.89v-5.66h6v5.79h6v5.77h11.86v-5.93h6v-5.68h6v5.86h5.9v5.68h11.97v-5.79h6v-5.8h5.89v5.93h6v5.7h11.97v-5.96h6v-5.6h6v5.88h5.9v5.61h11.96v-5.81h6v-5.72h5.89v5.95h6v5.62h11.97v-5.88h5.89v-5.62h6v5.81h6v5.73h11.86v-5.77h5.94l-.08-.09c0,3.85,0,7.71,0,11.88h-5.89v5.98h-5.87v6h-6.13l.08.09v-6.05h-6.05l.08.08v-5.8h-6.05v5.8l.08-.08h-6.15v5.85h-11.85v-5.76c-2.19,0-4.06,0-5.94,0v-5.81h-5.89v5.81h-6.15v5.76h-11.85v-5.76c-2.19,0-4.06,0-5.94,0v-5.81h-5.89v5.81h-6.15v5.76h-11.85v-5.76c-2.19,0-4.06,0-5.94,0v-5.81h-5.89v5.81h-6.15v5.76h-11.85v-5.76c-2.19,0-4.06,0-5.94,0v-5.81h-5.89v5.81h-6.15v5.76h-11.85v-5.76c-2.19,0-4.06,0-5.94,0,0-1.94,0-3.88,0-5.81h-5.89v5.81h-6.15v5.76h-11.85v-5.76c-2.19,0-4.06,0-5.94,0,0-1.94,0-3.88,0-5.81h-5.89v5.81h-6.16v6.09c-4.19,0-8.06,0-11.92,0,0-2.01,0-4.02,0-6.09h-5.88v-5.81h-5.71v5.72c2.07,0,3.93,0,5.79,0,0,1.94,0,3.88,0,6.09h5.87c0,1.98.01,3.96.02,5.93l.08-.09Z"/>
  <path class="cls-1" d="M489.86,472.1v5.67h5.69v23.9h-5.61v5.9h5.64v11.9h-11.64v-5.78h-6v-5.9h-6v-5.93h-11.87v17.58h-11.89v-47.34h41.69ZM483.7,483.97h-23.56v5.62h23.56v-5.62Z"/>
  <path class="cls-1" d="M179.77,472.03h41.47v5.71h5.86v23.9h-5.57v6h5.6v11.76h-11.74v-5.68h-5.9v-6h-6v-5.79h-11.97v17.54h-11.75v-47.45ZM191.62,489.59h23.49v-5.61h-23.49v5.61Z"/>
  <path class="cls-1" d="M394.48,519.4v-47.36h47.36v11.74h-35.43v5.9h23.53v11.97h-23.46v6h35.43v11.75h-47.44Z"/>
  <path class="cls-1" d="M239.15,472h35.83v5.79h5.79v35.83h-5.69v5.79h-35.83v-5.69h-5.79v-35.83h5.69v-5.89ZM245.4,483.95v23.5h23.49v-23.5h-23.49Z"/>
  <path class="cls-1" d="M149.62,472.04h11.89v47.37h-11.75v-5.68h-5.9v-6h-6v-5.9h-6v-5.93h-5.9v23.54h-11.89v-47.33h11.75v5.68h5.9v6h6v5.9h6v5.93h5.9v-23.58Z"/>
  <path class="cls-1" d="M352.72,626.84v-35.4h11.66v5.51h6v-5.55h11.97v5.59h5.9v-5.52h11.97v5.61h11.78v29.74h-11.6v-23.44h-6v5.64h-5.9v17.81h-11.97v-23.45h-6v5.66h-5.9v17.8h-11.9Z"/>
  <path class="cls-1" d="M287.08,513.77v-35.84h5.72v-5.81h35.84v5.64h5.81v11.84h-11.62v-5.56h-23.77v23.5h23.57v-5.64h11.9v11.66h-5.7v5.82h-35.83v-5.61h-5.92Z"/>
  <path class="cls-1" d="M352.44,489.66h23.9v-17.54h11.84v47.34h-11.61v-17.55h-23.9v17.48h-11.84v-47.34h11.61v17.61Z"/>
  <path class="cls-1" d="M418.41,579.43h11.65v11.67h23.89v5.99h5.8v23.89h-5.64v5.81h-35.7v-47.36ZM430.28,603.27v11.65h17.56v-11.65h-17.56Z"/>
  <path class="cls-1" d="M418.16,197.46h5.88v17.74h6.04v6.12l.09-.08h-5.81v12.02h5.81l-.08-.08v12.02l.08-.09h-5.91v35.81c-2.22,0-4.17,0-6.11,0l.09.08v-35.93h-6.14v-11.7h-5.88v11.89h-6.09v5.7h-5.88v-5.75c-2.18,0-4.06,0-5.93,0v-5.81h-5.89v5.81h-6.11v5.71h-11.88v-5.8h5.97v-5.97c1.95,0,3.9,0,5.97,0v-5.97h5.97v-5.97h12.09v5.87h5.88v-5.92h6.09v-5.71h5.88v5.58h5.94v-29.65l-.08.09Z"/>
  <path class="cls-1" d="M143.55,626.89h-35.49v-5.7h-5.87v-23.89h5.62v-6h23.89v-11.77h11.85v47.36ZM114.15,603.27v11.67h17.5v-11.67h-17.5Z"/>
  <path class="cls-1" d="M137.84,280.91h-5.91v-35.81h-6.11l.08.09v-12.02l-.08.08h5.81v-12.02h-5.81l.09.08v-5.9h5.84v-17.96h6.08l-.08-.09v29.68h6.15v-5.61h5.88v5.93h5.98v5.68h5.99v-5.84c4.17,0,8.03,0,11.88,0v5.97c2.22,0,4.09,0,5.97,0v5.97c2.22,0,4.09,0,5.97,0v5.97h5.97v5.82h-12.09v-5.73c-2.17,0-4.03,0-5.9,0,0-1.94,0-3.88,0-5.81h-5.89v5.81h-6.14v5.77h-5.88v-5.93h-6.08v-11.66h-5.87v11.9h-5.94v35.71l.09-.08Z"/>
  <path class="cls-1" d="M66.32,513.71h-5.89v-41.65h11.56v35.42h23.9v-35.35h11.85v41.39h-5.6v5.89h-35.83v-5.7Z"/>
  <path class="cls-1" d="M197.23,621.11h-5.66v5.69h-35.83v-5.66h-5.8v-23.9h5.66v-5.8h35.83v5.66h5.8v24.01ZM161.79,614.88h23.49v-11.57h-23.49v11.57Z"/>
  <path class="cls-1" d="M274.87,549.46h-5.79v-5.89h-5.79v-11.83h11.65v5.68h6v5.93h5.9v-5.79h6v-5.79h11.83v11.65h-5.68v6h-5.93v5.9h5.79v6h5.79v11.83h-11.65v-5.68h-6v-5.93h-5.9v5.79h-6v5.79h-11.83v-11.65h5.68v-6h5.93v-6Z"/>
  <path class="cls-1" d="M292.86,101.91v5.91h23.86v6.11l.09-.08h-12.12v5.85h-5.89v-5.57h-6v5.54h-6v-5.61h-5.9v5.57h-6v-5.54h-6v5.61h-5.89v-5.58h-6v5.54h-6v-5.61h-5.9v5.77h-23.83l.09.08v-5.94h17.75v-5.9h24.02v-6.14l-.09.08c2.01-.03,4.03-.06,6.04-.09,0,1.94,0,3.88,0,5.82h5.72v-5.74h-5.81c.03-7.98.06-15.96.09-23.94l-.08.08c2.02-.03,4.04-.05,6.05-.08v17.76h6.02v-5.83c2.17,0,4.04,0,5.9,0,0,4,0,8.01,0,12.01-1.94,0-3.88,0-5.82,0v5.72h5.74v-5.81c2.01.03,4.03.06,6.04.09l-.09-.08Z"/>
  <path class="cls-1" d="M310.68,591.39v11.7h-29.54v11.86h29.47v11.91h-35.45v-5.73h-5.95v-23.79h5.73v-5.95h35.74Z"/>
  <path class="cls-1" d="M245.06,591.07v11.97h-17.62v23.78h-11.96v-23.49h-11.85v-11.97h11.56v-11.85h11.97v11.57h17.9Z"/>
  <path class="cls-1" d="M370.42,346.54v5.94h-23.71v5.9h-18.05v24.04l.09-.08h-6.11v-23.78c-2.16,0-4.04,0-5.91,0v-12.02h6.05v5.81h5.89v-5.81h6.05v5.81h5.89v-5.81h6.14v-5.77h5.88v5.61h6.09v-5.59h5.88v5.84h5.93l-.09-.08Z"/>
  <path class="cls-1" d="M227.33,382.43v-23.84h-17.83v-5.9h-23.93v-6.14l-.09.08h6.14v-5.86h5.88v5.61h6.09v-5.59h5.88v5.75h5.93c0,1.94,0,3.88,0,5.81h5.89v-5.81h6.05c0,1.94,0,3.88,0,5.81h5.89v-5.81h6.05c0,4.01,0,8.01,0,12.02h-6.11v23.79h-5.91l.09.08Z"/>
  <path class="cls-1" d="M316.83,626.83v-47.3h11.67v47.3h-11.67Z"/>
  <path class="cls-1" d="M430.09,221.32h5.94v5.81h5.89v11.96h6.07v59.8l.09-.08h-6.11v-53.7h-5.91l.08.08v-12.02h-6.05l.08.08v-12.02l-.09.08Z"/>
  <path class="cls-1" d="M108.01,298.89v-59.58h5.87v-11.96h5.89v-6.02c2.25,0,4.2,0,6.15,0,0,0-.09-.08-.09-.08v12.02l.08-.08h-6.05v12.02l.08-.08h-6.11v53.7h-5.91l.09.08Z"/>
  <path class="cls-1" d="M430.18,298.89c0-17.93,0-35.86,0-53.79,0,0-.08.09-.08.09h6.05l-.08-.08v53.7h-5.97l.09.08Z"/>
  <path class="cls-1" d="M125.82,245.1c0,17.93,0,35.86,0,53.79l.09-.08h-5.97v-53.7l-.08.08h6.05l-.08-.09Z"/>
  <path class="cls-1" d="M30.62,483.95h23.47v11.57h-23.47v-11.57Z"/>
  <path class="cls-1" d="M525.42,495.62h-23.48v-11.61h23.48v11.61Z"/>
  <path class="cls-1" d="M346.49,603.39v23.46h-11.67v-23.46h11.67Z"/>
  <path class="cls-1" d="M442.11,316.7h-5.9v11.78h-12v-5.81l-.09.08h6.05v-17.98l-.08.08h6.09v6.05h5.84v5.89l.08-.09Z"/>
  <path class="cls-1" d="M131.78,322.68v5.8h-11.79v-11.78h-6.1l.08.09v-6.09h6.05v-5.84h5.89l-.08-.08v17.98h6.05l-.09-.08Z"/>
  <path class="cls-1" d="M412.19,173.6h5.97c0,8.04,0,15.95,0,23.87,0,0,.08-.09.08-.09h-12.02v-5.97h6.05v-17.9l-.08.09Z"/>
  <path class="cls-1" d="M137.83,197.46v-23.87h5.97l-.08-.09v17.9h6.05v5.97h-12.02l.08.09Z"/>
  <path class="cls-1" d="M251.31,615.23h11.56v11.61h-11.56v-11.61Z"/>
  <path class="cls-1" d="M292.96,42.32v-5.81h23.77v5.81l.09-.08c-7.98,0-15.97,0-23.95,0l.09.08Z"/>
  <path class="cls-1" d="M352.53,125.86h17.89v5.96l.09-.08h-6.15v5.85h-5.89v-5.76c-2.19,0-4.06,0-5.94,0,.03-2.02.05-4.04.08-6.05l-.08.09Z"/>
  <path class="cls-1" d="M316.73,42.32h5.94v5.82h5.81v12h-5.78l.08.09v-5.97h-6.05c.03-4.01.06-8.01.09-12.02l-.09.08Z"/>
  <path class="cls-1" d="M453.95,328.64v5.81h-11.85v-17.75l-.08.09h6.11v11.93h5.91l-.09-.08Z"/>
  <path class="cls-1" d="M346.44,591.09h-11.56v-11.61h11.56v11.61Z"/>
  <path class="cls-1" d="M185.57,131.82v-5.96h17.89l-.08-.09c.03,2.02.05,4.04.08,6.05h-6.15v5.76h-5.89v-5.85h-5.94l.09.08Z"/>
  <path class="cls-1" d="M334.63,119.89h17.9v5.97s.08-.09.08-.09h-5.97v6.05c-2.02,0-4.03,0-6.05,0v-5.97h-5.97c.03-2.02.06-4.03.09-6.05l-.08.09Z"/>
  <path class="cls-1" d="M203.46,125.86v-5.97c6.05,0,11.98,0,17.9,0,0,0-.09-.08-.09-.08.03,2.02.06,4.03.09,6.05-1.95,0-3.9,0-5.97,0v5.97c-2.02,0-4.03,0-6.05,0v-6.05h-5.97l.08.09Z"/>
  <path class="cls-1" d="M113.88,316.7v17.73h-11.85v-5.79l-.09.08h6.11v-11.93h5.91l-.08-.09Z"/>
  <path class="cls-1" d="M263.13,101.91h-5.81v-23.78h5.81l-.08-.09v23.95l.09-.08Z"/>
  <path class="cls-1" d="M304.8,84.01v11.83h-5.82v6.07c-2.23,0-4.17,0-6.11,0,0,0,.09.08.09.08-.03-4.01-.06-8.01-.09-12.02,1.95,0,3.9,0,5.97,0v-5.97c2.02.03,4.04.05,6.05.08l-.09-.08Z"/>
  <path class="cls-1" d="M131.78,304.86h5.81v17.81c-1.93,0-3.87,0-5.81,0,0,0,.09.08.09.08v-17.98l-.08.09Z"/>
  <path class="cls-1" d="M316.73,113.92h17.9v5.97s.08-.09.08-.09h-17.9v-5.97l-.09.08Z"/>
  <path class="cls-1" d="M102.04,328.64h-5.81v-17.81h5.8l-.08-.09c0,5.99,0,11.99,0,17.98l.09-.08Z"/>
  <path class="cls-1" d="M453.96,310.83h5.81v17.81c-1.93,0-3.87,0-5.81,0l.09.08v-17.98l-.08.09Z"/>
  <path class="cls-1" d="M388.33,334.6v5.97h-11.93l.08.09v-12.02l-.08.08h6.05l-.08-.08v6.05h6.05l-.08-.09Z"/>
  <path class="cls-1" d="M424.21,322.68h-5.81v-17.81h5.81l-.08-.09v17.98l.09-.08Z"/>
  <path class="cls-1" d="M406.23,161.66h5.97v11.93s.08-.09.08-.09h-5.97v-11.93l-.08.09Z"/>
  <path class="cls-1" d="M173.63,137.79v-5.97c4.06,0,8,0,11.93,0,0,0-.09-.08-.09-.08v5.97h-11.93l.09.08Z"/>
  <path class="cls-1" d="M215.4,388.39v-5.97h11.93l-.09-.08v5.97h-11.93l.09.08Z"/>
  <path class="cls-1" d="M322.7,60.13v11.93h-5.97l.08.09c-.03-4.01-.05-8.01-.08-12.02,2.02.03,4.03.06,6.05.09l-.08-.09Z"/>
  <path class="cls-1" d="M447.98,298.89h5.97v11.94l.08-.09h-5.97v-11.93l-.09.08Z"/>
  <path class="cls-1" d="M102.03,310.83v-11.94c2.08,0,4.03,0,5.97,0,0,0-.09-.08-.09-.08v11.93h-5.97l.08.09Z"/>
  <path class="cls-1" d="M143.8,173.6v-11.93h5.97l-.08-.09v11.93h-5.97l.08.09Z"/>
  <path class="cls-1" d="M269.09,72.15v-11.93h5.96l-.08-.09c.03,4.01.05,8.01.08,12.02-2.02-.03-4.03-.06-6.05-.09l.09.08Z"/>
  <path class="cls-1" d="M370.42,131.82h11.93v5.97l.09-.08h-11.93v-5.97l-.09.08Z"/>
  <path class="cls-1" d="M328.66,382.43h11.93v5.97l.09-.08h-11.93v-5.97l-.09.08Z"/>
  <path class="cls-1" d="M286.99,48.29v-5.97c2.07,0,4.02,0,5.97,0,0,0-.09-.08-.09-.08.03,2.02.06,4.03.09,6.05-2.02-.03-4.04-.05-6.05-.08l.09.08Z"/>
  <path class="cls-1" d="M400.26,155.69h5.97v5.97s.08-.09.08-.09c-2.02.03-4.03.06-6.05.09.03-2.02.05-4.04.08-6.05l-.08.09Z"/>
  <path class="cls-1" d="M125.81,298.89h5.97c0,2.07,0,4.02,0,5.97,0,0,.08-.09.08-.09h-6.05l.08.08v-6.05l-.09.08Z"/>
  <path class="cls-1" d="M424.21,304.86v-5.97c2.07,0,4.02,0,5.97,0l-.09-.08v6.05l.08-.08h-6.05l.08.09Z"/>
  <path class="cls-1" d="M185.57,346.54h-5.97v-5.97s-.08.09-.08.09h5.97v5.97l.09-.08Z"/>
  <path class="cls-1" d="M376.4,340.57v5.97h-5.97s.09.08.09.08v-5.97h5.97l-.08-.09Z"/>
  <path class="cls-1" d="M310.76,78.04v5.97c-2.07,0-4.02,0-5.97,0,0,0,.09.08.09.08-.03-2.02-.06-4.03-.09-6.05,2.02.03,4.04.05,6.05.08l-.09-.08Z"/>
  <path class="cls-1" d="M209.34,388.39h6.06l-.09-.08v6.05h-5.97c.03-2.02.06-4.03.09-6.05l-.09.08Z"/>
  <path class="cls-1" d="M340.59,388.39c2.02,0,4.04,0,6.06,0,0,0-.09-.08-.09-.08.03,2.02.06,4.03.09,6.05h-5.97v-6.05l-.09.08Z"/>
  <path class="cls-1" d="M149.76,161.66v-5.97h5.97l-.08-.09c.03,2.02.05,4.04.08,6.05l-6.05-.09.08.09Z"/>
  <path class="cls-1" d="M394.29,149.73h5.97v5.97l.08-.09c-2.02.03-4.03.06-6.05.09.03-2.02.05-4.04.08-6.05l-.08.09Z"/>
  <path class="cls-1" d="M316.73,72.07v5.97c-2.07,0-4.02,0-5.97,0,0,0,.09.08.09.08-.03-2.02-.05-4.04-.08-6.05,2.02.03,4.03.06,6.05.09l-.08-.09Z"/>
  <path class="cls-1" d="M263.12,78.13v-5.97c2.07,0,4.02,0,5.97,0l-.09-.08v6.05l.08-.08c-2.02,0-4.03,0-6.05,0l.08.09Z"/>
  <path class="cls-1" d="M155.73,155.69v-5.97h5.97l-.08-.09c.03,2.02.05,4.04.08,6.05-2.02-.03-4.03-.06-6.05-.09l.08.09Z"/>
  <path class="cls-1" d="M388.33,143.76h5.97v5.97s.08-.09.08-.09c-2.02.03-4.04.05-6.05.08.03-2.02.06-4.03.09-6.05l-.08.09Z"/>
  <path class="cls-1" d="M161.69,149.73v-5.97h5.97l-.08-.09c.03,2.02.06,4.03.09,6.05-2.02-.03-4.04-.05-6.05-.08l.08.09Z"/>
  <path class="cls-1" d="M275.05,60.23v-5.97h5.97l-.08-.09c.03,2.02.05,4.04.08,6.05-2.02-.03-4.03-.06-6.05-.09l.08.09Z"/>
  <path class="cls-1" d="M382.36,137.79h5.97v5.97s.08-.09.08-.09h-5.97v-5.97l-.09.08Z"/>
  <path class="cls-1" d="M281.02,54.26v-5.97c2.07,0,4.02,0,5.97,0,0,0-.09-.08-.09-.08.03,2.02.06,4.03.09,6.05-2.02-.03-4.04-.05-6.05-.08l.08.09Z"/>
  <path class="cls-1" d="M167.66,143.76v-5.97c2.07,0,4.02,0,5.97,0l-.09-.08v5.97h-5.97l.08.09Z"/>
  <path class="cls-1" d="M245.22,382.43h-6.05v-23.95c25.88,0,51.76,0,77.64,0v23.95h-6.05v-17.74h-65.55v17.74Z"/>
  <path class="cls-1" d="M310.85,382.34v12.02h-6.05v-12.02h6.05Z"/>
  <path class="cls-1" d="M245.14,394.36v-12.02h6.05v12.02h-6.05Z"/>
  <path class="cls-1" d="M334.63,412.18h17.98v6.05h-17.98v-6.05Z"/>
  <path class="cls-1" d="M203.38,412.18h17.98v6.05h-17.98v-6.05Z"/>
  <path class="cls-1" d="M203.46,400.24v12.02h-6.05v-12.02h6.05Z"/>
  <path class="cls-1" d="M233.21,400.33v-6.05h12.02v6.05h-12.02Z"/>
  <path class="cls-1" d="M227.24,406.29v-6.05h6.05c0,2.02,0,4.03,0,6.05h-6.05Z"/>
  <path class="cls-1" d="M310.77,394.28h12.02v6.05h-12.02v-6.05Z"/>
  <path class="cls-1" d="M322.7,400.24h6.05v6.05c-2.02,0-4.03,0-6.05,0v-6.05Z"/>
  <path class="cls-1" d="M352.53,412.26v-12.02h6.05v12.02h-6.05Z"/>
  <path class="cls-1" d="M209.43,394.28v6.05h-6.05c0-2.02,0-4.03,0-6.05h6.05Z"/>
  <path class="cls-1" d="M352.61,400.33h-6.05v-6.05c2.02,0,4.03,0,6.05,0v6.05Z"/>
  <path class="cls-1" d="M221.27,412.26v-6.05h6.05c0,2.02,0,4.03,0,6.05h-6.05Z"/>
  <path class="cls-1" d="M328.67,406.21h6.05v6.05c-2.02,0-4.03,0-6.05,0v-6.05Z"/>
  <path class="cls-1" d="M233.3,245.18c0-4,0-8,0-12.01l-.09.08h18.06v-6.08h5.88v-5.68h6.09v5.88h5.88v5.62h11.95v-5.8h5.99v-5.77h5.88v5.92h5.99v5.7h11.95v-5.85c2.19,0,4.06,0,5.93,0v5.97c2.22,0,4.09,0,5.97,0-.03,2.02-.05,4.04-.08,6.05l.08-.08h-6.05v6.05l.08-.09h-5.94v5.85h-11.85v-5.85h-6.15l.08.09v-5.8h-6.05v5.8l.08-.09h-5.94v5.85h-11.85v-5.85h-6.15l.08.09v-5.8h-6.05v5.8l.08-.09h-5.94v5.85h-11.85v-5.86h-6.15l.09.09Z"/>
  <path class="cls-1" d="M191.44,245.19c.03-2.02.06-4.03.09-6.05l-.09.08h29.91l-.09-.08v6.05h-29.83Z"/>
  <path class="cls-1" d="M364.46,239.14c.03,2.02.06,4.03.09,6.05-9.97-.03-19.94-.06-29.91-.09l.08.09c-.03-2.02-.05-4.04-.08-6.05,9.97.03,19.94.06,29.91.09l-.09-.08Z"/>
  <path class="cls-1" d="M233.3,233.18c-2.02,0-4.04,0-6.05,0l.08.09v-6.05h5.97c-.03,2.02-.06,4.03-.09,6.05l.09-.08Z"/>
  <path class="cls-1" d="M227.24,233.17v5.97h-5.97s.09.08.09.08v-5.97h5.97l-.08-.09Z"/>
  <path class="cls-1" d="M328.75,245.1c-2.02,0-4.03,0-6.05,0l.08.09v-6.05l-.08.08c2.02-.03,4.03-.06,6.05-.09-.03,2.02-.05,4.04-.08,6.05l.08-.09Z"/>
  <path class="cls-1" d="M167.58,245.11h6.05v5.8h-6.05v-5.8Z"/>
  <path class="cls-1" d="M233.21,245.1v5.81h-5.73v-5.72c1.95,0,3.88,0,5.82,0,0,0-.09-.09-.09-.09Z"/>
  <path class="cls-1" d="M263.04,245.1v5.81h-5.88c0-1.93,0-3.87,0-5.81,0,0-.08.09-.08.09h6.05l-.08-.09Z"/>
  <path class="cls-1" d="M292.87,245.1v5.81h-5.88v-5.81l-.08.09h6.05l-.08-.09Z"/>
  <path class="cls-1" d="M322.7,245.1v5.81h-5.88v-5.81l-.08.09h6.05l-.08-.09Z"/>
  <path class="cls-1" d="M334.63,245.1v5.81h-5.88v-5.81l-.08.09h6.05l-.08-.09Z"/>
  <path class="cls-1" d="M382.36,245.11h6.05v5.8h-6.05v-5.8Z"/>
  <path class="cls-1" d="M149.68,292.93v-6.05h6.05v6.05h-6.05Z"/>
  <path class="cls-1" d="M173.55,286.88h6.05v5.8h-6.05v-5.8Z"/>
  <path class="cls-1" d="M203.38,286.88h6.05v5.8h-6.05v-5.8Z"/>
  <path class="cls-1" d="M233.21,286.88h6.05v5.8h-6.05v-5.8Z"/>
  <path class="cls-1" d="M292.87,286.88h6.05v5.8h-6.05v-5.8Z"/>
  <path class="cls-1" d="M322.7,286.88h6.05v5.8h-6.05v-5.8Z"/>
  <path class="cls-1" d="M352.53,286.88h6.05v5.8h-6.05v-5.8Z"/>
  <path class="cls-1" d="M406.31,286.88v6.05h-6.05v-6.05c2.02,0,4.03,0,6.05,0Z"/>
  <path class="cls-1" d="M263.04,286.88h6.05v5.8h-6.05v-5.8Z"/>
  <path class="cls-1" d="M197.41,328.64h6.05v5.8h-6.05v-5.8Z"/>
  <path class="cls-1" d="M227.24,328.64h6.05v5.8h-6.05v-5.8Z"/>
  <path class="cls-1" d="M257.07,328.64h6.05v5.8h-6.05v-5.8Z"/>
  <path class="cls-1" d="M286.9,328.64h6.05v5.8h-6.05v-5.8Z"/>
  <path class="cls-1" d="M316.73,328.64h6.05v5.8h-6.05v-5.8Z"/>
  <path class="cls-1" d="M346.56,328.64h6.05v5.8h-6.05v-5.8Z"/>
  <path class="cls-1" d="M221.36,346.63h-6.05v-5.8h6.05v5.8Z"/>
  <path class="cls-1" d="M233.29,346.63h-6.05v-5.8h6.05v5.8Z"/>
  <path class="cls-1" d="M245.22,346.63h-6.05v-5.8h6.05v5.8Z"/>
  <path class="cls-1" d="M257.15,346.63h-6.05v-5.8h6.05v5.8Z"/>
  <path class="cls-1" d="M269.09,346.63c-2.02,0-4.03,0-6.05,0v-5.8h6.05v5.8Z"/>
  <path class="cls-1" d="M281.02,346.63c-2.02,0-4.03,0-6.05,0v-5.8h6.05v5.8Z"/>
  <path class="cls-1" d="M292.95,346.63c-2.02,0-4.03,0-6.05,0v-5.8h6.05v5.8Z"/>
  <path class="cls-1" d="M304.88,346.63c-2.02,0-4.03,0-6.05,0v-5.8h6.05v5.8Z"/>
  <path class="cls-1" d="M316.82,346.63c-2.02,0-4.03,0-6.05,0v-5.8h6.05v5.8Z"/>
  <path class="cls-1" d="M328.75,346.63c-2.02,0-4.03,0-6.05,0v-5.8h6.05v5.8Z"/>
  <path class="cls-1" d="M340.68,346.63c-2.02,0-4.03,0-6.05,0v-5.8h6.05v5.8Z"/>
  <path class="cls-1" d="M251.19,346.54v5.8h-6.05v-5.8h6.05Z"/>
  <path class="cls-1" d="M263.12,346.54v5.8h-6.05v-5.8h6.05Z"/>
  <path class="cls-1" d="M275.05,346.54v5.8h-6.05v-5.8h6.05Z"/>
  <path class="cls-1" d="M286.99,346.54v5.8h-6.05v-5.8h6.05Z"/>
  <path class="cls-1" d="M298.92,346.54v5.8h-6.05v-5.8h6.05Z"/>
  <path class="cls-1" d="M310.85,346.54v5.8h-6.05v-5.8h6.05Z"/>
  <path class="cls-1" d="M382.44,227.29c-2.02-.03-4.03-.06-6.05-.09l.08.09c-.03-9.97-.06-19.94-.09-29.92,2.02.03,4.04.05,6.05.08,0,0-.09-.08-.09-.08.03,9.97.06,19.94.09,29.92Z"/>
  <path class="cls-1" d="M394.29,185.52v-5.8h6.05v5.8h-6.05Z"/>
  <path class="cls-1" d="M388.33,191.49v-6.05h6.05v6.05h-6.05Z"/>
  <path class="cls-1" d="M400.26,185.44h6.05v6.05h-6.05v-6.05Z"/>
  <path class="cls-1" d="M382.36,191.5c2.02-.03,4.03-.06,6.05-.09v5.97c-2.16,0-4.11,0-6.05,0l.09.08v-6.05l-.08.09Z"/>
  <path class="cls-1" d="M370.42,233.18c.03,2.02.06,4.03.09,6.05-2.02-.03-4.04-.05-6.05-.08,0,0,.09.08.09.08v-5.97h5.97s-.09-.08-.09-.08Z"/>
  <path class="cls-1" d="M376.48,233.26c-2.02-.03-4.04-.05-6.05-.08,0,0,.09.08.09.08v-5.97h5.97l-.08-.09c.03,2.02.05,4.04.08,6.06Z"/>
  <path class="cls-1" d="M179.59,227.2c-2.02.03-4.03.06-6.05.09.03-9.97.06-19.94.09-29.92,0,0-.09.08-.09.08,2.02-.03,4.04-.05,6.05-.08-.03,9.97-.06,19.94-.09,29.92l.08-.09Z"/>
  <path class="cls-1" d="M155.65,185.52v-5.8h6.05v5.8h-6.05Z"/>
  <path class="cls-1" d="M149.68,191.49v-6.05h6.05v6.05h-6.05Z"/>
  <path class="cls-1" d="M161.61,185.44h6.05v6.05h-6.05v-6.05Z"/>
  <path class="cls-1" d="M167.58,191.41c2.02.03,4.03.06,6.05.09l-.08-.09v6.05s.09-.08.09-.08c-1.87,0-3.75,0-6.05,0v-5.97Z"/>
  <path class="cls-1" d="M185.56,233.17c-2.02.03-4.03.06-6.05.09.03-2.02.05-4.04.08-6.06,0,0-.08.09-.08.09h5.97v5.97l.08-.09Z"/>
  <path class="cls-1" d="M191.53,239.14c-2.02.03-4.04.05-6.05.08.03-2.02.05-4.04.08-6.06l-.08.09h5.97v5.97l.09-.08Z"/>
  <path class="cls-1" d="M328.75,131.74v5.8h-6.05v-5.8h6.05Z"/>
  <path class="cls-1" d="M316.82,131.74v5.8h-6.05v-5.8h6.05Z"/>
  <path class="cls-1" d="M304.88,131.74v5.8h-6.05v-5.8h6.05Z"/>
  <path class="cls-1" d="M292.95,131.74v5.8h-6.05v-5.8h6.05Z"/>
  <path class="cls-1" d="M281.02,131.74v5.8h-6.05v-5.8h6.05Z"/>
  <path class="cls-1" d="M269.09,131.74v5.8h-6.05v-5.8h6.05Z"/>
  <path class="cls-1" d="M257.15,131.74v5.8h-6.05v-5.8c2.02,0,4.03,0,6.05,0Z"/>
  <path class="cls-1" d="M245.22,131.74v5.8h-6.05v-5.8c2.02,0,4.03,0,6.05,0Z"/>
  <path class="cls-1" d="M233.29,131.74v5.8h-6.05v-5.8c2.02,0,4.03,0,6.05,0Z"/>
  <path class="cls-1" d="M334.72,125.77c0,2.02,0,4.03,0,6.05-2.02,0-4.03,0-6.05,0v-6.05h6.05Z"/>
  <path class="cls-1" d="M322.78,131.82h-6.05v-5.8h6.05v5.8Z"/>
  <path class="cls-1" d="M310.85,131.82h-6.05v-5.8h6.05v5.8Z"/>
  <path class="cls-1" d="M298.92,131.82h-6.05v-5.8h6.05v5.8Z"/>
  <path class="cls-1" d="M286.99,131.82h-6.05v-5.8h6.05v5.8Z"/>
  <path class="cls-1" d="M275.05,131.82h-6.05v-5.8h6.05v5.8Z"/>
  <path class="cls-1" d="M263.12,131.82c-2.02,0-4.03,0-6.05,0v-5.8h6.05v5.8Z"/>
  <path class="cls-1" d="M239.26,131.82c-2.02,0-4.03,0-6.05,0v-5.8h6.05v5.8Z"/>
  <path class="cls-1" d="M221.27,131.82v-6.05h6.05v6.05c-2.02,0-4.03,0-6.05,0Z"/>
  <path class="cls-1" d="M251.19,131.82c-2.02,0-4.03,0-6.05,0v-5.8h6.05v5.8Z"/>
  <path class="cls-1" d="M292.87,54.25v-6.05h17.98v6.05h-17.98Z"/>
  <path class="cls-1" d="M310.85,72.15h-6.05v-12.02h6.05v12.02Z"/>
  <path class="cls-1" d="M280.94,60.14c2.02,0,4.03,0,6.05,0v12.02h-6.05v-12.02Z"/>
  <path class="cls-1" d="M292.95,84.01v6.05c-2.02,0-4.03,0-6.05,0v-6.05h6.05Z"/>
  <path class="cls-1" d="M298.92,78.04v6.05c-2.02,0-4.03,0-6.05,0v-6.05h6.05Z"/>
  <path class="cls-1" d="M304.88,72.07v6.05h-6.05v-6.05h6.05Z"/>
  <path class="cls-1" d="M274.97,72.07c2.02,0,4.03,0,6.05,0v6.05h-6.05v-6.05Z"/>
  <path class="cls-1" d="M316.82,60.22c-2.02,0-4.03,0-6.05,0v-6.05c2.02,0,4.03,0,6.05,0v6.05Z"/>
  <path class="cls-1" d="M286.9,60.22v-6.05c2.02,0,4.03,0,6.05,0v6.05h-6.05Z"/>
  <path class="cls-1" d="M334.72,185.52v-5.81h29.74v5.81l.09-.08h-29.91l.09.08Z"/>
  <path class="cls-1" d="M191.53,185.52v-5.81h29.74v5.81l.09-.08h-29.91l.09.08Z"/>
  <path class="cls-1" d="M394.29,161.57h6.05v5.8h-6.05v-5.8Z"/>
  <path class="cls-1" d="M358.5,161.57h6.05v5.8h-6.05v-5.8Z"/>
  <path class="cls-1" d="M179.6,185.52v-5.8h5.87v5.8l.09-.08h-6.05l.09.08Z"/>
  <path class="cls-1" d="M227.33,185.52v-5.8h5.87v5.8l.09-.08h-6.05l.09.08Z"/>
  <path class="cls-1" d="M251.19,185.52v-5.8h5.87v5.8l.09-.08h-6.05l.09.08Z"/>
  <path class="cls-1" d="M275.06,185.52v-5.8h5.87v5.8l.09-.08h-6.05l.09.08Z"/>
  <path class="cls-1" d="M298.92,185.52v-5.8h5.87v5.8l.09-.08h-6.05l.09.08Z"/>
  <path class="cls-1" d="M322.79,185.52v-5.8h5.87v5.8l.09-.08h-6.05l.09.08Z"/>
  <path class="cls-1" d="M370.52,185.52v-5.8h5.87v5.8l.09-.08h-6.05l.09.08Z"/>
  <path class="cls-1" d="M173.63,191.5v-5.97c2.07,0,4.02,0,5.97,0,0,0-.09-.08-.09-.08.03,2.02.05,4.04.08,6.05-2.02-.03-4.03-.06-6.05-.09l.08.09Z"/>
  <path class="cls-1" d="M185.47,185.52c2.02,0,4.04,0,6.06,0,0,0-.09-.08-.09-.08v6.05h-5.96c.03-2.02.05-4.04.08-6.05l-.09.08Z"/>
  <path class="cls-1" d="M221.27,185.52c2.02,0,4.04,0,6.06,0,0,0-.09-.08-.09-.08.03,2.02.05,4.04.08,6.05h-5.96v-6.05l-.09.08Z"/>
  <path class="cls-1" d="M233.2,185.52h5.97v5.97l.09-.08c-2.02.03-4.04.05-6.05.08.03-2.02.06-4.03.09-6.05l-.09.08Z"/>
  <path class="cls-1" d="M245.23,191.49v-5.97c2.07,0,4.02,0,5.97,0,0,0-.09-.08-.09-.08v5.97h-5.97l.09.08Z"/>
  <path class="cls-1" d="M257.07,185.52h5.97v5.97l.09-.08h-5.97v-5.97l-.09.08Z"/>
  <path class="cls-1" d="M269.09,191.49v-5.97c2.07,0,4.02,0,5.97,0l-.09-.08v5.97h-5.97l.09.08Z"/>
  <path class="cls-1" d="M280.93,185.52h5.97v5.97l.09-.08h-5.97v-5.97l-.09.08Z"/>
  <path class="cls-1" d="M292.96,191.49v-5.97c2.07,0,4.02,0,5.97,0l-.09-.08v5.97h-5.97l.09.08Z"/>
  <path class="cls-1" d="M304.8,185.52h5.97v5.97l.09-.08h-5.97v-5.97l-.09.08Z"/>
  <path class="cls-1" d="M316.82,191.49v-5.97c2.07,0,4.02,0,5.97,0l-.09-.08c.03,2.02.06,4.03.09,6.05-2.02-.03-4.04-.05-6.05-.08l.09.08Z"/>
  <path class="cls-1" d="M328.66,185.52c2.02,0,4.04,0,6.06,0,0,0-.09-.08-.09-.08v6.05c-2.22,0-4.09,0-5.96,0,.03-2.02.05-4.04.08-6.05l-.09.08Z"/>
  <path class="cls-1" d="M364.46,185.52h6.06s-.09-.08-.09-.08c.03,2.02.05,4.04.08,6.05h-5.96v-6.05l-.09.08Z"/>
  <path class="cls-1" d="M376.39,185.52h5.97v5.97l.08-.09c-2.02.03-4.03.06-6.05.09.03-2.02.05-4.04.08-6.05l-.09.08Z"/>
  <path class="cls-1" d="M239.17,191.49c2.02,0,4.04,0,6.06,0,0,0-.09-.08-.09-.08v6.05h-5.96c.03-2.02.05-4.04.08-6.05l-.09.08Z"/>
  <path class="cls-1" d="M263.03,191.49c2.02,0,4.04,0,6.06,0,0,0-.09-.08-.09-.08v5.8h-5.88v-5.8l-.09.08Z"/>
  <path class="cls-1" d="M286.9,191.49c2.02,0,4.04,0,6.06,0,0,0-.09-.08-.09-.08v5.8h-5.88v-5.8l-.09.08Z"/>
  <path class="cls-1" d="M310.76,191.49c2.02,0,4.04,0,6.06,0,0,0-.09-.08-.09-.08.03,2.02.05,4.04.08,6.05h-5.96v-6.05l-.09.08Z"/>
  <path class="cls-1" d="M334.63,161.57h6.05v5.8h-6.05v-5.8Z"/>
  <path class="cls-1" d="M310.77,161.57h6.05v5.8h-6.05v-5.8Z"/>
  <path class="cls-1" d="M286.9,161.57h6.05v5.8h-6.05v-5.8Z"/>
  <path class="cls-1" d="M263.04,161.57h6.05v5.8h-6.05v-5.8Z"/>
  <path class="cls-1" d="M239.17,161.57c2.02,0,4.03,0,6.05,0v5.8h-6.05v-5.8Z"/>
  <path class="cls-1" d="M215.31,161.57c2.02,0,4.03,0,6.05,0v5.8h-6.05v-5.8Z"/>
  <path class="cls-1" d="M191.44,161.57c2.02,0,4.03,0,6.05,0v5.8h-6.05v-5.8Z"/>
  <path class="cls-1" d="M173.54,161.57v5.8h-5.87v-5.8s-.09.08-.09.08h6.05l-.09-.08Z"/>
  <path class="cls-1" d="M155.65,161.57c2.02,0,4.03,0,6.05,0v5.8h-6.05v-5.8Z"/>
  <path class="cls-1" d="M388.32,161.57v5.8h-5.87v-5.8l-.09.08h6.05l-.09-.08Z"/>
  <path class="cls-1" d="M388.33,155.69c2.02-.03,4.03-.06,6.05-.09v6.05c-2.02-.03-4.04-.05-6.05-.08l.09.08v-6.05l-.08.09Z"/>
  <path class="cls-1" d="M376.4,155.61c2.02.03,4.03.06,6.05.09,0,0-.08-.09-.08-.09v6.05l.09-.08c-1.87,0-3.75,0-6.05,0v-5.97Z"/>
  <path class="cls-1" d="M364.46,161.66v-6.05h6.05v6.05h-6.05Z"/>
  <path class="cls-1" d="M352.53,155.61h6.05v6.05h-6.05v-6.05Z"/>
  <path class="cls-1" d="M340.6,161.66v-6.05h6.05v6.05h-6.05Z"/>
  <path class="cls-1" d="M328.67,155.61h6.05v6.05h-6.05v-6.05Z"/>
  <path class="cls-1" d="M316.73,161.66v-6.05h6.05v6.05h-6.05Z"/>
  <path class="cls-1" d="M304.8,155.61h6.05v6.05h-6.05v-6.05Z"/>
  <path class="cls-1" d="M292.87,161.66v-6.05h6.05v6.05h-6.05Z"/>
  <path class="cls-1" d="M280.94,155.61h6.05v6.05h-6.05v-6.05Z"/>
  <path class="cls-1" d="M269,161.66v-6.05h6.05v6.05h-6.05Z"/>
  <path class="cls-1" d="M257.07,155.61h6.05v6.05h-6.05v-6.05Z"/>
  <path class="cls-1" d="M245.14,161.66v-6.05h6.05v6.05h-6.05Z"/>
  <path class="cls-1" d="M233.21,155.61h6.05v6.05h-6.05v-6.05Z"/>
  <path class="cls-1" d="M221.27,161.66v-6.05h6.05v6.05h-6.05Z"/>
  <path class="cls-1" d="M209.34,155.61h6.05v6.05h-6.05v-6.05Z"/>
  <path class="cls-1" d="M197.41,161.66v-6.05h6.05v6.05h-6.05Z"/>
  <path class="cls-1" d="M185.48,155.61h6.05v6.05h-6.05v-6.05Z"/>
  <path class="cls-1" d="M173.55,155.69c2.02-.03,4.03-.06,6.05-.09v5.97c-2.16,0-4.11,0-6.05,0,0,0,.09.08.09.08v-6.05l-.08.09Z"/>
  <path class="cls-1" d="M161.61,155.61c2.02.03,4.03.06,6.05.09l-.08-.09v6.05s.09-.08.09-.08c-2.02.03-4.04.05-6.05.08v-6.05Z"/>
  <path class="cls-1" d="M370.43,155.69v-5.8h6.05v5.8h-6.05Z"/>
  <path class="cls-1" d="M346.56,155.69v-5.8h6.05v5.8h-6.05Z"/>
  <path class="cls-1" d="M322.7,155.69v-5.8h6.05v5.8h-6.05Z"/>
  <path class="cls-1" d="M298.83,155.69v-5.8h6.05v5.8h-6.05Z"/>
  <path class="cls-1" d="M274.97,155.69v-5.8h6.05v5.8h-6.05Z"/>
  <path class="cls-1" d="M251.11,155.69v-5.8h6.05v5.8c-2.02,0-4.03,0-6.05,0Z"/>
  <path class="cls-1" d="M227.24,155.69v-5.8h6.05v5.8c-2.02,0-4.03,0-6.05,0Z"/>
  <path class="cls-1" d="M203.38,155.69v-5.8h6.05v5.8c-2.02,0-4.03,0-6.05,0Z"/>
  <path class="cls-1" d="M179.51,155.69v-5.8h6.05v5.8c-2.02,0-4.03,0-6.05,0Z"/>
  <path class="cls-1" d="M215.31,131.74c2.02,0,4.03,0,6.05,0v5.8h-6.05v-5.8Z"/>
  <path class="cls-1" d="M203.38,131.74c2.02,0,4.03,0,6.05,0v5.8h-6.05v-5.8Z"/>
  <path class="cls-1" d="M334.63,131.74h6.05v5.8h-6.05v-5.8Z"/>
  <path class="cls-1" d="M346.56,131.74h6.05v5.8h-6.05v-5.8Z"/>
  <path class="cls-1" d="M388.41,149.64c-.03,2.02-.05,4.04-.08,6.06l.08-.09h-6.05s.08.09.08.09v-6.05h5.97Z"/>
  <path class="cls-1" d="M167.66,155.69c-.03-2.02-.05-4.04-.08-6.06h5.97v6.06s.08-.09.08-.09h-6.05l.08.09Z"/>
  <path class="cls-1" d="M316.73,197.37h6.05v29.92h-6.05v-29.92Z"/>
  <path class="cls-1" d="M233.21,197.37h6.05v29.92h-6.05v-29.92Z"/>
  <path class="cls-1" d="M322.7,227.21h6.05v6.05c-2.02,0-4.03,0-6.05,0v-6.05Z"/>
  <path class="cls-1" d="M334.71,239.22c-2.02,0-4.03,0-6.05,0v-6.05h6.05v6.05Z"/>
  <path class="cls-1" d="M209.24,215.48h5.96v5.56h-5.88c0-1.81,0-3.73,0-5.66,0,0-.08.1-.08.1Z"/>
  <path class="cls-1" d="M179.51,191.41h6.05v6.05h-6.05v-6.05Z"/>
  <path class="cls-1" d="M233.29,191.41v6.05h-6.05v-6.05h6.05Z"/>
  <path class="cls-1" d="M203.56,209.18h-5.96v-5.56h5.88c0,1.81,0,3.73,0,5.66,0,0,.08-.1.08-.1Z"/>
  <path class="cls-1" d="M209.43,209.38v-5.79h5.72v5.7h-5.81l.09.09Z"/>
  <path class="cls-1" d="M209.35,209.3c-.03,2.06-.07,4.12-.1,6.18,0,0,.08-.1.08-.09-1.98-.04-3.96-.08-5.94-.13l.09.09c.03-2.05.06-4.11.09-6.16,0,0-.08.1-.08.09,1.99.03,3.97.07,5.96.1,0,0-.09-.09-.09-.09Z"/>
  <path class="cls-1" d="M203.38,215.26v5.81h-5.73v-5.72c1.95,0,3.88,0,5.82,0,0,0-.09-.09-.09-.09Z"/>
  <path class="cls-1" d="M322.7,197.46c0-2.02,0-4.03,0-6.05h6.05v6.05h-6.05Z"/>
  <path class="cls-1" d="M370.43,191.41c2.02,0,4.03,0,6.05,0v6.05h-6.05v-6.05Z"/>
  <path class="cls-1" d="M346.75,209.18h-5.96v-5.56h5.88c0,1.81,0,3.73,0,5.66,0,0,.08-.1.08-.1Z"/>
  <path class="cls-1" d="M352.74,209.49v-5.96h5.56v5.88c-1.81,0-3.73,0-5.66,0,0,0,.1.08.1.08Z"/>
  <path class="cls-1" d="M346.66,215.35c.03-2.05.06-4.11.09-6.16,0,0-.08.1-.08.09,2.03.07,4.05.14,6.07.21,0,0-.1-.08-.09-.08-.04,1.98-.08,3.96-.13,5.95l.09-.09c-2.01,0-4.02,0-6.03,0,0,0,.09.09.09.09Z"/>
  <path class="cls-1" d="M352.52,215.35h5.81v5.73h-5.72c0-1.95,0-3.88,0-5.82,0,0-.09.09-.09.09Z"/>
  <path class="cls-1" d="M346.57,215.26v5.81h-5.73v-5.72c1.95,0,3.88,0,5.82,0,0,0-.09-.09-.09-.09Z"/>
</svg>