<?xml version="1.0" encoding="UTF-8"?>
<svg id="_レイヤー_1" data-name="レイヤー 1" xmlns="http://www.w3.org/2000/svg" viewBox="0 0 332.07 379.64">
  <path d="M24.41,238.01h-3v-2.94h-2.93v-3.03h2.84v-2.98h3.03v-3.03h9v-3.03h15.08v-2.97h21.1v-3.08h12.04v-2.97h-2.91v-3.03h-2.98v-3.03h-3.03v-2.98h-3.03v-6.04h-2.98v-3.03h-3.03v-5.99h-3.04v-9.13l-.04.04h3.1v6.07h2.98v6.05h3.03v2.98h3.03v6.05h2.98v3.03h3.03v2.98h3.03v3.03h2.98v3.03h3.03v2.98h6.05v3.03h2.98v3.03h6.05v2.98h6.05v3.03h9v3.03h12.07v2.98h12.07v2.9h42.15v-3h21.11v-2.98h6.05v-3.03h5.99v-3.03h6.05v-2.98h6.04v-3.03h2.98v-3.03h6.05v-2.98h3.03v-3.03h2.98v-3.03h3.03v-2.98h3.03v-3.03h2.98v-6.05h3.03v-2.98h3.03v-6.05h2.98v-5.95h3l-.04-.04c.01,3.03.03,6.06.04,9.09h-3.1v6.06h-2.84v2.98h11.98l-.04-.04v3h-14.99v2.98h-3.03v3.03h-2.98v3.03h-3.03v2.98h-2.97v3.03h14.9v3.03h21.11v2.98h15.09v3.03h9.01v3.03h3.03v2.98h2.97v3.03h-2.84v3.05h-3.11l.04.04v-3.11h-3.09v-2.98h-6.05v-3.03h-15.03v-3.03h-21.11v-2.84h-27.14v2.97h-5.85v3.03h12.01v2.98h5.85v3.03h-5.95v3.03h-12.07v2.98h-18.1v2.9h-90.36v-3h-12.07v-2.98h-15.09v-3.03h-5.86v-3.03h5.98v-2.98h8.87v-3.03h-5.95v-2.85h-21.11v2.93h-24.13v3.03h-12.02v3.03h-9.06v2.98h-2.98v3l.04-.04ZM108.7,232.11h-14.88v2.83h14.88v-2.83ZM235.26,234.95v-2.84h-11.85v2.84h11.85Z"/>
  <path d="M214.23,114.5h9.02v-2.98h2.97v-2.97h3.08v2.87h8.99v2.96h3.03v-2.85h3.03v-3h2.97v2.89h3.03v2.93h3.03v-2.87h3.03v-2.92h3.03v2.83h3.01c0-4.97,0-9.96,0-14.96,0,0-.04.05-.04.05h3.01v36.04h3.03v2.98h3.03v3.03h2.98v9.12h3.11l-.04-.04v3.1h-3.03v8.99h-2.87v12.01h2.94v3.08h-6.1v5.96h-2.98l.04.04v-12.14h3.03v-11.93c1.02-.05,1.95-.09,2.88-.13v-11.97h-5.95v-6.11h-3.05v-18h-2.97v-5.94h-2.97v5.94h-3.11v2.91h-2.98v-2.91h-3v-2.93h-2.97v2.93h-3.11v2.91h-9v-2.91c-1.11,0-2.05,0-3,0,0-.98,0-1.96,0-2.94h-2.89v2.9h2.93v2.94h-12.13v-2.95h-2.98l.04.04c0-2.02,0-4.04,0-6.06l-.04.04Z"/>
  <path d="M265.52,295.35h-6.05v8.91h-5.94v-23.95h20.95v2.87h2.96v12.07h-2.82v3.03h2.83v5.94h-5.94v-2.87h-2.98v-3.03h-3.03v-2.97ZM271.48,286.34h-11.92v2.81h11.92v-2.81Z"/>
  <path d="M135.88,304.22v-2.84h-2.92v-3.03h-3.03v-2.93h-6.05v8.84h-5.95v-23.93h20.92v2.84h2.97v12.07h-2.8v3.03h2.81v5.95h-5.96ZM135.83,286.36h-11.87v2.83h11.87v-2.83Z"/>
  <path d="M141.9,114.5h6.01v-2.98h2.97v-2.97h3.08v2.87h5.98v2.96h3.03v-2.84h3.02v-3h2.97v2.88h3.08v2.99h5.98v-2.92h6.12l-.04-.04v3.01h3.05v3.01h3.01v3.02h3.02v2.94h-6.11v-2.9h-2.98v-2.93h-2.97v2.93h-3.11v2.91h-5.99v-2.91h-3v-2.93h-2.97v2.93h-3.11v2.91h-5.99v-2.91h-3v-2.93h-2.97v2.93h-3.11v2.91h-5.99v-2.91h-3v-3.06h3.05v-3.01l-.04.04Z"/>
  <path d="M226.38,304.23v-23.93h23.93v5.93h-17.9v2.98h11.89v6.05h-11.85v3.03h17.9v5.94h-23.96Z"/>
  <path d="M108.66,304.26h-5.88v-2.89h-3.03v-3.03h-2.98v-3.03h-3.03v-2.93h-3.03v11.87h-5.94v-23.94h5.88v2.87h3.03v3.03h2.98v3.03h3.03v2.93h3.03v-11.87h5.94v23.96Z"/>
  <path d="M147.91,304.23v-2.87h-2.87v-18.1h2.87v-2.93h18.1v2.87h2.93v18.1h-2.87v2.93h-18.15ZM162.98,286.38h-11.92v11.82h11.92v-11.82Z"/>
  <path d="M223.26,343.42v-2.82h6c.04.92.08,1.85.13,2.88h5.86v15.01h-5.85v-11.87h-3.03v2.84h-3.03v9.03h-5.99v-11.87h-3.03v2.85h-3.03v9.03h-5.94v-17.91h5.87v2.81h3.03v-2.83h5.99v2.85h3.03Z"/>
  <path d="M259.43,247.05v3h-2.94v2.98h-3.03v3.03h-15.03v3.04h-27.22l.04.04v-3.09h12.07v-2.97h5.88v-2.98h-8.96v-3.01h39.22l-.04-.04Z"/>
  <path d="M199.31,280.26h5.85v8.91h12.07v-8.84h5.97v23.92h-5.88v-8.88h-12.07v8.84h-5.94v-23.96Z"/>
  <path d="M178.16,286.36v11.88h11.93v-2.85h5.95v5.9h-2.83v2.94h-18.1v-2.84h-2.94v-18.1h2.85v-2.93h18.1v2.85h2.93v5.98h-5.88v-2.81h-12.02Z"/>
  <path d="M120.85,259.11h-27.1v-2.94h-15.03v-3.03h-3.03v-2.98h-6.06v-3.1l-.04.04h39.22v3.01h-8.95v3.03h5.93v3.02h15.03v2.99l.04-.04Z"/>
  <path d="M238.43,358.48v-23.92h5.89v5.91h12.07v2.97h2.97v12.07h-2.83v2.97h-18.1ZM253.35,346.61h-8.86v5.83h8.86v-5.83Z"/>
  <path d="M93.7,340.54v-5.97h5.96v23.9h-17.96v-2.88h-2.99v-12.01h2.93v-3.03h12.07ZM84.77,346.59v5.84h8.85v-5.84h-8.85Z"/>
  <path d="M57.64,280.3h5.89v17.9h12.07v-17.9h5.94v21h-2.87v2.92h-18.1v-2.87h-2.93v-21.06Z"/>
  <path d="M123.87,340.61v2.87h2.87v12.07h-2.87v2.93h-18.1v-2.87h-2.93v-12.07h2.87v-2.93h18.15ZM108.83,352.43h11.91v-5.81h-11.91v5.81Z"/>
  <path d="M144.96,63.25v-3h2.94v-5.99h2.96v-3.03h-2.8v-6.06h2.92l-.04-.04v3.11h3.09v2.98h9.06v3.02h26.96v2.87h-30.07v-2.82h-6.04v3.01h-2.88v2.97h20.99v3l.04-.04h-3v2.96h-2.98v-2.84h-3.03v2.8h-3.03v-2.82h-2.98v2.83h-3.03v-2.8h-3.03v2.81h-2.98v-2.96h-3.11l.04.04Z"/>
  <path d="M163.02,325.47v-3.03h2.94v-2.98h-2.92v-3.03h-2.93v-5.97h5.88v2.87h3.03v3h2.98v-2.92h3.03v-2.93h5.97v5.88h-2.87v3.03h-3v2.98h2.92v3.03h2.93v5.97h-5.88v-2.87h-3.03v-3h-2.98v2.92h-3.03v2.93h-5.97v-5.88h2.92Z"/>
  <path d="M166,358.47v-2.87h-2.87v-12.07h2.87v-2.93h18.03v5.88h-14.87v6.05h14.88v5.94h-18.04Z"/>
  <path d="M211.22,259.11v2.94h-90.37v-2.94l-.04.04c3.31,0,6.62-.02,9.93-.02,26.84,0,53.68.01,80.52.02l-.04-.04Z"/>
  <path d="M150.87,346.5h-8.9v11.99h-6.04v-11.91h-5.97v-6.05h5.89v-5.97h5.99v5.89h9.04v6.04Z"/>
  <path d="M75.64,126.55v-3h5.95v-2.98h3.03v-3.03h5.99v-3.04h9.13l-.04-.04c.02,1.02.03,2.03.05,3.05-1.98,0-3.96,0-5.95,0v2.89h5.91v-2.94c3.03.02,6.05.03,9.08.05,0,0-.04-.04-.04-.04,0,1.02,0,2.04,0,3.05l.04-.04h-6.12v3.09h-18.04v2.94h-9.03l.04.04Z"/>
  <path d="M60.57,180.75h-3v-8.96h-2.97v-12.06h-3v-21.1h2.85v-3.04h3.1l-.04-.04c.01,3.03.03,6.06.04,9.09h-2.92v12.07h2.92v12.06h2.98v12.03l.04-.04Z"/>
  <path d="M150.98,45.18v-3h5.95v-2.97h12.06v-3.07h9.05v-2.92h15.09v2.92l.04-.04h-12.14v3.07h-8.92c-.04,1.02-.09,1.95-.13,3.02h-11.96v3c-3.03-.01-6.05-.03-9.08-.04l.04.04Z"/>
  <path d="M187.23,334.54h5.85v23.92h-5.85v-23.92Z"/>
  <path d="M211.26,66.23c-3.03,0-6.05,0-9.08,0l.04.04v-12.12h-9.09c0-1.1,0-2.05,0-2.99,8.05.01,16.1.03,24.15.04l-.04-.04v3.08h-11.93v8.97h5.94c-.01,1.02-.03,2.04-.04,3.06l.04-.04Z"/>
  <path d="M298.61,144.63h6.01v2.93h2.97v3.03h3.08v6.04h2.92v18.09h-2.93l.04.04v-15.15h-3.07v-5.98h-3.03v-3.08h-3.03v-2.97h-2.94v-3l-.04.04Z"/>
  <path d="M202.09,358.51h-5.84v-11.86h5.84v11.86Z"/>
  <path d="M54.42,292.21h-11.87v-5.84h11.87v5.84Z"/>
  <path d="M280.63,286.31h11.88v5.88h-11.88v-5.88Z"/>
  <path d="M69.62,247.05h-21.1v-3.01l-.04.04h21.1v3.01l.04-.04Z"/>
  <path d="M280.53,244.04v3.01h-21.1l.04.04v-3.01h21.1l-.04-.04Z"/>
  <path d="M298.61,189.79v2.98h-5.97v3.04h-9.1l.04.04v-3.08h6.08v-2.94h8.99l-.04-.04Z"/>
  <path d="M223.27,51.21h2.97v5.95h3.05v3.09l.04-.04h-3.01v3.06c-1.02,0-2.04,0-3.05,0,0-.98,0-1.97,0-3.02h-3.02v-3.09h3.06v-5.99l-.04.04Z"/>
  <path d="M241.35,78.29v15.07h-3.01s.04.04.04.04c-.01-5.04-.03-10.07-.04-15.11,1.02.01,2.04.03,3.06.04l-.04-.04Z"/>
  <path d="M184.13,111.48v-15.07h3.01l-.04-.04c.01,5.04.03,10.08.04,15.11-1.02-.01-2.04-.03-3.05-.04l.04.04Z"/>
  <path d="M220.3,84.31h-3.01v-12.05l-.04.04h6.07v3.01h-3.06v9.04l.04-.04Z"/>
  <path d="M202.17,66.23v2.94h-15.02v-2.93l-.04.04c5.04,0,10.07,0,15.11,0l-.04-.04Z"/>
  <path d="M256.37,93.46c.95-.04,1.9-.09,3.05-.14,0-2.97,0-5.96,0-8.95,0,0-.04.05-.04.05h3.02c0,3.99,0,8.02,0,12.05,0,0,.04-.05.04-.05-1.93,0-3.86,0-6.03,0,0-1.08,0-2.05,0-3.02,0,0-.04.05-.04.05Z"/>
  <path d="M187.15,66.23h-15.07v-3.02s-.04.04-.04.04h15.07v3.01l.04-.04Z"/>
  <path d="M120.85,90.38v-2.93h15.02v2.93l.04-.04h-15.11l.04.04Z"/>
  <path d="M193.18,90.38v-2.93h15.02v2.93l.04-.04h-15.11l.04.04Z"/>
  <path d="M48.52,244.04h-15.07v-3.01l-.04.04h15.07v3.01l.04-.04Z"/>
  <path d="M114.82,111.43h-2.93v-15.02h2.93l-.04-.04v15.11l.04-.04Z"/>
  <path d="M295.6,241.03v3.01h-15.07l.04.04v-3.01h15.07l-.04-.04Z"/>
  <path d="M141.9,96.41h2.93v15.02h-2.93l.04.04v-15.11l-.04.04Z"/>
  <path d="M214.23,96.41h2.93v15.02h-2.93l.04.04v-15.11l-.04.04Z"/>
  <path d="M283.59,144.63v-2.93h15.02v2.94l.04-.04h-15.11l.04.04Z"/>
  <path d="M159.9,358.51h-5.85v-5.84h5.85v5.84Z"/>
  <path d="M238.34,93.35v2.94h-12.01v-2.93l-.04.04c4.03,0,8.06,0,12.1,0l-.04-.04Z"/>
  <path d="M283.54,195.82v3.02h-12.06l.04.04v-3.01h12.05l-.04-.04Z"/>
  <path d="M196.23,340.42v-5.84h5.87v5.84h-5.87Z"/>
  <path d="M66.59,36.09h-2.93v-8.99h2.93l-.04-.04c0,3.03,0,6.05,0,9.08l.04-.04Z"/>
  <path d="M96.79,36.03h-2.97v-8.93h2.91l-.04-.04c.02,3.01.04,6.01.05,9.02,0,0,.04-.05.04-.05Z"/>
  <path d="M126.92,36.03h-2.96v-8.99c.91,0,1.88,0,2.85,0,0,0-.05-.04-.05-.04.04,3.02.08,6.05.11,9.08,0,0,.04-.05.04-.05Z"/>
  <path d="M193.13,36.14h9.04v3.01l.04-.04h-9.04v-3.01l-.04.04Z"/>
  <path d="M202.17,39.15h9.04v3.01l.04-.04h-9.04v-3.01l-.04.04Z"/>
  <path d="M211.21,42.16h9.04v3.01l.04-.04h-9.04v-3.01l-.04.04Z"/>
  <path d="M75.7,54.27c-.02-3.04-.04-6.09-.06-9.13l-.04.04h2.93v9.05c-.93,0-1.9,0-2.87,0,0,0,.05.04.05.04Z"/>
  <path d="M105.78,54.21c-.02-3.01-.04-6.01-.05-9.02,0,0-.04.05-.04.05h2.97v8.93h-2.91l.04.04Z"/>
  <path d="M135.82,45.24h2.97v8.93h-2.91l.04.04c-.02-3.01-.04-6.01-.05-9.02,0,0-.04.05-.04.05Z"/>
  <path d="M220.25,45.18h3.02v6.03s.04-.04.04-.04h-6.07l.04.04v-3.09h3.01v-2.98l-.04.04Z"/>
  <path d="M304.64,238.01v3.02h-9.04l.04.04v-3.01h9.04l-.04-.04Z"/>
  <path d="M33.45,241.03h-9.04c0-1.05,0-2.03,0-3.02l-.04.04h9.04v3.01l.04-.04Z"/>
  <path d="M229.29,60.25h9.04v3.01l.04-.04c-3.03.01-6.06.03-9.09.04.01-1.02.03-2.04.04-3.05l-.04.04Z"/>
  <path d="M66.49,63.17c.04,3.02.08,6.05.11,9.08,0,0,.04-.05.04-.05h-2.96v-8.99c.91,0,1.88,0,2.85,0,0,0-.05-.04-.05-.04Z"/>
  <path d="M96.79,72.2h-2.97v-8.93h2.91l-.04-.04c.02,3.01.04,6.01.05,9.02,0,0,.04-.05.04-.05Z"/>
  <path d="M99.75,114.5v-2.94h9v2.93l.04-.04h-9.08l.04.04Z"/>
  <path d="M66.6,129.56v-3.01h9.04l-.04-.04v3.01h-9.04l.04.04Z"/>
  <path d="M75.64,90.38c0-3.03,0-6.05,0-9.08l-.04.04h2.93v8.99h-2.93l.04.04Z"/>
  <path d="M105.84,90.43c-.04-3.02-.08-6.05-.11-9.08,0,0-.04.05-.04.05h2.96v8.99c-.91,0-1.88,0-2.85,0,0,0,.05.04.05.04Z"/>
  <path d="M126.77,63.17v9.03h-2.81v-8.99c.91,0,1.88,0,2.86,0,0,0-.05-.04-.05-.04Z"/>
  <path d="M238.34,63.26h6.03v3.01l.04-.04h-6.03v-3.01l-.04.04Z"/>
  <path d="M144.92,63.21v3.01h-6.03l.04.04v-3.01c2.05,0,4.04,0,6.03,0,0,0-.04-.04-.04-.04Z"/>
  <path d="M310.67,174.72v6.03h-3.01l.04.04v-6.03h3.01l-.04-.04Z"/>
  <path d="M223.31,90.34h-3.01v-6.03l-.04.04c1.02-.01,2.04-.03,3.05-.04-.01,2.02-.03,4.05-.04,6.07,0,0,.04-.04.04-.04Z"/>
  <path d="M256.43,78.33h2.96c0,2.06,0,4.07,0,6.08,0,0,.04-.05.04-.05-.94,0-1.88,0-2.96,0v-6.08l-.04.04Z"/>
  <path d="M277.56,147.65v-3.02h6.03l-.04-.04v3.01h-6.03l.04.04Z"/>
  <path d="M57.56,135.59v-3.01h6.03l-.04-.04v3.01h-6.03l.04.04Z"/>
  <path d="M126.83,78.29v5.93h-2.89v-5.89h2.93l-.04-.04Z"/>
  <path d="M108.75,114.49c2.02,0,4.05,0,6.07,0l-.04-.04v3.01h-6.03l.04.04v-3.06l-.04.04Z"/>
  <path d="M214.23,111.43v3.06l.04-.04-3.05.04v-3.02h3.05l-.04-.04Z"/>
  <path d="M211.22,93.4h3.01v3.01l.04-.04h-3.01v-3.01l-.04.04Z"/>
  <path d="M181.08,75.32h3.06c0,1.01,0,1.98,0,2.95,0,0,.04-.05.04-.05h-3.06v-2.95l-.04.04Z"/>
  <path d="M247.32,93.3v3.01h-2.81v-2.97c.91,0,1.88,0,2.86,0,0,0-.05-.04-.05-.04Z"/>
  <path d="M69.51,96.32v3.01h-2.81v-2.97c.91,0,1.88,0,2.86,0,0,0-.05-.04-.05-.04Z"/>
  <path d="M99.64,96.32v3.01h-2.81v-2.97c.91,0,1.88,0,2.86,0,0,0-.05-.04-.05-.04Z"/>
  <path d="M175.16,78.38v-3.12c.94,0,1.91,0,2.89,0,0,0-.05-.04-.05-.04v3.12c-.94,0-1.91,0-2.89,0,0,0,.05.04.05.04Z"/>
  <path d="M172.07,78.28h-3.06c0-1.01,0-1.98,0-2.95,0,0-.04.05-.04.05h3.06v2.95l.04-.04Z"/>
  <path d="M163.1,78.38v-3.06h2.95l-.04-.04v3.06c-1.01,0-1.98,0-2.95,0,0,0,.05.04.05.04Z"/>
  <path d="M156.97,75.32h3v3.01l.04-.04h-3v-3.01l-.04.04Z"/>
  <path d="M151.05,78.38v-3.12c.94,0,1.91,0,2.89,0,0,0-.05-.04-.05-.04v3.12c-.94,0-1.91,0-2.89,0,0,0,.05.04.05.04Z"/>
  <path d="M172.04,93.4c1-.02,1.99-.04,2.99-.05,0,0-.05-.04-.05-.04v2.97h-2.9v-2.91l-.04.04Z"/>
  <path d="M169.02,93.36v2.93h-2.97c0-.97,0-1.95,0-2.93,0,0-.04.04-.04.04h3.06l-.04-.04Z"/>
  <path d="M162.99,93.36v2.92h-3.02c0-.93,0-1.9,0-2.87,0,0-.04.05-.04.05,1.03-.02,2.07-.04,3.1-.06l-.04-.04Z"/>
  <path d="M114.82,114.5v-3.06l-.04.04h3.05v3.02c-1.02-.01-2.04-.03-3.05-.04l.04.04Z"/>
  <path d="M141.9,111.43c0,1.02,0,2.04,0,3.06,0,0,.04-.04.04-.04-1.02.01-2.04.03-3.05.04v-3.02h3.05l-.04-.04Z"/>
  <path d="M144.92,75.32h3v3.01l.04-.04h-3v-3.01l-.04.04Z"/>
  <path d="M141.84,75.22v3.06h-2.95l.04.04v-3.06l-.04.04c1-.02,2-.04,3-.05,0,0-.05-.04-.05-.04Z"/>
  <path d="M69.68,24.13v-3.01h2.81v2.97c-.91,0-1.88,0-2.86,0,0,0,.05.04.05.04Z"/>
  <path d="M150.88,93.3v2.97h-2.9v-2.91l-.04.04c1-.02,1.99-.04,2.99-.05,0,0-.05-.04-.05-.04Z"/>
  <path d="M135.91,78.28c-1.02,0-2.04,0-3.05,0l.04.04v-3.06l-.04.04h3.06l-.04-.04v3.06l.04-.04Z"/>
  <path d="M138.89,93.4h3.01v3.01l.04-.04h-3.01v-3.01l-.04.04Z"/>
  <path d="M114.82,96.41v-3.01h3.01l-.04-.04v3.01h-3.01l.04.04Z"/>
  <path d="M126.87,78.33v-3.02h3.02l-.04-.04v3.06l.04-.04c-1.02,0-2.04,0-3.06,0,0,0,.04.04.04.04Z"/>
  <path d="M102.76,78.28h-3v-3.01l-.04.04h3v3.01l.04-.04Z"/>
  <path d="M102.72,93.36v2.96c-1.05,0-2.06,0-3.07,0,0,0,.05.04.05.04,0-.94,0-1.87,0-2.96h3.07l-.04-.04Z"/>
  <path d="M69.58,75.32h3.06c0,1.01,0,1.98,0,2.95,0,0,.04-.05.04-.05h-3.06v-2.95l-.04.04Z"/>
  <path d="M250.39,72.3h3.01v3.01s.04-.04.04-.04h-3.06l.04.04v-3.06l-.04.04Z"/>
  <path d="M72.52,93.3v3.02c-1.04,0-2.03,0-3.01,0,0,0,.05.04.05.04,0-.93,0-1.86,0-3.02,1.08,0,2.05,0,3.02,0,0,0-.05-.04-.05-.04Z"/>
  <path d="M63.58,132.58v-3.02h3.02l-.04-.04v3.01h-3.01l.04.04Z"/>
  <path d="M253.41,90.39h2.96c0,1.05,0,2.06,0,3.07,0,0,.04-.05.04-.05-.94,0-1.87,0-2.96,0v-3.07l-.04.04Z"/>
  <path d="M250.33,90.29v3.02c-1.04,0-2.03,0-3.01,0,0,0,.05.04.05.04,0-.93,0-1.86,0-3.02,1.08,0,2.05,0,3.02,0,0,0-.05-.04-.05-.04Z"/>
  <path d="M244.41,78.28h-3.06s.04.04.04.04c-.01-1.02-.03-2.04-.04-3.06,1.02,0,2.04,0,3.06,0-.01,1.02-.03,2.04-.04,3.06,0,0,.04-.04.04-.04Z"/>
  <path d="M202.22,75.31v-2.92h3.02c0,.93,0,1.9,0,2.87,0,0,.04-.05.04-.05-1.03.02-2.07.04-3.1.06l.04.04Z"/>
  <path d="M193.22,75.21c-1.02.04-2.03.08-3.05.11,0,0,.05.04.05.04v-3.01h2.96c0,.96,0,1.93,0,2.91,0,0,.04-.05.04-.05Z"/>
  <path d="M226.33,93.36h-3.02v-3.02l-.04.04c1.02-.01,2.04-.03,3.06-.04-.01,1.02-.03,2.04-.04,3.05l.04-.04Z"/>
  <path d="M181.13,75.28c-1.04-.02-2.08-.03-3.12-.05,0,0,.05.04.05.04,0-.94,0-1.87,0-2.89h3.04c0,.99,0,1.97,0,2.95,0,0,.04-.04.04-.04Z"/>
  <path d="M208.2,90.38h3.02v3.02l.04-.04h-3.01v-3.01l-.04.04Z"/>
  <path d="M166.05,75.32v-2.93h2.93c0,.96,0,1.97,0,2.98,0,0,.04-.05.04-.05-1-.02-2.01-.03-3.01-.05,0,0,.04.04.04.04Z"/>
  <path d="M157.02,75.28c-1.04-.02-2.08-.03-3.12-.05,0,0,.05.04.05.04,0-.94,0-1.87,0-2.89h3.04c0,.99,0,1.97,0,2.95,0,0,.04-.04.04-.04Z"/>
  <path d="M187.15,78.32v-2.96c1.05,0,2.06,0,3.07,0,0,0-.05-.04-.05-.04,0,.94,0,1.87,0,2.96h-3.07l.04.04Z"/>
  <path d="M190.16,93.4v-3.01h3.01s-.04-.04-.04-.04v3.01h-3.01l.04.04Z"/>
  <path d="M181.08,90.39h2.92v2.89h-2.88v-2.93l-.04.04Z"/>
  <path d="M178,90.29v3.02c-1.04,0-2.03,0-3.01,0,0,0,.05.04.05.04,0-.93,0-1.86,0-3.02,1.08,0,2.05,0,3.02,0,0,0-.05-.04-.05-.04Z"/>
  <path d="M144.96,75.28c-1.04-.02-2.08-.03-3.12-.05,0,0,.05.04.05.04,0-.94,0-1.87,0-2.89h3.04c0,.99,0,1.97,0,2.95,0,0,.04-.04.04-.04Z"/>
  <path d="M172.08,93.36c-1.02,0-2.04,0-3.06,0,0,0,.04.04.04.04v-3.06l-.04.04h3.02c0,1.05,0,2.03,0,3.02,0,0,.04-.04.04-.04Z"/>
  <path d="M135.87,72.3h3.01v3.01l.04-.04h-3.06l.04.04v-3.06l-.04.04Z"/>
  <path d="M163.03,93.4v-3.02h3.02l-.04-.04v3.06s.04-.04.04-.04c-1.02,0-2.04,0-3.06,0,0,0,.04.04.04.04Z"/>
  <path d="M129.89,75.32v-3.01c1.05,0,2.03,0,3.01,0l-.04-.04v3.06l.04-.04h-3.06l.04.04Z"/>
  <path d="M156.92,90.45h3.02c0,1.04,0,2.03,0,3.01,0,0,.04-.05.04-.05-.93,0-1.86,0-3.02,0,0-1.08,0-2.05,0-3.02,0,0-.04.05-.04.05Z"/>
  <path d="M99.76,75.28h-2.97c0-1.05,0-2.06,0-3.08,0,0-.04.05-.04.05.94,0,1.87,0,2.97,0,0,1.12,0,2.1,0,3.08,0,0,.04-.04.04-.04Z"/>
  <path d="M69.62,75.28h-2.97c0-1.05,0-2.06,0-3.08,0,0-.04.05-.04.05.94,0,1.87,0,2.97,0,0,1.12,0,2.1,0,3.08,0,0,.04-.04.04-.04Z"/>
  <path d="M247.38,69.29h3.01v3.01l.04-.04c-1.02.01-2.04.03-3.06.04.01-1.02.03-2.04.04-3.05l-.04.04Z"/>
  <path d="M187.15,96.41v-3.02c1.05,0,2.03,0,3.02,0l-.04-.04v3.01h-3.01l.04.04Z"/>
  <path d="M217.29,72.26h-3.01v-3.01l-.04.04h3.01v3.01l.04-.04Z"/>
  <path d="M135.81,69.2c.02,1.04.04,2.07.06,3.11l.04-.04h-3.06l.04.04v-3.07c1.01,0,1.98,0,2.96,0,0,0-.05-.04-.05-.04Z"/>
  <path d="M244.36,66.27h3.02v3.02l.04-.04h-3.01v-3.01l-.04.04Z"/>
  <path d="M147.98,93.36h-3.01v-3.01l-.04.04h3.01c0,1.04,0,2.03,0,3.01,0,0,.04-.04.04-.04Z"/>
  <path d="M135.87,90.38h3.02v3.02l.04-.04h-3.01v-3.01l-.04.04Z"/>
  <path d="M196.18,78.28h-2.96c0-1.05,0-2.06,0-3.07,0,0-.04.05-.04.05.94,0,1.87,0,2.96,0v3.07l.04-.04Z"/>
  <path d="M214.27,69.25h-3.02v-3.02l-.04.04c1.02-.01,2.04-.03,3.05-.04-.01,1.02-.03,2.04-.04,3.06l.04-.04Z"/>
  <path d="M307.65,180.75v3.01h-3.01l.04.04v-3.01h3.01l-.04-.04Z"/>
  <path d="M117.83,93.4v-3.02h3.02s-.04-.04-.04-.04v3.01h-3.01l.04.04Z"/>
  <path d="M304.64,183.76v3.01h-3.01l.04.04v-3.01h3.01l-.04-.04Z"/>
  <path d="M102.76,93.4v-2.97c1.05,0,2.06,0,3.08,0,0,0-.05-.04-.05-.04,0,.94,0,1.87,0,2.97-1.12,0-2.1,0-3.08,0,0,0,.04.04.04.04Z"/>
  <path d="M75.6,90.34v2.97c-1.05,0-2.06,0-3.08,0,0,0,.05.04.05.04,0-.94,0-1.87,0-2.97,1.12,0,2.1,0,3.08,0,0,0-.04-.04-.04-.04Z"/>
  <path d="M301.63,186.78v3.02h-3.02l.04.04v-3.01h3.01l-.04-.04Z"/>
  <path d="M138.89,66.23v2.97c-1.05,0-2.06,0-3.08,0,0,0,.05.04.05.04,0-.94,0-1.87,0-2.97,1.12,0,2.1,0,3.08,0,0,0-.04-.04-.04-.04Z"/>
  <path d="M253.45,90.34c-1.04-.02-2.08-.03-3.12-.05,0,0,.05.04.05.04,0-.94,0-1.87,0-2.89h3.04c0,.99,0,1.97,0,2.95,0,0,.04-.04.04-.04Z"/>
  <path d="M217.16,90.29h-2.84v-2.83h2.84v2.83Z"/>
  <path d="M202.18,75.27v3.07c-1.02,0-1.99,0-2.96,0,0,0,.05.04.05.04v-3.07c1.01,0,1.98,0,2.95,0,0,0-.04-.04-.04-.04Z"/>
  <path d="M181.13,90.34c-1.04-.02-2.08-.03-3.12-.05,0,0,.05.04.05.04,0-.94,0-1.87,0-2.89h3.04c0,.99,0,1.97,0,2.95,0,0,.04-.04.04-.04Z"/>
  <path d="M166.05,90.39v-2.93h2.97v2.93l.04-.04h-3.06l.04.04Z"/>
  <path d="M154,90.38v-2.93h2.92c0,1.02,0,2.01,0,3,0,0,.04-.05.04-.05-1-.02-2-.04-3-.06,0,0,.04.04.04.04Z"/>
  <path d="M144.96,90.34h-2.93v-2.9h2.89c0,.98,0,1.96,0,2.94,0,0,.04-.04.04-.04Z"/>
  <path d="M208.24,78.28h-2.96c0-1.05,0-2.06,0-3.07,0,0-.04.05-.04.05.94,0,1.87,0,2.96,0v3.07l.04-.04Z"/>
  <path d="M211.32,78.38v-3.01h2.81v2.97c-.91,0-1.88,0-2.86,0,0,0,.05.04.05.04Z"/>
  <path d="M253.4,78.29v2.93h-2.97v-2.93l-.04.04h3.06l-.04-.04Z"/>
  <path d="M247.38,78.29v2.93h-2.97v-2.93l-.04.04h3.06l-.04-.04Z"/>
  <path d="M208.2,78.33c1.04.02,2.08.03,3.12.05,0,0-.05-.04-.05-.04,0,.94,0,1.87,0,2.89h-3.04c0-.99,0-1.97,0-2.95,0,0-.04.04-.04.04Z"/>
  <path d="M196.14,78.33c1.04.02,2.08.03,3.12.05,0,0-.05-.04-.05-.04,0,.94,0,1.87,0,2.89h-3.04c0-.99,0-1.97,0-2.95,0,0-.04.04-.04.04Z"/>
  <path d="M187.11,78.28v2.93h-2.93c0-.96,0-1.97,0-2.98,0,0-.04.05-.04.05,1,.02,2.01.03,3.01.05,0,0-.04-.04-.04-.04Z"/>
  <path d="M172.03,78.33c1.04.02,2.08.03,3.12.05,0,0-.05-.04-.05-.04,0,.94,0,1.87,0,2.89h-3.04c0-.99,0-1.97,0-2.95,0,0-.04.04-.04.04Z"/>
  <path d="M129.78,60.15v3.02c-1.04,0-2.03,0-3.01,0,0,0,.05.04.05.04,0-.93,0-1.86,0-3.02,1.08,0,2.05,0,3.02,0,0,0-.05-.04-.05-.04Z"/>
  <path d="M96.73,63.27v-3.01h3.01l-.04-.04v3.01c-1.04,0-2.03,0-3.01,0,0,0,.04.04.04.04Z"/>
  <path d="M69.51,60.15v3.02c-1.04,0-2.03,0-3.01,0,0,0,.05.04.05.04,0-.93,0-1.86,0-3.02,1.08,0,2.05,0,3.02,0,0,0-.05-.04-.05-.04Z"/>
  <path d="M132.8,57.14v3.02c-1.04,0-2.03,0-3.01,0,0,0,.05.04.05.04,0-.93,0-1.86,0-3.02,1.08,0,2.05,0,3.02,0,0,0-.05-.04-.05-.04Z"/>
  <path d="M99.75,60.25v-3.07c1.02,0,1.99,0,2.96,0,0,0-.05-.04-.05-.04v3.07c-1.01,0-1.98,0-2.95,0,0,0,.04.04.04.04Z"/>
  <path d="M72.58,57.19v2.96c-1.05,0-2.06,0-3.07,0,0,0,.05.04.05.04,0-.94,0-1.87,0-2.96h3.07l-.04-.04Z"/>
  <path d="M135.88,54.17v2.97c-1.05,0-2.06,0-3.08,0,0,0,.05.04.05.04,0-.94,0-1.87,0-2.97,1.12,0,2.1,0,3.08,0,0,0-.04-.04-.04-.04Z"/>
  <path d="M105.74,54.17v2.97c-1.05,0-2.06,0-3.08,0,0,0,.05.04.05.04,0-.94,0-1.87,0-2.97,1.12,0,2.1,0,3.08,0,0,0-.04-.04-.04-.04Z"/>
  <path d="M72.62,57.24v-2.97c1.05,0,2.06,0,3.08,0,0,0-.05-.04-.05-.04,0,.94,0,1.87,0,2.97-1.12,0-2.1,0-3.08,0,0,0,.04.04.04.04Z"/>
  <path d="M159.98,78.33c1.04.02,2.08.03,3.12.05,0,0-.05-.04-.05-.04,0,.94,0,1.87,0,2.89h-3.04c0-.99,0-1.97,0-2.95,0,0-.04.04-.04.04Z"/>
  <path d="M147.92,78.33c1.04.02,2.08.03,3.12.05,0,0-.05-.04-.05-.04,0,.94,0,1.87,0,2.89h-3.04c0-.99,0-1.97,0-2.95,0,0-.04.04-.04.04Z"/>
  <path d="M138.89,78.28v2.93h-2.97v-2.93l-.04.04h3.06l-.04-.04Z"/>
  <path d="M132.86,78.28v2.93h-2.97v-2.93l-.04.04h3.06l-.04-.04Z"/>
  <path d="M102.72,78.33h2.97c0,1.05,0,2.06,0,3.08,0,0,.04-.05.04-.05-.94,0-1.87,0-2.97,0,0-1.12,0-2.1,0-3.08,0,0-.04.04-.04.04Z"/>
  <path d="M132.86,42.17h2.96c0,1.05,0,2.06,0,3.07,0,0,.04-.05.04-.05-.94,0-1.87,0-2.96,0v-3.07l-.04.04Z"/>
  <path d="M102.73,42.17h2.96c0,1.05,0,2.06,0,3.07,0,0,.04-.05.04-.05-.94,0-1.87,0-2.96,0v-3.07l-.04.04Z"/>
  <path d="M75.65,45.14h-3.01v-3.01l-.04.04h3.01c0,1.04,0,2.03,0,3.01,0,0,.04-.04.04-.04Z"/>
  <path d="M75.65,81.3h-2.97c0-1.05,0-2.06,0-3.08,0,0-.04.05-.04.05.94,0,1.87,0,2.97,0,0,1.12,0,2.1,0,3.08,0,0,.04-.04.04-.04Z"/>
  <path d="M132.91,42.12h-3.01v-3.01l-.04.04h3.01c0,1.04,0,2.03,0,3.01,0,0,.04-.04.04-.04Z"/>
  <path d="M102.77,42.12h-3.01v-3.01l-.04.04h3.01c0,1.04,0,2.03,0,3.01,0,0,.04-.04.04-.04Z"/>
  <path d="M72.63,42.12h-3.07c0-1.02,0-1.99,0-2.96,0,0-.04.05-.04.05h3.07c0,1.01,0,1.98,0,2.95,0,0,.04-.04.04-.04Z"/>
  <path d="M256.47,78.29c-1.02,0-2.04,0-3.06,0l.04.04v-3.06s-.04.04-.04.04h3.02c0,1.05,0,2.03,0,3.02,0,0,.04-.04.04-.04Z"/>
  <path d="M129.89,39.11h-2.97c0-1.05,0-2.06,0-3.08,0,0-.04.05-.04.05.94,0,1.87,0,2.97,0,0,1.12,0,2.1,0,3.08,0,0,.04-.04.04-.04Z"/>
  <path d="M99.76,39.11h-2.97c0-1.05,0-2.06,0-3.08,0,0-.04.05-.04.05.94,0,1.87,0,2.97,0,0,1.12,0,2.1,0,3.08,0,0,.04-.04.04-.04Z"/>
  <path d="M66.55,36.13h2.97c0,1.05,0,2.06,0,3.08,0,0,.04-.05.04-.05-.94,0-1.87,0-2.97,0,0-1.12,0-2.1,0-3.08,0,0-.04.04-.04.04Z"/>
  <path d="M250.44,78.29h-3.06l.04.04c-.01-1.02-.03-2.04-.04-3.06,1.02.01,2.04.03,3.06.04l-.04-.04v3.06l.04-.04Z"/>
  <path d="M129.84,24.04v2.96c-1.05,0-2.06,0-3.07,0,0,0,.05.04.05.04,0-.94,0-1.87,0-2.96h3.07l-.04-.04Z"/>
  <path d="M96.73,27.1v-3.01h3.01l-.04-.04v3.01c-1.04,0-2.03,0-3.01,0,0,0,.04.04.04.04Z"/>
  <path d="M66.6,27.1v-2.97c1.05,0,2.06,0,3.08,0,0,0-.05-.04-.05-.04,0,.94,0,1.87,0,2.97-1.12,0-2.1,0-3.08,0,0,0,.04.04.04.04Z"/>
  <path d="M129.88,24.09v-2.93h2.9v2.89c-.98,0-1.96,0-2.94,0,0,0,.04.04.04.04Z"/>
  <path d="M99.75,24.09v-2.93h2.9v2.89c-.98,0-1.96,0-2.94,0,0,0,.04.04.04.04Z"/>
  <path d="M153.96,90.34v2.97c-1.05,0-2.06,0-3.08,0,0,0,.05.04.05.04,0-.94,0-1.87,0-2.97,1.12,0,2.1,0,3.08,0,0,0-.04-.04-.04-.04Z"/>
  <path d="M135.92,192.85v-3h2.94v-2.98h3.03v-3.03h9v-2.97h15.08v2.84h3.03v6.04h2.98v3.03h3.08v9.02h2.98v-2.88h2.98v-2.97h12.07c.04.93.08,1.85.13,2.88h2.9v3.03h2.99v2.98h-2.93v3.03h-2.98v3.03h-6.04v2.92h-54.26v-2.93l-.04.04h3.09v-3.06c1.1,0,2.04,0,2.98,0,0,.98,0,1.96,0,2.94h2.89v-2.9h-2.93c0-1.02,0-2.03,0-3.05,2.02,0,4.05,0,6.07,0v5.94h2.97v-5.94h3.06v2.93h5.98v-5.94h3.06v2.93h5.98v-5.94c1.02,0,2.04,0,3.05,0,0,.98,0,1.96,0,2.94h2.89v-2.9h-2.93v-6.03h-3.01v-6.02h-3.01v-2.93h-2.97v2.93c-1-.02-2-.04-3.01-.06v-2.86h-2.97v2.81c1.05,0,2.03,0,3.01,0,0,1.01,0,2.03,0,3.07h2.97c0,1.02,0,2.04,0,3.06h-6.1v-3.01h-5.99v-2.93h-2.97v2.93h-3.02v3.02c-2.02-.01-4.05-.03-6.07-.04l.04.04Z"/>
  <path d="M199.16,162.67v2.94h-72.28v-2.94l-.04.04h72.37l-.04-.04Z"/>
  <path d="M238.34,162.67v9.01h-2.97v2.99h-9.04v-2.88h-3.02v-9.11l-.04.04c1.02-.01,2.04-.03,3.05-.04v6.12h3.05v2.84h3.03v-2.97h2.98v-5.96h3l-.04-.04Z"/>
  <path d="M223.31,162.67c-8.05,0-16.1,0-24.16,0,0,0,.04.04.04.04v-3.06l-.04.04h24.11v3.01l.04-.04Z"/>
  <path d="M126.88,162.67h-24.11v-3.01l-.04.04h24.15l-.04-.04v3.06l.04-.04Z"/>
  <path d="M259.43,141.62h2.98v2.97h3.09v2.99h-3.02v3.02h-2.97v3.03h-6.11l.04.04v-3.11h3.05v-2.98h2.98v-6.01l-.04.04Z"/>
  <path d="M102.77,159.66h-18.08v-3.01l-.04.04h18.12l-.04-.04v3.06l.04-.04Z"/>
  <path d="M129.89,207.87h-2.94v-8.96h2.84v-3.04h3.11l-.04-.04c.01,2.02.03,4.05.04,6.07h-3.05v6.03l.04-.04Z"/>
  <path d="M66.56,150.62c3.03.01,6.06.03,9.08.04,0,0-.04-.04-.04-.04v3.06l.04-.04h-9.08v-3.01Z"/>
  <path d="M84.68,156.64h-9.04v-3.02s-.04.04-.04.04h9.08l-.04-.04v3.06l.04-.04Z"/>
  <path d="M250.39,156.64v3.01h-9.04l.04.04v-3.01h9.04l-.04-.04Z"/>
  <path d="M57.52,144.59h6.07v3.06h-6.07v-3.06Z"/>
  <path d="M63.54,147.6h3.06v3.06h-3.06v-3.06Z"/>
  <path d="M253.41,153.63v3.02h-3.02l.04.04v-3.01h3.01l-.04-.04Z"/>
  <path d="M241.35,159.65v3.02h-3.02l.04.04v-3.01h3.01l-.04-.04Z"/>
  <path d="M132.9,195.87v-3.02h3.02l-.04-.04c.01,1.02.03,2.04.04,3.05-1.02-.01-2.04-.03-3.06-.04l.04.04Z"/>
  <path d="M132.9,210.89h-3.02v-3.02l-.04.04h3.01v3.01l.04-.04Z"/>
  <path d="M220.3,250.07v2.94h-111.55v-2.94c17.06,0,34.12.02,51.18.02,20.12,0,40.24-.01,60.37-.02Z"/>
  <path d="M295.6,174.77v-15.11h2.93v15.11h-2.93Z"/>
  <path d="M286.56,183.81v-2.97h2.99v-3.1h3.08v6.07h-6.07Z"/>
  <path d="M271.49,189.84v-3.06h9.08v3.06h-9.08Z"/>
  <path d="M280.53,186.82v-3.06h6.07v3.06h-6.07Z"/>
  <path d="M265.46,189.79h6.07v2.93h-6.07v-2.93Z"/>
  <path d="M292.63,156.68h-6.07v-2.93h6.07v2.93Z"/>
  <path d="M280.57,162.67v6.07h-3.06v-6.07h3.06Z"/>
  <path d="M286.6,156.64v3.06h-3.06v-3.06h3.06Z"/>
  <path d="M295.64,159.7h-3.06v-3.06h3.06v3.06Z"/>
  <path d="M283.59,159.66v3.06h-3.06v-3.06h3.06Z"/>
  <path d="M277.56,168.7v3.06h-3.06v-3.06h3.06Z"/>
  <path d="M292.59,177.78v-3.06h3.06v3.06h-3.06Z"/>
  <path d="M75.64,150.66v-3h-2.97v-2.97h-2.97v-3.08h2.87v-2.97h9.05v-3.02h5.98v-3.02h6.04v-2.93h21.09v8.95h3.1l-.04-.04v2.93h3.06v-2.93l-.04.04h3v-6h2.98v-2.97h3.03v2.84h3.03v3h2.98v-2.89h3.03v-2.93h3.03v2.83h2.98v2.97h6.05v-2.83h3.03v-3.01h2.98v2.88h3.08v2.99h5.99v-2.93h3.03v-2.92h3.03v2.87h2.98v2.96h6.04v-2.87h3.03v-3h2.98v2.92h3.03v2.93h6.04v-2.86h2.98v-2.96h3.03v2.86h3.03v3h5.99v-2.91h3.03v-2.93h3.03v2.85h2.98v2.97h6.04v-2.85h3.03v-3h2.98v2.96h6.12l-.04-.04v6.12h6.1v2.98h6.04v3.03h2.84v2.98h-5.95v-3.07h-12.08v-2.95h-2.99v-2.93h-2.97v2.93h-3.11v2.91h-5.99v-2.91h-3v-2.93h-2.97v2.93h-3.11v2.91h-5.99v-2.91h-3v-2.93h-2.97v2.93h-3.11v2.91h-5.99v-2.91h-3v-2.93h-2.97v2.93h-3.11v2.91h-5.99v-2.91h-3v-2.93h-2.97v2.93h-3.11v2.91h-5.99v-2.91h-3v-2.93h-2.97v2.93h-3.11v2.91h-5.99v-2.91h-3v-2.93h-2.97v2.93h-3.11v2.91h-2.98v-2.91h-3v-5.94h-2.97v5.94h-2.93v2.97h2.93v3.1h9.07v2.98h9.06v2.9h5.99v-2.82h3.03v2.81h12.07v-2.85h2.98v2.83h12.07v-2.82h3.03v2.8h12.07v-2.79h2.98v2.83h12.07v-2.9h15.05l-.04-.04v6.09h-27.12v2.98l.04-.04h-72.37l.04.04v-3.06h-24.15l.04.04v-3.06h-18.12l.04.04v-3.06h-9.08l.04.04Z"/>
  <path d="M238.38,132.58v-2.94h8.95c.04.94.08,1.86.13,2.84h5.91v-2.85h3.03v2.86h3.03v9.13l.04-.04h-3.1v-3.07h-9.03v-2.96h-3.02v-3.01h-5.99l.04.04Z"/>
  <path d="M117.83,138.6v-18.13h3.01c-.01,6.04-.03,12.08-.04,18.13,0,0,.04-.04.04-.04h-3.06l.04.04Z"/>
  <path d="M193.13,117.46h15.11v3.06h-15.11v-3.06Z"/>
  <path d="M120.8,117.46h15.11v3.06h-15.11v-3.06Z"/>
  <path d="M208.2,117.51v-3.06h3.06v3.06h-3.06Z"/>
  <path d="M135.87,120.48c1.02,0,2.04,0,3.06,0v2.93h-3.06v-2.93Z"/>
  <path d="M150.94,120.48c1.02,0,2.04,0,3.06,0v2.93h-3.06v-2.93Z"/>
  <path d="M166.01,120.48c1.02,0,2.04,0,3.06,0v2.93h-3.06v-2.93Z"/>
  <path d="M181.08,120.48c1.02,0,2.04,0,3.06,0v2.93h-3.06v-2.93Z"/>
  <path d="M214.23,120.47v2.93h-2.9v-2.89c.98,0,1.96,0,2.94,0,0,0-.04-.04-.04-.04Z"/>
  <path d="M244.37,120.48h3.06v2.93h-3.06v-2.93Z"/>
  <path d="M256.42,120.48h3.06v2.93h-3.06v-2.93Z"/>
  <path d="M187.11,111.44h3.06v3.06c-1.02,0-2.04,0-3.06,0v-3.06Z"/>
  <path d="M135.87,117.51v-3.06h3.06c0,1.02,0,2.04,0,3.06h-3.06Z"/>
  <path d="M190.12,114.45h3.06v3.06c-1.02,0-2.04,0-3.06,0v-3.06Z"/>
  <path d="M172.04,48.15h21.14v3.06h-21.14v-3.06Z"/>
  <path d="M159.98,45.14h12.1v3.06h-12.1v-3.06Z"/>
  <path d="M108.74,120.52h5.94v2.9h-5.9c0-.98,0-1.96,0-2.94,0,0-.04.04-.04.04Z"/>
  <path d="M117.79,114.45h3.06v3.06h-3.06v-3.06Z"/>
  <path d="M226.33,66.23v3.06h-5.99v-3.01h-6.1v-3.01h-3.01v-3.06h9.08v3.01h3.01v3.01h3.01Z"/>
  <path d="M229.34,63.22v3.06h-3.06v-3.06c1.02,0,2.04,0,3.06,0Z"/>
  <path d="M226.28,90.38c.01-2.02.03-4.05.04-6.07l-.04.04h3.08v2.88h2.98v-5.93l-.04.04h2.93v9.04h-8.96Z"/>
  <path d="M226.33,84.31c-1.02.01-2.04.03-3.06.04,0-3.03,0-6.06,0-9.08h6.02v3.06l.04-.04h-3.06v6.07s.04-.04.04-.04Z"/>
  <path d="M226.28,69.25h6.07v3.06h-6.07v-3.06Z"/>
  <path d="M232.31,72.26h3.06v3.06h-3.06v-3.06Z"/>
  <path d="M235.32,75.27h3.06v3.06h-3.06v-3.06Z"/>
  <path d="M229.29,78.33h3.02v3.02l.04-.04h-3.01v-3.01l-.04.04Z"/>
  <path d="M238.34,75.31v-2.93h3.06v2.93h-3.06Z"/>
  <path d="M196.15,102.44h8.94v2.89h-8.9v-2.93l-.04.04Z"/>
  <path d="M196.19,102.4h-2.93v-2.9h2.89c0,.98,0,1.96,0,2.94,0,0,.04-.04.04-.04Z"/>
  <path d="M129.84,102.4v2.93h-8.92v-2.89h8.96l-.04-.04Z"/>
  <path d="M129.88,102.44v-2.93h2.9v2.89c-.98,0-1.96,0-2.94,0,0,0,.04.04.04.04Z"/>
  <path d="M247.42,75.31h-3.06v-3.06h3.06v3.06Z"/>
  <path d="M166.05,192.81c0,2.02,0,4.05,0,6.07l-3.06-.04s.04.04.04.04v-3.06h-3.06l.04.04c-.01-1.02-.03-2.04-.04-3.06h6.07Z"/>
  <path d="M144.96,192.85c-.01-1.02-.03-2.04-.04-3.06,1.02,0,2.04,0,3.06,0-.01,1.02-.03,2.04-.04,3.06l.04-.04h-3.06l.04.04Z"/>
  <path d="M147.92,192.85h3.01v3.01l.04-.04h-3.06l.04.04v-3.06l-.04.04Z"/>
  <path d="M150.94,195.86h3.01v3.01l.04-.04h-3.06l.04.04v-3.06l-.04.04Z"/>
  <path d="M160.02,198.83c-1.02.01-2.04.03-3.06.04v-3.01h3.06s-.04-.04-.04-.04v3.06l.04-.04Z"/>
  <path d="M157.01,198.83v3.06c-1.02-.01-2.04-.03-3.06-.04l.04.04v-3.06l-.04.04c1.02-.01,2.04-.03,3.06-.04Z"/>
  <path d="M132.86,201.85h6.07v3.06h-6.07v-3.06Z"/>
  <path d="M138.89,201.89v-3.06l6.07.04-.04-.04v3.06s.04-.04.04-.04c-2.02.01-4.05.03-6.07.04Z"/>
  <path d="M141.9,192.81c1.02.01,2.04.03,3.06.04,0,0-.04-.04-.04-.04v3.06l.04-.04h-3.06v-3.01Z"/>
  <path d="M138.93,198.88h-3.06v-3.06h3.06v3.06Z"/>
  <path d="M144.95,198.88c0-1.02,0-2.04,0-3.06,0,0-.04.04-.04.04h3.06l-.04-.04v3.06l.04-.04h-3.06l.04.04Z"/>
  <path d="M150.94,204.9c.01-1.02.03-2.04.04-3.06l-.04.04h3.06l-.04-.04v3.06h-3.01Z"/>
  <path d="M159.98,201.89c.01-1.02.03-2.04.04-3.06,0,0-.04.04-.04.04h3.06l-.04-.04v3.06h-3.01Z"/>
  <path d="M159.98,189.84c0-1.02,0-2.04,0-3.06,1.02,0,2.04,0,3.06,0v3.06h-3.06Z"/>
  <path d="M147.92,201.85c.01,1.02.03,2.04.04,3.06-1.02,0-2.04,0-3.06,0,.01-1.02.03-2.04.04-3.06,0,0-.04.04-.04.04h3.06l-.04-.04Z"/>
  <path d="M150.99,201.85c-1.02,0-2.04,0-3.06,0,0,0,.04.04.04.04v-3.06l-.04.04h3.06l-.04-.04v3.06l.04-.04Z"/>
  <path d="M238.38,153.63v3.06h-6.07v-3.06h6.07Z"/>
  <path d="M247.42,147.6v3.06h-6.07v-3.06h6.07Z"/>
  <path d="M226.32,150.66v-2.94h5.91v2.89c-1.99,0-3.97,0-5.95,0,0,0,.04.04.04.04Z"/>
  <path d="M214.23,141.57c1.02,0,2.04,0,3.06,0v2.93h-3.06v-2.93Z"/>
  <path d="M126.83,144.63c0-1.02,0-2.04,0-3.06,1.02,0,2.04,0,3.06,0v3.06h-3.06Z"/>
  <path d="M138.89,141.57c1.02,0,2.04,0,3.06,0v2.93h-3.06v-2.93Z"/>
  <path d="M153.95,141.57c1.02,0,2.04,0,3.06,0v2.93h-3.06v-2.93Z"/>
  <path d="M169.02,141.57c1.02,0,2.04,0,3.06,0v2.93h-3.06v-2.93Z"/>
  <path d="M184.09,141.57c1.02,0,2.04,0,3.06,0v2.93h-3.06v-2.93Z"/>
  <path d="M199.16,141.57c1.02,0,2.04,0,3.06,0v2.93h-3.06v-2.93Z"/>
  <path d="M229.3,141.57c1.02,0,2.04,0,3.06,0v2.93h-3.06v-2.93Z"/>
  <path d="M241.39,150.62v3.06h-3.06v-3.06h3.06Z"/>
  <path d="M232.35,156.64v3.06h-3.06v-3.06h3.06Z"/>
  <path d="M229.34,159.66v3.06h-3.06v-3.06h3.06Z"/>
</svg>