<?xml version="1.0" encoding="UTF-8"?>
<svg id="_レイヤー_1" data-name="レイヤー 1" xmlns="http://www.w3.org/2000/svg" viewBox="0 0 595.28 841.89">
  <defs>
    <style>
      .cls-1 {
        fill: #231815;
      }

      .cls-2 {
        stroke: #fff;
        stroke-width: .14px;
      }

      .cls-2, .cls-3 {
        fill: none;
        stroke-linecap: round;
        stroke-linejoin: round;
      }

      .cls-3 {
        stroke: #040000;
        stroke-width: 8px;
      }
    </style>
  </defs>
  <g>
    <g>
      <path class="cls-1" d="M150,224.81v-8.78h13.11v8.78h-13.11Z"/>
      <path class="cls-1" d="M182.51,233.22h-3.37c-8.92,0-12.02-4.63-12.02-10.79v-16.99h10.11v16.1c0,1.7.88,2.52,2.35,2.52h2.42c1.63,0,2.49-.92,2.49-2.52v-16.1h10.14v16.99c0,6.16-3.17,10.79-12.12,10.79Z"/>
      <path class="cls-1" d="M220.09,233.53c-4.39,0-6.71-3-8.17-6.91l-3.27-8.75c-.07-.31-.17-.41-.27-.41-.14,0-.2.14-.2.44v15.32h-9.4v-19.54c0-5.58,3.3-8.41,7.9-8.41,4.9,0,6.77,3,7.73,5.75l3.4,9.84c.07.37.14.48.34.48.14,0,.27-.1.27-.48v-15.35h9.43v19.44c0,5.96-2.96,8.58-7.76,8.58Z"/>
      <path class="cls-1" d="M260.03,233.22v-5.04c0-1.4-.61-2.01-2.04-2.01h-3.92v7.05h-10.38v-27.78h17.23c5.89,0,9.4,2.18,9.4,9.84v1.63c0,2.21-.65,3.95-1.84,5.24,1.4,1.06,1.91,2.72,1.91,5.11v5.96h-10.35ZM260.2,216.4c0-1.33-.54-1.8-2.04-1.8h-4.09v3.68h4.09c1.53,0,2.04-.71,2.04-1.57v-.31Z"/>
      <path class="cls-1" d="M290.22,233.36h-3.57c-9.8,0-12.08-2.59-12.08-11.95v-4.19c0-9.33,2.28-11.95,12.08-11.95h3.57c9.09,0,12.22,2.62,12.22,11.95v4.19c0,9.36-2.45,11.95-12.22,11.95ZM292.3,217.39c0-1.94-.71-3.2-3.2-3.2h-1.33c-2.01,0-3.2.78-3.2,3.2v3.68c0,2.38.71,3.23,3.2,3.23h1.33c2.49,0,3.2-1.33,3.2-3.23v-3.68Z"/>
      <path class="cls-1" d="M320.93,233.7h-1.6c-9.8,0-13.34-3.03-13.34-12.36v-3.85c0-9.02,3.2-12.56,13.21-12.56h1.57c9.09,0,12.87,3.68,12.87,10.35v1.36h-9.77v-.37c0-1.43-.95-2.14-3.1-2.14h-1.09c-2.69,0-3.51,1.16-3.51,3.37v3.85c0,2.45,1.46,3.23,3.64,3.23h1.12c2.35,0,3.1-1.12,3.1-2.42v-.75h9.67v1.43c0,7.59-3.74,10.86-12.77,10.86Z"/>
      <path class="cls-1" d="M354.4,233.22v-10.18h-6.4v10.18h-10.21v-27.78h10.21v8.48h6.4v-8.48h10.25v27.78h-10.25Z"/>
      <path class="cls-1" d="M379.42,233.22c-8.1,0-10.45-4.29-10.45-10.55v-5.28c0-7.05,1.5-11.95,10.55-11.95h16v8.78h-14.2c-1.29,0-1.94.44-2.15,1.87h15.11v6.54h-15.15c0,1.26.27,1.87,2.18,1.87h14.2v8.71h-16.1Z"/>
      <path class="cls-1" d="M416.26,233.22v-5.04c0-1.4-.61-2.01-2.04-2.01h-3.92v7.05h-10.38v-27.78h17.23c5.89,0,9.4,2.18,9.4,9.84v1.63c0,2.21-.65,3.95-1.84,5.24,1.4,1.06,1.91,2.72,1.91,5.11v5.96h-10.35ZM416.43,216.4c0-1.33-.54-1.8-2.04-1.8h-4.09v3.68h4.09c1.53,0,2.04-.71,2.04-1.57v-.31Z"/>
      <path class="cls-1" d="M430.96,224.81v-8.78h13.11v8.78h-13.11Z"/>
      <path class="cls-1" d="M155.67,249.55h-.73c-4.49,0-6.11-1.39-6.11-5.66v-1.76c0-4.13,1.46-5.75,6.04-5.75h.72c4.16,0,5.89,1.68,5.89,4.74v.62h-4.47v-.17c0-.65-.44-.98-1.42-.98h-.5c-1.23,0-1.6.53-1.6,1.54v1.76c0,1.12.67,1.48,1.67,1.48h.51c1.08,0,1.42-.51,1.42-1.11v-.34h4.42v.65c0,3.47-1.71,4.97-5.84,4.97Z"/>
      <path class="cls-1" d="M163.36,249.35v-12.73h4.41v12.73h-4.41Z"/>
      <path class="cls-1" d="M169.81,240.14v-3.52h4.47v3.52h-4.47ZM169.81,249.35v-8.49h4.47v8.49h-4.47Z"/>
      <path class="cls-1" d="M184.84,249.35v-4.75c0-.47-.16-.67-.78-.67v5.42h-3.22v-5.42c-.47.03-.79.23-.79.67v4.75h-4.13v-6.15c0-1.96,1.46-3.26,3.74-3.26h5.59c2.26,0,3.74,1.29,3.74,3.26v6.15h-4.14Z"/>
      <path class="cls-1" d="M198.1,249.35h-3.91c-2.85,0-3.71-1.42-3.71-3.91v-8.83h4.49v3.44c.28-.06.58-.09.89-.09h2.38c2.46,0,3.58,1.46,3.58,3.93v1.51c0,2.63-.95,3.96-3.72,3.96ZM197.34,244.5c0-.23-.12-.42-.5-.42h-1.43c-.2,0-.44.09-.44.37v.34c0,.23.12.42.44.42h1.43c.37,0,.5-.16.5-.47v-.25Z"/>
      <path class="cls-1" d="M203.81,240.14v-3.52h4.47v3.52h-4.47ZM203.81,249.35v-8.49h4.47v8.49h-4.47Z"/>
      <path class="cls-1" d="M217.18,249.35v-4.47c0-.59-.3-.79-.84-.79h-1c-.58,0-.92.3-.92.79v4.47h-4.53v-6.01c0-2.07,1.17-3.4,3.27-3.4h5.09c2.1,0,3.49,1.32,3.49,3.4v6.01h-4.56Z"/>
      <path class="cls-1" d="M234.01,241.84v.39c0,1.42-.17,1.98-2.21,1.98h-3.52v.69h3.6c2.21,0,2.8.97,2.8,2.13v.44c0,1.59-.65,2.2-2.8,2.2h-6.14c-2.35,0-2.96-.42-2.96-2.2v-.44c0-1.09.22-1.79,1.62-2.04v-.84c-1.04-.19-1.21-.75-1.21-1.92v-.34c0-1.22.2-1.93,2.23-1.93h5.45v-.62l4.53-.89v3.15l-1.39.25ZM229.48,242.07c0-.2-.14-.34-.51-.34h-.73c-.37,0-.5.14-.5.34v.02c0,.23.09.36.5.36h.73c.39,0,.51-.11.51-.36v-.02ZM229.87,247.2c0-.17-.09-.3-.5-.3h-1.25c-.34,0-.39.16-.39.3v.09c0,.25.03.36.39.36h1.25c.44,0,.5-.11.5-.36v-.09Z"/>
      <path class="cls-1" d="M252.2,248.26v2.17h-5.72c-2.46,0-4.46-1.2-4.46-4.25v-.41c0-.83.33-2.06,1.73-3.04-.48-.5-.87-1.12-.87-1.64v-.7c0-2.52,1.62-4.16,5.56-4.16h.39c4.08,0,5.39,1.59,5.39,4.02v.54c0,1.22-.89,2.46-2.63,3.04l4.41,2.52v4.28l-3.8-2.38ZM247.17,245.06c-.53.25-.73.47-.73.65v.2c0,.34.42.56.98.56h2.01l-2.26-1.42ZM249.97,240.36c0-.3-.39-.42-1.21-.42h-.2c-1.29,0-1.5.31-1.5.69v.33c0,.09.11.25.34.45,2.26-.45,2.57-.53,2.57-.89v-.16Z"/>
      <path class="cls-1" d="M269.47,249.55h-.73c-4.49,0-6.11-1.39-6.11-5.66v-1.76c0-4.13,1.46-5.75,6.04-5.75h.72c4.16,0,5.89,1.68,5.89,4.74v.62h-4.47v-.17c0-.65-.44-.98-1.42-.98h-.5c-1.23,0-1.6.53-1.6,1.54v1.76c0,1.12.67,1.48,1.67,1.48h.51c1.08,0,1.42-.51,1.42-1.11v-.34h4.42v.65c0,3.47-1.71,4.97-5.84,4.97Z"/>
      <path class="cls-1" d="M285.76,249.35h-5.78c-2.06,0-3.19-1.12-3.19-2.63v-.65c0-1.5,1.11-2.46,2.99-2.46h4.61c0-.33-.14-.5-.58-.5h-6.54v-3.19h8.05c2.7,0,3.47,1.34,3.47,3.72v3.24c0,1.5-1.04,2.48-3.04,2.48ZM284.31,246.18c0-.12-.09-.25-.34-.25h-2.35c-.3,0-.38.09-.38.25v.12c0,.16.08.27.38.27h2.35c.27,0,.34-.08.34-.27v-.12Z"/>
      <path class="cls-1" d="M296.51,244.02v5.33h-4.5v-5.33h-2.2v-3.55h2.2v-.42c0-2.37,1.06-3.43,3.79-3.43h4.91v3.33h-3.41c-.44,0-.69.19-.75.51h4.16v3.55h-4.19Z"/>
      <path class="cls-1" d="M310.54,245.65h-4.77c.03.31.17.55.67.55h6.73v3.15h-8.05c-2.4,0-3.4-1.08-3.4-3.61v-2.96c0-1.43.9-2.9,3.13-2.9h5.51c2.04,0,3.05,1.09,3.05,2.79v.5c0,1.56-.65,2.49-2.88,2.49ZM309.23,242.96c0-.19-.14-.34-.41-.34h-2.4c-.4,0-.67.23-.67.61v.14h3.07c.23,0,.41-.09.41-.33v-.08Z"/>
      <path class="cls-1" d="M339.89,249.35h-5.87c-2.4,0-3.79-1.45-3.79-3.65v-5.75h4.13v4.69c0,.59.28.75.87.75h.09v-5.44h3.23v5.44h.12c.59,0,.87-.16.87-.75v-4.69h4.13v5.75c0,2.2-1.37,3.65-3.79,3.65Z"/>
      <path class="cls-1" d="M353.86,249.35h-5.78c-2.06,0-3.19-1.12-3.19-2.63v-.65c0-1.5,1.11-2.46,2.99-2.46h4.61c0-.33-.14-.5-.58-.5h-6.54v-3.19h8.05c2.7,0,3.47,1.34,3.47,3.72v3.24c0,1.5-1.04,2.48-3.04,2.48ZM352.41,246.18c0-.12-.09-.25-.34-.25h-2.35c-.3,0-.37.09-.37.25v.12c0,.16.08.27.37.27h2.35c.26,0,.34-.08.34-.27v-.12Z"/>
      <path class="cls-1" d="M364,244.08c-.97,0-1.42.64-1.42,1.26v4h-4.47v-4.1c0-3.74,2.24-5.31,4.89-5.31h4.94v4.14h-3.94Z"/>
      <path class="cls-1" d="M377.98,245.65h-4.77c.03.31.17.55.67.55h6.73v3.15h-8.05c-2.4,0-3.4-1.08-3.4-3.61v-2.96c0-1.43.9-2.9,3.13-2.9h5.52c2.04,0,3.05,1.09,3.05,2.79v.5c0,1.56-.65,2.49-2.88,2.49ZM376.67,242.96c0-.19-.14-.34-.41-.34h-2.4c-.41,0-.67.23-.67.61v.14h3.07c.23,0,.41-.09.41-.33v-.08Z"/>
      <path class="cls-1" d="M389.8,249.35v-4.56c0-.42-.16-.69-.69-.69h-1.39c-.51,0-.69.22-.69.75v4.5h-4.49v-12.73h4.49v3.57c.34-.14.69-.23,1.03-.23h2.52c2.49,0,3.69.98,3.69,3.85v5.55h-4.49Z"/>
      <path class="cls-1" d="M403.51,249.42h-3.5c-2.87,0-4.11-1.34-4.11-3.83v-1.93c0-2.45,1.28-3.8,4.11-3.8h3.5c2.91,0,4.03,1.51,4.03,3.75v2.06c0,2.26-1.12,3.75-4.03,3.75ZM403.34,244.44c0-.3-.17-.59-.62-.59h-1.96c-.48,0-.64.31-.64.59v.41c0,.36.11.61.64.61h1.96c.51,0,.62-.34.62-.61v-.41Z"/>
      <path class="cls-1" d="M416.92,249.36h-5.05c-2.06,0-3.22-.87-3.22-3.32v-6.09h4.47v4.64c0,.37.17.62.51.62h1.53c.33,0,.51-.14.51-.62v-4.64h4.49v6.09c0,2.13-1.2,3.32-3.24,3.32Z"/>
      <path class="cls-1" d="M429.2,249.33h-7.99v-3.23h6.34c.36,0,.42-.08.42-.23v-.05c0-.17-.11-.26-.42-.26h-3.26c-2.27,0-3.29-.84-3.29-2.71v-.19c0-2.1,1.32-2.76,3.29-2.76h8.1v2.82h-6.19c-.33,0-.45.09-.45.26v.03c0,.16.12.25.45.25h2.99c2.32,0,3.54.69,3.54,2.65v.22c0,1.89-.83,3.19-3.54,3.19Z"/>
      <path class="cls-1" d="M442.57,245.65h-4.77c.03.31.17.55.67.55h6.73v3.15h-8.05c-2.4,0-3.4-1.08-3.4-3.61v-2.96c0-1.43.9-2.9,3.13-2.9h5.52c2.04,0,3.05,1.09,3.05,2.79v.5c0,1.56-.65,2.49-2.88,2.49ZM441.26,242.96c0-.19-.14-.34-.41-.34h-2.4c-.41,0-.67.23-.67.61v.14h3.07c.23,0,.41-.09.41-.33v-.08Z"/>
    </g>
    <g>
      <path class="cls-2" d="M150,224.81v-8.78h13.11v8.78h-13.11Z"/>
      <path class="cls-2" d="M182.51,233.22h-3.37c-8.92,0-12.02-4.63-12.02-10.79v-16.99h10.11v16.1c0,1.7.88,2.52,2.35,2.52h2.42c1.63,0,2.49-.92,2.49-2.52v-16.1h10.14v16.99c0,6.16-3.17,10.79-12.12,10.79Z"/>
      <path class="cls-2" d="M220.09,233.53c-4.39,0-6.71-3-8.17-6.91l-3.27-8.75c-.07-.31-.17-.41-.27-.41-.14,0-.2.14-.2.44v15.32h-9.4v-19.54c0-5.58,3.3-8.41,7.9-8.41,4.9,0,6.77,3,7.73,5.75l3.4,9.84c.07.37.14.48.34.48.14,0,.27-.1.27-.48v-15.35h9.43v19.44c0,5.96-2.96,8.58-7.76,8.58Z"/>
      <path class="cls-2" d="M260.03,233.22v-5.04c0-1.4-.61-2.01-2.04-2.01h-3.92v7.05h-10.38v-27.78h17.23c5.89,0,9.4,2.18,9.4,9.84v1.63c0,2.21-.65,3.95-1.84,5.24,1.4,1.06,1.91,2.72,1.91,5.11v5.96h-10.35ZM260.2,216.4c0-1.33-.54-1.8-2.04-1.8h-4.09v3.68h4.09c1.53,0,2.04-.71,2.04-1.57v-.31Z"/>
      <path class="cls-2" d="M290.22,233.36h-3.57c-9.8,0-12.08-2.59-12.08-11.95v-4.19c0-9.33,2.28-11.95,12.08-11.95h3.57c9.09,0,12.22,2.62,12.22,11.95v4.19c0,9.36-2.45,11.95-12.22,11.95ZM292.3,217.39c0-1.94-.71-3.2-3.2-3.2h-1.33c-2.01,0-3.2.78-3.2,3.2v3.68c0,2.38.71,3.23,3.2,3.23h1.33c2.49,0,3.2-1.33,3.2-3.23v-3.68Z"/>
      <path class="cls-2" d="M320.93,233.7h-1.6c-9.8,0-13.34-3.03-13.34-12.36v-3.85c0-9.02,3.2-12.56,13.21-12.56h1.57c9.09,0,12.87,3.68,12.87,10.35v1.36h-9.77v-.37c0-1.43-.95-2.14-3.1-2.14h-1.09c-2.69,0-3.51,1.16-3.51,3.37v3.85c0,2.45,1.46,3.23,3.64,3.23h1.12c2.35,0,3.1-1.12,3.1-2.42v-.75h9.67v1.43c0,7.59-3.74,10.86-12.77,10.86Z"/>
      <path class="cls-2" d="M354.4,233.22v-10.18h-6.4v10.18h-10.21v-27.78h10.21v8.48h6.4v-8.48h10.25v27.78h-10.25Z"/>
      <path class="cls-2" d="M379.42,233.22c-8.1,0-10.45-4.29-10.45-10.55v-5.28c0-7.05,1.5-11.95,10.55-11.95h16v8.78h-14.2c-1.29,0-1.94.44-2.15,1.87h15.11v6.54h-15.15c0,1.26.27,1.87,2.18,1.87h14.2v8.71h-16.1Z"/>
      <path class="cls-2" d="M416.26,233.22v-5.04c0-1.4-.61-2.01-2.04-2.01h-3.92v7.05h-10.38v-27.78h17.23c5.89,0,9.4,2.18,9.4,9.84v1.63c0,2.21-.65,3.95-1.84,5.24,1.4,1.06,1.91,2.72,1.91,5.11v5.96h-10.35ZM416.43,216.4c0-1.33-.54-1.8-2.04-1.8h-4.09v3.68h4.09c1.53,0,2.04-.71,2.04-1.57v-.31Z"/>
      <path class="cls-2" d="M430.96,224.81v-8.78h13.11v8.78h-13.11Z"/>
      <path class="cls-2" d="M155.67,249.55h-.73c-4.49,0-6.11-1.39-6.11-5.66v-1.76c0-4.13,1.46-5.75,6.04-5.75h.72c4.16,0,5.89,1.68,5.89,4.74v.62h-4.47v-.17c0-.65-.44-.98-1.42-.98h-.5c-1.23,0-1.6.53-1.6,1.54v1.76c0,1.12.67,1.48,1.67,1.48h.51c1.08,0,1.42-.51,1.42-1.11v-.34h4.42v.65c0,3.47-1.71,4.97-5.84,4.97Z"/>
      <path class="cls-2" d="M163.36,249.35v-12.73h4.41v12.73h-4.41Z"/>
      <path class="cls-2" d="M169.81,240.14v-3.52h4.47v3.52h-4.47ZM169.81,249.35v-8.49h4.47v8.49h-4.47Z"/>
      <path class="cls-2" d="M184.84,249.35v-4.75c0-.47-.16-.67-.78-.67v5.42h-3.22v-5.42c-.47.03-.79.23-.79.67v4.75h-4.13v-6.15c0-1.96,1.46-3.26,3.74-3.26h5.59c2.26,0,3.74,1.29,3.74,3.26v6.15h-4.14Z"/>
      <path class="cls-2" d="M198.1,249.35h-3.91c-2.85,0-3.71-1.42-3.71-3.91v-8.83h4.49v3.44c.28-.06.58-.09.89-.09h2.38c2.46,0,3.58,1.46,3.58,3.93v1.51c0,2.63-.95,3.96-3.72,3.96ZM197.34,244.5c0-.23-.12-.42-.5-.42h-1.43c-.2,0-.44.09-.44.37v.34c0,.23.12.42.44.42h1.43c.37,0,.5-.16.5-.47v-.25Z"/>
      <path class="cls-2" d="M203.81,240.14v-3.52h4.47v3.52h-4.47ZM203.81,249.35v-8.49h4.47v8.49h-4.47Z"/>
      <path class="cls-2" d="M217.18,249.35v-4.47c0-.59-.3-.79-.84-.79h-1c-.58,0-.92.3-.92.79v4.47h-4.53v-6.01c0-2.07,1.17-3.4,3.27-3.4h5.09c2.1,0,3.49,1.32,3.49,3.4v6.01h-4.56Z"/>
      <path class="cls-2" d="M234.01,241.84v.39c0,1.42-.17,1.98-2.21,1.98h-3.52v.69h3.6c2.21,0,2.8.97,2.8,2.13v.44c0,1.59-.65,2.2-2.8,2.2h-6.14c-2.35,0-2.96-.42-2.96-2.2v-.44c0-1.09.22-1.79,1.62-2.04v-.84c-1.04-.19-1.21-.75-1.21-1.92v-.34c0-1.22.2-1.93,2.23-1.93h5.45v-.62l4.53-.89v3.15l-1.39.25ZM229.48,242.07c0-.2-.14-.34-.51-.34h-.73c-.37,0-.5.14-.5.34v.02c0,.23.09.36.5.36h.73c.39,0,.51-.11.51-.36v-.02ZM229.87,247.2c0-.17-.09-.3-.5-.3h-1.25c-.34,0-.39.16-.39.3v.09c0,.25.03.36.39.36h1.25c.44,0,.5-.11.5-.36v-.09Z"/>
      <path class="cls-2" d="M252.2,248.26v2.17h-5.72c-2.46,0-4.46-1.2-4.46-4.25v-.41c0-.83.33-2.06,1.73-3.04-.48-.5-.87-1.12-.87-1.64v-.7c0-2.52,1.62-4.16,5.56-4.16h.39c4.08,0,5.39,1.59,5.39,4.02v.54c0,1.22-.89,2.46-2.63,3.04l4.41,2.52v4.28l-3.8-2.38ZM247.17,245.06c-.53.25-.73.47-.73.65v.2c0,.34.42.56.98.56h2.01l-2.26-1.42ZM249.97,240.36c0-.3-.39-.42-1.21-.42h-.2c-1.29,0-1.5.31-1.5.69v.33c0,.09.11.25.34.45,2.26-.45,2.57-.53,2.57-.89v-.16Z"/>
      <path class="cls-2" d="M269.47,249.55h-.73c-4.49,0-6.11-1.39-6.11-5.66v-1.76c0-4.13,1.46-5.75,6.04-5.75h.72c4.16,0,5.89,1.68,5.89,4.74v.62h-4.47v-.17c0-.65-.44-.98-1.42-.98h-.5c-1.23,0-1.6.53-1.6,1.54v1.76c0,1.12.67,1.48,1.67,1.48h.51c1.08,0,1.42-.51,1.42-1.11v-.34h4.42v.65c0,3.47-1.71,4.97-5.84,4.97Z"/>
      <path class="cls-2" d="M285.76,249.35h-5.78c-2.06,0-3.19-1.12-3.19-2.63v-.65c0-1.5,1.11-2.46,2.99-2.46h4.61c0-.33-.14-.5-.58-.5h-6.54v-3.19h8.05c2.7,0,3.47,1.34,3.47,3.72v3.24c0,1.5-1.04,2.48-3.04,2.48ZM284.31,246.18c0-.12-.09-.25-.34-.25h-2.35c-.3,0-.38.09-.38.25v.12c0,.16.08.27.38.27h2.35c.27,0,.34-.08.34-.27v-.12Z"/>
      <path class="cls-2" d="M296.51,244.02v5.33h-4.5v-5.33h-2.2v-3.55h2.2v-.42c0-2.37,1.06-3.43,3.79-3.43h4.91v3.33h-3.41c-.44,0-.69.19-.75.51h4.16v3.55h-4.19Z"/>
      <path class="cls-2" d="M310.54,245.65h-4.77c.03.31.17.55.67.55h6.73v3.15h-8.05c-2.4,0-3.4-1.08-3.4-3.61v-2.96c0-1.43.9-2.9,3.13-2.9h5.51c2.04,0,3.05,1.09,3.05,2.79v.5c0,1.56-.65,2.49-2.88,2.49ZM309.23,242.96c0-.19-.14-.34-.41-.34h-2.4c-.4,0-.67.23-.67.61v.14h3.07c.23,0,.41-.09.41-.33v-.08Z"/>
      <path class="cls-2" d="M339.89,249.35h-5.87c-2.4,0-3.79-1.45-3.79-3.65v-5.75h4.13v4.69c0,.59.28.75.87.75h.09v-5.44h3.23v5.44h.12c.59,0,.87-.16.87-.75v-4.69h4.13v5.75c0,2.2-1.37,3.65-3.79,3.65Z"/>
      <path class="cls-2" d="M353.86,249.35h-5.78c-2.06,0-3.19-1.12-3.19-2.63v-.65c0-1.5,1.11-2.46,2.99-2.46h4.61c0-.33-.14-.5-.58-.5h-6.54v-3.19h8.05c2.7,0,3.47,1.34,3.47,3.72v3.24c0,1.5-1.04,2.48-3.04,2.48ZM352.41,246.18c0-.12-.09-.25-.34-.25h-2.35c-.3,0-.37.09-.37.25v.12c0,.16.08.27.37.27h2.35c.26,0,.34-.08.34-.27v-.12Z"/>
      <path class="cls-2" d="M364,244.08c-.97,0-1.42.64-1.42,1.26v4h-4.47v-4.1c0-3.74,2.24-5.31,4.89-5.31h4.94v4.14h-3.94Z"/>
      <path class="cls-2" d="M377.98,245.65h-4.77c.03.31.17.55.67.55h6.73v3.15h-8.05c-2.4,0-3.4-1.08-3.4-3.61v-2.96c0-1.43.9-2.9,3.13-2.9h5.52c2.04,0,3.05,1.09,3.05,2.79v.5c0,1.56-.65,2.49-2.88,2.49ZM376.67,242.96c0-.19-.14-.34-.41-.34h-2.4c-.41,0-.67.23-.67.61v.14h3.07c.23,0,.41-.09.41-.33v-.08Z"/>
      <path class="cls-2" d="M389.8,249.35v-4.56c0-.42-.16-.69-.69-.69h-1.39c-.51,0-.69.22-.69.75v4.5h-4.49v-12.73h4.49v3.57c.34-.14.69-.23,1.03-.23h2.52c2.49,0,3.69.98,3.69,3.85v5.55h-4.49Z"/>
      <path class="cls-2" d="M403.51,249.42h-3.5c-2.87,0-4.11-1.34-4.11-3.83v-1.93c0-2.45,1.28-3.8,4.11-3.8h3.5c2.91,0,4.03,1.51,4.03,3.75v2.06c0,2.26-1.12,3.75-4.03,3.75ZM403.34,244.44c0-.3-.17-.59-.62-.59h-1.96c-.48,0-.64.31-.64.59v.41c0,.36.11.61.64.61h1.96c.51,0,.62-.34.62-.61v-.41Z"/>
      <path class="cls-2" d="M416.92,249.36h-5.05c-2.06,0-3.22-.87-3.22-3.32v-6.09h4.47v4.64c0,.37.17.62.51.62h1.53c.33,0,.51-.14.51-.62v-4.64h4.49v6.09c0,2.13-1.2,3.32-3.24,3.32Z"/>
      <path class="cls-2" d="M429.2,249.33h-7.99v-3.23h6.34c.36,0,.42-.08.42-.23v-.05c0-.17-.11-.26-.42-.26h-3.26c-2.27,0-3.29-.84-3.29-2.71v-.19c0-2.1,1.32-2.76,3.29-2.76h8.1v2.82h-6.19c-.33,0-.45.09-.45.26v.03c0,.16.12.25.45.25h2.99c2.32,0,3.54.69,3.54,2.65v.22c0,1.89-.83,3.19-3.54,3.19Z"/>
      <path class="cls-2" d="M442.57,245.65h-4.77c.03.31.17.55.67.55h6.73v3.15h-8.05c-2.4,0-3.4-1.08-3.4-3.61v-2.96c0-1.43.9-2.9,3.13-2.9h5.52c2.04,0,3.05,1.09,3.05,2.79v.5c0,1.56-.65,2.49-2.88,2.49ZM441.26,242.96c0-.19-.14-.34-.41-.34h-2.4c-.41,0-.67.23-.67.61v.14h3.07c.23,0,.41-.09.41-.33v-.08Z"/>
    </g>
  </g>
  <g>
    <line class="cls-3" x1="235.04" y1="429.99" x2="359.13" y2="305.9"/>
    <line class="cls-3" x1="359.13" y1="388.63" x2="235.04" y2="388.63"/>
    <line class="cls-3" x1="359.13" y1="409.31" x2="235.04" y2="285.22"/>
    <line class="cls-3" x1="297.09" y1="429.99" x2="193.68" y2="326.59"/>
    <line class="cls-3" x1="276.41" y1="367.95" x2="173" y2="471.35"/>
    <line class="cls-3" x1="255.72" y1="492.03" x2="359.13" y2="388.63"/>
    <line class="cls-3" x1="173" y1="305.9" x2="276.41" y2="305.9"/>
    <line class="cls-3" x1="359.13" y1="409.31" x2="255.72" y2="512.71"/>
    <line class="cls-3" x1="317.77" y1="409.31" x2="421.17" y2="305.9"/>
    <line class="cls-3" x1="297.09" y1="409.31" x2="400.49" y2="305.9"/>
    <line class="cls-3" x1="379.81" y1="450.67" x2="379.81" y2="347.27"/>
    <line class="cls-3" x1="276.41" y1="367.95" x2="379.81" y2="264.54"/>
    <line class="cls-3" x1="173" y1="285.22" x2="173" y2="388.63"/>
    <line class="cls-3" x1="421.17" y1="512.71" x2="317.77" y2="409.31"/>
    <line class="cls-3" x1="359.13" y1="388.63" x2="441.85" y2="305.9"/>
    <line class="cls-3" x1="214.36" y1="450.67" x2="297.09" y2="450.67"/>
    <line class="cls-3" x1="255.72" y1="367.95" x2="173" y2="450.67"/>
    <line class="cls-3" x1="317.77" y1="285.22" x2="400.49" y2="285.22"/>
    <line class="cls-3" x1="255.72" y1="264.54" x2="255.72" y2="347.27"/>
    <line class="cls-3" x1="193.68" y1="347.27" x2="193.68" y2="429.99"/>
    <line class="cls-3" x1="235.04" y1="264.54" x2="317.77" y2="264.54"/>
    <line class="cls-3" x1="173" y1="492.03" x2="255.72" y2="492.03"/>
    <line class="cls-3" x1="214.36" y1="450.67" x2="297.09" y2="450.67"/>
    <line class="cls-3" x1="193.68" y1="471.35" x2="193.68" y2="554.08"/>
    <line class="cls-3" x1="297.09" y1="450.67" x2="214.36" y2="450.67"/>
    <line class="cls-3" x1="255.72" y1="471.35" x2="317.77" y2="533.4"/>
    <line class="cls-3" x1="255.72" y1="305.9" x2="317.77" y2="305.9"/>
    <line class="cls-3" x1="359.13" y1="471.35" x2="421.17" y2="409.31"/>
    <line class="cls-3" x1="317.77" y1="533.4" x2="255.72" y2="533.4"/>
    <line class="cls-3" x1="173" y1="285.22" x2="235.04" y2="347.27"/>
    <line class="cls-3" x1="214.36" y1="388.63" x2="152.32" y2="450.67"/>
    <line class="cls-3" x1="152.32" y1="533.4" x2="214.36" y2="471.35"/>
    <line class="cls-3" x1="400.49" y1="450.67" x2="400.49" y2="388.63"/>
    <line class="cls-3" x1="338.45" y1="533.4" x2="276.41" y2="471.35"/>
    <line class="cls-3" x1="421.17" y1="264.54" x2="359.13" y2="326.59"/>
    <line class="cls-3" x1="379.81" y1="512.71" x2="317.77" y2="512.71"/>
    <line class="cls-3" x1="359.13" y1="492.03" x2="359.13" y2="554.08"/>
    <line class="cls-3" x1="152.32" y1="285.22" x2="214.36" y2="285.22"/>
    <line class="cls-3" x1="359.13" y1="492.03" x2="421.17" y2="492.03"/>
    <line class="cls-3" x1="173" y1="554.08" x2="173" y2="492.03"/>
    <line class="cls-3" x1="317.77" y1="554.08" x2="379.81" y2="554.08"/>
    <line class="cls-3" x1="421.17" y1="492.03" x2="421.17" y2="429.99"/>
    <line class="cls-3" x1="379.81" y1="533.4" x2="338.45" y2="492.03"/>
    <line class="cls-3" x1="421.17" y1="533.4" x2="379.81" y2="533.4"/>
    <line class="cls-3" x1="441.85" y1="326.59" x2="441.85" y2="367.95"/>
    <line class="cls-3" x1="379.81" y1="388.63" x2="421.17" y2="347.27"/>
    <line class="cls-3" x1="276.41" y1="533.4" x2="235.04" y2="533.4"/>
    <line class="cls-3" x1="173" y1="554.08" x2="214.36" y2="554.08"/>
    <line class="cls-3" x1="297.09" y1="326.59" x2="297.09" y2="285.22"/>
    <line class="cls-3" x1="400.49" y1="512.71" x2="400.49" y2="554.08"/>
    <line class="cls-3" x1="255.72" y1="554.08" x2="297.09" y2="554.08"/>
    <line class="cls-3" x1="235.04" y1="347.27" x2="193.68" y2="388.63"/>
    <line class="cls-3" x1="193.68" y1="512.71" x2="235.04" y2="554.08"/>
    <line class="cls-3" x1="441.85" y1="471.35" x2="400.49" y2="471.35"/>
    <line class="cls-3" x1="441.85" y1="285.22" x2="400.49" y2="285.22"/>
    <line class="cls-3" x1="297.09" y1="450.67" x2="317.77" y2="471.35"/>
    <line class="cls-3" x1="193.68" y1="264.54" x2="214.36" y2="285.22"/>
    <line class="cls-3" x1="152.32" y1="388.63" x2="152.32" y2="347.27"/>
    <line class="cls-3" x1="441.85" y1="554.08" x2="441.85" y2="512.71"/>
    <line class="cls-3" x1="441.85" y1="450.67" x2="441.85" y2="409.31"/>
    <line class="cls-3" x1="152.32" y1="512.71" x2="152.32" y2="471.35"/>
    <line class="cls-3" x1="152.32" y1="264.54" x2="152.32" y2="305.9"/>
    <line class="cls-3" x1="421.17" y1="388.63" x2="441.85" y2="388.63"/>
    <line class="cls-3" x1="235.04" y1="326.59" x2="276.41" y2="285.22"/>
    <line class="cls-3" x1="297.09" y1="512.71" x2="338.45" y2="471.35"/>
    <line class="cls-3" x1="317.77" y1="429.99" x2="359.13" y2="429.99"/>
    <line class="cls-3" x1="193.68" y1="512.71" x2="235.04" y2="512.71"/>
    <line class="cls-3" x1="152.32" y1="388.63" x2="152.32" y2="429.99"/>
    <line class="cls-3" x1="338.45" y1="264.54" x2="400.49" y2="264.54"/>
  </g>
  <g>
    <path class="cls-1" d="M460.75,570.13c.03.29.05.58.04.87,0,.1-.01.21-.02.31-.02.25.07-.37.02-.14-.02.07-.03.14-.04.21-.07.33-.19.64-.3.95-.32.88-.22,1.82.49,2.48.42.39.92.66,1.43.9.69.33,1.41.66,2.15.86.58.16,1.19.23,1.78.08s1.04-.57,1.37-1.06c.23-.35.39-.74.57-1.11.13-.26.27-.51.43-.76.09-.13.2-.26.28-.39-.18.32-.09.12-.02.03s.15-.17.22-.26c.4-.44.55-1.13.21-1.66-.31-.48-.74-.85-1.35-.85-.32,0-.47.07-.76.19-.02,0-.05.02-.07.03.24-.14.51-.18.8-.11-.7-.15-1.52.2-1.69.96-.16.69.21,1.53.96,1.69.31.06.6.09.91,0,.12-.03.26-.1.37-.15.29-.14-.22.15-.52.13l-.69-.19c-.13-.08-.24-.19-.33-.32l.21-1.66c-.72.79-1.19,1.66-1.66,2.6-.07.14-.15.28-.23.41-.13.22.27-.27.08-.1-.02.01-.04.03-.05.05-.15.19.3-.17.14-.1-.03.01-.05.03-.07.04-.13.07-.05-.05.22-.09-.05,0-.14.03-.18.05.33-.14.36-.03.2-.03-.03,0-.06,0-.09,0-.05,0-.1-.01-.15-.01.42-.01.29.04.15.01-.25-.05-.5-.13-.75-.22-.14-.05-.28-.11-.42-.16-.23-.09.01,0,.05.02-.13-.05-.25-.11-.37-.16-.44-.2-.86-.42-1.27-.67-.18-.11.28.25.14.11-.02-.02-.05-.04-.07-.07-.11-.11-.21-.31.07.11-.11-.17.03-.14.06.18,0-.01-.01-.04-.02-.05-.05-.17.09-.08.03.24,0-.03,0-.1,0-.13.05.41-.07.37-.02.2.03-.12.07-.23.11-.34.35-.95.53-1.92.41-2.94-.04-.37-.13-.69-.4-.97-.24-.24-.63-.42-.97-.4-.68.03-1.46.61-1.37,1.37h0Z"/>
    <path class="cls-1" d="M463.83,568.23c-.75-3.12-2.67-5.91-1.81-9.24.72-2.8,3.07-4.23,5.88-4.23,2.49,0,4.71,1.31,5.93,3.47,1.16,2.06,1.59,5.45.1,7.46-.74.99-1.89,1.6-2.91,2.26-1.26.82-2.41,1.73-3.23,3.01l2.16-.28c-.79-.97-1.99-1.23-3.17-1.34-.43-.04-.91-.04-1.3-.11-.18-.03-.37-.08-.44-.13-.08-.05,0,.13-.08-.17-.51-1.69-3.16-.97-2.65.73.42,1.39,1.49,2.09,2.89,2.28.9.12,2.18-.09,2.82.68.59.72,1.72.4,2.16-.28.73-1.13,1.9-1.8,3.01-2.52,1.27-.81,2.49-1.72,3.3-3.02,1.77-2.85,1.34-7.04-.21-9.88-1.55-2.85-4.44-4.64-7.65-4.9-3.5-.28-7.15,1.3-8.65,4.6-.86,1.89-1.1,3.99-.77,6.03.35,2.18,1.48,4.14,1.99,6.28.41,1.72,3.06.99,2.65-.73h0Z"/>
    <path class="cls-1" d="M464.45,546.99c-.1-.19-.19-.38-.27-.57l.14.33c-.28-.67-.47-1.37-.57-2.09l.05.36v-.05c0-.19-.04-.37-.12-.53-.06-.17-.15-.32-.28-.44-.24-.24-.63-.42-.97-.4s-.72.13-.97.4c-.23.25-.45.62-.4.97.08.6.17,1.18.35,1.76s.4,1.12.68,1.64c.16.3.5.54.82.63s.77.05,1.06-.14c.65-.42.85-1.2.49-1.88h0Z"/>
    <path class="cls-1" d="M475.73,549.45c.45-.49.94-.94,1.46-1.35l-.28.21c.11-.09.23-.17.35-.26.16-.09.29-.2.39-.35.12-.13.2-.29.25-.47.06-.18.07-.36.02-.55,0-.18-.06-.35-.16-.51-.19-.29-.47-.55-.82-.63s-.76-.07-1.06.14c-.75.54-1.47,1.14-2.09,1.82-.24.27-.4.6-.4.97,0,.19.03.37.12.53.06.17.15.32.28.44.26.24.6.42.97.4s.72-.13.97-.4h0Z"/>
    <path class="cls-1" d="M481.61,561.65c.77-.2,1.55-.39,2.34-.5l-.36.05c.55-.07,1.1-.1,1.65-.05.33.03.74-.17.97-.4s.42-.63.4-.97-.13-.72-.4-.97-.59-.37-.97-.4c-1.46-.13-2.95.23-4.36.6-.69.18-1.18.99-.96,1.69s.94,1.15,1.69.96h0Z"/>
    <path class="cls-1" d="M464.19,568.74s.02-.09.04-.13c0-.02.01-.04.02-.06,0,.02-.02.05.01-.02l.02-.04s-.01.02,0,0c0-.01.02-.03.02-.04,0-.02.02-.04.03-.06.04-.09-.08.08.02-.04.08-.1.1-.23.13-.35.03-.09.06-.18.09-.27.12-.35.25-.7.36-1.06.22-.77.24-1.58.27-2.37.01-.4.02-.79-.01-1.19-.03-.35-.06-.72-.18-1.05-.17-.49-.55-1.14-1.16-.98-.29.07-.47.36-.52.64-.06.35-.03.72.04,1.07.14.65.57,1.27,1.14,1.61.31.18.68.29,1.04.29.32,0,.69-.06.97-.23.45-.28.72-.75.91-1.23.08-.19.14-.38.17-.58.04-.24.06-.5-.01-.74-.09-.29-.3-.53-.59-.61-.27-.07-.6,0-.84.15-.55.37-.58,1.05-.48,1.65.08.5.27,1,.53,1.43.14.23.3.42.52.57.2.14.46.23.7.28.57.1,1.16.06,1.7-.16.57-.23,1.09-.58,1.34-1.17.26-.61.15-1.54-.53-1.83-.58-.24-1.17.13-1.59.51s-.72.83-.87,1.38c-.22.82-.09,1.65-.09,2.48,0,.41-.05.82-.09,1.23s-.09.83-.12,1.25-.05.82-.04,1.23c0,.35.31.69.68.68s.68-.3.68-.68c-.01-.75.07-1.5.15-2.25.04-.37.08-.75.11-1.12.02-.35,0-.71-.01-1.06-.02-.39-.03-.78.02-1.17l-.02.18c.04-.25.1-.5.2-.73l-.07.16c.05-.13.13-.24.21-.35l-.11.14c.15-.19.32-.37.52-.52l-.14.11c.1-.08.21-.15.33-.2l-.16.07c.06-.02.11-.04.17-.05l-.18.02s.07,0,.11,0l-.18-.02s.06.01.08.02l-.16-.07s.04.02.05.03l-.14-.11s.04.03.06.06l-.11-.14s.04.06.05.09l-.07-.16c.03.07.04.14.05.21l-.02-.18c.01.12.02.24,0,.36l.02-.18c-.01.07-.03.15-.06.21l.07-.16c-.04.08-.08.16-.14.23l.11-.14c-.08.1-.16.18-.26.26l.14-.11c-.15.11-.31.2-.48.28l.16-.07c-.26.11-.53.18-.81.21l.18-.02c-.21.03-.41.03-.62,0l.17.02c-.13-.02-.25-.05-.37-.1l.15.06c-.07-.03-.14-.07-.2-.11.08.06.13.11.05.03-.02-.02-.04-.04-.06-.07-.01-.01-.02-.03-.03-.04-.07-.08.1.13.05.06-.02-.03-.04-.06-.06-.09-.04-.07-.08-.14-.12-.22-.02-.04-.04-.08-.06-.12,0-.02-.02-.04-.03-.06-.04-.09.06.15.02.06-.03-.09-.07-.18-.1-.26-.06-.18-.11-.37-.13-.57l.02.16c-.02-.16-.03-.32,0-.47l-.02.16s.01-.08.03-.12c0-.02.01-.04.02-.06.03-.09-.08.14-.03.06,0-.02.02-.03.03-.05.04-.08-.04.06-.05.07,0,0,.03-.03.04-.04,0,0,.01-.01.02-.02.04-.05-.11.07-.07.06.02,0,.03-.02.05-.03.08-.05-.11.04-.07.03.03,0,.09-.02.12-.03,0,0-.18.01-.1.01.01,0,.03,0,.04,0,.05,0-.18-.04-.1-.01s-.14-.07-.09-.04c.1.05-.13-.12-.05-.04.06.06-.08-.12-.06-.08,0,.01.01.03.02.04.02.02-.06-.16-.04-.09,0,.01,0,.03.01.04,0,.01,0,.03,0,.04.02.09-.02-.17-.01-.08,0,.08,0,.15,0,.23,0,.09,0-.07.01-.08,0,.02,0,.04,0,.06,0,.05-.02.09-.03.14-.02.09-.05.18-.08.27-.02.04-.03.09-.05.13-.03.08.06-.14.02-.05-.01.02-.02.05-.03.07-.04.09-.09.17-.14.26-.02.04-.05.07-.07.11,0,.01-.03.05-.04.05,0,0,.1-.13.05-.07,0,0-.02.02-.02.03-.05.06-.11.12-.17.17-.05.05.13-.09.05-.04-.02,0-.03.02-.05.03s-.03.02-.05.03c0,0-.01,0-.02,0-.06.04.15-.06.08-.03-.07.02-.14.05-.21.07-.03,0-.07.01-.1.02-.02,0-.07.01.01,0,.1-.01,0,0-.02,0-.06,0-.12,0-.19,0-.03,0-.07,0-.1,0-.02,0-.07,0,.02,0,.1.01.01,0-.01,0-.06-.01-.12-.03-.19-.05-.03,0-.05-.02-.08-.03-.08-.03.05.02.05.02-.01,0-.03-.02-.05-.02-.06-.03-.11-.06-.17-.09-.03-.02-.05-.04-.08-.05-.09-.06.08.07,0,0-.1-.09-.18-.18-.27-.28-.04-.05.06.09.03.03,0-.01-.02-.02-.02-.03-.02-.03-.04-.05-.05-.08-.04-.06-.07-.12-.1-.19,0-.01-.01-.03-.02-.04-.03-.06.04.1.02.04-.01-.03-.02-.06-.03-.09-.02-.06-.04-.13-.06-.19,0-.03-.01-.06-.02-.1,0-.02,0-.04,0-.06-.01-.05,0,.06,0,.05-.02-.02-.01-.09-.01-.12,0-.04,0-.08,0-.13,0-.06,0-.12,0-.18,0-.03,0-.06,0-.08,0-.01,0-.03,0-.04,0-.06-.02.12,0,.07.01-.04.02-.08.03-.12.02-.08-.06.12-.02.06,0,0,0-.01,0-.02.04-.06-.06.07-.05.07.02-.02.06-.05-.02,0-.07.06-.05.04-.03.03.03-.02.07-.01-.09.04,0,0,.02,0,.03,0-.21.05-.14.01-.1.02.06,0-.12-.02-.1-.02.01,0,.02,0,.04,0,.03,0-.14-.07-.07-.03.01,0,.03.02.04.02.02.01-.07-.05-.07-.06,0,0,.02.02.03.02.02.02.05.05.07.08-.11-.11-.06-.08-.03-.04.01.02.03.04.04.06.03.04.05.09.07.13,0,.01,0,.02.01.03.03.07-.02-.05-.02-.05.01.03.02.06.03.09.04.12.07.24.1.36,0,.03.01.07.02.1.02.1,0-.07,0,.02s.02.18.03.28c.03.36.03.73.03,1.09s-.02.73-.04,1.09c0,.17-.01.34-.03.51,0,.02,0,.05,0,.07,0,.06,0-.04,0-.04,0,.04-.01.08-.02.12-.02.09-.03.18-.05.26-.08.33-.2.65-.29.99-.04.16-.08.32-.12.48-.02.08-.03.16-.05.24-.01.06-.03.14-.03.2,0,.07.02.14.03.21,0,.03.01.06.02.09.01.07,0,.02,0,.01,0,.03,0,.07.02.1.02.08.03.16.05.24.05.24.42.23.48,0h0Z"/>
  </g>
  <g>
    <path class="cls-1" d="M441.46,581.71c-12.32.29-23.3,9.61-27.29,21-2.21,6.31-.17,14.59,4.11,19.61,3.82,4.49,10.3,6.62,15.87,7.86,6.79,1.5,13.89,1.44,20.74.36,6.09-.96,12.21-2.71,17.01-6.74,4.27-3.59,7.1-8.69,7.81-14.22.81-6.32-1.21-13.28-5.07-18.32-4.03-5.26-10.63-8.73-17.08-9.91-5.82-1.07-12.15-1.98-18.03-.99-1.37.23-2.68.64-3.93,1.23-1.6.76-.2,3.12,1.39,2.37,2.37-1.12,5.15-1.26,7.73-1.24,2.86.02,5.72.33,8.56.73,5.95.84,11.63,2.49,16.3,6.46,8.44,7.17,10.28,20.95,2.91,29.48-3.52,4.07-8.19,6.19-13.32,7.49-6.28,1.59-12.88,2.09-19.32,1.44-5.46-.55-11.42-2.07-16.13-4.98-5.04-3.12-7.6-9.34-7.64-15.13-.05-6.57,4.56-13.01,9.33-17.17,4.44-3.88,10.14-6.45,16.08-6.59,1.76-.04,1.77-2.79,0-2.74h0Z"/>
    <path class="cls-1" d="M419.75,605.46c-.27,0-.53-.01-.8-.03-.14-.01-.29-.03-.43-.04-.27-.03.16.03.06,0s-.18-.03-.27-.04c-.71-.12-1.42-.3-2.1-.55-.09-.03-.17-.07-.26-.1-.15-.06-.22-.1-.02,0-.19-.09-.38-.17-.56-.27-.38-.19-.74-.41-1.09-.66-.04-.03-.29-.21-.14-.1s-.1-.08-.14-.11c-.17-.14-.33-.29-.49-.45-.15-.15-.29-.3-.42-.46-.08-.09-.19-.24-.05-.05-.07-.1-.15-.2-.22-.31-.14-.21-.28-.44-.4-.66-.06-.12-.12-.24-.18-.36-.02-.05-.05-.11-.07-.16-.08-.19.07.2,0,0-.21-.58-.37-1.16-.48-1.77-.12-.73-1.02-1.14-1.69-.96-.77.21-1.08.95-.96,1.69.37,2.17,1.48,4.2,3.2,5.58,1.45,1.16,3.18,1.93,5,2.28.82.16,1.66.26,2.49.27.74,0,1.37-.63,1.37-1.37s-.63-1.37-1.37-1.37h0Z"/>
    <path class="cls-1" d="M409.44,597.42c-.21-.08.04,0,.11.05-.04-.03-.1-.05-.15-.08s-.1-.06-.15-.09c-.05-.03-.25-.18-.04-.02s-.07-.07-.13-.13c-.05-.05-.09-.1-.13-.15-.13-.14.2.29.06.08-.06-.1-.13-.19-.18-.29-.03-.05-.05-.1-.08-.15-.01-.03-.02-.05-.04-.08-.08-.16.07.16.07.17-.06-.24-.16-.46-.2-.7-.01-.06-.04-.29,0-.02s0,.04,0-.02c-.01-.13-.02-.25-.01-.38s.02-.25.02-.38c0-.09-.07.38-.02.13.01-.07.03-.13.04-.2.03-.11.06-.22.1-.33.07-.21,0,.03-.05.12.03-.06.06-.12.09-.18.05-.1.11-.19.17-.29.12-.2-.14.15-.08.1.05-.04.09-.1.13-.15s.1-.09.14-.14c.19-.18-.28.18-.05.04.12-.07.24-.13.36-.2.1-.07-.2.08-.19.08.04,0,.08-.03.12-.04.07-.02.14-.04.21-.06s.15-.03.22-.05c.05-.01.18-.03-.05,0-.26.04-.02,0,.03,0l-1.32-1.01c.07.22.12.45.16.68.03.14.05.28.07.41.05.32-.02-.19,0-.08,0,.08.02.15.03.23.07.65.11,1.31.09,1.96,0,.31-.03.62-.06.93-.02.24.07-.39,0-.05-.01.06-.02.12-.03.18-.03.13-.06.26-.09.39-.01.05-.03.1-.05.15-.05.16-.18.24.05-.1-.05.07-.13.19-.15.27.08-.23.23-.28.11-.16-.18.18.29-.2.13-.1-.11.07-.24.06.2-.08-.25.08.39-.03.19-.02-.71.05-1.41.6-1.37,1.37.03.7.61,1.42,1.37,1.37,1.95-.13,2.35-2.24,2.43-3.82.04-.74,0-1.48-.07-2.21-.07-.69-.16-1.41-.36-2.08-.17-.54-.72-1.05-1.32-1.01-.94.07-1.77.36-2.5.96-.58.48-.97,1.17-1.21,1.88-.45,1.35-.24,3.02.54,4.22.53.8,1.24,1.37,2.14,1.69.68.24,1.53-.27,1.69-.96.18-.77-.23-1.43-.96-1.69h0Z"/>
    <path class="cls-1" d="M408.08,593.84c-.1.33-.27.65-.32.99-.06.4-.08.72.03,1.12.08.31.23.61.42.87.2.28.46.55.82.63s.75.07,1.06-.14c.28-.19.56-.41.78-.67.14-.18.29-.36.4-.55s.19-.41.28-.62c.13-.34.17-.7.21-1.05.03-.28.03-.57,0-.85l-.05.36s0-.02.01-.03l-.14.33s.01-.02.02-.04l-.21.28h0c-.09.07-.19.14-.28.21h0c-.11.04-.22.09-.33.14h0c-.24,0-.49,0-.73,0h0c-.2-.12-.4-.23-.61-.35h0c-.07-.09-.14-.18-.21-.28,0,0,0,0,0,0l-.14-.33s0,.02,0,.03l-.05-.36c.03.32-.02.67-.06.99s.18.75.4.97c.24.24.63.42.97.4s.72-.13.97-.4l.21-.28c.12-.21.19-.44.19-.69.05-.44.12-.93,0-1.36-.16-.62-.71-1.02-1.34-1.04s-1.19.48-1.36,1.06c-.08.28-.03.52-.03.79,0,.17,0,.33-.03.5l.05-.36c-.03.23-.09.46-.18.68l.14-.33c-.07.18-.17.34-.28.49l.21-.28c-.11.14-.24.27-.38.38l.28-.21s-.09.07-.14.1l1.88.49c-.08-.12-.16-.24-.22-.38l.14.33c-.04-.09-.07-.19-.08-.29l.05.36c-.01-.09-.01-.18,0-.27l-.05.36c.05-.34.22-.66.32-.99s.04-.76-.14-1.06-.49-.56-.82-.63c-.35-.08-.75-.06-1.06.14s-.52.47-.63.82h0Z"/>
    <path class="cls-1" d="M411.34,595.5c-.47.59-.89,1.2-1.19,1.9-.1.16-.15.33-.16.51-.04.18-.03.36.02.55.04.18.12.33.25.47.1.15.23.27.39.35.32.17.7.25,1.06.14l.33-.14c.21-.12.37-.29.49-.49.24-.55.55-1.07.92-1.55l-.21.28s.04-.05.06-.07c.13-.12.23-.27.28-.44.09-.16.13-.34.12-.53,0-.19-.03-.37-.12-.53-.06-.17-.15-.32-.28-.44-.26-.24-.6-.42-.97-.4l-.36.05c-.23.07-.43.18-.61.35h0Z"/>
    <path class="cls-1" d="M421.32,594.55c.09.57.03.1.03-.06,0-.26.06-.04-.02.09.04-.07.04-.22.06-.3.09-.4.23-.79.38-1.17.12-.32-.06.12.02-.05.05-.1.09-.21.14-.31.11-.23.22-.46.34-.69.25-.48.52-.95.81-1.41s.59-.91.92-1.35c.03-.05.3-.4.19-.25-.12.16.13-.17.16-.2.17-.21.34-.42.52-.62.33-.37.68-.73,1.06-1.06.08-.07.17-.14.25-.21.14-.13-.24.17.03-.02.18-.12.35-.24.54-.35.08-.05.19-.08.26-.13.13-.09-.31.1-.15.07.05,0,.09-.04.14-.05.09-.03.19-.04.28-.07.19-.06-.41.04-.07.02.28-.02.12,0-.06-.02.03,0,.07.01.1.02.21.09-.16-.07-.16-.08,0,0,.22.13.22.13l-.1-.07c-.11-.09-.13-.1-.06-.04,0,.01.11.11.12.12.5.55,1.43.51,1.94,0,.55-.55.5-1.39,0-1.94-1.75-1.93-4.3-.27-5.72,1.15-1.72,1.72-3.16,3.88-4.12,6.11-.48,1.12-.88,2.26-.7,3.49.11.73,1.03,1.14,1.69.96.78-.22,1.07-.95.96-1.69h0Z"/>
    <path class="cls-1" d="M427.78,586.45c.18.08.36.16.52.27l-.28-.21c.05.04.1.08.14.13l-.21-.28c.04.05.07.11.1.17l-.14-.33c.04.1.07.21.08.33l-.05-.36c0,.06.01.12.02.18l.68-1.18s-.06.04-.09.06l.33-.14s-.05.02-.08.02l.36-.05s-.06,0-.1,0l.36.05c-.17-.03-.34-.06-.52-.07-.14-.01-.36.04-.45.05-.04,0-.08.02-.12.03-.18.04-.33.12-.47.25-.15.1-.27.23-.35.39-.1.16-.15.33-.16.51-.04.18-.03.36.02.55l.14.33c.12.21.29.37.49.49l.33.14c.24.07.49.07.73,0,.04-.02.08-.03.12-.03l-.36.05s.07,0,.11,0l-.36-.05c.18.02.36.07.54.08.02,0,.03,0,.05,0,.08,0,.3-.04.37-.05,0,0,.02,0,.03,0,.02,0,.04-.01.05-.02.11-.04.24-.09.34-.15.01,0,.02-.01.03-.02.01,0,.02-.01.03-.02h.02c.09-.08.19-.16.28-.23l.11-.14c.12-.13.2-.29.25-.47l.02-.18c.02-.07.03-.13.02-.2,0-.05,0-.1-.01-.15-.02-.19-.04-.4-.09-.59,0-.03-.02-.06-.03-.1-.05-.14-.11-.28-.17-.41-.01-.03-.03-.05-.04-.07-.08-.12-.17-.23-.26-.34-.04-.04-.08-.08-.12-.11-.13-.1-.26-.22-.41-.3-.13-.07-.26-.13-.39-.19-.16-.1-.33-.15-.51-.16-.18-.04-.36-.03-.55.02-.18.04-.33.12-.47.25-.15.1-.27.23-.35.39l-.14.33c-.07.24-.07.49,0,.73l.14.33c.12.21.29.37.49.49h0Z"/>
    <path class="cls-1" d="M443.97,582.82c1.9.31,3.72,1.01,5.45,1.85.9.43,1.78.91,2.63,1.42.37.22.72.45,1.08.68.33.22.14.08.41.3,2.02,1.7,4.09,3.92,5.1,6.39.22.54.38,1.09.34,1.6,0,.03-.07.34-.11.43.02-.04-.24.27-.12.18-.29.22-.47.23-.97.21s-1.02-.16-1.58-.34c-1.34-.43-2.59-1.12-3.78-1.84-.55-.33-1.09-.68-1.62-1.04-.23-.16-.47-.32-.7-.49-.18-.13-.55-.41-.52-.39-3.43-2.73-5.27-6.65-6.8-10.65-.62-1.63-3.28-.92-2.65.73,1.66,4.33,3.63,8.65,7.28,11.67,2.31,1.92,5.03,3.62,7.88,4.59,1.31.45,2.84.74,4.17.24,1.47-.56,2.29-2.01,2.26-3.55-.06-3.31-2.91-6.51-5.13-8.68-1.33-1.3-2.84-2.29-4.48-3.17-2.3-1.24-4.81-2.36-7.4-2.79-1.73-.28-2.47,2.36-.73,2.65h0Z"/>
    <path class="cls-1" d="M440.76,581.59c-1.62.72-3.23,1.86-4.02,3.49s-.67,3.46.09,5.12c.61,1.32,1.58,2.54,2.54,3.61,1.03,1.15,2.44,2.43,4.12,2.08.96-.2,1.61-.89,2.18-1.64.1-.13.2-.27.31-.41-.12.16.17-.21.24-.28.29-.31.44-.43.71-.51.7-.23,1.16-.95.96-1.69-.19-.69-.98-1.19-1.69-.96-.74.24-1.39.64-1.92,1.22-.24.26-.46.55-.67.84-.03.05-.26.35-.2.27.05-.06-.19.22-.24.28-.04.04-.28.25-.16.16.13-.1-.02,0-.04.02-.25.15,0-.01.02,0,.01,0-.24.01-.05.03.17,0-.04,0-.06,0-.05,0-.19-.03,0,0,.23.04-.05-.02-.1-.04.22.12.04.02-.06-.04-.12-.07-.24-.15-.35-.23-.12-.09,0,0,.02.02-.05-.04-.1-.09-.16-.13-.14-.13-.28-.25-.41-.38-.91-.9-1.47-1.64-2.14-2.71-.36-.58-.55-.99-.71-1.64-.02-.07-.03-.14-.04-.21,0,.03.02.18,0,.02s-.02-.32-.02-.48c0-.07.03-.4,0-.17.02-.17.07-.35.12-.52.14-.48.44-.92.92-1.38.59-.56,1.38-1,2.19-1.36.68-.3.84-1.29.49-1.88-.41-.7-1.2-.8-1.88-.49h0Z"/>
    <path class="cls-1" d="M400.95,597.61c-.16,1.29-.2,2.65.16,3.92.21.71.55,1.34,1.02,1.91.51.61,1.2.99,1.93,1.28.31.12.78.02,1.06-.14s.56-.49.63-.82c.18-.79-.24-1.4-.96-1.69.4.16-.04-.02-.14-.08-.11-.06-.21-.13-.31-.2-.14-.09.24.21.08.06-.05-.05-.11-.09-.16-.14-.08-.08-.15-.18-.23-.26.06.06.19.27.07.08-.03-.05-.06-.1-.09-.15-.07-.11-.12-.23-.18-.34-.08-.15.12.32.04.1-.02-.06-.04-.11-.06-.17-.04-.13-.08-.25-.11-.38-.03-.12-.05-.24-.07-.36,0-.04-.04-.3,0-.04s0,.01,0-.04c-.03-.27-.04-.54-.04-.81,0-.57.05-1.15.12-1.72.04-.32-.18-.75-.4-.97-.24-.24-.63-.42-.97-.4s-.72.13-.97.4c-.26.29-.36.59-.4.97h0Z"/>
    <path class="cls-1" d="M395.7,602.34c-.13,1.3-.08,2.7.41,3.93.28.71.65,1.34,1.19,1.89.58.59,1.28.97,2.04,1.29.31.13.78.02,1.06-.14s.56-.49.63-.82c.08-.35.06-.75-.14-1.06s-.47-.49-.82-.63c.39.16-.07-.04-.16-.09-.13-.07-.25-.14-.37-.23-.04-.03-.23-.17-.05-.03s0-.01-.04-.03c-.09-.08-.18-.16-.26-.25-.05-.05-.1-.11-.14-.16-.15-.17.15.22.06.08-.07-.11-.15-.21-.22-.33-.06-.1-.12-.21-.17-.32-.06-.12-.07-.28.02.06-.01-.06-.04-.11-.06-.17-.09-.24-.15-.49-.2-.75-.01-.06-.02-.12-.03-.19-.04-.23,0,0,0,.1,0-.14-.03-.28-.04-.42-.04-.58-.02-1.16.04-1.74.07-.72-.68-1.4-1.37-1.37-.8.04-1.3.6-1.37,1.37h0Z"/>
    <path class="cls-1" d="M478.96,599.1c2.68-2.12,4.93-5.08,5.61-8.49.14-.7-.2-1.52-.96-1.69-.68-.16-1.54.21-1.69.96-.08.39-.17.78-.3,1.16-.06.18-.12.36-.18.53-.04.1-.08.19-.11.29-.08.2.09-.17,0,.02-.36.72-.72,1.41-1.18,2.07-.11.16-.22.31-.33.46.08-.11.05-.06-.02.02s-.13.16-.2.24c-.26.31-.52.6-.8.89-.55.57-1.14,1.1-1.77,1.59-.57.45-.5,1.48,0,1.94.6.55,1.34.48,1.94,0h0Z"/>
    <path class="cls-1" d="M483.91,589.56c-.48-.93-.74-1.51-1.04-2.57-.06-.23-.12-.46-.17-.7-.02-.1-.04-.21-.06-.32,0-.03-.06-.44-.02-.14-.05-.45-.07-.9-.04-1.35,0-.04.03-.37.01-.17s.02-.13.03-.17c.04-.23.1-.46.18-.68.01-.03.12-.33.06-.17s.06-.13.08-.16c.11-.22.24-.42.37-.62s-.05.05.05-.07c.07-.08.14-.16.21-.24.17-.18.35-.34.54-.5.07-.06.07-.06,0,0l.12-.08c.12-.08.24-.16.37-.24.27-.16.55-.3.83-.44l-1.88-.49c.87,1.46,1.05,3.03.67,4.57s-1.25,3.02-2.38,4.2l2.29,1.34c.35-1.29.42-2.64.48-3.98.03-.61.05-1.23.11-1.84.03-.37.02-.31.08-.63.05-.28.12-.55.21-.82l-2.65-.73c-.28,1.45-.33,2.9-.37,4.37-.02.6.44,1.17,1.01,1.32.63.17,1.18-.14,1.55-.63.32-.43.48-.92.52-1.45.01-.15,0-.3,0-.45,0-.09,0-.18,0-.28-.03.12-.02.09.02-.1.17-.72-.23-1.49-.96-1.69s-1.52.23-1.69.96c-.09.39-.12.77-.12,1.17,0,.05-.02.41,0,.27.05-.26-.09.09-.15.18l2.56.69c.03-1.22.04-2.44.27-3.64.14-.73-.2-1.48-.96-1.69s-1.46.25-1.69.96c-.77,2.36-.26,4.97-.88,7.27-.35,1.3,1.34,2.34,2.29,1.34,3.07-3.22,4.53-8.06,2.13-12.1-.4-.68-1.2-.81-1.88-.49-2.34,1.09-3.92,3.08-4.18,5.66-.24,2.32.64,4.67,1.69,6.69.34.66,1.26.85,1.88.49.67-.39.83-1.22.49-1.88h0Z"/>
    <path class="cls-1" d="M482.03,585.78c-.48-.16-1-.23-1.49-.35-.68-.16-1.38-.32-2.03-.59l.33.14s-.07-.03-.1-.04c-.29-.13-.55-.21-.88-.16-.29.04-.59.16-.79.38-.16.18-.28.38-.35.61-.12.37,0,.72.14,1.06.88,2,2.85,3.35,4.97,3.72.37.06.72.06,1.06-.14.28-.17.56-.49.63-.82.08-.35.06-.75-.14-1.06-.18-.28-.47-.57-.82-.63-.48-.08-.94-.21-1.39-.4l.33.14c-.44-.19-.86-.42-1.24-.72l.28.21c-.33-.26-.62-.55-.87-.88l.21.28c-.26-.34-.47-.71-.65-1.1-.63.63-1.25,1.25-1.88,1.88.76.34,1.55.56,2.36.75.53.13,1.08.21,1.59.37.68.22,1.53-.26,1.69-.96.17-.75-.23-1.45-.96-1.69h0Z"/>
    <path class="cls-1" d="M490.86,584.31v.08c0-.12-.02-.24-.04-.36.12.87.12,1.75,0,2.62l.05-.36c-.1.7-.27,1.38-.54,2.03-.13.31-.02.79.14,1.06s.49.56.82.63c.35.08.75.06,1.06-.14s.49-.47.63-.82c.71-1.73.79-3.63.53-5.46-.04-.32-.37-.67-.63-.82-.29-.17-.73-.25-1.06-.14s-.65.31-.82.63c-.18.35-.19.67-.14,1.06h0Z"/>
    <path class="cls-1" d="M497.11,583.95c-.01.11-.07.3-.04.41-.02-.07.04-.25,0-.06-.01.07-.02.14-.03.2-.05.29-.11.58-.17.86-.13.55-.31,1.09-.51,1.62-.08.21.03-.03.02-.04,0,.01-.07.17-.08.19-.06.12-.11.24-.17.37-.12.24-.25.47-.39.7-.07.11-.14.22-.21.33-.05.07-.09.13-.14.2-.02.03-.16.21-.04.06s-.02.02-.04.05c-.04.05-.08.1-.12.15-.09.11-.19.21-.29.31-.5.51-.55,1.44,0,1.94s1.4.55,1.94,0c1.9-1.94,2.77-4.63,3.03-7.28.07-.72-.68-1.4-1.37-1.37-.8.04-1.3.6-1.37,1.37h0Z"/>
    <path class="cls-1" d="M429.53,626.18c-4.07-2.03-8.38-.69-12.42.71l1.55.63c-1.97-2.9-3.37-7.11-7.16-8.08-.77-.2-1.42.25-1.69.96-.78,2.09-.46,4.27,1.09,5.91,1.38,1.47,3.37,2.27,5.23,2.9.98.33,2-.72,1.69-1.69-.26-.8-.66-1.61-1.53-1.88-.57-.18-1.21,0-1.67.03-1.75.11-1.77,2.86,0,2.74.29-.02.77,0,1.03-.14-.18.1.04-.07.04,0-.6-.43-.81-.54-.63-.32.07.08.1.17.1.29.56-.56,1.13-1.13,1.69-1.69-1.3-.44-2.71-.96-3.74-1.91-1.1-1.01-1.18-2.17-.67-3.53l-1.69.96c1.41.36,2.34,1.62,3.09,2.78.85,1.32,1.54,2.74,2.42,4.03.33.48.95.84,1.55.63,3.2-1.1,7.03-2.62,10.31-.98,1.58.79,2.97-1.58,1.39-2.37h0Z"/>
    <path class="cls-1" d="M449.04,581.38c1,0,2.01-.07,3.01-.07.48,0,.97.02,1.45.07.07,0,.13.01.2.02-.2-.03-.22-.03-.07,0,.1.02.2.03.29.05.25.05.5.12.75.2.68.23,1.53-.26,1.69-.96.17-.76-.23-1.44-.96-1.69-2.04-.68-4.25-.37-6.36-.36-.72,0-1.41.63-1.37,1.37s.6,1.37,1.37,1.37h0Z"/>
  </g>
  <path class="cls-1" d="M469.87,627.06c3.75,1.38,8.06.73,11.96,1.42,4.19.74,8.63,1.25,12.33,3.51v-2.37c-2.58,1.11-5.74,1.08-8.49,1.09s-5.35-.18-8.02-.15c-1.77.02-1.77,2.74,0,2.74,3.56.01,7.19.23,10.47-1.42,1.17-.59.67-2.11-.33-2.51-4.9-1.96-10.83-.69-15.88-.1-6.46.75-12.99,2.14-19.51,2.13l.69,2.56c6.13-2.73,12.81-4.68,19.53-5.12-.23-.85-.46-1.7-.69-2.56-4.24,1.81-9.08,1.78-13.01,4.39-1.15.77-.68,2.47.69,2.56,6.27.39,12.54-.32,18.81-.34,1.79,0,1.74-2.6,0-2.74-3.42-.28-7.01.2-10.36.83-2.99.56-7,1.33-8.87,4-.55.78.06,1.74.82,2.02,5.69,2.05,11.77-.54,17.53-.79,4.75-.21,10.55,1.94,14.56-1.57.75-.66.38-2.1-.61-2.29-6.83-1.36-13.79-2.25-20.77-2.15l.69,2.56c2.92-1.89,5.93-2.3,9.35-2.32,1.77,0,1.76-2.68,0-2.74-1.42-.05-2.84-.02-4.26.09s-2,2.45-.36,2.7c1.95.29,4.16.21,5.81,1.42v-2.37c-1.18.69-2.05,1.77-3.12,2.6-.9.7-.24,1.97.61,2.29,1.38.53,2.61.71,4.03.18s1.23-2.58-.36-2.7c-4.43-.32-9.08-.16-12.4,3.19-.62.63-.49,1.71.28,2.16,4.32,2.52,9.13-.09,13.66-.28,2.28-.09,4.56.1,6.83-.19,2.43-.31,4.5-1.21,6.41-2.73.75-.59.37-1.71-.28-2.16-6.11-4.25-13.82-3.49-20.82-4.64l.61,2.29c-.25.21.28-.11.22-.09.32-.12.66-.2.99-.27.85-.18,1.71-.26,2.57-.31,2.33-.15,4.68-.11,7.02.04s4.51.38,6.72.86c.85.19,1.73.39,2.52.74.01,0,.47.27.64.36-.05-.03.05.06.09.13.39-.69.79-1.38,1.18-2.06-2.03,0-4-.27-5.97-.78-1.79-.46-3.53-1.15-5.32-1.57-2.93-.7-6.48-.27-9.19-1.7v2.37c1.46-1.04,3.58-.79,5.26-.59,2.08.26,4.13.77,6.17,1.24,1.73.4,3.75.41,5.37,1.12.85.37,1.44,1.26,1.35,2.21-.08.85-.93.94-1.65.97-1.76.09-1.77,2.83,0,2.74,2.98-.15,5.08-2.18,4.18-5.28-.89-3.07-3.73-3.51-6.45-3.98s-5.26-1.25-7.94-1.63c-2.45-.36-5.53-.71-7.67.82-.79.56-.99,1.85,0,2.37,3.01,1.59,6.61,1.21,9.85,1.98,1.93.46,3.79,1.2,5.72,1.68,2.06.51,4.17.78,6.3.78,1.11,0,1.62-1.15,1.18-2.06-.7-1.47-2.85-2-4.28-2.35-2.54-.63-5.19-.91-7.8-1.09s-5.23-.23-7.84-.02c-1.72.14-3.79.27-5.17,1.43-.75.63-.38,2.13.61,2.29,6.71,1.1,14.32.3,20.17,4.36l-.28-2.16c-3.41,2.71-7.66,1.92-11.7,2.14-2.01.11-3.94.61-5.9,1s-4.15.7-5.98-.36c.09.72.19,1.44.28,2.16,2.78-2.8,6.8-2.66,10.46-2.39-.12-.9-.24-1.8-.36-2.7-1.01.38-1.59.2-2.57-.18l.61,2.29c.88-.69,1.59-1.61,2.56-2.17s.81-1.78,0-2.37c-1.88-1.38-4.25-1.37-6.47-1.7l-.36,2.7c1.42-.11,2.83-.14,4.26-.09v-2.74c-3.89.02-7.42.54-10.74,2.69-1.11.72-.72,2.58.69,2.56,6.74-.09,13.44.74,20.04,2.05l-.61-2.29c-1.64,1.44-4.24,1.27-6.27,1.15-2.35-.14-4.7-.52-7.06-.34-5.2.41-10.98,2.68-16.1.84l.82,2.02c.53-.75,1.85-1.26,2.77-1.59,1.64-.58,3.35-.96,5.06-1.25,2.94-.51,6.05-.86,9.03-.62v-2.74c-6.27.02-12.54.73-18.81.34l.69,2.56c3.86-2.56,8.81-2.6,13.01-4.39,1.26-.54.61-2.64-.69-2.56-7.24.47-14.31,2.56-20.91,5.49-1.3.58-.58,2.56.69,2.56,6.42,0,12.82-1.38,19.18-2.1,2.67-.3,5.33-.68,8.02-.83,2.5-.13,5.1-.15,7.45.79-.11-.84-.22-1.67-.33-2.51-2.78,1.4-6.07,1.06-9.08,1.05v2.74c5.85-.06,12.35,1.08,17.9-1.31.99-.43.79-1.89,0-2.37-3.81-2.32-8.29-2.97-12.61-3.72-2.07-.36-4.1-.58-6.2-.67s-4.18-.09-6.14-.81c-1.66-.61-2.38,2.04-.73,2.65h0Z"/>
  <path class="cls-1" d="M473.58,631.01c-.54.21-1.13.3-1.71.39-.08.01-.16.02-.25.04-.06,0-.11.01-.17.02-.01,0,.31-.04.15-.02-.19.02-.38.05-.57.07-.39.05-.78.1-1.18.15-1.44.18-3.19.28-4.44,1.09-.84.54-1.3,1.43-1.05,2.42.17.7,1,1.18,1.69.96s1.14-.94.96-1.69c-.05-.21.01.43.02.15,0-.2-.1.43-.01.17-.13.42-.13.28-.05.15-.25.38-.17.21-.07.12.14-.13-.32.18-.12.1.06-.03.12-.08.18-.11.07-.04.15-.06.21-.1-.32.22-.19.08-.03.02.76-.26,1.57-.39,2.36-.5.06,0,.12-.02.18-.03.15-.02.12-.02-.09.01.09.02.27-.03.36-.05.21-.03.42-.05.64-.08.53-.07,1.06-.13,1.6-.2.71-.1,1.45-.19,2.12-.45s1.2-.93.96-1.69c-.21-.65-.97-1.24-1.69-.96h0Z"/>
  <path class="cls-1" d="M479.72,623.54c-2.4.02-4.74.46-7.03,1.13-2.17.64-4.3,1.38-6.53,1.8-.73.14-1.14,1.01-.96,1.69.21.76.96,1.1,1.69.96,4.33-.83,8.35-2.8,12.83-2.84,1.77-.01,1.77-2.76,0-2.74h0Z"/>
</svg>