<?xml version="1.0" encoding="UTF-8"?>
<svg id="_レイヤー_1" data-name="レイヤー 1" xmlns="http://www.w3.org/2000/svg" viewBox="0 0 841.89 677.21">
  <defs>
    <style>
      .cls-1 {
        fill: #231815;
      }
    </style>
  </defs>
  <rect class="cls-1" x="268.89" y="587.78" width="12.16" height="5.41"/>
  <path class="cls-1" d="M313.53,603.29c.84-.73,1.23-2.12,1.23-4.13v-16.85h-5.41v17.96h-15.4v-17.96h-5.41v16.85c0,2.01.39,3.4,1.17,4.13s2.34,1.12,4.57,1.12h14.62c2.29,0,3.85-.39,4.63-1.12Z"/>
  <polygon class="cls-1" points="347.06 596.98 328.31 582.31 324.63 582.31 324.63 604.4 329.48 604.4 329.48 589.51 348.17 604.4 351.91 604.4 351.91 582.31 347.06 582.31 347.06 596.98"/>
  <path class="cls-1" d="M399,596.03h3.01c1.84,0,3.12-.33,3.96-1s1.23-1.73,1.23-3.24v-5.19c0-1.51-.39-2.62-1.23-3.29s-2.12-1-3.96-1h-19.92v22.09h5.3v-8.37h5.13l9.26,8.37h7.75l-10.54-8.37ZM387.39,592.24v-6.14h12.33c.95,0,1.62.11,1.95.39.33.28.5.73.5,1.39v2.57c0,.67-.17,1.12-.5,1.39-.39.28-1,.39-1.95.39h-12.33Z"/>
  <path class="cls-1" d="M443.02,603.34c.78-.73,1.17-2.12,1.17-4.13v-11.66c0-2.01-.39-3.4-1.17-4.13-.78-.73-2.29-1.12-4.57-1.12h-17.13c-2.29,0-3.79.39-4.57,1.12-.78.73-1.17,2.12-1.17,4.13v11.66c0,2.01.39,3.4,1.17,4.13.78.73,2.29,1.12,4.57,1.12h17.13c2.29,0,3.79-.39,4.57-1.12ZM420.92,600.22v-13.84h17.8v13.84h-17.8Z"/>
  <path class="cls-1" d="M478.28,589.73v-2.12c0-2.01-.33-3.4-1.17-4.13-.84-.73-2.34-1.12-4.63-1.12h-13.84c-2.29,0-3.79.39-4.57,1.12-.78.73-1.17,2.12-1.17,4.13v11.66c0,2.01.45,3.4,1.23,4.13.78.73,2.29,1.12,4.52,1.12h13.84c2.23,0,3.79-.39,4.57-1.12.84-.73,1.23-2.12,1.23-4.13v-2.62l-5.41-1.12v4.69h-14.51v-13.84h14.51v4.13l5.41-.78Z"/>
  <polygon class="cls-1" points="509.41 590.73 492.56 590.73 492.56 582.31 487.15 582.31 487.15 604.4 492.56 604.4 492.56 595.09 509.41 595.09 509.41 604.4 514.82 604.4 514.82 582.31 509.41 582.31 509.41 590.73"/>
  <polygon class="cls-1" points="548.41 586.22 548.41 582.31 524.69 582.31 524.69 604.35 548.68 604.35 548.68 600.22 530.11 600.22 530.11 594.81 540.76 594.81 540.76 591.01 530.11 591.01 530.11 586.22 548.41 586.22"/>
  <path class="cls-1" d="M573.34,596.03h3.01c1.84,0,3.12-.33,3.96-1,.84-.67,1.23-1.73,1.23-3.24v-5.19c0-1.51-.39-2.62-1.23-3.29-.84-.67-2.12-1-3.96-1h-19.92v22.09h5.36v-8.37h5.08l9.26,8.37h7.75l-10.54-8.37ZM561.74,592.24v-6.14h12.33c.95,0,1.62.11,1.95.39.33.28.5.73.5,1.39v2.57c0,.67-.17,1.12-.5,1.39-.39.28-1,.39-1.95.39h-12.33Z"/>
  <rect class="cls-1" x="588.02" y="587.78" width="12.16" height="5.41"/>
  <path class="cls-1" d="M276.26,608.03h-6.14c-1,0-1.67.17-2.01.5-.33.33-.5.95-.5,1.9v5.41c0,.89.17,1.56.5,1.9.33.33,1,.5,2.01.5h6.14c1,0,1.67-.17,2.01-.5.39-.33.56-.95.56-1.9v-1.23l-2.4-.5v2.23h-6.47v-6.53h6.47v1.95l2.4-.39v-.95c0-.89-.22-1.56-.56-1.9-.33-.33-1-.5-2.01-.5Z"/>
  <polygon class="cls-1" points="286.3 609.81 284.24 609.81 284.24 618.24 292.88 618.24 292.88 616.68 286.3 616.68 286.3 609.81"/>
  <rect class="cls-1" x="296.4" y="609.81" width="2.06" height="8.42"/>
  <polygon class="cls-1" points="309.12 614.84 304.99 609.81 303.37 609.81 303.37 618.24 305.1 618.24 305.1 612.6 308.9 617.23 309.29 617.23 313.02 612.44 313.02 618.24 314.92 618.24 314.92 609.81 313.25 609.81 309.12 614.84"/>
  <path class="cls-1" d="M327.98,613.89c.45-.11.84-.28,1.06-.5.28-.28.39-.56.39-.95v-1c0-.56-.11-.95-.45-1.23-.28-.28-.78-.39-1.51-.39h-7.59v8.37h6.97c.84,0,1.51-.11,1.95-.39.45-.28.67-.67.67-1.23v-1.06c0-.45-.11-.78-.39-1.06-.28-.28-.67-.5-1.12-.56ZM321.9,611.21h4.57c.39,0,.61.06.73.22.11.06.17.22.17.45v.78c0,.22-.06.33-.17.45-.11.06-.39.11-.73.11h-4.57v-2.01ZM327.47,616.01c0,.28-.11.45-.22.56s-.39.17-.78.17h-4.57v-2.18h4.57c.39,0,.61.06.78.17.17.11.22.33.22.61v.67Z"/>
  <rect class="cls-1" x="334.17" y="609.81" width="2.06" height="8.42"/>
  <polygon class="cls-1" points="349.68 615.39 342.54 609.81 341.14 609.81 341.14 618.24 342.98 618.24 342.98 612.55 350.13 618.24 351.52 618.24 351.52 609.81 349.68 609.81 349.68 615.39"/>
  <path class="cls-1" d="M364.63,609.76h-6.08c-.84,0-1.45.17-1.73.45-.28.28-.45.78-.45,1.56v4.46c0,.78.17,1.28.45,1.56.28.33.89.45,1.73.45h6.08c.84,0,1.45-.17,1.73-.45.28-.28.45-.78.45-1.56v-2.9h-5.36v1.51h3.35v1.79h-6.42v-5.24h6.42v.84l2.01-.33v-.22c0-.73-.17-1.23-.45-1.51-.28-.28-.89-.39-1.73-.39Z"/>
  <path class="cls-1" d="M393.31,613.5l-1.34-1.17-2.4,2.01-4.85-4.02v-.73h3.35v1.39l1.84-.33v-.61c0-.78-.22-1.34-.56-1.62-.33-.28-1-.45-2.01-.45h-2.06c-.95,0-1.62.17-2.01.45-.39.28-.56.78-.56,1.45v.56c0,.28.11.56.22.78.17.28.39.5.67.78l-2.06,1.23c-.56.33-.89.61-1.06.89-.17.28-.22.61-.22,1.06v.67c0,.89.22,1.56.56,1.9.39.33,1.06.5,2.06.5v-.06h3.63c.56,0,.95,0,1.17-.11.22-.11.5-.28.78-.5l.89-.84,1.67,1.45h3.12l-3.24-2.73,2.4-1.95ZM387.06,616.45h-4.74v-1.79l2.62-1.62,3.07,2.57-.95.84Z"/>
  <path class="cls-1" d="M416.13,608.03h-6.14c-1,0-1.67.17-2.01.5-.33.33-.5.95-.5,1.9v5.41c0,.89.17,1.56.5,1.9.33.33,1,.5,2.01.5h6.14c1,0,1.67-.17,2.01-.5.39-.33.56-.95.56-1.9v-1.23l-2.4-.5v2.23h-6.47v-6.53h6.47v1.95l2.4-.39v-.95c0-.89-.22-1.56-.56-1.9-.33-.33-1-.5-2.01-.5Z"/>
  <path class="cls-1" d="M427.84,609.81l-5.02,8.42h2.06l1.06-1.84h5.58l1.06,1.84h2.29l-5.08-8.42h-1.95ZM426.78,614.84l1.9-3.51,1.95,3.51h-3.85Z"/>
  <polygon class="cls-1" points="438.16 618.18 440.23 618.18 440.23 615.06 443.91 615.06 443.91 613.5 440.23 613.5 440.23 611.32 447.09 611.32 447.09 609.81 438.16 609.81 438.16 618.18"/>
  <polygon class="cls-1" points="452.33 614.61 456.41 614.61 456.41 613.16 452.33 613.16 452.33 611.32 459.31 611.32 459.31 609.81 450.27 609.81 450.27 618.24 459.42 618.24 459.42 616.68 452.33 616.68 452.33 614.61"/>
  <polygon class="cls-1" points="481.9 615.67 479.56 609.81 478.16 609.81 475.77 615.67 473.53 609.81 471.36 609.81 474.76 618.24 476.21 618.24 478.67 612.27 481.12 618.24 482.52 618.24 485.92 609.81 484.08 609.81 481.9 615.67"/>
  <path class="cls-1" d="M493.17,609.81l-5.02,8.42h2.01l1.06-1.84h5.58l1.06,1.84h2.34l-5.08-8.42h-1.95ZM492.11,614.84l1.9-3.51,1.95,3.51h-3.85Z"/>
  <path class="cls-1" d="M511.08,615.06c.67,0,1.23-.17,1.51-.39.28-.22.45-.67.45-1.23v-2.01c0-.56-.11-.95-.45-1.23-.33-.28-.84-.39-1.51-.39h-7.59v8.42h2.01v-3.18h1.95l3.51,3.18h2.96l-4.02-3.18h1.17ZM505.5,613.61v-2.34h4.69c.33,0,.61.06.73.22.17.06.22.28.22.5v.95c0,.22-.11.39-.22.5-.11.11-.39.17-.73.17h-4.69Z"/>
  <polygon class="cls-1" points="519.67 614.61 523.75 614.61 523.75 613.16 519.67 613.16 519.67 611.32 526.65 611.32 526.65 609.81 517.61 609.81 517.61 618.24 526.76 618.24 526.76 616.68 519.67 616.68 519.67 614.61"/>
  <polygon class="cls-1" points="539.42 612.99 533.01 612.99 533.01 609.81 530.94 609.81 530.94 618.24 533.01 618.24 533.01 614.67 539.42 614.67 539.42 618.24 541.49 618.24 541.49 609.81 539.42 609.81 539.42 612.99"/>
  <path class="cls-1" d="M554.93,609.81h-6.53c-.84,0-1.45.17-1.73.45-.28.28-.45.78-.45,1.56v4.46c0,.78.17,1.28.45,1.56.28.33.89.45,1.73.45h6.53c.84,0,1.45-.17,1.73-.45.28-.28.45-.78.45-1.56v-4.46c0-.78-.17-1.28-.45-1.56-.28-.33-.84-.45-1.73-.45ZM555.1,616.62h-6.81v-5.24h6.81v5.24Z"/>
  <path class="cls-1" d="M569.77,616.68h-5.86v-6.86h-2.01v6.42c0,.78.17,1.28.45,1.56.28.33.89.45,1.73.45h5.58c.84,0,1.39-.17,1.73-.45.28-.28.45-.78.45-1.56v-6.42h-2.06v6.86Z"/>
  <path class="cls-1" d="M584.22,613.11h-5.47v-1.79h5.75v.89l1.79-.39v-.22c0-.73-.17-1.17-.45-1.45-.28-.28-.89-.39-1.73-.39h-5.02c-.84,0-1.45.17-1.73.45-.28.28-.45.78-.45,1.56v.95c0,.78.17,1.28.45,1.56.28.28.89.45,1.73.45h5.47v1.95h-6.19v-1l-1.84.33v.22c0,.78.11,1.28.45,1.56.33.33.89.45,1.79.45h5.47c.84,0,1.45-.17,1.73-.45.28-.28.45-.78.45-1.56v-1.17c0-.78-.17-1.28-.45-1.56-.28-.28-.89-.39-1.73-.39Z"/>
  <polygon class="cls-1" points="593.26 614.61 597.33 614.61 597.33 613.16 593.26 613.16 593.26 611.32 600.23 611.32 600.23 609.81 591.2 609.81 591.2 618.24 600.35 618.24 600.35 616.68 593.26 616.68 593.26 614.61"/>
  <path class="cls-1" d="M736.08,58.91l-85.65,85.65c-7.21,7.21-16.99,11.26-27.19,11.26h-221.69c-10.2,0-19.98,4.05-27.19,11.26L62.4,479.04l43.41,43.41,68.53-68.53h106.81c10.99,0,21.53,4.37,29.3,12.14l42.05,42.05h-110.32c-10.99,0-21.53,4.37-29.3,12.14l-54.64,54.64,43.41,43.41,36.66-36.66c7.77-7.77,18.31-12.14,29.3-12.14h129.12c10.99,0,21.53-4.37,29.3-12.14l31.28-31.27,99.63-100.22,43.41-43.41-43.41-43.41-40.7,40.7c-1.67-4.54-2.55-9.38-2.55-14.3v-148.23h134.99c10.2,0,19.98-4.05,27.19-11.26l103.63-103.63-43.41-43.41ZM452.28,411.36l-11.6-11.6c-7.77-7.77-12.14-18.31-12.14-29.3v-88.5h-61.39v113.93c0,10.99,4.37,21.53,12.14,29.3l45.75,45.75-11.44,11.44-77.72-77.72c-7.77-7.77-18.31-12.14-29.3-12.14h-70.85l164.05-164.05c7.21-7.21,16.99-11.26,27.19-11.26h25.31v194.15Z"/>
</svg>