<?xml version="1.0" encoding="UTF-8"?>
<svg id="_レイヤー_1" data-name="レイヤー 1" xmlns="http://www.w3.org/2000/svg" viewBox="0 0 393.28 423.85">
  <defs>
    <style>
      .cls-1 {
        fill: #231815;
      }
    </style>
  </defs>
  <rect class="cls-1" x="70.6" y="228.52" width="9.48" height="4.22" transform="translate(-141.01 120.83) rotate(-45)"/>
  <path class="cls-1" d="M90.51,229.57c.83-.03,1.91-.68,3.14-1.91l8.05-8.05c1.26-1.26,1.91-2.34,1.94-3.17.06-.86-.49-1.84-1.6-2.95l-9.28-9.28-2.98,2.98,9.9,9.9-8.48,8.48-9.9-9.9-2.98,2.98,9.28,9.28c1.11,1.11,2.09,1.66,2.92,1.63Z"/>
  <polygon class="cls-1" points="113.04 208.27 104.84 200.06 123.34 197.97 125.4 195.91 113.23 183.74 110.55 186.41 118.64 194.5 100.22 196.74 98.2 198.77 110.37 210.94 113.04 208.27"/>
  <path class="cls-1" d="M140.34,171.75l2.83-2.83,9.71-.49,4.27-4.27-10.42,1.2,1.66-1.66c1.01-1.01,1.54-1.91,1.63-2.74.09-.83-.28-1.63-1.11-2.46l-2.86-2.86c-.83-.83-1.66-1.23-2.49-1.14-.83.09-1.72.61-2.74,1.63l-10.97,10.97,12.17,12.17,2.92-2.92-4.61-4.61ZM134.87,166.28l6.79-6.79c.52-.52.95-.83,1.29-.86.34-.03.68.12,1.04.49l1.41,1.41c.37.37.52.71.49,1.05-.06.37-.34.77-.86,1.29l-6.79,6.79-3.38-3.38Z"/>
  <path class="cls-1" d="M157.61,157.98c1.11,1.11,2.09,1.66,2.92,1.63.83-.03,1.88-.65,3.14-1.91l9.44-9.44c1.26-1.26,1.88-2.31,1.91-3.14s-.52-1.81-1.63-2.92l-6.42-6.42c-1.11-1.11-2.09-1.66-2.92-1.63-.83.03-1.88.65-3.14,1.91l-9.44,9.44c-1.26,1.26-1.87,2.31-1.91,3.14s.52,1.81,1.63,2.92l6.42,6.42ZM163.3,138.16l7.62,7.62-9.81,9.81-7.62-7.62,9.81-9.81Z"/>
  <path class="cls-1" d="M178.21,137.45c1.11,1.11,2.12,1.63,2.95,1.6.83-.03,1.87-.65,3.1-1.88l7.62-7.62c1.23-1.23,1.87-2.31,1.91-3.14.06-.86-.49-1.84-1.6-2.95l-1.44-1.44-3.6,2.37,2.58,2.58-7.99,7.99-7.62-7.62,7.99-7.99,2.27,2.27,2.55-3.41-1.17-1.17c-1.11-1.11-2.06-1.69-2.92-1.63s-1.91.68-3.17,1.94l-7.62,7.62c-1.26,1.26-1.88,2.31-1.91,3.14s.52,1.81,1.63,2.92l6.42,6.42Z"/>
  <polygon class="cls-1" points="202.89 118.42 197.75 113.29 207.04 104.01 212.17 109.14 215.15 106.16 202.98 93.99 200 96.97 204.64 101.61 195.36 110.89 190.72 106.25 187.73 109.23 199.91 121.41 202.89 118.42"/>
  <polygon class="cls-1" points="233.78 87.47 231.5 85.2 221.27 95.43 218.29 92.45 224.16 86.58 222.07 84.49 216.2 90.36 213.55 87.72 223.63 77.64 221.48 75.48 208.42 88.55 220.56 100.69 233.78 87.47"/>
  <path class="cls-1" d="M241.03,80.28l-4.61-4.61,2.8-2.8,9.71-.49,4.27-4.27-10.42,1.2,1.66-1.66c1.01-1.01,1.54-1.91,1.63-2.74.09-.83-.28-1.63-1.11-2.46l-2.86-2.86c-.83-.83-1.66-1.23-2.49-1.14-.83.09-1.72.61-2.74,1.63l-10.97,10.97,12.17,12.17,2.95-2.95ZM230.92,70.23l6.79-6.79c.52-.52.95-.83,1.29-.86.34-.03.68.12,1.04.49l1.41,1.41c.37.37.52.71.49,1.05-.06.37-.34.77-.86,1.29l-6.79,6.79-3.38-3.38Z"/>
  <rect class="cls-1" x="246.42" y="52.71" width="9.48" height="4.22" transform="translate(34.81 193.66) rotate(-45)"/>
  <path class="cls-1" d="M90.76,241.8l-1.6,1.05,1.23,1.23-3.57,3.57-3.6-3.6,3.57-3.57,1.08,1.08,1.11-1.54-.52-.52c-.49-.49-.98-.74-1.35-.74s-.83.28-1.38.83l-3.38,3.38c-.55.55-.83,1.01-.83,1.38s.25.8.77,1.32l2.98,2.98c.49.49.95.77,1.32.77.37,0,.83-.28,1.38-.83l3.38-3.38c.55-.55.83-1.01.83-1.38.03-.4-.22-.83-.74-1.35l-.68-.68Z"/>
  <polygon class="cls-1" points="96.01 238.82 92.23 235.04 91.1 236.18 95.74 240.82 100.5 236.06 99.64 235.19 96.01 238.82"/>
  <rect class="cls-1" x="99.88" y="227.95" width="1.61" height="6.56" transform="translate(-134.01 138.92) rotate(-45)"/>
  <polygon class="cls-1" points="107.08 220.2 107.57 225.24 102.53 224.74 101.64 225.64 106.28 230.28 107.23 229.32 104.13 226.22 108.77 226.68 108.99 226.47 108.4 221.76 111.6 224.96 112.64 223.91 108 219.27 107.08 220.2"/>
  <path class="cls-1" d="M119.16,214.39c-.25-.25-.49-.37-.8-.37s-.65.09-.92.31c.18-.31.31-.61.31-.86,0-.31-.09-.52-.31-.74l-.55-.55c-.31-.31-.58-.46-.92-.43-.31,0-.65.22-1.04.61l-4.18,4.18,4.61,4.61,3.84-3.84c.46-.46.77-.89.86-1.29.09-.4,0-.74-.31-1.05l-.58-.58ZM112.61,216.2l2.52-2.52c.22-.22.37-.31.52-.28.09-.03.22.03.34.15l.43.43c.12.12.15.22.15.34-.03.09-.15.28-.34.46l-2.52,2.52-1.11-1.11ZM118.18,216.72l-2.52,2.52-1.2-1.2,2.52-2.52c.22-.22.37-.31.52-.34.15-.03.31.06.46.22l.37.37c.15.15.18.31.18.43s-.12.31-.34.52Z"/>
  <polygon class="cls-1" points="115.38 221.18 115.35 221.15 115.35 221.15 115.38 221.18"/>
  <rect class="cls-1" x="120.69" y="207.14" width="1.61" height="6.56" transform="translate(-113.21 147.54) rotate(-45)"/>
  <polygon class="cls-1" points="127.15 200.12 130.22 203.2 123.22 204.06 122.45 204.83 127.09 209.47 128.1 208.45 124.97 205.32 132.04 204.52 132.81 203.75 128.17 199.11 127.15 200.12"/>
  <path class="cls-1" d="M138.52,192.62l-2.95,2.95.83.83,1.84-1.84.98.98-3.53,3.53-2.89-2.89,3.53-3.53.46.46.92-1.29-.12-.12c-.4-.4-.77-.58-1.08-.58s-.71.28-1.17.74l-3.35,3.35c-.46.46-.71.89-.71,1.2s.18.68.61,1.11l2.46,2.46c.43.43.8.61,1.11.61.34.03.74-.25,1.2-.71l3.35-3.35c.46-.46.71-.89.71-1.2s-.18-.68-.61-1.11l-1.6-1.6Z"/>
  <path class="cls-1" d="M152.63,183.74c.06-.18.12-.43.15-.71l.03-.95,1.72-.12,1.72-1.72-3.29.28.25-2.4-1.38.09-.22,2.43-4.89.46-.4-.4,1.84-1.84.77.77.83-1.2-.34-.34c-.43-.43-.86-.61-1.2-.58-.34.03-.8.31-1.35.86l-1.14,1.14c-.52.52-.8.98-.86,1.35-.06.37.12.74.49,1.11l.31.31c.15.15.37.25.55.31.25.06.49.06.8.06l-.46,1.81c-.12.49-.15.83-.09,1.08.06.25.22.46.46.71l.37.37c.49.49.98.74,1.35.74.4-.03.86-.31,1.41-.86l-.03-.03,2-2c.31-.31.52-.52.58-.71ZM151.4,183.19l-2.61,2.61-.98-.98.55-2.34,3.1-.28-.06.98Z"/>
  <path class="cls-1" d="M164.93,164.5l1.11-1.54-.52-.52c-.49-.49-.98-.74-1.35-.74s-.83.28-1.38.83l-3.38,3.38c-.55.55-.83,1.01-.83,1.38s.25.8.77,1.32l2.98,2.98c.49.49.95.77,1.32.77s.83-.28,1.38-.83l3.38-3.38c.55-.55.83-1.01.83-1.38.03-.4-.22-.83-.74-1.35l-.68-.68-1.6,1.05,1.23,1.23-3.57,3.57-3.6-3.6,3.57-3.57,1.08,1.08Z"/>
  <path class="cls-1" d="M177.47,159.09l1.26-1.26-7.44-1.84-1.08,1.08,1.88,7.41,1.14-1.14-.43-1.6,3.07-3.07,1.6.43ZM172.4,160.41l-.89-2.98,3.01.86-2.12,2.12Z"/>
  <polygon class="cls-1" points="181.09 150.24 179.07 152.27 177.87 151.07 181.65 147.29 180.82 146.46 175.9 151.37 180.54 156.02 180.51 155.99 181.65 154.85 179.93 153.13 181.96 151.1 181.09 150.24"/>
  <polygon class="cls-1" points="187.55 139.73 182.57 144.7 187.21 149.35 192.25 144.3 191.39 143.44 187.49 147.35 186.35 146.21 188.59 143.97 187.8 143.17 185.55 145.41 184.54 144.4 188.38 140.55 187.55 139.73"/>
  <polygon class="cls-1" points="204.98 131.58 202.21 125.06 201.2 126.08 203.23 130.5 198.71 128.57 197.94 129.34 199.84 133.88 195.39 131.89 194.19 133.09 200.7 135.85 201.5 135.05 199.57 130.41 204.21 132.35 204.98 131.58"/>
  <path class="cls-1" d="M213.43,123.13l1.29-1.29-7.44-1.84-1.08,1.08,1.88,7.41,1.11-1.11-.43-1.6,3.07-3.07,1.6.43ZM208.39,124.42l-.89-2.98,3.01.86-2.12,2.12Z"/>
  <path class="cls-1" d="M220.65,115.9l1.63-1.63-3.96.46.65-.65c.37-.37.58-.77.61-1.05.03-.28-.12-.61-.43-.92l-1.11-1.11c-.31-.31-.58-.46-.92-.43-.34.03-.68.25-1.04.61l-4.18,4.18,4.64,4.64,1.11-1.11-1.75-1.75,1.08-1.08,3.69-.18ZM215.09,116.36l-1.29-1.29,2.58-2.58c.18-.18.37-.31.52-.28.12-.06.28.03.4.15l.52.52c.12.12.15.28.15.4s-.12.31-.31.49l-2.58,2.58Z"/>
  <polygon class="cls-1" points="229.35 107.2 228.49 106.34 224.59 110.25 223.45 109.11 225.69 106.87 224.9 106.07 222.65 108.31 221.64 107.3 225.48 103.46 224.65 102.63 219.67 107.6 224.31 112.25 229.35 107.2"/>
  <polygon class="cls-1" points="236.33 100.23 237.47 99.09 232.83 94.45 231.69 95.59 233.44 97.34 229.91 100.87 228.15 99.12 227.02 100.26 231.66 104.9 232.79 103.76 230.83 101.8 234.36 98.26 236.33 100.23"/>
  <path class="cls-1" d="M240.11,96.02c.34.03.74-.25,1.2-.71l3.6-3.6c.46-.46.71-.89.71-1.2s-.18-.68-.61-1.11l-2.46-2.46c-.43-.43-.8-.61-1.11-.61-.34-.03-.71.22-1.2.71l-3.6,3.6c-.46.46-.71.89-.71,1.2s.18.68.61,1.11l2.46,2.46c.43.43.8.61,1.11.61ZM241.19,87.81l2.89,2.89-3.75,3.75-2.89-2.89,3.75-3.75Z"/>
  <path class="cls-1" d="M248.72,87.35c.34.03.74-.25,1.2-.71l3.07-3.07c.46-.46.68-.86.71-1.2,0-.31-.18-.68-.61-1.11l-3.53-3.53-1.14,1.14,3.78,3.78-3.23,3.23-3.78-3.78-1.11,1.11,3.53,3.53c.43.43.8.61,1.11.61Z"/>
  <path class="cls-1" d="M252.8,74.9c0,.31.18.68.61,1.11l.52.52c.43.43.8.61,1.11.61s.74-.25,1.2-.71l3.01-3.01,1.08,1.08-3.41,3.41-.55-.55-.83,1.2.12.12c.43.43.77.65,1.11.61.37,0,.74-.25,1.23-.74l3.01-3.01c.46-.46.71-.89.71-1.2s-.18-.68-.61-1.11l-.65-.65c-.43-.43-.8-.61-1.11-.61s-.71.28-1.17.74l-3.01,3.01-.98-.98,3.2-3.2-.03.03.49.49.77-1.2-.12-.12c-.4-.4-.74-.55-1.05-.55s-.71.28-1.17.74l-2.77,2.77c-.46.46-.71.89-.71,1.2Z"/>
  <polygon class="cls-1" points="269.89 66.66 269.03 65.8 265.13 69.71 263.99 68.57 266.24 66.32 265.44 65.53 263.19 67.77 262.18 66.75 266.02 62.91 265.19 62.08 260.21 67.06 264.85 71.7 269.89 66.66"/>
  <polygon class="cls-1" points="322.78 119.55 322.78 119.55 311.49 108.25 278.75 108.25 278.75 124.23 295.51 124.23 256.66 163.08 267.96 174.37 306.81 135.52 306.81 152.29 322.78 152.29 322.78 119.55 322.78 119.55"/>
  <path class="cls-1" d="M239.65,202.98v-.3l10.79-10.79-11.3-11.3-10.94,10.94-29.13-29.13,83.28-83.28-11.3-11.3-115.69,115.69c-1.88,1.88-2.93,4.42-2.93,7.08v123.73h15.97v-21.63l36.16-36.16c1.22-1.22,2.83-1.96,4.54-2.11v119.45h5.59v-119.49h8.96s.01,0,.01,0h2.24v-.03h2.84c6.03,0,10.91-4.88,10.91-10.91v-17.88l6.55,6.55c.81.81,1.27,1.91,1.27,3.06v19.22h15.97v-25.83c0-1.15-.46-2.25-1.27-3.06l-22.52-22.52ZM203.95,238.42c-2.47,0-4.84.98-6.58,2.73l-28.96,28.96v-46.72s19,0,19,0c3.34,0,6.55,1.33,8.91,3.69l11.34,11.34h-3.72ZM223.67,231.84l-20.73-20.73c-2.36-2.36-5.57-3.69-8.91-3.69h-25.62s0-10.2,0-10.2c0-2.65,1.05-5.2,2.93-7.08l16.44-16.44,33.42,33.42c1.59,1.59,2.48,3.75,2.48,6v18.73Z"/>
</svg>