<?xml version="1.0" encoding="UTF-8"?>
<svg id="_レイヤー_1" data-name="レイヤー 1" xmlns="http://www.w3.org/2000/svg" viewBox="0 0 396.71 211.18">
  <defs>
    <style>
      .cls-1 {
        fill: #231815;
      }
    </style>
  </defs>
  <g>
    <path class="cls-1" d="M62.91,17.65c3.2,2.74,7.04,4.75,11.49,6.03,4.46,1.28,9.71,2.05,15.74,2.33v6.97c-5.62-.14-11.39-1.03-17.31-2.68-5.92-1.65-10.67-3.84-14.25-6.58-3.58,2.79-8.25,4.99-14.04,6.62-5.78,1.63-11.48,2.51-17.1,2.65v-6.97c5.99-.28,11.16-1.04,15.5-2.3,4.34-1.25,8.12-3.27,11.32-6.06h8.64ZM54.97,29.14h7.66v6.97h27.51v26.82h-55.38v11.84h18.46v6.97h-25.77v-45.63h27.51v-6.97ZM34.77,55.96h48.06v-12.89h-48.06v12.89ZM58.8,66.06h7.31v8.71h24.03v6.97h-31.35v-15.67Z"/>
    <path class="cls-1" d="M96.42,46.55h6.97v-10.1h6.97v45.28h-6.97v-10.1h-6.97v-6.62h6.97v-11.84h-6.97v-6.62ZM132.36,17.65v3.83h27.45v6.62h-54.68v5.57h-7.31v-12.19h26.54v-3.83h8.01ZM113.83,31.72h45.97v17.69h-45.97v-6.41h39.01v-4.88h-39.01v-6.41ZM159.81,59.65h-45.97v-6.41h45.97v6.41ZM159.81,63.62c-.14,1.58-.42,2.93-.84,4.04-1.11,3.07-3.26,5.63-6.44,7.7-3.18,2.07-7.91,3.65-14.18,4.74-6.27,1.09-14.44,1.64-24.52,1.64v-6.41c10.03,0,17.83-.43,23.41-1.29,5.57-.86,9.57-2.19,11.98-4h-35.39v-6.41h45.97Z"/>
    <path class="cls-1" d="M206.72,26.67c2.72,1.83,5.89,3.15,9.51,3.94,3.62.79,8.03,1.37,13.23,1.74v6.48c-8.13-.56-14.65-1.73-19.57-3.52-4.92-1.79-8.92-4.38-11.98-7.77-4.97,6.78-15.35,10.54-31.14,11.28v-6.48c5.67-.23,10.54-.85,14.63-1.85,4.09-1,7.31-2.73,9.68-5.19h-24.31v-6.27h33.85c1.35,3.25,3.38,5.79,6.1,7.63ZM229.47,47.74h-62.69v-6.48h62.69v6.48ZM166.77,51.57h62.69v18.32h-11.84v5.22h11.84v6.62h-62.69v-6.62h11.56v-5.22h-11.56v-18.32ZM173.39,63.41h49.46v-5.36h-49.46v5.36ZM185.86,75.11h24.24v-5.22h-24.24v5.22ZM207.17,25.31v-6.27h22.29v6.27h-22.29Z"/>
    <path class="cls-1" d="M236.08,19.04h20.55v6.62h-13.58v12.54h6.62v-9.4h6.97v26.82h-3.48v26.12h-6.97v-26.12h-10.1v-6.62h13.58v-4.18h-13.58v-25.77ZM242.7,81.73h-6.62v-22.29h6.62v22.29ZM285.82,64.66c1.16,1.63,3.06,3.27,5.71,4.95,2.65,1.67,5.41,2.9,8.29,3.69v7.38c-3.67-1.3-6.99-3.01-9.96-5.12-2.97-2.11-5.32-4.28-7.04-6.51v12.68h-6.76v-12.68c-1.67,2.23-3.96,4.41-6.86,6.55-2.9,2.14-6.17,3.83-9.79,5.08v-7.38c2.83-.79,5.53-2.02,8.08-3.69,2.55-1.67,4.41-3.32,5.57-4.95h-13.3v-6.27h39.71v6.27h-13.65ZM260.12,36.11v-17.07h39.36v17.07h-39.36ZM260.12,55.26v-16.02h17.76v16.02h-17.76ZM271.96,49.69v-4.88h-5.92v4.88h5.92ZM292.51,29.84v-4.53h-25.43v4.53h25.43ZM299.47,39.24v16.02h-18.11v-16.02h18.11ZM287.28,44.81v4.88h6.27v-4.88h-6.27Z"/>
    <path class="cls-1" d="M321.07,74.9h48.06v6.83h-63.74v-6.83h8.36v-33.79h-8.01v-6.76h15.33v40.54ZM305.74,19.04h15.33v6.76h-15.33v-6.76ZM369.13,19.04v6.9h-35.88v8.43h35.53v3.48c0,7.2-1.03,13.15-3.1,17.87-2.07,4.71-5.34,8.35-9.82,10.9-4.48,2.55-10.39,4.13-17.73,4.74v-6.97c7.85-.93,13.58-3.25,17.21-6.97,3.62-3.71,5.57-9.1,5.85-16.16h-27.93v30.09h-7.31V19.04h43.19Z"/>
    <path class="cls-1" d="M30.24,99.49v-7.31h57.12v30.65h-25.77v25.08h-31.35v-7.31h23.47v-25.08h25.77v-16.02H30.24Z"/>
    <path class="cls-1" d="M148.31,140.59v-49.46h8.01v56.77h-55.73v-7.31h47.72ZM128.46,99.49h-27.86v-7.31h27.86v7.31Z"/>
    <path class="cls-1" d="M295.64,147.91h-55.73v-7.45h47.72v-49.32h8.01v56.77ZM268.13,99.63h-28.21v-7.45h28.21v7.45ZM268.13,121.92h-28.21v-7.45h28.21v7.45Z"/>
    <path class="cls-1" d="M357.78,108.69v6.97h-16.58v25.29h16.58v6.97h-40.68v-6.97h16.37v-25.29h-16.37v-6.97h40.68Z"/>
  </g>
  <g>
    <g>
      <path class="cls-1" d="M31.23,166.86v-5.45h12.33v5.45h-12.33Z"/>
      <path class="cls-1" d="M56.58,155.85v18.19h15.58v-18.19h5.5v17.08c0,2.03-.41,3.43-1.23,4.17-.82.75-2.37,1.12-4.66,1.12h-14.81c-2.27,0-3.81-.37-4.61-1.11-.8-.74-1.2-2.14-1.2-4.19v-17.08h5.43Z"/>
      <path class="cls-1" d="M87.61,178.23v-22.38h3.75l18.99,14.86v-14.86h4.94v22.38h-3.77l-18.94-15.09v15.09h-4.96Z"/>
      <path class="cls-1" d="M145.78,178.23v-22.38h20.16c1.84,0,3.18.34,4.01,1.02.83.68,1.24,1.79,1.24,3.32v5.27c0,1.52-.41,2.61-1.24,3.28s-2.16,1.01-4.01,1.01h-3.07l10.65,8.48h-7.83l-9.38-8.48h-5.14v8.48h-5.38ZM163.61,159.7h-12.46v6.2h12.46c.95,0,1.6-.14,1.95-.41.35-.28.53-.74.53-1.4v-2.58c0-.65-.18-1.12-.53-1.39-.35-.28-1-.41-1.95-.41Z"/>
      <path class="cls-1" d="M179.63,161.12c0-2.03.4-3.42,1.19-4.16.79-.74,2.33-1.11,4.62-1.11h17.31c2.31,0,3.85.37,4.64,1.11.78.74,1.18,2.13,1.18,4.16v11.81c0,2.05-.4,3.45-1.2,4.19-.8.74-2.34,1.11-4.61,1.11h-17.31c-2.29,0-3.83-.37-4.62-1.11-.79-.74-1.19-2.14-1.19-4.19v-11.81ZM185.09,173.94h18.04v-13.98h-18.04v13.98Z"/>
      <path class="cls-1" d="M237.62,159.96h-14.7v13.98h14.7v-4.75l5.5,1.11v2.63c0,2.03-.41,3.43-1.21,4.17-.81.75-2.36,1.12-4.65,1.12h-13.98c-2.26,0-3.79-.37-4.6-1.11s-1.21-2.14-1.21-4.19v-11.81c0-2.03.4-3.42,1.2-4.16s2.34-1.11,4.61-1.11h13.98c2.31,0,3.86.37,4.67,1.11.8.74,1.2,2.13,1.2,4.16v2.17l-5.5.8v-4.13Z"/>
      <path class="cls-1" d="M252.09,178.23v-22.38h5.5v8.5h17.03v-8.5h5.45v22.38h-5.45v-9.43h-17.03v9.43h-5.5Z"/>
      <path class="cls-1" d="M290.08,178.23v-22.38h24.01v3.95h-18.5v4.88h10.78v3.85h-10.78v5.5h18.79v4.19h-24.29Z"/>
      <path class="cls-1" d="M322.25,178.23v-22.38h20.16c1.84,0,3.18.34,4.01,1.02.83.68,1.24,1.79,1.24,3.32v5.27c0,1.52-.41,2.61-1.24,3.28s-2.16,1.01-4.01,1.01h-3.07l10.65,8.48h-7.83l-9.38-8.48h-5.14v8.48h-5.38ZM340.09,159.7h-12.46v6.2h12.46c.95,0,1.6-.14,1.95-.41.35-.28.53-.74.53-1.4v-2.58c0-.65-.18-1.12-.53-1.39-.35-.28-1-.41-1.95-.41Z"/>
      <path class="cls-1" d="M354.19,166.86v-5.45h12.33v5.45h-12.33Z"/>
    </g>
    <g>
      <path class="cls-1" d="M38.85,183.67h-6.53v6.59h6.53v-2.24l2.42.5v1.23c0,.95-.18,1.6-.54,1.94-.36.35-1.04.52-2.04.52h-6.21c-1.01,0-1.69-.17-2.05-.52-.35-.34-.53-.99-.53-1.94v-5.48c0-.95.18-1.59.53-1.94.35-.35,1.04-.52,2.05-.52h6.21c1,0,1.68.17,2.04.52.36.35.54.99.54,1.94v.98l-2.42.38v-1.97Z"/>
      <path class="cls-1" d="M46.71,192.21v-8.53h2.1v6.93h6.68v1.6h-8.78Z"/>
      <path class="cls-1" d="M59.05,192.21v-8.53h2.07v8.53h-2.07Z"/>
      <path class="cls-1" d="M66.12,192.21v-8.53h1.66l4.17,5.06,4.15-5.06h1.67v8.53h-1.93v-5.87l-3.81,4.84h-.4l-3.86-4.71v5.73h-1.66Z"/>
      <path class="cls-1" d="M82.8,192.21v-8.53h7.66c.71,0,1.23.13,1.55.39.31.26.47.68.47,1.26v1.03c0,.39-.12.71-.37.96-.25.25-.61.42-1.08.5.48.08.85.26,1.12.54.27.29.4.65.4,1.08v1.09c0,.56-.22.98-.66,1.26-.44.28-1.1.42-1.99.42h-7.09ZM89.5,185.07h-4.66v2.02h4.66c.36,0,.61-.05.74-.14s.2-.25.2-.47v-.81c0-.22-.06-.38-.19-.47-.13-.09-.38-.13-.74-.13ZM89.5,188.5h-4.66v2.18h4.66c.39,0,.66-.05.8-.17.14-.11.21-.31.21-.59v-.65c0-.28-.07-.48-.21-.6-.14-.12-.41-.17-.8-.17Z"/>
      <path class="cls-1" d="M97.26,192.21v-8.53h2.07v8.53h-2.07Z"/>
      <path class="cls-1" d="M104.34,192.21v-8.53h1.43l7.24,5.66v-5.66h1.88v8.53h-1.44l-7.22-5.75v5.75h-1.89Z"/>
      <path class="cls-1" d="M128.26,185.25h-6.49v5.33h6.49v-1.81h-3.39v-1.52h5.42v2.94c0,.78-.15,1.31-.46,1.6-.31.28-.89.42-1.76.42h-6.17c-.87,0-1.45-.14-1.76-.42-.31-.28-.46-.81-.46-1.6v-4.5c0-.78.15-1.3.46-1.59.3-.28.89-.42,1.76-.42h6.17c.86,0,1.44.14,1.75.41.31.28.46.78.46,1.5v.23l-2.04.35v-.92Z"/>
      <path class="cls-1" d="M146.6,192.21c-1.02,0-1.71-.17-2.07-.52-.36-.35-.54-1-.54-1.94v-.68c0-.45.08-.81.23-1.06s.51-.55,1.06-.88l2.12-1.27c-.31-.26-.53-.52-.67-.76-.14-.25-.21-.52-.21-.81v-.58c0-.69.19-1.18.57-1.47.38-.29,1.05-.43,2.01-.43h2.1c1,0,1.69.15,2.05.45.36.3.54.85.54,1.64v.63l-1.88.31v-1.39h-3.41v.75l4.9,4.08,2.41-2.02,1.38,1.19-2.4,1.99,3.29,2.77h-3.17l-1.71-1.45-.93.83c-.28.24-.54.4-.78.49-.25.09-.64.13-1.18.13h-3.7ZM146.02,190.4h4.82l.96-.83-3.12-2.6-2.67,1.64v1.78Z"/>
      <path class="cls-1" d="M180.41,183.67h-6.53v6.59h6.53v-2.24l2.42.5v1.23c0,.95-.18,1.6-.54,1.94-.36.35-1.04.52-2.04.52h-6.21c-1.01,0-1.69-.17-2.05-.52-.35-.34-.53-.99-.53-1.94v-5.48c0-.95.18-1.59.53-1.94.35-.35,1.04-.52,2.05-.52h6.21c1,0,1.68.17,2.04.52.36.35.54.99.54,1.94v.98l-2.42.38v-1.97Z"/>
      <path class="cls-1" d="M186.98,192.21l5.06-8.53h2l5.14,8.53h-2.33l-1.07-1.87h-5.64l-1.07,1.87h-2.08ZM191.01,188.79h3.91l-1.99-3.55-1.92,3.55Z"/>
      <path class="cls-1" d="M202.51,192.21v-8.53h9.05v1.53h-6.95v2.22h3.74v1.59h-3.74v3.19h-2.1Z"/>
      <path class="cls-1" d="M214.8,192.21v-8.53h9.15v1.51h-7.05v1.86h4.11v1.47h-4.11v2.1h7.16v1.6h-9.25Z"/>
      <path class="cls-1" d="M239.58,192.21l-3.47-8.53h2.18l2.23,5.95,2.4-5.95h1.43l2.38,5.95,2.2-5.95h1.88l-3.43,8.53h-1.42l-2.46-6.03-2.5,6.03h-1.43Z"/>
      <path class="cls-1" d="M253.11,192.21l5.06-8.53h2l5.14,8.53h-2.33l-1.07-1.87h-5.64l-1.07,1.87h-2.08ZM257.14,188.79h3.91l-1.99-3.55-1.92,3.55Z"/>
      <path class="cls-1" d="M268.64,192.21v-8.53h7.68c.7,0,1.21.13,1.53.39.31.26.47.68.47,1.26v2.01c0,.58-.16.99-.47,1.25-.32.26-.82.38-1.53.38h-1.17l4.06,3.23h-2.98l-3.57-3.23h-1.96v3.23h-2.05ZM275.43,185.15h-4.75v2.36h4.75c.36,0,.61-.05.74-.16.13-.11.2-.28.2-.53v-.99c0-.25-.07-.43-.2-.53-.13-.1-.38-.16-.74-.16Z"/>
      <path class="cls-1" d="M282.95,192.21v-8.53h9.15v1.51h-7.05v1.86h4.11v1.47h-4.11v2.1h7.16v1.6h-9.25Z"/>
      <path class="cls-1" d="M296.42,192.21v-8.53h2.1v3.24h6.49v-3.24h2.08v8.53h-2.08v-3.59h-6.49v3.59h-2.1Z"/>
      <path class="cls-1" d="M311.89,185.69c0-.78.15-1.3.45-1.59.3-.28.89-.42,1.76-.42h6.6c.88,0,1.47.14,1.77.42.3.28.45.81.45,1.59v4.5c0,.78-.15,1.31-.46,1.6-.3.28-.89.42-1.76.42h-6.6c-.87,0-1.46-.14-1.76-.42-.3-.28-.45-.81-.45-1.6v-4.5ZM313.97,190.58h6.87v-5.33h-6.87v5.33Z"/>
      <path class="cls-1" d="M329.79,183.69v6.93h5.94v-6.93h2.1v6.51c0,.78-.16,1.3-.47,1.59-.31.29-.9.43-1.78.43h-5.64c-.87,0-1.45-.14-1.76-.42-.3-.28-.46-.81-.46-1.6v-6.51h2.07Z"/>
      <path class="cls-1" d="M350.7,185.21h-5.87v1.8h5.55c.87,0,1.46.14,1.76.42.3.28.45.81.45,1.59v1.17c0,.78-.15,1.31-.46,1.6-.31.28-.89.42-1.75.42h-5.53c-.88,0-1.47-.14-1.79-.42-.31-.28-.47-.81-.47-1.6v-.24l1.85-.34v1h6.27v-1.95h-5.52c-.87,0-1.46-.14-1.77-.43-.31-.29-.46-.82-.46-1.59v-.96c0-.77.15-1.29.46-1.58.31-.29.9-.43,1.77-.43h5.06c.86,0,1.45.13,1.77.41.32.27.48.75.48,1.44v.21l-1.8.38v-.92Z"/>
      <path class="cls-1" d="M357.4,192.21v-8.53h9.15v1.51h-7.05v1.86h4.11v1.47h-4.11v2.1h7.16v1.6h-9.25Z"/>
    </g>
  </g>
  <g>
    <polygon class="cls-1" points="175.89 96.78 190.46 96.78 190.46 100.52 205.12 93.19 190.46 85.85 190.46 89.6 168.71 89.6 168.71 148.64 185.05 148.64 185.05 141.46 175.89 141.46 175.89 96.78"/>
    <polygon class="cls-1" points="226.87 89.6 210.54 89.6 210.54 96.78 219.69 96.78 219.69 141.46 205.12 141.46 205.12 137.72 190.46 145.05 205.12 152.38 205.12 148.64 226.87 148.64 226.87 89.6"/>
  </g>
</svg>