<?xml version="1.0" encoding="UTF-8"?>
<svg id="_レイヤー_1" data-name="レイヤー 1" xmlns="http://www.w3.org/2000/svg" viewBox="0 0 841.89 492.34">
  <defs>
    <style>
      .cls-1 {
        fill: #231815;
      }
    </style>
  </defs>
  <g>
    <path class="cls-1" d="M52.88,408.52v-11.98h27.08v11.98h-27.08Z"/>
    <path class="cls-1" d="M108.57,384.34v39.97h34.23v-39.97h12.09v37.53c0,4.47-.9,7.52-2.7,9.17-1.8,1.65-5.21,2.47-10.25,2.47h-32.53c-5,0-8.37-.81-10.13-2.44-1.76-1.63-2.64-4.69-2.64-9.2v-37.53h11.92Z"/>
    <path class="cls-1" d="M176.76,433.5v-49.16h8.23l41.73,32.64v-32.64h10.84v49.16h-8.29l-41.61-33.15v33.15h-10.9Z"/>
    <path class="cls-1" d="M304.54,433.5v-49.16h44.28c4.05,0,6.98.75,8.8,2.24s2.73,3.93,2.73,7.29v11.58c0,3.33-.91,5.73-2.73,7.21-1.82,1.48-4.75,2.21-8.8,2.21h-6.76l23.39,18.62h-17.2l-20.61-18.62h-11.3v18.62h-11.81ZM343.72,392.8h-27.36v13.62h27.36c2.08,0,3.51-.3,4.29-.91.78-.61,1.16-1.63,1.16-3.07v-5.68c0-1.44-.39-2.46-1.16-3.07-.78-.6-2.21-.91-4.29-.91Z"/>
    <path class="cls-1" d="M378.91,395.92c0-4.46.87-7.51,2.61-9.14,1.74-1.63,5.13-2.44,10.16-2.44h38.04c5.07,0,8.47.81,10.19,2.44,1.72,1.63,2.58,4.67,2.58,9.14v25.94c0,4.5-.88,7.57-2.64,9.2-1.76,1.63-5.14,2.44-10.13,2.44h-38.04c-5.03,0-8.42-.81-10.16-2.44-1.74-1.63-2.61-4.69-2.61-9.2v-25.94ZM390.89,424.08h39.62v-30.71h-39.62v30.71Z"/>
    <path class="cls-1" d="M506.3,393.36h-32.3v30.71h32.3v-10.45l12.09,2.44v5.79c0,4.47-.89,7.52-2.67,9.17-1.78,1.65-5.19,2.47-10.22,2.47h-30.71c-4.96,0-8.33-.81-10.11-2.44-1.78-1.63-2.67-4.69-2.67-9.2v-25.94c0-4.46.88-7.51,2.64-9.14,1.76-1.63,5.14-2.44,10.13-2.44h30.71c5.07,0,8.49.81,10.25,2.44,1.76,1.63,2.64,4.67,2.64,9.14v4.77l-12.09,1.76v-9.08Z"/>
    <path class="cls-1" d="M538.1,433.5v-49.16h12.09v18.68h37.41v-18.68h11.98v49.16h-11.98v-20.72h-37.41v20.72h-12.09Z"/>
    <path class="cls-1" d="M621.55,433.5v-49.16h52.74v8.69h-40.65v10.73h23.67v8.46h-23.67v12.09h41.27v9.2h-53.36Z"/>
    <path class="cls-1" d="M692.23,433.5v-49.16h44.28c4.05,0,6.98.75,8.8,2.24s2.73,3.93,2.73,7.29v11.58c0,3.33-.91,5.73-2.73,7.21-1.82,1.48-4.75,2.21-8.8,2.21h-6.76l23.39,18.62h-17.2l-20.61-18.62h-11.3v18.62h-11.81ZM731.4,392.8h-27.36v13.62h27.36c2.08,0,3.51-.3,4.29-.91.78-.61,1.16-1.63,1.16-3.07v-5.68c0-1.44-.39-2.46-1.16-3.07-.78-.6-2.21-.91-4.29-.91Z"/>
    <path class="cls-1" d="M762.39,408.52v-11.98h27.08v11.98h-27.08Z"/>
  </g>
  <g>
    <path class="cls-1" d="M69.62,445.45h-14.34v14.47h14.34v-4.91l5.32,1.1v2.7c0,2.09-.39,3.51-1.18,4.27-.79.76-2.28,1.14-4.49,1.14h-13.65c-2.22,0-3.72-.38-4.5-1.14-.78-.76-1.17-2.18-1.17-4.27v-12.05c0-2.08.39-3.5,1.17-4.26.78-.76,2.28-1.15,4.5-1.15h13.65c2.21,0,3.7.38,4.49,1.15.79.76,1.18,2.18,1.18,4.26v2.16l-5.32.84v-4.33Z"/>
    <path class="cls-1" d="M86.89,464.22v-18.73h4.61v15.23h14.68v3.5h-19.29Z"/>
    <path class="cls-1" d="M113.99,464.22v-18.73h4.54v18.73h-4.54Z"/>
    <path class="cls-1" d="M129.54,464.22v-18.73h3.66l9.17,11.12,9.13-11.12h3.68v18.73h-4.24v-12.89l-8.37,10.64h-.89l-8.48-10.34v12.59h-3.66Z"/>
    <path class="cls-1" d="M166.17,464.22v-18.73h16.83c1.57,0,2.7.29,3.4.85.69.57,1.04,1.5,1.04,2.78v2.25c0,.85-.27,1.55-.82,2.1s-1.34.92-2.38,1.1c1.05.17,1.87.57,2.45,1.2s.88,1.42.88,2.37v2.4c0,1.23-.48,2.14-1.45,2.76-.97.61-2.42.92-4.37.92h-15.57ZM180.9,448.54h-10.23v4.43h10.23c.79,0,1.33-.1,1.62-.3s.43-.55.43-1.04v-1.77c0-.49-.14-.83-.42-1.03-.28-.2-.83-.29-1.63-.29ZM180.9,456.07h-10.23v4.78h10.23c.87,0,1.45-.12,1.76-.37.31-.25.46-.68.46-1.3v-1.43c0-.62-.16-1.06-.46-1.31-.31-.25-.9-.38-1.76-.38Z"/>
    <path class="cls-1" d="M197.94,464.22v-18.73h4.54v18.73h-4.54Z"/>
    <path class="cls-1" d="M213.49,464.22v-18.73h3.14l15.9,12.44v-12.44h4.13v18.73h-3.16l-15.85-12.63v12.63h-4.15Z"/>
    <path class="cls-1" d="M266.04,448.93h-14.25v11.7h14.25v-3.98h-7.44v-3.33h11.92v6.47c0,1.72-.33,2.88-1.01,3.5-.67.62-1.96.93-3.86.93h-13.56c-1.9,0-3.19-.31-3.86-.93s-1.01-1.79-1.01-3.5v-9.88c0-1.7.33-2.86,1.01-3.48.67-.62,1.96-.93,3.86-.93h13.56c1.89,0,3.17.3,3.85.91s1.02,1.7,1.02,3.29v.5l-4.48.76v-2.01Z"/>
    <path class="cls-1" d="M306.33,464.22c-2.24,0-3.75-.38-4.54-1.15-.79-.76-1.19-2.18-1.19-4.26v-1.49c0-.99.17-1.77.51-2.34.34-.56,1.11-1.2,2.33-1.92l4.65-2.79c-.68-.58-1.17-1.13-1.48-1.68-.31-.54-.47-1.14-.47-1.78v-1.28c0-1.51.42-2.59,1.25-3.22.84-.63,2.31-.95,4.41-.95h4.61c2.21,0,3.71.33,4.5,1,.79.66,1.19,1.87,1.19,3.61v1.38l-4.13.69v-3.05h-7.48v1.64l10.77,8.95,5.3-4.43,3.03,2.62-5.28,4.37,7.22,6.08h-6.96l-3.76-3.18-2.03,1.82c-.61.52-1.18.88-1.72,1.07-.54.19-1.4.29-2.58.29h-8.13ZM305.07,460.24h10.6l2.12-1.82-6.86-5.71-5.86,3.61v3.91Z"/>
    <path class="cls-1" d="M380.61,445.45h-14.34v14.47h14.34v-4.91l5.32,1.1v2.7c0,2.09-.39,3.51-1.18,4.27-.79.76-2.28,1.14-4.49,1.14h-13.65c-2.22,0-3.72-.38-4.5-1.14-.78-.76-1.17-2.18-1.17-4.27v-12.05c0-2.08.39-3.5,1.17-4.26.78-.76,2.28-1.15,4.5-1.15h13.65c2.21,0,3.7.38,4.49,1.15.79.76,1.18,2.18,1.18,4.26v2.16l-5.32.84v-4.33Z"/>
    <path class="cls-1" d="M395.03,464.22l11.12-18.73h4.39l11.29,18.73h-5.13l-2.36-4.11h-12.39l-2.36,4.11h-4.56ZM403.9,456.69h8.59l-4.37-7.81-4.22,7.81Z"/>
    <path class="cls-1" d="M429.16,464.22v-18.73h19.88v3.35h-15.27v4.89h8.22v3.48h-8.22v7.01h-4.61Z"/>
    <path class="cls-1" d="M456.17,464.22v-18.73h20.09v3.31h-15.48v4.09h9.02v3.22h-9.02v4.61h15.72v3.5h-20.33Z"/>
    <path class="cls-1" d="M510.6,464.22l-7.61-18.73h4.78l4.91,13.06,5.28-13.06h3.14l5.23,13.06,4.82-13.06h4.13l-7.53,18.73h-3.11l-5.41-13.24-5.49,13.24h-3.14Z"/>
    <path class="cls-1" d="M540.31,464.22l11.12-18.73h4.39l11.29,18.73h-5.13l-2.36-4.11h-12.39l-2.36,4.11h-4.56ZM549.18,456.69h8.59l-4.37-7.81-4.22,7.81Z"/>
    <path class="cls-1" d="M574.44,464.22v-18.73h16.87c1.54,0,2.66.29,3.35.85.69.57,1.04,1.5,1.04,2.78v4.41c0,1.27-.35,2.18-1.04,2.75-.69.56-1.81.84-3.35.84h-2.57l8.91,7.09h-6.55l-7.85-7.09h-4.3v7.09h-4.5ZM589.36,448.71h-10.42v5.19h10.42c.79,0,1.34-.12,1.63-.35.3-.23.44-.62.44-1.17v-2.16c0-.55-.15-.94-.44-1.17-.29-.23-.84-.35-1.63-.35Z"/>
    <path class="cls-1" d="M605.88,464.22v-18.73h20.09v3.31h-15.48v4.09h9.02v3.22h-9.02v4.61h15.72v3.5h-20.33Z"/>
    <path class="cls-1" d="M635.47,464.22v-18.73h4.61v7.12h14.25v-7.12h4.56v18.73h-4.56v-7.89h-14.25v7.89h-4.61Z"/>
    <path class="cls-1" d="M669.46,449.9c0-1.7.33-2.86,1-3.48.66-.62,1.95-.93,3.87-.93h14.49c1.93,0,3.23.31,3.88.93.66.62.98,1.78.98,3.48v9.88c0,1.72-.33,2.88-1,3.5-.67.62-1.96.93-3.86.93h-14.49c-1.92,0-3.21-.31-3.87-.93s-1-1.79-1-3.5v-9.88ZM674.03,460.63h15.1v-11.7h-15.1v11.7Z"/>
    <path class="cls-1" d="M708.78,445.49v15.23h13.04v-15.23h4.61v14.3c0,1.7-.34,2.87-1.03,3.49-.69.63-1.99.94-3.9.94h-12.39c-1.9,0-3.19-.31-3.86-.93-.67-.62-1.01-1.79-1.01-3.5v-14.3h4.54Z"/>
    <path class="cls-1" d="M754.71,448.84h-12.89v3.96h12.2c1.92,0,3.21.31,3.87.92s1,1.78,1,3.49v2.57c0,1.72-.34,2.88-1.02,3.5s-1.96.93-3.85.93h-12.16c-1.93,0-3.24-.31-3.92-.93-.69-.62-1.03-1.79-1.03-3.5v-.52l4.07-.76v2.21h13.78v-4.28h-12.13c-1.92,0-3.22-.31-3.89-.94s-1.02-1.79-1.02-3.49v-2.1c0-1.69.34-2.84,1.02-3.47.68-.63,1.98-.94,3.89-.94h11.12c1.89,0,3.18.3,3.88.9.7.6,1.05,1.65,1.05,3.17v.45l-3.96.84v-2.01Z"/>
    <path class="cls-1" d="M769.44,464.22v-18.73h20.09v3.31h-15.48v4.09h9.02v3.22h-9.02v4.61h15.72v3.5h-20.33Z"/>
  </g>
  <g>
    <path class="cls-1" d="M707.73,158.15c-.68-.7-1.61-1.07-2.68-1.07h-36.4c-5.19,0-9.4-4.22-9.4-9.41,0-1.24.24-2.45.71-3.59l.21-.4c.1-.19.21-.37.31-.54,2.53-4.02,8.91-15.63,11.12-19.67l8.62,5.28-6.01-25.59-25.65,6.61,8.73,5.62-12.36,22.25-.07.15c-1.33,3.18-2,6.56-2,10.04,0,13.22,9.89,24.35,23.01,25.89h.13s1.28.05,4.27.05h34.32c2.48,0,4.35-1.77,4.35-4.11v-8.2c0-.21.02-2.05-1.2-3.3Z"/>
    <path class="cls-1" d="M777.56,137.19l-.06-.12s-.61-1.13-2.1-3.72h0c-1.62-2.81-16.33-28.28-17.16-29.72-.62-1.08-1.57-1.84-2.68-2.14-1.03-.27-2.12-.13-3.06.42l-7.1,4.1c-.18.1-1.79,1.01-2.26,2.69-.27.94-.12,1.93.41,2.85,1.23,2.13,18.2,31.52,18.2,31.52,1.26,2.17,1.59,4.71.94,7.13-.65,2.43-2.21,4.45-4.38,5.71-1.08.62-2.24,1.02-3.47,1.18l-.46.02c-.2.01-.41.01-.62,0-4.75-.17-17.99.1-22.59.21l.26-10.11-19.16,18,18.55,18.9.51-10.37,25.44-.42h.17c3.42-.45,6.68-1.55,9.7-3.3,11.45-6.61,16.14-20.74,10.91-32.87Z"/>
    <path class="cls-1" d="M718.54,68.08l.23.37c.12.18.23.37.33.56,2.21,4.2,9.08,15.53,11.47,19.46l-8.88,4.83,25.16,7.58,7.1-25.52-9.23,4.74-13.09-21.83-.09-.14c-2.08-2.74-4.67-5.01-7.7-6.76-11.45-6.61-26.03-3.61-33.92,6.98l-.07.1s-.7,1.13-2.18,3.69h0c-1.59,2.75-15.7,27.21-17.08,29.59l-.07.12c-.59,1.02-.79,2.17-.55,3.23.25,1.1.94,2.02,1.93,2.6l7.09,4.1c.14.09,1.23.73,2.54.73.3,0,.61-.03.92-.11.95-.24,1.74-.86,2.27-1.78,1.23-2.13,18.2-31.52,18.2-31.52,1.26-2.18,3.28-3.73,5.71-4.38,2.43-.65,4.96-.31,7.14.94,1.07.62,2,1.43,2.76,2.41Z"/>
  </g>
  <g>
    <path class="cls-1" d="M631.07,220.15h24.77v15.96h-16.38v30.23h7.98v-22.67h8.4v64.66h-4.2v62.98h-8.4v-62.98h-12.18v-15.96h16.38v-10.08h-16.38v-62.14ZM639.05,371.3h-7.98v-53.74h7.98v53.74ZM691.03,330.15c1.4,3.92,3.7,7.89,6.89,11.92,3.19,4.03,6.52,7,9.99,8.9v17.8c-4.42-3.14-8.43-7.25-12.01-12.34-3.58-5.09-6.41-10.33-8.48-15.7v30.57h-8.15v-30.57c-2.02,5.37-4.77,10.64-8.27,15.79-3.5,5.15-7.43,9.24-11.8,12.26v-17.8c3.41-1.9,6.66-4.87,9.74-8.9,3.08-4.03,5.32-8,6.72-11.92h-16.04v-15.12h47.86v15.12h-16.46ZM660.04,261.29v-41.15h47.44v41.15h-47.44ZM660.04,307.48v-38.63h21.41v38.63h-21.41ZM674.32,294.04v-11.76h-7.14v11.76h7.14ZM699.09,246.18v-10.92h-30.65v10.92h30.65ZM707.49,268.85v38.63h-21.83v-38.63h21.83ZM692.79,282.29v11.76h7.56v-11.76h-7.56Z"/>
    <path class="cls-1" d="M733.52,354.84h57.94v16.46h-76.83v-16.46h10.08v-81.45h-9.66v-16.29h18.47v97.75ZM715.04,220.15h18.47v16.29h-18.47v-16.29ZM791.46,220.15v16.63h-43.25v20.32h42.83v8.4c0,17.36-1.25,31.72-3.74,43.08-2.49,11.37-6.44,20.13-11.84,26.28-5.4,6.16-12.53,9.97-21.37,11.42v-16.79c9.46-2.24,16.38-7.84,20.74-16.79,4.37-8.96,6.72-21.94,7.05-38.96h-33.67v72.55h-8.82v-126.13h52.06Z"/>
  </g>
  <path class="cls-1" d="M775.45,203.87h-128.36c-13.6,0-24.67-11.07-24.67-24.67V50.83c0-13.6,11.07-24.67,24.67-24.67h128.36c13.6,0,24.67,11.07,24.67,24.67v128.37c0,13.6-11.07,24.67-24.67,24.67ZM647.08,35.99c-8.18,0-14.84,6.66-14.84,14.84v128.37c0,8.18,6.66,14.84,14.84,14.84h128.36c8.18,0,14.84-6.66,14.84-14.84V50.83c0-8.18-6.66-14.84-14.84-14.84h-128.36Z"/>
  <path class="cls-1" d="M245.52,286.49h16.79v-24.35h16.79v109.17h-16.79v-24.35h-16.79v-15.95h16.79v-28.55h-16.79v-15.95ZM332.18,216.79v9.24h66.17v15.95h-131.84v13.44h-17.63v-29.39h63.99v-9.24h19.31ZM287.51,250.71h110.84v42.66h-110.84v-15.45h94.05v-11.76h-94.05v-15.45ZM398.35,318.06h-110.84v-15.45h110.84v15.45ZM398.35,327.63c-.34,3.81-1.01,7.05-2.02,9.74-2.69,7.39-7.87,13.58-15.54,18.56-7.67,4.98-19.06,8.79-34.18,11.42-15.12,2.63-34.82,3.95-59.12,3.95v-15.45c24.18,0,42.99-1.03,56.43-3.11,13.44-2.07,23.06-5.29,28.89-9.66h-85.32v-15.45h110.84Z"/>
  <path class="cls-1" d="M386.96,203.87h-128.37c-13.6,0-24.67-11.07-24.67-24.67V50.83c0-13.6,11.07-24.67,24.67-24.67h128.37c13.6,0,24.67,11.07,24.67,24.67v128.37c0,13.6-11.07,24.67-24.67,24.67ZM258.59,35.99c-8.18,0-14.84,6.66-14.84,14.84v128.37c0,8.18,6.66,14.84,14.84,14.84h128.37c8.18,0,14.84-6.66,14.84-14.84V50.83c0-8.18-6.66-14.84-14.84-14.84h-128.37Z"/>
  <g>
    <path d="M382.29,143.61v-14.14c-1.24-2.58-3.29-3.25-6.1-3.25h-106.84c-2.81,0-4.86.67-6.1,3.25v14.14h119.03Z"/>
    <path d="M382.29,121.62h-78.98s-.1-17.93.06-26.77c.05-2.87,2.23-3.68,4.84-3.68,9.9.03,19.81,0,29.71.01,6.26,0,12.51-.05,18.77.02,12.67.13,25.61,9.62,25.61,21.82,0,.81,0,8.61,0,8.61Z"/>
    <path d="M263.26,103.87c0-9.7,7.82-17.5,17.5-17.46,10.1.05,17.65,7.76,17.61,17.99-.04,9.88-7.8,17.3-17.98,17.21-9.76-.09-17.12-7.72-17.12-17.74Z"/>
  </g>
  <path class="cls-1" d="M537.76,238.54c6.55,4.42,14.19,7.59,22.92,9.49,8.73,1.91,19.37,3.3,31.91,4.2v15.62c-19.59-1.34-35.33-4.17-47.19-8.48-11.87-4.31-21.5-10.55-28.89-18.73-11.98,16.35-37.01,25.42-75.07,27.21v-15.62c13.66-.56,25.42-2.04,35.27-4.45,9.85-2.41,17.63-6.58,23.34-12.51h-58.61v-15.12h81.62c3.25,7.84,8.15,13.97,14.7,18.39ZM592.6,289.34h-151.15v-15.62h151.15v15.62ZM441.45,298.58h151.15v44.17h-28.55v12.6h28.55v15.96h-151.15v-15.96h27.88v-12.6h-27.88v-44.17ZM457.4,327.13h119.24v-12.93h-119.24v12.93ZM487.46,355.34h58.45v-12.6h-58.45v12.6ZM538.85,235.26v-15.12h53.74v15.12h-53.74Z"/>
  <g>
    <path d="M581.2,26.16h-128.36c-13.6,0-24.67,11.07-24.67,24.67v128.37c0,13.6,11.07,24.67,24.67,24.67h128.36c13.6,0,24.67-11.07,24.67-24.67V50.83c0-13.6-11.07-24.67-24.67-24.67ZM503.86,111.63c-3.6,4.56-7.33,9-11.3,13.85-3.91-6.9-7.72-13.62-11.68-20.62,2.85-3.32,5.67-6.86,8.78-10.13,2.18-2.3,2.93-4.82,2.77-7.9-.28-5.32-.3-10.65-.5-16.38-.1-2.84.01-5.79-.6-7.92l38.95,12.03,14.29,38.18c-1.43-.61-3.21-1.08-5.36-1.43-8.54-1.38-16.89-1.96-25.27-3.31-4.25-.69-7.42.26-10.07,3.62ZM547.84,35.99l-17.02,34.17-37.33-11.53,29.49-22.64h24.85ZM596.04,74.21l-46.07,40.52-15.16-40.53,61.23-18.66v18.66ZM488.96,56.6l-21.78-20.61h48.63l-26.85,20.61ZM596.04,80.03v90.05l-43.94-51.4,43.94-38.65ZM596.04,50.83v.15l-59.87,18.25,16.55-33.24h28.48c8.18,0,14.84,6.66,14.84,14.84ZM581.2,194.04h-128.36c-8.18,0-14.84-6.66-14.84-14.84V50.83c0-8.18,6.66-14.84,14.84-14.84h7.99l24.97,23.63c-2.45.63-4.59,2.88-4.85,6.7-.37,5.53-.77,11.06-.97,16.6-.08,2.17-.78,3.66-2.47,5.08-5.56,4.67-11.01,9.48-16.44,14.31-1.11.99-1.97,2.06-2.59,3.19l-.26-.12c-1.86,3.96-10.02,17.38-12.13,21.37-1.49,2.8-1.54,5.43-.56,8.36,1.69,5.05,3.14,10.19,4.86,15.65,1.43,4.54,2.36,9.56,5.89,9.58,3.54.02,6.89-3.26,5.8-8.53-1.12-5.43-2.21-10.86-3.5-16.25-.5-2.11-.23-3.74,1.02-5.56,1.52-2.21,3.01-4.43,4.49-6.66,4.56,7.37,9.19,14.71,14,21.91,3.2,4.78,7.49,7.42,12.6,7.79.2.01.4.01.6.02v.02c3.43.07,6.33-.02,9.18.28.81.09,1.72,1.17,2.23,2,4.26,6.97,8.48,13.96,12.62,21,1.89,3.22,4.83,6.15,8.54,4,3.18-1.84,3.56-5.77.95-12.12-3.29-8-7.17-15.42-10.41-23.27-1.64-3.98-4.11-6.19-8.36-6.69-.3-.04-.6-.08-.9-.11l3.6-6.23c1.85-2.89,3.3-5.4,5.04-7.67.5-.65,1.89-.85,2.87-.85,8.17.02,16.33.08,24.5.24,2.84.06,5.85-.49,7.18-2.64l47.7,55.8v2.39c0,8.18-6.66,14.84-14.84,14.84Z"/>
    <path d="M462.55,95.59c6.21-2.21,9.49-9.37,7.16-15.61-2.39-6.39-9.27-9.63-15.52-7.31-6.28,2.32-9.5,9.33-7.18,15.6,2.34,6.33,9.23,9.57,15.55,7.32Z"/>
  </g>
  <path class="cls-1" d="M138.44,216.79c7.73,6.61,16.96,11.45,27.71,14.53,10.75,3.08,23.4,4.96,37.96,5.63v16.79c-13.55-.34-27.46-2.49-41.74-6.47-14.28-3.97-25.72-9.26-34.34-15.87-8.62,6.72-19.9,12.04-33.84,15.96-13.94,3.92-27.68,6.05-41.23,6.38v-16.79c14.44-.67,26.9-2.52,37.37-5.54,10.47-3.02,19.57-7.89,27.29-14.61h20.83ZM119.29,244.5h18.47v16.79h66.34v64.66H70.59v28.55h44.51v16.79h-62.14v-110.01h66.34v-16.79ZM70.59,309.16h115.88v-31.07h-115.88v31.07ZM128.53,333.51h17.63v20.99h57.94v16.79h-75.58v-37.79Z"/>
  <path class="cls-1" d="M192.71,203.87H64.35c-13.6,0-24.67-11.07-24.67-24.67V50.83c0-13.6,11.07-24.67,24.67-24.67h128.37c13.6,0,24.67,11.07,24.67,24.67v128.37c0,13.6-11.07,24.67-24.67,24.67ZM64.35,35.99c-8.18,0-14.84,6.66-14.84,14.84v128.37c0,8.18,6.66,14.84,14.84,14.84h128.37c8.18,0,14.84-6.66,14.84-14.84V50.83c0-8.18-6.66-14.84-14.84-14.84H64.35Z"/>
  <path d="M89.07,146.18l-3.81-1.72c-.82-.37-1.14-1.43-.7-2.36l29.68-62.83c.42-.9,1.4-1.33,2.2-.97l1.57.71c.8.36,1.12,1.38.73,2.29l-27.44,63.84c-.4.94-1.41,1.41-2.23,1.04Z"/>
  <path d="M73.89,138.27l-3.56-2.19c-.77-.47-.94-1.57-.39-2.43l37.43-58.54c.54-.84,1.56-1.14,2.31-.68l1.47.9c.75.46.94,1.51.43,2.37l-35.34,59.83c-.52.88-1.58,1.22-2.34.75Z"/>
  <g>
    <path d="M102.11,98.24l-20.51,34.73c1.2.8,2.43,1.53,3.71,2.21l17.45-36.94h-.64Z"/>
    <path d="M187.07,98.24c-13.27,0-26.54,0-39.82,0h0s-33.29,0-33.29,0l-17.81,41.42c.19.06.39.13.58.18,3.85,1.18,5.44,2.5,5.27,6.89-.04.94-.07,1.71-.06,2.55,0,.87.71,1.57,1.58,1.57h49.67c.84,0,1.53-.66,1.58-1.49.05-.95.06-1.81-.1-2.63-.84-4.31,1.53-5.71,5.38-6.89,9.95-3.04,18.96-7.79,25.26-16.53,3.92-5.44,6.18-11.89,6.83-18.57.64-6.54,1.19-6.51-5.08-6.51Z"/>
    <path d="M72.76,124.99l17.1-26.75c-6.71,0-13.43,0-20.14,0-3.16,0-5.45,2.57-5.16,5.71.66,7.07,2.68,13.43,6.79,19.19.45.64.93,1.25,1.41,1.84Z"/>
  </g>
</svg>