<?xml version="1.0" encoding="UTF-8"?>
<svg id="_レイヤー_1" data-name="レイヤー 1" xmlns="http://www.w3.org/2000/svg" viewBox="0 0 299.33 81.14">
  <defs>
    <style>
      .cls-1 {
        fill: #9b2033;
      }

      .cls-2 {
        fill: #e3b9a5;
      }

      .cls-3 {
        fill: #fff;
      }

      .cls-4 {
        fill: #714a2c;
      }

      .cls-5 {
        fill: #40210f;
      }

      .cls-6 {
        fill: #c8d7be;
      }

      .cls-7 {
        stroke: #231815;
        stroke-miterlimit: 10;
        stroke-width: .99px;
      }

      .cls-8 {
        fill: #231815;
      }

      .cls-9 {
        fill: #bbbbbd;
      }

      .cls-10 {
        fill: #7ab476;
      }

      .cls-11 {
        fill: #32a6a9;
      }
    </style>
  </defs>
  <g>
    <path class="cls-5" d="M29.86,30.49h-3.3c-.53,4.6-3.76,7.56-9.86,7.56h-5.47v-8.8h4.07c2.08,0,2.43-.56,2.43-2.27v-5.29h11.32c.62,0,1.37-.47,1.37-1.4v-.65H11.24v-8.3h28.17v9.14c0,6.31-3.48,10.01-9.55,10.01Z"/>
    <path class="cls-5" d="M69.26,23.34c-1.4,10.29-7.25,14.65-18.5,14.65h-8.58v-8.77h7.49c8.15,0,9.7-2.43,10.51-6.53,1.49-7.43,3.3-10.29,10.45-11.13v9.98c-.93.25-1.24.9-1.37,1.8ZM42.27,20.6v-8.68h12.87v8.68h-12.87Z"/>
    <path class="cls-5" d="M74.05,38.01V11.49h15.05c9.14,0,11.82,3.08,11.82,10.57v15.95h-26.87ZM92.11,22.06c0-1.34-.75-1.83-1.77-1.83h-7.49v8.92h9.27v-7.09Z"/>
    <path class="cls-5" d="M131.51,24.11c-1,7.96-4.54,13.87-18.6,13.87h-8.37v-8.4h7.31c7.65,0,9.86-2.11,10.82-7.59,1.34-7.56,4.63-10.23,10.17-10.42v9.95c-.9.22-1.09.68-1.34,2.58ZM104.92,18.89v-7.4h12.78v7.4h-12.78ZM104.92,27.44v-7.37h12.78v7.37h-12.78Z"/>
    <path class="cls-5" d="M138.22,37.86v-6.97h7.74v-3.58c0-2.52-.12-3.17-1.15-3.45h-6.37v-6.9h21.99v6.9h-7.62c.56.81.62,1.77.62,2.92v4.1h7.15v6.97h-22.36Z"/>
    <path class="cls-1" d="M28.96,69.14h-4.57v-8.89h4.07c1.03,0,1.43-.44,1.43-1.37v-5.47h-4.23c-.47,8.71-6.03,15.39-14.77,15.74v-9.36c3.58-.22,5.57-2.74,5.82-6.38h-5.66v-8.89h5.69v-2.39h8.96v2.39h13.22v14.74c0,7.37-1.74,9.89-9.95,9.89Z"/>
    <path class="cls-11" d="M57.97,65.56c-3.86,2.27-9.02,3.79-15.89,3.79v-9.14c12.28,0,15.73-6.06,15.73-8.61v-.65h-14.74v-8.27h24.32v6.84c0,2.95-.81,6.34-2.74,9.52,1.8.72,3.76,1,6.09,1v9.05c-7,0-9.27-1.09-12.78-3.51Z"/>
    <path class="cls-8" d="M97.62,62.3c-2.46,4.04-7.31,7.03-16.33,7.03h-6.59v-8.77h6.69c3.2,0,5.44-.22,6.97-1.06-2.02-.12-4.23-.19-5.91-.19v-6.53c2.61,0,5.97.16,8.65.44v-2.05h-8.15c-1.37,2.71-4.29,5.85-9.33,6.47v-10.29c1.68,0,3.14-1.8,3.14-4.07v-.72h23.1v11.69c.81.16,1.52.31,1.9.37v8.65c-.84-.19-2.33-.53-4.14-.96Z"/>
    <path class="cls-2" d="M103.96,68.95v-11.38c0-11.88,6.44-15.55,15.08-16.26v9.11c-4.63.56-5.78,2.8-5.78,7.15v3.3h11.07v-1.21c0-1.18-.34-1.27-2.21-1.27v-8.49c8.21-.16,11.2,2.99,11.2,10.29v8.77h-29.36Z"/>
    <path class="cls-10" d="M186.2,66.37v-1.83c0-1.52-.34-2.27-2.08-3.05l-.9-.4-2.3,2.64c-3.58,4.1-6.97,5.41-10.64,5.41h-3.64v-8.77h1.03c2.8,0,4.54-.84,6.44-2.95l.5-.56-6.78-3.36v-9.76l12.84,6.47,4.07-4.48c2.83-3.11,5.47-4.26,10.14-4.26v9.02c-1.93,0-2.8.47-3.86,1.68l-1.99,2.27.34.16c3.95,1.8,6.16,5.07,6.16,10.2v1.59h-9.33Z"/>
    <path class="cls-4" d="M198.52,59.87v-9.27h26.65v9.27h-26.65Z"/>
    <path class="cls-9" d="M246.62,69.14h-4.57v-8.89h4.07c1.03,0,1.43-.44,1.43-1.37v-5.47h-4.23c-.47,8.71-6.03,15.39-14.77,15.74v-9.36c3.58-.22,5.57-2.74,5.82-6.38h-5.66v-8.89h5.69v-2.39h8.96v2.39h13.22v14.74c0,7.37-1.74,9.89-9.95,9.89Z"/>
    <path class="cls-6" d="M260.7,59.87v-9.27h26.65v9.27h-26.65Z"/>
  </g>
  <g>
    <path class="cls-3" d="M158.48,51.16c.22-.03.48.14.51.4l.18,1.98.75.8,4.61-3.41-1.79-2.53-1.15-1.63c-.58-.79-1.24-1.48-2-2.1-1.36-1.12-2.81-1.89-4.43-2.64-.24,1.72-1.37,3.09-2.92,3.81-1.6.74-3.44.73-5.04-.02-1.53-.72-2.64-2.09-2.88-3.79-1.5.7-2.81,1.39-4.11,2.38-.89.68-1.66,1.46-2.33,2.36l-1.15,1.63-1.79,2.53,4.61,3.42.75-.82.18-1.96c.02-.27.31-.44.54-.4.26.05.41.26.39.55l-1.46,16.67h19.58s-1.46-16.7-1.46-16.7c0-.28.16-.49.42-.52Z"/>
    <path class="cls-3" d="M154,42.68c-.28.79-.82,1.44-1.51,1.91-1.63,1.12-3.83,1.13-5.48.04-.71-.47-1.27-1.13-1.57-1.95.63.2,1.2.33,1.83.42,1.72.23,3.45.22,5.17-.04.53-.09,1-.21,1.56-.38Z"/>
    <path class="cls-7" d="M160.14,55.38c-.28.21-.61-.01-.81-.21l1.19,13.67c-.14.38-.09.29-.41.52h-20.73c-.42,0-.46-.55-.44-.84l1.17-13.35c-.12.11-.24.22-.39.28-.11.04-.32,0-.42-.07l-2.62-1.94-.42-.31-.32-.24-1.8-1.33c-.17-.12-.34-.29-.35-.52,0-.22.16-.4.27-.56l.51-.69,1.63-2.31.32-.46.66-.9.24-.31.28-.34c.25-.3.5-.57.79-.83.27-.24.5-.47.79-.7,1.08-.88,2.27-1.61,3.52-2.23l.33-.16.35-.16.44-.21c.3-.14.62-.3.97-.23.21.04.34.27.38.47.02.1.09.16.17.2.29.11.56.22.86.3.74.19,1.48.31,2.25.36l.56.03c.42.02.84.02,1.26,0l.55-.03c.77-.05,1.53-.16,2.27-.36.3-.08.56-.19.84-.3.09-.03.15-.1.17-.2.05-.2.17-.43.39-.47.35-.07.67.09.97.23l.45.21.34.16.35.17c.89.44,1.74.94,2.56,1.51.44.31.86.61,1.26.98l.48.45c.28.26.54.53.79.83l.27.32.24.31.66.9.32.46,1.63,2.31.52.71c.11.15.27.34.26.54-.01.23-.17.39-.34.51l-5.19,3.84ZM159.17,53.54l.75.8,4.61-3.41-1.79-2.53-1.15-1.63c-.58-.79-1.24-1.48-2-2.1-1.36-1.12-2.81-1.89-4.43-2.64-.24,1.72-1.37,3.09-2.92,3.81s-3.44.73-5.04-.02-2.64-2.09-2.88-3.79c-1.5.7-2.81,1.39-4.11,2.38-.89.68-1.66,1.46-2.33,2.36l-1.15,1.63-1.79,2.53,4.61,3.42.75-.82.18-1.96c.02-.27.31-.44.54-.4.26.05.41.26.39.55l-1.46,16.67h19.58s-1.46-16.7-1.46-16.7c0-.28.16-.49.42-.52.22-.03.48.14.51.4l.18,1.98ZM154,42.68c-.55.17-1.02.29-1.56.38-1.72.26-3.44.27-5.17.04-.63-.09-1.2-.23-1.83-.42.3.82.85,1.48,1.57,1.95,1.65,1.09,3.85,1.08,5.48-.04.69-.47,1.22-1.12,1.51-1.91Z"/>
  </g>
</svg>