<?xml version="1.0" encoding="UTF-8"?>
<svg id="_レイヤー_1" data-name="レイヤー 1" xmlns="http://www.w3.org/2000/svg" viewBox="0 0 484.76 191.55">
  <defs>
    <style>
      .cls-1 {
        fill: #231815;
      }
    </style>
  </defs>
  <path class="cls-1" d="M56.87,80.72h-.07c-1.96,0-3,.03-3.5.26-8.85.49-9.59,1.43-9.59,2.43v1.21l.86,1.29.44-.06c5.97-.82,9.69-1.23,11.05-1.23,1.51,0,3.7.33,6.53.97l.29.06.25-.15c.66-.41,1.33-.92,1.33-1.59v-.74c0-1.07-1.24-1.81-7.58-2.44Z"/>
  <path class="cls-1" d="M108.04,119.45c0-5.09-.67-22.19-1.98-50.78v-.99c0-.85.08-2.24.24-4.15l.07-.77h-.22l.15-.91v-8.04c0-1.12-.06-2.79-.21-5.13.13-.19.22-.46.22-.86-.4-6.36-1.11-7.6-2.19-7.6h-.98l-1.51,1.14.06.41c.32,2.29.56,4.54.72,6.7l-.26.53.28,1.66v5.89c0,4.42-.08,9.08-.25,13.91,1.31,26.08,1.98,42.57,1.98,49.01,0,1.89-.87,3.19-2.64,3.99-1.48-.13-4.09-2.49-5.85-15.97-2.13-16.29-3.97-38.11-5.44-64.81v-1.24c0-1.18-.56-2.08-1.63-2.62l-.15-.07h-.9l-1.48,1.11.02.38c1.64,27.54,3.39,48.64,5.2,62.7,1.54,16.43,4.69,24.42,9.62,24.42,2.92,0,6.53-1.36,7.15-7.89Z"/>
  <path class="cls-1" d="M150.99,123.13c1.22,0,2.08-.62,2.41-1.74l.04-.13-2.24-25.43c-3.61-26.68-5.44-42.31-5.44-46.47,0-2.26.16-4.3.48-6.07l.07-.37-1.46-1.46h-1.27l-1.46,1.1v.35c0,.92-.08,2.99-.25,6.22.16,4.13.42,7.4.75,9.72,2.04,15.86,3.59,28.24,4.62,37-2.93-13.16-7.01-28.43-12.14-45.38-1.06-6.06-2.42-8.76-4.41-8.76-1.73,0-1.95,2.5-1.95,4.67,0,.67.08,1.35.24,2.02-.02.06-.06.18-.16.39l-.08.17v.19c.17,3,.26,4.9.26,5.66,0,3.36-.33,13.35-.99,29.74.33,15.23.99,28.39,1.98,39.12l-.29,2.56,1.5,1.13h.24c1.53,0,2.15-.79,2.4-1.45l.05-.12v-.68c-.99-12.03-1.66-25.77-1.98-40.79.53-13.55.84-22.58.95-27.41,1.07,4.04,2.44,8.46,4.09,13.18,4.28,17.85,7.2,29.61,8.66,34.9,3.58,18.16,4.55,18.16,5.4,18.16Z"/>
  <path class="cls-1" d="M218.72,109.54v8.92c0,1.67.08,4.18.25,7.47l.02.33,1.45,1.08h1.19l1.26-.84-.03-.41c-.16-2.69-.25-4.76-.25-6.15v-9.47c-1.11-14.78-5.1-23.52-11.87-26,5.74-5.04,8.65-12.85,8.65-23.24v-2.48c0-3.38-1.4-8.42-4.26-15.38l-.05-.09c-2.05-3.46-4.75-5.9-8.02-7.23l-.15-.04c-3.25-.53-3.9-1.07-4.02-1.22l-.21-.27h-1.08l-1.51,1.13.05.41c1.3,10.04,2.38,26.41,3.19,48.65-.39.18-.8.54-1.14,1.22l-.08.15v1.06l.06.14c.3.68.79,1.13,1.43,1.32v14.25c0,2.26.17,6.92.49,13.84l-.28,1.99.21.24c.77.88,1.28,1.23,1.77,1.23.65,0,1.55-.24,2.12-1.38l.08-.15v-.66c0-1.09-.16-5.64-.5-13.87v-9.41c0-1.61-.07-3.96-.21-7.19,1.67.19,3.64,1.34,5.88,3.42,3.68,6.35,5.55,12.62,5.55,18.63ZM207.19,82.19c-.79-16.82-1.66-31.2-2.6-42.78.84.01,2.48.63,5.6,3.45,3.52,6.55,5.31,11.98,5.31,16.15v3.47c0,8.83-2.79,15.45-8.31,19.71Z"/>
  <path class="cls-1" d="M254.95,124.79c2.41-3.7,3.58-14.93,3.58-34.32,0-12.19-.84-24.56-2.48-36.76l-.03-.12c-2.43-7.64-3.96-8.67-5.13-8.67h-2.24l-4.67,3.84v.33c0,.36.06.7.18,1.01-3.08,7.75-4.64,16.74-4.64,26.73v4.73c.33,10.16.66,18.08.99,23.57,1.33,14.94,4.4,22.2,9.38,22.2h.99c1.26,0,2.57-.81,4.06-2.55ZM251.93,53.26c1.79,10.68,2.7,23.19,2.7,37.21v.5c0,29.32-2.97,32.48-4.25,32.48s-3.55-1.53-5.24-11.77c-.78-6.09-1.44-17.64-1.98-34.33l.49-7.12c1.74-14.97,4.25-19.92,6.14-21.37.24.27.86,1.2,2.13,4.39Z"/>
  <path class="cls-1" d="M298.08,126.24c3.94-2.51,5.78-4.51,5.78-6.29v-.66l-.08-.15c-.14-.28-.57-1.13-1.38-1.13h-1.09l-.21.27c-2.69,3.44-5.17,5.18-7.34,5.18-1.71-.07-3.8-1.17-6.2-3.25-2-2.59-3.61-7.63-4.77-15-1.96-10.23-2.96-19.1-2.96-26.37v-4.21c0-10.73,1.64-19.29,4.87-25.43l.08-.15v-.18c0-.21.27-1.37,5.6-3.25.98.04,1.9.6,2.8,1.72l.21.26h1.53l.17-.11c.65-.41,1.32-.92,1.32-1.59,0-1.99-1.7-3.31-5.04-3.92h-1.86c-.52-.01-1.61.18-5.01,1.79l-.12.08c-5.39,4.1-8.16,14.41-8.45,31.53v1.49c0,8.19.42,14.16,1.25,17.68,2.23,16.86,4.83,26.25,7.91,28.68,2.78,2.44,5.5,3.83,8.15,4.14h.25c1.37,0,2.88-.35,4.49-1.05l.1-.05Z"/>
  <path class="cls-1" d="M337.73,125.33v-.31l-.02-.15c-.86-4.04-1.75-11.72-2.65-22.84-1.76-16.12-2.66-32.74-2.66-49.4,0-2.26.08-5.56.25-9.82v-.07s0-.07,0-.07c-.31-1.77-.84-3.81-2.25-3.81h-.8l-1.52,1.16v.35c0,.83.17,1.68.49,2.54-.16,4.81-.24,7.97-.24,9.41,0,12.65.36,23.53,1.05,32.26v.39c-2.04.13-3.6.2-4.62.2h-3.25c.05-4.17.48-12.24,1.29-24.08-.16-5.94-.25-10.06-.25-12.24,0-.77.08-2.72.24-5.88-.15-1.76-.48-3.56-1.76-3.56h-1.03l-1.58,1.11.04.41c.2,1.93.24,2.47.24,2.59,0,1.65-.08,3.33-.24,5.01v.07s.24,2.66.24,2.66c0,.47-.08,1.05-.23,1.7l-.03.12v.12c.17,1.55.26,2.88.26,3.95v.76c-.86,15.2-1.57,32.32-2.11,50.9.17,8.47.25,13.51.25,15.41,0,2.72,1.61,3.12,2.57,3.12h.23l1.62-1.17-.02-.39c-.37-5.87-.56-11.15-.56-15.69,0-3.43.18-10.44.53-20.84h1.98c1.42,0,3.68-.08,6.73-.22.05,2.38.48,7.32,1.3,15.04,1.4,22.71,3.07,22.71,4.17,22.71h.96l.14-.07c.3-.14,1.22-.56,1.22-1.39Z"/>
  <path class="cls-1" d="M370.24,124.65v-.7l-.11-.17c-.41-.65-.92-1.32-1.59-1.32h-.78v-.08l-10.12,1.07-.03-4.25c0-5.91.49-16.83,1.44-32.48,3.81.03,6.95.27,9.36.73l.22.04.2-.09c.98-.43,1.5-.9,1.64-1.47l.02-.9-1.08-1.43-.32-.03c-6.93-.58-9.08-.97-9.75-1.17.04-2.98.54-11.41,1.48-25.13,0-5.38-.21-9.7-.62-12.85l2.18.18c3.77-.17,6.03-.25,6.91-.25h.17l.15-.07c.28-.14,1.14-.57,1.14-1.38v-1.21l-.83-1.24h-.38c-1.17,0-3.37.08-6.69.25-2.01,0-3.84-.32-5.44-.94l-.33-.13-.3.19c-.65.41-1.32.92-1.32,1.59v.15l.06.14c.95,2.13,1.42,7.03,1.42,14.57v.95c-2.14,34.36-3.22,55.3-3.22,62.22v4.25c.2,3.17,2.24,3.64,3.43,3.64h.17l.43-.22c.07.02.18.07.33.14l.19.1,7.8-1.01h2.68l.17-.11c.66-.41,1.32-.92,1.32-1.59Z"/>
  <path class="cls-1" d="M406.17,109.54v8.92c0,1.67.08,4.18.25,7.47l.02.33,1.45,1.08h1.19l1.26-.84-.03-.41c-.16-2.69-.25-4.76-.25-6.15v-9.47c-1.11-14.78-5.1-23.52-11.87-26,5.74-5.04,8.65-12.85,8.65-23.24v-2.48c0-3.38-1.4-8.42-4.26-15.38l-.05-.09c-2.05-3.46-4.75-5.9-8.02-7.23l-.15-.04c-3.25-.53-3.9-1.07-4.02-1.22l-.21-.27h-1.08l-1.51,1.13.05.41c1.3,10.04,2.38,26.41,3.19,48.65-.39.18-.8.54-1.14,1.22l-.08.15v1.06l.06.14c.3.68.79,1.13,1.43,1.32v14.25c0,2.26.17,6.92.49,13.84l-.28,1.99.21.24c.77.88,1.28,1.23,1.77,1.23.65,0,1.55-.24,2.12-1.38l.08-.15v-.66c0-1.09-.16-5.64-.5-13.87v-9.41c0-1.61-.07-3.96-.21-7.19,1.67.19,3.64,1.34,5.88,3.42,3.68,6.35,5.55,12.62,5.55,18.63ZM394.64,82.19c-.79-16.82-1.66-31.2-2.6-42.78.84.01,2.48.63,5.6,3.45,3.52,6.55,5.31,11.98,5.31,16.15v3.47c0,8.83-2.79,15.45-8.31,19.71Z"/>
  <path class="cls-1" d="M440.57,80.72h-.07c-1.96,0-3,.03-3.5.26-8.85.49-9.59,1.43-9.59,2.43v1.21l.86,1.29.44-.06c5.97-.82,9.69-1.23,11.05-1.23,1.51,0,3.7.33,6.53.97l.29.06.25-.15c.66-.41,1.33-.92,1.33-1.59v-.74c0-1.07-1.24-1.81-7.58-2.44Z"/>
  <path class="cls-1" d="M48.49,153.86h-.53l-.17.11c-1.11.71-2.14,1.07-3.04,1.07-.71-.01-1.58-.24-2.58-.67-.75-.5-1.35-1.48-1.82-2.96-.82-2.15-1.24-4-1.24-5.49v-.91c0-2.18.63-3.84,1.93-5.07l.18-.17c.22-.09.77-.26,2.07-.49.38,0,.74.12,1.08.32l.17.11h.63l.21-.03c.32-.1.93-.29.93-.89,0-1.17-1.74-1.33-2.64-1.41h-.75c-.25,0-.72.04-2.29.42-2.52.96-3.87,3.43-4,7.38v.32c0,1.85.19,3.18.58,4.05,1.03,3.86,2.22,5.94,3.72,6.53,1.24.54,2.44.85,3.62.92h.11c.6,0,1.27-.08,2.04-.25,2.11-.67,2.86-1.17,2.86-1.91v-.4l-.21-.21c-.3-.3-.62-.37-.82-.37Z"/>
  <path class="cls-1" d="M62.65,155.04h-5.09v-3.96c0-1.55-.11-2.76-.32-3.68,0-2.65-.25-5.92-.74-9.72.06-.13.09-.28.09-.45v-.34l-.27-.21c-.2-.16-.51-.37-.87-.37h-.11c-.58,0-1.01.16-1.27.48h-.12l.07.07s-.03.04-.04.06l-.14.23.36,1.97c.29,3.12.58,7.07.86,11.7v3.92l.07.5c-.05.14-.07.31-.07.52v.66l.27.21c.31.25.59.37.87.37h4.94c1.42,0,2.54,0,2.54-.92v-.46l-.21-.21c-.3-.3-.62-.37-.82-.37Z"/>
  <path class="cls-1" d="M72.29,137.31h-.21l-.21.03c-.32.1-.93.29-.93.89l.03.22c.19.6.29,1.29.29,2.04v1.44c-.43,2.42-.64,6.64-.64,12.9,0,.59,0,2.16,1.14,2.16h.43c.24,0,.82-.08,1.1-.85l.1-.29-.14-.27c-.07-.13-.11-.23-.14-.3v-3.41c0-1.08.04-2.57.11-4.43v-.18s-.07-.16-.07-.16c-.02-.03-.03-.06-.03-.08.43-2.94.64-4.72.64-5.46v-.7c0-1.15,0-3.56-1.46-3.56Z"/>
  <path class="cls-1" d="M93.41,155.43v-1.45c0-.46-.03-1.03-.09-1.73.05-.1.09-.22.09-.36l-.02-.16c-.08-.33-.09-.49-.09-.53,0-2.25.07-2.7.09-2.79l.03-.11v-.11c-.08-.83-.11-2.65-.11-5.42,0-4.28-.45-5.87-1.68-5.87h-.33c-.45.09-1.19.42-1.23,1.78-.67,2.12-1.08,3.45-1.33,4.3-.46-.76-.95-1.51-1.47-2.23l-.07-.09c-3.84-3.86-4.05-3.9-4.35-3.96h-.56s-1.16.34-1.16.34l.14.63c.7,3.07,1.27,6.78,1.7,11.03-.07,1.05-.11,1.98-.11,2.78v2.36c0,.4-.04,1.05-.1,1.93l-.02.2.09.18c.33.67.81.77,1.06.77h.32l1-.3.03-.48c.07-1.29.11-2.3.11-2.99v-2.47c0-.51.04-1.12.1-1.81v-.07s0-.07,0-.07c-.31-3.01-.64-5.54-.99-7.56,1,1.11,1.88,2.33,2.64,3.63.74,2.2,1.15,2.83,1.83,2.83h.43l.81-.18.65-2.82c.02,1.27.05,2.53.09,3.73-.07.8-.11,1.72-.11,2.75v.1c.05.29.08.49.09.64l-.19.19.21.63v2.52c0,.07-.01.26-.09.67l-.08.37.27.27c.34.34.8.52,1.42.52h.03c.32-.04.61-.21.87-.5l.26-.3-.11-.38c-.07-.24-.08-.35-.08-.39Z"/>
  <path class="cls-1" d="M107.88,146.72c-.66-.56-1.45-1-2.36-1.32,1.73-1.38,2.76-2.68,3.12-3.96l.03-1.22-.02-.15c-.57-2.65-2.22-4.05-4.78-4.05-1.25,0-2.54.27-3.82.81l-.61.25.21.62c.27.8.47,1.66.61,2.57,0,3.34.44,8.14,1.29,14.18,0,2.29,1.55,2.54,2.21,2.54h.3c1.07-.13,2.17-.5,3.27-1.11l.11-.07c1.74-1.42,2.62-3.2,2.62-5.28l-.02-.16c-.38-1.64-1.12-2.88-2.17-3.66ZM103.88,137.98c.8,0,1.9.27,2.3,2.57v.65c-.55,1.16-1.6,2.26-3.14,3.28-.1-2.53-.33-4.63-.69-6.29.46-.14.97-.21,1.53-.21ZM103.56,146.9c1.8.53,2.48,1.09,2.75,1.47l.21.31h.2c.12.15.4.63.86,1.98-.03,1.01-.42,2.04-1.14,3.06-.44.57-1.22.99-2.33,1.27-.4-3.5-.74-6.09-1.01-7.72,0-.13,0-.26,0-.39.15.02.31.03.48.03Z"/>
  <path class="cls-1" d="M119.24,137.31h-.21l-.21.03c-.32.1-.93.29-.93.89l.03.22c.19.6.29,1.29.29,2.04v1.44c-.43,2.42-.64,6.64-.64,12.9,0,.59,0,2.16,1.14,2.16h.43c.24,0,.82-.08,1.1-.85l.1-.29-.14-.27c-.07-.13-.11-.23-.14-.3v-3.41c0-1.08.04-2.57.11-4.43v-.18s-.07-.16-.07-.16c-.02-.03-.03-.06-.03-.08.43-2.94.64-4.72.64-5.46v-.7c0-1.15,0-3.56-1.46-3.56Z"/>
  <path class="cls-1" d="M136.9,139.53c0-.42.06-.79.17-1.1l.22-.59-1.14-.57h-.49l-1.14.38v.49c0,.12-.02.44-.1,1.27v.06s0,.07,0,.07c.08.95.19,1.68.34,2.21.39,1.52.74,2.9,1.05,4.12-1.02-1.97-2.21-4.1-3.59-6.37-.52-1.45-1.28-2.18-2.25-2.18-.21,0-1.25.08-1.25,1.57,0,.09,0,.19.02.28l-.06.06.04.33c.09.82.1,1.08.1,1.16,0,.71-.14,2.86-.43,6.48.14,3.27.42,6.11.84,8.44l-.21.94,1.01.38.25.05c.23,0,.95,0,1.32-.5l.14-.19v-.46c-.43-2.59-.72-5.54-.86-8.69.15-1.94.26-3.45.33-4.56.34.56.72,1.14,1.14,1.75,1.85,3.85,3.11,6.39,3.72,7.48,1.56,3.96,2.1,4.26,2.7,4.26.66,0,1.12-.21,1.36-.61l.14-.23-1.03-5.8c-1.93-7.14-2.34-9.33-2.34-9.91Z"/>
  <path class="cls-1" d="M157.73,147.76l-.13-.07h-.15c-3.59-.17-4.3-.26-4.4-.28l-.58-.05-.17.02c-.57.14-.86.43-.86.9v.14l.11.28c.04.65.45.71,4.51.87v2.08c-.35,1.62-.58,2.31-.7,2.59h-.38v.55c-.13.07-.47.18-1.23.26h-.36c-1.37-.29-1.86-.62-2.01-.78-1.17-1.32-1.76-3.29-1.76-5.87,0-5.34.9-8.28,2.51-8.48h.43c.48,0,.93.05,1.29.13,1.19.38,1.44.41,1.61.41l.21-.03c.32-.1.93-.29.93-.89v-.5l-.33-.21c-.9-.57-2.11-.86-3.6-.86l-1.32.05-.11.02c-2.76.6-4.1,3.97-4.1,10.31,0,3.31.87,5.82,2.58,7.44l.12.09c1,.59,2.14.97,3.48,1.12h.5c.81-.08,1.38-.14,1.75-.28,2.18-.21,2.77-3.66,2.96-4.82v-.12c.01-.12-.02-.23-.06-.32.05-.28.07-.51.07-.7v-1.34c0-1.03-.45-1.47-.82-1.65Z"/>
  <path class="cls-1" d="M192.06,149.86c.08-.29.24-.82.59-1.76l1.07-1.16-.6-.47c-.2-.16-.51-.37-.87-.37h-.32c-1.06,0-1.63,1.12-1.96,2.26-1.36-.92-2.47-1.76-3.3-2.52,2.82-2.05,3.07-2.67,3.07-3.16v-.16c0-1.75-2.68-1.94-3.56-2h-.05c-.67,0-1.17.04-1.47.11-2.07.2-4.19.61-4.19,2.05v.16c0,.49.22,1.14,2.71,3.01-1.8,1.74-2.71,3.46-2.71,5.1,0,.6.28,1.21.83,1.82l.1.09c1.23.91,2.89,1.37,4.94,1.37s3.67-.79,4.82-2.35c1.44.98,1.96,1.3,2.2,1.43.86.7,1.53,1.03,2.11,1.03h.11l.1-.03c.32-.1.93-.29.93-.95v-.32l-.24-.21c-.14-.12-.55-.48-4.3-2.97ZM186.38,152.28c-2.17-.14-3.42-.61-3.42-1.28,0-1.05.65-2.29,1.93-3.71,1.55,1.27,3,2.33,4.3,3.17-.63,1.23-1.55,1.81-2.81,1.81ZM184.97,144.37c-1.2-.79-1.69-1.25-1.88-1.49.34-.12,1.18-.32,3.14-.41.22,0,.66.02.89.16-.25.25-.82.75-2.15,1.75Z"/>
  <path class="cls-1" d="M225.47,153.86h-.53l-.17.11c-1.11.71-2.14,1.07-3.04,1.07-.71-.01-1.58-.24-2.58-.67-.75-.5-1.35-1.48-1.82-2.96-.82-2.15-1.24-4-1.24-5.49v-.91c0-2.18.63-3.84,1.93-5.07l.18-.17c.22-.09.77-.26,2.07-.49.38,0,.74.12,1.08.32l.17.11h.63l.21-.03c.32-.1.93-.29.93-.89,0-1.17-1.74-1.33-2.64-1.41h-.75c-.25,0-.72.04-2.29.42-2.52.96-3.87,3.43-4,7.38v.32c0,1.85.19,3.18.58,4.05,1.03,3.86,2.22,5.94,3.72,6.53,1.24.54,2.44.85,3.62.92h.11c.6,0,1.27-.08,2.04-.25,2.11-.67,2.86-1.17,2.86-1.91v-.4l-.21-.21c-.3-.3-.62-.37-.82-.37Z"/>
  <path class="cls-1" d="M238.24,139.45c-.82-1.17-1.83-1.91-3.03-2.18l-.26-.02c-.7,0-1.64.29-2.24,1.76-.84,2.92-1.28,5.73-1.32,8.37,0,.51.04,1.03.11,1.54,0,.55-.16,2.17-.82,6.67v.1c0,.3.11,1.3,1.64,1.3h.11l.1-.03c.34-.11.99-.3.99-.92,0-.21-.07-.41-.2-.59l.67-4.64v-1.69c.54-.09,1.86-.23,5.05-.38l.33.02c.57,2.11.81,2.82.96,3.13.82,3.67,1.19,4.27,1.47,4.54l.21.2h.29c.44,0,.98-.05,1.29-.45l.15-.19v-.24c0-1.24-.33-2.69-.97-4.3-.96-4.83-2.47-8.86-4.51-12.01ZM238.98,146.75c-1.58.03-3.21.15-4.88.35v-.66c0-2.71.39-4.98,1.17-6.79.11.09.25.22.4.39,2.23,3.83,3.05,5.74,3.32,6.7Z"/>
  <path class="cls-1" d="M254.59,136.89c-1.21-.35-1.46-.38-1.62-.38h-.13c-.43.1-.8.38-1.11.87l-.24.37.23.38c.21.35.32.68.32.97,0,.44-.04.7-.08.83l-.04.14.02.14c.05.37.16,1.75.42,6.23-.07.73-.11,1.22-.11,1.52,0,.11.02.26.1.64,0,.04-.02.1-.06.2l-.05.13.24,7.74,1.23.37,1.29-.39-.04-.57c-.07-.91-.11-1.53-.11-1.83,0-1.1-.03-3.05-.09-5.95h.03s1.88,0,1.88,0l.59-.04c.1.03.22.04.37.04h0c.65-.04,1.64-.09,1.64-.92v-.21c0-.67-.71-.8-1.01-.86l-.1-.02h-.1c-.37.04-.67.06-.9.06h-2.41c-.01-1.77-.12-3.89-.32-6.31.07-.48.1-.84.1-1.1,0-.03,0-.07,0-.11,1,.09,2.37.18,4.09.28h.13s.12-.03.12-.03c.32-.1.93-.29.93-.89,0-.17-.04-.33-.13-.47-.11-.56-.8-.63-5.09-.82Z"/>
  <path class="cls-1" d="M273.41,137.05c-.5,0-1.48.02-2.9.05-.87,0-1.65-.07-2.34-.2l-.18-.04-.17.05c-.32.1-.93.29-.93.89v.27l.18.2c.14.16.46.74.46,2.75v.13c-.94,7.59-1.4,12.03-1.4,13.57v1c.05.38.33,1.27,1.89,1.27l.27-.04s.06.01.1.02l.11.03,3.4-.22h1.07l.21-.03c.32-.1.93-.29.93-.89v-.45l-.27-.21c-.29-.23-.55-.35-.81-.37v-.04l-4.41.23v-.34c0-1.19.19-3.37.56-6.49,1.5.01,2.74.06,3.71.16h.11s.11-.01.11-.01c.41-.09.83-.21,1.01-.59l.08-.15v-.66l-.8-.54h-.2c-2.17-.1-3.26-.17-3.8-.21.07-.73.23-2.16.61-4.94,0-.86-.05-1.59-.14-2.21l.42.02c1.6-.03,2.6-.05,2.99-.05l.17-.02c.57-.14.86-.43.86-.85v-.57l-.69-.52h-.24Z"/>
  <path class="cls-1" d="M310.56,137.9h-.32l-.96.28-.06.43c-.51,3.61-.97,8.23-1.37,13.76v-.02c-1.47-2.36-2.38-3.99-2.72-4.83-.28-1.36-.68-2.6-1.71-2.6h0l-.84.08-.19.24c-.17.21-.36.45-.99,5.17l-.15-.42c-.42-1.14-1.29-3.86-2.55-8.02-.63-2.77-1.07-3.61-1.87-3.61h-.43l-.21.03c-.32.1-.93.29-.93.89v.16l.07.14c.15.33.28.61.44.81,1.55,5.78,3.13,10.58,4.69,14.26.34,1.43.72,2.31,1.54,2.31h.44l.92-.31v-.51c0-.93.19-2.87.57-5.77.42.74,1.02,1.74,1.87,3.1,1.4,2.55,2.04,3.05,2.66,3.05h.21c.9,0,1.29-1.08,1.42-1.44l.04-.19c.21-2.94.72-8.36,1.5-16.1l.03-.33-.24-.24c-.3-.3-.62-.37-.82-.37Z"/>
  <path class="cls-1" d="M324.97,139.45c-.82-1.17-1.83-1.91-3.03-2.18l-.26-.02c-.7,0-1.64.29-2.24,1.76-.84,2.92-1.28,5.73-1.32,8.37,0,.51.04,1.03.11,1.54,0,.55-.16,2.17-.82,6.67v.1c0,.3.11,1.3,1.64,1.3h.11l.1-.03c.34-.11.99-.3.99-.92,0-.21-.07-.41-.2-.59l.67-4.64v-1.69c.54-.09,1.86-.23,5.05-.38l.33.02c.57,2.11.81,2.82.96,3.13.82,3.67,1.19,4.27,1.47,4.54l.21.2h.29c.44,0,.98-.05,1.29-.45l.15-.19v-.24c0-1.24-.33-2.69-.97-4.3-.96-4.83-2.47-8.86-4.51-12.01ZM325.71,146.75c-1.58.03-3.21.15-4.88.35v-.66c0-2.71.39-4.98,1.17-6.79.11.09.25.22.4.39,2.23,3.83,3.05,5.74,3.32,6.7Z"/>
  <path class="cls-1" d="M347.61,154.84v-2.15c-.45-2.93-1.83-4.85-4.14-5.72,1.82-1.17,2.74-2.8,2.74-4.87v-.54c0-.9-.63-2.08-1.99-3.73l-.09-.09c-.95-.8-2.17-1.36-3.73-1.67-1.3-.11-1.6-.21-1.61-.21l-.17-.11h-.42l-1.28.43.16.62c.54,2.07.99,5.44,1.33,10-.1.06-.2.14-.29.22l-.21.21v.72l.17.2c.13.15.28.26.47.33v2.64c0,.51.07,1.47.21,2.94l-.22.78.48.28c.38.22.64.31.89.31.48,0,.87-.14,1.15-.42l.21-.21v-.4c0-.16-.02-.66-.21-3.01v-2.04c0-.25-.01-.56-.04-.95.58.1,1.23.31,1.95.64,1.43,1.25,2.15,2.43,2.15,3.54v1.93c0,.38.04.93.11,1.68l.04.44.84.32.69.05.98-.33-.07-.57c-.07-.56-.1-.99-.1-1.26ZM340.86,145.94c-.29-3.05-.62-5.72-.96-7.95.39.08.96.27,1.77.63,1.78,1.67,2.05,2.6,2.05,3v.75c0,1.56-.94,2.73-2.86,3.57Z"/>
  <path class="cls-1" d="M361.05,137.05c-.5,0-1.48.02-2.9.05-.87,0-1.65-.07-2.34-.2l-.18-.04-.17.05c-.32.1-.93.29-.93.89v.27l.18.2c.14.16.46.74.46,2.75v.13c-.94,7.59-1.4,12.03-1.4,13.57v1c.05.38.33,1.27,1.89,1.27l.27-.04s.06.01.1.02l.11.03,3.4-.22h1.07l.21-.03c.32-.1.93-.29.93-.89v-.45l-.27-.21c-.29-.23-.55-.35-.81-.37v-.04l-4.41.23v-.34c0-1.19.19-3.37.56-6.49,1.5.01,2.74.06,3.71.16h.11s.11-.01.11-.01c.41-.09.83-.21,1.01-.59l.08-.15v-.66l-.8-.54h-.2c-2.17-.1-3.26-.17-3.8-.21.07-.73.23-2.16.61-4.94,0-.86-.05-1.59-.14-2.21l.42.02c1.6-.03,2.6-.05,2.99-.05l.17-.02c.57-.14.86-.43.86-.85v-.57l-.69-.52h-.24Z"/>
  <path class="cls-1" d="M377.51,151.19c-.7-3.21-1.06-6.52-1.06-9.84,0-.44.04-1.09.1-1.93v-.16s-.04-.15-.04-.15c-.36-.96-.97-1.11-1.31-1.11h-.21l-1.14.38v.49c0,.23.07.46.2.69-.06.86-.09,1.44-.09,1.73,0,2.31.12,4.34.35,6.03-.58.02-1.04.03-1.36.03h-.87c.07-.9.23-2.31.5-4.19v-.07s0-.07,0-.07c-.07-1.2-.11-2.02-.11-2.43,0-.06,0-.29.1-1.1v-.1s0-.1,0-.1c-.19-1.06-.85-1.17-1.13-1.17h-.32l-1.26.42.14.6c.05.23.08.38.09.38,0,.29-.03.58-.09.88l-.03.14.09.6-.11.23.06.25c.06.26.09.48.09.65v.08c-.35,3.07-.64,6.53-.86,10.37.07,1.68.11,2.71.11,3.09,0,.2.07,1.19,1.46,1.19h.13l1.07-.4-.07-.55c-.14-1.15-.21-2.19-.21-3.08,0-.64.06-1.86.17-3.64h.41c.52,0,1.31-.01,2.36-.04.07.48.2,1.24.48,2.53.45,3.71,1.02,5.08,2.1,5.08h.32l.17-.02c.57-.14.86-.43.86-.9v-.15l-.06-.14c-.33-.76-.68-2.26-1.03-4.49Z"/>
  <path class="cls-1" d="M393.53,140.11c-.91-1.43-1.72-2.1-2.53-2.1h-1l-2.39.99v.47s0,.07,0,.1c-1.29,1.73-1.94,3.71-1.94,5.91v1.07c.14,2.21.29,3.94.44,5.18.62,3.49,2.12,5.26,4.46,5.26h.43c.57,0,1.2-.2,1.94-.63,1.21-.93,1.78-3.45,1.78-7.92,0-2.7-.37-5.44-1.1-8.13l-.09-.2ZM388.26,144.2c.54-2.32,1.31-3.76,2.24-4.19.1.09.3.28.62.67.73,2.23,1.11,4.84,1.11,7.77v.11c0,6.18-1.2,6.49-1.44,6.49-.78,0-1.42-.74-1.89-2.15-.33-1.27-.61-3.72-.83-7.27l.19-1.42Z"/>
  <path class="cls-1" d="M412.42,143.5c0-.08.01-.29.1-.79l.14-.83h-.13v-1.39c0-.23-.03-.55-.08-.97.05-.12.07-.25.07-.4-.08-.64-.26-2.13-1.35-2.13h-.32l-1.29.43.17.62c.1.37.18.73.25,1.07l-.16.16.21.63v1.17c0,.94-.04,1.94-.11,2.96v.06s0,.06,0,.06c.57,5.63.86,9.19.86,10.55,0,0-.12.18-.76.32-.91-.05-1.63-1.08-2.15-3.07-.92-3.5-1.71-8.21-2.34-13.89v-.27c0-.25-.1-.87-1.07-1.12l-.39-.02-1.2.4.07.55c.72,6,1.48,10.61,2.26,13.64.71,3.81,2.25,5.74,4.56,5.74,2.55,0,3.3-1.16,3.49-2.13v-.13c.01-1.14-.27-4.76-.85-11.01v-.21Z"/>
  <path class="cls-1" d="M428.43,147.57l-.12-.07c-4.59-2.07-5.44-2.63-5.53-2.7-1.26-1.67-1.36-2.29-1.36-2.45,0-.81.24-1.52.66-2.11.53-.55,1.69-.84,3.36-.84h1.07l.23-.04c.47-.17,1.01-.35,1.01-1.02v-.39l-.83-.52h-.2c-3.06,0-5.1.39-6.21,1.2l-.1.08c-.99,1.03-1.49,2.22-1.49,3.55l.02.17c.08.3.09.46.09.53v.15l.06.13c.71,1.66,1.45,2.68,2.17,3.06,1.01.72,2.46,1.44,4.38,2.16,2.14,1.14,3.28,2.3,3.28,3.35,0,.84-.25,1.5-.76,2.01l-.21.21v.14c-.18.13-.81.46-2.87.85-.91.04-1.86.08-1.86.91v.43l.19.2c.27.29.68.43,1.27.43.44,0,1-.09,1.63-.27,1.99-.37,3.11-.79,3.62-1.38.98-1.08,1.47-2.22,1.47-3.39,0-1.51-.97-2.94-2.98-4.39Z"/>
  <path class="cls-1" d="M443.49,137.05c-.5,0-1.48.02-2.9.05-.87,0-1.65-.07-2.34-.2l-.18-.04-.17.05c-.32.1-.93.29-.93.89v.27l.18.2c.14.16.46.74.46,2.75v.13c-.94,7.59-1.4,12.03-1.4,13.57v1c.05.38.33,1.27,1.89,1.27l.27-.04s.06.01.1.02l.11.03,3.4-.22h1.07l.21-.03c.32-.1.93-.29.93-.89v-.45l-.27-.21c-.29-.23-.55-.35-.81-.37v-.04l-4.41.23v-.34c0-1.19.19-3.37.56-6.49,1.5.01,2.74.06,3.71.16h.11s.11-.01.11-.01c.41-.09.83-.21,1.01-.59l.08-.15v-.66l-.8-.54h-.2c-2.17-.1-3.26-.17-3.8-.21.07-.73.23-2.16.61-4.94,0-.86-.05-1.59-.14-2.21l.42.02c1.6-.03,2.6-.05,2.99-.05l.17-.02c.57-.14.86-.43.86-.85v-.57l-.69-.52h-.24Z"/>
</svg>