<?xml version="1.0" encoding="UTF-8"?>
<svg id="_レイヤー_1" data-name="レイヤー 1" xmlns="http://www.w3.org/2000/svg" viewBox="0 0 662.26 704.37">
  <defs>
    <style>
      .cls-1 {
        fill: #231815;
      }
    </style>
  </defs>
  <g>
    <g>
      <path class="cls-1" d="M58.56,640.36v-9.04h20.43v9.04h-20.43Z"/>
      <path class="cls-1" d="M100.57,622.12v30.15h25.82v-30.15h9.12v28.31c0,3.37-.68,5.67-2.03,6.92-1.36,1.24-3.93,1.86-7.73,1.86h-24.54c-3.77,0-6.32-.61-7.64-1.84-1.33-1.23-1.99-3.54-1.99-6.94v-28.31h8.99Z"/>
      <path class="cls-1" d="M152,659.2v-37.09h6.21l31.48,24.62v-24.62h8.18v37.09h-6.25l-31.39-25.01v25.01h-8.22Z"/>
      <path class="cls-1" d="M248.4,659.2v-37.09h33.4c3.05,0,5.27.56,6.64,1.69,1.37,1.13,2.06,2.96,2.06,5.5v8.74c0,2.51-.69,4.33-2.06,5.44-1.37,1.11-3.58,1.67-6.64,1.67h-5.1l17.64,14.05h-12.98l-15.54-14.05h-8.52v14.05h-8.91ZM277.94,628.5h-20.64v10.28h20.64c1.57,0,2.65-.23,3.23-.69.58-.46.88-1.23.88-2.31v-4.28c0-1.08-.29-1.86-.88-2.31-.59-.46-1.66-.69-3.23-.69Z"/>
      <path class="cls-1" d="M304.5,630.85c0-3.37.66-5.67,1.97-6.89,1.31-1.23,3.87-1.84,7.67-1.84h28.69c3.83,0,6.39.61,7.69,1.84s1.95,3.53,1.95,6.89v19.57c0,3.4-.66,5.71-1.99,6.94-1.33,1.23-3.88,1.84-7.64,1.84h-28.69c-3.8,0-6.35-.61-7.67-1.84-1.31-1.23-1.97-3.54-1.97-6.94v-19.57ZM313.53,652.09h29.89v-23.17h-29.89v23.17Z"/>
      <path class="cls-1" d="M400.59,628.93h-24.37v23.17h24.37v-7.88l9.12,1.84v4.37c0,3.37-.67,5.67-2.01,6.92-1.34,1.24-3.91,1.86-7.71,1.86h-23.17c-3.74,0-6.28-.61-7.62-1.84-1.34-1.23-2.01-3.54-2.01-6.94v-19.57c0-3.37.66-5.67,1.99-6.89,1.33-1.23,3.88-1.84,7.64-1.84h23.17c3.83,0,6.4.61,7.73,1.84,1.33,1.23,1.99,3.53,1.99,6.89v3.6l-9.12,1.33v-6.85Z"/>
      <path class="cls-1" d="M424.57,659.2v-37.09h9.12v14.09h28.22v-14.09h9.04v37.09h-9.04v-15.63h-28.22v15.63h-9.12Z"/>
      <path class="cls-1" d="M487.52,659.2v-37.09h39.78v6.55h-30.66v8.09h17.86v6.38h-17.86v9.12h31.13v6.94h-40.25Z"/>
      <path class="cls-1" d="M540.84,659.2v-37.09h33.4c3.05,0,5.27.56,6.64,1.69,1.37,1.13,2.06,2.96,2.06,5.5v8.74c0,2.51-.69,4.33-2.06,5.44-1.37,1.11-3.58,1.67-6.64,1.67h-5.1l17.64,14.05h-12.98l-15.54-14.05h-8.52v14.05h-8.91ZM570.39,628.5h-20.64v10.28h20.64c1.57,0,2.65-.23,3.23-.69.58-.46.88-1.23.88-2.31v-4.28c0-1.08-.29-1.86-.88-2.31-.59-.46-1.66-.69-3.23-.69Z"/>
      <path class="cls-1" d="M593.77,640.36v-9.04h20.43v9.04h-20.43Z"/>
    </g>
    <g>
      <path class="cls-1" d="M71.18,668.21h-10.82v10.91h10.82v-3.7l4.01.83v2.04c0,1.58-.3,2.65-.89,3.22s-1.72.86-3.38.86h-10.29c-1.67,0-2.81-.29-3.39-.86-.59-.57-.88-1.65-.88-3.22v-9.09c0-1.57.29-2.64.88-3.21.59-.58,1.72-.86,3.39-.86h10.29c1.66,0,2.79.29,3.38.86.59.58.89,1.65.89,3.21v1.63l-4.01.64v-3.26Z"/>
      <path class="cls-1" d="M84.21,682.38v-14.13h3.48v11.49h11.08v2.64h-14.55Z"/>
      <path class="cls-1" d="M104.65,682.38v-14.13h3.43v14.13h-3.43Z"/>
      <path class="cls-1" d="M116.38,682.38v-14.13h2.76l6.92,8.39,6.88-8.39h2.77v14.13h-3.2v-9.72l-6.31,8.03h-.67l-6.39-7.8v9.5h-2.76Z"/>
      <path class="cls-1" d="M144.02,682.38v-14.13h12.69c1.18,0,2.04.22,2.56.64.52.43.78,1.13.78,2.1v1.7c0,.64-.21,1.17-.62,1.58-.41.41-1.01.69-1.79.83.79.13,1.41.43,1.85.91.44.47.66,1.07.66,1.79v1.81c0,.92-.37,1.62-1.09,2.08-.73.46-1.83.69-3.29.69h-11.75ZM155.13,670.55h-7.72v3.34h7.72c.6,0,1.01-.08,1.22-.23s.33-.41.33-.78v-1.34c0-.37-.11-.63-.32-.77-.21-.15-.62-.22-1.23-.22ZM155.13,676.22h-7.72v3.61h7.72c.65,0,1.1-.09,1.33-.28.23-.18.35-.51.35-.98v-1.08c0-.47-.12-.8-.35-.99-.23-.19-.68-.29-1.33-.29Z"/>
      <path class="cls-1" d="M167.98,682.38v-14.13h3.43v14.13h-3.43Z"/>
      <path class="cls-1" d="M179.71,682.38v-14.13h2.37l11.99,9.38v-9.38h3.12v14.13h-2.38l-11.96-9.53v9.53h-3.13Z"/>
      <path class="cls-1" d="M219.35,670.84h-10.75v8.83h10.75v-3h-5.61v-2.51h8.99v4.88c0,1.29-.25,2.18-.76,2.64s-1.48.7-2.91.7h-10.23c-1.44,0-2.41-.23-2.91-.7s-.76-1.35-.76-2.64v-7.46c0-1.28.25-2.16.76-2.63s1.48-.7,2.91-.7h10.23c1.42,0,2.39.23,2.9.69.51.46.77,1.28.77,2.48v.38l-3.38.57v-1.52Z"/>
      <path class="cls-1" d="M249.74,682.38c-1.69,0-2.83-.29-3.43-.86-.6-.58-.9-1.65-.9-3.21v-1.12c0-.75.13-1.34.38-1.76.25-.42.84-.91,1.75-1.45l3.51-2.1c-.51-.44-.88-.86-1.12-1.26-.23-.41-.35-.86-.35-1.35v-.96c0-1.14.32-1.95.95-2.43.63-.48,1.74-.72,3.33-.72h3.47c1.66,0,2.79.25,3.39.75.6.5.9,1.41.9,2.72v1.04l-3.12.52v-2.3h-5.64v1.24l8.12,6.75,4-3.34,2.28,1.97-3.98,3.3,5.45,4.58h-5.25l-2.84-2.4-1.53,1.37c-.46.39-.89.66-1.3.81-.41.15-1.06.22-1.95.22h-6.13ZM248.8,679.37h7.99l1.6-1.37-5.17-4.31-4.42,2.72v2.95Z"/>
      <path class="cls-1" d="M305.78,668.21h-10.82v10.91h10.82v-3.7l4.01.83v2.04c0,1.58-.3,2.65-.89,3.22s-1.72.86-3.38.86h-10.29c-1.67,0-2.81-.29-3.39-.86-.59-.57-.88-1.65-.88-3.22v-9.09c0-1.57.29-2.64.88-3.21.59-.58,1.72-.86,3.39-.86h10.29c1.66,0,2.79.29,3.38.86.59.58.89,1.65.89,3.21v1.63l-4.01.64v-3.26Z"/>
      <path class="cls-1" d="M316.66,682.38l8.39-14.13h3.31l8.52,14.13h-3.87l-1.78-3.1h-9.35l-1.78,3.1h-3.44ZM323.35,676.7h6.48l-3.3-5.89-3.18,5.89Z"/>
      <path class="cls-1" d="M342.4,682.38v-14.13h14.99v2.53h-11.52v3.69h6.2v2.63h-6.2v5.29h-3.48Z"/>
      <path class="cls-1" d="M362.78,682.38v-14.13h15.16v2.5h-11.68v3.08h6.8v2.43h-6.8v3.48h11.86v2.64h-15.34Z"/>
      <path class="cls-1" d="M403.84,682.38l-5.74-14.13h3.61l3.7,9.85,3.98-9.85h2.37l3.95,9.85,3.64-9.85h3.12l-5.68,14.13h-2.35l-4.08-9.98-4.14,9.98h-2.37Z"/>
      <path class="cls-1" d="M426.25,682.38l8.39-14.13h3.31l8.52,14.13h-3.87l-1.78-3.1h-9.35l-1.78,3.1h-3.44ZM432.94,676.7h6.48l-3.3-5.89-3.18,5.89Z"/>
      <path class="cls-1" d="M451.99,682.38v-14.13h12.73c1.16,0,2.01.22,2.53.64.52.43.78,1.13.78,2.1v3.33c0,.96-.26,1.65-.78,2.07-.52.42-1.37.64-2.53.64h-1.94l6.72,5.35h-4.94l-5.92-5.35h-3.25v5.35h-3.39ZM463.25,670.68h-7.86v3.92h7.86c.6,0,1.01-.09,1.23-.26.22-.17.33-.47.33-.88v-1.63c0-.41-.11-.71-.33-.88-.22-.17-.63-.26-1.23-.26Z"/>
      <path class="cls-1" d="M475.71,682.38v-14.13h15.16v2.5h-11.68v3.08h6.8v2.43h-6.8v3.48h11.86v2.64h-15.34Z"/>
      <path class="cls-1" d="M498.03,682.38v-14.13h3.48v5.37h10.75v-5.37h3.44v14.13h-3.44v-5.96h-10.75v5.96h-3.48Z"/>
      <path class="cls-1" d="M523.67,671.58c0-1.28.25-2.16.75-2.63s1.47-.7,2.92-.7h10.93c1.46,0,2.43.23,2.93.7s.74,1.34.74,2.63v7.46c0,1.29-.25,2.18-.76,2.64-.5.47-1.48.7-2.91.7h-10.93c-1.45,0-2.42-.23-2.92-.7s-.75-1.35-.75-2.64v-7.46ZM527.11,679.67h11.39v-8.83h-11.39v8.83Z"/>
      <path class="cls-1" d="M553.33,668.25v11.49h9.84v-11.49h3.48v10.78c0,1.28-.26,2.16-.78,2.63-.52.47-1.5.71-2.94.71h-9.35c-1.44,0-2.41-.23-2.91-.7s-.76-1.35-.76-2.64v-10.78h3.43Z"/>
      <path class="cls-1" d="M587.98,670.78h-9.72v2.99h9.2c1.45,0,2.42.23,2.92.69.5.46.75,1.34.75,2.63v1.94c0,1.29-.25,2.18-.77,2.64-.51.47-1.48.7-2.9.7h-9.17c-1.46,0-2.45-.23-2.96-.7-.52-.47-.78-1.35-.78-2.64v-.39l3.07-.57v1.66h10.39v-3.23h-9.15c-1.45,0-2.42-.24-2.94-.71-.51-.47-.77-1.35-.77-2.63v-1.58c0-1.27.26-2.15.77-2.62.51-.47,1.49-.71,2.94-.71h8.39c1.42,0,2.4.23,2.93.68s.79,1.25.79,2.39v.34l-2.99.64v-1.52Z"/>
      <path class="cls-1" d="M599.09,682.38v-14.13h15.16v2.5h-11.68v3.08h6.8v2.43h-6.8v3.48h11.86v2.64h-15.34Z"/>
    </g>
  </g>
  <g>
    <path class="cls-1" d="M120.02,142.44h-.62c-.51,0-.98.23-1.3.63-2,2.55-3.83,3.9-5.23,3.9-.8-.03-2.22-.48-4.43-2.38-1.53-2.04-2.77-6.04-3.71-11.95-1.62-8.44-2.44-15.76-2.44-21.74v-3.5c0-8.76,1.32-15.71,3.93-20.67.09-.17.15-.34.17-.53.19-.2.96-.86,3.74-1.87.44.09.9.43,1.38,1.02.31.39.78.61,1.28.61h.83c.31,0,.61-.09.87-.25.48-.3,1.6-1,1.6-2.22,0-1.54-.88-3.54-5.06-4.3-.1-.02-.2-.03-.29-.03h-1.44c-.65,0-1.66.19-4.62,1.6-.1.05-.2.11-.29.18-4.76,3.62-7.2,12.46-7.45,27.07v1.24c0,6.93.34,11.82,1.06,14.93,2.52,19,5.2,23.08,6.92,24.44,2.48,2.17,4.93,3.42,7.28,3.69.06,0,.13.01.19.01h.21c1.29,0,2.69-.32,4.16-.96.08-.03.16-.08.23-.12,3.66-2.33,5.3-4.22,5.3-6.13v-.41c0-.26-.06-.51-.17-.74-.63-1.26-1.49-1.53-2.09-1.53Z"/>
    <path class="cls-1" d="M147.26,131.54c-1.36-12.45-2.05-25.29-2.05-38.15,0-1.73.07-4.27.21-7.56,0-.12,0-.25-.03-.37-.2-1.04-.72-3.82-2.86-3.82h-.41c-.36,0-.7.12-.99.33l-.82.62c-.42.31-.66.8-.66,1.32,0,.69.13,1.41.4,2.14-.13,3.61-.19,6.01-.19,7.14,0,9.39.26,17.54.76,24.22-1.03.06-1.83.09-2.41.09h-1.42c.09-3.45.43-9.29,1-17.4,0-.06,0-.11,0-.17-.14-4.62-.21-7.79-.21-9.43,0-.41.04-1.51.2-4.44,0-.08,0-.16,0-.24-.09-1.03-.34-3.77-2.47-3.77h-.62c-.36,0-.7.12-.99.33l-.82.62c-.47.35-.71.92-.65,1.51.17,1.48.19,1.82.2,1.87,0,1.24-.07,2.5-.2,3.74-.01.11-.01.22,0,.34l.2,1.97c0,.2-.04.51-.16.97-.05.19-.06.39-.04.58.13,1.14.2,2.12.2,2.91v.52c-.68,11.74-1.24,25-1.65,39.49.14,6.57.21,10.47.21,11.92,0,2.58,1.6,3.5,3.09,3.5.36,0,.7-.12.99-.33l.82-.62c.44-.33.69-.87.66-1.42-.27-4.5-.41-8.56-.41-12.06,0-2.59.12-7.65.36-15.04h.46c.95,0,2.35-.04,4.17-.13.12,2.11.45,5.6.98,10.54,1.07,17.75,2.34,18.65,4.32,18.65h.62c.26,0,.51-.06.74-.17,1.26-.63,1.53-1.49,1.53-2.09v-.21c0-.12-.01-.24-.04-.35-.67-3.07-1.35-8.96-2.03-17.55Z"/>
    <path class="cls-1" d="M175.83,87.08c-1.54-4.43-3.46-7.12-5.87-8.22-.21-.1-.45-.15-.68-.15h-.21c-3.36,0-4.29,4.6-4.62,6.21-1.58,11.05-2.42,21.68-2.49,31.61,0,1.94.07,3.88.21,5.78,0,2.95-.54,11.69-1.59,25.99,0,.04,0,.08,0,.12,0,2.89,1.78,3.92,3.45,3.92.3,0,.6-.08.86-.24.51-.31,1.72-1.05,1.72-2.33,0-.56-.14-1.14-.43-1.71l1.35-18.62s0-.08,0-.12v-7.19c.85-.28,3.19-.81,9.45-1.4l.16.02c1.23,9.22,1.68,11.64,1.9,12.49,1.67,14.97,2.32,16.23,2.63,16.83.28.55.85.89,1.46.89,2.04,0,2.73-1.21,2.93-1.73.07-.19.11-.39.11-.59,0-4.56-.61-9.93-1.82-15.96-1.83-18.37-4.69-33.7-8.53-45.58ZM176.68,115.16c-2.97.12-6.03.55-9.15,1.29.01-1.92.06-2.66.09-2.94.07-.19.11-.39.11-.6,0-10.2.71-18.89,2.13-25.88.04.09.09.19.14.29,4.04,13.85,6.28,23.2,6.69,27.84ZM166.92,114.33c-.12.07-.25.13-.4.17.14-.04.27-.1.4-.17Z"/>
    <path class="cls-1" d="M218.37,149.24c0-.26-.06-.51-.17-.74-.63-1.26-1.49-1.53-2.09-1.53h-9.48v-16.28c0-5.85-.21-10.53-.62-13.91,0-10.26-.49-23.02-1.45-37.92.13-.35.21-.79.21-1.34,0-.31-.09-.61-.25-.88-.3-.48-1-1.6-2.22-1.6h-.21c-1.48,0-2.61.82-3.02,2.2-.06.2-.08.41-.06.62l.61,6.73c.55,11.94,1.1,27.12,1.65,45.06v15.04s0,.09,0,.14l.17,2.03c-.17.61-.17,1.29-.17,1.75v1.24c0,.31.09.61.25.87.3.48,1,1.6,2.22,1.6h9.48c1.8,0,5.15,0,5.15-2.47v-.62Z"/>
    <path class="cls-1" d="M252.25,149.18c-.8-5.01-1.79-9.33-2.97-12.88-5.09-13.72-7.94-18.39-9.9-19.93,1.58-5.95,2.64-10.22,3.16-12.7,2.76-10.1,4.17-18.34,4.17-24.5v-1.03c0-.2-.04-.39-.11-.58-.45-1.2-1.54-1.89-2.99-1.89-.36,0-.7.12-.99.33l-.82.62c-.48.36-.73.96-.64,1.55.11.8.18,1.29.19,1.42v2.06c0,3.24-1.64,11.5-4.89,24.62-1.96-13.88-3.16-22.88-3.56-26.76v-.94c0-.31-.09-.61-.25-.88-.3-.48-1-1.6-2.22-1.6h-.41c-.31,0-.61.09-.87.25-.48.3-1.6,1-1.6,2.22v.62c0,3.08.95,9.96,2.9,21.05,1.05,9.65,2.21,25.67,3.46,47.62-.26.54-.39,1.08-.39,1.61v.21c0,.36.12.7.33.99.69.93,1.35,1.69,2.35,1.69h.82c.33,0,.64-.1.91-.28l.62-.41c.49-.32.77-.88.73-1.47l-1.61-27.2c.88,1.44,2.08,3.73,3.63,7.39,1.94,4.1,3.78,10.12,5.49,17.89-.06.18-.09.37-.09.58v.21c0,1.39.69,2.5,1.94,3.12.23.11.48.17.74.17h.62c.26,0,.51-.06.74-.17,1.26-.63,1.53-1.49,1.53-2.09v-.62c0-.09,0-.17-.02-.26Z"/>
    <path class="cls-1" d="M116.29,179.05s-.03-.09-.05-.13c-2.63-6.57-7.59-9.9-14.72-9.9-.31,0-.61.09-.87.25-.48.3-1.6,1-1.6,2.22v.62c0,.48.14.91.39,1.25l-1.01,36.67c0,.72.11,2.59.34,5.68-.31.32-.56.76-.7,1.34-.03.13-.05.26-.05.4,0,.46.13,1.23.84,1.9.03.85.09,2.12.19,3.87,0,.63-.07,1.62-.2,2.93,0,.09-.01.19,0,.28l.57,7.97c-.1.23-.16.49-.16.77,0,.04,0,.08,0,.13.15,1.93.32,3.51.52,4.79-.07.2-.11.42-.11.64v1.44c0,.31.09.61.25.87.3.48,1,1.6,2.22,1.6h.41c.22,0,.43-.04.63-.13.88-.37,1.54-1.22,2.14-2.78.07-.19.11-.39.11-.6v-.62c0-1.19-.26-1.96-.63-2.46-.05-1.87-.25-6.02-.6-12.6,0-.12.04-.52.19-1.86.01-.12.01-.25,0-.38-.11-.93-.17-2.09-.19-3.45.23-.03.53-.05.92-.08.22-.01.43-.07.63-.17,2.86-1.41,5.11-3.5,6.67-6.22.07-.11.12-.23.15-.36,3.05-10.34,4.6-20,4.6-28.7,0-.04,0-.08,0-.12-.15-1.93-.45-3.65-.89-5.1ZM104.76,174.74c.63.15,1.22.32,1.77.5,3.56,2.54,5.29,5.23,5.29,8.2,0,.74-.07,2.38-.2,4.79-1.98,20.67-4.34,23.69-5.01,24.11-.11.07-.21.16-.3.25-.81.84-1.59,1.42-2.34,1.72-.03-1.09-.09-2.52-.17-4.3l.97-35.27Z"/>
    <path class="cls-1" d="M147.12,193.96c0-.67.07-1.81.2-3.36.02-.26-.02-.51-.11-.75l.09-.56c.02-.09.02-.18.02-.27v-6.59c0-.9-.06-2.22-.17-4.03.11-.26.17-.57.17-.92,0-.03,0-.07,0-.1-.31-4.96-.82-7.32-2.88-7.32h-.62c-.36,0-.7.12-.99.33l-.82.62c-.48.36-.73.95-.64,1.54.25,1.79.44,3.54.57,5.22h0c-.16.31-.21.67-.15,1.01l.18,1.1v4.81c0,3.65-.07,7.52-.21,11.48,0,.05,0,.09,0,.14,1.09,21.69,1.65,35.39,1.65,40.72,0,1.03-.38,1.7-1.24,2.19-.61-.35-2.4-2.23-3.72-12.29-1.77-13.52-3.29-31.65-4.52-53.78v-1.03c0-1.39-.69-2.5-1.94-3.12-.23-.11-.48-.17-.74-.17h-.41c-.36,0-.7.12-.99.33l-.82.62c-.44.33-.69.86-.66,1.42,1.37,22.93,2.83,40.51,4.33,52.19,1.38,14.72,4.17,21.28,9.06,21.28,2.35,0,6.38-.97,7-7.47,0-.05,0-.1,0-.16,0-4.32-.54-18.16-1.65-42.25v-.82Z"/>
    <path class="cls-1" d="M169.88,169.68c-2.38-1.38-2.9-1.48-3.4-1.48-.2,0-.4.04-.59.11-1.25.48-1.84,1.91-2.22,3.1-.1.32-.1.66,0,.98.5,1.62.75,3.19.75,4.67s-.06,2.77-.19,3.69c-.01.11-.02.22-.01.33.14,2.12.41,10.26.82,24.2-.14,2.76-.21,4.7-.21,5.79,0,.26.02.76.21,2.35,0,.37-.07.87-.18,1.48-.02.11-.03.21-.03.32l.41,27.2c0,.57.31,1.09.8,1.39l1.03.62c.26.16.55.23.85.23s.59-.08.85-.23l1.03-.62c.52-.31.82-.88.8-1.48-.14-3.53-.21-5.93-.21-7.15,0-4.33-.06-12.16-.19-23.91h3.28c.08,0,.16,0,.23-.02l.8-.12c.29.1.63.16,1,.12,2.2-.24,3.32-1.07,3.32-2.46v-.82c0-.96-.64-1.69-1.89-2.16-.28-.1-.58-.13-.88-.08-.81.15-1.3.18-1.56.18h-4.33c0-7-.21-15.52-.62-25.32.14-1.87.2-3.23.2-4.15,0-.19-.02-.54-.13-1.46,1.88.31,4.38.66,7.56,1.04.37.04.75-.04,1.07-.24.48-.3,1.6-1,1.6-2.22,0-.45-.08-.87-.24-1.26-.25-1.49-2.06-1.92-9.76-2.61Z"/>
    <path class="cls-1" d="M198.79,169.68c-2.38-1.38-2.9-1.48-3.4-1.48-.2,0-.4.04-.59.11-1.25.48-1.84,1.91-2.22,3.1-.1.32-.1.66,0,.98.5,1.62.75,3.19.75,4.67s-.06,2.77-.19,3.69c-.01.11-.02.22-.01.33.14,2.12.41,10.26.82,24.2-.14,2.76-.21,4.7-.21,5.79,0,.26.02.76.21,2.35,0,.37-.07.87-.18,1.48-.02.11-.03.21-.03.32l.41,27.2c0,.57.31,1.09.8,1.39l1.03.62c.26.16.55.23.85.23s.59-.08.85-.23l1.03-.62c.52-.31.82-.88.8-1.48-.14-3.53-.21-5.93-.21-7.15,0-4.33-.06-12.16-.19-23.91h3.28c.08,0,.16,0,.23-.02l.8-.12c.29.1.63.16,1,.12,2.2-.24,3.32-1.07,3.32-2.46v-.82c0-.96-.64-1.69-1.89-2.16-.28-.1-.58-.13-.88-.08-.81.15-1.3.18-1.56.18h-4.33c0-7-.21-15.52-.62-25.32.14-1.87.2-3.23.2-4.15,0-.19-.02-.54-.13-1.46,1.88.31,4.38.66,7.56,1.04.38.04.75-.04,1.07-.24.48-.3,1.6-1,1.6-2.22,0-.45-.08-.87-.24-1.26-.25-1.49-2.06-1.92-9.76-2.61Z"/>
    <path class="cls-1" d="M240.88,173.76h-.41c-.33,0-.64.1-.91.28l-.62.41c-.39.26-.65.67-.72,1.13-.59,3.99-1.5,11.2-2.7,21.48-3.16-5.95-6.95-11.68-11.3-17.09-.38-1.12-.97-2.35-2.11-2.8-.19-.07-.39-.11-.6-.11h-.82c-.31,0-.61.09-.87.25-.48.3-1.6,1-1.6,2.22v.41c0,1.24.69,2.37,2.12,3.45,5.78,7.8,10.52,15.67,14.12,23.4-.69,5.7-1.78,17.48-3.25,35.04-.02.28.02.55.14.81.32.71.86,1.69,1.93,1.96.13.03.26.05.4.05h.62c.26,0,.51-.06.74-.17l.41-.21c.47-.24.8-.69.89-1.21.56-3.41,1.05-8.6,1.46-15.39,1.14-15.01,1.72-18.67,1.95-19.55.2-.27.32-.61.32-.97v-.62c0-.09,0-.18-.02-.27l-.17-.99c1.22-9.3,2.39-18.94,3.48-28.64,0-.06,0-.12,0-.18v-.21c0-.31-.09-.61-.25-.88-.3-.48-1-1.6-2.22-1.6Z"/>
  </g>
  <g>
    <path class="cls-1" d="M578.27,22H83.99c-25.28,0-45.84,20.56-45.84,45.84v494.27c0,25.28,20.56,45.84,45.84,45.84h494.27c25.28,0,45.84-20.57,45.84-45.84V67.84c0-25.28-20.57-45.84-45.84-45.84ZM70.57,562.11V67.84c0-7.4,6.02-13.42,13.42-13.42h494.27c7.4,0,13.42,6.02,13.42,13.42v224.36c-4.97,1.93-8.75,6.23-11.24,11.17-10.34-4.92-21.74-7.63-33.21-7.78-4.88-.06-9.78.39-14.59,1.27-9.62-15.62-21.45-29.25-35.27-40.42-34.29-27.69-79.43-38.93-130.55-32.5-6.62.83-13.11,1.82-19.46,2.92.6-1.23,1.22-2.46,1.85-3.67,2.54-4.92,5.33-9.73,8.57-14.23.29-.41.6-.81.9-1.22.11-.15.23-.29.35-.44.75-.93,1.53-1.85,2.33-2.75,1.5-1.69,3.07-3.31,4.69-4.88,11.89-11.56,28.86-21.75,32.31-39.28,2.29-11.62-1.11-24.22-11.07-31.31-4.62-3.29-10.43-4.49-15.99-4.81-5.47-.31-11.04.25-16.45,1.01-5.98.83-11.55,3.35-15.39,8.14-1.63,2.03-2.94,4.22-4.08,6.5-.19,0-.38,0-.57.01-3.61.3-7.23.23-10.82-.16-4.01-.63-7.94-1.66-11.74-3.13l-2.19-.29c-1.14-.04-2.19.19-3.18.71-1.61.68-3.06,1.81-3.94,3.37-7.47,13.32-6.69,28.59-6.97,43.34-.07,3.64-.25,7.28-.68,10.9-.56,3.56-1.44,7.06-2.76,10.42-1.73,3.87-3.76,7.63-5.01,11.69-1.42,4.62-1.71,10,.1,14.57,1.42,3.61,3.49,6.57,6.16,9.12-81.16,27.98-127.48,82.52-119.6,147.23.69,5.7,1.67,11.34,2.9,16.9-2.92,2.62-5.74,5.34-8.44,8.16-12.7,13.21-23.31,28.54-31.33,45.01-3.31,6.79-6.22,13.79-8.7,20.92-1.32-1.3-2.68-2.55-4.25-3.55-2.74-1.73-6.2-2.3-9.31-1.34-3.3,1.02-5.74,4.66-4.62,8.13.66,2.03,2.24,3.71,4.17,4.46-.98,1.45-1.69,3.09-2.04,4.9-.91,4.7,0,9.85,2.88,13.76.06.08.12.15.18.23-2.7,2.94-5.01,6.23-6.81,9.73-.81,1.58-1.15,3.35-.67,5.09.42,1.53,1.61,3.19,3.04,3.95,3.03,1.6,7.35.91,9.04-2.37.95-1.86,2.06-3.62,3.29-5.3,1.12-1.39,2.34-2.7,3.63-3.92.83.16,1.68.28,2.54.36,5.03.46,10.45-1.12,14.73-3.72,4.39-2.67,8-7.03,8.14-12.13,2.09-1.18,3.63-3.58,3.53-5.89-.17-3.84-2.91-6.28-6.61-6.61-.03,0-.05,0-.07,0-.12-.02-.24-.03-.35-.05-.57-.11-1.15-.24-1.71-.39-1.14-.3-2.26-.68-3.36-1.08-.85-.31-1.7-.63-2.54-.95.42-1.2.85-2.4,1.3-3.6.75-2,1.54-3.99,2.36-5.96-.03.08-.06.14-.1.23.05-.12.1-.24.15-.36.02-.05.04-.09.06-.14.05-.13.13-.31.18-.41.18-.42.36-.84.55-1.26.47-1.08.96-2.15,1.46-3.21,3.76-8.08,8.13-15.89,13.07-23.31,1.24-1.86,2.51-3.69,3.82-5.5.63-.87,1.27-1.74,1.92-2.61.25-.34.51-.67.77-1.01.17-.22.35-.44.52-.66,2.65-3.36,5.42-6.61,8.33-9.75,1.68-1.82,3.4-3.57,5.16-5.29,9.81,31.3,28.24,59.54,53.6,81.55,25.04,21.73,55.5,36.65,89.57,44.09-.93,6.02-1.87,12.04-2.8,18.06-3.43-.27-6.87-.06-10.21.92-3.31.97-5.73,4.69-4.62,8.13.48,1.49,1.44,2.77,2.66,3.64H83.99c-7.4,0-13.42-6.02-13.42-13.42ZM530.28,466.28c-2.66.27-5.22,2.21-5.82,4.83-.27,1.17-.24,2.33.03,3.39-2.95,3.86-6.14,7.62-9.58,11.25-33.79,35.62-87.46,54.88-147.18,52.83-11.66-.4-23.01-1.67-33.96-3.73-.22-.09-.45-.16-.67-.21-.41-.09-.83-.14-1.27-.16-70.18-13.87-123.94-60.71-141.41-123.91,1.19-1,2.39-1.99,3.6-2.96.26-.2.76-.59.96-.75.49-.37.98-.73,1.47-1.09.93-.68,1.87-1.35,2.82-2.01,1.93-1.34,3.9-2.64,5.9-3.88,3.96-2.47,8.06-4.72,12.25-6.76,3.12-1.51,4.2-6.2,2.37-9.04-2.06-3.2-5.71-3.99-9.04-2.37-8.31,4.04-16.21,8.97-23.6,14.56-.6-3.28-1.12-6.6-1.53-9.96-7.5-61.64,40.24-113.42,122.65-138.4.25.05.51.11.76.15,2.59.44,5.16.66,7.73.74.48,1.01.99,2.02,1.54,3,1.45,2.6,3.21,5,5.08,7.32,1,1.24,3.16,1.94,4.67,1.94,1.62,0,3.56-.72,4.67-1.94,1.16-1.26,2.01-2.91,1.94-4.67,0-.09-.02-.16-.02-.25.18-.25.35-.51.48-.79,2.19-4.52,4.23-9.12,6.29-13.71,8.66-1.7,17.61-3.14,26.84-4.3,8.86-1.12,17.53-1.67,25.97-1.67,37.19,0,69.97,10.77,95.88,31.69,33.78,27.28,54.84,70.64,59.32,122.09,2.49,28.67-4.1,55.5-19.16,78.77ZM304.29,218.74c1.65-3.69,3.51-7.29,4.83-11.12,1.39-4.06,2.07-8.26,2.6-12.5.93-7.43.71-14.92.83-22.39.06-3.86.23-7.72.69-11.55.35-2.18.82-4.34,1.44-6.45,4.58,1.17,9.32,1.79,14.04,1.88-3.43,9.08-6.88,18.15-10.08,27.31-4.01,11.49-7.26,23.44-7.61,35.67-.12,4.06.1,8.17.69,12.22-1.09-.25-2.16-.56-3.21-.94-.96-.47-1.87-1.01-2.75-1.62-.56-.49-1.09-1.01-1.59-1.56-.36-.52-.68-1.07-.97-1.63-.13-.4-.24-.81-.33-1.22-.02-.48-.02-.96,0-1.44.32-1.6.82-3.14,1.42-4.66ZM345.78,148.65c.17-.34.3-.7.46-1.05.89-1.98,1.99-3.74,3.16-5.54.11-.13.23-.26.35-.39.41-.45.85-.88,1.31-1.28.03-.03.06-.05.09-.07.01,0,.01,0,.02-.01.56-.35,1.13-.67,1.71-1,.02-.01.03-.02.05-.03.25-.08.51-.17.56-.19.62-.2,1.24-.37,1.87-.51.56-.13,1.13-.24,1.71-.33.16-.03,1.56-.33.42-.07-1.11.25.39-.04.64-.06,2.38-.25,4.76-.46,7.15-.58,2.39-.12,4.79-.14,7.18.07.25.02.51.05.76.07.04,0,.08,0,.11.01.31.06.63.12.93.18,1.15.23,2.29.54,3.39.94.02,0,.04.02.06.02.07.02.15.05.22.09,0,0,0,0,0,0,.13.06.27.11.4.14-.1-.02-.17-.04-.25-.06.44.22.87.44,1.29.7.15.09.31.21.46.34.05-.02.21.04.46.25.06.05.12.11.18.17.04.02.08.05.13.06-.04-.01-.07-.03-.1-.04.17.15.34.3.5.45.41.39.79.8,1.16,1.22.02,0,.21.19.34.37,0,.01.01.02.02.03.1.13.2.26.31.38-.1-.1-.16-.18-.24-.26.66.98,1.27,1.97,1.78,3.03.08.16.15.34.22.51.16.46.32.91.47,1.37.19.63.35,1.26.49,1.9.05.25.1.5.15.75,0-.06,0-.12,0-.19,0,.08,0,.16,0,.25.05.3.04.62.02.72.05.75.16,1.51.15,2.26,0,.99-.08,1.96-.17,2.95,0,.03-.01.06-.02.08-.08.45-.17.91-.27,1.36-.2.88-.44,1.76-.73,2.62-.15.44-.3.88-.47,1.31-.39.81-.77,1.61-1.21,2.39-.41.73-.85,1.45-1.32,2.16-.28.42-.56.83-.85,1.23-.11.16-.33.43-.51.65-1.04,1.25-2.08,2.48-3.2,3.66-5.65,5.92-12.17,10.93-18.16,16.49-7.22,6.69-13.29,14.29-18.19,22.83-3.53,6.14-6.52,12.56-9.43,19.02-2.13.47-4.25.95-6.35,1.45-.06-.35-.13-.69-.19-1.04-.04-.25-.08-.49-.12-.74,0,.03,0,.05,0,.08,0-.04,0-.08,0-.11-.01-.08-.03-.16-.04-.23-.04-.26-.03-.58,0-.66-.08-.88-.24-1.78-.3-2.64-.17-2.51-.19-5.02-.08-7.53.05-1.15.13-2.3.23-3.44.06-.68.14-1.36.22-2.05.01-.1.02-.23.03-.36.04-.31.1-.61.14-.92.86-5.59,2.24-11.1,3.89-16.51,3.44-11.26,7.85-22.22,11.96-33.24,1.08-2.88,2.15-5.77,3.23-8.65.44-1.17.87-2.35,1.32-3.51.19-.49.38-.97.57-1.45-.03.06-.06.13-.1.2ZM352.47,139.45s.18-.08.38-.15c-.19.1-.38.18-.38.15ZM384.78,146.54s.02.04.03.05c0,0-.02-.03-.03-.05ZM385.79,156.01c.03-.26.06-.5.06-.49.02.13-.02.32-.06.49ZM384.16,161.84c-.05.14-.1.31-.16.38,0,0,.07-.17.16-.38ZM139.39,497.3s.02.04.03.05c-.03-.03-.06-.05-.1-.08,0,0,0,0,0-.01.03.02.05.03.07.04ZM125.28,494.82c.06-.06.08.43.1.79-.11-.36-.18-.69-.1-.79ZM125.75,496.66s0,0,0,0c-.08-.21-.22-.57-.33-.92,0-.13-.03-.26-.03-.39-.02-.33,0-.65,0-.97.05-.18.1-.36.15-.54.07-.12.14-.24.22-.35.03-.04.07-.07.11-.11.29.16.58.31.88.46.49.66,1.09,1.24,1.78,1.67-.89.44-1.76.92-2.62,1.43-.05-.09-.1-.18-.15-.26ZM139.33,497.31s.05.04.07.06c0,0,.03.02.04.04.02.11.03.11.03.03,0,0,0,0,0,0,.03.05.07.1.1.14.34.49-.12.43-.25-.28ZM139.6,497.49s-.04-.07-.06-.1c.09.06.15.12.15.15,0,.01-.04,0-.08-.04ZM138.7,496.99s-.05-.08-.08-.12c.04.02.08.04.13.07-.02.02-.03.03-.05.05ZM138.56,496.79s0-.01-.01-.02c.07.04.16.07.22.11.02.02-.07-.03-.21-.09ZM139.7,497.66c.08.08.15.16.16.2,0,.05-.06-.05-.16-.2ZM149.82,484.55s.06,0,.07.01c-.02,0-.05,0-.07-.01ZM578.27,575.54h-234.17c-.19-1.55-.71-3.05-1.55-4.29-1.97-2.88-5.07-4.49-8.36-5.61.95-6.14,1.9-12.27,2.85-18.41,9.85,1.57,19.96,2.55,30.31,2.9,3.01.1,5.99.15,8.97.15,59.44,0,112.63-20.38,146.98-56.58,3.86-4.07,7.43-8.31,10.72-12.7.33.13.67.25,1,.38,0,0,.01,0,.02,0,.07.03.15.06.22.09.48.21.96.43,1.44.65.95.44,1.9.91,2.84,1.39,2.22,1.14,4.38,2.41,6.48,3.77-1.23,1.58-2.5,3.23-3.44,4.96-1.36,2.51-1.7,5.66-.22,8.21,1.26,2.17,3.16,3.37,5.46,4.22,5.01,1.86,11.03,1.31,15.81-1.1.03.04.06.08.08.11.63.85,1.23,1.71,1.82,2.58,1.94,2.85,5.9,4.4,9.04,2.37,2.84-1.83,4.45-5.98,2.37-9.04-1.31-1.93-2.71-3.8-4.17-5.62.78-1.69,1.33-3.5,1.68-5.37,2.05-.22,4.02-1.32,5.01-3.19,1.69-3.19.8-7.15-2.37-9.04-5.04-3-11.47-3.21-16.87-1.04-1.68.68-3.21,1.51-4.65,2.46-3.47-2.44-7.13-4.62-10.96-6.49-1.01-.49-2.03-.96-3.05-1.41,15.17-24.84,21.97-53.61,19.38-83.38-2.48-28.48-9.82-54.67-21.4-77.37,1.98-.19,3.96-.31,5.95-.34,2.26-.03,4.52.06,6.77.24,1.03.09,2.06.27,3.08.32-.11,0-.21-.01-.3-.02.17.01.34.03.46.05.64.1,1.28.21,1.91.32,4.39.8,8.7,1.99,12.88,3.57.48.18.97.37,1.45.56.18.07.36.15.53.22,1.01.46,2.02.91,3.02,1.41.56.28,1.1.58,1.65.87-.15,3.37.38,6.81,2.18,9.62,2.81,4.37,7.81,6.29,12.56,5.38v230.76c0,7.4-6.02,13.42-13.42,13.42Z"/>
    <path class="cls-1" d="M307.74,368.21c-19.65,0-35.63,15.98-35.63,35.63s15.98,35.63,35.63,35.63,35.63-15.98,35.63-35.63-15.98-35.63-35.63-35.63ZM307.74,427.92c-13.28,0-24.08-10.8-24.08-24.08s10.8-24.08,24.08-24.08,24.08,10.8,24.08,24.08-10.8,24.08-24.08,24.08Z"/>
    <path class="cls-1" d="M463.16,319.51c-23.73,0-43.04,19.31-43.04,43.04s19.31,43.04,43.04,43.04,43.04-19.31,43.04-43.04-19.31-43.04-43.04-43.04ZM463.16,394.03c-17.36,0-31.48-14.12-31.48-31.48s14.12-31.49,31.48-31.49,31.48,14.12,31.48,31.49-14.12,31.48-31.48,31.48Z"/>
    <path class="cls-1" d="M322.07,407.43l-9.08-6.41,6.46-9.39c1.81-2.63,1.15-6.22-1.48-8.03-2.63-1.81-6.22-1.15-8.03,1.48l-6.39,9.28-4.38-3.09c-2.61-1.84-6.21-1.22-8.05,1.39-1.84,2.61-1.22,6.21,1.39,8.05l4.49,3.17-5.91,8.59c-1.81,2.63-1.15,6.22,1.48,8.03,1,.69,2.14,1.02,3.27,1.02,1.84,0,3.64-.87,4.76-2.5l5.84-8.48,8.97,6.33c1.01.71,2.17,1.06,3.33,1.06,1.81,0,3.6-.85,4.72-2.45,1.84-2.61,1.22-6.21-1.39-8.05Z"/>
    <path class="cls-1" d="M480.35,365.41l-9.61-6.61,6.61-9.6c1.81-2.63,1.14-6.22-1.48-8.03-2.63-1.81-6.22-1.14-8.03,1.48l-6.61,9.61-9.6-6.6c-2.63-1.81-6.22-1.14-8.03,1.49-1.81,2.63-1.14,6.22,1.49,8.03l9.6,6.6-6.15,8.93c-1.81,2.63-1.14,6.22,1.48,8.03,1,.69,2.14,1.02,3.27,1.02,1.84,0,3.64-.88,4.76-2.5l6.15-8.94,9.61,6.61c1,.69,2.14,1.02,3.27,1.02,1.84,0,3.64-.88,4.76-2.5,1.81-2.63,1.14-6.22-1.49-8.03Z"/>
    <path class="cls-1" d="M555.05,309.36c-.6-.05-1.23-.07,0,0h0Z"/>
    <path class="cls-1" d="M145.35,471.75c-.03.06-.05.12-.08.18-.05.12-.1.24-.16.37-.02.04-.03.09-.05.13.36-.81.37-.85.29-.68Z"/>
    <path class="cls-1" d="M324.67,228.75c.03.3.04.6.04.89,0,.01,0,.02,0,.03,0-.82-.03-1.01-.05-.93Z"/>
    <path class="cls-1" d="M345.93,148.31s-.04.09-.05.14c.66-1.35.22-.56.05-.14Z"/>
    <path class="cls-1" d="M385.76,151.01c-.02-.24-.02-.48-.02-.72,0-.01,0-.02,0-.04,0,0,0-.01,0-.02-.02.71.01.87.03.77Z"/>
    <path class="cls-1" d="M378.09,139c-.05-.02-.1-.06-.15-.08-.08-.03-.16-.07-.23-.1-.42-.14-.64-.08.38.18Z"/>
    <path class="cls-1" d="M380.51,140.47s-.02-.01-.02-.02c-.22-.1-.43-.25-.64-.42-.07.03.12.24.67.44Z"/>
    <path class="cls-1" d="M382.54,142.55c-.06-.07-.12-.15-.18-.22-.06-.06-.12-.12-.17-.18-.02,0,.09.15.43.52-.03-.04-.05-.08-.08-.12Z"/>
    <path class="cls-1" d="M187.68,539.52c-.25-.08-.17-.04,0,0h0Z"/>
    <path class="cls-1" d="M222.67,504.48c-1.87-1.3-4.03-2.08-6.17-2.18-.98-4.25-4.51-8.03-8.93-8.69-4.21-.63-8.17.77-11.84,2.76-3.07,1.66-5.8,3.79-9.17,4.21,0-.01-.66.02-.77.02-.42,0-.84,0-1.26,0-1.01,0-1.99.05-3,.19-1.96.26-3.8,1.13-5.2,2.54-2.38,2.4-3.47,6.13-3.17,9.46.54,6.06,4.86,11.12,9.93,14.38-4.28,2.82-6.25,9.77-4,14.41,1.71,3.54,5.67,5.68,9.56,5.49,1.06-.05,2.1-.24,3.09-.54,1.59,5.49,6.24,10.15,11.83,11.69,4.15,1.14,8.54.28,12.04-2.21,3.68-2.62,6.16-6.27,7.83-10.42,1.41-3.48,2.1-7.32,2.1-11.1,2.52-1.3,4.48-3.59,5.54-6.24,1.7-4.23,1.09-9.24-.57-13.38-1.68-4.16-4.09-7.79-7.82-10.38ZM216.12,509.71c-.22,0-.16-.01,0,0h0ZM209.07,503.5s.01.04,0,0h0ZM208.42,502.28c.09.12.15.22,0,0h0ZM187.01,533.56s.09-.03.15-.06c0,0,0,0,0,0-.04.02-.09.03-.14.05ZM187.39,533.4s0,0,0,0c0,0,0,0,0,0ZM187.16,533.5s.07-.03.11-.04c-.03.02-.07.03-.11.05,0,0,0,0,0,0ZM187.5,533.39c.09-.02.17-.04.21-.02-.09,0-.14.02-.21.02ZM186.99,533.66c-.13.11-.17.12,0,0h0ZM185.54,537.47c.02.14,0,.14,0,0h0ZM186.99,539.35c-.16-.06-.16-.08,0,0h0ZM188.81,539.56c-.26.05-.28.02,0,0h0ZM202.31,549.35c.46.32.14.11,0,0h0ZM214.01,547.35c-.07.11-.05.08,0,0h0ZM217.88,537.27c0,.06-.04.3-.05.44-.01.07-.02.14-.02.15-.04.23-.08.47-.12.7-.17.87-.37,1.73-.62,2.57-.23.78-.49,1.54-.79,2.29-.08.18-.16.36-.25.53-.19.41-.4.81-.62,1.2-.38.68-.81,1.32-1.24,1.97-.02.03-.04.06-.06.08-.12.15-.24.29-.36.44-.28.32-.57.64-.88.94-.26.26-.54.51-.82.75-.07.06-.14.11-.21.17-.06.04-.12.09-.16.11-.66.42-1.31.81-2.01,1.16,0,0,0,0,0,0-.15.04-.3.11-.44.15-.32.1-.73.12-1.03.26,0,0,0,0,0,0-.11,0-.23.02-.34.03-.4.02-.8,0-1.2-.02-.03,0-.04,0-.06,0-.15-.03-.29-.05-.44-.08-.3-.07-.59-.14-.89-.23-.14-.04-.86-.34-.8-.29-.29-.14-.58-.28-.86-.44-.32-.18-.62-.38-.93-.58-.12-.08-.23-.16-.35-.24-.01,0-.02-.02-.03-.03-.6-.53-1.16-1.07-1.7-1.67-.03-.03-.1-.12-.16-.2-.09-.14-.31-.44-.3-.43-.23-.35-.45-.71-.65-1.09-.09-.18-.35-.82-.35-.78-.11-.31-.22-.62-.3-.95-.06-.22-.15-.83-.16-.83-.02-.32-.05-.64-.05-.96,0-.21.02-.42.03-.63,0-.04,0-.06,0-.09,0-.01,0-.01.01-.03.18-.44.23-.97.38-1.44,1.35-4.12-4.69-6.45-6.85-2.89-.04.06-.29.41-.34.5-.14.16-.28.32-.43.47-.04.03-.22.19-.34.29-.13.09-.32.22-.36.25-.26.16-.54.28-.8.43.7-.4-.01,0-.23.06-.24.07-.48.13-.72.19-.05.01-.08.02-.12.02-.26,0-.52.03-.79.02-.12,0-.26-.03-.37-.06.05.02.12.04.21.07-.22-.07-.47-.11-.7-.17-.06-.02-.1-.03-.15-.05-.21-.12-.43-.27-.65-.37.08.03.13.06.18.08-.1-.05-.23-.14-.34-.24-.03-.03-.15-.18-.25-.29-.07-.14-.24-.42-.29-.49,0-.01,0-.02,0-.03-.04-.21-.1-.42-.15-.64,0-.05,0-.09,0-.17,0-.26.05-.56.03-.82,0-.01,0-.02.01-.04.08-.28.13-.56.22-.84.04-.14.21-.5.22-.53.05-.09.09-.18.14-.27.11-.2.25-.39.37-.59.01-.02.01-.02.02-.04.02-.02.03-.03.07-.05.15-.13.29-.27.43-.41.03-.02.06-.04.1-.07.07-.05.13-.08.17-.11.01,0,.02,0,.03-.01.03,0,.05,0,.08,0,.07.02.16.05.27.08,1.87.59,4.17-.69,4.61-2.62.01-.04,0-.09.02-.13,4.76.68,9.51-.54,12.38-5.19,1.06-1.72.37-4.13-1.35-5.13-1.79-1.05-4.06-.38-5.13,1.35-.05.08-.39.53-.37.53-.06.07-.13.14-.19.21-.1.1-.51.41-.45.38-.06.04-.11.08-.17.11-.01,0-.19.1-.33.17-.14.06-.32.12-.34.13-.18.06-.37.1-.56.15-.09.02-.19.04-.28.05-.05,0-.09,0-.17.01-.45,0-.91,0-1.36,0-.09,0-.26-.02-.37-.03-.11-.02-.22-.04-.33-.06-.53-.1-1.05-.24-1.57-.39-.32-.1-.63-.2-.94-.31-.09-.03-.39-.16-.54-.21-.95-.43-1.87-.92-2.74-1.47-.46-.29-.9-.6-1.34-.92-.33-.24-.52-.39-1.08-.88-.96-.82-1.9-1.71-2.68-2.7-.03-.05-.28-.41-.33-.48-.18-.28-.36-.56-.52-.85-.13-.23-.25-.47-.37-.71-.2-.41-.23-.49-.1-.22-.09-.23-.16-.47-.23-.7-.06-.21-.1-.43-.16-.65-.02-.06-.03-.09-.04-.14,0-.01,0-.01,0-.03-.01-.51-.02-1.02-.03-1.52,0-.08,0-.14,0-.19.01-.04.02-.09.04-.15.05-.22.09-.43.15-.65.06-.24.15-.48.23-.71.05-.09.17-.34.25-.47,0,0,.16-.21.26-.36.09-.09.21-.21.26-.27.08-.05.17-.1.25-.15.05-.02.09-.03.16-.05.02,0,.31-.09.38-.11.36-.05.73-.05,1.08-.05.7-.01,1.4.02,2.1,0,3.43-.08,6.54-1.29,9.53-2.89,2.45-1.31,4.88-2.97,7.28-3.75.27-.09.55-.17.82-.25.27-.07.55-.14.83-.2.15-.03.25-.04.32-.06.25-.02.51-.04.76-.04,0,0,.68.04.79.03.37.07.72.21,1.08.28-.68-.13-.11-.05.19.13,0,0,.21.15.35.25.15.16.5.5.56.55.02.02.04.04.06.07.19.29.36.58.54.87.04.06.08.17.12.27.08.25.14.51.23.76.01.03.02.05.03.07,0,0,0,0,0,0-.03.14-.06.86,0,.73-.02.08-.04.16-.05.24-.02.05-.02.07-.03.1-.07.13-.14.27-.23.39-2.26,3.66,2.88,7.51,5.89,4.54.09-.09.19-.18.28-.26.04-.02.1-.06.22-.14.01,0,.01,0,.03-.01.15-.05.31-.09.46-.13-.81.24-.02.08.36.05.09,0,.2.03.31.05.12.03.77.28.84.29.33.16.65.33.96.52.2.12.39.25.58.38.07.05.13.09.17.13.05.04.11.09.19.16.18.16.36.32.54.48,1.45,1.36,1.91,2.04,2.91,3.99.83,1.6,1.39,3.2,1.76,5.28.08.47.09.54.03.21.03.27.05.53.06.8.02.4.02.8,0,1.2,0,.24-.03.47-.05.71-.01.06-.03.15-.05.26-.12.52-.26,1.02-.42,1.53-.02.07-.04.1-.06.15-.08.17-.17.33-.27.49-.06.1-.23.31-.31.41-.2.21-.39.41-.6.61,0,0,0,0,0,0-.13.09-.26.18-.4.26-.05.03-.1.05-.15.08-1.82-.69-3.64-1.38-5.45-2.07-1.37-.52-3.12.25-3.94,1.34-.91,1.22-1.05,2.82-.29,4.16,1.24,2.21,3.2,3.58,5.43,4.17-.02.48-.04.95-.08,1.43-.02.18-.03.35-.05.53Z"/>
    <path class="cls-1" d="M186.58,539.08c.12.07.17.08,0,0h0Z"/>
    <path class="cls-1" d="M434.87,105.52c.42-.23.84-.44,1.26-.65.08-.04.28-.13.38-.18.11-.04.21-.09.32-.13.88-.34,1.79-.62,2.71-.85.46-.11.92-.21,1.39-.3.25-.05.5-.08.75-.13.94-.1,1.88-.16,2.82-.17.95,0,1.9.04,2.85.14.12.01.24.03.36.04.07.01.16.02.21.03.52.1,1.04.19,1.55.3.92.21,1.83.47,2.73.77.39.14.78.29,1.17.43.27.13.55.25.82.38.84.41,1.65.87,2.43,1.37.35.22.68.47,1.02.7.03.02.04.03.06.04.21.17.42.34.63.52.7.6,1.36,1.25,1.97,1.94.12.13.43.53.52.63.26.35.51.71.75,1.08.46.72.86,1.47,1.21,2.25.03.09.24.63.29.78.16.49.3.98.41,1.48.05.2.09.4.13.6,0,.01.04.24.07.41.01.1.03.21.03.25.02.25.04.51.06.76.05.92.02,1.84-.06,2.75,0,.09-.02.19-.03.28-.02.11-.05.3-.07.4-.09.45-.18.91-.29,1.35-.23.9-.53,1.77-.84,2.65,0,.02-.01.03-.02.05-.09.21-.19.41-.28.62-.2.42-.42.83-.64,1.23-.45.81-.96,1.57-1.5,2.33-.16.19-.31.38-.47.56-.3.35-.61.68-.93,1.01-.28.29-.58.57-.88.84-.15.13-.3.27-.46.4-.09.07-.58.42-.45.34-.65.44-1.3.88-2,1.25-.31.16-.62.3-.93.45-.02,0-.04.02-.06.02-.28.09-.56.2-.84.29-.38.12-.76.22-1.14.31-.17.04-1.06.15-1.09.17-.81.04-1.6.05-2.42.02-.03,0-.04,0-.06,0-.08-.01-.17-.03-.25-.04-.38-.07-.76-.16-1.14-.27-.37-.11-.73-.26-1.1-.37.98.28-.2-.1-.5-.26-.62-.33-1.18-.72-1.75-1.11-.01,0-.01-.01-.02-.02-.13-.12-.26-.22-.39-.34-.32-.29-.63-.59-.92-.9-.24-.25-.47-.51-.69-.77-.02-.02-.14-.18-.23-.29-.02-.03-.04-.06-.06-.08-.47-.69-.92-1.38-1.31-2.12-.19-.37-.37-.74-.54-1.12-.08-.21-.17-.43-.24-.64-.29-.83-.53-1.67-.71-2.53-.05-.25-.14-.89-.16-.92-.03-.3-.07-.61-.08-.91-.05-.86,0-1.7.05-2.55h0c.03-.17.05-.33.09-.5.08-.41.18-.81.3-1.21.12-.4.26-.78.4-1.17-.36,1.03.16-.29.31-.55.2-.36.43-.7.65-1.05,0-.01.02-.03.03-.04.1-.12.28-.32.32-.37.29-.32.6-.6.91-.89.01,0,.03-.02.04-.04.14-.1.49-.37.55-.41,1.68-1.13,2.41-3.3,1.35-5.13-.97-1.67-3.44-2.48-5.13-1.35-14.95,10.06-5.1,36.95,12.74,35.45,9.55-.8,17.07-8.45,19.59-17.43,1.24-4.43,1.28-9.42-.41-13.73-1.8-4.58-4.9-8.31-8.93-11.11-8.63-6-20.77-6.54-29.96-1.52-1.78.97-2.35,3.42-1.35,5.13,1.05,1.79,3.35,2.32,5.13,1.35ZM439.24,127.36s-.01-.02,0,0h0ZM453.95,134.51c.34-.16.16-.07,0,0h0ZM460.01,129.71c-.34.48-.11.15,0,0h0ZM453.38,104.86c.57.22.17.07,0,0h0ZM441.65,103.3s0,0,0,0c-.19.03-.67.07,0,0Z"/>
    <path class="cls-1" d="M120.85,364.65c7.78-2.75,14.29-8.47,16.79-16.48.58-1.87-.69-4.17-2.62-4.61-2.04-.46-3.99.61-4.61,2.62-.11.36-.23.72-.36,1.08-.04.11-.08.21-.12.31-.37.69-.68,1.39-1.09,2.06-.29.48-.61.93-.94,1.39.22-.32-.29.36-.43.53-.27.31-.55.62-.84.92-.48.5-.99.97-1.52,1.42-.06.06-.35.28-.5.41-.19.13-.62.45-.73.52-1.2.82-2.48,1.51-3.8,2.13-.08.04-.13.06-.18.08-.03,0-.05.02-.1.03-.35.13-.71.27-1.06.4-.72.25-1.44.47-2.17.66-.69.18-1.38.33-2.08.45-.18.03-.35.05-.53.09-.38.03-.77.08-1.15.11-1.41.1-2.82.1-4.23-.03-.24-.02-.77-.1-.74-.09-.25-.04-.5-.08-.75-.13-.73-.14-1.45-.32-2.16-.53-.31-.09-.62-.19-.92-.3-.07-.03-.47-.17-.69-.26-.17-.08-.49-.21-.59-.26-.37-.18-.74-.37-1.11-.57-.61-.34-1.2-.71-1.76-1.11-.11-.08-.21-.15-.32-.23-.01-.01-.02-.02-.04-.03-.28-.25-.57-.49-.85-.74-.52-.49-1.02-1.01-1.49-1.55-.22-.25-.63-.85-.22-.25-.24-.35-.5-.69-.73-1.05-.38-.59-.73-1.21-1.04-1.84-.06-.13-.31-.7-.33-.72-.09-.23-.19-.47-.27-.7-.25-.71-.46-1.42-.63-2.15-.08-.32-.14-.64-.2-.96-.04-.2-.15-1.16-.13-.85-.11-1.36-.18-2.71-.1-4.08.02-.33.05-.66.08-1,.02-.15.03-.31.05-.46.12-.74.26-1.48.44-2.22.17-.7.36-1.39.59-2.07.1-.32.21-.64.33-.95.06-.15.31-.78.37-.94.03-.07.06-.13.07-.16.1-.22.2-.43.31-.65.19-.39.39-.77.6-1.14.39-.71.82-1.4,1.27-2.06.11-.16.22-.31.33-.47.03-.04.17-.22.26-.34.04-.06.09-.11.11-.13.15-.18.3-.36.46-.54.52-.6,1.08-1.18,1.66-1.72.31-.29.62-.56.95-.83.09-.07.18-.14.27-.22.03-.02.04-.03.08-.05.7-.47,1.39-.94,2.13-1.34.37-.2.75-.38,1.13-.57.13-.06.26-.11.39-.17-.86.41,0,.01.15-.04.81-.3,1.64-.53,2.48-.72,2.54-.58,3.9-4.53,1.65-6.27-1.26-.98-2.43-2.06-3.48-3.27-.21-.24-.41-.48-.6-.72-.06-.09-.25-.34-.33-.45-.48-.67-.92-1.36-1.33-2.07-.38-.66-.74-1.35-1.06-2.04-.07-.14-.26-.61-.3-.68-.13-.34-.27-.68-.39-1.02-.53-1.51-.93-3.06-1.21-4.63-.03-.2-.17-1.29-.08-.48-.03-.33-.07-.66-.1-.99-.07-.82-.11-1.65-.11-2.48,0-.77.03-1.54.09-2.31.03-.31.06-.63.09-.94-.03.29.09-.6.13-.84.29-1.57.72-3.09,1.27-4.58.05-.14.11-.28.16-.42,0-.02.01-.03.02-.05.14-.3.28-.6.42-.89.37-.74.77-1.45,1.22-2.15.21-.33.42-.65.65-.96.1-.13.19-.27.29-.4,0-.01.01-.02.02-.03.52-.64,1.07-1.25,1.66-1.83.54-.54,1.13-1.04,1.7-1.54.07-.06.11-.1.14-.13.03-.02.07-.05.13-.09.35-.26.71-.51,1.07-.75.64-.42,1.3-.82,1.97-1.19.34-.18.68-.36,1.02-.53.15-.07.3-.14.44-.21,0,0,.46-.21.55-.25.03-.01.06-.02.06-.03.21-.08.41-.16.62-.24.36-.13.72-.26,1.09-.38.79-.26,1.58-.48,2.39-.67.75-.18,1.51-.32,2.27-.44.06,0,.09-.02.13-.02.04,0,.1,0,.19-.02.44-.04.88-.08,1.32-.11,1.6-.1,3.19-.04,4.78.11.08,0,.15.02.23.03.08.01.19.03.24.04.38.07.76.13,1.13.21.8.17,1.6.37,2.39.61.67.21,1.33.45,1.99.7.01,0,.02,0,.03.02.15.07.3.14.45.21.4.19.79.39,1.17.6.68.37,1.34.77,1.97,1.2.36.25.72.51,1.07.77.16.12.32.24.48.36.09.06.13.1.19.14-.02-.01.01.01.16.12,1.65,1.27,3.29,2.62,5.17,3.54,2.09,1.02,4.3,1.63,6.64,1.55,2.42-.08,4.76-.76,7.13-1.2.2-.04.4-.07.61-.1.04,0,.07,0,.13-.01.41-.03.81-.06,1.22-.08.79-.02,1.57.02,2.36.09.1.01.44.06.58.08.39.07.78.16,1.17.25.83.21,1.64.48,2.45.77.04.02.15.06.23.1.1.04.2.09.3.14.36.17.72.35,1.08.54.76.41,1.5.87,2.22,1.36.1.07.6.43.65.47.23.18.45.36.67.55.67.57,1.31,1.18,1.92,1.82.28.3.56.61.83.92.16.18.3.36.46.54,0,0,.1.12.16.2.06.07.12.15.12.16.14.19.28.38.41.58.27.39.53.79.78,1.19.44.71.84,1.43,1.21,2.18.17.35.34.7.49,1.06.11.27.21.55.31.82.26.72.48,1.46.67,2.2.1.4.19.8.27,1.21.05.23.09.46.13.7,0,.04.04.27.06.4.01.14.03.31.03.36.02.18.03.35.04.53.03.41.04.83.04,1.24,0,.9-.03,1.81-.12,2.71-.02.18-.04.35-.06.53,0,.03,0,.04-.01.08-.07.41-.14.82-.22,1.23-.17.82-.37,1.63-.61,2.43-.24.8-.52,1.58-.82,2.36-.02.05-.08.18-.11.27-.05.11-.09.21-.14.32-.2.44-.41.87-.63,1.29-.8,1.56-1.75,3.01-2.76,4.45,0,0-.08.11-.14.19-.09.11-.24.31-.27.35-.27.33-.54.66-.82.98-.56.64-1.14,1.27-1.74,1.87-.6.61-1.23,1.19-1.87,1.76-.32.28-.65.56-.98.83-.09.08-.19.15-.28.23.06-.05-.34.27-.41.32-1.43,1.06-2.92,2.02-4.48,2.87-.75.41-1.51.79-2.29,1.15-.1.05-.49.22-.59.26-.45.19-.91.36-1.36.53-2.01.74-4.07,1.32-6.16,1.76-7.82,1.65-16.4,1.05-24.27-.75-2.03-.47-4.05-1.02-6.04-1.62-1.88-.57-4.17.68-4.61,2.62-.46,2.03.61,4,2.62,4.61,16.93,5.17,37.01,5.78,51.71-5.51,6.42-4.93,11.55-11.63,13.8-19.48,2.22-7.76,1.22-16.04-3-22.94-3.98-6.52-10.68-11.97-18.36-13.25-1.98-.33-3.98-.5-5.99-.29-2.23.24-4.86.99-6.78,1.23-.53.06-1.06.08-1.59.07-.18,0-.37-.01-.55-.03-.08-.02-.33-.07-.36-.08-1.14-.33-1.13-.29-2.29-.97-2.04-1.21-3.16-2.26-4.97-3.61-11.86-8.82-30.17-6.84-40.21,3.9-10.24,10.96-9.85,28.76-.61,40.17-10.8,5.86-16.34,19.96-13.46,31.86,1.69,6.97,6.58,12.92,13.19,15.75,6.58,2.82,14.18,2.93,20.92.54ZM177.05,296.25s.02.04.03.06c.17.38,0,.03-.03-.06ZM157.44,283.34c-.09,0-.13.01,0,0h0ZM102.4,287.38c-.07.17-.21.45,0,0h0Z"/>
    <path class="cls-1" d="M474.77,223.8c7.83,6.95,18.33,9.29,28.44,6.65,4.64-1.21,9.07-3.44,12.8-6.49.78.62,1.6,1.16,2.46,1.59,3.49,1.78,7.44,2.4,11.33,2.41,8.85.02,17.76-2.19,25.86-5.64,7.27-3.1,15.45-7.56,18.2-15.48,1.39-3.99.5-8.19-1.96-11.48,8.25-4.42,14.73-12.57,14.77-22.05.02-5.22-2.2-10.16-6.26-13.48-3.64-2.97-8.13-4.85-12.83-5.1.14-1.78.02-3.56-.39-5.24-2.15-8.75-11.08-13.81-19.02-16.39-8.15-2.65-17.45-3.42-25.7-.77-4.08,1.31-8.01,3.41-11.1,6.41-2.81,2.73-4.84,6.16-6.15,9.83-1.14,3.2-1.61,6.7-1.33,10.12-20.64-.08-40.85,15.99-40.98,37.53-.06,10.2,4.18,20.76,11.87,27.59ZM567.04,202.37c.13.55.03.2,0,0h0ZM579.07,174.99c.02-.18.11-.59,0,0h0ZM511.42,154.48c.02-.23.01-.14,0,0h0ZM489.98,169.01s0,0,0,0c-.21.09-.22.09,0,0ZM472.41,186c-.11.27-.06.15,0,0h0ZM470.79,191.63c.1-.54.21-1.08.34-1.61.27-1.12.61-2.23,1.01-3.32.09-.25.19-.51.29-.76.02-.05.04-.1.05-.12.24-.54.49-1.07.76-1.6.59-1.15,1.25-2.26,1.97-3.33.29-.44.6-.87.91-1.29.05-.06.07-.1.08-.12.03-.03.04-.05.08-.1.15-.18.29-.36.44-.54.83-.99,1.71-1.94,2.64-2.83,2.14-2.06,3.32-2.96,5.81-4.48,1.16-.71,2.36-1.36,3.59-1.95.21-.1.43-.2.64-.3.21-.09.41-.19.62-.28.59-.24,1.18-.47,1.79-.68,1.29-.46,2.6-.85,3.93-1.17.63-.15,1.27-.29,1.91-.42.35-.07.7-.13,1.05-.19.09-.01.45-.06.61-.09,2.19-.26,4.39-.32,6.58-.2,1.02,2.08,2.4,3.99,4.22,5.58,1.52,1.33,3.8,1.5,5.3,0,1.36-1.36,1.53-3.96,0-5.3-.55-.49-1.04-1.01-1.55-1.55-.05-.05-.08-.08-.11-.11-.02-.03-.03-.05-.06-.1-.23-.34-.46-.67-.67-1.02-.18-.3-.35-.61-.51-.93-.11-.21-.31-.72-.27-.59-.22-.63-.44-1.27-.6-1.92-.08-.35-.16-.7-.22-1.05-.06-.34-.08-.89-.04-.22-.05-.78-.12-1.54-.11-2.33,0-.68.06-1.36.12-2.04,0-.01,0-.02,0-.03.02-.13.04-.26.06-.39.08-.42.16-.83.26-1.25.17-.73.38-1.45.62-2.15.1-.28.21-.56.31-.85-.05.14.27-.63.34-.78.3-.63.63-1.24.99-1.83.19-.32.39-.64.6-.95.09-.14.49-.67.52-.71.85-1.04,1.8-2.02,2.86-2.85.07-.04.62-.43.72-.5.37-.25.75-.49,1.13-.72.76-.46,1.55-.85,2.35-1.25.04-.02.24-.11.32-.15.12-.05.24-.1.36-.14.41-.16.83-.31,1.25-.45.84-.28,1.7-.52,2.56-.73.81-.19,1.64-.35,2.46-.47.06,0,.77-.09.9-.1.51-.05,1.03-.09,1.54-.11,1.82-.09,3.64-.05,5.46.11.46.04.91.09,1.37.14,0,0,.15.02.27.04.15.02.44.07.49.08.91.15,1.81.32,2.7.52,1.84.41,3.65.93,5.43,1.56,1.84.65,2.57.95,4.36,1.89.73.39,1.44.8,2.14,1.25.37.24.73.49,1.1.74.03.02.2.15.27.2.15.12.3.24.45.37.66.56,1.29,1.16,1.87,1.8.21.23.42.47.61.72.06.08.16.22.18.25.13.21.28.41.41.62.26.42.51.85.73,1.29.08.17.16.34.24.51.01.04.02.06.03.12.11.39.24.77.33,1.16.07.28.13,1.02.12.74.03.74.05,1.46.02,2.2h0c-.02.14-.07.45-.08.52-.07.34-.16.68-.25,1.01-2.85,1.28-5.26,3.4-6.7,6.34-1.47,3,.94,6.19,4.23,5.51,3.48-.72,6.13-2.9,7.87-5.72.14,0,.28,0,.4-.02.87-.06,1.74-.01,2.61.06-.04,0-.07-.01-.11-.02.05.01.1.02.15.03.03,0,.06,0,.09,0,.12.01.27.05.3.06.07.01.14.02.21.04.5.1,1.01.23,1.5.37.42.12.83.26,1.23.41.12.05.5.21.51.21.05.02.1.05.16.07.9.43,1.77.93,2.59,1.5.02.01.14.1.25.18.1.08.21.16.22.18.33.28.65.57.95.87.34.34.66.71.98,1.07-.02-.03-.04-.06-.06-.1.02.04.05.07.07.11.01.02.03.03.04.05.09.1.19.28.16.25.1.14.2.29.3.43.22.36.43.73.62,1.11.1.2.39.99.04.03.06.16.12.32.18.48.17.49.31.98.42,1.49.04.17.06.34.1.51-.2-.98.04.46.05.67.03.58.04,1.16.01,1.73-.02.34-.05.67-.08,1.01,0,.01,0,.02,0,.04-.24,1.3-.58,2.59-1.09,3.81-.02.04-.05.09-.08.15-.16.3-.3.62-.46.92-.27.51-.57,1-.88,1.49-.28.44-.58.86-.89,1.27-.11.13-.39.47-.4.49-.27.31-.55.62-.83.92-.53.56-1.09,1.1-1.67,1.61-.18.16-.36.31-.54.47-.16.13-.32.26-.48.39-.05.03-.1.08-.18.13-1.18.84-2.4,1.62-3.69,2.29-.32.17-.65.33-.98.48-.07.03-.43.19-.58.26-.62.25-1.25.49-1.89.69-.42.14-.85.23-1.28.35-1.4.03-2.81.37-4.16,1.05-1.65.83-2.24,3.07-1.53,4.68.82,1.86,2.51,2.43,4.42,2.17.68-.09,1.37-.22,2.05-.36.13.05.38.13.47.19.23.13.46.28.68.44.02.02.04.04.07.08.23.24.46.47.69.72.06.1.33.44.37.5.17.28.32.57.48.85.03.06.05.09.08.13,0,.05.02.09.04.18.07.31.17.62.25.94h0c0,.31.01.61.01.92,0,.06,0,.11,0,.16-.02.05-.04.12-.07.21-.14.47-.25.94-.41,1.4-.03.09-.05.16-.07.22-.03.05-.07.11-.13.21-.19.31-.34.64-.54.95-.13.21-.27.4-.4.61-.06.1-.1.16-.13.21-.04.04-.1.1-.18.19-.5.56-1,1.11-1.55,1.62-.28.26-.56.51-.85.75-.16.14-.32.27-.49.4-.05.04-.12.09-.25.19-2.6,1.83-5.39,3.34-8.27,4.67-5.88,2.7-13.18,4.63-19.52,5.21-1.46.13-2.92.23-4.39.22-.73,0-1.46-.03-2.2-.08-.3-.02-.6-.05-.9-.08.12,0-.88-.14-1-.16-.59-.11-1.17-.25-1.74-.42-.34-.1-.67-.22-1.01-.33-.09-.03-.16-.05-.21-.06-.05-.03-.1-.06-.18-.1-.45-.23-.88-.47-1.3-.74,2.22-2.98,3.89-6.36,4.73-10.08.44-1.95-.58-4.09-2.62-4.61-7.88-2.04-12.93,6.53-11.71,13.41.03.18.09.36.14.53-.19.17-.39.35-.58.51-.14.12-.29.23-.43.35-.06.04-.12.09-.16.12-.51.36-1.02.72-1.55,1.06-.88.56-1.79,1.08-2.73,1.55-.42.21-.87.38-1.28.6-.02.01-.02.01-.03.02-.03.01-.04.02-.08.03-.29.11-.59.23-.88.34-.99.36-1.99.67-3.01.93-.51.13-1.02.25-1.53.35-.21.04-.41.08-.62.12-.06.01-.47.08-.71.12-.18.02-.47.06-.47.06-.21.02-.42.04-.62.06-.52.04-1.04.07-1.57.08-1.15.03-2.3,0-3.44-.12-.11-.01-.22-.02-.34-.04-.11-.01-.28-.04-.37-.05-.46-.09-.92-.17-1.38-.27-1.12-.25-2.23-.58-3.3-.98-.09-.03-.18-.07-.26-.1.06.02-.53-.23-.61-.27-.45-.21-.89-.43-1.32-.67-1.01-.54-1.98-1.15-2.91-1.82.01,0-.24-.18-.4-.3-.15-.12-.4-.32-.39-.31-.42-.35-.82-.7-1.22-1.07-.79-.74-1.55-1.52-2.26-2.34-.21-.25-.42-.5-.63-.75-.02-.02-.05-.06-.08-.1-.3-.41-.6-.82-.89-1.24-.65-.95-1.24-1.93-1.78-2.95-.26-.48-.51-.97-.74-1.47-.07-.14-.38-.87-.43-.96-.43-1.06-.81-2.14-1.13-3.23-.29-1.01-.54-2.03-.74-3.05-.1-.49-.17-.98-.26-1.47,0-.06-.02-.1-.02-.15,0-.05,0-.1-.01-.17-.03-.33-.07-.66-.1-.99-.18-2.12-.13-4.24.09-6.35.02-.17.06-.49.07-.55.04-.22.07-.43.11-.65Z"/>
    <path class="cls-1" d="M577.44,167.55c-.07-.1-.14-.2-.2-.3,0,0,0,0-.01-.01.13.2.2.29.21.31Z"/>
    <path class="cls-1" d="M568.63,162.35c-.13-.02-.26-.05-.39-.07-.01,0-.02,0-.04,0,.36.08.46.09.42.07Z"/>
  </g>
</svg>