<?xml version="1.0" encoding="UTF-8"?>
<svg xmlns="http://www.w3.org/2000/svg" viewBox="0 0 841.89 595.28">
  <defs>
    <style>
      .cls-1 {
        fill: #fff;
      }

      .cls-2 {
        isolation: isolate;
      }

      .cls-3 {
        stroke: #231815;
        stroke-miterlimit: 10;
        stroke-width: 1.24px;
      }

      .cls-3, .cls-4 {
        fill: #231815;
      }

      .cls-5 {
        fill: none;
        stroke: #fff;
        stroke-linecap: round;
        stroke-linejoin: round;
        stroke-width: .14px;
      }

      .cls-6 {
        fill: #1e1f1c;
      }

      .cls-7 {
        mix-blend-mode: darken;
      }
    </style>
  </defs>
  <g class="cls-2">
    <g id="_レイヤー_1" data-name="レイヤー 1">
      <g>
        <path class="cls-1" d="M337.92,307.44c2.96,8.25,7.9,14.56,14.99,19.63,2.57-6.51-3.12-9.02-6.16-13.66-1.52-2.31-2.76-4.82-3.46-7.52-1.66.91-3.4,1.78-5.38,1.54Z"/>
        <path class="cls-1" d="M329.46,272.01c-.11,4.63.55,9.32,1.58,13.81,8.56-.17,5.34-8.89,3.8-14.2-1.74,1.43-3.42,1.3-5.38.38Z"/>
        <path class="cls-1" d="M364.84,336.69c.08-1.72.13-12.82-.82-13.42l-5.72.33c.68,2.82.67,5.6.77,8.47.58.05.58,1.1,0,1.16,0,.13,0,.26,0,.39.6.16.58,1.42,0,1.54,0,.26,0,.51,0,.77l.38.19-.38.19c-.01.26.01.51,0,.77l5.77-.39Z"/>
        <path class="cls-1" d="M332.92,288.57c.66,1.16.32,2.57.38,3.85,3.86,1.57,9.75,1.22,10.65-3.68-.73-.84-1.74-1.07-2.51-1.96-.81-.93-1.58-3.99-1.79-3.99-.93.02-1.5,2.69-2.48,3.68-1.05,1.05-2.8,1.81-4.24,2.1Z"/>
        <path class="cls-1" d="M345.29,282.08c-.08.14-.42,2.73-.46,3.21-.05.59-.07.67.54.54,2.86-.64,9.73-5.17,10.21-8.26.21-1.31-.57-10.94-1.71-10.94-.45.51-1.27.92-1.31,1.69-.13,2.24,1.93,6.85.92,9.07-.82,1.81-7.86,4.13-8.2,4.69Z"/>
        <path class="cls-1" d="M363.68,321.68c.47-.47-1.6-7.48-2.47-8.11-.84-.61-5.85-.39-5.44,1.2.21.82,1.04,2.15,1.38,3.24.29.94.64,3.87,1.13,4.27l5.4-.6Z"/>
        <path class="cls-1" d="M338.44,263.19c-1.2-.42-6.42,1.53-7.58,2.34-2.55,1.8-3.75,4.5.25,5.24,1.27-1.34,8.21-3.42,8.31-5.09.03-.51-.41-2.3-.98-2.5Z"/>
        <path class="cls-4" d="M359.07,337.08c-.16,2.85-.29,5.3-1.15,8.08l5.72-.43c.8-2.59,1.07-5.33,1.2-8.04l-5.77.39Z"/>
        <path class="cls-1" d="M336.76,295.89c1.53,2.64,1.67,6.14.39,8.85,5.1,1.52,5.49-6.52,3.5-9-.61-.77-2.97.12-3.88.15Z"/>
        <path class="cls-1" d="M357.91,335.92c.26-6.76-.75-14.93-3.27-21.18-.91.01-1.34,1.32-1.36,2.07.74.44,1.12.87,1.45,1.69,1.23,3.03,2.29,14.11,2.03,17.42h1.15Z"/>
        <path class="cls-1" d="M329.84,285.48c-.76-3.2-1.26-6.54-1.53-9.82-.23-2.77,1.11-4.34-1.92-5.97-.13,2.53.55,13.67,1.93,15.2.24.26,1.28.78,1.53.58Z"/>
        <path class="cls-1" d="M327.15,267.77l4.21-3.68c2.45-1.77,7.43-.79,8.1-4.02-4.75,1.16-11.49,1.73-12.3,7.69Z"/>
        <path class="cls-1" d="M332.15,295.11c-.1.74.77.11,1.19.62.84,1.02,1.47,4.83,1.06,6.07-.22.67-1.4.39-1.1,1.19,4.59,5.03,4.17-6.1,1.91-7.3-.73-.39-2.2-.39-3.06-.59Z"/>
        <path class="cls-1" d="M349.84,267.39l.36,7.85,2.33,1c.37-.52-.8-7.79-1.35-8.46-.44-.53-.71-.43-1.33-.4Z"/>
        <path class="cls-4" d="M356.76,335.92c-.03.4-.76,3.14-.98,3.45-.57.82-1.71.72-1.72.98.56,1.24,1.06,3.25,2.5,3.66.63.01,1.31-7.13,1.35-8.09h-1.15Z"/>
        <path class="cls-1" d="M342.92,279.72c.95,2.99,5.9-.27,7.57-1.48.48-.35,1.07-.4.89-1.22-3.02-1.2-5.39,2.36-8.46,2.7Z"/>
        <path class="cls-1" d="M331.76,259.69c2.43-.14,5.12-1.43,7.52-1.54,1.97-.09,3.55,1.36,3.64-1.15-.71-.65-8.67,1.17-9.99,1.73-.46.2-1.06.39-1.16.96Z"/>
        <path class="cls-1" d="M341.76,294.73c-.2.24,1.09,3.48,1.15,4.44.08,1.25-.11,2.26-.39,3.45l.77.2c1.06-2.58,1.4-5.94-.37-8.3l-1.16.22Z"/>
        <path class="cls-1" d="M332.92,288.57c-.56.11-1.32-.08-1.93,0-.15,2.6.24,3.01,2.31,3.85-.06-1.28.27-2.69-.38-3.85Z"/>
        <path class="cls-1" d="M343.15,258.75c-.27.26-.86.47-.9.72-.03.18.57,2.96.68,3.49.15.69.04.96.95.57,1.15-.48-.23-4.29-.19-5.38-.56-.14-.28.35-.53.6Z"/>
        <path class="cls-1" d="M342.15,281.25c-.21,1.92.09,3.64,1.92,4.62v-3.58s-1.92-1.04-1.92-1.04Z"/>
        <path class="cls-1" d="M339.84,261.23c-.54,1.33-.39,2.2.2,3.47.27.57-.07.95.94.77.02-1.2-.11-2.49-.39-3.66-.14-.58.27-.68-.76-.57Z"/>
        <path class="cls-1" d="M359.07,335.15c.58-.12.6-1.38,0-1.54,0,.51,0,1.03,0,1.54Z"/>
        <path class="cls-1" d="M359.07,333.23c.58-.05.58-1.1,0-1.16.01.38,0,.77,0,1.16Z"/>
        <path class="cls-1" d="M359.07,336.31l.38-.19-.38-.19c0,.13,0,.26,0,.39Z"/>
        <g>
          <path class="cls-4" d="M292.25,380.53c.38-1.29,2.38-1.75,3.29-2.67,1.15-1.16,1.7-2.99,3-3.98,2.58-1.97,5.76-3.19,8.22-5.32,4.66-4.02,8.31-9.21,12.97-13.21,1.81-1.56,4.5-2.47,6.96-2.79,1.12-.15,2.21-.93,3.06-.28.44.34.38,2.13.69,3.01.5,1.4,1.77,2.63,1.89,4.08.55,6.55-1.37,13.61-3.65,19.79-1.91,5.17-4.37,10.31-8.34,14.1-4.06,3.88-9.42,6.74-14.61,8.96-2.71,1.17-6.13,3.22-9.09,2.57-2.91-.64-3.11-3.64-3.2-6.36-.11-3.17-.73-6.33-.71-9.5,0-1.76.94-3.57.71-5.31-.13-.94-1.43-2.11-1.19-3.05.68-2.74-3.55-3.91-4.23-1.17s1.34,5.85,1.38,8.62c.05,3.24-1.42,6.48-1.41,9.72.01,2.95,1.44,5.77,3.56,7.98,2.22,2.32,5.2,3.82,8.28,3.56,6.59-.57,12.01-4.91,17.16-8.86,5.16-3.96,10.6-7.73,13.94-13.38,4.39-7.44,5.08-17.06,4.86-25.65-.09-3.52.44-7.84-1.69-10.78-2.55-3.52-7.06-3.15-10.87-1.49-3.2,1.4-6.38,2.92-8.93,5.25-2.92,2.68-5.09,6.19-8.04,8.83-3.14,2.8-7.03,4.7-10.38,7.25-2.9,2.21-5.77,5.57-6.84,9.23-.8,2.72,2.43,3.58,3.22.87Z"/>
          <path class="cls-4" d="M308.59,399.96c.47-.78,1.35-1.22,1.97-1.87.73-.77,1.01-1.75,1.38-2.72.41-1.05.87-2.11,1.66-2.94s1.76-1.38,2.74-1.91c4.02-2.21,7.69-5.06,10.27-8.9.72-1.08-1.02-2.09-1.74-1.02-1.31,1.96-2.98,3.66-4.82,5.12s-3.78,2.45-5.73,3.63c-1.98,1.2-3.21,2.78-4.09,4.91-.38.93-.59,1.96-1.35,2.65-.72.66-1.51,1.18-2.03,2.03-.67,1.11,1.07,2.13,1.74,1.02h0Z"/>
          <circle class="cls-3" cx="298.99" cy="397.13" r="1.43"/>
          <circle class="cls-4" cx="311.65" cy="377.51" r="2.8"/>
        </g>
        <g class="cls-7">
          <g>
            <g>
              <path class="cls-4" d="M357.42,179.23h-56v-26.66h51.24c4.16,0,5.65-2.48,5.65-6.05v-.69c-3.77.59-7.53.89-11.4.89h-18.24c-23.39,0-31.42-12.49-31.42-26.46v-3.27c0-14.37,7.43-29.24,31.42-29.24h25.57c22.89,0,33.99,12.29,33.99,30.23v31.02c0,16.06-9.61,30.23-30.82,30.23ZM358.31,119.57c0-1.78-.89-3.86-3.47-3.86h-24.38c-2.68,0-3.47,2.08-3.47,3.47v.69c0,2.48,1.68,3.27,3.47,3.27h24.38c2.58,0,3.47-1.59,3.47-2.97v-.59Z"/>
              <path class="cls-4" d="M435.32,138.69v4.76c0,2.68.4,3.17,3.57,3.17h27.25v25.87h-36.57c-16.45,0-22.3-7.73-22.3-19.52v-14.27h-12.39v-26.07h12.39v-11.3h28.05v11.3h32.21v26.07h-32.21Z"/>
              <path class="cls-4" d="M522.33,172.49v-29.04c0-2.68-.99-4.36-4.36-4.36h-8.82c-3.27,0-4.36,1.39-4.36,4.76v28.64h-28.54v-80.97h28.54v22.7c2.18-.89,4.36-1.49,6.54-1.49h16.05c15.86,0,23.49,6.24,23.49,24.48v35.28h-28.54Z"/>
              <path class="cls-4" d="M314.18,209.68v-3.66h-5.89v3.66h-8.47v-14.8c0-7.37,1.69-9.9,9.54-9.9h3.3c7.85,0,9.93,2.53,9.93,9.9v14.8h-8.41ZM314.18,194.88c0-1.55-.24-1.99-1.61-1.99h-2.71c-1.34,0-1.58.45-1.58,1.99v3.42h5.89v-3.42Z"/>
              <path class="cls-4" d="M339.3,209.71v-8.53c0-1.13-.56-1.52-1.61-1.52h-1.9c-1.1,0-1.75.56-1.75,1.52v8.53h-8.65v-11.47c0-3.95,2.23-6.48,6.24-6.48h9.72c4.01,0,6.66,2.53,6.66,6.48v11.47h-8.71Z"/>
              <path class="cls-4" d="M364.07,209.71v-8.53c0-1.13-.56-1.52-1.61-1.52h-1.9c-1.1,0-1.75.56-1.75,1.52v8.53h-8.65v-11.47c0-3.95,2.23-6.48,6.24-6.48h9.72c4.01,0,6.66,2.53,6.66,6.48v11.47h-8.71Z"/>
              <path class="cls-4" d="M375.87,192.14v-6.72h8.53v6.72h-8.53ZM375.87,209.71v-16.2h8.53v16.2h-8.53Z"/>
              <path class="cls-4" d="M407.89,205.13c-1.25,3.72-2.76,4.61-6.48,4.61h-3.21c-3.71,0-5.23-.89-6.48-4.61l-4.49-13.38h8.74l3.03,9.1c.12.36.27.51.77.51h.06c.51,0,.68-.15.8-.51l2.88-9.1h8.89l-4.52,13.38Z"/>
              <path class="cls-4" d="M431.29,202.67h-9.09c.06.59.33,1.04,1.28,1.04h12.84v6h-15.37c-4.58,0-6.48-2.05-6.48-6.9v-5.65c0-2.73,1.72-5.53,5.97-5.53h10.52c3.89,0,5.83,2.08,5.83,5.32v.95c0,2.97-1.25,4.76-5.5,4.76ZM428.79,197.52c0-.36-.27-.65-.77-.65h-4.58c-.77,0-1.28.45-1.28,1.16v.27h5.86c.45,0,.77-.18.77-.62v-.15Z"/>
              <path class="cls-4" d="M450.35,199.66c-1.84,0-2.71,1.22-2.71,2.41v7.64h-8.53v-7.82c0-7.13,4.28-10.14,9.33-10.14h9.42v7.91h-7.52Z"/>
              <path class="cls-4" d="M475.23,209.68h-15.25v-6.15h12.1c.68,0,.8-.15.8-.45v-.09c0-.33-.21-.51-.8-.51h-6.21c-4.34,0-6.27-1.6-6.27-5.17v-.36c0-4.01,2.53-5.26,6.27-5.26h15.46v5.38h-11.8c-.62,0-.86.18-.86.5v.06c0,.3.24.48.86.48h5.71c4.43,0,6.75,1.31,6.75,5.05v.42c0,3.6-1.58,6.09-6.75,6.09Z"/>
              <path class="cls-4" d="M501,209.71h-11.03c-3.92,0-6.09-2.14-6.09-5.02v-1.25c0-2.85,2.11-4.7,5.71-4.7h8.8c0-.62-.27-.95-1.1-.95h-12.48v-6.09h15.37c5.14,0,6.63,2.56,6.63,7.1v6.18c0,2.85-1.99,4.73-5.8,4.73ZM498.24,203.68c0-.24-.18-.48-.65-.48h-4.49c-.56,0-.71.18-.71.48v.24c0,.3.15.51.71.51h4.49c.5,0,.65-.15.65-.51v-.24Z"/>
              <path class="cls-4" d="M520.36,199.66c-1.84,0-2.71,1.22-2.71,2.41v7.64h-8.53v-7.82c0-7.13,4.28-10.14,9.33-10.14h9.42v7.91h-7.52Z"/>
              <path class="cls-4" d="M545.36,210.24h-14.39v-6.81h11.8c.77,0,.98-.39.98-.98v-.27c-.39.12-.77.15-1.16.15h-5.92c-4.73,0-6.66-2.11-6.66-6.21v-4.37h8.29v2.91c0,.95.3,1.1,1.16,1.1h3.12c.83,0,1.16-.21,1.16-1.1v-2.91h8.2v11.86c0,3.27-2.05,6.63-6.6,6.63Z"/>
              <path class="cls-4" d="M299.63,456.52v-7.52h11.22v7.52h-11.22Z"/>
              <path class="cls-4" d="M327.46,463.72h-2.88c-7.64,0-10.29-3.96-10.29-9.24v-14.54h8.66v13.79c0,1.46.76,2.16,2.01,2.16h2.07c1.4,0,2.13-.79,2.13-2.16v-13.79h8.69v14.54c0,5.28-2.71,9.24-10.38,9.24Z"/>
              <path class="cls-4" d="M359.64,463.98c-3.76,0-5.74-2.56-7-5.92l-2.8-7.49c-.06-.26-.15-.35-.23-.35-.12,0-.17.12-.17.38v13.11h-8.04v-16.73c0-4.78,2.83-7.2,6.76-7.2,4.2,0,5.8,2.56,6.62,4.92l2.91,8.42c.06.32.12.41.29.41.12,0,.23-.09.23-.41v-13.14h8.07v16.64c0,5.1-2.54,7.34-6.64,7.34Z"/>
              <path class="cls-4" d="M393.83,463.72v-4.31c0-1.19-.52-1.72-1.75-1.72h-3.35v6.03h-8.89v-23.78h14.75c5.04,0,8.04,1.87,8.04,8.42v1.4c0,1.89-.55,3.38-1.57,4.49,1.2.9,1.63,2.33,1.63,4.37v5.1h-8.86ZM393.97,449.32c0-1.14-.47-1.54-1.75-1.54h-3.5v3.15h3.5c1.31,0,1.75-.61,1.75-1.34v-.26Z"/>
              <path class="cls-4" d="M419.68,463.84h-3.06c-8.39,0-10.35-2.21-10.35-10.23v-3.58c0-7.99,1.95-10.23,10.35-10.23h3.06c7.78,0,10.46,2.24,10.46,10.23v3.58c0,8.01-2.1,10.23-10.46,10.23ZM421.46,450.17c0-1.66-.61-2.74-2.74-2.74h-1.14c-1.72,0-2.74.67-2.74,2.74v3.15c0,2.04.61,2.77,2.74,2.77h1.14c2.13,0,2.74-1.14,2.74-2.77v-3.15Z"/>
              <path class="cls-4" d="M445.97,464.13h-1.37c-8.39,0-11.42-2.59-11.42-10.58v-3.29c0-7.72,2.74-10.75,11.31-10.75h1.34c7.78,0,11.02,3.15,11.02,8.86v1.17h-8.36v-.32c0-1.22-.82-1.84-2.65-1.84h-.93c-2.3,0-3,.99-3,2.88v3.29c0,2.1,1.25,2.77,3.12,2.77h.96c2.01,0,2.65-.96,2.65-2.07v-.64h8.28v1.22c0,6.5-3.21,9.3-10.93,9.3Z"/>
              <path class="cls-4" d="M474.62,463.72v-8.71h-5.48v8.71h-8.74v-23.78h8.74v7.26h5.48v-7.26h8.77v23.78h-8.77Z"/>
              <path class="cls-4" d="M496.04,463.72c-6.94,0-8.95-3.67-8.95-9.03v-4.52c0-6.03,1.28-10.23,9.03-10.23h13.7v7.52h-12.15c-1.11,0-1.66.38-1.84,1.6h12.94v5.6h-12.97c0,1.08.23,1.6,1.87,1.6h12.15v7.46h-13.79Z"/>
              <path class="cls-4" d="M527.58,463.72v-4.31c0-1.19-.52-1.72-1.75-1.72h-3.35v6.03h-8.89v-23.78h14.75c5.04,0,8.04,1.87,8.04,8.42v1.4c0,1.89-.55,3.38-1.57,4.49,1.2.9,1.63,2.33,1.63,4.37v5.1h-8.86ZM527.72,449.32c0-1.14-.47-1.54-1.75-1.54h-3.5v3.15h3.5c1.31,0,1.75-.61,1.75-1.34v-.26Z"/>
              <path class="cls-4" d="M540.17,456.52v-7.52h11.22v7.52h-11.22Z"/>
              <path class="cls-4" d="M302.27,477.7h-.63c-3.84,0-5.23-1.19-5.23-4.84v-1.51c0-3.53,1.25-4.92,5.17-4.92h.61c3.56,0,5.04,1.44,5.04,4.05v.53h-3.83v-.15c0-.56-.37-.84-1.21-.84h-.43c-1.05,0-1.37.45-1.37,1.32v1.51c0,.96.57,1.27,1.43,1.27h.44c.92,0,1.21-.44,1.21-.95v-.29h3.79v.56c0,2.97-1.47,4.25-5,4.25Z"/>
              <path class="cls-4" d="M308.85,477.53v-10.9h3.77v10.9h-3.77Z"/>
              <path class="cls-4" d="M314.37,469.65v-3.01h3.83v3.01h-3.83ZM314.37,477.53v-7.27h3.83v7.27h-3.83Z"/>
              <path class="cls-4" d="M327.23,477.53v-4.07c0-.4-.13-.57-.67-.57v4.64h-2.76v-4.64c-.4.03-.68.2-.68.57v4.07h-3.53v-5.27c0-1.68,1.25-2.79,3.2-2.79h4.79c1.93,0,3.2,1.11,3.2,2.79v5.27h-3.55Z"/>
              <path class="cls-4" d="M338.59,477.53h-3.35c-2.44,0-3.17-1.21-3.17-3.35v-7.56h3.84v2.95c.24-.05.49-.08.76-.08h2.04c2.11,0,3.07,1.25,3.07,3.36v1.29c0,2.25-.81,3.39-3.19,3.39ZM337.94,473.38c0-.2-.11-.36-.43-.36h-1.23c-.17,0-.37.08-.37.32v.29c0,.2.11.36.37.36h1.23c.32,0,.43-.13.43-.4v-.21Z"/>
              <path class="cls-4" d="M343.48,469.65v-3.01h3.83v3.01h-3.83ZM343.48,477.53v-7.27h3.83v7.27h-3.83Z"/>
              <path class="cls-4" d="M354.92,477.53v-3.83c0-.51-.25-.68-.72-.68h-.85c-.49,0-.79.25-.79.68v3.83h-3.88v-5.15c0-1.77,1-2.91,2.8-2.91h4.36c1.8,0,2.99,1.13,2.99,2.91v5.15h-3.91Z"/>
              <path class="cls-4" d="M369.33,471.1v.33c0,1.21-.15,1.69-1.89,1.69h-3.01v.59h3.08c1.89,0,2.4.83,2.4,1.83v.37c0,1.36-.56,1.88-2.4,1.88h-5.25c-2.01,0-2.53-.36-2.53-1.88v-.37c0-.93.19-1.53,1.39-1.75v-.72c-.89-.16-1.04-.64-1.04-1.64v-.29c0-1.04.17-1.65,1.91-1.65h4.67v-.53l3.88-.76v2.69l-1.19.21ZM365.45,471.3c0-.17-.12-.29-.44-.29h-.63c-.32,0-.43.12-.43.29h0c0,.21.08.32.43.32h.63c.33,0,.44-.09.44-.31h0ZM365.78,475.69c0-.15-.08-.25-.43-.25h-1.07c-.29,0-.33.13-.33.25v.08c0,.21.03.31.33.31h1.07c.37,0,.43-.09.43-.31v-.08Z"/>
              <path class="cls-4" d="M384.9,476.59v1.85h-4.89c-2.11,0-3.81-1.03-3.81-3.64v-.35c0-.71.28-1.76,1.48-2.6-.41-.43-.75-.96-.75-1.4v-.6c0-2.16,1.39-3.56,4.76-3.56h.33c3.49,0,4.62,1.36,4.62,3.44v.47c0,1.04-.76,2.11-2.25,2.6l3.77,2.16v3.67l-3.25-2.04ZM380.6,473.86c-.45.21-.63.4-.63.56v.17c0,.29.36.48.84.48h1.72l-1.93-1.21ZM383,469.83c0-.25-.33-.36-1.04-.36h-.17c-1.11,0-1.28.27-1.28.59v.28c0,.08.09.21.29.39,1.93-.39,2.2-.45,2.2-.76v-.13Z"/>
              <path class="cls-4" d="M399.69,477.7h-.63c-3.84,0-5.23-1.19-5.23-4.84v-1.51c0-3.53,1.25-4.92,5.17-4.92h.61c3.56,0,5.04,1.44,5.04,4.05v.53h-3.83v-.15c0-.56-.37-.84-1.21-.84h-.43c-1.05,0-1.37.45-1.37,1.32v1.51c0,.96.57,1.27,1.43,1.27h.44c.92,0,1.21-.44,1.21-.95v-.29h3.79v.56c0,2.97-1.47,4.25-5,4.25Z"/>
              <path class="cls-4" d="M413.63,477.53h-4.95c-1.76,0-2.73-.96-2.73-2.25v-.56c0-1.28.95-2.11,2.56-2.11h3.95c0-.28-.12-.43-.49-.43h-5.6v-2.73h6.89c2.31,0,2.97,1.15,2.97,3.19v2.77c0,1.28-.89,2.12-2.6,2.12ZM412.39,474.82c0-.11-.08-.21-.29-.21h-2.01c-.25,0-.32.08-.32.21v.11c0,.13.07.23.32.23h2.01c.23,0,.29-.07.29-.23v-.11Z"/>
              <path class="cls-4" d="M422.84,472.97v4.56h-3.85v-4.56h-1.88v-3.04h1.88v-.36c0-2.03.91-2.93,3.24-2.93h4.2v2.85h-2.92c-.37,0-.59.16-.64.44h3.56v3.04h-3.59Z"/>
              <path class="cls-4" d="M434.85,474.37h-4.08c.03.27.15.47.57.47h5.76v2.69h-6.9c-2.05,0-2.91-.92-2.91-3.09v-2.53c0-1.23.77-2.48,2.68-2.48h4.72c1.75,0,2.61.93,2.61,2.39v.43c0,1.33-.56,2.13-2.47,2.13ZM433.73,472.06c0-.16-.12-.29-.35-.29h-2.05c-.35,0-.57.2-.57.52v.12h2.63c.2,0,.35-.08.35-.28v-.07Z"/>
              <path class="cls-4" d="M459.98,477.53h-5.03c-2.05,0-3.24-1.24-3.24-3.12v-4.92h3.53v4.01c0,.51.24.64.75.64h.08v-4.65h2.76v4.65h.11c.51,0,.75-.13.75-.64v-4.01h3.53v4.92c0,1.88-1.17,3.12-3.24,3.12Z"/>
              <path class="cls-4" d="M471.93,477.53h-4.95c-1.76,0-2.73-.96-2.73-2.25v-.56c0-1.28.95-2.11,2.56-2.11h3.95c0-.28-.12-.43-.49-.43h-5.6v-2.73h6.89c2.31,0,2.97,1.15,2.97,3.19v2.77c0,1.28-.89,2.12-2.6,2.12ZM470.69,474.82c0-.11-.08-.21-.29-.21h-2.01c-.25,0-.32.08-.32.21v.11c0,.13.07.23.32.23h2.01c.23,0,.29-.07.29-.23v-.11Z"/>
              <path class="cls-4" d="M480.62,473.02c-.83,0-1.21.55-1.21,1.08v3.43h-3.83v-3.51c0-3.2,1.92-4.55,4.19-4.55h4.23v3.55h-3.37Z"/>
              <path class="cls-4" d="M492.59,474.37h-4.08c.03.27.15.47.57.47h5.76v2.69h-6.9c-2.05,0-2.91-.92-2.91-3.09v-2.53c0-1.23.77-2.48,2.68-2.48h4.72c1.75,0,2.61.93,2.61,2.39v.43c0,1.33-.56,2.13-2.47,2.13ZM491.47,472.06c0-.16-.12-.29-.35-.29h-2.05c-.35,0-.57.2-.57.52v.12h2.63c.2,0,.35-.08.35-.28v-.07Z"/>
              <path class="cls-4" d="M502.7,477.53v-3.91c0-.36-.13-.59-.59-.59h-1.19c-.44,0-.59.19-.59.64v3.85h-3.84v-10.9h3.84v3.05c.29-.12.59-.2.88-.2h2.16c2.13,0,3.16.84,3.16,3.29v4.75h-3.84Z"/>
              <path class="cls-4" d="M514.44,477.59h-3c-2.45,0-3.52-1.15-3.52-3.28v-1.65c0-2.09,1.09-3.25,3.52-3.25h3c2.49,0,3.45,1.29,3.45,3.21v1.76c0,1.93-.96,3.21-3.45,3.21ZM514.3,473.33c0-.25-.15-.51-.53-.51h-1.68c-.41,0-.55.27-.55.51v.35c0,.31.09.52.55.52h1.68c.44,0,.53-.29.53-.52v-.35Z"/>
              <path class="cls-4" d="M525.92,477.54h-4.32c-1.76,0-2.76-.75-2.76-2.84v-5.21h3.83v3.97c0,.32.15.53.44.53h1.31c.28,0,.44-.12.44-.53v-3.97h3.84v5.21c0,1.83-1.03,2.84-2.77,2.84Z"/>
              <path class="cls-4" d="M536.43,477.51h-6.84v-2.76h5.43c.31,0,.36-.07.36-.2v-.04c0-.15-.09-.23-.36-.23h-2.79c-1.95,0-2.81-.72-2.81-2.32v-.16c0-1.8,1.13-2.36,2.81-2.36h6.93v2.41h-5.29c-.28,0-.39.08-.39.23v.03c0,.13.11.21.39.21h2.56c1.99,0,3.03.59,3.03,2.27v.19c0,1.61-.71,2.73-3.03,2.73Z"/>
              <path class="cls-4" d="M547.88,474.37h-4.08c.03.27.15.47.57.47h5.76v2.69h-6.9c-2.05,0-2.91-.92-2.91-3.09v-2.53c0-1.23.77-2.48,2.68-2.48h4.72c1.75,0,2.61.93,2.61,2.39v.43c0,1.33-.56,2.13-2.47,2.13ZM546.76,472.06c0-.16-.12-.29-.35-.29h-2.05c-.35,0-.57.2-.57.52v.12h2.63c.2,0,.35-.08.35-.28v-.07Z"/>
              <path class="cls-4" d="M315.84,500.86h-7.06v5.34h-9.49v-26.07h16.61c5.27,0,8.85,2.56,8.85,9.49v2.08c0,5.46-2.68,9.17-8.91,9.17ZM315.2,490.41c0-1.57-.51-1.76-1.92-1.76h-4.5v3.58h4.5c1.37,0,1.92-.38,1.92-1.53v-.29Z"/>
              <path class="cls-4" d="M340.09,495.43c-1.98,0-2.91,1.31-2.91,2.59v8.21h-9.17v-8.4c0-7.67,4.6-10.9,10.03-10.9h10.13v8.5h-8.08Z"/>
              <path class="cls-4" d="M366.07,506.38h-7.19c-5.88,0-8.44-2.75-8.44-7.86v-3.96c0-5.02,2.62-7.8,8.44-7.8h7.19c5.98,0,8.28,3.1,8.28,7.7v4.22c0,4.63-2.3,7.7-8.28,7.7ZM365.72,496.16c0-.61-.35-1.21-1.28-1.21h-4.03c-.99,0-1.31.64-1.31,1.21v.83c0,.73.22,1.25,1.31,1.25h4.03c1.05,0,1.28-.7,1.28-1.25v-.83Z"/>
              <path class="cls-4" d="M392.59,504.24h-6.61v2.59h-9.33v-13.04c0-4.76,2.14-6.87,7.44-6.87h8.75c4.86,0,7.48,2.08,7.48,6.84v3.29c0,5.14-2.3,7.19-7.73,7.19ZM391.34,495.46c0-.32-.25-.83-.93-.83h-3.51c-.61,0-.93.38-.93.89v.29c0,.58.29.86.93.86h3.51c.67,0,.93-.42.93-.83v-.38Z"/>
              <path class="cls-4" d="M419.05,506.19h-16.39v-6.61h13c.74,0,.86-.16.86-.48v-.1c0-.35-.22-.54-.86-.54h-6.68c-4.67,0-6.74-1.73-6.74-5.56v-.38c0-4.31,2.72-5.66,6.74-5.66h16.62v5.78h-12.68c-.67,0-.93.19-.93.54v.06c0,.32.25.51.93.51h6.13c4.76,0,7.25,1.41,7.25,5.43v.45c0,3.87-1.69,6.55-7.25,6.55Z"/>
              <path class="cls-4" d="M451.38,495.33v1.53c0,.86.13,1.02,1.15,1.02h8.79v8.34h-11.79c-5.3,0-7.19-2.49-7.19-6.29v-4.6h-3.99v-8.4h3.99v-3.64h9.04v3.64h10.38v8.4h-10.38Z"/>
              <path class="cls-4" d="M479.28,506.38h-7.19c-5.88,0-8.44-2.75-8.44-7.86v-3.96c0-5.02,2.62-7.8,8.44-7.8h7.19c5.98,0,8.28,3.1,8.28,7.7v4.22c0,4.63-2.3,7.7-8.28,7.7ZM478.93,496.16c0-.61-.35-1.21-1.28-1.21h-4.03c-.99,0-1.31.64-1.31,1.21v.83c0,.73.22,1.25,1.31,1.25h4.03c1.05,0,1.28-.7,1.28-1.25v-.83Z"/>
              <path class="cls-4" d="M516.7,506.19v-3.93h-6.33v3.93h-9.11v-15.91c0-7.92,1.82-10.64,10.26-10.64h3.55c8.43,0,10.67,2.72,10.67,10.64v15.91h-9.04ZM516.7,490.28c0-1.66-.25-2.14-1.73-2.14h-2.91c-1.44,0-1.69.48-1.69,2.14v3.67h6.33v-3.67Z"/>
              <path class="cls-4" d="M529.74,506.23v-26.11h9.04v26.11h-9.04Z"/>
              <path class="cls-4" d="M542.93,506.23v-26.11h9.04v26.11h-9.04Z"/>
            </g>
            <g>
              <path class="cls-5" d="M357.42,179.23h-56v-26.66h51.24c4.16,0,5.65-2.48,5.65-6.05v-.69c-3.77.59-7.53.89-11.4.89h-18.24c-23.39,0-31.42-12.49-31.42-26.46v-3.27c0-14.37,7.43-29.24,31.42-29.24h25.57c22.89,0,33.99,12.29,33.99,30.23v31.02c0,16.06-9.61,30.23-30.82,30.23ZM358.31,119.57c0-1.78-.89-3.86-3.47-3.86h-24.38c-2.68,0-3.47,2.08-3.47,3.47v.69c0,2.48,1.68,3.27,3.47,3.27h24.38c2.58,0,3.47-1.59,3.47-2.97v-.59Z"/>
              <path class="cls-5" d="M435.32,138.69v4.76c0,2.68.4,3.17,3.57,3.17h27.25v25.87h-36.57c-16.45,0-22.3-7.73-22.3-19.52v-14.27h-12.39v-26.07h12.39v-11.3h28.05v11.3h32.21v26.07h-32.21Z"/>
              <path class="cls-5" d="M522.33,172.49v-29.04c0-2.68-.99-4.36-4.36-4.36h-8.82c-3.27,0-4.36,1.39-4.36,4.76v28.64h-28.54v-80.97h28.54v22.7c2.18-.89,4.36-1.49,6.54-1.49h16.05c15.86,0,23.49,6.24,23.49,24.48v35.28h-28.54Z"/>
              <path class="cls-5" d="M314.18,209.68v-3.66h-5.89v3.66h-8.47v-14.8c0-7.37,1.69-9.9,9.54-9.9h3.3c7.85,0,9.93,2.53,9.93,9.9v14.8h-8.41ZM314.18,194.88c0-1.55-.24-1.99-1.61-1.99h-2.71c-1.34,0-1.58.45-1.58,1.99v3.42h5.89v-3.42Z"/>
              <path class="cls-5" d="M339.3,209.71v-8.53c0-1.13-.56-1.52-1.61-1.52h-1.9c-1.1,0-1.75.56-1.75,1.52v8.53h-8.65v-11.47c0-3.95,2.23-6.48,6.24-6.48h9.72c4.01,0,6.66,2.53,6.66,6.48v11.47h-8.71Z"/>
              <path class="cls-5" d="M364.07,209.71v-8.53c0-1.13-.56-1.52-1.61-1.52h-1.9c-1.1,0-1.75.56-1.75,1.52v8.53h-8.65v-11.47c0-3.95,2.23-6.48,6.24-6.48h9.72c4.01,0,6.66,2.53,6.66,6.48v11.47h-8.71Z"/>
              <path class="cls-5" d="M375.87,192.14v-6.72h8.53v6.72h-8.53ZM375.87,209.71v-16.2h8.53v16.2h-8.53Z"/>
              <path class="cls-5" d="M407.89,205.13c-1.25,3.72-2.76,4.61-6.48,4.61h-3.21c-3.71,0-5.23-.89-6.48-4.61l-4.49-13.38h8.74l3.03,9.1c.12.36.27.51.77.51h.06c.51,0,.68-.15.8-.51l2.88-9.1h8.89l-4.52,13.38Z"/>
              <path class="cls-5" d="M431.29,202.67h-9.09c.06.59.33,1.04,1.28,1.04h12.84v6h-15.37c-4.58,0-6.48-2.05-6.48-6.9v-5.65c0-2.73,1.72-5.53,5.97-5.53h10.52c3.89,0,5.83,2.08,5.83,5.32v.95c0,2.97-1.25,4.76-5.5,4.76ZM428.79,197.52c0-.36-.27-.65-.77-.65h-4.58c-.77,0-1.28.45-1.28,1.16v.27h5.86c.45,0,.77-.18.77-.62v-.15Z"/>
              <path class="cls-5" d="M450.35,199.66c-1.84,0-2.71,1.22-2.71,2.41v7.64h-8.53v-7.82c0-7.13,4.28-10.14,9.33-10.14h9.42v7.91h-7.52Z"/>
              <path class="cls-5" d="M475.23,209.68h-15.25v-6.15h12.1c.68,0,.8-.15.8-.45v-.09c0-.33-.21-.51-.8-.51h-6.21c-4.34,0-6.27-1.6-6.27-5.17v-.36c0-4.01,2.53-5.26,6.27-5.26h15.46v5.38h-11.8c-.62,0-.86.18-.86.5v.06c0,.3.24.48.86.48h5.71c4.43,0,6.75,1.31,6.75,5.05v.42c0,3.6-1.58,6.09-6.75,6.09Z"/>
              <path class="cls-5" d="M501,209.71h-11.03c-3.92,0-6.09-2.14-6.09-5.02v-1.25c0-2.85,2.11-4.7,5.71-4.7h8.8c0-.62-.27-.95-1.1-.95h-12.48v-6.09h15.37c5.14,0,6.63,2.56,6.63,7.1v6.18c0,2.85-1.99,4.73-5.8,4.73ZM498.24,203.68c0-.24-.18-.48-.65-.48h-4.49c-.56,0-.71.18-.71.48v.24c0,.3.15.51.71.51h4.49c.5,0,.65-.15.65-.51v-.24Z"/>
              <path class="cls-5" d="M520.36,199.66c-1.84,0-2.71,1.22-2.71,2.41v7.64h-8.53v-7.82c0-7.13,4.28-10.14,9.33-10.14h9.42v7.91h-7.52Z"/>
              <path class="cls-5" d="M545.36,210.24h-14.39v-6.81h11.8c.77,0,.98-.39.98-.98v-.27c-.39.12-.77.15-1.16.15h-5.92c-4.73,0-6.66-2.11-6.66-6.21v-4.37h8.29v2.91c0,.95.3,1.1,1.16,1.1h3.12c.83,0,1.16-.21,1.16-1.1v-2.91h8.2v11.86c0,3.27-2.05,6.63-6.6,6.63Z"/>
              <path class="cls-5" d="M299.63,456.52v-7.52h11.22v7.52h-11.22Z"/>
              <path class="cls-5" d="M327.46,463.72h-2.88c-7.64,0-10.29-3.96-10.29-9.24v-14.54h8.66v13.79c0,1.46.76,2.16,2.01,2.16h2.07c1.4,0,2.13-.79,2.13-2.16v-13.79h8.69v14.54c0,5.28-2.71,9.24-10.38,9.24Z"/>
              <path class="cls-5" d="M359.64,463.98c-3.76,0-5.74-2.56-7-5.92l-2.8-7.49c-.06-.26-.15-.35-.23-.35-.12,0-.17.12-.17.38v13.11h-8.04v-16.73c0-4.78,2.83-7.2,6.76-7.2,4.2,0,5.8,2.56,6.62,4.92l2.91,8.42c.06.32.12.41.29.41.12,0,.23-.09.23-.41v-13.14h8.07v16.64c0,5.1-2.54,7.34-6.64,7.34Z"/>
              <path class="cls-5" d="M393.83,463.72v-4.31c0-1.19-.52-1.72-1.75-1.72h-3.35v6.03h-8.89v-23.78h14.75c5.04,0,8.04,1.87,8.04,8.42v1.4c0,1.89-.55,3.38-1.57,4.49,1.2.9,1.63,2.33,1.63,4.37v5.1h-8.86ZM393.97,449.32c0-1.14-.47-1.54-1.75-1.54h-3.5v3.15h3.5c1.31,0,1.75-.61,1.75-1.34v-.26Z"/>
              <path class="cls-5" d="M419.68,463.84h-3.06c-8.39,0-10.35-2.21-10.35-10.23v-3.58c0-7.99,1.95-10.23,10.35-10.23h3.06c7.78,0,10.46,2.24,10.46,10.23v3.58c0,8.01-2.1,10.23-10.46,10.23ZM421.46,450.17c0-1.66-.61-2.74-2.74-2.74h-1.14c-1.72,0-2.74.67-2.74,2.74v3.15c0,2.04.61,2.77,2.74,2.77h1.14c2.13,0,2.74-1.14,2.74-2.77v-3.15Z"/>
              <path class="cls-5" d="M445.97,464.13h-1.37c-8.39,0-11.42-2.59-11.42-10.58v-3.29c0-7.72,2.74-10.75,11.31-10.75h1.34c7.78,0,11.02,3.15,11.02,8.86v1.17h-8.36v-.32c0-1.22-.82-1.84-2.65-1.84h-.93c-2.3,0-3,.99-3,2.88v3.29c0,2.1,1.25,2.77,3.12,2.77h.96c2.01,0,2.65-.96,2.65-2.07v-.64h8.28v1.22c0,6.5-3.21,9.3-10.93,9.3Z"/>
              <path class="cls-5" d="M474.62,463.72v-8.71h-5.48v8.71h-8.74v-23.78h8.74v7.26h5.48v-7.26h8.77v23.78h-8.77Z"/>
              <path class="cls-5" d="M496.04,463.72c-6.94,0-8.95-3.67-8.95-9.03v-4.52c0-6.03,1.28-10.23,9.03-10.23h13.7v7.52h-12.15c-1.11,0-1.66.38-1.84,1.6h12.94v5.6h-12.97c0,1.08.23,1.6,1.87,1.6h12.15v7.46h-13.79Z"/>
              <path class="cls-5" d="M527.58,463.72v-4.31c0-1.19-.52-1.72-1.75-1.72h-3.35v6.03h-8.89v-23.78h14.75c5.04,0,8.04,1.87,8.04,8.42v1.4c0,1.89-.55,3.38-1.57,4.49,1.2.9,1.63,2.33,1.63,4.37v5.1h-8.86ZM527.72,449.32c0-1.14-.47-1.54-1.75-1.54h-3.5v3.15h3.5c1.31,0,1.75-.61,1.75-1.34v-.26Z"/>
              <path class="cls-5" d="M540.17,456.52v-7.52h11.22v7.52h-11.22Z"/>
              <path class="cls-5" d="M302.27,477.7h-.63c-3.84,0-5.23-1.19-5.23-4.84v-1.51c0-3.53,1.25-4.92,5.17-4.92h.61c3.56,0,5.04,1.44,5.04,4.05v.53h-3.83v-.15c0-.56-.37-.84-1.21-.84h-.43c-1.05,0-1.37.45-1.37,1.32v1.51c0,.96.57,1.27,1.43,1.27h.44c.92,0,1.21-.44,1.21-.95v-.29h3.79v.56c0,2.97-1.47,4.25-5,4.25Z"/>
              <path class="cls-5" d="M308.85,477.53v-10.9h3.77v10.9h-3.77Z"/>
              <path class="cls-5" d="M314.37,469.65v-3.01h3.83v3.01h-3.83ZM314.37,477.53v-7.27h3.83v7.27h-3.83Z"/>
              <path class="cls-5" d="M327.23,477.53v-4.07c0-.4-.13-.57-.67-.57v4.64h-2.76v-4.64c-.4.03-.68.2-.68.57v4.07h-3.53v-5.27c0-1.68,1.25-2.79,3.2-2.79h4.79c1.93,0,3.2,1.11,3.2,2.79v5.27h-3.55Z"/>
              <path class="cls-5" d="M338.59,477.53h-3.35c-2.44,0-3.17-1.21-3.17-3.35v-7.56h3.84v2.95c.24-.05.49-.08.76-.08h2.04c2.11,0,3.07,1.25,3.07,3.36v1.29c0,2.25-.81,3.39-3.19,3.39ZM337.94,473.38c0-.2-.11-.36-.43-.36h-1.23c-.17,0-.37.08-.37.32v.29c0,.2.11.36.37.36h1.23c.32,0,.43-.13.43-.4v-.21Z"/>
              <path class="cls-5" d="M343.48,469.65v-3.01h3.83v3.01h-3.83ZM343.48,477.53v-7.27h3.83v7.27h-3.83Z"/>
              <path class="cls-5" d="M354.92,477.53v-3.83c0-.51-.25-.68-.72-.68h-.85c-.49,0-.79.25-.79.68v3.83h-3.88v-5.15c0-1.77,1-2.91,2.8-2.91h4.36c1.8,0,2.99,1.13,2.99,2.91v5.15h-3.91Z"/>
              <path class="cls-5" d="M369.33,471.1v.33c0,1.21-.15,1.69-1.89,1.69h-3.01v.59h3.08c1.89,0,2.4.83,2.4,1.83v.37c0,1.36-.56,1.88-2.4,1.88h-5.25c-2.01,0-2.53-.36-2.53-1.88v-.37c0-.93.19-1.53,1.39-1.75v-.72c-.89-.16-1.04-.64-1.04-1.64v-.29c0-1.04.17-1.65,1.91-1.65h4.67v-.53l3.88-.76v2.69l-1.19.21ZM365.45,471.3c0-.17-.12-.29-.44-.29h-.63c-.32,0-.43.12-.43.29h0c0,.21.08.32.43.32h.63c.33,0,.44-.09.44-.31h0ZM365.78,475.69c0-.15-.08-.25-.43-.25h-1.07c-.29,0-.33.13-.33.25v.08c0,.21.03.31.33.31h1.07c.37,0,.43-.09.43-.31v-.08Z"/>
              <path class="cls-5" d="M384.9,476.59v1.85h-4.89c-2.11,0-3.81-1.03-3.81-3.64v-.35c0-.71.28-1.76,1.48-2.6-.41-.43-.75-.96-.75-1.4v-.6c0-2.16,1.39-3.56,4.76-3.56h.33c3.49,0,4.62,1.36,4.62,3.44v.47c0,1.04-.76,2.11-2.25,2.6l3.77,2.16v3.67l-3.25-2.04ZM380.6,473.86c-.45.21-.63.4-.63.56v.17c0,.29.36.48.84.48h1.72l-1.93-1.21ZM383,469.83c0-.25-.33-.36-1.04-.36h-.17c-1.11,0-1.28.27-1.28.59v.28c0,.08.09.21.29.39,1.93-.39,2.2-.45,2.2-.76v-.13Z"/>
              <path class="cls-5" d="M399.69,477.7h-.63c-3.84,0-5.23-1.19-5.23-4.84v-1.51c0-3.53,1.25-4.92,5.17-4.92h.61c3.56,0,5.04,1.44,5.04,4.05v.53h-3.83v-.15c0-.56-.37-.84-1.21-.84h-.43c-1.05,0-1.37.45-1.37,1.32v1.51c0,.96.57,1.27,1.43,1.27h.44c.92,0,1.21-.44,1.21-.95v-.29h3.79v.56c0,2.97-1.47,4.25-5,4.25Z"/>
              <path class="cls-5" d="M413.63,477.53h-4.95c-1.76,0-2.73-.96-2.73-2.25v-.56c0-1.28.95-2.11,2.56-2.11h3.95c0-.28-.12-.43-.49-.43h-5.6v-2.73h6.89c2.31,0,2.97,1.15,2.97,3.19v2.77c0,1.28-.89,2.12-2.6,2.12ZM412.39,474.82c0-.11-.08-.21-.29-.21h-2.01c-.25,0-.32.08-.32.21v.11c0,.13.07.23.32.23h2.01c.23,0,.29-.07.29-.23v-.11Z"/>
              <path class="cls-5" d="M422.84,472.97v4.56h-3.85v-4.56h-1.88v-3.04h1.88v-.36c0-2.03.91-2.93,3.24-2.93h4.2v2.85h-2.92c-.37,0-.59.16-.64.44h3.56v3.04h-3.59Z"/>
              <path class="cls-5" d="M434.85,474.37h-4.08c.03.27.15.47.57.47h5.76v2.69h-6.9c-2.05,0-2.91-.92-2.91-3.09v-2.53c0-1.23.77-2.48,2.68-2.48h4.72c1.75,0,2.61.93,2.61,2.39v.43c0,1.33-.56,2.13-2.47,2.13ZM433.73,472.06c0-.16-.12-.29-.35-.29h-2.05c-.35,0-.57.2-.57.52v.12h2.63c.2,0,.35-.08.35-.28v-.07Z"/>
              <path class="cls-5" d="M459.98,477.53h-5.03c-2.05,0-3.24-1.24-3.24-3.12v-4.92h3.53v4.01c0,.51.24.64.75.64h.08v-4.65h2.76v4.65h.11c.51,0,.75-.13.75-.64v-4.01h3.53v4.92c0,1.88-1.17,3.12-3.24,3.12Z"/>
              <path class="cls-5" d="M471.93,477.53h-4.95c-1.76,0-2.73-.96-2.73-2.25v-.56c0-1.28.95-2.11,2.56-2.11h3.95c0-.28-.12-.43-.49-.43h-5.6v-2.73h6.89c2.31,0,2.97,1.15,2.97,3.19v2.77c0,1.28-.89,2.12-2.6,2.12ZM470.69,474.82c0-.11-.08-.21-.29-.21h-2.01c-.25,0-.32.08-.32.21v.11c0,.13.07.23.32.23h2.01c.23,0,.29-.07.29-.23v-.11Z"/>
              <path class="cls-5" d="M480.62,473.02c-.83,0-1.21.55-1.21,1.08v3.43h-3.83v-3.51c0-3.2,1.92-4.55,4.19-4.55h4.23v3.55h-3.37Z"/>
              <path class="cls-5" d="M492.59,474.37h-4.08c.03.27.15.47.57.47h5.76v2.69h-6.9c-2.05,0-2.91-.92-2.91-3.09v-2.53c0-1.23.77-2.48,2.68-2.48h4.72c1.75,0,2.61.93,2.61,2.39v.43c0,1.33-.56,2.13-2.47,2.13ZM491.47,472.06c0-.16-.12-.29-.35-.29h-2.05c-.35,0-.57.2-.57.52v.12h2.63c.2,0,.35-.08.35-.28v-.07Z"/>
              <path class="cls-5" d="M502.7,477.53v-3.91c0-.36-.13-.59-.59-.59h-1.19c-.44,0-.59.19-.59.64v3.85h-3.84v-10.9h3.84v3.05c.29-.12.59-.2.88-.2h2.16c2.13,0,3.16.84,3.16,3.29v4.75h-3.84Z"/>
              <path class="cls-5" d="M514.44,477.59h-3c-2.45,0-3.52-1.15-3.52-3.28v-1.65c0-2.09,1.09-3.25,3.52-3.25h3c2.49,0,3.45,1.29,3.45,3.21v1.76c0,1.93-.96,3.21-3.45,3.21ZM514.3,473.33c0-.25-.15-.51-.53-.51h-1.68c-.41,0-.55.27-.55.51v.35c0,.31.09.52.55.52h1.68c.44,0,.53-.29.53-.52v-.35Z"/>
              <path class="cls-5" d="M525.92,477.54h-4.32c-1.76,0-2.76-.75-2.76-2.84v-5.21h3.83v3.97c0,.32.15.53.44.53h1.31c.28,0,.44-.12.44-.53v-3.97h3.84v5.21c0,1.83-1.03,2.84-2.77,2.84Z"/>
              <path class="cls-5" d="M536.43,477.51h-6.84v-2.76h5.43c.31,0,.36-.07.36-.2v-.04c0-.15-.09-.23-.36-.23h-2.79c-1.95,0-2.81-.72-2.81-2.32v-.16c0-1.8,1.13-2.36,2.81-2.36h6.93v2.41h-5.29c-.28,0-.39.08-.39.23v.03c0,.13.11.21.39.21h2.56c1.99,0,3.03.59,3.03,2.27v.19c0,1.61-.71,2.73-3.03,2.73Z"/>
              <path class="cls-5" d="M547.88,474.37h-4.08c.03.27.15.47.57.47h5.76v2.69h-6.9c-2.05,0-2.91-.92-2.91-3.09v-2.53c0-1.23.77-2.48,2.68-2.48h4.72c1.75,0,2.61.93,2.61,2.39v.43c0,1.33-.56,2.13-2.47,2.13ZM546.76,472.06c0-.16-.12-.29-.35-.29h-2.05c-.35,0-.57.2-.57.52v.12h2.63c.2,0,.35-.08.35-.28v-.07Z"/>
              <path class="cls-5" d="M315.84,500.86h-7.06v5.34h-9.49v-26.07h16.61c5.27,0,8.85,2.56,8.85,9.49v2.08c0,5.46-2.68,9.17-8.91,9.17ZM315.2,490.41c0-1.57-.51-1.76-1.92-1.76h-4.5v3.58h4.5c1.37,0,1.92-.38,1.92-1.53v-.29Z"/>
              <path class="cls-5" d="M340.09,495.43c-1.98,0-2.91,1.31-2.91,2.59v8.21h-9.17v-8.4c0-7.67,4.6-10.9,10.03-10.9h10.13v8.5h-8.08Z"/>
              <path class="cls-5" d="M366.07,506.38h-7.19c-5.88,0-8.44-2.75-8.44-7.86v-3.96c0-5.02,2.62-7.8,8.44-7.8h7.19c5.98,0,8.28,3.1,8.28,7.7v4.22c0,4.63-2.3,7.7-8.28,7.7ZM365.72,496.16c0-.61-.35-1.21-1.28-1.21h-4.03c-.99,0-1.31.64-1.31,1.21v.83c0,.73.22,1.25,1.31,1.25h4.03c1.05,0,1.28-.7,1.28-1.25v-.83Z"/>
              <path class="cls-5" d="M392.59,504.24h-6.61v2.59h-9.33v-13.04c0-4.76,2.14-6.87,7.44-6.87h8.75c4.86,0,7.48,2.08,7.48,6.84v3.29c0,5.14-2.3,7.19-7.73,7.19ZM391.34,495.46c0-.32-.25-.83-.93-.83h-3.51c-.61,0-.93.38-.93.89v.29c0,.58.29.86.93.86h3.51c.67,0,.93-.42.93-.83v-.38Z"/>
              <path class="cls-5" d="M419.05,506.19h-16.39v-6.61h13c.74,0,.86-.16.86-.48v-.1c0-.35-.22-.54-.86-.54h-6.68c-4.67,0-6.74-1.73-6.74-5.56v-.38c0-4.31,2.72-5.66,6.74-5.66h16.62v5.78h-12.68c-.67,0-.93.19-.93.54v.06c0,.32.25.51.93.51h6.13c4.76,0,7.25,1.41,7.25,5.43v.45c0,3.87-1.69,6.55-7.25,6.55Z"/>
              <path class="cls-5" d="M451.38,495.33v1.53c0,.86.13,1.02,1.15,1.02h8.79v8.34h-11.79c-5.3,0-7.19-2.49-7.19-6.29v-4.6h-3.99v-8.4h3.99v-3.64h9.04v3.64h10.38v8.4h-10.38Z"/>
              <path class="cls-5" d="M479.28,506.38h-7.19c-5.88,0-8.44-2.75-8.44-7.86v-3.96c0-5.02,2.62-7.8,8.44-7.8h7.19c5.98,0,8.28,3.1,8.28,7.7v4.22c0,4.63-2.3,7.7-8.28,7.7ZM478.93,496.16c0-.61-.35-1.21-1.28-1.21h-4.03c-.99,0-1.31.64-1.31,1.21v.83c0,.73.22,1.25,1.31,1.25h4.03c1.05,0,1.28-.7,1.28-1.25v-.83Z"/>
              <path class="cls-5" d="M516.7,506.19v-3.93h-6.33v3.93h-9.11v-15.91c0-7.92,1.82-10.64,10.26-10.64h3.55c8.43,0,10.67,2.72,10.67,10.64v15.91h-9.04ZM516.7,490.28c0-1.66-.25-2.14-1.73-2.14h-2.91c-1.44,0-1.69.48-1.69,2.14v3.67h6.33v-3.67Z"/>
              <path class="cls-5" d="M529.74,506.23v-26.11h9.04v26.11h-9.04Z"/>
              <path class="cls-5" d="M542.93,506.23v-26.11h9.04v26.11h-9.04Z"/>
            </g>
          </g>
          <path class="cls-1" d="M452.53,372.88c.6-.63,1.47-1.18,2.12-1.92,6.49-7.38,11.23-16.1,14.79-25.23-12.42-4.79-27.05-4.65-40.13-2.84-11.88,1.65-23.4,5.42-34.09,10.74-.63.85,8.6,11.46,9.8,12.7,1.87,1.94,8.43,8.21,10.58,8.85,4.69,1.4,9.98.15,14.61,1.16h.77s.38-.39.38-.39c3.2-.06,6.39-.64,9.62-.39l11.54-2.7Z"/>
          <path class="cls-1" d="M473.25,327.49c-3.41-.92-6.78-1.99-10.27-2.61-22.22-3.93-51.87.3-72.13,10.33-.97.48-4.85,2.31-4.86,3.2.64,1.97,7.08,13.87,8.27,13.96,9.87-5.2,20.61-8.77,31.66-10.55,14.33-2.31,29.94-2.84,43.74,2.13.94-.09,4.44-15.49,3.6-16.46Z"/>
          <path class="cls-1" d="M422.91,300.51c3.21,21.87-25.66,35.75-40.58,18.87l-4.41-7.32c1.46,8.32,3.87,16.4,6.92,24.25,3.81-1.53,7.36-3.62,11.16-5.19,19.34-7.98,46.79-11.56,67.37-7.79,3.62.66,7.08,1.91,10.69,2.58-.39-2.18.38-4.76.39-6.74,0-2.09-.79-4.82-.39-7.12-2.1,2.16-3.75,4.14-6.42,5.7-14.04,8.18-32.51-2.54-34.77-17.98-3.36-.23-6.69.02-9.97.74Z"/>
          <path class="cls-4" d="M348.68,395.6c6.2,9.32,12.73,19.01,20.01,27.51.77.9,3.3,4.05,4.01,4.46,2.43,1.39,13.21-.73,16.37-1.57-5.79-11.46-14.28-21.38-21.62-31.86-6.3-.47-12.54.76-18.76,1.46Z"/>
          <path class="cls-1" d="M367.53,338.62c1.63,2.46,2.16,5.8,4.62,7.7,3.34-3.45,7.36-6.51,11.53-8.88-5.95-14.31-9.62-30.25-7.3-45.79-.18-.23-4.46,3.09-4.79,3.48-1.83,2.15-8.22,15.05-7.83,17.4.18,1.1,1.37,3.05,1.75,4.44,1.82,6.73,2.56,14.68,2.03,21.65Z"/>
          <path class="cls-1" d="M397.15,281.26c-.11.64.94.42,1.35.4,2.58-.17,4.45-.36,7.12.16,9.08,1.75,15.43,8.67,17.47,17.53,3.02-1.44,6.54-1.12,9.82-1.15-.62-1.65-.2-4.41.17-6.18,1.31-6.29,5.74-11.67,11.65-14.13l5.1-1.63c-17.62-2.88-35.82-.39-52.69,5.01Z"/>
          <path class="cls-4" d="M511.37,398.3l-17.42-1.08-24.11,17.82c0,.66,6.19,1.52,7.17,1.67,2.08.31,6.4,1.14,8.22.65,1.29-.34,6.93-4.3,8.5-5.35,6.07-4.05,12.37-8.74,17.64-13.71Z"/>
          <path class="cls-1" d="M477.53,299.35c-.05,3.54-1,6.98-2.29,10.25.71,5.68.88,11.39,0,17.06,4.02,1.37,7.88,3.6,11.05,6.44.29.26.54.45.48.89.69-.2.74-1.9.78-2.48.69-10.8-1.33-21.03-6.17-30.62-1.6.26-2.52-.96-3.85-1.54Z"/>
          <path class="cls-1" d="M468.68,412.54l23.79-17c-.25-4.7-6.25-5.64-9.76-7.5-2.86,1.61-10.51,4.83-11.63,7.85-.68,1.84-3.05,15.76-2.4,16.65Z"/>
          <path class="cls-1" d="M389.84,422.16c1.08.74.74-5.52.75-5.98.09-4.19.65-8.92-1.45-12.76-2.35-4.31-9.88-12.16-14.68-13.42-1.98-.52-4.25,1.14-5.38,2.69,7.62,9.27,14.91,18.98,20.76,29.48Z"/>
          <path class="cls-1" d="M418.37,294.85c6.93,17.27-12.98,34-29.12,25.3-18.9-10.2-7.04-38.73,14.9-36.09,6.13.74,11.92,5.07,14.22,10.8ZM397.73,320.13c23.56,1.16,26.92-34.79,2.69-34.43-22.04.33-25.15,33.32-2.69,34.43Z"/>
          <path class="cls-1" d="M452.62,315.23c-21.91-5.63-22.12-39.66,3.46-36.19,25.07,3.4,24.5,43.38-3.46,36.19ZM452.74,312.8c25.43,7.29,26.35-30.47,1.79-32.2-20.43-1.44-20.64,26.79-1.79,32.2Z"/>
          <path class="cls-1" d="M372.53,348.63l10.38,11.55c1.07-1.02,3.57-2.83,4.87-3.78,1.39-1.02,3.13-2.25,4.74-2.77l-8.06-14.46c-.41-.4-.66,0-1,.19-3.91,2.16-7.98,5.94-10.94,9.27Z"/>
          <path class="cls-1" d="M471.81,344.72c3.71,1.55,7.49,3.5,9.75,6.98,1.15.03,5.15-13.14,5.17-14.87.01-1.83-3.7-4.5-5.23-5.46-1.96-1.23-4.28-1.97-6.27-3.15l-3.41,16.5Z"/>
          <path class="cls-4" d="M417.53,386.36c10.08.99,20.75-.58,30.2-4.22.48-.18,2.37-.67,2.1-1.35-4.7-4.51-12.92-3.97-18.92-2.78-4.65.92-11.92,3.52-13.38,8.35Z"/>
          <path class="cls-1" d="M427.53,267.39c-8.08-.25-15.72.8-23.46,3.08,1.68,1.81,3.23,3.68,3.86,6.15,10.79-2.59,21.96-3.32,33.06-3.08.48-.41-1.28-2-1.54-2.31.07.31-.29.38-.54.35-1.61-.2-2.93-.21-4.46-.35-2.21-.2-11.69-.76-6.92-3.85Z"/>
          <path class="cls-1" d="M405.99,235.05l-16.25-13.56c-1.12-.99-8.74.69-8.74,1.44l15,13.47c1.6.74,7.71-1.9,9.99-1.35Z"/>
          <path class="cls-4" d="M403.68,372.88c.7,2.4.82,5.69-1.14,7.53-.86.81-2.09.87-2.71,1.71,2.36.95,14.18,4.66,15.77,3.67.35-.22.81-1.54,1.33-2.13.96-1.09,2.1-2.02,3.27-2.88-2.95-1.95-5.73-4.09-8.45-6.35-.32.69-1.27.18-1.78.05-2.09-.55-4.13-1.42-6.3-1.59Z"/>
          <path class="cls-1" d="M378.69,288.18c8.4-5.42,18.01-8.75,27.68-11.18.61-.87-2.67-5.29-3.83-5.6-2.63-.72-16.43,8.49-19.04,10.63-1.94,1.59-4.8,3.44-4.81,6.15Z"/>
          <path class="cls-1" d="M384.84,360.95c.16,1.59,2.45,1.61,3.08,3.08,5.82-3.11,14.13,3.28,15.77,8.86,2.17.17,4.21,1.04,6.3,1.59.51.13,1.46.64,1.78-.05-6.84-5.67-12.89-12.22-18.08-19.47-.73-.39-2.6,1.18-3.35,1.68-1.95,1.27-3.76,2.77-5.49,4.32Z"/>
          <path class="cls-4" d="M372.53,348.63c-1.1,1.24-3.93,3.76-3.78,5.49.07.76,1.8,3.75,2.31,4.64,1.24,2.16,3.44,5.4,5.11,7.2.28.31,1.28,1.5,1.73,1.15.91-2.26,3.24-5.26,5.01-6.93l-10.38-11.55Z"/>
          <path class="cls-1" d="M379.45,226.2c-.12,1.73-.29,4.74.59,6.14l14.6,14.65c.2-2.71.24-5.38.58-8.08-1.46-.73-3-2.17-4.24-3.27-2.91-2.57-5.66-5.44-8.66-7.89-.79-.65-1.77-1.61-2.87-1.55Z"/>
          <path class="cls-1" d="M496.76,308.2c5.13-4.37,9.54-9.57,12.3-15.78-1.81-.18-3.6-.93-4.81-2.31-2.53,4.83-5.31,9.2-9.36,12.95l1.87,5.14Z"/>
          <path class="cls-1" d="M517.1,271.58c1.15-4.36,1.58-8.92,1.58-13.43-1.96-.09-4.06.45-5.77-.77-1.14,5.32-4.32,14.19,4.18,14.2Z"/>
          <path class="cls-1" d="M515.22,274.32c-2.33-.47-5.56-2.4-6.07-4.9-.34-1.66.85-5.79-1.63-3.73.97,2.07.65,5.64-.9,7.34-.59.65-2.54,1.31-2.56,2.23,1.53,4.31,7.59,5.22,11.16,2.91-.07-1.33.86-2.62,0-3.85Z"/>
          <path class="cls-4" d="M456.76,370.96c-2.17,2.52-4.66,4.73-6.9,7.18l1.69,2.4c3.63-1.92,7.48-3.53,10.58-6.31l-.02-.55c-1.29-.12-1.89-2.77-1.9-3.87l-3.46,1.16Z"/>
          <path class="cls-1" d="M503.29,272.01c.51-4.55-2.83-4.29-5.9-5.83-1.03-.51-2.08-1.03-2.97-1.77-.63-2.22,1.27-8.85.03-10.31-.1-.12-1.1-.62-1.15-.58-.47,3.1-2.05,8.93-.87,11.84,1.1,2.71,7.91,6.36,10.86,6.64Z"/>
          <path class="cls-1" d="M494.06,318.21c.1-3.56-.92-7.03-1.95-10.38l-4.21.76c1.28,3.98,2.22,8.15,2.69,12.32l3.85-.77c0-.26,0-.51,0-.77l-.38-1.16Z"/>
          <path class="cls-4" d="M384.84,360.95c-1.56,1.41-5.39,5.04-6,6.92-.41,1.28,1.48,3.06,2.73,3.12,1.03.05,2.55-.56,3.68-.59.57-.4.3-5.11,2.67-6.38-.62-1.47-2.91-1.49-3.08-3.08Z"/>
          <path class="cls-1" d="M509.09,248.93c-2.35,4.36,1.52,4.39,4.73,5.82,1.73.77,4.2,3.13,5.45.32,1.47-3.28-7.76-6.35-10.18-6.13Z"/>
          <path class="cls-1" d="M481,373.65c2.46-.71,5.2-1.28,7.68-.39,1.19-10.05-9.53-8.56-7.68.39Z"/>
          <path class="cls-1" d="M492.91,392.14l1.4,2.64,18.22,1.2c-.79-.85-1.36-2.46-2.51-2.68-3.21-.63-8.93-1-12.3-1.16-1.6-.07-3.21.04-4.8,0Z"/>
          <path class="cls-1" d="M485.99,387.52l6.04,3.38c5.06-.04,10.07.51,15.11.85l-9.51-3.75-11.64-.47Z"/>
          <path class="cls-1" d="M440.22,269.32l2.93,4.57,13.99,1.97c-.84-1.05-2.5-1.69-3.71-2.25-1.68-.78-12.36-5.04-13.21-4.29Z"/>
          <path class="cls-1" d="M378.69,379.81c2.4-1.03,4.97.22,7.3.77,1.97-8.23-7.78-10.47-7.3-.77Z"/>
          <path class="cls-4" d="M367.53,338.62c-.18,2.4-1.59,6.27-1.57,8.28,0,1.69,1.27,3.19,1.58,4.81,1.73-1.61,2.96-3.69,4.61-5.39-2.45-1.9-2.98-5.24-4.62-7.7Z"/>
          <path class="cls-1" d="M377.99,290.18c-.56,3.5-.99,6.96-.84,10.52.02.47-.29,1.43.38,1.34.55-5.84,3.74-10.98,8.08-14.83l4.23-2.88c-4.33,1.05-7.98,3.8-11.85,5.84Z"/>
          <path class="cls-1" d="M485.99,375.2c2.08,3.25,2.49,6.35,1.16,10l3.2-.06c2.89-3.4.99-10.85-4.36-9.94Z"/>
          <path class="cls-1" d="M484.06,298.58l3.47,8.85,4.22-.77c-.57-1.8-3.75-8.3-5.58-8.47-.66-.06-1.41.45-2.11.39Z"/>
          <path class="cls-1" d="M379.84,225.04l-.38.39c-.03.25.02.52,0,.77,1.1-.06,2.08.9,2.87,1.55,3,2.45,5.75,5.32,8.66,7.89,1.24,1.09,2.78,2.54,4.24,3.27.01-.09.42-.31.38-.59,0-.81-5.82-5.93-6.91-6.93-2.83-2.59-5.85-5.18-8.85-7.5-.07.36.08.86,0,1.15Z"/>
          <path class="cls-4" d="M415.6,375.19c-.19.86.47.82.95,1.15.96.67,4.15,3.03,5.04,3.09l8.63-3.08c-4.63-1.01-9.93.24-14.61-1.16Z"/>
          <path class="cls-1" d="M410.99,243.52c-1.8-4.39-6.15-4.09-9.99-2.5l3.7,3.58,6.29-1.08Z"/>
          <path class="cls-1" d="M521.76,255.07c-.85.46-2.15,1.98-2.3,2.91-.18,1.08.34,1.87.3,2.67-.11,2.44-1.28,7.82-1.09,9.62.06.56-.17.67.58.58,2.23-.91,1.7-6.7,2.51-8.66v-7.12Z"/>
          <path class="cls-1" d="M471.76,367.49c1.68,1.56,4.76,1.62,6.92,2.31.25-1.38,1.33-2.62,1.92-3.85-3.57.1-7.49-3.4-8.85,1.54Z"/>
          <path class="cls-4" d="M490.6,320.91c.3,2.66.29,5.77.39,8.47,2.45.14,2.41-.71,2.9-2.68.53-2.15.61-4.36.56-6.56l-3.85.77Z"/>
          <path class="cls-1" d="M409.84,257l3.46-.77c.28-.26-1.98-6.01-2.38-6.66-.95-1.54-3.32-.14-3.35,1.46s2.1,4.26,2.27,5.98Z"/>
          <path class="cls-1" d="M404.13,252.7l1.48.44c-1.47-5.15,4.37-9.28,7.69-4.23,2.15-5.47-6.82-5.09-8.62-1.89-.93,1.66-.61,3.84-.55,5.68Z"/>
          <path class="cls-1" d="M396.37,246.99h1.15c-.28-9.07,3.1-9.81,11.54-8.86.11-.55-.32-1.13-.77-1.34-1.56-.72-9.64.11-10.98,1.32-1.19,1.06-1.12,7.21-.94,8.88Z"/>
          <path class="cls-1" d="M510.98,290.1c-1.26-2.86-.68-5.2,0-8.08l-3.22-.36c-1.97,3.22-1.6,8.47,3.22,8.44Z"/>
          <path class="cls-1" d="M350.61,392.9c5.6-.79,11.37-2.03,17.04-1.21l2.58-2.24c-4.88.71-10.26.33-15.08,1.26-1.72.33-3.44.64-4.53,2.2Z"/>
          <path class="cls-1" d="M480.6,376.73c-.07.23.22.39.38.39.35-.01.76-.27,1.2-.18,3.15.63,2.85,6.42.73,8.26l3.12-.23c2.21-3.71-.51-13.03-5.43-8.24Z"/>
          <path class="cls-1" d="M427.53,267.39c-4.77,3.09,4.71,3.65,6.92,3.85l.77-3.08c-1.64-.31-2.67-.26-4.23-.39-.76-.06-1.69-.37-1.92-.39-.51-.03-1.03.02-1.54,0Z"/>
          <path class="cls-1" d="M375.67,387.84l3.4,1.6c-.25-2.98.56-5.58,2.69-7.69-4.19-.71-6.62,2.01-6.09,6.1Z"/>
          <path class="cls-1" d="M409.45,262.38c.24.25,4.77-.99,5.62-1.11.79-.11,3.51.37,3.22-.62-1.21-4.06-9.47-2.57-8.84,1.72Z"/>
          <path class="cls-1" d="M386.38,384.05c-.75-.94-1.2-1.66-2.57-1.83-3.03.36-4.52,6.36-3.23,8.5.27.44.87.42,1.18.64l.77-.39c-.4-1.59-.4-4.08.43-5.54.79-1.4,1.76-.91,3.03-1.01.17-.01.35-.2.38-.39Z"/>
          <path class="cls-1" d="M508.3,246.22c-.2.19.3,1.36.64,1.57,1.04.63,4.93,1.01,6.66,1.71,1.96.79,3.65,1.86,4.24,4.03,2.69-.14-.92-4.12-1.96-4.78-1.11-.7-9.11-2.98-9.58-2.54Z"/>
          <path class="cls-4" d="M440.99,375.58l7.12,1.8c.55-.06,3.73-3.78,4.41-4.49l-11.54,2.7Z"/>
          <path class="cls-1" d="M392.53,375.19c-.86-4.47-3.35-3.57-6.92-2.69.83,1.16,2.36,2.4,2.69,3.85l4.23-1.16Z"/>
          <path class="cls-1" d="M471.76,367.49c-.25.91-.48,2.24.18,3.09.21.27,6.5,1.78,6.74,1.53.09-.72-.12-1.63,0-2.31-2.17-.69-5.25-.75-6.92-2.31Z"/>
          <path class="cls-1" d="M512.62,282.12c-2.16,2.02-1.06,10.8,2.21,5.48-2.12-.92-.79-4.28,0-5.96-.67-.02-1.7,0-2.21.48Z"/>
          <path class="cls-1" d="M497.53,254.49c0-.1.81-.7.19-.96-3.38,1.63-1.45,6.04-2.51,9.04.03.68,2.31-.37,2.31-.76,0-2.36-.17-5.01,0-7.32Z"/>
          <path class="cls-1" d="M496.37,263.93c-.29.39,7.74,5.18,8.46,2.49.18-.78-.3-.53-.77-.74-1.12-.5-4.52-2.3-5.29-2.45-.91-.18-1.54.67-2.39.7Z"/>
          <path class="cls-1" d="M407.92,265.86l1.25.29,13.36-2.21c-4.89-1.48-10.07-.07-14.61,1.92Z"/>
          <path class="cls-1" d="M399.84,244.29c0,2.77-.46,4.74,2.12,6.54.91.17.46-.41.58-.95.22-1.02.39-2.34.76-3.29l-3.46-2.31Z"/>
          <path class="cls-1" d="M477.53,299.35c1.33.58,2.25,1.8,3.85,1.54-1.08-2.14-2.06-4.82-4.04-6.16-.77,1.34.21,3.58.19,4.62Z"/>
          <path class="cls-1" d="M495.6,320.14c.91.06.67.12.77-.57.4-2.97-1.2-9.43-2.3-12.33-.35-.91-.68-2.36-1.54-2.88,1.47,5.16,3.02,10.34,3.07,15.78Z"/>
          <path class="cls-1" d="M467.14,366.72c.79.79,2.03.8,3.08.77.13-.72,2.02-3.01,1.54-3.46-2.67-.18-3.83.09-4.61,2.69Z"/>
          <path class="cls-1" d="M504.45,280.48c-.55,2.39-1.32,5.75,1.15,7.32l.66-6.37-1.81-.94Z"/>
          <path class="cls-1" d="M397.14,373.65c-.91-2.52-2.84-2.96-5.38-2.69.69,1.01,2.08,2.2,2.31,3.46l3.08-.77Z"/>
          <path class="cls-1" d="M435.22,268.16l-.77,3.08c1.53.14,2.84.15,4.46.35.25.03.62-.04.54-.35-.43-.51-2.44-2.8-2.8-2.97-.54-.26-1-.03-1.43-.11Z"/>
          <path class="cls-1" d="M388.3,376.35c.12.52-.14,2.15,0,2.31,1.81-.47,4.36-.31,4.55-2.63.05-.61-.3-.73-.32-.84l-4.23,1.16Z"/>
          <path class="cls-1" d="M394.07,374.42c.11.58-.14,2.54,0,2.69,2.63-.33,4.13-.53,3.07-3.46l-3.08.77Z"/>
          <path class="cls-1" d="M467.14,366.72c-.99,3.3.02,3.17,3.08,3.47.14-.14-.1-2.12,0-2.7-1.05.03-2.28.02-3.08-.77Z"/>
          <path class="cls-1" d="M504.06,243.53c.85,1.96,2.47.7,4.03.73,1.43.03,2.65.43,4.04.41.18-1.04-.19-.66-.84-.87-2.26-.73-4.96-.98-7.24-.28Z"/>
          <path class="cls-1" d="M403.3,246.6c.03-.08.89-.3.76-.93l-3.65-3.69c-1.24-.52-.57,2.13-.57,2.31l3.46,2.31Z"/>
          <path class="cls-1" d="M480.6,376.73c-.99.97-1.75,2.2-1.93,3.65-.24,1.97.23,6.41,3.08,5.2-.19-.64-1.01-.67-1.55-1.33-1.49-1.86-.92-5.49.78-7.13-.16,0-.45-.16-.38-.39Z"/>
          <path class="cls-1" d="M504.45,250.06l.8-4.35-1.56-1.03c-.22.22-1.22,5.79.76,5.39Z"/>
          <path class="cls-1" d="M456.76,370.96l3.46-1.16c-.01-.98.45-2.4.59-3.46.05-.38.51-.86-.2-.77-1.08,1.79-2.5,3.81-3.85,5.39Z"/>
          <path class="cls-1" d="M504.45,272.01c1.4-1.1,1.73-2.93,1.53-4.62-2.48.49-2.01,2.7-1.53,4.62Z"/>
          <path class="cls-1" d="M385.99,384.43c1.87,1.91,1.32,5.8.38,8.09.18-.04.46.15.38.39,1.99-2.44,1.55-6.43-.38-8.86-.03.18-.21.37-.38.39Z"/>
          <path class="cls-1" d="M492.53,380.58l.41,1.52.74.02c.06-.4.48-.61.37-1.67-.14-1.36-1.03-3.09-2.29-3.72.43,1.42.7,2.32.77,3.85Z"/>
          <path class="cls-1" d="M515.22,274.32c.86,1.23-.07,2.52,0,3.85,1.33-.87,1.96-1.34,1.94-3.27-.01-1.1-1.15-.42-1.94-.58Z"/>
          <path class="cls-1" d="M374.13,383.74c-.34.19-1.62,2.99-1.22,3.38h1.53s.78-3.46.78-3.46c-.35.03-.76-.11-1.09.08Z"/>
          <path class="cls-1" d="M506.76,251.6c1.1.2.63-.28.86-.85.58-1.4,1.08-2.6-.29-3.77-.54,1.47-.66,3.06-.57,4.62Z"/>
          <path class="cls-1" d="M492.53,380.58c.07,1.64.06,3.15-.77,4.62,2.13.19,1.74-1.74,1.92-3.08l-.74-.02-.41-1.52Z"/>
          <path class="cls-1" d="M386.38,392.52c-.76.16-1.6.7-2.69.39,1.15,1.84,1.92,1.41,3.08,0,.07-.24-.21-.42-.38-.39Z"/>
          <path class="cls-1" d="M396.37,246.99c.08.77.33,2.63,1.34,2.7.31-.8-.16-1.75-.19-2.7h-1.15Z"/>
          <path class="cls-1" d="M381.76,391.36c.35.26.8.92,1.35,1.15.27-.49-.49-1.17-.58-1.53l-.77.39Z"/>
          <path class="cls-1" d="M429.07,267.39c.24.01,1.16.32,1.92.39-.33-.62-1.31-.36-1.92-.39Z"/>
          <path class="cls-1" d="M494.45,319.37l-.38-1.16.38,1.16Z"/>
          <path class="cls-1" d="M470.63,346.34l-5.4,12.49c3.12-1.87,6.03-4.11,9.58-1.52l1.95,3.24,4.06-7.35c-.53-2-8.98-7.92-10.19-6.87Z"/>
          <path class="cls-1" d="M379.45,225.43l.38-.39s-.35.11-.38.39Z"/>
          <path class="cls-1" d="M430.99,376.35c.29,0,.36-.38.38-.39l-.38.39Z"/>
          <path class="cls-1" d="M398.87,318.47c-22.69.31-18.28-34.07,4.52-30.96,18.47,2.52,14.97,30.69-4.52,30.96ZM398.82,297.77c-2.66-.33-8.26-7-10.22-2.18-1.55,3.81,4.07,5.2,6.22,7.4-1.12,1.97-7.44,8.7-3.43,10.39,4.26,1.8,5.97-4.69,8.7-6.69,2.71.95,7.37,7.1,9.91,3.01,2.23-3.6-4.3-6.16-6.31-8.25,1.52-2.19,7.47-7.24,3.82-9.61-1.5-.97-2.75-.81-4.08.31-.92.78-4.03,5.43-4.62,5.61Z"/>
          <path class="cls-1" d="M453.77,311.39c-17.93-4.8-17.82-30.89,1.15-29.25,21.5,1.86,21.31,35.26-1.15,29.25ZM452.14,296.83c-1.94,2.14-7.45,7.53-2.59,9.53,3.4,1.4,5.45-3.39,7.43-5.51,1.64-.25,5.7,6.23,8.73,5.35,1.03-.3,1.97-2.05,1.76-3.12-.33-1.65-4.94-5.55-6.47-6.46-.64-.88,7.62-7.39,2.2-9.7-3.49-1.49-4.76,3.43-7.07,5.04-2.9-.79-6.84-6.97-9.95-4.18-3.44,3.08,3.78,6.95,5.97,8.49v.56Z"/>
          <g>
            <path class="cls-6" d="M400.22,252.19c-1.9-.88-3.23.74-5.77-1.54l-17.22-18.18c.03-2.87-.69-8.72,1.25-10.91,1.58-1.78,9.82-3.53,11.84-2.59,5.01,3.94,10.29,7.67,15.09,11.86,1.25,1.09,4.26,3.43,4.99,4.63,1.02,1.66.64,3.4,1.27,4.89,1.26,2.99,4.58,2.33,3.89,7.95-.15,1.23-1.15,2.75-1.11,3.47,0,.21,1.39,3.64,1.51,3.82.3.45,2.6,1,3.37,1.92.67.8.99,2.74,1.83,3.37.63.47,1.89.54,2.8,1.05s1.47,1.55,2.33,1.91c1.92.78,6.85.61,9.4.98,14.98,2.2,30.42,10.6,40.29,22.04,1.25,1.45,5.77,8.68,6.24,8.96.81.48,2.56-.35,3.57-.32,2.95.08,6.02,2.79,7.7,5.02,1.56-1.51,3.1-3.1,4.36-4.87,1.05-1.47,3.75-5.89,4.13-7.44.3-1.22-.93-3.53-.86-5.14.07-1.43,1.37-3.41,1.37-4.29,0-.22-1.36-4.07-1.51-4.23-.47-.52-5.21-2.35-6.66-3.34-5.26-3.6-5.34-6.21-4.87-12.44.39-5.16,1.55-10.02,7.78-8.57,6.04,1.41,1.91,6.51,3.04,11l5.13,2.23c4.01-1.06,4.4-3.5,4.44-7.31-.11-.45-2.89-1.03-3.61-1.47-1.01-.6-1.55-1.94-1.89-2.15-.81-.51-2.69-.25-3.53-1.66s-.04-8.17,1.18-9.18c2.67-2.21,13.4-.4,16.17,2.01.72.63,4.87,5.9,5.34,6.78,1.7,3.13,1.28,10.03.89,13.64-.38,3.54-.55,8.35-4.54,9.52,1.31,1.99-1.07,4.44-1.17,5.95-.15,2.38.87,3.77-.1,6.82-1.42,4.45-3.99,4.04-6.24,6.46-1.32,1.43-2.68,4.97-3.9,6.87-1.58,2.48-3.57,5-5.56,7.16-.98,1.06-3.9,2.96-4.4,4.05-.66,1.45.45,4.64.56,6.35.23,3.45-.19,7.57-1.52,10.79-1.51,3.62-3.28,3.73-6.89,4.46-.91,10.94-5.12,21.39-11.57,30.19-.13.83.12.45.55.58,4.64,1.42,9.53-.87,11.27,5.29.38,1.36.23,3.35.77,4.62.44,1.01,2.14,1.71,2.96,2.82,1.87,2.54,2.45,6.37.99,9.21,2.34,0,4.56.79,6.74,1.54,4.65,1.58,9.94,3.59,12.42,7.98.97,1.72,1.81,2.51.32,4.22-3.84,4.4-13.16,10.84-18.2,14.31-2.17,1.5-9.77,7-11.85,7-3.19,0-8.22-.68-11.44-1.26-1.41-.26-5.09-.95-6.18-1.52-2.41-1.26-1.28-9.11-.99-11.61.32-2.77,1.35-9.46,2.44-11.8,1.21-2.58,6.48-5.25,9.04-6.54-2.21-4.22-2.2-8.66.77-12.5-.09-.39-5.3-1.63-6.04-1.63-.85,0-2.58,1.43-3.75,1.83-1.08.37-2.56.3-3.29.62-1.63.72-4.96,3.63-7.05,4.82-19.82,11.25-42.68,12.32-63.47,2.96-1.69-.76-4.58-3.29-6.17-2.22-1.37.93.96,3.73,1.22,5.25.61,3.57-.04,7.23-2.97,9.53,2.92,3.57,5.65,6.8,6.13,11.56.52,5.13.44,11.37-.49,16.44-.48,2.59-.22,3.48-2.88,4.43-3.73,1.33-12.94,2.54-16.78,2-2.42-.34-5.67-4.57-7.35-6.5-5.3-6.11-16.38-20.41-19.48-27.46-.84-1.9-.8-1.91.46-3.52,2.61-3.35,5.34-4.55,9.46-5.16,4.73-.7,9.61-.81,14.37-.82-.21-2.41,1.19-4.59,3.09-5.95.62-.44,1.82-.55,2.11-.97.83-1.21.4-5.96,2.01-7.52-5.11-5.36-9.57-11.25-12.66-18.02-.56-1.23-1.98-5.89-2.43-6.43-.84-1.02-5.43.45-7.87-1.37-3.87-2.89-4.58-13.71-5.22-18.26-5.44-4.46-9.34-8.92-12.44-15.27-.81-1.65-1.71-5.03-2.58-6.27-.6-.85-1.68-1.05-2.49-1.75-2.71-2.35-3.32-5.77-3.04-9.22.06-.77.74-1.66.65-2.28-.07-.41-1.05-1.57-1.33-2.48-.37-1.19-.03-3.37-.13-3.51-.12-.16-1.86-.48-2.75-2.07-1.44-2.56-2.49-13.55-2.22-16.63.26-3.03,2.96-7.35,4.83-9.79.49-.64,1.86-2.13,2.5-2.51,2.29-1.36,11.78-3.1,14.18-1.93,1.69.82,2.72,7.89,1.86,9.52-.82,1.55-2.52,1.35-3.58,2.19-.44.35-.61,1.07-1.2,1.5-.8.58-4.19,2.12-4.31,2.59l1.2,5.06c3.3,2.66,5.8.96,8.68-1.3.65-2.14-1.26-8.08.06-9.57.54-.62,4.73-1.7,5.63-1.7.97,0,2.16.61,2.78,1.37,1.98,2.44,2.96,11.8,2.18,14.78-.83,3.19-7.87,7.6-10.98,8.65-.08,1.29-1.76,4.23-1.83,5.07-.05.58,1.33,2.94,1.47,4.54.26,3.04-1.37,5.27-1.09,7.23.21,1.48,4.38,9.95,5.5,9.91,1.62-2.66,3.28-3.52,6.25-4.13,1.02-.21,2.8.21,3.37-.48,6.06-19.06,19.08-32.09,36.85-40.5,4.09-1.94,4.54-.91,7.56-4.75.34-.43,1.12-.6,1.35-.96.48-.78.05-2.28.21-3.25.28-1.63,1.57-3.03.02-4.98-.4-.5-2.18-.1-3.14-.41-.45-.14-1.71-1.13-2.15-1.51s-.63-1.29-1.29-1.59ZM389.74,221.48c-1.12-.99-8.74.69-8.74,1.44l15,13.47c1.6.74,7.71-1.9,9.99-1.35l-16.25-13.56ZM395.6,238.32c0-.81-5.82-5.93-6.91-6.93-2.83-2.59-5.85-5.18-8.85-7.5-.07.36.08.86,0,1.15,0,.03-.35.11-.38.39-.03.25.02.52,0,.77-.12,1.73-.29,4.74.59,6.14l14.6,14.65c.2-2.71.24-5.38.58-8.08.01-.09.42-.31.38-.59ZM397.72,249.68c.31-.8-.16-1.75-.19-2.7-.28-9.07,3.1-9.81,11.54-8.86.11-.55-.32-1.13-.77-1.34-1.56-.72-9.64.11-10.98,1.32-1.19,1.06-1.12,7.21-.94,8.88.08.77.33,2.63,1.34,2.7ZM401,241.02l3.7,3.58,6.29-1.08c-1.8-4.39-6.15-4.09-9.99-2.5ZM404.06,245.68l-3.65-3.69c-1.24-.52-.57,2.13-.57,2.31,0,2.77-.46,4.74,2.12,6.54.91.17.46-.41.58-.95.22-1.02.39-2.34.76-3.29.03-.08.89-.3.76-.93ZM508.1,244.26c1.43.03,2.65.43,4.04.41.18-1.04-.19-.66-.84-.87-2.26-.73-4.96-.98-7.24-.28.85,1.96,2.47.7,4.03.73ZM505.24,245.71l-1.56-1.03c-.22.22-1.22,5.79.76,5.39l.8-4.35ZM405.6,253.14c-1.47-5.15,4.37-9.28,7.69-4.23,2.15-5.47-6.82-5.09-8.62-1.89-.93,1.66-.61,3.84-.55,5.68l1.48.44ZM508.94,247.79c1.04.63,4.93,1.01,6.66,1.71,1.96.79,3.65,1.86,4.24,4.03,2.69-.14-.92-4.12-1.96-4.78-1.11-.7-9.11-2.98-9.58-2.54-.2.19.3,1.36.64,1.57ZM507.62,250.76c.58-1.4,1.08-2.6-.29-3.77-.54,1.47-.66,3.06-.57,4.62,1.1.2.63-.28.86-.85ZM513.82,254.74c1.73.77,4.2,3.13,5.45.32,1.47-3.28-7.76-6.35-10.18-6.13-2.35,4.36,1.52,4.39,4.73,5.82ZM413.3,256.22c.28-.26-1.98-6.01-2.38-6.66-.95-1.54-3.32-.14-3.35,1.46s2.1,4.26,2.27,5.98l3.46-.77ZM497.72,253.53c-3.38,1.63-1.45,6.04-2.51,9.04.03.68,2.31-.37,2.31-.76,0-2.36-.17-5.01,0-7.32,0-.1.81-.7.19-.96ZM497.39,266.18c-1.03-.51-2.08-1.03-2.97-1.77-.63-2.22,1.27-8.85.03-10.31-.1-.12-1.1-.62-1.15-.58-.47,3.1-2.05,8.93-.87,11.84,1.1,2.71,7.91,6.36,10.86,6.64.51-4.55-2.83-4.29-5.9-5.83ZM519.46,257.98c-.18,1.08.34,1.87.3,2.67-.11,2.44-1.28,7.82-1.09,9.62.06.56-.17.67.58.58,2.23-.91,1.7-6.7,2.51-8.66v-7.12c-.85.46-2.15,1.98-2.3,2.91ZM339.28,258.15c1.97-.09,3.55,1.36,3.64-1.15-.71-.65-8.67,1.17-9.99,1.73-.46.2-1.06.39-1.16.96,2.43-.14,5.12-1.43,7.52-1.54ZM518.68,258.15c-1.96-.09-4.06.45-5.77-.77-1.14,5.32-4.32,14.19,4.18,14.2,1.15-4.36,1.58-8.92,1.58-13.43ZM415.07,261.28c.79-.11,3.51.37,3.22-.62-1.21-4.06-9.47-2.57-8.84,1.72.24.25,4.77-.99,5.62-1.11ZM342.25,259.47c-.03.18.57,2.96.68,3.49.15.69.04.96.95.57,1.15-.48-.23-4.29-.19-5.38-.56-.14-.28.35-.53.6-.27.26-.86.47-.9.72ZM331.36,264.1c2.45-1.77,7.43-.79,8.1-4.02-4.75,1.16-11.49,1.73-12.3,7.69l4.21-3.68ZM340.05,264.7c.27.57-.07.95.94.77.02-1.2-.11-2.49-.39-3.66-.14-.58.27-.68-.76-.57-.54,1.33-.39,2.2.2,3.47ZM504.83,266.42c.18-.78-.3-.53-.77-.74-1.12-.5-4.52-2.3-5.29-2.45-.91-.18-1.54.67-2.39.7-.29.39,7.74,5.18,8.46,2.49ZM409.16,266.14l13.36-2.21c-4.89-1.48-10.07-.07-14.61,1.92l1.25.29ZM330.86,265.53c-2.55,1.8-3.75,4.5.25,5.24,1.27-1.34,8.21-3.42,8.31-5.09.03-.51-.41-2.3-.98-2.5-1.2-.42-6.42,1.53-7.58,2.34ZM509.15,269.42c-.34-1.66.85-5.79-1.63-3.73.97,2.07.65,5.64-.9,7.34-.59.65-2.54,1.31-2.56,2.23,1.53,4.31,7.59,5.22,11.16,2.91,1.33-.87,1.96-1.34,1.94-3.27-.01-1.1-1.15-.42-1.94-.58-2.33-.47-5.56-2.4-6.07-4.9ZM344.83,285.29c-.05.59-.07.67.54.54,2.86-.64,9.73-5.17,10.21-8.26.21-1.31-.57-10.94-1.71-10.94-.45.51-1.27.92-1.31,1.69-.13,2.24,1.93,6.85.92,9.07-.82,1.81-7.86,4.13-8.2,4.69-.08.14-.42,2.73-.46,3.21ZM505.98,267.39c-2.48.49-2.01,2.7-1.53,4.62,1.4-1.1,1.73-2.93,1.53-4.62ZM429.07,267.39c-.51-.03-1.03.02-1.54,0-8.08-.25-15.72.8-23.46,3.08,1.68,1.81,3.23,3.68,3.86,6.15,10.79-2.59,21.96-3.32,33.06-3.08.48-.41-1.28-2-1.54-2.31-.43-.51-2.44-2.8-2.8-2.97-.54-.26-1-.03-1.43-.11-1.64-.31-2.67-.26-4.23-.39-.33-.62-1.31-.36-1.92-.39ZM350.2,275.24l2.33,1c.37-.52-.8-7.79-1.35-8.46-.44-.53-.71-.43-1.33-.4l.36,7.85ZM443.16,273.88l13.99,1.97c-.84-1.05-2.5-1.69-3.71-2.25-1.68-.78-12.36-5.04-13.21-4.29l2.93,4.57ZM328.31,275.67c-.23-2.77,1.11-4.34-1.92-5.97-.13,2.53.55,13.67,1.93,15.2.24.26,1.28.78,1.53.58-.76-3.2-1.26-6.54-1.53-9.82ZM406.37,277.01c.61-.87-2.67-5.29-3.83-5.6-2.63-.72-16.43,8.49-19.04,10.63-1.94,1.59-4.8,3.44-4.81,6.15,8.4-5.42,18.01-8.75,27.68-11.18ZM331.04,285.82c8.56-.17,5.34-8.89,3.8-14.2-1.74,1.43-3.42,1.3-5.38.38-.11,4.63.55,9.32,1.58,13.81ZM398.5,281.65c2.58-.17,4.45-.36,7.12.16,9.08,1.75,15.43,8.67,17.47,17.53,3.02-1.44,6.54-1.12,9.82-1.15-.62-1.65-.2-4.41.17-6.18,1.31-6.29,5.74-11.67,11.65-14.13l5.1-1.63c-17.62-2.88-35.82-.39-52.69,5.01-.11.64.94.42,1.35.4ZM350.48,278.24c.48-.35,1.07-.4.89-1.22-3.02-1.2-5.39,2.36-8.46,2.7.95,2.99,5.9-.27,7.57-1.48ZM452.62,315.23c27.97,7.19,28.53-32.79,3.46-36.19-25.58-3.47-25.37,30.56-3.46,36.19ZM505.6,287.8l.66-6.37-1.81-.94c-.55,2.39-1.32,5.75,1.15,7.32ZM344.06,285.87v-3.58s-1.92-1.04-1.92-1.04c-.21,1.92.09,3.64,1.92,4.62ZM514.83,287.6c-2.12-.92-.79-4.28,0-5.96-.67-.02-1.7,0-2.21.48-2.16,2.02-1.06,10.8,2.21,5.48ZM510.99,282.02l-3.22-.36c-1.97,3.22-1.6,8.47,3.22,8.44-1.26-2.86-.68-5.2,0-8.08ZM343.95,288.74c-.73-.84-1.74-1.07-2.51-1.96-.81-.93-1.58-3.99-1.79-3.99-.93.02-1.5,2.69-2.48,3.68-1.05,1.05-2.8,1.81-4.24,2.1-.56.11-1.32-.08-1.93,0-.15,2.6.24,3.01,2.31,3.85,3.86,1.57,9.75,1.22,10.65-3.68ZM389.25,320.15c16.13,8.71,36.05-8.02,29.12-25.3-2.3-5.73-8.09-10.06-14.22-10.8-21.94-2.64-33.8,25.89-14.9,36.09ZM377.14,300.7c.02.47-.29,1.43.38,1.34.55-5.84,3.74-10.98,8.08-14.83l4.23-2.88c-4.33,1.05-7.98,3.8-11.85,5.84-.56,3.5-.99,6.96-.84,10.52ZM509.06,292.42c-1.81-.18-3.6-.93-4.81-2.31-2.53,4.83-5.31,9.2-9.36,12.95l1.87,5.14c5.13-4.37,9.54-9.57,12.3-15.78ZM365.96,346.9c0,1.69,1.27,3.19,1.58,4.81,1.73-1.61,2.96-3.69,4.61-5.39,3.34-3.45,7.36-6.51,11.53-8.88-5.95-14.31-9.62-30.25-7.3-45.79-.18-.23-4.46,3.09-4.79,3.48-1.83,2.15-8.22,15.05-7.83,17.4.18,1.1,1.37,3.05,1.75,4.44,1.82,6.73,2.56,14.68,2.03,21.65-.18,2.4-1.59,6.27-1.57,8.28ZM342.91,299.16c.08,1.25-.11,2.26-.39,3.45l.77.2c1.06-2.58,1.4-5.94-.37-8.3l-1.16.22c-.2.24,1.09,3.48,1.15,4.44ZM475.23,309.59c.71,5.68.88,11.39,0,17.06,4.02,1.37,7.88,3.6,11.05,6.44.29.26.54.45.48.89.69-.2.74-1.9.78-2.48.69-10.8-1.33-21.03-6.17-30.62-1.08-2.14-2.06-4.82-4.04-6.16-.77,1.34.21,3.58.19,4.62-.05,3.54-1,6.98-2.29,10.25ZM333.34,295.73c.84,1.02,1.47,4.83,1.06,6.07-.22.67-1.4.39-1.1,1.19,4.59,5.03,4.17-6.1,1.91-7.3-.73-.39-2.2-.39-3.06-.59-.1.74.77.11,1.19.62ZM337.15,304.73c5.1,1.52,5.49-6.52,3.5-9-.61-.77-2.97.12-3.88.15,1.53,2.64,1.67,6.14.39,8.85ZM487.54,307.43l4.22-.77c-.57-1.8-3.75-8.3-5.58-8.47-.66-.06-1.41.45-2.11.39l3.47,8.85ZM382.33,319.37l-4.41-7.32c1.46,8.32,3.87,16.4,6.92,24.25,3.81-1.53,7.36-3.62,11.16-5.19,19.34-7.98,46.79-11.56,67.37-7.79,3.62.66,7.08,1.91,10.69,2.58-.39-2.18.38-4.76.39-6.74,0-2.09-.79-4.82-.39-7.12-2.1,2.16-3.75,4.14-6.42,5.7-14.04,8.18-32.51-2.54-34.77-17.98-3.36-.23-6.69.02-9.97.74,3.21,21.87-25.66,35.75-40.58,18.87ZM496.37,319.57c.4-2.97-1.2-9.43-2.3-12.33-.35-.91-.68-2.36-1.54-2.88,1.47,5.16,3.02,10.34,3.07,15.78.91.06.67.12.77-.57ZM352.91,327.07c2.57-6.51-3.12-9.02-6.16-13.66-1.52-2.31-2.76-4.82-3.46-7.52-1.66.91-3.4,1.78-5.38,1.54,2.96,8.25,7.9,14.56,14.99,19.63ZM492.12,307.83l-4.21.76c1.28,3.98,2.22,8.15,2.69,12.32.3,2.66.29,5.77.39,8.47,2.45.14,2.41-.71,2.9-2.68.53-2.15.61-4.36.56-6.56,0-.26,0-.51,0-.77l-.38-1.16c.1-3.56-.92-7.03-1.95-10.38ZM361.21,313.56c-.84-.61-5.85-.39-5.44,1.2.21.82,1.04,2.15,1.38,3.24.29.94.64,3.87,1.13,4.27l5.4-.6c.47-.47-1.6-7.48-2.47-8.11ZM354.64,314.74c-.91.01-1.34,1.32-1.36,2.07.74.44,1.12.87,1.45,1.69,1.23,3.03,2.29,14.11,2.03,17.42-.03.4-.76,3.14-.98,3.45-.57.82-1.71.72-1.72.98.56,1.24,1.06,3.25,2.5,3.66.63.01,1.31-7.13,1.35-8.09.26-6.76-.75-14.93-3.27-21.18ZM364.01,323.27l-5.72.33c.68,2.82.67,5.6.77,8.47.01.38,0,.77,0,1.16,0,.13,0,.26,0,.39,0,.51,0,1.03,0,1.54,0,.26,0,.51,0,.77,0,.13,0,.26,0,.39-.01.26.01.51,0,.77-.16,2.85-.29,5.3-1.15,8.08l5.72-.43c.8-2.59,1.07-5.33,1.2-8.04.08-1.72.13-12.82-.82-13.42ZM462.98,324.88c-22.22-3.93-51.87.3-72.13,10.33-.97.48-4.85,2.31-4.86,3.2.64,1.97,7.08,13.87,8.27,13.96,9.87-5.2,20.61-8.77,31.66-10.55,14.33-2.31,29.94-2.84,43.74,2.13.94-.09,4.44-15.49,3.6-16.46-3.41-.92-6.78-1.99-10.27-2.61ZM481.56,351.7c1.15.03,5.15-13.14,5.17-14.87.01-1.83-3.7-4.5-5.23-5.46-1.96-1.23-4.28-1.97-6.27-3.15l-3.41,16.5c3.71,1.55,7.49,3.5,9.75,6.98ZM368.75,354.11c.07.76,1.8,3.75,2.31,4.64,1.24,2.16,3.44,5.4,5.11,7.2.28.31,1.28,1.5,1.73,1.15.91-2.26,3.24-5.26,5.01-6.93,1.07-1.02,3.57-2.83,4.87-3.78,1.39-1.02,3.13-2.25,4.74-2.77l-8.06-14.46c-.41-.4-.66,0-1,.19-3.91,2.16-7.98,5.94-10.94,9.27-1.1,1.24-3.93,3.76-3.78,5.49ZM454.65,370.96c6.49-7.38,11.23-16.1,14.79-25.23-12.42-4.79-27.05-4.65-40.13-2.84-11.88,1.65-23.4,5.42-34.09,10.74-.63.85,8.6,11.46,9.8,12.7,1.87,1.94,8.43,8.21,10.58,8.85-.19.86.47.82.95,1.15.96.67,4.15,3.03,5.04,3.09l8.63-3.08h.77c.29,0,.36-.38.38-.39,3.2-.06,6.39-.64,9.62-.39l7.12,1.8c.55-.06,3.73-3.78,4.41-4.49.6-.63,1.47-1.18,2.12-1.92ZM465.23,358.83c3.12-1.87,6.03-4.11,9.58-1.52l1.95,3.24,4.06-7.35c-.53-2-8.98-7.92-10.19-6.87l-5.4,12.49ZM393.68,354.95c-.73-.39-2.6,1.18-3.35,1.68-1.95,1.27-3.76,2.77-5.49,4.32-1.56,1.41-5.39,5.04-6,6.92-.41,1.28,1.48,3.06,2.73,3.12,1.03.05,2.55-.56,3.68-.59.57-.4.3-5.11,2.67-6.38,5.82-3.11,14.13,3.28,15.77,8.86.7,2.4.82,5.69-1.14,7.53-.86.81-2.09.87-2.71,1.71,2.36.95,14.18,4.66,15.77,3.67.35-.22.81-1.54,1.33-2.13.96-1.09,2.1-2.02,3.27-2.88-2.95-1.95-5.73-4.09-8.45-6.35-6.84-5.67-12.89-12.22-18.08-19.47ZM471.76,364.03c-2.67-.18-3.83.09-4.61,2.69-.99,3.3.02,3.17,3.08,3.47.14-.14-.1-2.12,0-2.7.13-.72,2.02-3.01,1.54-3.46ZM471.94,370.58c.21.27,6.5,1.78,6.74,1.53.09-.72-.12-1.63,0-2.31.25-1.38,1.33-2.62,1.92-3.85-3.57.1-7.49-3.4-8.85,1.54-.25.91-.48,2.24.18,3.09ZM460.81,366.34c.05-.38.51-.86-.2-.77-1.08,1.79-2.5,3.81-3.85,5.39-2.17,2.52-4.66,4.73-6.9,7.18l1.69,2.4c3.63-1.92,7.48-3.53,10.58-6.31l-.02-.55c-1.29-.12-1.89-2.77-1.9-3.87-.01-.98.45-2.4.59-3.46ZM488.68,373.27c1.19-10.05-9.53-8.56-7.68.39,2.46-.71,5.2-1.28,7.68-.39ZM391.76,370.96c.69,1.01,2.08,2.2,2.31,3.46.11.58-.14,2.54,0,2.69,2.63-.33,4.13-.53,3.07-3.46-.91-2.52-2.84-2.96-5.38-2.69ZM385.61,372.5c.83,1.16,2.36,2.4,2.69,3.85.12.52-.14,2.15,0,2.31,1.81-.47,4.36-.31,4.55-2.63.05-.61-.3-.73-.32-.84-.86-4.47-3.35-3.57-6.92-2.69ZM385.99,380.58c1.97-8.23-7.78-10.47-7.3-.77,2.4-1.03,4.97.22,7.3.77ZM487.14,385.2l3.2-.06c2.89-3.4.99-10.85-4.36-9.94,2.08,3.25,2.49,6.35,1.16,10ZM478.67,380.38c-.24,1.97.23,6.41,3.08,5.2-.19-.64-1.01-.67-1.55-1.33-1.49-1.86-.92-5.49.78-7.13.35-.01.76-.27,1.2-.18,3.15.63,2.85,6.42.73,8.26l3.12-.23c2.21-3.71-.51-13.03-5.43-8.24-.99.97-1.75,2.2-1.93,3.65ZM494.05,380.45c-.14-1.36-1.03-3.09-2.29-3.72.43,1.42.7,2.32.77,3.85.07,1.64.06,3.15-.77,4.62,2.13.19,1.74-1.74,1.92-3.08.06-.4.48-.61.37-1.67ZM447.73,382.13c.48-.18,2.37-.67,2.1-1.35-4.7-4.51-12.92-3.97-18.92-2.78-4.65.92-11.92,3.52-13.38,8.35,10.08.99,20.75-.58,30.2-4.22ZM379.07,389.44c-.25-2.98.56-5.58,2.69-7.69-4.19-.71-6.62,2.01-6.09,6.1l3.4,1.6ZM383.81,382.22c-3.03.36-4.52,6.36-3.23,8.5.27.44.87.42,1.18.64.35.26.8.92,1.35,1.15.27-.49-.49-1.17-.58-1.53-.4-1.59-.4-4.08.43-5.54.79-1.4,1.76-.91,3.03-1.01,1.87,1.91,1.32,5.8.38,8.09-.76.16-1.6.7-2.69.39,1.15,1.84,1.92,1.41,3.08,0,1.99-2.44,1.55-6.43-.38-8.86-.75-.94-1.2-1.66-2.57-1.83ZM372.92,387.13h1.53s.78-3.46.78-3.46c-.35.03-.76-.11-1.09.08s-1.62,2.99-1.22,3.38ZM492.03,390.9c5.06-.04,10.07.51,15.11.85l-9.51-3.75-11.64-.47,6.04,3.38ZM492.48,395.54c-.25-4.7-6.25-5.64-9.76-7.5-2.86,1.61-10.51,4.83-11.63,7.85-.68,1.84-3.05,15.76-2.4,16.65l23.79-17ZM367.64,391.68l2.58-2.24c-4.88.71-10.26.33-15.08,1.26-1.72.33-3.44.64-4.53,2.2,5.6-.79,11.37-2.03,17.04-1.21ZM390.59,416.18c.09-4.19.65-8.92-1.45-12.76-2.35-4.31-9.88-12.16-14.68-13.42-1.98-.52-4.25,1.14-5.38,2.69,7.62,9.27,14.91,18.98,20.76,29.48,1.08.74.74-5.52.75-5.98ZM494.31,394.78l18.22,1.2c-.79-.85-1.36-2.46-2.51-2.68-3.21-.63-8.93-1-12.3-1.16-1.6-.07-3.21.04-4.8,0l1.4,2.64ZM368.69,423.12c.77.9,3.3,4.05,4.01,4.46,2.43,1.39,13.21-.73,16.37-1.57-5.79-11.46-14.28-21.38-21.62-31.86-6.3-.47-12.54.76-18.76,1.46,6.2,9.32,12.73,19.01,20.01,27.51ZM493.95,397.22l-24.11,17.82c0,.66,6.19,1.52,7.17,1.67,2.08.31,6.4,1.14,8.22.65,1.29-.34,6.93-4.3,8.5-5.35,6.07-4.05,12.37-8.74,17.64-13.71l-17.42-1.08Z"/>
            <path class="cls-6" d="M397.73,320.13c-22.46-1.11-19.36-34.09,2.69-34.43,24.23-.37,20.87,35.59-2.69,34.43ZM398.87,318.47c19.48-.27,22.99-28.44,4.52-30.96-22.79-3.11-27.2,31.27-4.52,30.96Z"/>
            <path class="cls-6" d="M452.74,312.8c-18.85-5.41-18.64-33.64,1.79-32.2,24.56,1.73,23.64,39.49-1.79,32.2ZM453.77,311.39c22.46,6.01,22.65-27.39,1.15-29.25-18.97-1.64-19.08,24.45-1.15,29.25Z"/>
            <path class="cls-6" d="M403.43,292.17c-.92.78-4.03,5.43-4.62,5.61-2.66-.33-8.26-7-10.22-2.18-1.55,3.81,4.07,5.2,6.22,7.4-1.12,1.97-7.44,8.7-3.43,10.39,4.26,1.8,5.97-4.69,8.7-6.69,2.71.95,7.37,7.1,9.91,3.01,2.23-3.6-4.3-6.16-6.31-8.25,1.52-2.19,7.47-7.24,3.82-9.61-1.5-.97-2.75-.81-4.08.31Z"/>
            <path class="cls-6" d="M452.14,296.27v.56c-1.95,2.14-7.46,7.53-2.59,9.53,3.4,1.4,5.45-3.39,7.43-5.51,1.64-.25,5.7,6.23,8.73,5.35,1.03-.3,1.97-2.05,1.76-3.12-.33-1.65-4.94-5.55-6.47-6.46-.64-.88,7.62-7.39,2.2-9.7-3.49-1.49-4.76,3.43-7.07,5.04-2.9-.79-6.84-6.97-9.95-4.18-3.44,3.08,3.78,6.95,5.97,8.49Z"/>
          </g>
          <g>
            <path class="cls-4" d="M522.62,299.88c2.8-.23,2.82-4.62,0-4.39-8.03.66-9.04,12.35-8.83,18.63.35,10.35,5.5,20.5,15.22,24.52,5.14,2.13,11.02,1.51,16.5.86,4.38-.52,10.3-.44,13.37-3.99,5.22-6.04-2.54-13.86-6.76-18.12-4.22-4.26-8.15-8.93-12.87-12.62-2.61-2.04-5.89-3.21-8.59-5.14-2.48-1.77-4.88-4.12-7.99-4.14-2.82-.01-2.83,4.38,0,4.39,3.61.02,6.81,4.14,9.53,6.24,5.8,4.49,12.23,8.29,17.42,13.47,2.22,2.21,3.52,5.18,4.98,7.96.66,1.25,2.13,2.68,1.63,4.01-.55,1.44-2.77,1.52-4.23,2.04-3.91,1.4-7.94,3.05-12.08,2.87-4.6-.2-8.91-2.4-12.7-5.03-3.64-2.53-7.16-5.67-8.66-9.85-1.49-4.17-.76-8.83,0-13.2.43-2.5.67-7.17,3.28-8.27.16-.07,1.34-.28.79-.24Z"/>
            <path class="cls-4" d="M522.05,303.96c1.49-.22,3.18-.28,4.58.39,1.12.54,1.6,1.48,1.99,2.58.74,2.07,1.68,4.09,3.93,4.84,1.2.4,2.36.24,3.4,1.08.95.77,1.61,1.88,2.2,2.93,1.34,2.36,2.4,4.93,4.55,6.69,2.94,2.41,6.56,3.74,9.76,5.73,1.1.69,2.12-1.06,1.02-1.74-3.05-1.9-6.55-3.14-9.36-5.42-2.21-1.79-3.18-4.56-4.61-6.93-.64-1.05-1.37-2.08-2.34-2.86-1.09-.87-2.17-1.03-3.5-1.28-2.52-.48-2.71-3.07-3.66-4.98-1.58-3.2-5.4-3.43-8.51-2.98-1.28.19-.73,2.13.54,1.94h0Z"/>
            <circle class="cls-4" cx="535.13" cy="321.56" r="2.8"/>
          </g>
          <g>
            <path class="cls-4" d="M550.68,358.41c-5.81-.97-11.37,1.7-16.47,3.97-5.33,2.36-10.5,4.94-15.91,7.09-4.22,1.67-10.63,3.8-10.8,9.1-.17,5.34,6.57,7.73,10.78,9.29,4.61,1.7,9.2,4.02,14.02,4.95,4.61.89,9.62.42,14.11-1.28,3.26-1.24,6.3-2.61,7.92-5.67s1.56-6.53,2.11-9.79c1-5.87,1.99-16.85-5.56-18.69-2.74-.67-3.91,3.56-1.17,4.23,1.5.37,1.79,2.4,2.32,4.2.73,2.5,1.71,5.11,1.44,7.68-.29,2.75-2,5.28-3.02,7.85-2.47,6.18-7.28,8.38-13.54,7.77-4.01-.4-7.81-2.51-11.67-3.64-3.86-1.14-9.82-1.34-12.5-4.64-2.7-3.32,3.56-5.78,5.92-6.79,5.2-2.22,10.28-4.67,15.5-6.88,2.48-1.05,5.33-1.23,7.78-2.34,2.39-1.09,5.01-3.65,7.74-3.2,2.76.46,3.78-2.73.99-3.19Z"/>
            <path class="cls-4" d="M518.12,380.49c3.04-1.55,5.92-3.38,8.91-5.03s5.76-2.8,8.86-3.78c2.26-.72,4.56-1.39,6.68-2.47,2.36-1.2,4.36-2.93,6.08-4.94.84-.98-.58-2.41-1.42-1.42-1.69,1.97-3.6,3.62-5.94,4.76-2.21,1.08-4.62,1.7-6.95,2.46-6.2,2.01-11.46,5.73-17.21,8.68-1.15.59-.14,2.33,1.02,1.74h0Z"/>
            <circle class="cls-4" cx="539.6" cy="381.04" r="2.8"/>
          </g>
        </g>
        <g>
          <path class="cls-4" d="M297.16,234.02c1.24-2.53-2.55-4.76-3.79-2.22-2.14,4.37,3.6,7.95,6.49,10.47,3.33,2.89,6.3,7.11,10.31,9.03s8.31.96,12.43-.75c3.92-1.62,7.71-3.33,11.25-5.6,4.04-2.6,7.75-5.76,11.68-8.53,3.19-2.25,7.57-5.56,5.84-9.82-1.69-4.18-7.46-4.6-11.47-4.99-5.04-.48-10.3-1.15-15.31-.58-5.82.66-11.37,2.81-16.99,4.44-2.6.75-5.5.63-7.98,1.72-2.26.99-4.04,2.88-5.32,5.11-1.41,2.45,2.38,4.66,3.79,2.22,1.22-2.12,4.05-3.67,6.16-4.44,2.98-1.08,6.33-.96,9.42-1.68,6.1-1.43,12.19-3.24,18.44-3.58,4.04-.22,8.03.79,11.86,2.09,1.46.5,3.8,1.29,3.46,2.79-.12.52-1.36.47-1.72.86-1.4,1.5-2.49,3.42-4.23,4.51-5.22,3.29-11.01,5.69-16.23,8.99-3.05,1.92-6.21,4.89-9.78,4.43-2.52-.32-4.32-2.77-6.34-4.31-2.18-1.65-4.96-2.57-7.01-4.38-.62-.55-5.45-4.75-4.95-5.77Z"/>
          <circle class="cls-3" cx="310.87" cy="236.66" r="1.43"/>
          <circle class="cls-3" cx="322.79" cy="233.15" r="1.43"/>
          <circle class="cls-3" cx="336.89" cy="231.07" r="1.43"/>
          <path class="cls-4" d="M300.01,234.94c1.87.32,2.98,1.73,4.15,3.09s2.5,2.53,4.14,3.38c2.27,1.18,6.49,2.31,6.46,5.48-.01,1.3,2,1.3,2.01,0,.04-3.99-3.98-5.5-6.98-6.98-.74-.37-1.49-.75-2.16-1.24-.83-.62-1.51-1.43-2.18-2.22-1.34-1.57-2.77-3.08-4.9-3.45-1.27-.22-1.81,1.72-.54,1.94h0Z"/>
        </g>
      </g>
    </g>
  </g>
</svg>