<?xml version="1.0" encoding="UTF-8"?>
<svg id="_レイヤー_1" data-name="レイヤー 1" xmlns="http://www.w3.org/2000/svg" viewBox="0 0 558.2 1211.72">
  <defs>
    <style>
      .cls-1, .cls-2, .cls-3 {
        fill: none;
      }

      .cls-2 {
        stroke-width: 2.91px;
      }

      .cls-2, .cls-3 {
        stroke: #231815;
        stroke-miterlimit: 10;
      }

      .cls-3 {
        stroke-width: 8.72px;
      }

      .cls-4 {
        fill: #231815;
      }
    </style>
  </defs>
  <rect class="cls-1" x="173.6" y="517" width="4.5" height="2.04"/>
  <g>
    <path class="cls-4" d="M171.35,89.17v-11.62h10.07v20.59h-81.44v-20.59h10.07v11.62h25.17v-11.62h10.07v11.62h26.08ZM99.98,105h81.44v9.15h-71.83v45.75h-9.61v-54.9ZM117.82,121.47h63.6v38.43h-63.6v-38.43ZM127.43,150.76h44.38v-20.13h-44.38v20.13Z"/>
    <path class="cls-4" d="M262.22,149.84v-64.97h10.25v74.12h-80.53v-74.12h10.25v64.97h24.52v-72.29h10.25v72.29h25.26Z"/>
    <path class="cls-4" d="M364.43,78.01v9.15h-71.56v10.98h71.56v9.15h-11.44v14.18h11.44v9.15h-81.44v-52.62h81.44ZM328.11,151.21h25.99v-15.56h9.88v24.25h-80.98v-24.25h9.88v15.56h25.35v-15.56h9.88v15.56ZM343.11,121.47v-14.18h-50.24v14.18h50.24Z"/>
    <path class="cls-4" d="M456.4,98.14v61.77h-10.07v-52.62h-62.23v52.62h-10.07v-61.77h42.09c6.59-3.05,11.83-7.01,15.74-11.9h-30.66c-3.36,2.38-7.4,4.29-12.12,5.72-4.73,1.43-9.75,2.21-15.05,2.33v-8.97c5.12-.3,9.29-1.07,12.49-2.29,3.2-1.22,6.08-3.05,8.65-5.49h51.98c-.86,3.66-2.64,7.38-5.35,11.16-2.71,3.78-5.9,6.92-9.56,9.43h24.16Z"/>
    <path class="cls-4" d="M181.88,212.98h-82.36v-9.97h82.36v9.97Z"/>
    <path class="cls-4" d="M215.28,215.54h-9.15v-3.66h-15.1v-7.32h15.1v-4.12h-15.1v-19.95h15.1v-4.12h-15.1v-7.32h39.35v7.32h-15.1v4.12h15.1v19.95h-15.1v4.12h15.1v7.32h-15.1v3.66ZM227.63,226.34h-36.6v-7.78h82.36v7.78h-36.15v4.67h36.15v7.78h-36.15v12.72h-46.21v-7.78h36.6v-4.94h-36.6v-7.78h36.6v-4.67ZM222.14,187.82h-22.88v5.31h22.88v-5.31ZM234.95,169.06h38.89v18.03h-9.15v-9.79h-20.59v9.79h-9.15v-18.03ZM273.84,190.74c0,2.69-.28,5.12-.82,7.32-.98,4.03-2.71,7.21-5.22,9.56-2.5,2.35-6.35,4.07-11.53,5.17-5.19,1.1-12.29,1.65-21.32,1.65v-8.24c8.84,0,15.4-.55,19.67-1.65,4.27-1.1,7.17-2.96,8.69-5.58h-28.37v-8.24h38.89Z"/>
    <path class="cls-4" d="M292.14,174.09h68.17v8.69h-77.78v-15.56h9.61v6.86ZM282.53,188.64h77.78v8.69h-77.78v-8.69ZM360.32,242.72h7.32v8.69h-16.93v-39.35h-68.17v-8.69h77.78v39.35ZM311.36,215.73h9.61v7.78h25.17v8.69h-25.17v18.76h-38.43v-8.69h28.83v-10.07h-28.83v-8.69h28.83v-7.78Z"/>
    <path class="cls-4" d="M420.62,168.14c4.33,4.58,9.47,8.07,15.42,10.48,5.95,2.41,12.73,3.89,20.36,4.44v9.15c-7.08-.18-14.55-1.72-22.42-4.62-7.87-2.9-14.21-6.54-19.03-10.93-4.7,4.45-10.92,8.11-18.67,10.98-7.75,2.87-15.16,4.39-22.24,4.58v-9.15c7.62-.55,14.34-2.03,20.13-4.44,5.79-2.41,10.83-5.9,15.1-10.48h11.35ZM456.4,206.58h-82.36v-9.15h82.36v9.15ZM374.23,213.9h81.99v36.6h-81.99v-36.6ZM383.83,241.35h62.77v-18.3h-62.77v18.3Z"/>
    <path class="cls-4" d="M152,270.59c3.57,2.41,7.73,4.13,12.49,5.17,4.76,1.04,10.55,1.8,17.39,2.29v8.51c-10.68-.73-19.25-2.27-25.71-4.62-6.47-2.35-11.71-5.75-15.74-10.2-6.53,8.91-20.16,13.85-40.9,14.82v-8.51c7.44-.3,13.85-1.11,19.22-2.42,5.37-1.31,9.61-3.58,12.72-6.82h-31.94v-8.24h44.47c1.77,4.27,4.44,7.61,8.01,10.02ZM181.88,298.27h-82.36v-8.51h82.36v8.51ZM99.52,303.3h82.36v24.07h-15.56v6.86h15.56v8.69h-82.36v-8.69h15.19v-6.86h-15.19v-24.07ZM108.21,318.86h64.97v-7.05h-64.97v7.05ZM124.59,334.23h31.84v-6.86h-31.84v6.86ZM152.59,268.8v-8.24h29.28v8.24h-29.28Z"/>
    <path class="cls-4" d="M208.41,281.16h-9.15v-7.78h-8.24v-8.24h8.24v-5.03h9.15v5.03h8.24v8.24h-8.24v7.78ZM200.18,292.59h-9.15v-8.24h82.36v8.24h-9.15v4.12h9.15v8.24h-17.84v-12.35h-46.67v12.35h-17.84v-8.24h9.15v-4.12ZM250.96,304.95h-14.18v4.21h36.6v8.24h-36.6v4.48h36.6v8.24h-36.6v12.9h-45.75v-8.24h36.15v-4.67h-36.15v-8.24h36.15v-4.48h-36.15v-8.24h36.15v-4.21h-13.73v-8.24h37.52v8.24ZM220.77,260.38h22.42v7.96h-22.42v-7.96ZM220.77,272.46h22.42v7.96h-22.42v-7.96ZM264.69,260.11v5.03h8.69v8.24h-8.69v7.78h-9.15v-7.78h-8.24v-8.24h8.24v-5.03h9.15Z"/>
    <path class="cls-4" d="M281.16,333.77h7.78v-25.62h9.61v34.77h-17.39v-9.15ZM298.55,269.72h-16.47v-9.15h16.47v9.15ZM298.55,292.59h-16.47v-9.15h16.47v9.15ZM338.81,259.65v6.86h26.54v9.15h-62.68v-9.15h26.08v-6.86h10.07ZM302.67,281.16h16.47v61.77h-9.61v-52.62h-6.86v-9.15ZM364.89,288.02c0,11.59-1.28,21.02-3.84,28.28-2.56,7.26-6.85,13.01-12.86,17.25-6.01,4.24-14.32,7.37-24.94,9.38v-10.34c8.05-1.71,14.33-4.15,18.85-7.32,4.51-3.17,7.78-7.53,9.79-13.09,2.01-5.55,3.08-12.93,3.2-22.14h-14.92c-.37,4.88-1.18,8.85-2.42,11.9-1.25,3.05-3.02,5.54-5.31,7.46-2.29,1.92-5.35,3.65-9.2,5.17v-11.53c2.13-1.22,3.69-2.52,4.67-3.89.97-1.37,1.66-3.39,2.06-6.04.4-2.65.59-6.63.59-11.94h34.32v6.86Z"/>
    <path class="cls-4" d="M373.59,260.57h35.23v8.69h-26.54v16.01h4.58v-10.98h8.69v25.17h4.58v-17.39h8.69v26.08h-13.27v34.77h-8.69v-34.77h-13.27v-8.69h13.27v-5.49h-13.27v-33.4ZM382.28,342.92h-8.69v-29.74h8.69v29.74ZM408.82,342.92h-8.69v-29.74h8.69v29.74ZM458.23,293.97v8.69h-5.49v31.57h5.49v8.69h-45.3v-8.69h7.78v-31.57h-7.78v-8.69h7.78v-24.71h-7.78v-8.69h39.81v33.4h5.49ZM443.13,269.26h-12.81v24.71h12.81v-24.71ZM430.32,334.23h12.81v-31.57h-12.81v31.57Z"/>
    <path class="cls-4" d="M171.81,361.23v-9.15h10.07v17.66h-82.36v-17.66h10.07v9.15h25.62v-9.15h10.07v9.15h26.54ZM99.52,375.68h82.36v8.88h-72.75v49.87h-9.61v-58.75ZM161.24,418.78c4.67,3.54,11.54,5.76,20.63,6.68v8.97c-17.51-1.65-28.95-7.26-34.32-16.84-5.25,9.52-16.38,15.13-33.4,16.84v-8.97c8.66-.92,15.28-3.16,19.86-6.73,4.58-3.57,7.23-8.46,7.96-14.69.43-3.66.64-8.48.64-14.46h9.88c0,5.98.21,10.8.64,14.46.73,6.28,3.43,11.2,8.1,14.73ZM116.81,415.21v-23.79h9.61v23.79h-9.61ZM169.52,415.21v-23.79h9.61v23.79h-9.61Z"/>
    <path class="cls-4" d="M197.25,360.31h-6.68v-8.24h36.6v8.24h-6.59v10.07h6.59v64.06h-36.6v-64.06h6.68v-10.07ZM218.48,409.72v-30.66h-19.22v30.66h19.22ZM199.26,418.42v7.32h19.22v-7.32h-19.22ZM205.94,370.38h5.95v-10.07h-5.95v10.07ZM248.86,390.51h-17.57v-8.69h8.42v-10.98h-8.42v-18.76h9.33v10.52h23.88v-10.52h9.33v18.76h-8.88v10.98h8.88v8.69h-18.03v-19.67h-6.96v19.67ZM274.3,434.43c-8.11-1.16-15.01-3.51-20.68-7.05-6.16,3.66-13.6,6.01-22.33,7.05v-8.42c5.61-.67,10.62-2.2,15.01-4.58-2.5-2.75-4.55-5.86-6.13-9.33-2.38,2.38-5.34,4.15-8.88,5.31v-9.79c2.38-1.22,4.21-2.91,5.49-5.08,1.28-2.17,2.04-4.96,2.29-8.37h32.49c0,1.22-.06,2.35-.18,3.39-1.16,9.88-4.61,17.84-10.34,23.88,3.78,1.95,8.2,3.39,13.27,4.3v8.69ZM253.62,416.13c3.72-3.72,6.34-8.3,7.87-13.73h-15.28c.12.73.24,1.34.37,1.83,1.16,4.51,3.51,8.48,7.05,11.9Z"/>
    <path class="cls-4" d="M316.85,388.22h-11.35c1.04,3.48,2.61,7.02,4.71,10.62,2.1,3.6,4.47,6.77,7.09,9.52v14.18h-.37c-2.26-2.38-4.58-5.58-6.96-9.61-2.38-4.03-4.36-7.99-5.95-11.9v33.4h-8.69v-31.94c-1.22,4.09-3.07,8.43-5.54,13.04-2.47,4.61-5.08,8.46-7.82,11.58h-.37v-14.18c2.56-3.05,5.03-6.85,7.41-11.39,2.38-4.54,4.03-8.98,4.94-13.31h-11.9v-8.69h12.99v-27.45h9.15v27.45h12.63v8.69ZM282.53,352.07h8.69v23.79h-8.69v-23.79ZM308.16,352.07h8.69v23.79h-8.69v-23.79ZM327.47,395.54h-6.86v-8.69h44.75v47.58h-9.33v-38.89h-19.22v38.89h-16.65v-8.69h7.32v-30.2ZM340.19,360.77h-9.88v22.42h-9.33v-31.11h19.22v8.69ZM365.35,352.07v31.11h-9.33v-22.42h-10.34v-8.69h19.67Z"/>
    <path class="cls-4" d="M373.13,425.28h8.42v-25.62h9.61v34.77h-18.03v-9.15ZM391.43,361.23h-17.84v-9.15h17.84v9.15ZM391.43,384.1h-17.84v-9.15h17.84v9.15ZM453.65,381.36h5.49v8.69h-62.68v-37.98h57.19v29.28ZM396.46,395.08h59.02v39.35h-9.61v-30.66h-39.81v30.66h-9.61v-39.35ZM444.23,360.77h-38.16v20.59h8.42v-14.64h29.74v-5.95ZM444.23,381.36v-5.95h-20.13v5.95h20.13Z"/>
    <path class="cls-4" d="M104.92,442.67h9.42v18.76h5.77v8.88h-5.77v55.64h-9.42v-19.67h-6.77v-8.88h6.77v-27.09h-6.77v-8.88h6.77v-18.76ZM182.33,448.62v8.69h-10.98v9.15h10.98v59.48h-10.07v-50.79h-38.43v50.79h-10.07v-59.48h10.52v-9.15h-10.52v-8.69h23.79v-5.95h10.07v5.95h24.71ZM143.9,466.46h17.84v-9.15h-17.84v9.15Z"/>
    <path class="cls-4" d="M196.43,442.67h9.42v18.76h5.77v8.88h-5.77v55.64h-9.42v-19.67h-6.77v-8.88h6.77v-27.09h-6.77v-8.88h6.77v-18.76ZM273.84,443.58v25.62h-49.23v56.74h-9.33v-82.36h58.57ZM224.61,460.05h40.08v-7.32h-40.08v7.32ZM238.52,481.56h26.17v-7.78h9.15v16.47h-17.84v9.15h17.84v8.69h-17.84v9.15h17.84v8.69h-44.66v-8.69h17.2v-9.15h-17.2v-8.69h17.2v-9.15h-17.2v-16.47h9.33v7.78Z"/>
    <path class="cls-4" d="M364.89,487.51h-82.36v-9.97h82.36v9.97Z"/>
    <path class="cls-4" d="M455.49,444.5v9.15h-35.69v14.28h35.69v9.15h-35.69v14.64h35.69v9.15h-35.69v24.16h-44.84v-9.15h34.77v-15.01h-34.77v-9.15h34.77v-14.64h-34.77v-9.15h34.77v-14.28h-34.77v-9.15h80.53Z"/>
    <path class="cls-4" d="M106.66,534.17h9.61v18.76h7.5v8.97h-7.5v55.54h-9.61v-19.67h-8.51v-8.97h8.51v-26.9h-8.51v-8.97h8.51v-18.76ZM182.33,535.09v61.77h-22.88v20.59h-9.61v-20.59h-21.96v-61.77h54.45ZM137.77,544.06v43.83h34.68v-43.83h-34.68Z"/>
    <path class="cls-4" d="M192.4,535.55h47.04v28.83h-37.24v10.98h37.24v41.64h-47.04v-9.15h36.97v-23.33h-36.97v-29.28h37.24v-10.52h-37.24v-9.15ZM260.12,617.45v-82.36h10.07v82.36h-10.07Z"/>
    <path class="cls-4" d="M316.48,605.55c-2.26-2.44-4.53-5.66-6.82-9.65-2.29-4-4.16-7.92-5.63-11.76v33.31h-8.69v-32.12c-1.22,3.84-3.1,8.16-5.63,12.95-2.53,4.79-5.11,8.74-7.73,11.85h-.37v-14.18c2.44-2.87,4.86-6.68,7.28-11.44,2.41-4.76,4.1-9.18,5.08-13.27h-11.9v-8.69h12.99v-27.45h9.15v27.45h12.63v8.69h-11.44c.92,3.36,2.42,6.85,4.53,10.48,2.1,3.63,4.41,6.85,6.91,9.65v14.18h-.37ZM282.53,535.09h8.69v23.79h-8.69v-23.79ZM308.16,535.09h8.69v23.79h-8.69v-23.79ZM366.27,542.41v8.69h-6.41v57.65h6.41v8.69h-51.7v-8.69h6.41v-66.34h14.64v-8.24h9.61v8.24h21.05ZM330.58,608.75h19.67v-57.65h-19.67v57.65Z"/>
    <path class="cls-4" d="M419.8,578.1h36.15v9.15h-36.15v29.28h-44.38v-9.15h34.32v-20.13h-34.32v-9.15h34.32v-21.5h35.41v-11.44h-69.73v-9.15h79.61v29.74h-35.23v12.35Z"/>
    <path class="cls-4" d="M146.1,625.68c4.33,4.58,9.38,8.02,15.14,10.34,5.76,2.32,12.49,3.75,20.18,4.3v9.42c-7.08-.18-14.49-1.71-22.24-4.58-7.75-2.87-14-6.5-18.76-10.89-4.7,4.39-10.84,8.02-18.44,10.89-7.6,2.87-14.93,4.39-22.01,4.58v-9.15c7.56-.55,14.17-2.01,19.81-4.39,5.64-2.38,10.63-5.89,14.96-10.52h11.35ZM135.66,664.12h-35.69v-9.15h81.44v9.15h-36.15v12.35h36.15v9.15h-36.15v13.27h36.15v9.15h-81.44v-9.15h35.69v-13.27h-35.69v-9.15h35.69v-12.35Z"/>
    <path class="cls-4" d="M200.18,658.63v50.33h-9.61v-82.36h38.25v32.03h-28.64ZM219.21,649.93v-14.64h-19.03v14.64h19.03ZM215.73,672.53h-9.61v-8.42h52.62v8.42h-9.61v8.51h9.61v8.42h-9.61v19.03h-8.97v-19.03h-15.46v18.58h-18.58v-8.24h9.61v-10.34h-9.61v-8.42h9.61v-8.51ZM224.7,681.04h15.46v-8.51h-15.46v8.51ZM273.84,626.6v82.36h-9.61v-50.33h-29.01v-32.03h38.62ZM244.83,635.29v14.64h19.4v-14.64h-19.4Z"/>
    <path class="cls-4" d="M288.57,625.68h9.61v22.88h6.77v9.15h-6.77v42.09h6.77v9.15h-23.79v-9.15h7.41v-42.09h-7.41v-9.15h7.41v-22.88ZM318.68,625.68v7.32h46.21v75.95h-23.33v-9.15h13.73v-57.65h-46.21v-16.47h9.61ZM309.53,654.05h38.43v8.69h-38.43v-8.69ZM347.96,687.91h-38.43v-8.69h38.43v8.69Z"/>
    <path class="cls-4" d="M390.06,635.75h-16.93v-9.15h16.93v9.15ZM380.45,663.2h-7.32v-9.15h16.93v54.9h-9.61v-45.75ZM433.07,645.81v31.11h-14.64v5.95h14.64v8.24h-13.91c.85,2.26,2.49,4.15,4.9,5.67,2.41,1.53,5.41,2.62,9.01,3.29v8.88c-9.09-1.34-15.5-4.67-19.22-9.97-3.72,5.31-10.13,8.63-19.22,9.97v-8.88c3.6-.67,6.6-1.77,9.01-3.29,2.41-1.52,4.04-3.42,4.9-5.67h-13.91v-8.24h14.64v-5.95h-14.64v-31.11h13.82c2.38-1.1,4.64-2.62,6.77-4.58,2.13-1.95,3.9-4.09,5.31-6.41h-10.52c-1.71,2.14-3.88,3.95-6.5,5.44-2.62,1.5-5.58,2.55-8.88,3.16v-8.33c2.5-.61,4.63-1.66,6.41-3.16,1.77-1.49,2.99-3.28,3.66-5.35h28c-.37,3.17-1.53,6.59-3.48,10.25-1.95,3.66-4.3,6.65-7.05,8.97h10.89ZM403.78,668.23h20.13v-13.73h-20.13v13.73ZM437.64,635.75v-9.15h19.22v9.15h-19.22ZM447.25,663.2h-9.61v-9.15h19.22v54.9h-19.22v-9.15h9.61v-36.6Z"/>
    <path class="cls-4" d="M126.97,749.22h-6.5v15.1h6.96v9.15h-6.96v18.76h6.96v8.24h-28.37v-46.67h8.42v38.43h4.58v-43.01h-12.99v-31.11h27.91v31.11ZM118.55,726.34h-11.07v14.64h11.07v-14.64ZM131.64,791.77h14.09v-73.66h8.69v82.36h-22.79v-8.69ZM132.1,718.11h8.6v31.11h-8.6v-31.11ZM132.1,755.17h8.6v30.66h-8.6v-30.66ZM168.24,718.11v73.66h14.09v8.69h-22.79v-82.36h8.69ZM173.28,718.11h8.6v31.11h-8.6v-31.11ZM173.28,755.17h8.6v30.66h-8.6v-30.66Z"/>
    <path class="cls-4" d="M196.43,717.19h9.42v18.76h5.77v8.88h-5.77v55.64h-9.42v-19.67h-6.77v-8.88h6.77v-27.09h-6.77v-8.88h6.77v-18.76ZM273.84,718.11v82.36h-58.57v-82.36h58.57ZM224.43,726.8v64.97h40.26v-64.97h-40.26ZM260.12,732.75v8.51h-12.35v12.99h12.35v8.51h-12.35v14.55h4.3v-8.88h8.05v17.39h-31.11v-8.51h10.07v-14.55h-10.07v-8.51h10.07v-12.99h-10.07v-8.51h31.11Z"/>
    <path class="cls-4" d="M282.08,790.86h10.52v-24.71h9.61v33.86h-20.13v-9.15ZM302.67,727.71h-19.67v-9.15h19.67v9.15ZM302.67,750.59h-19.67v-9.15h19.67v9.15ZM341.56,748.85h25.17v9.33h-25.17v42.73h-10.07v-42.73h-24.25v-9.33h24.25v-31.2h10.07v31.2Z"/>
    <path class="cls-4" d="M455.49,719.02v9.15h-35.69v14.28h35.69v9.15h-35.69v14.64h35.69v9.15h-35.69v24.16h-44.84v-9.15h34.77v-15.01h-34.77v-9.15h34.77v-14.64h-34.77v-9.15h34.77v-14.28h-34.77v-9.15h80.53Z"/>
    <path class="cls-4" d="M169.98,823.34h11.9v24.8h-36.6v4.94h36.6v24.98h-36.6v5.22h36.6v8.69h-46.67v-13.91h-35.69v-24.98h35.69v-4.94h-35.69v-24.8h61.04v-5.03h-61.04v-8.69h70.46v13.73ZM108.67,839.45h64.06v-7.41h-64.06v7.41ZM108.67,869.37h64.06v-7.59h-64.06v7.59Z"/>
    <path class="cls-4" d="M223.92,847.04c-7.23,4.39-18.04,6.86-32.44,7.41v-8.51c10.19-.67,18.01-2.17,23.47-4.48,5.46-2.32,9.1-5.43,10.94-9.33h-19.13c-3.23,3.23-8.33,5.46-15.28,6.68v-8.51c3.17-.73,5.61-1.84,7.32-3.34,1.71-1.49,2.87-3.55,3.48-6.18.12-.61.27-1.52.46-2.75h-11.25v-8.42h45.75v8.42h-24.98l-.55,3.48-.55,2.29h25.62c0,1.46-.12,3.08-.37,4.85-1.1,7.87-5.26,14-12.49,18.39ZM237.33,852.17v6.41h35.6v8.69h-57.65v16.01h16.93v8.69h-26.54v-9.61h-14.18v-8.69h14.18v-6.41h-14.18v-8.69h35.78v-6.41h10.07ZM239.07,871.38h9.61v11.9h24.25v8.69h-33.86v-20.59ZM272.47,853.54h-29.65v-8.69h20.04v-35.23h9.61v43.92ZM242.91,809.61h9.61v28.37h-9.61v-28.37Z"/>
    <path class="cls-4" d="M307.24,809.61v82.36h-25.16v-82.36h25.16ZM291.23,818.31v64.97h6.86v-64.97h-6.86ZM343.11,856.74v5.03h22.24v8.69h-20.32c3.66,7.2,10.43,11.41,20.32,12.63v8.88c-6.22-.49-11.7-2.04-16.43-4.67-4.73-2.62-8.31-6.07-10.75-10.34-2.32,4.27-5.81,7.72-10.48,10.34-4.67,2.62-10.14,4.18-16.43,4.67v-8.88c5.06-.61,9.26-2,12.58-4.16,3.32-2.16,5.75-4.99,7.27-8.46h-19.77v-8.69h21.69v-5.03h10.07ZM327.92,858.11h-8.69v-6.13h-7.87v-8.51h7.87v-6.13h-7.87v-8.51h7.87v-5.67h-7.87v-8.51h7.87v-5.95h8.69v5.95h8.14v8.51h-8.14v5.67h8.14v8.51h-8.14v6.13h8.14v8.51h-8.14v6.13ZM340.19,809.61h25.17v43.92h-8.97v-35.41h-7.23v35.41h-8.97v-43.92Z"/>
    <path class="cls-4" d="M438.56,808.7v5.95h17.84v8.69h-17.84v6.41h-10.07v-6.41h-27.45v6.41h-10.07v-6.41h-16.93v-8.69h16.93v-5.95h10.07v5.95h27.45v-5.95h10.07ZM420.35,827.92c3.78,4.58,8.77,8.08,14.96,10.52,6.19,2.44,13.22,3.84,21.09,4.21v8.88c-7.87,0-15.63-1.34-23.29-4.03-7.66-2.68-13.71-6.31-18.16-10.89-4.45,4.64-10.43,8.28-17.94,10.94-7.5,2.65-15.16,3.98-22.97,3.98v-8.88c16.23-.79,28.06-5.7,35.5-14.73h10.8ZM409.82,846.22h10.25v10.98h36.33v8.69h-36.33v26.08h-10.25v-26.08h-35.78v-8.69h35.78v-10.98ZM384.57,891.97h-10.07v-19.67h10.07v19.67ZM455.94,891.97h-10.07v-19.67h10.07v19.67Z"/>
    <path class="cls-4" d="M105.28,910.27h-6.22v-9.15h21.87v9.15h-6.22v26.08h6.22v9.15h-6.22v28.83h6.22v9.15h-21.87v-9.15h6.22v-28.83h-6.22v-9.15h6.22v-26.08ZM125.51,900.21h9.33v9.15h16.29v74.12h-9.33v-65.43h-6.96v65.43h-9.33v-83.27ZM182.33,902.95v80.53h-25.71v-80.53h25.71ZM165.95,911.37v63.69h7.05v-63.69h-7.05Z"/>
    <path class="cls-4" d="M197.43,910.27h-6.86v-9.15h23.33v9.15h-6.86v26.08h6.86v9.15h-6.86v28.83h6.86v9.15h-23.33v-9.15h6.86v-28.83h-6.86v-9.15h6.86v-26.08ZM218.48,910.27h14.18v-10.07h9.61v83.73h-9.61v-10.52h-14.18v-9.15h14.18v-18.76h-14.18v-9.15h14.18v-16.93h-14.18v-9.15ZM274.3,910.27v9.15h-14.64v16.93h14.64v9.15h-14.64v18.76h14.64v9.15h-14.64v10.52h-9.61v-83.73h9.61v10.07h14.64Z"/>
    <path class="cls-4" d="M353.91,911.19v-10.07h10.07v82.36h-80.53v-82.36h10.07v10.07h60.4ZM293.52,942.21h60.4v-21.78h-60.4v21.78ZM293.52,974.24h60.4v-22.79h-60.4v22.79Z"/>
    <path class="cls-4" d="M401.04,901.12v82.36h-27.45v-82.36h27.45ZM382.74,909.82v64.97h9.15v-64.97h-9.15ZM456.86,931.78v9.15h-17.84c1.22,4.45,3.58,9.17,7.09,14.14,3.51,4.97,7.09,8.77,10.75,11.39v12.9c-4.7-3.36-8.89-7.53-12.58-12.54-3.69-5-6.51-10.37-8.46-16.11v32.76h-9.52v-32.76c-1.89,5.8-4.62,11.2-8.19,16.2-3.57,5-7.58,9.15-12.03,12.44v-12.9c3.6-2.56,7.05-6.31,10.34-11.26,3.29-4.94,5.52-9.7,6.68-14.27h-17.48v-9.15h20.5v-11.9h-19.58v-9.15h19.58v-10.52h9.88v10.52h19.95v9.15h-19.95v11.9h20.86Z"/>
  </g>
  <g>
    <path class="cls-4" d="M102.14,1036.69v-5.71h12.9v5.71h-12.9Z"/>
    <path class="cls-4" d="M128.67,1025.17v19.04h16.31v-19.04h5.76v17.88c0,2.13-.43,3.58-1.29,4.37s-2.48,1.18-4.88,1.18h-15.5c-2.38,0-3.99-.39-4.83-1.16-.84-.77-1.26-2.24-1.26-4.38v-17.88h5.68Z"/>
    <path class="cls-4" d="M161.15,1048.59v-23.42h3.92l19.88,15.55v-15.55h5.17v23.42h-3.95l-19.82-15.79v15.79h-5.19Z"/>
    <path class="cls-4" d="M222.03,1048.59v-23.42h21.09c1.93,0,3.33.36,4.19,1.07.87.71,1.3,1.87,1.3,3.48v5.52c0,1.59-.43,2.73-1.3,3.43-.87.7-2.26,1.05-4.19,1.05h-3.22l11.14,8.87h-8.19l-9.82-8.87h-5.38v8.87h-5.62ZM240.69,1029.2h-13.04v6.49h13.04c.99,0,1.67-.14,2.04-.43.37-.29.55-.78.55-1.46v-2.7c0-.68-.18-1.17-.55-1.46-.37-.29-1.05-.43-2.04-.43Z"/>
    <path class="cls-4" d="M257.45,1030.68c0-2.13.42-3.58,1.24-4.35s2.44-1.16,4.84-1.16h18.12c2.42,0,4.03.39,4.85,1.16s1.23,2.23,1.23,4.35v12.36c0,2.15-.42,3.61-1.26,4.38-.84.78-2.45,1.16-4.83,1.16h-18.12c-2.4,0-4.01-.39-4.84-1.16-.83-.77-1.24-2.24-1.24-4.38v-12.36ZM263.16,1044.1h18.88v-14.63h-18.88v14.63Z"/>
    <path class="cls-4" d="M318.14,1029.47h-15.39v14.63h15.39v-4.98l5.76,1.16v2.76c0,2.13-.42,3.58-1.27,4.37-.85.78-2.47,1.18-4.87,1.18h-14.63c-2.36,0-3.97-.39-4.81-1.16-.85-.77-1.27-2.24-1.27-4.38v-12.36c0-2.13.42-3.58,1.26-4.35.84-.78,2.45-1.16,4.83-1.16h14.63c2.42,0,4.04.39,4.88,1.16.84.78,1.26,2.23,1.26,4.35v2.27l-5.76.84v-4.33Z"/>
    <path class="cls-4" d="M333.29,1048.59v-23.42h5.76v8.9h17.82v-8.9h5.71v23.42h-5.71v-9.87h-17.82v9.87h-5.76Z"/>
    <path class="cls-4" d="M373.04,1048.59v-23.42h25.12v4.14h-19.36v5.11h11.28v4.03h-11.28v5.76h19.66v4.38h-25.42Z"/>
    <path class="cls-4" d="M406.71,1048.59v-23.42h21.09c1.93,0,3.33.36,4.19,1.07.87.71,1.3,1.87,1.3,3.48v5.52c0,1.59-.43,2.73-1.3,3.43-.87.7-2.26,1.05-4.19,1.05h-3.22l11.14,8.87h-8.19l-9.82-8.87h-5.38v8.87h-5.62ZM425.38,1029.2h-13.04v6.49h13.04c.99,0,1.67-.14,2.04-.43.37-.29.55-.78.55-1.46v-2.7c0-.68-.18-1.17-.55-1.46-.37-.29-1.05-.43-2.04-.43Z"/>
    <path class="cls-4" d="M440.14,1036.69v-5.71h12.9v5.71h-12.9Z"/>
  </g>
  <g>
    <path class="cls-4" d="M111.47,1054.28h-6.83v6.89h6.83v-2.34l2.53.53v1.29c0,1-.19,1.67-.56,2.04-.37.36-1.09.54-2.14.54h-6.5c-1.06,0-1.77-.18-2.14-.54s-.56-1.04-.56-2.04v-5.74c0-.99.18-1.67.56-2.03.37-.36,1.09-.55,2.14-.55h6.5c1.05,0,1.76.18,2.14.55.38.36.56,1.04.56,2.03v1.03l-2.53.4v-2.06Z"/>
    <path class="cls-4" d="M119.7,1063.22v-8.92h2.2v7.25h7v1.67h-9.19Z"/>
    <path class="cls-4" d="M132.61,1063.22v-8.92h2.16v8.92h-2.16Z"/>
    <path class="cls-4" d="M140.01,1063.22v-8.92h1.74l4.37,5.3,4.35-5.3h1.75v8.92h-2.02v-6.14l-3.99,5.07h-.42l-4.04-4.92v6h-1.74Z"/>
    <path class="cls-4" d="M157.47,1063.22v-8.92h8.02c.75,0,1.29.14,1.62.41s.49.71.49,1.32v1.07c0,.41-.13.74-.39,1-.26.26-.64.44-1.13.53.5.08.89.27,1.17.57.28.3.42.67.42,1.13v1.14c0,.58-.23,1.02-.69,1.31-.46.29-1.15.44-2.08.44h-7.42ZM164.48,1055.75h-4.87v2.11h4.87c.38,0,.64-.05.77-.14.14-.1.21-.26.21-.49v-.85c0-.23-.07-.4-.2-.49s-.39-.14-.78-.14ZM164.48,1059.33h-4.87v2.28h4.87c.41,0,.69-.06.84-.17.15-.12.22-.32.22-.62v-.68c0-.29-.07-.5-.22-.62s-.43-.18-.84-.18Z"/>
    <path class="cls-4" d="M172.6,1063.22v-8.92h2.16v8.92h-2.16Z"/>
    <path class="cls-4" d="M180.01,1063.22v-8.92h1.49l7.57,5.92v-5.92h1.97v8.92h-1.5l-7.55-6.02v6.02h-1.98Z"/>
    <path class="cls-4" d="M205.04,1055.93h-6.79v5.57h6.79v-1.9h-3.54v-1.59h5.68v3.08c0,.82-.16,1.37-.48,1.67-.32.3-.93.44-1.84.44h-6.46c-.91,0-1.52-.15-1.84-.44-.32-.29-.48-.85-.48-1.67v-4.71c0-.81.16-1.36.48-1.66s.93-.44,1.84-.44h6.46c.9,0,1.51.14,1.83.43.32.29.48.81.48,1.57v.24l-2.13.36v-.96Z"/>
    <path class="cls-4" d="M224.24,1063.22c-1.06,0-1.79-.18-2.16-.55-.38-.36-.57-1.04-.57-2.03v-.71c0-.47.08-.84.24-1.11s.53-.57,1.11-.92l2.22-1.33c-.32-.27-.56-.54-.71-.8-.15-.26-.22-.54-.22-.85v-.61c0-.72.2-1.23.6-1.54.4-.3,1.1-.45,2.1-.45h2.2c1.05,0,1.76.16,2.14.47.38.32.57.89.57,1.72v.66l-1.97.33v-1.45h-3.56v.78l5.13,4.27,2.52-2.11,1.44,1.25-2.51,2.08,3.44,2.9h-3.32l-1.79-1.51-.97.87c-.29.25-.56.42-.82.51s-.67.14-1.23.14h-3.87ZM223.64,1061.32h5.05l1.01-.87-3.27-2.72-2.79,1.72v1.87Z"/>
    <path class="cls-4" d="M259.63,1054.28h-6.83v6.89h6.83v-2.34l2.53.53v1.29c0,1-.19,1.67-.56,2.04-.37.36-1.09.54-2.14.54h-6.5c-1.06,0-1.77-.18-2.14-.54s-.56-1.04-.56-2.04v-5.74c0-.99.18-1.67.56-2.03.37-.36,1.09-.55,2.14-.55h6.5c1.05,0,1.76.18,2.14.55.38.36.56,1.04.56,2.03v1.03l-2.53.4v-2.06Z"/>
    <path class="cls-4" d="M266.5,1063.22l5.3-8.92h2.09l5.38,8.92h-2.44l-1.12-1.96h-5.9l-1.12,1.96h-2.17ZM270.72,1059.63h4.09l-2.08-3.72-2.01,3.72Z"/>
    <path class="cls-4" d="M282.75,1063.22v-8.92h9.47v1.6h-7.27v2.33h3.92v1.66h-3.92v3.34h-2.2Z"/>
    <path class="cls-4" d="M295.62,1063.22v-8.92h9.57v1.58h-7.38v1.95h4.3v1.54h-4.3v2.19h7.49v1.67h-9.69Z"/>
    <path class="cls-4" d="M321.55,1063.22l-3.63-8.92h2.28l2.34,6.22,2.51-6.22h1.49l2.49,6.22,2.3-6.22h1.97l-3.59,8.92h-1.48l-2.58-6.31-2.62,6.31h-1.49Z"/>
    <path class="cls-4" d="M335.71,1063.22l5.3-8.92h2.09l5.38,8.92h-2.44l-1.12-1.96h-5.9l-1.12,1.96h-2.17ZM339.93,1059.63h4.09l-2.08-3.72-2.01,3.72Z"/>
    <path class="cls-4" d="M351.97,1063.22v-8.92h8.04c.73,0,1.27.14,1.6.41s.49.71.49,1.32v2.1c0,.6-.16,1.04-.49,1.31s-.86.4-1.6.4h-1.23l4.25,3.38h-3.12l-3.74-3.38h-2.05v3.38h-2.14ZM359.07,1055.83h-4.97v2.47h4.97c.38,0,.64-.05.78-.16.14-.11.21-.3.21-.56v-1.03c0-.26-.07-.45-.21-.56-.14-.11-.4-.17-.78-.17Z"/>
    <path class="cls-4" d="M366.95,1063.22v-8.92h9.57v1.58h-7.38v1.95h4.3v1.54h-4.3v2.19h7.49v1.67h-9.69Z"/>
    <path class="cls-4" d="M381.04,1063.22v-8.92h2.2v3.39h6.79v-3.39h2.17v8.92h-2.17v-3.76h-6.79v3.76h-2.2Z"/>
    <path class="cls-4" d="M397.23,1056.4c0-.81.16-1.36.47-1.66.32-.29.93-.44,1.84-.44h6.9c.92,0,1.54.15,1.85.44s.47.85.47,1.66v4.71c0,.82-.16,1.37-.48,1.67-.32.3-.93.44-1.84.44h-6.9c-.91,0-1.53-.15-1.84-.44-.32-.29-.47-.85-.47-1.67v-4.71ZM399.41,1061.51h7.19v-5.57h-7.19v5.57Z"/>
    <path class="cls-4" d="M415.96,1054.3v7.25h6.21v-7.25h2.19v6.81c0,.81-.16,1.37-.49,1.66s-.95.45-1.86.45h-5.9c-.91,0-1.52-.15-1.84-.44-.32-.29-.48-.85-.48-1.67v-6.81h2.16Z"/>
    <path class="cls-4" d="M437.85,1055.89h-6.14v1.88h5.81c.91,0,1.53.15,1.84.44.32.29.47.85.47,1.66v1.23c0,.82-.16,1.37-.48,1.67-.32.3-.93.44-1.83.44h-5.79c-.92,0-1.54-.15-1.87-.44-.33-.29-.49-.85-.49-1.67v-.25l1.94-.36v1.05h6.56v-2.04h-5.78c-.91,0-1.53-.15-1.85-.45-.32-.3-.48-.85-.48-1.66v-1c0-.8.16-1.36.48-1.65.32-.3.94-.45,1.85-.45h5.3c.9,0,1.52.14,1.85.43.33.29.5.79.5,1.51v.22l-1.88.4v-.96Z"/>
    <path class="cls-4" d="M444.86,1063.22v-8.92h9.57v1.58h-7.38v1.95h4.3v1.54h-4.3v2.19h7.49v1.67h-9.69Z"/>
  </g>
  <rect class="cls-2" x="72.49" y="60.78" width="413.21" height="942.8"/>
  <g>
    <line class="cls-3" x1="53.77" y1="60.78" x2="91.22" y2="60.78"/>
    <line class="cls-3" x1="72.49" y1="79.5" x2="72.49" y2="42.05"/>
  </g>
  <g>
    <line class="cls-3" x1="466.98" y1="60.78" x2="504.43" y2="60.78"/>
    <line class="cls-3" x1="485.7" y1="79.5" x2="485.7" y2="42.05"/>
  </g>
  <g>
    <line class="cls-3" x1="466.98" y1="1003.58" x2="504.43" y2="1003.58"/>
    <line class="cls-3" x1="485.7" y1="1022.3" x2="485.7" y2="984.85"/>
  </g>
  <g>
    <line class="cls-3" x1="466.98" y1="1080.87" x2="504.43" y2="1080.87"/>
    <line class="cls-3" x1="485.7" y1="1099.59" x2="485.7" y2="1062.14"/>
  </g>
  <rect class="cls-2" x="72.49" y="1003.58" width="413.21" height="77.29"/>
  <rect class="cls-4" x="454.27" y="1091.93" width="10.77" height="77.74"/>
  <rect class="cls-4" x="447.4" y="1091.93" width="2.54" height="77.74"/>
  <rect class="cls-4" x="426.98" y="1091.93" width="2.37" height="77.74"/>
  <rect class="cls-4" x="439.25" y="1091.93" width="2.04" height="77.74"/>
  <rect class="cls-4" x="410.37" y="1091.93" width="10.5" height="77.74"/>
  <rect class="cls-4" x="400.64" y="1091.93" width="2.54" height="77.74"/>
  <rect class="cls-4" x="381.58" y="1091.93" width="5.86" height="77.74"/>
  <rect class="cls-4" x="392.17" y="1091.93" width="2.32" height="77.74"/>
  <rect class="cls-4" x="363.74" y="1091.93" width="10.9" height="77.74"/>
  <rect class="cls-4" x="336.15" y="1091.93" width="8.54" height="77.74"/>
  <rect class="cls-4" x="331.01" y="1091.93" width="2.92" height="77.74"/>
  <rect class="cls-4" x="299.58" y="1091.93" width="11.47" height="77.74"/>
  <rect class="cls-4" x="280.76" y="1091.93" width="1.24" height="77.74"/>
  <rect class="cls-4" x="289.9" y="1091.93" width=".96" height="77.74"/>
  <rect class="cls-4" x="271.65" y="1091.93" width="2.57" height="77.74"/>
  <rect class="cls-4" x="247.8" y="1091.93" width="11.35" height="77.74"/>
  <rect class="cls-4" x="217.57" y="1091.93" width="4.74" height="77.74"/>
  <rect class="cls-4" x="225.64" y="1091.93" width="4.8" height="77.74"/>
  <rect class="cls-4" x="199.7" y="1091.93" width="1.24" height="77.74"/>
  <rect class="cls-4" x="208.83" y="1091.93" width=".96" height="77.74"/>
  <rect class="cls-4" x="182.97" y="1091.93" width="3.33" height="77.74"/>
  <rect class="cls-4" x="190.64" y="1091.93" width="2.51" height="77.74"/>
  <rect class="cls-4" x="164.24" y="1091.93" width="11.35" height="77.74"/>
  <rect class="cls-4" x="145.99" y="1091.93" width="2.55" height="77.74"/>
  <rect class="cls-4" x="156.5" y="1091.93" width="2.57" height="77.74"/>
  <rect class="cls-4" x="127.61" y="1091.93" width="11.42" height="77.74"/>
  <rect class="cls-4" x="109.34" y="1091.93" width="10.26" height="77.74"/>
  <rect class="cls-4" x="91.2" y="1091.93" width="10.13" height="77.74"/>
  <rect class="cls-4" x="72.88" y="1091.93" width="11.35" height="77.74"/>
</svg>