<?xml version="1.0" encoding="UTF-8"?>
<svg id="_レイヤー_1" data-name="レイヤー 1" xmlns="http://www.w3.org/2000/svg" viewBox="0 0 383.84 266.29">
  <defs>
    <style>
      .cls-1 {
        stroke-width: 1.42px;
      }

      .cls-1, .cls-2, .cls-3 {
        fill: none;
        stroke: #231815;
        stroke-miterlimit: 10;
      }

      .cls-4 {
        fill: #231815;
      }

      .cls-2 {
        stroke-width: 1.86px;
      }

      .cls-3 {
        stroke-width: 5.22px;
      }
    </style>
  </defs>
  <g>
    <path class="cls-4" d="M33.84,189.97v-4.5h17.57v4.5h-17.57Z"/>
    <path class="cls-4" d="M76.74,195.67v-19.93h4.93v24.43h-24.86v-24.43h4.93v19.93h15Z"/>
    <path class="cls-4" d="M86.47,175.74h24.86v24.43h-4.93v-19.93h-15v19.93h-4.93v-24.43Z"/>
    <path class="cls-4" d="M137.55,175.74h24.43v4.5h-19.5v19.93h-4.93v-24.43Z"/>
    <path class="cls-4" d="M166.35,175.74h24.86v24.43h-24.86v-24.43ZM171.28,195.67h15v-15.43h-15v15.43Z"/>
    <path class="cls-4" d="M220.21,175.74v4.5h-19.28v15.43h19.28v4.5h-24.21v-24.43h24.21Z"/>
    <path class="cls-4" d="M229.51,164.6v11.14h19.93v24.43h-4.93v-19.93h-15v19.93h-4.93v-35.57h4.93Z"/>
    <path class="cls-4" d="M254.24,175.74h24.86v14.36h-20.01v5.57h20.01v4.5h-24.86v-24.43ZM259.08,185.6h15.17v-5.36h-15.17v5.36Z"/>
    <path class="cls-4" d="M283.89,175.74h24.43v4.5h-19.5v19.93h-4.93v-24.43Z"/>
    <path class="cls-4" d="M313.29,189.97v-4.5h17.57v4.5h-17.57Z"/>
  </g>
  <g>
    <path class="cls-4" d="M45.2,203.17v1.88h-8.24v10.84h8.24v1.88h-10.3v-14.61h10.3Z"/>
    <path class="cls-4" d="M48.17,217.78v-14.61h2.06v14.61h-2.06Z"/>
    <path class="cls-4" d="M53.37,205.81v-1.94h2.06v1.94h-2.06ZM53.37,217.78v-10.04h2.06v10.04h-2.06Z"/>
    <path class="cls-4" d="M58.5,207.75h11.09v10.04h-1.99v-8.22h-2.57v8.22h-1.99v-8.22h-2.55v8.22h-1.99v-10.04Z"/>
    <path class="cls-4" d="M74.65,203.17v4.58h8.19v10.04h-10.21v-14.61h2.03ZM74.65,215.93h6.16v-6.34h-6.16v6.34Z"/>
    <path class="cls-4" d="M85.91,205.81v-1.94h2.06v1.94h-2.06ZM85.91,217.78v-10.04h2.06v10.04h-2.06Z"/>
    <path class="cls-4" d="M91.05,207.75h10.21v10.04h-2.02v-8.19h-6.16v8.19h-2.03v-10.04Z"/>
    <path class="cls-4" d="M104.29,207.75h10.21v13.73h-10.21v-1.85h8.19v-1.85h-8.19v-10.04ZM106.32,215.93h6.16v-6.34h-6.16v6.34Z"/>
    <path class="cls-4" d="M138.02,203.17v1.88h-6.34v4.42h6.34v1.88h-8.54v4.54h6.51v-2.34h2.02v4.23h-10.56v-8.31h2.2v-6.3h8.36Z"/>
    <path class="cls-4" d="M161.17,203.17v1.88h-8.24v10.84h8.24v1.88h-10.3v-14.61h10.3Z"/>
    <path class="cls-4" d="M164.09,209.6v-1.85h10.21v10.04h-10.21v-5.99h8.22v-2.2h-8.22ZM166.08,215.93h6.23v-2.29h-6.23v2.29Z"/>
    <path class="cls-4" d="M187.37,203.17v1.85h-4.12v2.73h4.12v1.85h-4.12v8.19h-6.09v-1.85h4.1v-6.34h-4.1v-1.85h4.1v-4.58h6.11Z"/>
    <path class="cls-4" d="M190.22,207.75h10.21v5.9h-8.22v2.29h8.22v1.85h-10.21v-10.04ZM192.21,211.8h6.23v-2.2h-6.23v2.2Z"/>
    <path class="cls-4" d="M222.59,215.97v-8.22h1.99v10.04h-11.27v-10.04h1.99v8.22h2.64v-8.22h1.99v8.22h2.66Z"/>
    <path class="cls-4" d="M227.61,209.6v-1.85h10.21v10.04h-10.21v-5.99h8.22v-2.2h-8.22ZM229.6,215.93h6.23v-2.29h-6.23v2.29Z"/>
    <path class="cls-4" d="M240.84,207.75h10.04v1.85h-8.01v8.19h-2.03v-10.04Z"/>
    <path class="cls-4" d="M253.73,207.75h10.21v5.9h-8.22v2.29h8.22v1.85h-10.21v-10.04ZM255.72,211.8h6.23v-2.2h-6.23v2.2Z"/>
    <path class="cls-4" d="M268.99,203.17v4.58h8.19v10.04h-2.02v-8.19h-6.16v8.19h-2.03v-14.61h2.03Z"/>
    <path class="cls-4" d="M280.21,207.75h10.21v10.04h-10.21v-10.04ZM282.23,215.93h6.16v-6.34h-6.16v6.34Z"/>
    <path class="cls-4" d="M301.63,215.93v-8.19h2.02v10.04h-10.21v-10.04h2.03v8.19h6.16Z"/>
    <path class="cls-4" d="M316.63,207.75v1.85h-7.96v2.2h7.96v5.99h-9.95v-1.85h7.96v-2.29h-7.96v-5.9h9.95Z"/>
    <path class="cls-4" d="M319.66,207.75h10.21v5.9h-8.22v2.29h8.22v1.85h-10.21v-10.04ZM321.65,211.8h6.23v-2.2h-6.23v2.2Z"/>
  </g>
  <g>
    <line class="cls-3" x1="16.07" y1="168.33" x2="41.3" y2="168.33"/>
    <line class="cls-3" x1="28.69" y1="180.94" x2="28.69" y2="155.71"/>
  </g>
  <g>
    <line class="cls-3" x1="16.07" y1="109.14" x2="41.3" y2="109.14"/>
    <line class="cls-3" x1="28.69" y1="121.76" x2="28.69" y2="96.53"/>
  </g>
  <g>
    <line class="cls-3" x1="325.83" y1="45.06" x2="351.06" y2="45.06"/>
    <line class="cls-3" x1="338.44" y1="57.68" x2="338.44" y2="32.45"/>
  </g>
  <g>
    <rect class="cls-4" x="330.15" y="221.48" width="8.51" height="12.36"/>
    <rect class="cls-4" x="324.72" y="221.48" width="2" height="12.36"/>
    <rect class="cls-4" x="308.58" y="221.48" width="1.87" height="12.36"/>
    <rect class="cls-4" x="318.28" y="221.48" width="1.61" height="12.36"/>
    <rect class="cls-4" x="295.45" y="221.48" width="8.3" height="12.36"/>
    <rect class="cls-4" x="287.75" y="221.48" width="2" height="12.36"/>
    <rect class="cls-4" x="272.69" y="221.48" width="4.63" height="12.36"/>
    <rect class="cls-4" x="281.06" y="221.48" width="1.83" height="12.36"/>
    <rect class="cls-4" x="258.59" y="221.48" width="8.61" height="12.36"/>
    <rect class="cls-4" x="236.78" y="221.48" width="6.75" height="12.36"/>
    <rect class="cls-4" x="232.72" y="221.48" width="2.31" height="12.36"/>
    <rect class="cls-4" x="207.87" y="221.48" width="9.07" height="12.36"/>
    <rect class="cls-4" x="192.27" y="221.48" width="2.44" height="12.36"/>
    <rect class="cls-4" x="199.65" y="221.48" width="1.9" height="12.36"/>
    <rect class="cls-4" x="185.8" y="221.48" width="2.03" height="12.36"/>
    <rect class="cls-4" x="166.95" y="221.48" width="8.97" height="12.36"/>
    <rect class="cls-4" x="143.05" y="221.48" width="3.75" height="12.36"/>
    <rect class="cls-4" x="149.43" y="221.48" width="3.79" height="12.36"/>
    <rect class="cls-4" x="128.19" y="221.48" width="2.44" height="12.36"/>
    <rect class="cls-4" x="135.58" y="221.48" width="1.9" height="12.36"/>
    <rect class="cls-4" x="115.71" y="221.48" width="2.63" height="12.36"/>
    <rect class="cls-4" x="121.77" y="221.48" width="1.99" height="12.36"/>
    <rect class="cls-4" x="100.9" y="221.48" width="8.97" height="12.36"/>
    <rect class="cls-4" x="86.48" y="221.48" width="2.01" height="12.36"/>
    <rect class="cls-4" x="94.78" y="221.48" width="2.03" height="12.36"/>
    <rect class="cls-4" x="71.95" y="221.48" width="9.03" height="12.36"/>
    <rect class="cls-4" x="57.51" y="221.48" width="8.11" height="12.36"/>
    <rect class="cls-4" x="43.17" y="221.48" width="8.01" height="12.36"/>
    <rect class="cls-4" x="28.69" y="221.48" width="8.97" height="12.36"/>
  </g>
  <g>
    <path class="cls-4" d="M30.85,48.11h12.02v55.49h-6.47v-49.32h-5.55v-6.17ZM70.3,75.23h17.26v5.86h-14.8c1.36,2.55,3.42,5.08,6.2,7.58,2.77,2.51,5.64,4.4,8.6,5.67v7.09c-3.45-1.44-6.85-3.66-10.2-6.66-3.35-3-5.74-5.94-7.18-8.82v17.63h-6.23v-17.63c-1.44,2.84-3.81,5.76-7.12,8.79-3.31,3.02-6.63,5.25-9.96,6.69v-7.09c2.84-1.23,5.62-3.12,8.35-5.67,2.73-2.55,4.78-5.08,6.13-7.58h-14.49v-5.86h16.95v-5.55h-16.95v-21.58h40.69v21.58h-17.26v5.55ZM81.4,53.96h-28.36v9.86h28.36v-9.86Z"/>
    <path class="cls-4" d="M98.54,47.49h6.47v12.64h5.36v6.04h-5.36v37.42h-6.47v-13.25h-6.04v-6.04h6.04v-18.12h-6.04v-6.04h6.04v-12.64ZM149.83,52.73v6.17h-15.41v5.24h15.41v6.17h-36.99v-6.17h14.8v-5.24h-14.8v-6.17h14.8v-5.24h6.78v5.24h15.41ZM138.42,81.71h-25.58v-6.17h36.99v6.17h-4.93v21.89h-16.34v-6.04h9.86v-15.84Z"/>
    <path class="cls-4" d="M148.91,132.88v5.86h-28.36v26.82h-6.47v-3.08h-21.27v-5.86h3.39v-17.88h-3.08v-5.86h55.79ZM148.6,129.48h-54.87v-19.73h54.87v19.73ZM142.12,115.61h-41.92v8.01h41.92v-8.01ZM102.67,156.61h11.41v-17.88h-11.41v17.88ZM148.6,142.12v2.47c0,6.04-2.03,10.84-6.07,14.4-4.05,3.55-10.25,5.64-18.59,6.26v-6.17c5.55-.53,9.71-1.7,12.48-3.48s4.47-4.33,5.09-7.61h-17.57v-5.86h24.66Z"/>
    <path class="cls-4" d="M210.86,122.09v6.17h-24.84c.25,5.55,1.49,10.42,3.73,14.61,2.24,4.19,5.19,7.57,8.85,10.14,3.66,2.57,7.75,4.29,12.27,5.15v6.78c-6.37-1.19-12.14-3.68-17.32-7.46-5.18-3.78-8.9-8.9-11.16-15.35-2.06,6.45-5.59,11.56-10.6,15.32-5.02,3.76-10.69,6.26-17.02,7.49v-6.78c4.48-.86,8.49-2.58,12.02-5.15,3.53-2.57,6.35-5.95,8.45-10.14,2.1-4.19,3.23-9.06,3.39-14.61h-23.86v-6.17h24.17v-13.25h6.84v13.25h25.09Z"/>
    <path class="cls-4" d="M247.48,134.72v23.74h17.32v-18.5h6.78v24.66h-54.25v-24.66h6.78v18.5h16.4v-23.74h-23.18v-24.35h6.78v18.19h16.4v-18.19h6.97v18.19h17.32v-18.19h6.78v24.35h-24.11Z"/>
    <path class="cls-4" d="M295.33,109.14v9.86h38.53v45.62h-7.09v-39.21h-31.44v39.21h-16.95v-6.47h9.99v-32.74h-10.6v-6.41h10.6v-9.86h6.97Z"/>
  </g>
  <rect class="cls-2" x="28.69" y="109.14" width="59.18" height="59.18"/>
  <line class="cls-1" x1="155.31" y1="63.35" x2="333.86" y2="63.35"/>
  <polyline class="cls-1" points="155.31 101.56 174.25 97.98 200.78 97.98 208.93 88.57 223.35 88.57 244.59 83.72 261.14 75.85 291.24 57.18 302.03 59.23 332.65 49.76"/>
  <g>
    <path class="cls-4" d="M279.66,87.9h5.24v16.72h-2.36v-14.61h-2.88v-2.12Z"/>
    <path class="cls-4" d="M291.45,87.9h11.69v9.29h-9.37v5.28h9.37v2.16h-11.69v-9.59h9.37v-4.98h-9.37v-2.16Z"/>
    <path class="cls-4" d="M317.54,87.9v16.72h-11.89v-16.72h11.89ZM308.01,102.46h7.17v-12.41h-7.17v12.41Z"/>
    <path class="cls-4" d="M330.33,95.15v-7.25h2.32v9.37h-10.38v7.35h-2.32v-9.47h10.38ZM326,93.74h-6.04v-5.84h6.04v5.84ZM323.95,89.81h-1.93v2.01h1.93v-2.01ZM326.6,98.78h6.04v5.84h-6.04v-5.84ZM328.66,102.7h1.93v-2.01h-1.93v2.01Z"/>
  </g>
  <rect class="cls-2" x="152.89" y="45.02" width="185.77" height="61.65"/>
  <g>
    <path class="cls-4" d="M258.75,92.89v1.66h-13.21v9.44h-1.78v-11.1h7.74c.62-.3,1.18-.67,1.69-1.09s.92-.88,1.25-1.36h-6.01c-.51.51-1.17.93-1.97,1.25-.81.33-1.7.52-2.69.58v-1.66c.8-.1,1.49-.3,2.05-.58.57-.29,1.03-.69,1.41-1.19h9.91c-.14.75-.44,1.47-.92,2.18-.48.71-1.07,1.33-1.77,1.89h4.32ZM256.89,97.49h-8.13v4.85h10v1.66h-11.78v-8.17h11.69v4.78h-1.78v-3.12Z"/>
    <path class="cls-4" d="M265.25,90.07c-.06,1.51-.16,2.73-.31,3.64s-.38,1.6-.69,2.07c.3.46.53,1.15.69,2.07s.26,2.13.31,3.64c.01.32.02.76.02,1.32h-3.17v1.19h-1.66v-15.25h4.83c0,.57,0,1.01-.02,1.32ZM262.09,90.27v4.66c.21,0,.39-.03.54-.08.23-.08.4-.26.53-.56s.23-.76.3-1.4c.07-.64.1-1.51.1-2.62h-1.47ZM262.09,101.28h1.47c0-1.11-.03-1.98-.1-2.62-.07-.64-.17-1.1-.3-1.4-.13-.29-.31-.48-.53-.56-.15-.06-.33-.08-.54-.08v4.66ZM271.73,88.57c.81,1.37,2.19,2.16,4.13,2.37v1.69c-1.17-.1-2.19-.37-3.03-.8-.85-.43-1.52-.97-2.03-1.61-.49.64-1.14,1.18-1.97,1.61-.83.43-1.82.7-2.96.8v-1.69c1.92-.23,3.24-1.02,3.96-2.37h1.9ZM271.63,91.88v1.61h4.24v5.42h-4.07c.09.89.49,1.64,1.21,2.24.72.6,1.67.97,2.85,1.1v1.75c-1.23-.15-2.26-.45-3.08-.91-.82-.46-1.47-1.08-1.96-1.87-.49.79-1.13,1.41-1.94,1.87-.81.46-1.82.76-3.02.91v-1.69c1.16-.14,2.09-.51,2.79-1.12s1.1-1.37,1.19-2.27h-3.98v-5.42h3.98v-1.61h1.78ZM267.57,97.3h6.61v-2.2h-6.61v2.2Z"/>
  </g>
</svg>