<?xml version="1.0" encoding="UTF-8"?>
<svg id="_レイヤー_1" data-name="レイヤー 1" xmlns="http://www.w3.org/2000/svg" viewBox="0 0 142 415">
  <defs>
    <style>
      .cls-1 {
        stroke-miterlimit: 10;
        stroke-width: 1.7px;
      }

      .cls-1, .cls-2, .cls-3 {
        fill: #231815;
      }

      .cls-1, .cls-3 {
        stroke: #231815;
      }

      .cls-3 {
        stroke-linecap: round;
        stroke-linejoin: round;
        stroke-width: 1.28px;
      }
    </style>
  </defs>
  <g>
    <g>
      <path class="cls-1" d="M64.74,303.17c.13,1.62.01,2.36-.36,2.22-.24-.14-.47-.58-.71-1.32-.21-.77-.33-2.32-.36-4.62-.03-2.31.07-3.8.28-4.47.4-1.34.67-1.32.83.05l.16,2.59c0,.46.05,2.31.16,5.55Z"/>
      <path class="cls-1" d="M70.56,274c0,.21.22.72.67,1.53.4.71.76,1.74,1.09,3.12.33,1.37.5,2.54.5,3.49s-.38,1.96-1.15,3.12c-1.77,2.68-4.69,4.35-8.76,5.02-1.56.28-3.55.47-5.96.56-2.42.09-3.77.03-4.06-.19-.66-.46-.53-.76.4-.9.45-.07,1.16-.11,2.14-.11,4.28-.11,7.66-.55,10.15-1.32,2.48-.77,4.29-1.97,5.43-3.59.37-.49.6-.93.69-1.32.09-.39.12-1.02.1-1.9-.03-1.37-.35-2.88-.97-4.52-.62-1.64-1.34-2.86-2.16-3.67-.77-.77-1.56-1.31-2.38-1.61-.82-.3-2.36-.61-4.64-.93-5.13-.67-7.5-1.34-7.13-2.01.03-.11.12-.19.28-.26.58-.07,1.75.1,3.51.5,1.76.41,2.97.61,3.63.61,1.53.14,2.88.41,4.04.79.85.28,1.82.86,2.93,1.74,1.11.88,1.66,1.5,1.66,1.85Z"/>
      <path class="cls-1" d="M50.19,262.8c0-.35.12-.56.36-.63,1.19-.46,3.17-1.39,5.95-2.8,1.4-.6,3.08-1.81,5.05-3.62,1.97-1.81,3.67-3.74,5.09-5.79,1-1.41,1.93-2.47,2.78-3.17.42-.39.75-.72.99-1,.24-.28.34-.44.32-.48-.53-.7-4.02-1.16-10.46-1.37-2.14-.07-3.73-.13-4.76-.19-1.03-.05-1.91-.11-2.63-.19-.73-.07-1.17-.16-1.33-.26-.16-.11-.21-.25-.16-.42.11-.39,3.62-.4,10.54-.05,3.38.18,6.16.48,8.32.9,1.45.32,2.21.65,2.26,1,.03.28-.28.71-.91,1.27-1.14,1.13-2.59,2.71-4.36,4.76-1,1.34-2.15,2.73-3.45,4.18-1.29,1.44-2.15,2.31-2.58,2.59-.26.18-.63.44-1.09.79-.46.35-.84.63-1.13.85s-.67.46-1.13.74c-.46.28-.95.53-1.45.74-1.59.71-2.39,1.15-2.42,1.32-.03.14.19.25.63.32.4.07,1.29.14,2.7.21,4.94.32,7.72.63,8.32.95.5.28,1.29.52,2.36.71,1.07.19,1.63.2,1.69.03.05-.25.17-.37.36-.37.16,0,.2.12.12.37-.05.11-.03.19.06.26.09.07.21.11.36.11s.26.04.36.11c.09.07.11.16.06.26-.26.56-2.3.44-6.11-.37-2.09-.46-5.09-.77-9-.95-3.8-.18-5.71-.44-5.71-.79Z"/>
      <path class="cls-1" d="M68.82,207.09c.71,0,1.88-.72,3.49-2.17,1.19-1.02,1.53-1.55,1.03-1.59-.24,0-.22-.09.04-.26.03,0,.07-.02.12-.05.34-.18.64-.21.89-.11.25.11.38.32.38.63,0,.49-.5,1.2-1.49,2.11-.99.92-2,1.6-3.03,2.06-.53.21-1.37.72-2.54,1.53-1.16.81-2.42,1.73-3.79,2.75-1.36,1.02-2.11,1.59-2.24,1.69-.24.14-.41,1.89-.52,5.23-.1,3.35-.05,5.23.16,5.66.18.32,1.82.46,4.91.42,2.88-.03,4.39.07,4.52.32.05.04.07.12.04.26-.03.28-.41.47-1.15.56-.74.09-2.71.18-5.91.29-4.62.11-7.16.32-7.61.63-.4.28-1.19.41-2.38.4-1.19-.02-2.1-.17-2.73-.45-.69-.35-1.12-.81-1.31-1.37-.5-1.3-.5-4.14,0-8.51.5-4.37,1.15-7.29,1.94-8.77.77-1.44,1.76-2.52,2.97-3.22,1.21-.7,2.38-.88,3.49-.53.53.14,1.02.7,1.49,1.66.46.97.77,2.07.93,3.3.19,1.52.36,2.4.52,2.64.11.25.47.18,1.09-.21.62-.39,1.95-1.39,3.98-3.01,1.56-1.27,2.46-1.9,2.7-1.9ZM50.71,216.23c-.19.32-.32,1.69-.4,4.12-.08,2.43-.04,3.91.12,4.44.27.85.53,1.23.79,1.16l.16-.16c.08-.14.55-.26,1.41-.34s1.77-.16,2.73-.21c.96-.05,1.51-.1,1.65-.13,1.14-.14,2.19-.19,3.17-.16-.24-1.9-.26-3.89-.08-5.97.13-1.8.07-3.08-.2-3.86-.29-.7-.36-1.2-.2-1.48.13-.28.18-.93.14-1.96-.04-1.02-.15-1.99-.34-2.91-.63-3.17-2.27-3.95-4.91-2.33-2.12,1.34-3.29,3.63-3.53,6.87-.16,1.62-.33,2.59-.51,2.91ZM53.44,226.54c-.16.07-.12.12.12.16.58.11.87.09.87-.05,0-.03-.04-.07-.12-.11-.32-.07-.61-.07-.87,0Z"/>
      <path class="cls-1" d="M51.85,184.15c.11,0,.24-.37.4-1.11.11-.77.62-1.81,1.55-3.12,1.16-2.04,3.39-3.36,6.7-3.96,3.3-.6,5.96-.33,7.97.79.92.49,1.56,1.17,1.92,2.04.36.86.75,2.76,1.17,5.68.34,2.33.31,4.66-.1,7-.41,2.34-1.06,3.94-1.96,4.78-.82.78-1.8,1.51-2.93,2.19-1.14.69-2.01,1.08-2.62,1.19-.82.11-2.01-.02-3.59-.37-1.57-.35-2.68-.77-3.31-1.27-.95-.77-2.02-1.81-3.21-3.12-1.19-1.3-2-2.5-2.42-3.59-.34-.88-.46-2.29-.34-4.23.12-1.94.38-2.91.77-2.91ZM53.84,181.4c0,.21-.28,1.06-.83,2.54-.77,1.94-1.1,3.59-1.01,4.97.09,1.37.64,2.68,1.64,3.91,1.29,1.62,2.27,2.71,2.93,3.28.66.56,1.51,1.06,2.54,1.48,1.4.56,2.71.85,3.92.85.82.04,1.45-.03,1.88-.21.44-.18,1.16-.67,2.16-1.48.95-.74,1.61-1.31,1.96-1.72.36-.4.65-.94.89-1.61.37-.99.62-2.41.75-4.28.13-1.87.11-3.4-.08-4.6-.53-3.24-1.02-5.21-1.47-5.89s-1.56-1.21-3.33-1.56c-1.43-.28-3.34-.2-5.75.24-2.4.44-3.84.96-4.32,1.56-.05.11-.37.48-.95,1.14-.58.65-.9,1.12-.95,1.4Z"/>
      <path class="cls-1" d="M50.74,162.38c0,.88.08,1.51.24,1.88.16.37.61,1.05,1.35,2.03.77.99,1.65,1.87,2.65,2.64,1.01.78,1.76,1.16,2.26,1.16.37,0,.79.18,1.27.53,1.9,1.27,4.53.95,7.89-.95,1.46-.85,2.33-2.8,2.62-5.87.16-1.37.34-2.24.55-2.59.24-.39.34-1.59.32-3.62-.03-2.03-.17-3.37-.44-4.04-.26-.77-1-1.43-2.22-1.96-1.24-.53-2.06-.79-2.46-.79-.4-.03-.61-.21-.63-.53.08-.35.33-.56.75-.63.58,0,1.48.26,2.7.79,1.22.53,1.94.97,2.18,1.32.58.88.95,2.43,1.11,4.65.16,2.22.01,3.89-.44,5.02-.18.53-.3,1-.36,1.4-.05.41-.11.89-.16,1.45-.05.56-.13,1.15-.24,1.74-.21,1.3-.62,2.37-1.23,3.2-.61.83-1.53,1.58-2.78,2.25-.82.46-1.5.75-2.04.87-.54.12-1.35.19-2.44.19-.71,0-1.29-.03-1.72-.11-.44-.07-.73-.13-.89-.19-.16-.05-.44-.2-.85-.45-.41-.25-.73-.44-.97-.58-1.43-.6-2.8-1.56-4.12-2.88-1.32-1.32-2.18-2.6-2.58-3.83-.29-.81-.37-1.8-.24-2.96.11-.92.58-2.55,1.43-4.92.85-2.36,1.48-3.81,1.9-4.33.42-.53.93-.93,1.51-1.19.58-.26.96-.27,1.15-.03.21.28.09.53-.36.74-.63.35-1.2.93-1.71,1.72-.5.79-1.07,2.02-1.7,3.67-.87,2.22-1.31,3.95-1.31,5.18Z"/>
      <path class="cls-1" d="M50.47,146.26c0-.42.35-.74,1.05-.95.7-.21,1.95-.37,3.74-.48l3.77-.26c.05-.07.11-3.12.16-9.14.08-4.09.1-6.62.06-7.61-.04-.99-.18-1.57-.42-1.74-.24-.21-1.71-.35-4.4-.42-2.64-.03-3.96-.23-3.96-.58,0-.32.21-.55.63-.69.48-.14,2.07-.15,4.78-.03,2.71.12,4.17.27,4.38.45.4.25,2.27.41,5.63.48,2.25.07,3.68.14,4.3.21.62.07.93.21.93.42,0,.35-.06.53-.2.53-4.86.25-8.31.11-10.35-.42-.21,3.17-.37,9.34-.48,18.5.19,0,1.22-.03,3.11-.08,1.89-.05,3.43-.12,4.62-.21,1.19-.09,1.9-.2,2.14-.34.11-.46.46-.56,1.07-.29.61.26.91.64.91,1.14,0,.32-.08.51-.24.58-.34.11-2.7.21-7.06.32h-.08c-7.85.18-12.25.42-13.2.74-.61.21-.91.18-.91-.11Z"/>
      <path class="cls-1" d="M52.84,118.04c.82-.28,3.16-.42,7.02-.42,0-8.17.08-12.63.24-13.37.11-.28.28-.42.52-.42.16-.07.25.83.26,2.7.01,1.87,0,4.18-.06,6.92-.05,2.75-.08,4.25-.08,4.49l1.62.21c4.1.53,6.5.6,7.21.21.53-.28.7-.99.52-2.11-.03-.14-.05-.28-.08-.42-.29-1.55-.46-3.85-.49-6.9-.04-3.05.07-5.7.34-7.95.37-3.21.63-4.83.79-4.86.05,0,.16.11.32.32.27.35.25,1.66-.04,3.91-.34,2.93-.46,6.17-.34,9.73.12,3.56.44,6.52.97,8.88.03.25.04.45.04.61s-.14.27-.42.34c-.28.07-.63.1-1.07.08-.44-.02-1.08-.06-1.92-.13-11.26-1.23-16.89-1.11-16.89.37,0,.56-.09.85-.26.87-.17.02-.31-.24-.42-.77-.08-.6-.25-1.02-.52-1.27-.21-.21-.2-.4.04-.58.24-.21.25-.69.04-1.43-.45-1.55-.77-3.94-.97-7.16-.2-3.22-.19-5.77.02-7.64.08-.53.16-.88.26-1.06.09-.18.22-.25.38-.21.21.07.34.38.38.92.04.55.03,1.82-.02,3.83-.03,3.38.14,6.24.52,8.56.37,2.54.61,3.88.71,4.02.11.14.57.05,1.39-.26Z"/>
      <path class="cls-1" d="M68.82,72.53c.71,0,1.88-.72,3.49-2.17,1.19-1.02,1.53-1.55,1.03-1.59-.24,0-.22-.09.04-.26.03,0,.07-.02.12-.05.34-.18.64-.21.89-.11.25.11.38.32.38.63,0,.49-.5,1.2-1.49,2.11-.99.92-2,1.6-3.03,2.06-.53.21-1.37.72-2.54,1.53-1.16.81-2.42,1.73-3.79,2.75-1.36,1.02-2.11,1.59-2.24,1.69-.24.14-.41,1.89-.52,5.23-.1,3.35-.05,5.23.16,5.66.18.32,1.82.46,4.91.42,2.88-.03,4.39.07,4.52.32.05.04.07.12.04.26-.03.28-.41.47-1.15.56-.74.09-2.71.18-5.91.29-4.62.11-7.16.32-7.61.63-.4.28-1.19.41-2.38.4-1.19-.02-2.1-.17-2.73-.45-.69-.35-1.12-.81-1.31-1.37-.5-1.3-.5-4.14,0-8.51.5-4.37,1.15-7.29,1.94-8.77.77-1.44,1.76-2.52,2.97-3.22,1.21-.7,2.38-.88,3.49-.53.53.14,1.02.7,1.49,1.66.46.97.77,2.07.93,3.3.19,1.52.36,2.4.52,2.64.11.25.47.18,1.09-.21.62-.39,1.95-1.39,3.98-3.01,1.56-1.27,2.46-1.9,2.7-1.9ZM50.71,81.67c-.19.32-.32,1.69-.4,4.12-.08,2.43-.04,3.91.12,4.44.27.85.53,1.23.79,1.16l.16-.16c.08-.14.55-.26,1.41-.34s1.77-.16,2.73-.21c.96-.05,1.51-.1,1.65-.13,1.14-.14,2.19-.19,3.17-.16-.24-1.9-.26-3.89-.08-5.97.13-1.8.07-3.08-.2-3.86-.29-.7-.36-1.2-.2-1.48.13-.28.18-.93.14-1.96-.04-1.02-.15-1.99-.34-2.91-.63-3.17-2.27-3.95-4.91-2.33-2.12,1.34-3.29,3.63-3.53,6.87-.16,1.62-.33,2.59-.51,2.91ZM53.44,91.98c-.16.07-.12.12.12.16.58.11.87.09.87-.05,0-.03-.04-.07-.12-.11-.32-.07-.61-.07-.87,0Z"/>
      <path class="cls-1" d="M64.74,62.91c.13,1.62.01,2.36-.36,2.22-.24-.14-.47-.58-.71-1.32-.21-.77-.33-2.32-.36-4.62-.03-2.31.07-3.8.28-4.47.4-1.34.67-1.32.83.05l.16,2.59c0,.46.05,2.31.16,5.55Z"/>
    </g>
    <g>
      <path class="cls-3" d="M79.7,302.06c0,.41.04.71.11.88.08.17.29.49.63.95.36.46.78.88,1.25,1.24.47.36.83.55,1.06.55.17,0,.37.08.6.25.89.6,2.13.45,3.7-.45.68-.4,1.09-1.31,1.23-2.75.07-.64.16-1.05.26-1.22.11-.18.16-.75.15-1.7-.01-.95-.08-1.58-.2-1.9-.12-.36-.47-.67-1.04-.92-.58-.25-.97-.37-1.15-.37-.19-.02-.29-.1-.3-.25.04-.17.16-.26.35-.3.27,0,.7.12,1.27.37s.91.46,1.02.62c.27.41.45,1.14.52,2.18.08,1.04,0,1.83-.2,2.36-.09.25-.14.47-.17.66-.03.19-.05.42-.07.68-.03.26-.06.54-.11.82-.1.61-.29,1.11-.58,1.5s-.72.74-1.3,1.05c-.38.22-.7.35-.96.41-.25.06-.63.09-1.14.09-.34,0-.61-.02-.81-.05-.2-.03-.34-.06-.42-.09s-.21-.1-.4-.21c-.19-.12-.34-.21-.46-.27-.67-.28-1.31-.73-1.94-1.35-.62-.62-1.02-1.22-1.21-1.8-.13-.38-.17-.84-.11-1.39.05-.43.27-1.2.67-2.31.4-1.11.7-1.79.89-2.03.2-.25.44-.43.71-.56.27-.12.45-.13.54-.01.1.13.04.25-.17.35-.3.17-.56.43-.8.81-.23.37-.5.95-.8,1.72-.41,1.04-.62,1.85-.62,2.43Z"/>
      <path class="cls-3" d="M80.07,292.94c-.1-.21-.06-.36.13-.45.16-.07.53-.15,1.1-.25,1.69-.31,3.29-.37,4.8-.17,1.12.17,1.91.19,2.38.07.58-.15.86-.1.82.15-.01.05-.05.12-.11.2-.25.33-1.49.36-3.72.1-2.12-.23-3.74-.09-4.86.42-.29.12-.46.09-.54-.07Z"/>
      <path class="cls-3" d="M80.33,288.42c0-.21.15-.32.45-.32.57,0,.86.15.86.45,0,.13-.17.25-.5.35-.34.1-.56.1-.67,0-.09-.08-.13-.24-.13-.47ZM89.37,288.2c0,.17-.12.26-.34.29-.23.02-.96.05-2.21.06-1.96.02-2.94.06-2.94.12l.09.12c0,.1-.06.16-.17.17-.43-.05-.68-.14-.72-.27-.03-.1.01-.24.11-.42.06-.12.27-.19.61-.22s1.08-.04,2.2-.02c1.6.02,2.4,0,2.4-.07,0-.03-.04-.07-.13-.1-.22-.12-.34-.21-.34-.27-.01-.15.26-.13.8.05.42.13.63.32.63.57Z"/>
      <path class="cls-3" d="M83.2,273.81c0-.56.1-1.04.3-1.43.2-.39.46-.62.78-.71.71-.17,1.38-.2,2.02-.1s1.45.36,2.43.79c.09.03.64.26,1.66.67.21.07.32.18.32.35-.01.12-.09.18-.22.2-.11.02-.37-.07-.77-.25-.4-.18-.64-.31-.71-.4-.07-.1-.21-.15-.41-.15-.15,0-.53-.14-1.13-.42-.56-.28-1.18-.4-1.88-.35-.58.03-.98.09-1.21.16-.22.07-.41.24-.56.48-.16.26-.25.65-.25,1.17,0,.51.07.97.23,1.36.11.28.4.75.87,1.41.46.66.8,1.08,1.01,1.26.24.18.63.31,1.17.37.45.07,1,.22,1.66.45.66.23,1.04.41,1.13.55.14.18.05.27-.26.27s-.84-.09-1.54-.27c-1.4-.38-2.55-.44-3.44-.17-.26.07-.5.19-.72.36s-.32.33-.32.46c0,.07.25.44.74,1.13.5.69.81,1.1.95,1.23.34.31.87.6,1.61.87.74.26,1.54.45,2.39.55.54.07.89.14,1.02.22.14.08.17.25.11.5-.05.18-.13.2-.24.05-.12-.12-.48-.21-1.08-.3-2.33-.26-4.07-1.21-5.21-2.83-.57-.81-.73-1.49-.46-2.03.1-.2.38-.4.86-.6.47-.2.92-.32,1.34-.37l-.91-1.22c-.51-.71-.84-1.28-1-1.7-.16-.42-.24-.95-.24-1.58Z"/>
      <path class="cls-3" d="M81.02,268.53c-.11,0-.17-.06-.17-.17.03-.08.13-.14.32-.19.19-.04.3-.12.33-.24.1-.17.39-.33.88-.51.48-.17,1.02-.3,1.6-.38.54-.08.81-.16.78-.22-.67-.28-1.13-1.24-1.39-2.88-.17-1.14-.06-2.06.35-2.75.19-.3.49-.65.91-1.05.42-.4.73-.64.93-.71.79-.26,2.14.81,4.04,3.22.2.26.33.48.39.63.06.16.09.38.09.66,0,.46-.08.94-.23,1.43-.16.49-.31.73-.46.73-.14,0-.2-.02-.2-.07s.08-.3.24-.74c.21-.58.28-1.02.21-1.34-.07-.31-.34-.81-.83-1.49-.42-.58-.91-1.11-1.46-1.59-.55-.48-1.03-.78-1.44-.89-.25-.08-.65.19-1.22.81s-.88,1.15-.94,1.6c-.05.38,0,.96.13,1.72.14.77.29,1.28.45,1.53.27.41.6.68.98.81s1.03.18,1.94.16c1.1,0,1.94-.05,2.51-.15.67-.13.99-.07.97.2-.01.05-.04.11-.09.17-.19.25-1.52.45-4,.6-.36.03-.77.07-1.22.1s-.76.06-.91.07c-.15.02-.37.05-.63.09-.27.04-.51.1-.73.16-.22.07-.51.16-.87.27-.66.28-1.07.42-1.25.42Z"/>
      <path class="cls-3" d="M80.33,255.86c0-.21.15-.32.45-.32.57,0,.86.15.86.45,0,.13-.17.25-.5.35-.34.1-.56.1-.67,0-.09-.08-.13-.24-.13-.47ZM89.37,255.64c0,.17-.12.26-.34.29-.23.02-.96.05-2.21.06-1.96.02-2.94.06-2.94.12l.09.12c0,.1-.06.16-.17.17-.43-.05-.68-.14-.72-.27-.03-.1.01-.24.11-.42.06-.12.27-.19.61-.22s1.08-.04,2.2-.02c1.6.02,2.4,0,2.4-.07,0-.03-.04-.07-.13-.1-.22-.12-.34-.21-.34-.27-.01-.15.26-.13.8.05.42.13.63.32.63.57Z"/>
      <path class="cls-3" d="M90.34,246.28c-.04.07-.17.1-.4.09-.23,0-.54-.05-.94-.11-.4-.07-.77-.16-1.12-.27-.83-.26-1.68-.28-2.55-.05-.87.23-1.44.61-1.71,1.14-.12.25-.23.64-.31,1.17-.08.53-.1.88-.05,1.04.05.17.33.45.84.84.51.4.97.69,1.39.89.54.23,1.41.34,2.59.32,1.23-.02,1.89.05,1.99.2.05.08,0,.15-.15.2-.2.07-.72.12-1.58.17-1,.07-1.72.06-2.14-.01-.42-.07-.91-.29-1.45-.66-1.04-.66-1.65-1.2-1.82-1.61-.2-.46-.19-1.11.03-1.93s.52-1.41.92-1.74c.21-.18.66-.37,1.35-.57.69-.2,1.14-.27,1.37-.22l.67.17c.43.12.84.21,1.22.29.38.07.62.1.72.06.16-.07.39-.02.69.14.3.16.45.31.45.46Z"/>
      <path class="cls-3" d="M82.55,237.9c0-1.55.26-2.58.78-3.08.41-.36.69-.48.86-.35.04.02.05.06.05.12,0,.12-.09.17-.26.17-.2,0-.4.21-.61.64-.17.3-.28.56-.32.79s-.06.73-.06,1.49v1.61c.79.99,1.51,1.65,2.14,1.96.65.4,1.31.5,1.99.31.68-.19,1.13-.64,1.34-1.35.14-.36.19-.8.15-1.3s-.14-.86-.32-1.08c-.88-.79-1.98-1.31-3.31-1.56-.56-.15-.96-.14-1.21.02-.23.15-.4.16-.5.02-.15-.2,0-.4.45-.6.09-.05.19-.09.31-.12,1.33-.48,2.33-.74,3.01-.79.81-.07,1.21-.12,1.21-.17,0-.08-.12-.28-.35-.6-.23-.35-.29-.51-.15-.5.15.03.39.23.73.6.31.4.69.67,1.15.82.35.12.75.33,1.22.66s.78.61.96.86c.19.28.33.6.43.94.09.3.13.5.12.6s-.07.23-.2.4c-.2.25-.4.34-.59.29-.2-.06-.56-.33-1.1-.83-.62-.58-1.05-1.02-1.29-1.31-.24-.3-.39-.58-.44-.84-.04-.18-.1-.3-.19-.35-.09-.05-.29-.07-.6-.07-.22,0-.56.03-1.02.09-.46.06-.87.12-1.24.2-.37.07-.54.13-.51.16.04.05.43.22,1.19.52.98.38,1.64.75,1.99,1.12.35.36.56.9.63,1.61.07.73-.07,1.41-.45,2.05-.37.64-.84,1-1.41,1.1-.84.17-1.7-.02-2.57-.56-.87-.54-1.46-1.21-1.79-2.02-.16-.36-.24-.92-.24-1.66ZM90.8,236.09c-.16-.12-.44-.24-.84-.37-.4-.13-.69-.2-.88-.2-.05.08.03.25.23.51s.5.56.88.91c.6.5.92.81.97.94.05.12.18.18.4.19s.35-.05.4-.16c.06-.13-.06-.43-.36-.89-.3-.46-.57-.77-.81-.92Z"/>
      <path class="cls-3" d="M83.37,217.76c0,.12.11.33.32.66.22.32.36.48.44.48.09,0,.62-.59,1.59-1.76.97-1.17,1.46-1.82,1.46-1.93,0-.28-.44-.54-1.32-.77-.46-.13-.68-.26-.67-.37.01-.08.17-.15.46-.2.12-.05.33-.01.61.11.28.12.57.27.87.45.3.17.47.27.49.29.02,0,.24-.28.65-.83.41-.55.65-.79.72-.71.12,0-.06.4-.56,1.19-.27.41-.39.63-.35.65,0,.08.14.31.41.67.68.86,1.02,2.03,1.02,3.52,0,1.19-.1,2.08-.29,2.68-.19.6-.54,1.08-1.03,1.44-.22.17-.58.24-1.07.21s-.81-.13-.98-.31c-.15-.2-.27-.3-.35-.3-.12,0-.36-.24-.71-.71-.35-.47-.58-.87-.71-1.2-.38-.99-.68-1.23-.89-.72-.11.28-.47.59-1.07.93s-1.09.5-1.46.48c-.29,0-.49-.03-.62-.1-.13-.07-.29-.22-.47-.47-.16-.21-.29-.4-.37-.56-.09-.16-.16-.34-.23-.56-.07-.21-.09-.44-.06-.68s.1-.51.21-.81c.15-.33.29-.78.43-1.34.11-.5.26-.84.45-1.04.19-.2.48-.32.89-.37l.73-.07c.05.08.2.29.46.63.26.34.48.64.66.9.18.27.29.44.33.52ZM79.57,219.67c0,.13.07.34.22.63.15.29.29.5.41.63.19.2.5.27.93.21s.87-.24,1.32-.56c.6-.4.92-.74.99-1.04.06-.3-.09-.8-.45-1.51-.38-.73-.71-1.21-.97-1.44-.21-.17-.48-.26-.8-.3-.32-.03-.55,0-.69.12-.07.02-.25.53-.54,1.53-.29,1-.43,1.58-.43,1.72ZM86.68,216.75c-.32.36-.7.81-1.12,1.33-.42.52-.75.91-.98,1.18-.15.15-.21.31-.18.47.03.17.19.57.47,1.22.41.96,1.02,1.59,1.83,1.9s1.43.14,1.85-.48c.25-.38.42-1.06.51-2.03.09-.98.07-1.79-.07-2.46-.07-.36-.23-.78-.46-1.25-.23-.47-.44-.76-.61-.88-.1-.07-.22-.04-.37.09-.15.12-.44.43-.87.93Z"/>
      <path class="cls-3" d="M79.7,198.37c0,.41.04.71.11.88.08.17.29.49.63.95.36.46.78.88,1.25,1.24.47.36.83.55,1.06.55.17,0,.37.08.6.25.89.6,2.13.45,3.7-.45.68-.4,1.09-1.31,1.23-2.75.07-.64.16-1.05.26-1.22.11-.18.16-.75.15-1.7-.01-.95-.08-1.58-.2-1.9-.12-.36-.47-.67-1.04-.92-.58-.25-.97-.37-1.15-.37-.19-.02-.29-.1-.3-.25.04-.17.16-.26.35-.3.27,0,.7.12,1.27.37s.91.46,1.02.62c.27.41.45,1.14.52,2.18.08,1.04,0,1.83-.2,2.36-.09.25-.14.47-.17.66-.03.19-.05.42-.07.68-.03.26-.06.54-.11.82-.1.61-.29,1.11-.58,1.5s-.72.74-1.3,1.05c-.38.22-.7.35-.96.41-.25.06-.63.09-1.14.09-.34,0-.61-.02-.81-.05-.2-.03-.34-.06-.42-.09s-.21-.1-.4-.21c-.19-.12-.34-.21-.46-.27-.67-.28-1.31-.73-1.94-1.35-.62-.62-1.02-1.22-1.21-1.8-.13-.38-.17-.84-.11-1.39.05-.43.27-1.2.67-2.31.4-1.11.7-1.79.89-2.03.2-.25.44-.43.71-.56.27-.12.45-.13.54-.01.1.13.04.25-.17.35-.3.17-.56.43-.8.81-.23.37-.5.95-.8,1.72-.41,1.04-.62,1.85-.62,2.43Z"/>
      <path class="cls-3" d="M90.21,181.33c0,.3-.31.45-.93.45-.3,0-.45.03-.45.1,0,.03.02.08.07.15.12.21.3.65.54,1.31.17.5.28.87.31,1.12s.02.73-.03,1.44c-.03.61-.07,1.06-.12,1.34-.06.28-.16.58-.33.89-.58,1.16-1.18,1.52-1.8,1.09-.32-.23-.6-.83-.83-1.81-.23-.98-.35-2.06-.35-3.25,0-.73.02-1.18.06-1.35.04-.17.16-.37.37-.58.19-.18.29-.31.32-.4.03-.08,0-.16-.09-.22-.14-.12-.42-.14-.86-.06-.44.07-.81.22-1.13.43-.45.28-.76.61-.93.99-.17.38-.27.93-.3,1.66-.04.81.01,1.44.15,1.88.15.46.34.88.58,1.27.24.38.42.57.56.57.17,0,.26.06.26.17,0,.08-.06.14-.19.16-.12.02-.26.02-.42-.02-.15-.04-.27-.1-.34-.19-.12-.12-.32-.47-.58-1.07-.26-.6-.42-1.01-.47-1.24-.07-.38-.1-.91-.08-1.57.02-.67.08-1.14.18-1.4.31-.73.79-1.31,1.45-1.76.66-.45,1.38-.58,2.18-.4.73.12,1.42.16,2.06.12.76-.02,1.13.04,1.13.17ZM88.02,188.87c.16,0,.42-.28.78-.84.27-.41.43-.72.48-.93.05-.21.08-.64.09-1.3.01-.89-.1-1.69-.34-2.41-.26-.78-.54-1.24-.83-1.4-.29-.16-.62-.01-1,.43-.19.23-.31.44-.36.63-.05.19-.09.57-.1,1.15-.04,1.16.07,2.22.33,3.2.26.98.57,1.46.93,1.46Z"/>
      <path class="cls-3" d="M82.84,170.89c.15,0,.22.2.22.6.01.48.08,1.18.21,2.1.13.92.21,1.55.23,1.9.83.18,1.77.18,2.81,0,1.04-.18,1.98-.45,2.81-.79.2-.08.3-.05.3.1,0,.2-.16.34-.48.42-.06.02-.18.06-.36.14-.18.07-.3.12-.35.15s-.16.07-.32.12c-.15.06-.27.1-.34.11s-.19.05-.33.09c-.15.04-.28.07-.4.09-.12.02-.26.04-.43.06-.17.02-.34.05-.52.06-.18.02-.38.02-.59.02l-1.88.1c.12.45.14.93.06,1.46-.05.23-.12.35-.21.35-.09-.03-.14-.2-.17-.5-.02-.83-.06-1.29-.1-1.38-.04-.09-.25-.16-.62-.21-.4-.05-.88-.22-1.46-.52-.58-.3-.93-.55-1.05-.77-.17-.33-.19-.64-.05-.93.14-.29.34-.53.61-.73.26-.2.43-.26.52-.2.01.05,0,.12-.05.2-.05.08-.12.18-.21.29-.09.11-.17.21-.25.3-.08.09-.17.19-.25.3-.09.11-.15.18-.19.21.38.58,1.2,1.01,2.46,1.29.33.08.53.06.59-.06.05-.12.02-.48-.1-1.05-.11-.46-.19-1.12-.22-1.96-.04-.58-.05-.95-.04-1.1.01-.16.07-.24.17-.24Z"/>
      <path class="cls-3" d="M82.94,162.28c0-.25.2-.67.59-1.27.36-.51.68-.83.97-.97.29-.13.55-.08.81.16s.5.67.73,1.3c.14.38.28,1.03.43,1.95.15.92.22,1.63.22,2.15,0,.33.02.55.07.65.04.1.14.17.29.22.26.08.55.07.86-.02.31-.1.56-.27.74-.52.26-.28.47-.88.64-1.81.17-.93.27-1.91.31-2.95l-.58-.79c-.38-.51-.51-.77-.37-.77.1.03.28.17.54.4.33.3.55.61.64.94.09.33.12.89.06,1.69-.1,1.64-.37,2.8-.8,3.5s-1.09.99-1.95.89c-.34-.03-.54-.03-.61.01-.07.04-.15.18-.22.41-.06.22-.12.36-.19.43s-.11.06-.13-.04c-.02-.1-.02-.26,0-.5l.09-.6c-.66-.12-1.34-.4-2.04-.84-.7-.45-1.12-.88-1.27-1.29-.26-.66-.27-1.2-.04-1.61.14-.25.21-.49.21-.72ZM86.08,166.2s.08-.17.09-.52c.01-.35,0-.76-.04-1.25s-.09-.92-.15-1.3c-.42-2.45-1.1-3.08-2.04-1.88-.22.25-.43.61-.63,1.08s-.32.9-.37,1.28c.01.28.11.57.3.88.19.31.42.56.71.76.27.18.66.39,1.17.62.51.23.83.35.97.35Z"/>
      <path class="cls-3" d="M89.09,140.56c.35,0,.54.07.59.2s-.07.31-.34.55c-.14.12-.33.29-.59.52s-.43.38-.52.46c-.09.07-.25.19-.47.35s-.43.28-.63.37c-.2.09-.46.21-.78.35-.32.14-.7.29-1.13.43l-.78.3c.62.17,1.07.33,1.36.5.5.31,1.49.75,2.99,1.31.19.08.31.25.36.51.05.26.02.48-.1.68-.19.3-.52.56-1.01.78-.49.22-1.34.51-2.56.86-.45.13-.94.34-1.47.62-.43.25-.65.31-.65.2v-.1c.06-.45.81-.87,2.25-1.27,1.81-.5,2.83-.93,3.07-1.31.09-.15.11-.25.07-.3-.05-.07-.45-.27-1.19-.62-.3-.12-.65-.29-1.05-.53-.4-.24-.77-.42-1.1-.53-.33-.12-.7-.17-1.12-.17-.64,0-.96-.12-.93-.37.03-.28.33-.53.93-.74.07-.03.16-.06.24-.07,1.66-.5,2.83-1.05,3.52-1.66.35-.31.52-.51.52-.6,0-.05-.04-.09-.11-.12-.55-.25-1.09-.55-1.63-.91s-.93-.6-1.16-.73c-.51-.26-1.17-.65-1.97-1.15-.8-.5-1.28-.85-1.43-1.03-.25-.31-.34-.5-.28-.57.04-.03.13.03.28.2.26.3,1.38.95,3.35,1.96.56.28.91.49,1.04.62.19.18.58.4,1.17.66s1.02.38,1.28.38Z"/>
      <path class="cls-3" d="M90.21,125.68c0,.3-.31.45-.93.45-.3,0-.45.03-.45.1,0,.03.02.08.07.15.12.21.3.65.54,1.31.17.5.28.87.31,1.12s.02.73-.03,1.44c-.03.61-.07,1.06-.12,1.34-.06.28-.16.58-.33.89-.58,1.16-1.18,1.52-1.8,1.09-.32-.23-.6-.83-.83-1.81-.23-.98-.35-2.06-.35-3.25,0-.73.02-1.18.06-1.35.04-.17.16-.37.37-.58.19-.18.29-.31.32-.4.03-.08,0-.16-.09-.22-.14-.12-.42-.14-.86-.06-.44.07-.81.22-1.13.43-.45.28-.76.61-.93.99-.17.38-.27.93-.3,1.66-.04.81.01,1.44.15,1.88.15.46.34.88.58,1.27.24.38.42.57.56.57.17,0,.26.06.26.17,0,.08-.06.14-.19.16-.12.02-.26.02-.42-.02-.15-.04-.27-.1-.34-.19-.12-.12-.32-.47-.58-1.07-.26-.6-.42-1.01-.47-1.24-.07-.38-.1-.91-.08-1.57.02-.67.08-1.14.18-1.4.31-.73.79-1.31,1.45-1.76.66-.45,1.38-.58,2.18-.4.73.12,1.42.16,2.06.12.76-.02,1.13.04,1.13.17ZM88.02,133.22c.16,0,.42-.28.78-.84.27-.41.43-.72.48-.93.05-.21.08-.64.09-1.3.01-.89-.1-1.69-.34-2.41-.26-.78-.54-1.24-.83-1.4-.29-.16-.62-.01-1,.43-.19.23-.31.44-.36.63-.05.19-.09.57-.1,1.15-.04,1.16.07,2.22.33,3.2.26.98.57,1.46.93,1.46Z"/>
      <path class="cls-3" d="M89.82,121.76c0,.31-1.45.43-4.35.35-1.13-.03-1.74,0-1.82.12-.13.15-.35.13-.63-.05-.24-.15-.27-.28-.11-.4.04-.03.1-.06.19-.07h.28c-.32-.31-.6-.71-.82-1.19-.17-.43-.26-.79-.24-1.08.01-.29.12-.63.32-1.03.35-.68.74-.96,1.17-.84.17.05.12.18-.15.4-.38.3-.71.78-.98,1.44.36.98.64,1.51.84,1.61.19.1.83.19,1.93.29,1.1.09,2.03.13,2.78.11.67-.02,1.11,0,1.31.04.21.04.31.15.31.31Z"/>
      <path class="cls-3" d="M82.94,108.93c0-.25.2-.67.59-1.27.36-.51.68-.83.97-.97.29-.13.55-.08.81.16s.5.67.73,1.3c.14.38.28,1.03.43,1.95.15.92.22,1.63.22,2.15,0,.33.02.55.07.65.04.1.14.17.29.22.26.08.55.07.86-.02.31-.1.56-.27.74-.52.26-.28.47-.88.64-1.81.17-.93.27-1.91.31-2.95l-.58-.79c-.38-.51-.51-.77-.37-.77.1.03.28.17.54.4.33.3.55.61.64.94.09.33.12.89.06,1.69-.1,1.64-.37,2.8-.8,3.5s-1.09.99-1.95.89c-.34-.03-.54-.03-.61.01-.07.04-.15.18-.22.41-.06.22-.12.36-.19.43s-.11.06-.13-.04c-.02-.1-.02-.26,0-.5l.09-.6c-.66-.12-1.34-.4-2.04-.84-.7-.45-1.12-.88-1.27-1.29-.26-.66-.27-1.2-.04-1.61.14-.25.21-.49.21-.72ZM86.08,112.85s.08-.17.09-.52c.01-.35,0-.76-.04-1.25s-.09-.92-.15-1.3c-.42-2.45-1.1-3.08-2.04-1.88-.22.25-.43.61-.63,1.08s-.32.9-.37,1.28c.01.28.11.57.3.88.19.31.42.56.71.76.27.18.66.39,1.17.62.51.23.83.35.97.35Z"/>
      <path class="cls-3" d="M86.04,101.94c0-.08-.14-.2-.43-.35-.66-.38-1.21-.87-1.67-1.46-.46-.6-.75-1.2-.88-1.81-.06-.33-.08-.58-.05-.76.02-.17.12-.46.28-.86.25-.6.52-1.03.81-1.3.29-.27.65-.45,1.09-.53.11-.02.97.08,2.58.29,1.61.21,2.48.26,2.61.16.14-.1.24-.09.3.04.06.12.04.25-.05.38-.21.28-1.26.26-3.14-.07-1.28-.23-2.14-.27-2.59-.12-.45.15-.85.61-1.2,1.39-.16.33-.25.58-.28.74-.03.17,0,.38.05.65.07.38.31.83.71,1.36.4.53.81.93,1.23,1.22.51.35.97.57,1.39.67.42.1,1.01.13,1.77.1.96-.07,1.46-.11,1.51-.12.1-.03.24.01.41.14s.25.23.22.31c-.14.13-.79.24-1.94.31-1.16.07-1.8.13-1.93.16-.26.07-1.27.16-3.03.27-1.6.08-2.31.21-2.14.37.03.03.09.07.21.1.11.03.11.06-.02.07-.03.02-.06.02-.09.02-.22,0-.38-.07-.48-.2-.07-.1-.12-.2-.14-.3-.02-.1,0-.19.03-.26s.1-.12.19-.14c.25-.03.81-.08,1.68-.14.87-.06,1.6-.12,2.2-.17s.88-.11.83-.16Z"/>
      <path class="cls-3" d="M83.74,85.87c.25,0,.57-.16.97-.47.38-.3.88-.48,1.49-.55s1.1,0,1.49.22c.67.38,1.18.86,1.54,1.44.35.58.5,1.17.44,1.79-.11,1.16-.71,2.09-1.79,2.8-.66.43-1.17.69-1.54.77-.51.1-1.13,0-1.87-.32-.74-.31-1.26-.69-1.55-1.14-.16-.21-.31-.55-.45-1.02-.19-.71-.13-1.48.17-2.29.3-.82.67-1.23,1.12-1.23ZM85.39,91.05c0,.13.12.2.35.21.23,0,.52-.05.86-.16.34-.12.65-.26.94-.45.52-.33.93-.72,1.23-1.18.3-.45.44-.91.43-1.35-.01-.41-.14-.83-.38-1.26-.24-.43-.54-.76-.88-.99-1-.66-2.05-.61-3.14.15-.89.66-1.31,1.11-1.25,1.34.01.03.03.06.05.07.14.17.14.26,0,.3-.1.03-.2,0-.3-.1-.11-.1-.19-.14-.22-.11s-.09.14-.15.33c-.3.86-.16,1.62.42,2.28.58.66,1.13.95,1.66.87.25-.07.37-.05.37.05Z"/>
      <path class="cls-3" d="M89.3,78.5c-.15-1.36-.64-2.42-1.46-3.2s-1.81-1.09-2.95-.94c-1.05.12-1.64.04-1.77-.22-.03-.03-.03-.07-.02-.1.03-.1.41-.22,1.14-.37s1.21-.2,1.4-.15c1.46.43,2.56.64,3.29.62.86,0,1.28.07,1.28.22,0,.05-.05.12-.15.2-.12.07-.84.1-2.14.1.78.86,1.19,1.41,1.23,1.64,0,.2.09.51.26.94.2.51.29.98.26,1.39-.03.41-.17.85-.45,1.31-.43.74-.9,1.26-1.38,1.55-.49.29-1.1.4-1.81.33-1.88-.2-2.93-.38-3.12-.55-.1-.07-.07-.17.07-.3.17-.12.63-.1,1.36.05,1.59.28,2.69.29,3.29.02.3-.12.65-.49,1.05-1.12.4-.63.61-1.11.61-1.44Z"/>
      <path class="cls-3" d="M84.24,70.34c-.54,0-.97-.14-1.26-.41-.3-.27-.42-.72-.37-1.33.01-.08.04-.31.07-.69s.06-.67.07-.87c.04-.51.12-.99.25-1.43.13-.44.28-.75.45-.93.17-.18.32-.2.46-.05.09.1.14.19.17.27.03.08.02.15-.02.19-.04.04-.1.06-.19.06-.16,0-.29.12-.37.37-.1.28-.2.77-.29,1.48-.09.7-.14,1.28-.14,1.72,0,.36.02.59.07.67.04.08.2.17.47.27.35.13.65.15.89.05.22-.12.43-.46.62-1.03.19-.57.32-1.26.4-2.07.16-1.55.48-2.51.95-2.85.17-.12.31-.17.4-.16.09,0,.31.08.64.21.37.17.78.46,1.21.88.44.42.73.81.89,1.18.3.68.24,1.76-.17,3.25-.16.6-.28.96-.36,1.1-.08.14-.21.23-.38.26-.2.03-.3.03-.3,0s.07-.12.2-.27c.17-.2.36-.76.56-1.69.2-.93.27-1.55.21-1.89-.05-.31-.25-.7-.6-1.17-.43-.58-.88-.95-1.35-1.12-.47-.17-.81-.08-1.03.25-.15.2-.27.74-.35,1.61-.14,1.44-.35,2.48-.64,3.14-.29.65-.68.98-1.16.98Z"/>
      <path class="cls-3" d="M82.94,54.99c0-.25.2-.67.59-1.27.36-.51.68-.83.97-.97.29-.13.55-.08.81.16s.5.67.73,1.3c.14.38.28,1.03.43,1.95.15.92.22,1.63.22,2.15,0,.33.02.55.07.65.04.1.14.17.29.22.26.08.55.07.86-.02.31-.1.56-.27.74-.52.26-.28.47-.88.64-1.81.17-.93.27-1.91.31-2.95l-.58-.79c-.38-.51-.51-.77-.37-.77.1.03.28.17.54.4.33.3.55.61.64.94.09.33.12.89.06,1.69-.1,1.64-.37,2.8-.8,3.5s-1.09.99-1.95.89c-.34-.03-.54-.03-.61.01-.07.04-.15.18-.22.41-.06.22-.12.36-.19.43s-.11.06-.13-.04c-.02-.1-.02-.26,0-.5l.09-.6c-.66-.12-1.34-.4-2.04-.84-.7-.45-1.12-.88-1.27-1.29-.26-.66-.27-1.2-.04-1.61.14-.25.21-.49.21-.72ZM86.08,58.91s.08-.17.09-.52c.01-.35,0-.76-.04-1.25s-.09-.92-.15-1.3c-.42-2.45-1.1-3.08-2.04-1.88-.22.25-.43.61-.63,1.08s-.32.9-.37,1.28c.01.28.11.57.3.88.19.31.42.56.71.76.27.18.66.39,1.17.62.51.23.83.35.97.35Z"/>
    </g>
  </g>
  <g>
    <path class="cls-2" d="M68.31,302.92c-.01-.05-.02-.1-.03-.16l.04.29c-.01-.12-.02-.23,0-.35l-.04.3c0-.06.02-.11.04-.17l-.12.28s.03-.06.04-.08l-.18.24.02-.02-.24.18s.06-.04.1-.05l-.29.12s.07-.02.11-.03l-.34.05c.05,0,.11,0,.16,0l-.36-.05c.18.05.37.05.56.06l-.7-2.58c-.85.39-1.51,1.13-1.96,1.93s-.77,1.8-.96,2.74c-.44,2.18-.4,4.44-.2,6.64.05.62.12,1.24.2,1.86.04.3.06.61.09.92s.08.61.13.91.15.57.3.83.4.51.66.66c.36.21.76.27,1.17.22.33-.04.6-.16.87-.36.29-.22.6-.58.66-.95.03-.21.09-.45.09-.64s-.05-.41-.09-.6c-.02-.12-.05-.24-.07-.36-.05-.25-.11-.5-.16-.74-.11-.49-.17-1-.24-1.5l.06.48c-.25-1.86-.4-3.75-.29-5.63.03-.47.06-.95.12-1.42l-.06.44c.1-.74.26-1.47.55-2.16l-.16.38c.07-.17.15-.34.22-.51l-.16.38c.15-.35.33-.69.56-.99l-.24.3c.13-.17.26-.34.39-.51l-.23.3c.13-.16.26-.31.42-.44l.22-.28c.1-.16.16-.33.16-.52.04-.3,0-.63-.16-.88-.35-.54-.94-.78-1.57-.64s-1.15.66-1.3,1.3c-.06.27-.08.51-.05.78.04.32.14.56.27.86.1.22.42.45.65.5.24.06.48.04.71-.06.52-.22.74-.75.63-1.29h0Z"/>
    <path class="cls-2" d="M63.51,313.83c-.54-.21-1.12-.38-1.69-.47-1.01-.16-2.02-.28-3.04-.33-.95-.05-1.91-.05-2.86.05-1.12.12-2.19.33-3.2.85-.96.49-1.77,1.39-2.03,2.45-.16.67-.13,1.31,0,1.98.07.36.22.69.37,1.03.14.31.34.56.55.83.76.96,2.02,1.33,3.19,1.39.6.03,1.2-.06,1.79-.14.5-.07.99-.19,1.47-.31,1.03-.27,2.05-.62,3.06-.96.9-.3,1.8-.62,2.72-.83.18-.04.35-.07.53-.1l-.49.07c.1-.01.21-.02.31-.03.26-.01.48-.04.75-.08l-.49.07c.23-.03.44-.03.67-.08h-.95.02c.24.08.48.09.71.03.24-.01.46-.08.67-.21.37-.22.73-.64.82-1.07.1-.46.08-.97-.18-1.38-.24-.37-.62-.74-1.07-.82h-.02c.14.06.29.12.43.18-.13-.08-.33-.15-.47-.2-.02,0-.04-.01-.06-.02-.04-.01-.09-.03-.13-.04-.25-.06-.51-.08-.77-.06-.38.02-.76.08-1.13.15-.56.1-1.1.27-1.64.44-1.29.43-2.56.92-3.86,1.31-.7.21-1.41.39-2.13.49l.48-.07c-.48.06-.96.09-1.44.03l.48.06c-.25-.03-.5-.09-.73-.19l.43.18c-.17-.07-.32-.16-.47-.27l.36.28c-.13-.1-.25-.22-.35-.35l.28.36c-.12-.16-.22-.33-.29-.51l.18.43c-.1-.25-.17-.5-.21-.77l.06.48c-.03-.21-.03-.42,0-.63l-.06.47c.02-.16.07-.32.13-.47l-.18.43c.06-.15.14-.28.24-.41l-.28.36c.12-.15.25-.28.41-.4l-.36.28c.24-.18.5-.32.77-.44l-.42.18c.6-.25,1.23-.38,1.87-.47l-.47.06c1.42-.19,2.87-.15,4.29-.02.36.03.72.07,1.08.12l-.46-.06c.4.05.79.11,1.19.15.21.02.42.04.63.07l-.44-.06c.19.03.38.05.57.1.42.09.85.06,1.23-.16.33-.19.65-.57.73-.95.09-.41.07-.87-.16-1.23l-.25-.32c-.2-.2-.43-.33-.7-.41h0Z"/>
    <path class="cls-2" d="M66.27,319.85c1.03,0,1.03-1.6,0-1.6s-1.03,1.6,0,1.6h0Z"/>
    <path class="cls-2" d="M64.34,318.14c-.05.28-.08.56-.11.84l.06-.43c-.15.67,0,1.38.19,2.03.14.48.28.94.47,1.4.43,1.04.86,2.09,1.17,3.18.19.66.34,1.32.43,2l-.07-.53c.11.84.12,1.69.01,2.53l.07-.54c-.1.75-.3,1.48-.59,2.18l.21-.49c-.03.07-.06.15-.1.22l3.79,1.6c.4-1.5.39-3.15-.17-4.62-.48-1.24-1.15-2.37-1.94-3.43-.5-.67-.97-1.34-1.49-1.99l.31.4c-.23-.31-.4-.62-.55-.97l.19.46-.02-.06c-.19-.46-.41-.9-.88-1.14-.44-.23-.98-.36-1.47-.19-.81.28-1.42.97-1.42,1.86,0,.51.22,1.05.6,1.4.24.23.53.42.81.59.44.26.88.49,1.35.69.41.17,1.12.04,1.48-.19s.62-.52.78-.92c.38-.9.02-1.86-.78-2.39h0c-.15-.07-.3-.13-.46-.19-.25-.08-.51-.09-.76-.03-.4.05-.82.22-1.1.53-.22.24-.39.53-.49.84-.16.5-.02,1.02.19,1.48.06.13.22.32.32.42.31.34.89.59,1.36.57.88-.04,1.62-.57,1.86-1.43.08-.29.09-.61.08-.92-.04-.72-.13-1.53-.49-2.17-.47-.81-1.42-1.26-2.34-1s-1.38,1.11-1.65,1.97c-.37,1.15-.29,2.37-.04,3.53.22,1.01.59,1.99.74,3.02l-.07-.52c.07.51.09,1.03.02,1.54l.07-.52c-.14.99-.48,1.93-.8,2.87-.38,1.11-.68,2.2-.8,3.37-.06.6.33,1.2.77,1.54.19.17.41.29.67.35.35.09.7.09,1.05,0,1.27-.17,2.36-.95,3.01-2.04.37-.63.56-1.34,1-1.93l-.31.4c.14-.17.29-.33.46-.47l-.4.31c.09-.07.18-.13.27-.19l-2.98-1.71c0,1.11-.02,2.22-.16,3.31l.07-.53c-.08.59-.2,1.19-.42,1.74l.2-.48c-.14.32-.27.64-.4.95l.2-.47c-.1.23-.21.44-.29.68l.5-.85-.03.03c-.34.4-.57.83-.57,1.37,0,.48.21,1.04.57,1.37s.85.59,1.37.57,1.04-.18,1.37-.57l.03-.03-.39.3c1.34-.86,1.6-2.48,1.78-3.93.14-1.14.15-2.3.15-3.46,0-1.46-1.69-2.52-2.98-1.71-.81.51-1.45,1.22-1.86,2.08-.25.52-.43,1.07-.78,1.53l.31-.4c-.1.13-.22.24-.34.35l.4-.31c-.14.11-.3.2-.46.27l.47-.2c-.26.11-.53.18-.81.22l2.49,1.9c0-.09.02-.18.03-.27l-.07.52c.21-1.51.85-2.91,1.25-4.37.21-.8.37-1.65.33-2.48-.04-.88-.21-1.75-.45-2.59-.21-.74-.45-1.48-.56-2.24l.07.51c-.05-.39-.06-.79-.01-1.18l-.07.51c.05-.35.14-.69.28-1.03l-.19.46c.03-.08.06-.16.12-.23l-.3.39s.02-.03.04-.04l-.39.3s.02-.01.03-.02l-.46.19s.02,0,.02,0l-.51.07s.02,0,.02,0l-.51-.07s.02,0,.02,0l-.46-.19s.02,0,.02.01l-.39-.3s.02.02.03.03l-.3-.39s.05.08.07.13l-.19-.46c.1.24.14.51.17.76l-.07-.51c.03.24.07.5.04.75l.07-.51s0,.03-.01.04l.19-.46h0c.1-.12.2-.25.3-.38h0c.13-.1.26-.2.39-.3h0c.32-.08.64-.17.97-.26h0c.17.02.34.05.51.07h0c.15.06.3.13.46.19h0c.13.1.26.2.39.3h0c.1.12.2.25.3.38,0,0-.01-.02-.02-.03l-2.62,2.62h0c.49-1.17.98-2.33,1.48-3.5h0c.15.06.3.13.46.19-.43-.21-.89-.44-1.27-.73l.39.3s-.05-.04-.07-.06l.3.39s0-.01-.01-.02l.19.46h0c.02.16.05.33.07.5h0c-.09.31-.17.64-.26.96h0c-.23.22-.46.45-.68.68h0c-.15.06-.3.12-.46.19h0c-.78-.45-1.57-.89-2.35-1.34.15.36.3.73.48,1.08l-.19-.46c.32,1.09.92,2.07,1.57,2.99.54.77,1.07,1.55,1.44,2.42l-.21-.5c.19.47.34.95.41,1.45l-.07-.56c.07.51.06,1.01,0,1.52l.07-.55c-.03.24-.07.47-.13.7-.12.54-.07,1.11.21,1.6.25.43.74.84,1.24.95.53.12,1.13.09,1.6-.21l.42-.32c.26-.26.43-.56.53-.91.81-2,.85-4.19.46-6.29-.33-1.77-1.05-3.44-1.78-5.08-.16-.37-.33-.74-.52-1.09-.18-.32-.35-.65-.5-.99l.18.42c-.14-.36-.23-.56-.5-.85l.27.35c-.16-.26-.3-.52-.51-.74l.25.32c-.08-.12-.16-.24-.24-.37-.29-.5-.88-.77-1.44-.69-.52.07-1.11.48-1.2,1.04h0Z"/>
    <path class="cls-2" d="M66.93,338.3c-.05.3-.06.62-.13.91.07-.31-.03.11-.04.18-.02.13-.05.26-.07.38-.1.57-.15,1.15-.19,1.72-.07,1.01,0,2.02.06,3.03s.14,1.99.21,2.99c.03.5.09,1.01.08,1.52s-.07,1-.09,1.5c-.04,1.08-.06,2.15-.2,3.23l.07-.48c-.17,1.23-.46,2.43-.93,3.58l.2-.47c-.4.95-.91,1.86-1.54,2.69l.31-.4c-.64.82-1.38,1.55-2.21,2.19l.41-.32c-.45.35-.92.67-1.4.98-.54.35-1.08,1.04-1,1.74.05.36.06.7.27,1.02.2.3.43.51.73.72.57.4,1.45.35,2.03,0,1.89-1.14,3.54-2.66,4.74-4.51.98-1.51,1.55-3.26,1.79-5.04.27-1.94.31-3.92,0-5.86-.03-.2-.07-.41-.1-.61-.02-.1-.04-.21-.05-.31-.01-.06-.04-.25,0,0,.04.28,0,.03,0-.04-.04-.45-.09-.91-.13-1.36-.09-.89-.19-1.78-.28-2.66-.1-1-.15-2-.27-2.99s-.26-2.02-.23-3.04c.01-.52-.41-.96-.9-1.02-.46-.06-1.06.23-1.14.75h0Z"/>
    <path class="cls-2" d="M66.01,337.13c-.21.54-.32,1.08-.35,1.66-.03.53.04,1.06.15,1.57.17.82.51,1.6.86,2.36.15.34.31.67.46,1.01l-.18-.43c.18.44.32.9.39,1.36l-.07-.5c.04.28.04.57,0,.85l.07-.51c-.04.3-.12.59-.24.87l.2-.47c-.11.25-.24.49-.4.71-.18.27-.37.54-.57.8l.32-.42c-.28.36-.59.66-.95.94l.42-.33c-1.18.91-2.56,1.58-3.93,2.16l.51-.21c-1.11.47-2.27.89-3.45,1.17-.25.06-.51.11-.76.15l.56-.08c-.44.06-.86.03-1.3.12h1.11c-.15-.02-.41-.07-.57-.08-.19,0-.38.05-.57.08-.02,0-.04,0-.06,0l.55-.07c-.05,0-.11,0-.16,0l.53.07s-.06-.01-.09-.02l.47.2s-.05-.03-.07-.04l.69.69c-.2-.28-.39-.52-.69-.69-.14-.1-.3-.17-.46-.19,0,0,0,0,0,0,0,0-.02,0-.03,0l.44.19s-.03-.01-.04-.02l.36.28c-.11-.09-.25-.23-.38-.29l.79,1.03c-.05-.16-.13-.31-.2-.46l.17.4s-.03-.07-.04-.11c-.13-.48-.47-.84-.92-1.03-.19-.1-.39-.14-.61-.14-.29,0-.55.07-.8.22-.18.08-.4.23-.5.36l.76-.44c-.28.05-.65.3-.85.5-.48.48-.75,1.25-.51,1.9l-.07-.51c0,.16.04.4.08.56.04.18.12.35.21.5.1.17.22.34.36.48s.33.28.49.4c.02.01.03.03.05.04.15.08.39.21.56.24l-.5-.21c.57.31,1.21.38,1.84.3.57-.07,1.13-.16,1.68-.3,1.14-.29,2.23-.74,3.3-1.2.98-.42,1.93-.88,2.84-1.43.4-.24.79-.5,1.16-.78.43-.33.89-.66,1.25-1.07.32-.37.63-.78.89-1.19.18-.29.3-.63.43-.94.06-.15.12-.31.17-.46.14-.44.21-.89.25-1.35.04-.43-.02-.84-.08-1.27l.07.5c-.06-.48-.12-.92-.29-1.38s-.36-.86-.57-1.28c-.3-.62-.64-1.21-.91-1.84l.18.42c-.29-.68-.46-1.39-.56-2.12l.06.44c-.04-.33-.08-.66-.12-.99l.06.42c-.03-.24-.04-.49-.09-.73l.05.41c-.01-.13-.02-.25-.03-.38-.04-.72-.52-1.32-1.25-1.42-.31-.04-.65,0-.92.17l-.29.23c-.18.18-.3.39-.37.64h0Z"/>
    <path class="cls-2" d="M62.3,319.66c-.42.48-.87.93-1.27,1.43s-.77.95-1.14,1.43c-.75.96-1.49,1.93-2.08,3-1.09,1.99-1.59,4.41-.76,6.59.28.74.63,1.43,1.08,2.08.29.42.62.83.95,1.22.14.16.28.31.42.46.08.08.16.17.24.25.39.39.86.59,1.41.59.44,0,.98-.2,1.28-.53s.57-.81.53-1.28c-.04-.37-.09-.66-.26-.98-.12-.22-.23-.33-.4-.47-.1-.09-.21-.18-.31-.27-.19-.17-.38-.35-.56-.54-.32-.33-.63-.68-.91-1.04l.27.35c-.36-.47-.67-.97-.9-1.51l.16.39c-.18-.43-.31-.89-.38-1.35l.06.41c-.05-.39-.06-.79-.02-1.18l-.05.4c.09-.56.27-1.11.49-1.64l-.15.36c.62-1.46,1.58-2.75,2.54-3.99l-.23.3c.32-.42.65-.83.98-1.25.4-.51.75-1.06,1.12-1.59.18-.26.23-.74.14-1.03s-.24-.51-.48-.7c-.49-.38-1.33-.4-1.76.11h0Z"/>
    <path class="cls-2" d="M56.95,314.52s-.08.01-.12.02l.46-.06c-.4.05-.81.08-1.21.16-.11.02-.22.05-.33.09-.09.03-.19.08-.28.12s-.19.08-.29.12c-.05.03-.1.05-.14.09-.15.1-.29.22-.43.33-.03.02-.05.04-.08.07-.06.05-.11.11-.15.17-.17.16-.3.35-.37.57-.11.21-.16.44-.15.69l.06.47c.08.3.24.56.46.79.09.11.18.21.28.3.02.02.04.04.07.06.14.11.28.23.43.33.05.03.1.07.15.09.18.1.4.18.58.25.05.02.11.04.16.06.05.01.1.03.16.03.21.03.42.07.64.08.05,0,.11,0,.16,0,.1,0,.21-.03.31-.04s.22-.03.32-.05c.05-.01.11-.02.16-.04.03,0,.05-.02.08-.03.17-.07.34-.14.51-.22.11-.05.21-.11.31-.17.18-.12.34-.26.51-.39.05-.04.1-.08.15-.13.11-.1.22-.22.32-.34.2-.25.4-.5.57-.78.34-.56.33-1.3,0-1.86-.16-.28-.38-.5-.66-.66-.29-.17-.6-.25-.93-.25-.04,0-.07,0-.11-.01l.49.07c-.12-.02-.24-.05-.36-.07-.06-.01-.12-.02-.18-.03-.03,0-.06,0-.09-.01,0,0-.01,0-.02,0h-.01c-.17-.02-.34-.05-.51-.07-.02,0-.04,0-.05,0-.06,0-.13,0-.19-.01-.03,0-.06,0-.1,0-.1,0-.19.02-.3.03l-.25.03-.46.19s-.01,0-.02.01c-.1.05-.2.1-.3.16-.03.02-.05.03-.08.05-.01,0-.03.02-.04.03-.07.04-.11.08-.18.14-.22.17-.13.08-.3.3l-.13.17c-.12.19-.18.39-.19.61-.04.29-.04.15,0,.43.1.73.01.14.03.22.05.21.15.4.29.56.07.12.17.22.29.29.23.18.1.09.17.13.1.07.27.12.41.17.02,0,.03.01.05.02l-.4-.17c.09.04.17.08.26.12.04.02.09.05.13.07.02.01.43.19.46.2s.49.07.52.07c.01,0,.03,0,.04,0,.03,0,.06,0,.09,0,.12,0,.23,0,.35,0s.22,0,.34,0c.12,0,.24,0,.36.01l-1.59-2.77c-.08.13-.16.26-.26.38l.29-.37c-.15.2-.32.38-.52.53l.37-.29c-.14.11-.29.2-.46.27l.44-.18c-.13.06-.27.1-.42.12l.48-.07c-.12.02-.24.02-.35,0l.48.06c-.12-.02-.24-.05-.35-.1l.43.18c-.13-.06-.25-.13-.37-.22l.36.28c-.12-.09-.22-.19-.32-.3l.28,2.16s.03-.04.04-.06l-.28.36c.07-.09.15-.17.24-.25l-.36.28c.09-.07.19-.13.29-.17l-.42.18c.17-.07.36-.11.54-.15.21-.04.42-.07.63-.11.22-.05.42-.16.59-.31.19-.12.34-.28.45-.49.13-.2.19-.41.21-.64.05-.23.04-.46-.03-.69l-.17-.41c-.15-.26-.36-.47-.62-.62l-.41-.17c-.31-.08-.61-.08-.92,0h0Z"/>
  </g>
</svg>