<?xml version="1.0" encoding="UTF-8"?>
<svg id="_レイヤー_1" data-name="レイヤー 1" xmlns="http://www.w3.org/2000/svg" viewBox="0 0 693 768">
  <defs>
    <style>
      .cls-1 {
        stroke-linecap: round;
        stroke-linejoin: round;
      }

      .cls-1, .cls-2, .cls-3 {
        fill: #231815;
      }

      .cls-1, .cls-3 {
        stroke: #231815;
        stroke-width: 2.5px;
      }

      .cls-3 {
        stroke-miterlimit: 10;
      }
    </style>
  </defs>
  <g>
    <g>
      <path class="cls-3" d="M50.04,652.4c-3.89.32-5.66.03-5.32-.86.34-.57,1.39-1.14,3.17-1.71,1.86-.51,5.56-.79,11.09-.86,5.53-.06,9.11.16,10.71.67,3.21.95,3.17,1.62-.12,2l-6.21.38c-1.1,0-5.54.13-13.31.38Z"/>
      <path class="cls-3" d="M120.02,666.38c-.51,0-1.73.54-3.68,1.62-1.69.95-4.18,1.82-7.48,2.61-3.3.79-6.09,1.19-8.37,1.19s-4.69-.92-7.48-2.76c-6.42-4.25-10.44-11.25-12.04-21.01-.68-3.74-1.12-8.51-1.33-14.31s-.06-9.05.45-9.75c1.1-1.58,1.82-1.27,2.15.95.17,1.08.25,2.79.25,5.13.25,10.27,1.31,18.38,3.17,24.34,1.86,5.96,4.73,10.3,8.62,13.03,1.18.89,2.24,1.44,3.17,1.66.93.22,2.45.3,4.56.24,3.29-.06,6.91-.84,10.84-2.33,3.93-1.49,6.87-3.22,8.81-5.18,1.86-1.84,3.15-3.74,3.87-5.7.72-1.96,1.46-5.67,2.22-11.12,1.61-12.3,3.21-18,4.82-17.11.25.06.46.29.63.67.17,1.4-.23,4.2-1.2,8.42-.97,4.22-1.46,7.12-1.46,8.7-.34,3.68-.97,6.91-1.9,9.7-.68,2.03-2.07,4.37-4.18,7.04-2.12,2.66-3.59,3.99-4.44,3.99Z"/>
      <path class="cls-3" d="M146.9,617.51c.84,0,1.35.29,1.52.86,1.1,2.85,3.34,7.61,6.72,14.26,1.44,3.36,4.33,7.4,8.68,12.12,4.35,4.72,8.98,8.79,13.88,12.22,3.38,2.41,5.91,4.63,7.61,6.66.93,1.01,1.73,1.81,2.41,2.38.68.57,1.05.82,1.14.76,1.69-1.27,2.79-9.63,3.3-25.1.17-5.13.32-8.94.44-11.41.13-2.47.27-4.58.44-6.32.17-1.74.38-2.8.63-3.19.25-.38.59-.51,1.02-.38.93.25.97,8.69.13,25.29-.42,8.11-1.14,14.77-2.16,19.97-.76,3.49-1.56,5.29-2.41,5.42-.68.06-1.69-.67-3.04-2.19-2.71-2.72-6.51-6.21-11.41-10.46-3.21-2.41-6.55-5.17-10.01-8.27-3.47-3.1-5.54-5.17-6.21-6.18-.42-.63-1.06-1.5-1.9-2.61-.85-1.11-1.52-2.01-2.03-2.71-.51-.7-1.1-1.6-1.78-2.71-.68-1.11-1.27-2.27-1.78-3.47-1.69-3.8-2.75-5.74-3.17-5.8-.34-.06-.59.44-.76,1.52-.17.95-.34,3.11-.51,6.47-.76,11.85-1.52,18.51-2.28,19.97-.68,1.21-1.25,3.09-1.71,5.66-.46,2.57-.49,3.92-.06,4.04.59.13.89.41.89.86,0,.38-.3.48-.89.29-.25-.13-.47-.08-.63.14-.17.22-.25.51-.25.86s-.08.63-.25.86c-.17.22-.38.27-.63.14-1.35-.63-1.06-5.51.89-14.64,1.1-5.01,1.86-12.2,2.28-21.58.42-9.13,1.05-13.69,1.9-13.69Z"/>
      <path class="cls-3" d="M280.52,662.2c0,1.71,1.73,4.5,5.2,8.37,2.45,2.85,3.72,3.68,3.8,2.47,0-.57.21-.54.63.1,0,.06.04.16.13.29.42.82.51,1.54.25,2.14-.25.6-.76.9-1.52.9-1.19,0-2.88-1.19-5.07-3.57-2.2-2.38-3.85-4.8-4.94-7.27-.51-1.27-1.73-3.29-3.68-6.08-1.94-2.79-4.14-5.81-6.59-9.08-2.45-3.26-3.8-5.05-4.06-5.37-.34-.57-4.52-.98-12.55-1.24-8.03-.25-12.55-.13-13.56.38-.76.44-1.1,4.37-1.01,11.79.08,6.91-.17,10.52-.76,10.84-.08.13-.3.16-.63.1-.68-.06-1.12-.98-1.33-2.76-.21-1.77-.44-6.5-.7-14.17-.25-11.09-.76-17.18-1.52-18.26-.68-.95-.99-2.85-.95-5.7.04-2.85.4-5.04,1.08-6.56.84-1.65,1.94-2.69,3.3-3.14,3.12-1.2,9.93-1.2,20.41,0,10.48,1.2,17.49,2.76,21.04,4.66,3.46,1.84,6.04,4.22,7.73,7.13,1.69,2.92,2.11,5.7,1.27,8.37-.34,1.27-1.67,2.46-3.99,3.57-2.33,1.11-4.97,1.85-7.92,2.23-3.63.44-5.75.86-6.34,1.24-.59.25-.42,1.13.51,2.61.93,1.49,3.34,4.68,7.23,9.56,3.04,3.74,4.56,5.9,4.56,6.47ZM233.86,625.31c-.17-.38-.3-.29-.38.29-.25,1.4-.21,2.09.13,2.09.08,0,.17-.1.25-.29.17-.76.17-1.46,0-2.09ZM258.59,618.75c-.76-.44-4.06-.76-9.89-.95-5.83-.19-9.38-.1-10.65.29-2.03.63-2.96,1.27-2.79,1.9l.38.38c.34.19.61,1.32.82,3.38.21,2.06.38,4.25.51,6.56.13,2.31.23,3.63.32,3.95.34,2.73.46,5.26.38,7.61,4.56-.57,9.34-.63,14.32-.19,4.31.32,7.39.16,9.26-.48,1.69-.7,2.87-.86,3.55-.48.68.32,2.24.43,4.69.33,2.45-.1,4.77-.36,6.97-.81,7.61-1.52,9.46-5.45,5.58-11.79-3.21-5.07-8.71-7.89-16.48-8.46-3.89-.38-6.21-.79-6.97-1.24Z"/>
      <path class="cls-3" d="M335.54,621.5c0,.25.89.57,2.66.95,1.86.25,4.35,1.49,7.48,3.71,4.9,2.79,8.07,8.15,9.51,16.07,1.44,7.92.8,14.29-1.9,19.11-1.18,2.22-2.81,3.76-4.88,4.61-2.07.86-6.61,1.79-13.63,2.8-5.58.82-11.18.75-16.8-.24-5.62-.98-9.44-2.55-11.47-4.71-1.86-1.96-3.61-4.31-5.26-7.04-1.65-2.72-2.6-4.82-2.85-6.28-.25-1.96.04-4.83.89-8.6.84-3.77,1.86-6.42,3.04-7.94,1.86-2.28,4.35-4.85,7.48-7.7,3.12-2.85,6-4.79,8.62-5.8,2.11-.82,5.49-1.09,10.14-.81,4.65.29,6.97.9,6.97,1.85ZM342.13,626.26c-.51,0-2.54-.67-6.08-2-4.65-1.84-8.62-2.65-11.92-2.42-3.29.22-6.42,1.54-9.38,3.95-3.89,3.11-6.51,5.45-7.86,7.04-1.35,1.59-2.54,3.61-3.55,6.09-1.35,3.36-2.03,6.5-2.03,9.41-.09,1.97.08,3.47.51,4.52.42,1.05,1.61,2.77,3.55,5.18,1.78,2.28,3.15,3.85,4.12,4.71.97.86,2.26,1.57,3.87,2.14,2.37.89,5.79,1.49,10.27,1.81,4.48.32,8.15.25,11.03-.19,7.77-1.27,12.49-2.44,14.13-3.52,1.65-1.08,2.89-3.74,3.74-7.99.68-3.42.48-8.02-.57-13.79-1.06-5.77-2.3-9.22-3.74-10.36-.25-.13-1.16-.89-2.73-2.28-1.56-1.39-2.68-2.15-3.36-2.28Z"/>
      <path class="cls-3" d="M387.77,618.84c-2.11,0-3.61.19-4.5.57-.89.38-2.52,1.46-4.88,3.23-2.37,1.84-4.48,3.96-6.34,6.37-1.86,2.41-2.79,4.22-2.79,5.42,0,.89-.42,1.9-1.27,3.04-3.04,4.56-2.28,10.87,2.28,18.92,2.03,3.49,6.72,5.58,14.07,6.28,3.3.38,5.37.82,6.21,1.33.93.57,3.82.82,8.68.76,4.86-.06,8.09-.41,9.7-1.05,1.86-.63,3.42-2.41,4.69-5.32,1.27-2.98,1.9-4.94,1.9-5.9.08-.95.51-1.46,1.27-1.52.84.19,1.35.79,1.52,1.81,0,1.4-.63,3.55-1.9,6.47-1.27,2.92-2.32,4.66-3.17,5.23-2.12,1.4-5.83,2.28-11.16,2.66-5.33.38-9.34.03-12.04-1.05-1.27-.44-2.39-.73-3.36-.86-.97-.13-2.13-.25-3.49-.38-1.35-.13-2.75-.32-4.18-.57-3.13-.51-5.68-1.49-7.67-2.95-1.99-1.46-3.78-3.68-5.39-6.66-1.1-1.96-1.8-3.6-2.09-4.9-.3-1.3-.44-3.25-.44-5.85,0-1.71.08-3.09.25-4.14s.32-1.76.45-2.14c.12-.38.48-1.06,1.08-2.04.59-.98,1.06-1.76,1.39-2.33,1.44-3.42,3.74-6.72,6.91-9.89,3.17-3.17,6.23-5.23,9.19-6.18,1.94-.7,4.31-.89,7.1-.57,2.2.25,6.13,1.4,11.79,3.42,5.66,2.03,9.13,3.55,10.39,4.56,1.27,1.01,2.22,2.22,2.85,3.61.63,1.4.65,2.31.06,2.76-.68.51-1.27.22-1.77-.86-.85-1.52-2.22-2.88-4.12-4.09-1.9-1.2-4.84-2.57-8.81-4.09-5.32-2.09-9.47-3.14-12.42-3.14Z"/>
      <path class="cls-3" d="M426.43,618.17c1.01,0,1.77.84,2.28,2.52.51,1.68.89,4.68,1.14,8.98l.63,9.03c.17.13,7.48.25,21.93.38,9.8.19,15.89.24,18.26.14,2.37-.1,3.76-.43,4.18-1,.51-.57.84-4.09,1.01-10.55.08-6.34.55-9.51,1.39-9.51.76,0,1.31.51,1.65,1.52.34,1.14.36,4.96.06,11.46-.3,6.5-.65,10-1.08,10.51-.59.95-.97,5.45-1.14,13.5-.17,5.39-.34,8.83-.51,10.32-.17,1.49-.51,2.23-1.02,2.23-.85,0-1.27-.16-1.27-.48-.59-11.66-.25-19.93,1.02-24.82-7.61-.51-22.4-.89-44.37-1.14,0,.44.06,2.93.19,7.46.13,4.53.29,8.22.51,11.08.21,2.85.48,4.56.82,5.13,1.1.25,1.33,1.11.7,2.57-.63,1.46-1.54,2.19-2.73,2.19-.76,0-1.23-.19-1.39-.57-.25-.82-.51-6.47-.76-16.92v-.19c-.42-18.83-1.02-29.38-1.78-31.66-.51-1.46-.42-2.19.25-2.19Z"/>
      <path class="cls-3" d="M494.13,623.88c.68,1.97,1.01,7.58,1.01,16.83,19.61,0,30.3.19,32.07.57.68.25,1.01.67,1.01,1.24.17.38-1.99.59-6.46.62-4.48.03-10.02-.02-16.61-.14-6.59-.13-10.19-.19-10.78-.19l-.51,3.9c-1.27,9.83-1.44,15.59-.51,17.3.68,1.27,2.37,1.68,5.07,1.24.34-.06.67-.13,1.01-.19,3.72-.7,9.23-1.09,16.54-1.19s13.67.18,19.08.81c7.69.89,11.58,1.52,11.66,1.9,0,.13-.25.38-.76.76-.85.63-3.97.6-9.38-.1-7.02-.82-14.79-1.09-23.33-.81-8.54.29-15.64,1.06-21.3,2.33-.59.06-1.08.1-1.46.1s-.66-.33-.82-1c-.17-.67-.23-1.52-.19-2.57.04-1.05.15-2.58.32-4.61,2.96-27,2.66-40.5-.89-40.5-1.35,0-2.05-.21-2.09-.62-.04-.41.57-.74,1.84-1,1.44-.19,2.45-.6,3.04-1.24.51-.51.97-.48,1.39.1.51.57,1.65.6,3.42.09,3.72-1.08,9.45-1.85,17.18-2.33,7.73-.48,13.84-.46,18.32.05,1.27.19,2.11.4,2.54.62.42.22.59.52.51.9-.17.51-.91.81-2.22.9-1.31.1-4.37.08-9.19-.05-8.11-.06-14.96.35-20.54,1.24-6.08.89-9.3,1.46-9.63,1.71-.34.25-.13,1.36.63,3.33Z"/>
      <path class="cls-3" d="M603.28,662.2c0,1.71,1.73,4.5,5.2,8.37,2.45,2.85,3.72,3.68,3.8,2.47,0-.57.21-.54.63.1,0,.06.04.16.13.29.42.82.51,1.54.25,2.14-.25.6-.76.9-1.52.9-1.18,0-2.88-1.19-5.07-3.57-2.2-2.38-3.85-4.8-4.95-7.27-.51-1.27-1.73-3.29-3.68-6.08-1.95-2.79-4.14-5.81-6.59-9.08-2.45-3.26-3.8-5.05-4.06-5.37-.34-.57-4.52-.98-12.55-1.24-8.03-.25-12.55-.13-13.57.38-.76.44-1.1,4.37-1.01,11.79.08,6.91-.17,10.52-.76,10.84-.09.13-.3.16-.63.1-.68-.06-1.12-.98-1.33-2.76-.21-1.77-.45-6.5-.7-14.17-.25-11.09-.76-17.18-1.52-18.26-.68-.95-.99-2.85-.95-5.7.04-2.85.4-5.04,1.08-6.56.84-1.65,1.94-2.69,3.29-3.14,3.13-1.2,9.93-1.2,20.41,0,10.48,1.2,17.49,2.76,21.04,4.66,3.46,1.84,6.04,4.22,7.73,7.13,1.69,2.92,2.11,5.7,1.27,8.37-.34,1.27-1.67,2.46-3.99,3.57-2.32,1.11-4.96,1.85-7.92,2.23-3.63.44-5.75.86-6.34,1.24-.59.25-.42,1.13.51,2.61.93,1.49,3.34,4.68,7.22,9.56,3.04,3.74,4.56,5.9,4.56,6.47ZM556.63,625.31c-.17-.38-.3-.29-.38.29-.25,1.4-.21,2.09.13,2.09.08,0,.17-.1.25-.29.17-.76.17-1.46,0-2.09ZM581.35,618.75c-.76-.44-4.06-.76-9.89-.95-5.83-.19-9.38-.1-10.65.29-2.03.63-2.96,1.27-2.79,1.9l.38.38c.34.19.61,1.32.82,3.38.21,2.06.38,4.25.51,6.56.13,2.31.23,3.63.32,3.95.34,2.73.46,5.26.38,7.61,4.56-.57,9.34-.63,14.33-.19,4.31.32,7.39.16,9.25-.48,1.69-.7,2.87-.86,3.55-.48.67.32,2.24.43,4.69.33s4.77-.36,6.97-.81c7.61-1.52,9.46-5.45,5.58-11.79-3.21-5.07-8.71-7.89-16.48-8.46-3.89-.38-6.21-.79-6.97-1.24Z"/>
      <path class="cls-3" d="M626.35,652.4c-3.89.32-5.66.03-5.32-.86.34-.57,1.39-1.14,3.17-1.71,1.86-.51,5.56-.79,11.09-.86,5.53-.06,9.11.16,10.71.67,3.21.95,3.17,1.62-.12,2l-6.21.38c-1.1,0-5.54.13-13.31.38Z"/>
    </g>
    <g>
      <path class="cls-1" d="M52.71,688.3c-.99,0-1.7.09-2.11.27-.42.18-1.18.68-2.29,1.52-1.11.86-2.1,1.86-2.97,2.99-.87,1.13-1.31,1.98-1.31,2.54,0,.42-.2.89-.6,1.43-1.43,2.14-1.07,5.1,1.07,8.88.95,1.64,3.15,2.62,6.6,2.94,1.55.18,2.52.39,2.92.62.44.27,1.79.39,4.07.36,2.28-.03,3.8-.19,4.55-.49.87-.3,1.61-1.13,2.2-2.5.59-1.4.89-2.32.89-2.77.04-.45.24-.68.6-.71.4.09.63.37.71.85,0,.65-.3,1.67-.89,3.03-.6,1.37-1.09,2.19-1.49,2.45-.99.65-2.74,1.07-5.23,1.25-2.5.18-4.38.02-5.65-.49-.6-.21-1.12-.34-1.58-.4-.46-.06-1-.12-1.64-.18-.63-.06-1.29-.15-1.96-.27-1.47-.24-2.67-.7-3.6-1.38-.93-.68-1.78-1.72-2.53-3.12-.52-.92-.84-1.69-.98-2.3-.14-.61-.21-1.52-.21-2.74,0-.8.04-1.45.12-1.94.08-.49.15-.83.21-1,.06-.18.23-.5.51-.96.28-.46.5-.83.65-1.09.67-1.61,1.76-3.15,3.24-4.64,1.49-1.49,2.92-2.45,4.31-2.9.91-.33,2.02-.42,3.33-.27,1.03.12,2.88.65,5.53,1.61,2.66.95,4.28,1.67,4.88,2.14.59.48,1.04,1.04,1.34,1.7.3.65.31,1.09.03,1.29-.32.24-.59.1-.83-.4-.4-.71-1.04-1.35-1.93-1.92-.89-.56-2.27-1.2-4.13-1.92-2.5-.98-4.44-1.47-5.83-1.47Z"/>
      <path class="cls-1" d="M74.6,689.19c.51-.24.87-.13,1.07.31.16.39.36,1.26.6,2.63.75,4.05.89,7.88.42,11.51-.4,2.68-.46,4.58-.18,5.71.36,1.4.24,2.05-.36,1.96-.12-.03-.28-.12-.48-.27-.79-.59-.87-3.57-.24-8.92.55-5.09.22-8.97-1.01-11.65-.28-.68-.22-1.12.18-1.29Z"/>
      <path class="cls-1" d="M85.96,711.5c-.4,0-.62-.27-.68-.83-.06-.55-.11-2.31-.15-5.29-.04-4.7-.14-7.05-.3-7.05l-.3.22c-.24,0-.38-.13-.42-.4.12-1.04.34-1.62.65-1.74.24-.06.57.03,1.01.27.28.15.46.64.54,1.47.08.83.1,2.59.06,5.27-.04,3.84.02,5.76.18,5.76.08,0,.16-.1.24-.31.28-.54.49-.8.65-.8.36-.03.32.61-.12,1.92-.32,1.01-.77,1.52-1.37,1.52ZM85.43,689.81c.52,0,.77.36.77,1.07,0,1.37-.36,2.05-1.07,2.05-.32,0-.6-.4-.83-1.2-.24-.8-.24-1.34,0-1.61.2-.21.58-.31,1.13-.31Z"/>
      <path class="cls-1" d="M120.47,696.69c1.35,0,2.49.24,3.42.71.93.48,1.5,1.1,1.7,1.87.4,1.7.48,3.31.24,4.84-.24,1.53-.87,3.47-1.9,5.82-.08.21-.62,1.53-1.61,3.97-.16.51-.44.76-.83.76-.28-.03-.44-.21-.47-.54-.04-.27.16-.88.59-1.85.44-.97.75-1.54.95-1.72.24-.18.36-.51.36-.98,0-.36.34-1.26,1.01-2.72.67-1.34.95-2.84.83-4.51-.08-1.4-.21-2.36-.39-2.9-.18-.54-.57-.98-1.16-1.34-.63-.39-1.57-.59-2.8-.6-1.23-.01-2.32.17-3.27.56-.68.27-1.8.96-3.39,2.07-1.59,1.12-2.6,1.93-3.04,2.43-.44.57-.73,1.5-.89,2.81-.16,1.07-.52,2.39-1.07,3.97-.56,1.58-.99,2.48-1.31,2.72-.44.33-.65.12-.65-.62s.22-2.01.65-3.7c.91-3.36,1.05-6.11.42-8.25-.16-.62-.45-1.2-.86-1.72-.42-.52-.78-.78-1.1-.78-.16,0-1.06.6-2.71,1.79-1.65,1.19-2.63,1.95-2.95,2.28-.75.8-1.45,2.09-2.08,3.86-.63,1.77-1.07,3.68-1.31,5.73-.16,1.31-.34,2.13-.54,2.45-.2.33-.6.42-1.19.27-.44-.12-.48-.31-.12-.58.28-.3.52-1.16.71-2.59.63-5.59,2.89-9.76,6.78-12.49,1.94-1.37,3.57-1.74,4.88-1.12.48.24.95.92,1.43,2.05.47,1.13.77,2.2.89,3.21l2.92-2.19c1.71-1.22,3.06-2.02,4.07-2.41,1.01-.39,2.27-.58,3.78-.58Z"/>
      <path class="cls-1" d="M133.14,691.47c0-.27.14-.4.42-.4.2.06.35.31.45.76.1.45.29.71.57.8.39.24.8.94,1.22,2.1s.72,2.44.92,3.84c.2,1.31.38,1.93.54,1.87.67-1.61,2.97-2.72,6.9-3.35,2.74-.42,4.94-.13,6.6.85.71.45,1.55,1.18,2.53,2.19.97,1.01,1.54,1.76,1.7,2.23.63,1.9-1.94,5.13-7.73,9.68-.63.48-1.14.79-1.52.94-.38.15-.9.22-1.58.22-1.11,0-2.25-.19-3.42-.56-1.17-.37-1.75-.74-1.75-1.09,0-.33.06-.49.18-.49s.71.19,1.79.58c1.39.51,2.46.68,3.21.51.75-.16,1.94-.83,3.57-1.99,1.39-1.01,2.66-2.18,3.81-3.5,1.15-1.32,1.86-2.48,2.14-3.46.2-.59-.45-1.57-1.93-2.92-1.49-1.35-2.77-2.1-3.84-2.25-.91-.12-2.29-.01-4.13.31-1.85.33-3.06.68-3.66,1.07-.99.65-1.63,1.44-1.93,2.34-.3.91-.43,2.46-.39,4.66,0,2.65.12,4.66.36,6.02.32,1.61.16,2.38-.48,2.32-.12-.03-.26-.1-.42-.22-.59-.45-1.07-3.64-1.43-9.59-.08-.86-.16-1.84-.24-2.92s-.14-1.81-.18-2.19c-.04-.37-.11-.88-.21-1.52-.1-.64-.23-1.23-.39-1.76-.16-.54-.38-1.23-.65-2.1-.67-1.58-1.01-2.57-1.01-2.99Z"/>
      <path class="cls-1" d="M163.54,689.81c.51,0,.77.36.77,1.07,0,1.37-.36,2.05-1.07,2.05-.32,0-.59-.4-.83-1.2s-.24-1.34,0-1.61c.2-.21.57-.31,1.13-.31ZM164.07,711.5c-.4,0-.62-.27-.68-.83-.06-.55-.11-2.31-.15-5.29-.04-4.7-.14-7.05-.3-7.05l-.3.22c-.24,0-.38-.13-.42-.4.12-1.04.34-1.62.65-1.74.24-.06.57.03,1.01.27.28.15.46.64.54,1.47.08.83.1,2.59.06,5.27-.04,3.84.02,5.76.18,5.76.08,0,.16-.1.24-.31.28-.54.5-.8.65-.8.36-.03.32.61-.12,1.92-.32,1.01-.77,1.52-1.37,1.52Z"/>
      <path class="cls-1" d="M186.5,713.82c-.16-.09-.23-.41-.21-.96.02-.55.11-1.3.27-2.25.16-.95.38-1.84.65-2.68.63-1.99.67-4.03.12-6.11-.55-2.08-1.47-3.45-2.74-4.1-.6-.3-1.53-.54-2.8-.74-1.27-.19-2.1-.23-2.5-.11-.4.12-1.07.79-2.02,2.01-.95,1.22-1.67,2.34-2.14,3.35-.56,1.31-.81,3.38-.77,6.2.04,2.94-.12,4.54-.48,4.77-.2.12-.36,0-.47-.36-.16-.48-.3-1.74-.42-3.79-.16-2.41-.15-4.12.03-5.13.18-1.01.7-2.17,1.58-3.48,1.59-2.5,2.88-3.96,3.87-4.37,1.11-.48,2.66-.45,4.64.07,1.98.52,3.37,1.26,4.16,2.21.44.51.89,1.58,1.37,3.23.48,1.65.65,2.74.54,3.28l-.42,1.61c-.28,1.04-.51,2.02-.68,2.92-.18.91-.23,1.48-.15,1.72.16.39.05.94-.33,1.65s-.74,1.07-1.1,1.07Z"/>
      <path class="cls-1" d="M206.61,695.12c3.73,0,6.19.62,7.38,1.87.87.98,1.15,1.67.83,2.05-.04.09-.14.13-.3.13-.28,0-.42-.21-.42-.62,0-.48-.52-.97-1.55-1.47-.71-.42-1.35-.67-1.9-.76s-1.74-.13-3.57-.13h-3.87c-2.38,1.9-3.95,3.61-4.7,5.13-.95,1.55-1.2,3.14-.74,4.77.46,1.64,1.54,2.71,3.24,3.21.87.33,1.91.45,3.12.36,1.21-.09,2.07-.34,2.59-.76,1.9-2.11,3.15-4.76,3.75-7.94.36-1.34.34-2.3-.06-2.9-.36-.56-.38-.97-.06-1.21.48-.36.95,0,1.43,1.07.12.21.22.46.3.76,1.15,3.18,1.79,5.59,1.9,7.23.16,1.93.3,2.9.42,2.9.2,0,.67-.28,1.43-.85.83-.56,1.23-.68,1.19-.36-.08.36-.55.94-1.43,1.74-.95.74-1.61,1.67-1.96,2.77-.28.83-.8,1.81-1.58,2.92-.77,1.12-1.46,1.88-2.05,2.3-.67.45-1.43.79-2.26,1.03-.71.21-1.19.3-1.43.29-.24-.02-.56-.17-.95-.47-.59-.48-.82-.95-.68-1.43.14-.48.8-1.35,1.99-2.63,1.39-1.49,2.44-2.52,3.15-3.1.71-.58,1.39-.93,2.02-1.05.44-.09.71-.24.83-.45.12-.21.18-.68.18-1.43,0-.54-.07-1.35-.21-2.45-.14-1.1-.3-2.09-.48-2.97-.18-.88-.31-1.29-.39-1.23-.12.09-.54,1.04-1.25,2.86-.91,2.35-1.8,3.94-2.68,4.77-.87.83-2.16,1.34-3.87,1.52-1.75.18-3.38-.18-4.91-1.07-1.53-.89-2.41-2.02-2.65-3.39-.4-2.02.05-4.07,1.34-6.16,1.29-2.08,2.9-3.51,4.85-4.28.87-.39,2.2-.58,3.99-.58ZM210.95,714.94c.28-.39.57-1.06.89-2.01.32-.95.48-1.65.48-2.1-.2-.12-.61.07-1.22.56-.62.49-1.34,1.2-2.17,2.12-1.19,1.43-1.94,2.2-2.26,2.32-.28.12-.43.44-.45.96-.02.52.11.84.39.96.32.15,1.03-.14,2.14-.87,1.11-.73,1.84-1.38,2.2-1.94Z"/>
      <path class="cls-1" d="M254.91,697.09c-.28,0-.8.26-1.58.78-.77.52-1.16.87-1.16,1.05,0,.21,1.41,1.48,4.22,3.81,2.82,2.34,4.36,3.5,4.64,3.5.67,0,1.29-1.06,1.84-3.17.32-1.1.62-1.64.89-1.61.2.03.36.4.48,1.12.12.3.03.78-.27,1.45-.3.67-.65,1.37-1.07,2.1-.42.73-.64,1.12-.68,1.18,0,.06.66.58,1.99,1.56,1.33.98,1.89,1.56,1.7,1.74,0,.3-.95-.15-2.86-1.34-.99-.65-1.51-.94-1.55-.85-.2,0-.73.33-1.61.98-2.06,1.64-4.88,2.45-8.45,2.45-2.86,0-5-.23-6.43-.69-1.43-.46-2.58-1.29-3.45-2.48-.4-.54-.57-1.39-.51-2.57.06-1.17.31-1.96.74-2.34.47-.36.71-.64.71-.85,0-.3.56-.86,1.7-1.7,1.13-.83,2.09-1.4,2.88-1.7,2.38-.92,2.96-1.64,1.73-2.14-.68-.27-1.42-1.12-2.23-2.57-.81-1.44-1.2-2.61-1.16-3.5,0-.68.08-1.18.24-1.49s.54-.69,1.13-1.14c.52-.39.96-.68,1.34-.89.38-.21.82-.39,1.34-.56.51-.16,1.06-.21,1.63-.13.58.07,1.22.25,1.93.51.79.36,1.87.7,3.21,1.03,1.19.27,2.02.62,2.5,1.07.47.45.77,1.16.89,2.14l.18,1.74c-.2.12-.71.49-1.52,1.12s-1.54,1.15-2.17,1.58c-.63.43-1.05.69-1.25.78ZM257.35,705.03c-.87-.77-1.93-1.67-3.18-2.68-1.25-1.01-2.19-1.8-2.83-2.36-.36-.36-.73-.5-1.13-.42s-1.37.45-2.91,1.14c-2.3.98-3.82,2.45-4.55,4.4-.73,1.95-.35,3.43,1.16,4.44.91.6,2.54,1,4.88,1.23s4.3.17,5.89-.16c.87-.18,1.87-.55,3-1.12s1.83-1.06,2.11-1.47c.16-.24.09-.54-.21-.89-.3-.36-1.04-1.06-2.23-2.1ZM250.33,687.99c-.32,0-.82.18-1.52.54-.7.36-1.2.69-1.52.98-.48.45-.64,1.19-.51,2.23.14,1.04.58,2.1,1.34,3.17.95,1.43,1.79,2.22,2.5,2.36.71.15,1.92-.21,3.63-1.07,1.74-.92,2.89-1.7,3.45-2.32.4-.51.63-1.15.71-1.92.08-.77-.02-1.32-.3-1.65-.04-.18-1.26-.61-3.66-1.29-2.4-.68-3.78-1.03-4.13-1.03Z"/>
      <path class="cls-1" d="M301.44,688.3c-.99,0-1.7.09-2.11.27-.42.18-1.18.68-2.29,1.52-1.11.86-2.1,1.86-2.97,2.99-.87,1.13-1.31,1.98-1.31,2.54,0,.42-.2.89-.59,1.43-1.43,2.14-1.07,5.1,1.07,8.88.95,1.64,3.15,2.62,6.6,2.94,1.55.18,2.52.39,2.91.62.44.27,1.79.39,4.08.36,2.28-.03,3.8-.19,4.55-.49.87-.3,1.61-1.13,2.2-2.5.6-1.4.89-2.32.89-2.77.04-.45.24-.68.6-.71.39.09.63.37.71.85,0,.65-.3,1.67-.89,3.03-.59,1.37-1.09,2.19-1.49,2.45-.99.65-2.74,1.07-5.24,1.25-2.5.18-4.38.02-5.65-.49-.6-.21-1.12-.34-1.58-.4-.46-.06-1-.12-1.63-.18-.63-.06-1.29-.15-1.96-.27-1.47-.24-2.67-.7-3.6-1.38-.93-.68-1.78-1.72-2.53-3.12-.52-.92-.84-1.69-.98-2.3-.14-.61-.21-1.52-.21-2.74,0-.8.04-1.45.12-1.94.08-.49.15-.83.21-1,.06-.18.23-.5.5-.96.28-.46.5-.83.66-1.09.67-1.61,1.75-3.15,3.24-4.64,1.49-1.49,2.92-2.45,4.31-2.9.91-.33,2.02-.42,3.33-.27,1.03.12,2.88.65,5.53,1.61,2.66.95,4.28,1.67,4.88,2.14.6.48,1.04,1.04,1.34,1.7.3.65.31,1.09.03,1.29-.32.24-.6.1-.83-.4-.4-.71-1.04-1.35-1.93-1.92-.89-.56-2.27-1.2-4.13-1.92-2.5-.98-4.44-1.47-5.83-1.47Z"/>
      <path class="cls-1" d="M342.31,713.51c-.71,0-1.07-.74-1.07-2.23,0-.71-.08-1.07-.24-1.07-.08,0-.2.06-.36.18-.52.3-1.57.73-3.15,1.29-1.19.42-2.08.66-2.68.74-.6.07-1.75.05-3.45-.07-1.47-.06-2.54-.16-3.21-.29-.67-.13-1.39-.39-2.14-.78-2.78-1.4-3.65-2.84-2.62-4.33.55-.77,2-1.43,4.34-1.99,2.34-.55,4.94-.83,7.79-.83,1.75,0,2.83.04,3.24.13.42.09.88.39,1.4.89.44.45.75.7.95.76.2.06.38-.01.54-.22.28-.33.33-1.01.15-2.05-.18-1.04-.53-1.95-1.04-2.72-.68-1.07-1.47-1.81-2.38-2.23-.91-.42-2.24-.65-3.99-.71-1.94-.09-3.45.03-4.52.36-1.11.36-2.12.82-3.04,1.38s-1.37,1.01-1.37,1.34c0,.42-.14.62-.42.62-.2,0-.33-.15-.39-.45-.06-.3-.04-.63.06-1,.1-.37.25-.65.45-.83.28-.3,1.13-.76,2.56-1.38s2.42-1,2.97-1.12c.91-.18,2.17-.25,3.78-.2,1.61.04,2.73.19,3.36.42,1.75.74,3.15,1.9,4.22,3.48,1.07,1.58,1.39,3.32.95,5.22-.28,1.76-.38,3.41-.3,4.95.04,1.81-.1,2.72-.42,2.72ZM324.22,708.24c0,.39.67,1.01,2.02,1.87.99.65,1.73,1.04,2.23,1.16.5.12,1.54.19,3.12.22,2.14.03,4.06-.24,5.77-.8,1.86-.62,2.98-1.29,3.36-1.99.38-.7.03-1.49-1.04-2.39-.56-.45-1.06-.74-1.52-.87-.46-.13-1.38-.22-2.77-.25-2.78-.09-5.34.18-7.68.8s-3.51,1.37-3.51,2.23Z"/>
      <path class="cls-1" d="M367.35,695.84c0,.36-.48.54-1.43.54-1.15.03-2.83.2-5.03.51s-3.72.5-4.55.56c-.44,1.99-.44,4.24,0,6.74.44,2.5,1.07,4.75,1.9,6.74.2.48.12.71-.24.71-.48,0-.81-.39-1.01-1.16-.04-.15-.15-.44-.33-.87-.18-.43-.3-.71-.36-.85-.06-.13-.16-.39-.3-.76-.14-.37-.23-.65-.27-.83-.04-.18-.11-.45-.21-.8-.1-.36-.17-.68-.21-.96-.04-.28-.09-.62-.15-1.03-.06-.4-.11-.82-.15-1.25-.04-.43-.06-.9-.06-1.41l-.24-4.51c-1.07.3-2.24.34-3.51.13-.55-.12-.83-.28-.83-.49.08-.21.48-.34,1.19-.4,1.98-.06,3.08-.14,3.3-.25.22-.1.39-.6.51-1.49.12-.95.54-2.12,1.25-3.5.71-1.38,1.33-2.22,1.85-2.52.79-.42,1.54-.45,2.23-.11.69.34,1.28.83,1.75,1.45.48.62.63,1.04.48,1.25-.12.03-.28-.01-.48-.13-.2-.12-.43-.28-.68-.49-.26-.21-.5-.41-.71-.6-.22-.19-.46-.39-.71-.6-.26-.21-.43-.36-.51-.45-1.39.92-2.42,2.89-3.09,5.89-.2.8-.15,1.27.15,1.41.3.13,1.14.05,2.53-.25,1.11-.27,2.68-.45,4.7-.54,1.39-.09,2.27-.12,2.65-.09.38.03.56.16.56.4Z"/>
      <path class="cls-1" d="M387.99,696.06c.59,0,1.61.48,3.03,1.43,1.23.86,2,1.64,2.32,2.32.32.68.19,1.33-.39,1.94-.57.61-1.62,1.2-3.12,1.76-.91.33-2.47.67-4.67,1.03s-3.92.54-5.15.54c-.79,0-1.31.05-1.55.16-.24.1-.42.33-.54.69-.2.62-.18,1.31.06,2.05.24.74.65,1.34,1.25,1.78.67.62,2.12,1.14,4.34,1.54,2.22.4,4.58.65,7.08.74l1.9-1.38c1.23-.92,1.85-1.22,1.85-.89-.08.24-.4.67-.95,1.29-.71.8-1.47,1.32-2.26,1.54-.79.22-2.14.28-4.05.16-3.93-.24-6.72-.88-8.39-1.92-1.67-1.04-2.38-2.6-2.14-4.69.08-.8.07-1.29-.03-1.47-.1-.18-.43-.36-.98-.54-.52-.15-.86-.3-1.04-.45-.18-.15-.15-.25.09-.31s.63-.06,1.19,0l1.43.22c.28-1.58.95-3.21,2.02-4.89,1.07-1.68,2.1-2.7,3.09-3.06,1.59-.62,2.88-.65,3.87-.09.59.33,1.17.49,1.72.49ZM378.59,703.6c0,.12.42.19,1.25.22.83.03,1.83,0,3-.09,1.17-.09,2.21-.21,3.12-.36,5.87-1.01,7.38-2.65,4.52-4.91-.59-.54-1.46-1.04-2.59-1.52-1.13-.48-2.15-.77-3.06-.89-.68.03-1.38.27-2.11.71-.73.45-1.34,1.01-1.81,1.7-.44.65-.93,1.59-1.49,2.81-.56,1.22-.83,1.99-.83,2.32Z"/>
      <path class="cls-1" d="M440.11,710.83c0,.83-.16,1.3-.47,1.41-.32.1-.75-.17-1.31-.83-.28-.33-.7-.8-1.25-1.41-.56-.61-.92-1.03-1.1-1.25-.18-.22-.46-.6-.83-1.14-.38-.54-.68-1.04-.89-1.52-.22-.48-.5-1.1-.83-1.87-.34-.77-.69-1.68-1.04-2.72l-.71-1.87c-.4,1.49-.79,2.57-1.19,3.26-.75,1.19-1.8,3.58-3.15,7.18-.2.45-.6.74-1.22.87s-1.16.05-1.64-.25c-.71-.45-1.34-1.26-1.87-2.43-.54-1.17-1.22-3.22-2.05-6.14-.32-1.07-.81-2.25-1.49-3.52-.6-1.04-.75-1.56-.48-1.56h.24c1.07.15,2.08,1.95,3.03,5.4,1.19,4.34,2.24,6.8,3.15,7.36.36.21.59.27.71.18.16-.12.65-1.07,1.49-2.86.28-.71.7-1.55,1.28-2.52.58-.97,1-1.84,1.28-2.63.28-.79.42-1.69.42-2.7,0-1.55.3-2.29.89-2.23.67.06,1.27.8,1.79,2.23.08.18.14.37.18.58,1.19,3.99,2.52,6.8,3.98,8.43.75.83,1.23,1.25,1.43,1.25.12,0,.22-.09.3-.27.59-1.31,1.32-2.61,2.17-3.9.85-1.29,1.44-2.22,1.75-2.79.63-1.22,1.56-2.8,2.77-4.73,1.21-1.93,2.03-3.08,2.47-3.44.75-.59,1.21-.82,1.37-.67.08.09-.08.31-.48.67-.71.62-2.28,3.3-4.7,8.03-.67,1.34-1.17,2.17-1.49,2.5-.44.45-.96,1.38-1.58,2.81s-.92,2.45-.92,3.08Z"/>
      <path class="cls-1" d="M475.8,713.51c-.71,0-1.07-.74-1.07-2.23,0-.71-.08-1.07-.24-1.07-.08,0-.2.06-.36.18-.52.3-1.57.73-3.15,1.29-1.19.42-2.08.66-2.68.74-.59.07-1.74.05-3.45-.07-1.47-.06-2.54-.16-3.21-.29-.68-.13-1.39-.39-2.14-.78-2.78-1.4-3.65-2.84-2.62-4.33.55-.77,2-1.43,4.34-1.99,2.34-.55,4.94-.83,7.79-.83,1.74,0,2.83.04,3.24.13s.88.39,1.4.89c.44.45.75.7.95.76.2.06.38-.01.54-.22.28-.33.33-1.01.15-2.05-.18-1.04-.53-1.95-1.04-2.72-.67-1.07-1.47-1.81-2.38-2.23-.91-.42-2.24-.65-3.99-.71-1.94-.09-3.45.03-4.52.36-1.11.36-2.12.82-3.03,1.38s-1.37,1.01-1.37,1.34c0,.42-.14.62-.42.62-.2,0-.33-.15-.39-.45-.06-.3-.04-.63.06-1,.1-.37.25-.65.45-.83.28-.3,1.13-.76,2.56-1.38s2.42-1,2.97-1.12c.91-.18,2.17-.25,3.78-.2,1.61.04,2.73.19,3.36.42,1.74.74,3.15,1.9,4.22,3.48,1.07,1.58,1.39,3.32.95,5.22-.28,1.76-.38,3.41-.3,4.95.04,1.81-.1,2.72-.42,2.72ZM457.72,708.24c0,.39.67,1.01,2.02,1.87.99.65,1.73,1.04,2.23,1.16.49.12,1.54.19,3.12.22,2.14.03,4.06-.24,5.77-.8,1.86-.62,2.98-1.29,3.36-1.99.38-.7.03-1.49-1.04-2.39-.55-.45-1.06-.74-1.52-.87-.46-.13-1.38-.22-2.77-.25-2.78-.09-5.33.18-7.67.8-2.34.62-3.51,1.37-3.51,2.23Z"/>
      <path class="cls-1" d="M485.2,712.57c-.75,0-1.03-3.48-.83-10.44.08-2.71-.02-4.16-.3-4.37-.36-.33-.32-.83.12-1.52.36-.56.67-.65.95-.27.08.09.14.24.18.45v.67c.75-.77,1.7-1.43,2.86-1.96,1.03-.42,1.89-.61,2.59-.58.69.03,1.52.28,2.47.76,1.62.83,2.3,1.77,2.02,2.81-.12.42-.44.3-.95-.36-.71-.92-1.87-1.71-3.45-2.36-2.34.86-3.63,1.53-3.87,2.01-.24.45-.46,1.99-.68,4.62-.22,2.63-.31,4.86-.27,6.67.04,1.61,0,2.65-.09,3.15s-.35.74-.74.74Z"/>
      <path class="cls-1" d="M515.96,696.06c.6,0,1.61.48,3.04,1.43,1.23.86,2,1.64,2.32,2.32.32.68.19,1.33-.39,1.94-.58.61-1.62,1.2-3.12,1.76-.91.33-2.47.67-4.67,1.03s-3.92.54-5.15.54c-.79,0-1.31.05-1.55.16-.24.1-.42.33-.54.69-.2.62-.18,1.31.06,2.05.24.74.65,1.34,1.25,1.78.67.62,2.12,1.14,4.34,1.54,2.22.4,4.58.65,7.08.74l1.9-1.38c1.23-.92,1.84-1.22,1.84-.89-.08.24-.4.67-.95,1.29-.71.8-1.47,1.32-2.26,1.54s-2.14.28-4.04.16c-3.93-.24-6.72-.88-8.39-1.92-1.67-1.04-2.38-2.6-2.14-4.69.08-.8.07-1.29-.03-1.47-.1-.18-.43-.36-.98-.54-.52-.15-.86-.3-1.04-.45-.18-.15-.15-.25.09-.31.24-.06.63-.06,1.19,0l1.43.22c.28-1.58.95-3.21,2.02-4.89,1.07-1.68,2.1-2.7,3.09-3.06,1.59-.62,2.88-.65,3.87-.09.6.33,1.17.49,1.72.49ZM506.56,703.6c0,.12.42.19,1.25.22.83.03,1.83,0,3.01-.09,1.17-.09,2.21-.21,3.12-.36,5.87-1.01,7.38-2.65,4.52-4.91-.6-.54-1.46-1.04-2.59-1.52-1.13-.48-2.15-.77-3.06-.89-.68.03-1.38.27-2.11.71-.73.45-1.34,1.01-1.81,1.7-.44.65-.93,1.59-1.49,2.81-.55,1.22-.83,1.99-.83,2.32Z"/>
      <path class="cls-1" d="M532.74,703.51c.2,0,.47-.34.83-1.03.91-1.58,2.08-2.92,3.51-4.02,1.43-1.1,2.88-1.8,4.34-2.1.79-.15,1.4-.19,1.81-.13.42.06,1.1.28,2.05.67,1.43.6,2.47,1.24,3.12,1.94.65.7,1.08,1.57,1.28,2.61.04.27-.19,2.33-.68,6.18-.5,3.85-.62,5.94-.39,6.27.24.33.21.57-.09.71-.3.15-.61.1-.92-.13-.68-.51-.62-3.02.18-7.54.55-3.06.65-5.14.3-6.22-.36-1.09-1.47-2.04-3.33-2.88-.79-.39-1.39-.61-1.79-.67-.4-.06-.91-.01-1.55.13-.91.18-2,.74-3.27,1.7-1.27.95-2.24,1.93-2.92,2.94-.83,1.22-1.37,2.34-1.61,3.35-.24,1.01-.32,2.42-.24,4.24.16,2.29.26,3.5.3,3.61.08.24-.03.57-.33.98-.3.42-.55.6-.74.54-.32-.33-.56-1.88-.74-4.66-.18-2.78-.31-4.32-.39-4.62-.16-.62-.38-3.05-.65-7.27-.2-3.84-.5-5.55-.89-5.13-.08.06-.16.22-.24.49-.08.27-.14.25-.18-.04-.04-.06-.06-.13-.06-.22,0-.54.16-.92.47-1.16.24-.18.48-.29.71-.33s.45-.02.62.07c.18.09.29.24.33.45.08.6.19,1.93.33,4.02.14,2.08.28,3.84.42,5.29.14,1.44.27,2.1.39,1.99Z"/>
      <path class="cls-1" d="M571.29,697.98c0,.6.38,1.37,1.13,2.32.71.92,1.15,2.11,1.31,3.57.16,1.46-.02,2.65-.54,3.57-.91,1.61-2.06,2.83-3.45,3.68s-2.82,1.2-4.28,1.05c-2.78-.27-5.02-1.7-6.72-4.28-1.03-1.58-1.65-2.81-1.84-3.7-.24-1.22.02-2.71.77-4.48.75-1.77,1.67-3.01,2.74-3.73.52-.39,1.33-.74,2.44-1.07,1.71-.45,3.54-.31,5.5.4,1.96.71,2.95,1.61,2.95,2.68ZM558.85,701.95c-.32,0-.49.28-.51.85-.02.57.11,1.26.39,2.07.28.82.63,1.57,1.07,2.25.79,1.25,1.73,2.23,2.82,2.94,1.09.71,2.17,1.06,3.24,1.03.99-.03,2-.33,3.04-.91s1.82-1.29,2.38-2.12c1.59-2.41,1.47-4.92-.36-7.54-1.59-2.14-2.66-3.14-3.21-2.99-.08.03-.14.07-.18.13-.4.33-.63.33-.71,0-.08-.24,0-.48.24-.71.24-.27.33-.45.27-.54-.06-.09-.33-.21-.8-.36-2.06-.71-3.89-.38-5.47,1-1.59,1.38-2.28,2.71-2.08,3.99.16.6.12.89-.12.89Z"/>
      <path class="cls-1" d="M588.95,711.32c3.25-.36,5.81-1.52,7.67-3.5,1.87-1.98,2.62-4.33,2.26-7.07-.28-2.53-.1-3.94.54-4.24.08-.06.16-.07.24-.04.24.06.54.97.89,2.74.36,1.77.47,2.89.36,3.37-1.03,3.51-1.53,6.14-1.49,7.9,0,2.05-.18,3.08-.54,3.08-.12,0-.28-.12-.48-.36-.16-.3-.24-2.01-.24-5.13-2.06,1.87-3.37,2.86-3.93,2.94-.48,0-1.23.21-2.26.62-1.23.48-2.34.68-3.33.62-.99-.06-2.04-.42-3.15-1.07-1.78-1.04-3.02-2.15-3.72-3.32-.7-1.17-.96-2.62-.8-4.35.48-4.52.91-7.02,1.31-7.5.16-.24.39-.18.71.18.28.42.24,1.5-.12,3.26-.67,3.81-.69,6.44-.06,7.9.28.71,1.17,1.55,2.68,2.52,1.51.97,2.66,1.45,3.45,1.45Z"/>
      <path class="cls-1" d="M608.53,699.18c0-1.31.33-2.32.98-3.03s1.71-1.01,3.18-.89c.2.03.75.09,1.67.18s1.61.15,2.08.18c1.23.09,2.37.29,3.42.6,1.05.31,1.79.67,2.23,1.07.44.4.48.77.12,1.09-.24.21-.46.34-.65.4-.2.06-.35.04-.45-.04-.1-.09-.15-.24-.15-.45,0-.39-.3-.68-.89-.89-.67-.24-1.85-.47-3.54-.69-1.69-.22-3.06-.33-4.13-.33-.87,0-1.41.05-1.61.16-.2.1-.42.48-.65,1.14-.32.83-.36,1.55-.12,2.14.28.54,1.1,1.03,2.47,1.49,1.37.46,3.02.78,4.97.96,3.73.39,6.01,1.15,6.84,2.28.28.42.41.74.39.96s-.19.74-.51,1.54c-.4.89-1.1,1.86-2.11,2.9-1.01,1.04-1.96,1.76-2.83,2.14-1.63.71-4.22.58-7.79-.4-1.43-.39-2.31-.68-2.65-.87-.34-.19-.54-.5-.62-.91-.08-.48-.08-.71,0-.71s.3.16.66.49c.47.42,1.82.86,4.04,1.34,2.22.48,3.73.64,4.52.49.75-.12,1.69-.59,2.79-1.43,1.39-1.04,2.28-2.12,2.68-3.23.4-1.12.2-1.94-.6-2.48-.47-.36-1.76-.64-3.87-.85-3.45-.33-5.96-.84-7.53-1.54-1.57-.7-2.35-1.63-2.35-2.79Z"/>
      <path class="cls-1" d="M645.35,696.06c.6,0,1.61.48,3.04,1.43,1.23.86,2,1.64,2.32,2.32.32.68.19,1.33-.39,1.94-.58.61-1.62,1.2-3.12,1.76-.91.33-2.47.67-4.67,1.03s-3.92.54-5.15.54c-.79,0-1.31.05-1.55.16-.24.1-.42.33-.54.69-.2.62-.18,1.31.06,2.05.24.74.65,1.34,1.25,1.78.67.62,2.12,1.14,4.34,1.54,2.22.4,4.58.65,7.08.74l1.9-1.38c1.23-.92,1.84-1.22,1.84-.89-.08.24-.4.67-.95,1.29-.71.8-1.47,1.32-2.26,1.54s-2.14.28-4.04.16c-3.93-.24-6.72-.88-8.39-1.92-1.67-1.04-2.38-2.6-2.14-4.69.08-.8.07-1.29-.03-1.47-.1-.18-.43-.36-.98-.54-.52-.15-.86-.3-1.04-.45-.18-.15-.15-.25.09-.31.24-.06.63-.06,1.19,0l1.43.22c.28-1.58.95-3.21,2.02-4.89,1.07-1.68,2.1-2.7,3.09-3.06,1.59-.62,2.88-.65,3.87-.09.6.33,1.17.49,1.72.49ZM635.95,703.6c0,.12.42.19,1.25.22.83.03,1.83,0,3.01-.09,1.17-.09,2.21-.21,3.12-.36,5.87-1.01,7.38-2.65,4.52-4.91-.6-.54-1.46-1.04-2.59-1.52-1.13-.48-2.15-.77-3.06-.89-.68.03-1.38.27-2.11.71-.73.45-1.34,1.01-1.81,1.7-.44.65-.93,1.59-1.49,2.81-.55,1.22-.83,1.99-.83,2.32Z"/>
    </g>
  </g>
  <path d="M154,576.58c20.69,11.01,66.37,9.83,90.95,12.47,25.63,2.75,55.32,9.12,80.13,10.47,6.2.34,13.66.81,18.42-3.75,21.17-23.55,50.48-43.48,70.46-67.75,11.27-13.69,2.8-30.19,5.45-45.65,14.15-9.09,22.33-26,33.73-37.37,10.24-10.21,22.74-21.15,33.67-30.97,1.69-1.52,4.24-1.59,5.56-2.73,6.28-5.4,11.66-40.66,13.79-50.41,9.17-41.96,21.19-83.59,29.69-125.91l2.86-80.3c-2.5-3.05-5.36-4.72-7.21-8.18-.52-.07-2.44-2.75-3-3-8.18-3.7-14.28-30.1-21-38l-.32-.79c-.94-1.41-1.77-2.91-2.5-4.5-1.04-2.29-3.03-6.72-3.18-9.71-5.76-12.66-12.43-27.85-15-29-3.74-1.68-1.78-3.32-2.2-3.4-3.58-2.14-5.39-6.64-9.12-8.45-2.45-1.19-38.3-7.51-41.54-7.28-1.86.13-6.83,1.31-8.59,2.04-28.55,11.75-58.94,33.1-87.52,46.11-26.07,23.23-50.72,48.01-75.72,72.39-6.72,6.56-12.3,14.79-19.47,20.54-16.16,12.94-67.06,40.17-73.48,56.86-1.73,4.5-.79,10.56-1.71,14.61-6,26.23-28.57,65.04-41.55,90.04-9.2,17.73-34.55,55.81-38.9,71.88-2.35,8.69-1.32,25.75-2.37,35.95-2.34,22.7-5.62,45.43-8.35,68.08,26.87,15.85,50.41,41.03,78.02,55.73ZM118.23,546.52l75.76,33.19c-30.52.61-52.81-14.88-75.76-33.19ZM216.32,582.56l-47.35-19.32,22.59-63.33c11.59,30.06,28.91,57.59,44.74,85.55l-19.98-2.9ZM428.55,353.49c-1.58,3.43-12.58,33.65-14.64,33.12-1.66-2.12-3.02-4.22-3.89-6.8-3-8.93-6.03-29.58-7.6-39.72-2.84-18.39-2.95-36.91-5.91-55.27,17.01-16.25,36.91-29.62,58.09-39.99,2.48-1.21,15.95-7.42,17.09-6.26.87,3.45.56,7.72-.25,11.13-8.8,37.17-27.22,69.69-42.89,103.79ZM477.02,283.44c-1.35,11.27-18.22,38.45-24.95,49.36-6.11,9.89-13.03,20.2-20.39,29.21l42.67-101.01c2.74.88,3.05,19.22,2.67,22.43ZM294.41,416c-2.12-2.41-1.13-1.72-.02-3.27,7.65-10.68,20.02-22.18,28.86-32.74,24.31-29.06,48.59-58.62,68.3-90.98l14.48,92.78-111.62,34.2ZM407.12,392.78l-79.06,73.75c-18.9-7.03-28.91-25.79-38.97-42.23,19.93-7.39,41.23-11.97,61.78-18,7.55-2.22,49.4-17.09,52.64-16.55,2.19.36,2.6,1.22,3.61,3.03ZM395.41,278.54l-1.93-6.65c7.13-2.77,14.06-6.71,21.3-9.14,1.33-.45,3.42-1.94,4.23-.22l-23.6,16.01ZM478.78,234.77c18.32-15.45,28.21-37.86,43.1-56.13l-33.8,88.71-9.31-32.58ZM502.22,200.53c-3.13,4.58-19.73,29.99-23.79,29.5l-17.88-99.06,68.29,23.3c1.28,3.44-22.85,40.73-26.63,46.26ZM455.76,126.48l-82.57,29.25,4.31-5.24c1.08-4.57,1.36-5.04,4.66-8.41,14.73-15.04,39.08-36.06,55.79-49.06,3.91-3.04,8.34-5.44,12.32-8.36l5.48,41.82ZM456.06,132.43l15.94,99.64-80.62,38.17-29.02-104.91,93.7-32.9ZM371.65,217.52c6.03,20.74,10.44,42.11,16.44,62.88-4.86,15.06-12.5,26.96-21.62,39.73-24.76,34.68-56.86,63.19-81.75,97.74-3-13.88-3.01-28.51-5.06-42.49-1.56-10.65-4.56-21.28-6.08-31.97-2.69-18.85-2.4-37.8-8.21-56.18,31.85-37.18,59.19-78.11,89.95-116.23,2.95,1.04,14.58,40.48,16.33,46.52ZM266.19,344.8c3.67,19.98,9.54,40.41,12.78,60.31.25,1.51,2.57,11.23-.37,10.66l-95.74-55.66,73.35-63.86,2.71,1.39c3.49,15.49,4.42,31.59,7.28,47.16ZM277.94,424.04l-84.75,57.5c-7.27-30.43-8.58-61.56-12.32-92.42-.86-7.12-3.01-14.56-3.86-21.26-.19-1.52-1.92-1.64,1.2-3.04l99.74,59.22ZM185.73,484.38l-78.98,24.47c-2.24-2.15-.82-1.95-.24-3.33,4.38-10.39,13.02-23.03,18.41-33.78,16.72-33.34,33.82-67.35,45.04-102.9l15.76,115.54ZM238.59,580.77c-5.31-1.17-39.08-79.42-46.41-89.15l88.9-61.92c9.45,17.07,24.55,30.45,37.32,45.03l-79.82,106.04ZM311.49,592.45c-16.8-1.58-33.8-2.09-50.55-4.1-2.36-.28-16.86-1.45-16.56-3.66l76.84-99.15c5.89,7.39,6.66,16.28,7.38,25.21,2.15,26.67-2.33,55.93-.72,82.95-2.22,2.44-12.92-.92-16.39-1.25ZM407.84,528.72c-5.47,8.34-25.8,25.8-34.18,33.59-11.89,11.05-25.02,20.8-36.07,32.75-.48-2.37,1.29-4.11,1.49-6.71,1.66-22.24-1.12-44.63-2.45-66.74-.72-11.95.87-25.31-3.16-36.55l79.46,1.86c3.47,3.2-2.17,37.36-5.08,41.8ZM415.4,478.93c-4.11,1.26-37.57-2.13-44.27-2.94-12.25-1.48-25.44-3.81-37.44-6.72l75.81-71.64,41.46,42.27c-7.92,7.35-26.94,36.4-35.57,39.04ZM456.77,433.63c-5.11.2-32.3-29.69-36.64-35.56l66.95,10.96-30.31,24.6ZM467.6,401.13c-15.27-2.01-30.83-5.63-46.09-8.01-1.37-1.18-.39-2.34.07-3.63,2.65-7.48,9.34-18.34,13.58-25.4,13.5-22.5,29.28-44.17,44.19-65.73l7.62,102.78c-2.13,2.58-15.49.49-19.38-.02ZM523.11,262.4c-1.69,27.93-15.87,60.61-22.51,88.09-2.75,11.4-4.05,23.23-6.15,34.75l-8.4-100.07,36.47-27.07c1.74,1.53.69,2.66.59,4.3ZM533.3,169.15c-1.21,24.58-2.8,49.22-4.79,73.75-10.89,11.48-24.08,20.58-36.06,30.88l40.42-113.57c1.38.33.52,7.3.44,8.94ZM520.34,145.19l-53.65-20.54,16.15-58.96,37.5,79.5ZM436.79,45.43c3.59-.36,29.58,4.89,34.26,6.28,1.13.33,5.6,1.89,5.57,2.5l-26.77,22.88-15.65-23.06c-.22-.32-1.68-.51-2.38-1.52-3.31-4.78-.05-6.58,4.97-7.08ZM455.72,78.22c5.95-6.34,12.21-12.69,18.85-18.33,1.25-1.06.74-3.5,2.45-.46-5.33,18.41-5.86,38.45-15.7,55.32l-5.6-36.53ZM426.63,52.12c3.38,4.49,20.81,24.66,19.37,28.44l-64.69,57.14c-2.89-.34,3.15-11.47,3.81-12.79,6.17-12.46,14.28-23.98,21.04-36.1,2.38-4.26,17.68-37.32,20.47-36.68ZM346.69,91.44l74.2-38.53-58.46,105.45-15.74-66.91ZM255.48,178.48l77.06-74.84,7.81-5.49,14.44,63.42-90.6,119.84c-1.31-.27-.46-23.74-.64-26.71-1.53-25.53-8.61-50.52-8.08-76.21ZM186.07,226.34l-14.21,20.58c-5.03-.79,9.54-21.37,14.21-20.58ZM245.45,189.17l10.86,96.6-1.76,2.18-80.41-36.34c11.75-32.24,46.13-42.94,71.31-62.44ZM172.48,255.93l80.65,36.91-79.63,67.33-1.01-104.23ZM167.33,265.67l.64,26.71c-3.83,23.06-2.47,46.24-2.74,69.48l-41.81,30.72c5.57-30.96,25.24-57.28,34.71-87.14,4.14-13.04,5.73-26.59,9.19-39.76ZM87.29,452.4c-1.68-39.53,22.1-67.45,39.8-100.65,8.01-15.03,13.71-31.51,24.05-45.32-1.56,18.97-13.19,34.09-20.3,50.7-6.84,15.99-12.54,32.55-19.37,48.56l-25.04,77.8.87-31.09ZM82.89,509.43c1.99-9.89,9.48-24.39,12.98-34.85,7.81-23.36,14.04-47.27,22.44-70.45,16.2-9.08,29.43-23.16,45.59-32.71-1.74,13.13-8.07,25.16-13.53,37.07-15.47,33.71-33.89,65.85-51.67,98.37-3.08,5.97-10.09,4.16-15.27,6.86-1.63-1.52-.88-2.56-.53-4.29ZM98.13,517.42c21.42-7.4,49.84-14.84,72.1-20.7,3.93-1.04,8.71-2.22,12.7-2.71,1.7-.21,2.59-1.73,3.54.72l-25.68,64.92c-1.53.88-22.4-9.35-25.7-10.97-12.24-5.98-33.69-15.81-44.07-23.29-1.4-1.01-2.8-1.63-3.54-3.41.11-.62,8.98-3.97,10.66-4.55Z"/>
  <path class="cls-2" d="M78.63,583.1c-12.64,7.8-25.49,15.35-36.8,25.06-1.28,1.1-1.41,3.27-.6,4.66.93,1.58,2.64,2.03,4.34,1.77,16.23-2.51,30.02-12.41,45.47-16.83l-4.2-5.46c-1.29,1.72-2.34,3.61-3.45,5.45-1.2,2.01-2.12,3.5-3.56,4.99-1.27,1.31-1.43,3.4-.29,4.83,1.05,1.32,3.24,2.04,4.75.95,5.5-3.97,11.46-7.26,17.55-10.24,6.17-3.02,12.72-5.51,18.73-8.05l-4.63-6c-4.21,4.7-8.67,9.48-13.63,12.86-1.7,1.16-2.62,3.51-1.41,5.38,1.14,1.76,3.5,2.56,5.38,1.41,3.28-2,6.71-3.73,10.22-5.3.42-.19.85-.38,1.27-.56.12-.05,1.28-.55.72-.32,1-.42,2.01-.83,3.02-1.23,1.93-.76,3.88-1.49,5.84-2.18,7.71-2.73,15.59-5,23.56-6.83l-4.44-5.78c-.16.23-.32.45-.49.68.45-.62.08-.12-.19.19-.41.47-.84.92-1.29,1.36s-.95.87-1.44,1.28c-.11.09-.82.64-.44.35.36-.27-.45.32-.6.43-2.33,1.66-4.85,3.05-7.41,4.33-5.57,2.79-11.39,5.06-16.96,7.83-2.94,1.47-5.82,3.07-8.46,5.03-1.59,1.18-2.43,2.98-1.61,4.91.77,1.83,2.71,2.73,4.64,2.28,14.52-3.41,29.24-6.94,42.68-13.61l-4.01-6.85c-4.89,3.24-10.17,5.92-15.43,8.51-3.03,1.49-6.09,2.94-9.17,4.33-1.56.71-3.12,1.4-4.69,2.08-.7.3-1.39.6-2.09.9.73-.31-.25.1-.4.17-.44.18-.88.37-1.32.55l3.1,7.34c2.65-1.9,5.5-3.52,8.43-4.95.78-.38,1.56-.74,2.35-1.1.34-.15.69-.31,1.03-.46.23-.1.46-.2.69-.3-.39.17-.18.08.09-.03,1.67-.68,3.35-1.34,5.05-1.95,6.91-2.51,13.99-4.52,21.06-6.5,3.73-1.05,7.47-2.08,11.18-3.21l-4.01-6.89c-.42.37-.85.74-1.29,1.1.01-.01-.82.65-.58.46.23-.18-.37.26-.42.31-.96.7-1.95,1.36-2.96,1.99-2.04,1.28-4.15,2.43-6.28,3.55-4.44,2.33-8.95,4.51-13.22,7.15l4.23,7.23c8.32-5.37,17.14-9.92,26.05-14.22l-5.13-6.65c-2.51,2.37-4.63,5.12-7.1,7.54-1.3,1.27-1.67,3.59-.67,5.15s3,2.62,4.8,1.95c4.88-1.79,9.96-2.93,14.62-5.27l-4.32-7.39c-13.25,9.64-30.55,12.16-42.79,23.42-1.36,1.25-1.69,3.71-.68,5.28,1.1,1.71,2.95,2.4,4.92,2,11.11-2.27,21.46-7.46,31.49-12.57,5.17-2.63,10.32-5.32,15.58-7.77,1.2-.56,2.41-1.11,3.62-1.64.24-.11.48-.21.73-.31,1.2-.52-.82.33.39-.16.72-.3,1.45-.59,2.17-.88,2.5-.98,5.04-1.86,7.62-2.6,1.44-.41,2.89-.77,4.36-1.06.73-.15,1.45-.28,2.18-.4.24-.04.49-.07.73-.11.52-.07.49-.07-.12.01.24-.03.48-.06.73-.09,2.89-.32,5.82-.38,8.72-.15l-3.27-7.89c-2.11,2.37-4.35,4.62-6.7,6.74-1.26,1.14-2.55,2.24-3.86,3.3-.33.27-.67.54-1,.8-.08.06-.97.76-.54.43.36-.27-.61.46-.73.55-.35.26-.69.52-1.04.77-5.5,4.02-11.37,7.49-17.46,10.55l4.78,8.18c4.13-2.53,8.39-4.83,12.74-6.95,2.21-1.08,4.43-2.11,6.67-3.12,1.13-.5,2.25-1,3.39-1.49.53-.23,1.07-.46,1.6-.69.27-.11.54-.23.8-.34.3-.13.9-.38.27-.12,9.4-3.95,18.93-7.59,28.3-11.62,4.97-2.14,9.89-4.4,14.68-6.91l-6.51-6.51c-.11.16-.32.36-.39.54.42-.98.56-.68.18-.26-.26.29-.5.58-.77.86-.66.7-1.37,1.35-2.11,1.97-.13.11-.26.21-.39.32-.72.62.94-.69.16-.12-.35.25-.7.51-1.05.76-.89.62-1.8,1.19-2.74,1.74-1.84,1.08-3.76,2.05-5.7,2.94-.56.26-1.12.51-1.68.76-.19.08-.38.17-.57.25-.34.15-1.03.67-.02.01-.97.63-2.35.96-3.42,1.38-9.25,3.59-18.79,6.39-27.98,10.12-4.74,1.93-9.49,4.01-13.73,6.91-2.06,1.41-3.18,4.26-1.71,6.53s4.16,2.96,6.53,1.71c3.89-2.05,7.84-3.99,11.84-5.84,2.04-.95,4.09-1.87,6.15-2.78.97-.43,1.94-.85,2.91-1.27.56-.24,1.12-.48,1.67-.72.03-.01.72-.3.27-.11-.5.21.59-.25.69-.29,8.44-3.53,16.98-6.82,25.54-10.03,4.74-1.78,9.48-3.54,14.22-5.3-1.8-2.35-3.61-4.69-5.41-7.04-.08.13-.41.73-.55.79.3-.12.59-.71.05-.09-.4.45-.8.9-1.22,1.32s-.89.84-1.36,1.24c-.22.18-.44.36-.66.54-.91.75.84-.6-.13.09-2.13,1.52-4.34,2.88-6.61,4.18-5.01,2.86-10.05,5.59-14.5,9.3-1.56,1.3-1.82,4.16-.75,5.82,1.17,1.82,3.29,2.75,5.42,2.21,12.25-3.13,23.54-9,35.57-12.79l-4.53-7.79c-.78,1-1.63,1.95-2.55,2.82-.51.49-1.04.96-1.59,1.42-.23.19-.47.38-.7.57-.43.36.64-.47-.07.05-2.28,1.68-4.68,3.18-7.14,4.59-4.91,2.83-10.02,5.36-14.69,8.58-1.92,1.32-2.84,3.57-1.9,5.79s3.17,3.14,5.47,2.69c6.4-1.27,12.41-3.92,18.22-6.84,2.75-1.38,5.46-2.82,8.23-4.16,1.36-.66,2.73-1.29,4.12-1.89-.75.32-.13.06.24-.09.34-.14.68-.27,1.02-.4.75-.28,1.5-.55,2.26-.81,1.67-.56,3.37-1.03,5.09-1.39.89-.19,1.79-.33,2.69-.48.54-.09-.19.02-.24.03.27-.03.53-.06.8-.09.54-.06,1.09-.1,1.63-.14l-2.34-8.62c-5.56,3.04-10.95,6.36-16.58,9.28l4.49,7.68c3.89-1.84,6.87-3.08,11.15-4.57s8.42-2.7,12.72-3.74l-4.12-7.07c-1.41,1.53-2.59,3.26-3.78,4.97-.53.77-1.06,1.54-1.63,2.28.44-.59-.52.62-.61.73-.35.41-.72.79-1.1,1.17-2.95,2.95.04,8.12,4.07,7,4.87-1.36,9.88-1.85,14.85-2.69,2.22-.37,4.35-.91,6.44-1.76,2.62-1.06,4.88-2.45,7.19-3.96,1.49-.97,2.11-2.92,1.18-4.5-.87-1.48-3.01-2.15-4.5-1.18-1.87,1.21-3.86,1.9-6.22,2.48-1.06.26-2.13.44-3.21.62-.3.05-.59.11-.88.17.91-.19-.54.09-.71.11-.3.04-.6.09-.89.14-.17.02-1.02.13-.18.03-5.13.65-10.27,1.11-15.28,2.46l4.07,7c1.6-1.57,2.94-3.38,4.24-5.2.53-.74,1.04-1.49,1.58-2.23.15-.2.3-.4.45-.6-.29.37-.29.36.01,0,.3-.35.6-.7.91-1.04,2.91-3.12.03-8.05-4.12-7.07-8.94,2.1-17.79,4.86-26.11,8.79-2,.94-2.61,3.68-1.82,5.55s3.19,3.42,5.25,2.58c6.23-2.56,11.93-6.2,17.83-9.42,1.72-.94,2.74-3.33,2.13-5.23s-2.39-3.54-4.46-3.4c-7.12.5-13.7,2.56-20.16,5.51-5.61,2.57-10.96,5.68-16.64,8.11.86-.37-.1.03-.43.16-.4.16-.81.32-1.21.47-.82.31-1.65.6-2.48.86-1.84.59-3.71,1.07-5.61,1.45,1.19,2.83,2.38,5.65,3.58,8.48,9.4-6.46,21.35-10.27,28.63-19.46,1.26-1.58,1.93-3.78.73-5.65-1.1-1.71-3.23-2.76-5.26-2.14-12.06,3.67-23.4,9.38-35.64,12.51l4.67,8.03c.28-.24.57-.46.86-.7-.63.51-.16.13.21-.15.5-.37,1.01-.73,1.53-1.07,1.15-.78,2.33-1.51,3.53-2.22,2.45-1.45,4.95-2.8,7.41-4.23,4.94-2.87,9.71-6.15,12.94-10.96,1.06-1.59.73-3.9-.37-5.32s-3.26-2.38-5.04-1.72c-17.44,6.52-34.96,12.91-51.91,20.65-4.61,2.11-9.18,4.32-13.67,6.69l4.82,8.25c1.73-1.18,3.55-2.23,5.41-3.19.96-.49,1.94-.96,2.92-1.41.46-.21.92-.42,1.39-.62.28-.12.57-.24.85-.37.47-.2.38-.16-.28.12.19-.08.39-.16.58-.24,4.57-1.89,9.23-3.52,13.9-5.13,9.41-3.26,19.15-6.3,27.83-11.26,4.26-2.44,8.14-5.46,11-9.49,1.16-1.64.71-4.43-.74-5.76-1.61-1.48-3.82-1.76-5.76-.74-4.22,2.21-8.54,4.24-12.91,6.15-1.11.49-2.23.97-3.34,1.44-.12.05-.95.4-.42.18s-.31.13-.43.18c-.6.25-1.2.5-1.79.75-2.27.94-4.55,1.87-6.83,2.79-9.47,3.83-18.99,7.58-28.22,11.98-4.95,2.36-9.81,4.93-14.49,7.8-2.11,1.3-3.11,4.3-1.7,6.48s4.11,2.89,6.48,1.7c12.3-6.19,23.96-14.41,33.08-24.79,2.73-3.1.8-7.59-3.27-7.89-11.36-.83-22.5,3.07-32.72,7.63s-20.43,10.54-30.92,15.25c-.72.32-1.45.63-2.17.95s.94-.39-.22.09c-.42.17-.84.35-1.27.52-1.44.58-2.88,1.13-4.34,1.63-2.91,1.01-5.86,1.86-8.88,2.48l4.24,7.28c.7-.65,1.42-1.26,2.16-1.86.38-.3.37-.3-.03.02.19-.14.39-.29.58-.43.39-.28.79-.56,1.19-.83,1.63-1.11,3.32-2.12,5.06-3.06,3.48-1.89,7.1-3.51,10.73-5.09,7.3-3.18,14.8-6.21,21.27-10.94,1.8-1.32,2.87-3.77,1.53-5.85s-3.71-2.62-5.85-1.53c-.53.27-1.06.53-1.61.76.34-.14.28-.12-.2.08-.27.11-.55.21-.82.31-1.04.39-2.09.73-3.15,1.07-2.27.72-4.55,1.4-6.79,2.23l4.14,7.11c2.46-2.42,4.57-5.18,7.07-7.56,1.53-1.46,1.58-3.94.33-5.56-1.35-1.74-3.54-2.03-5.46-1.09-8.9,4.33-17.7,8.91-26,14.3-1.83,1.19-2.77,3.77-1.5,5.73s3.74,2.74,5.73,1.5c8.75-5.44,18.58-9.02,26.35-15.95,3.08-2.75-.16-8.09-4.01-6.89-14.03,4.34-28.47,7.6-41.84,13.82-3.46,1.61-6.82,3.46-9.92,5.69-1.64,1.18-2.47,3.06-1.64,5.02.7,1.66,2.89,3.09,4.74,2.33,6.5-2.68,12.91-5.58,19.21-8.7,5.37-2.66,10.77-5.4,15.76-8.73,1.73-1.15,2.63-3.56,1.42-5.43s-3.44-2.42-5.43-1.42c-6.16,3.07-12.56,5.33-19.48,7.39s-14.15,3.81-21.28,5.48l3.03,7.19c9.97-7.38,22.6-9.97,32.71-17.1,2.87-2.03,5.38-4.31,7.39-7.2.89-1.28.58-3.22-.31-4.37-.99-1.28-2.57-1.77-4.14-1.41-8.11,1.86-16.12,4.17-23.96,6.97-7.76,2.77-15.51,5.94-22.56,10.24l3.97,6.8c5.78-3.94,10.48-9.02,15.06-14.26,1.25-1.43,1.53-3.47.3-5.01s-3.13-1.77-4.92-.98c-6.2,2.71-12.36,5.57-18.48,8.47s-12.13,6.12-17.65,10.06l4.46,5.78c3.43-3.49,5.3-8.04,8.22-11.89.88-1.15.53-3.1-.29-4.13-.92-1.16-2.44-1.74-3.91-1.33-15.77,4.42-29.3,14.07-45.54,16.58l3.74,6.43c5.38-4.62,10.84-8.49,16.74-12.65,5.78-4.08,11.86-8.33,17.72-12.55,1.34-.97,1.99-2.67,1.1-4.2-.82-1.41-2.78-1.97-4.2-1.1h0Z"/>
  <path class="cls-2" d="M310.33,586.3c-6.7,6.13-13.76,12.03-19.05,19.48-1.74,2.45,1.14,5.93,3.88,5.05,9.19-2.97,18-7.13,26.52-11.66,9.03-4.8,17.78-10.12,26.33-15.71,4.41-2.89,8.77-5.85,13.07-8.9l-4.22-5.46c-9.37,11.63-21.28,20.78-32.54,30.46-3.2,2.76-6.36,5.57-9.41,8.49-2.59,2.49.07,6.99,3.5,6.01,12.76-3.67,23.69-12.26,33.5-20.89,10.96-9.65,20.97-20.31,31.41-30.51,5.17-5.05,10.44-10.03,16.15-14.46l-5.64-4.35c-.94,1.69-1.97,3.33-3.08,4.92-.25.35-.5.7-.75,1.04-.08.11-.71.93-.45.6-.65.83-1.33,1.65-2.02,2.46-2.64,3.07-5.5,5.94-8.47,8.69-6.04,5.61-12.48,10.76-18.66,16.21-3.35,2.95-6.62,5.99-9.65,9.26-1.38,1.49-1.47,3.84,0,5.31s3.82,1.39,5.31,0c15.25-14.19,31.31-27.04,49.63-37.16,2.41-1.33,4.85-2.59,7.34-3.76,1.25-.59,2.51-1.16,3.78-1.7-.15.06-.63.26.08-.03.34-.14.68-.28,1.02-.41.67-.27,1.34-.52,2.02-.78l-4.85-4.85c-.1.27-.21.54-.31.8-.36.92.37-.78-.05.12-.25.53-.49,1.06-.75,1.59-.56,1.11-1.18,2.2-1.84,3.26s-1.3,1.98-1.99,2.95c-.37.51-.75,1.02-1.13,1.52.59-.77-.07.08-.17.2-.24.29-.47.59-.72.88-3.54,4.27-7.56,8.12-11.73,11.77-2.19,1.91-4.42,3.76-6.69,5.57-1.05.84-2.11,1.68-3.17,2.51-.58.45-1.16.91-1.74,1.36.66-.51-.3.23-.36.27-.39.3-.78.6-1.17.9-4.75,3.64-9.55,7.23-14.26,10.93s-9.12,7.31-13.24,11.45c-1.48,1.49-1.59,4.19,0,5.66,1.75,1.61,3.89,1.39,5.66,0,17.44-13.72,35.65-27.03,53.96-39.88,6.87-4.82,13.65-9.74,20.43-14.7s14.04-10.08,21.56-14.32c2.1-1.18,4.23-2.3,6.41-3.33.53-.25,1.06-.49,1.59-.73.21-.09.42-.19.64-.28.71-.31-.3.12.14-.06,1.04-.42,2.09-.83,3.15-1.21,1.96-.69,3.96-1.27,6-1.69.5-.1,1-.19,1.5-.28.2-.03.4-.06.6-.09-.66.1-.4.05.1,0,.96-.1,1.93-.15,2.9-.16l-3.91-5.14c.31-.75,0-.01-.16.31-.13.28-.27.56-.42.83-.36.69-.76,1.35-1.19,2-.17.26-.35.52-.53.77-.08.11-.75.99-.43.59s-.4.47-.48.57c-.24.28-.49.56-.74.84-1.02,1.12-2.11,2.17-3.24,3.18-.54.48-1.09.94-1.65,1.4-.3.25-.61.49-.92.73-.36.29.11-.09.16-.12-.22.17-.45.34-.68.51-5.08,3.81-10.56,7.04-15.69,10.77-2.98,2.16-5.89,4.46-8.44,7.12-1.41,1.48-1.57,3.74-.32,5.36s3.42,1.97,5.27,1.05c7.1-3.53,13.71-7.92,20.1-12.59,3.33-2.43,6.6-4.95,9.86-7.47s5.97-4.64,9.07-7.01l-4.98-6.45c-3.04,3.81-6.61,7.11-10.36,10.2l6.46,4.98c.13-.23.27-.45.42-.66-.21.27-.22.3-.04.09.12-.12,1.07-.92.48-.5l-4.99-6.46c-.26.21-.53.42-.79.62.12-.09.64-.49.03-.02-.45.34-.91.69-1.37,1.03-1.03.76-2.07,1.51-3.12,2.24-1.97,1.38-3.98,2.71-6,4.01-4.32,2.79-8.71,5.47-13.08,8.18-8.86,5.5-17.72,11.14-25.57,18.05-4.11,3.62-7.84,7.65-10.95,12.18-1,1.45-.63,3.86.65,5.03,1.37,1.26,3.38,1.6,5.03.65,13.01-7.51,24.78-17.02,36.32-26.59,5.85-4.85,11.64-9.77,17.54-14.57,1.46-1.19,2.92-2.37,4.39-3.54.7-.56,1.41-1.12,2.12-1.67.33-.26.65-.51.98-.77.22-.17.44-.34.65-.51-.35.27-.02.02.14-.11,2.91-2.23,5.86-4.42,8.87-6.52,6.5-4.54,13.27-8.71,20.47-12.05l-6.14-4.72c-.1.7-.25,1.39-.46,2.06-.07.22-.17.8-.35.97.42-.39.36-.77.09-.25-.11.21-.21.43-.32.64-.37.7-.79,1.37-1.24,2.02-.1.14-.2.28-.3.42-.42.6.12-.21.18-.22-.23.05-.88,1.07-1.04,1.25-1.22,1.39-2.55,2.67-3.94,3.88-.7.62-1.42,1.21-2.15,1.79-.21.17-.42.33-.63.49-.51.41.81-.6-.04.03-.44.32-.87.65-1.31.97-6.77,4.94-14.13,8.99-21.26,13.37-2.95,1.81-5.76,3.8-8.63,5.73-3.62,2.43-7.35,4.71-11.08,6.97-8.2,4.97-16.48,9.81-24.44,15.15-8.39,5.63-16.74,11.79-22.88,19.92-1.01,1.34-.6,3.54.33,4.75,1.08,1.39,2.78,1.91,4.49,1.53,16.67-3.71,31.86-12.38,45.91-21.81,14.81-9.94,28.76-21.1,43.59-31,7.86-5.25,15.99-10.15,24.62-14.04l-6.28-4.83c-.2.61-.41,1.22-.65,1.82-.07.17-.14.34-.21.52-.24.62.1-.26.11-.25.03.02-.43.95-.46,1.01-.6,1.27-1.27,2.51-2,3.72s-1.56,2.43-2.41,3.59c-.1.13-.77,1.02-.37.5.37-.48-.27.34-.4.49-.5.62-1.01,1.23-1.54,1.83-2,2.3-4.17,4.45-6.42,6.5-1.19,1.08-2.41,2.14-3.65,3.17-.59.49-1.18.97-1.77,1.45-.3.24-.6.48-.9.72-.17.14-.35.27-.52.41-.1.08-.84.66-.34.27.44-.34-.01,0-.08.06-.18.13-.35.27-.53.4-.31.24-.62.47-.93.7-.72.54-1.44,1.07-2.16,1.6-1.32.96-2.65,1.91-3.99,2.85-2.79,1.95-5.62,3.85-8.45,5.74-5.48,3.65-11,7.24-16.35,11.07s-11.12,8.21-15.85,13.21c-3.11,3.28,0,8.41,4.32,7.42,7.05-1.6,13.51-5.37,19.43-9.41,3.35-2.28,6.56-4.73,9.77-7.21,1.57-1.21,3.13-2.43,4.69-3.64-.51.39.28-.22.43-.33.38-.29.75-.58,1.13-.86.8-.61,1.6-1.21,2.41-1.81s1.7-1.25,2.55-1.86c.42-.3.85-.59,1.27-.89-.12.09,1.27-.9.73-.55-.33.21.31-.18.37-.22,1.7-1.11,3.42-2.17,5.2-3.15l-4.92-.64c1.18,1.39,2.74,2.46,4.26,3.45.66.43,1.33.85,1.98,1.3.27.18.82.61.26.15.31.25.6.51.87.8,1.54,1.6,4.14,1.48,5.7,0,9.03-8.58,19-15.25,29.17-22.61l-5.9-4.53c-.19,1.15-.49,2.28-.88,3.38-.09.24-.19.48-.28.72-.16.48.37-.8.15-.34-.05.1-.09.21-.14.31-.28.58-.56,1.15-.87,1.72-.59,1.06-1.26,2.07-1.97,3.05-.07.1-.2.33-.29.39.04-.03.62-.77.18-.24-.18.22-.36.45-.54.67-.46.55-.93,1.08-1.41,1.61-1.88,2.04-3.94,3.91-6.09,5.67-.55.45-1.11.89-1.66,1.33-.43.35.58-.43.13-.1-.12.09-.23.18-.35.26-.35.26-.7.53-1.05.79-1.24.91-2.49,1.8-3.76,2.67-10.6,7.28-22.05,13.25-32.5,20.74-5.27,3.78-10.32,7.91-14.12,13.22-1.18,1.65-.43,4.11,1.05,5.25,1.7,1.32,3.75.98,5.34-.32,16.79-13.72,35.78-25.83,54.21-37.91,5.23-3.43,10.45-6.88,15.62-10.39,1.78-1.21,2.75-3.69,1.48-5.65-1.18-1.82-3.7-2.72-5.65-1.48-16.37,10.37-32.35,21.88-46.27,35.42-3.69,3.59-7.22,7.36-10.45,11.38-1.13,1.41-1.72,3.39-.65,5.04.97,1.51,2.9,2.49,4.7,1.91,5.85-1.87,10.93-5.15,15.92-8.65,2.33-1.63,4.65-3.28,7.08-4.77,1.22-.74,2.46-1.45,3.73-2.09.35-.17.7-.34,1.06-.51.04-.02,1.2-.53.44-.21.73-.31,1.48-.58,2.23-.83l-4.71-6.12c-1.22,2.49-2.66,4.86-4.23,7.15-.81,1.17-1.65,2.32-2.51,3.45l-.26.34c.17-.22.17-.22,0,0-.22.28-.44.56-.66.84-.44.56-.89,1.12-1.35,1.67-3.44,4.21-7.1,8.25-10.43,12.55-1.34,1.72-1.8,4.25,0,5.91s4.12,1.51,5.91,0c4.23-3.59,8.46-7.18,12.74-10.71,2.49-2.05,4.99-4.08,7.52-6.08.62-.49,1.24-.98,1.86-1.46.29-.23.58-.45.87-.68.19-.14,1.24-.96.61-.47,1.33-1.02,2.66-2.04,4-3.04,10.61-7.95,21.74-15.54,33.85-21.03.36-.16.72-.33,1.09-.48.15-.07.31-.14.46-.2,0,0,.98-.41.43-.18-.48.2.04-.02.12-.05.21-.08.41-.17.61-.25.41-.16.82-.32,1.23-.48,1.5-.58,3.01-1.11,4.54-1.58s3.03-.88,4.57-1.23c.72-.16,1.44-.3,2.16-.43.33-.06.66-.11,1-.16.16-.03.79-.15.15-.03-.7.13.2-.02.29-.03l-3.62-6.31c-.94,1.73-1.99,3.4-3.11,5.03-.56.82-1.14,1.63-1.74,2.42-.13.17-1.17,1.52-.53.7-.38.48-.76.96-1.14,1.44-3.03,3.76-6.31,7.32-9.7,10.75s-7.23,7.02-11.02,10.33c-1.87,1.63-3.76,3.23-5.68,4.81-.93.76-1.87,1.52-2.82,2.27-.46.37-.93.73-1.4,1.09-.13.1-.63.49.02-.01-.28.21-.55.42-.83.63-3.79,2.88-7.67,5.64-11.72,8.14l5.11,6.62c6.95-6.52,14.01-12.91,21.37-18.97s14.46-11.36,22.63-16.32l-5.07-6.57c-10.83,9.44-22.69,17.71-32.91,27.84-2.92,2.9-5.69,5.94-8.24,9.17-1.09,1.38-1.68,3.28-.63,4.9.95,1.47,2.81,2.41,4.57,1.86,14.78-4.66,26.97-14.41,39.34-23.35,3.4-2.46,6.84-4.86,10.39-7.08-1.62-2.09-3.23-4.19-4.85-6.28-6,7.34-13.87,12.97-18.81,21.2-1.78,2.97,1.17,6.86,4.52,5.88,9.83-2.88,17.72-9.68,24.77-16.84l-6.29-4.85c-2.72,4.01-5.18,7.17-8.45,10.81s-6.61,6.85-10.27,9.9c-1.54,1.28-1.44,3.83-.31,5.29,1.22,1.58,3.44,2.05,5.19,1.04,14.32-8.23,24.92-21.26,37.67-31.5l-6.4-4.93c-.38.68-.79,1.35-1.23,2-.19.28-.38.55-.57.82-.13.18-.26.36-.4.53.3-.39.31-.4.02-.04-.93,1.1-1.87,2.18-2.88,3.2-2.11,2.14-4.38,4.12-6.58,6.17-4.9,4.57-9.14,9.62-11.34,16.04-1.18,3.43,3.1,6.49,6.07,4.66,6.45-3.97,12.04-9.19,17.57-14.32,2.69-2.5,5.37-4.99,8.2-7.33.61-.5,1.22-1,1.84-1.48-.57.45.61-.46.72-.54.31-.23.62-.45.93-.68,1.42-1.01,2.88-1.95,4.39-2.81l-4.96-6.43c-2.32,2.4-4.86,4.57-7.47,6.64-.31.24-.62.49-.93.73-.1.08-.96.74-.41.32-.73.56-1.46,1.12-2.19,1.68-1.48,1.13-2.96,2.25-4.42,3.4-5.1,3.97-10.16,8.26-13.46,13.91-.91,1.56-.71,3.85.66,5.11,1.45,1.33,3.36,1.53,5.11.66,5.65-2.83,10.49-7.08,15.06-11.39,2.24-2.11,4.44-4.27,6.7-6.36,1.15-1.06,2.32-2.11,3.51-3.12.59-.5,1.2-.99,1.8-1.48s-.36.26.28-.22c.33-.25.67-.5,1-.74,1.39-1,2.83-1.94,4.33-2.78.72-.41,1.46-.79,2.21-1.14.22-.1,1.44-.59.63-.29.45-.17.89-.35,1.34-.51l-4.1-7.04c-8.75,10.14-19,18.84-28,28.76-1.28,1.41-1.79,3.68-.69,5.38.98,1.52,3.17,2.79,5.01,2.04,14.03-5.72,25.44-15.54,36.24-25.93l-7.49-4.36c-.15.52-.27,1.31-.58,1.76.25-.36.31-.63,0-.09-.11.2-.22.4-.34.6-.09.15-.52.81-.09.16.4-.61,0-.03-.12.09-.14.13-.28.26-.42.4-.56.55.27-.23.27-.19.02.24-1.77,1.17-2,1.33-1.17.76-2.29,1.6-3.38,2.48-1.84,1.48-1.66,4.83,0,6.35,1.95,1.79,4.39,1.58,6.35,0,.95-.76-.73.5.19-.15.21-.15.43-.3.64-.45.43-.29.86-.57,1.3-.85,1-.64,1.99-1.31,2.89-2.09,2.06-1.8,3.21-4.36,3.94-6.95,1.23-4.38-4.31-7.43-7.49-4.36-2.53,2.44-5.07,4.85-7.69,7.19-1.32,1.18-2.66,2.35-4.02,3.49-.65.54-1.31,1.08-1.97,1.61-.33.27-.66.53-.99.79-.73.58.38-.28-.43.34-2.69,2.04-5.46,3.97-8.35,5.72-1.45.88-2.93,1.71-4.44,2.48-.82.42-1.65.83-2.48,1.23-.39.19-.77.37-1.16.54-.15.07-1.45.63-.72.32,1.44,2.47,2.88,4.94,4.32,7.42,8.88-10.02,19.04-18.83,27.68-29.07,1.17-1.39,1.72-3.45.66-5.1-.95-1.48-2.98-2.6-4.76-1.94-12.6,4.69-20.79,15.25-30.84,23.59-.36.3-.72.6-1.09.89-.14.11-.28.22-.41.33-.49.39.53-.38.02-.02-.71.51-1.4,1.03-2.12,1.51-1.42.96-2.9,1.83-4.44,2.6l5.76,5.76c.37-.63.76-1.25,1.19-1.86.11-.16.86-1.17.26-.39.21-.28.43-.55.66-.81.92-1.1,1.9-2.15,2.92-3.15,2.31-2.26,4.81-4.3,7.35-6.3,5.14-4.04,10.49-7.87,15.01-12.62,3.17-3.34-.86-8.79-4.96-6.43-6.32,3.64-11.74,8.7-17.09,13.59-2.75,2.52-5.5,5.05-8.35,7.45-.63.53-1.26,1.05-1.9,1.57-.11.09-1.3,1.02-.77.61-.32.25-.64.49-.97.73-1.49,1.11-3.02,2.16-4.6,3.14l6.07,4.66c.16-.46.32-.91.5-1.36-.26.67.03-.06.15-.32.32-.68.67-1.35,1.04-2s.76-1.26,1.18-1.87c.19-.28.39-.55.59-.83.28-.37.27-.36-.03.03.14-.18.28-.35.42-.52,1.84-2.25,3.94-4.27,6.07-6.25,4.49-4.16,9.12-8.28,12.14-13.7.99-1.78.56-4.01-1.05-5.25-1.71-1.32-3.74-.98-5.35.32-6.22,5.02-11.88,10.67-17.74,16.1-2.89,2.68-5.83,5.31-8.89,7.78-.43.35-.87.7-1.31,1.04.48-.37-.52.39-.51.38-.77.58-1.55,1.15-2.35,1.7-1.68,1.18-3.41,2.28-5.19,3.3l4.88,6.32c7.69-6.43,14.32-14.06,19.94-22.36,1.12-1.65.45-4.02-1.03-5.16s-3.85-1.12-5.26.31c-1.63,1.65-3.28,3.28-4.99,4.84-.83.75-1.67,1.49-2.53,2.21-1.07.9-1.33,1.1-2.31,1.82-1.77,1.3-3.62,2.49-5.56,3.53-.48.26-.97.5-1.46.74-.31.15-.62.29-.93.43-.62.28.46-.18-.17.08-1.07.44-2.17.81-3.29,1.14l4.52,5.88c.59-.99,1.22-1.94,1.9-2.87.04-.06.47-.64.3-.4s.27-.34.31-.39c.34-.42.69-.84,1.04-1.25,1.5-1.75,3.11-3.4,4.74-5.02,3.16-3.14,6.44-6.18,9.27-9.65,1.27-1.56,1.61-3.57.31-5.25-1.18-1.52-3.46-2.1-5.16-1.03-12.57,7.87-23.69,17.94-36.83,24.93-.96.51-1.93,1-2.91,1.48-.75.36-2.08.96-2.49,1.13.35-.15-.27.11-.27.11-.25.1-.5.2-.75.3-.5.2-1.01.39-1.51.57-1.02.37-2.04.71-3.07,1.02,1.31,2.25,2.62,4.51,3.93,6.76,9.05-11.25,20.65-19.94,31.84-28.91,3.21-2.58,6.41-5.19,9.52-7.89,1.57-1.37,1.52-3.95.33-5.5s-3.6-2.17-5.4-1.08c-13.14,7.95-25.08,17.83-36.49,28.05-3.12,2.79-6.2,5.63-9.25,8.5-3.48,3.27,1.02,9.14,5.11,6.62,7.99-4.92,15.45-10.79,22.55-16.9,7.64-6.57,14.98-13.62,21.41-21.4,3.2-3.87,6.27-7.92,8.67-12.35,1.37-2.51-.28-6.71-3.62-6.31-12.72,1.5-24.54,7.44-35.34,14.03-11.85,7.23-22.91,15.71-33.65,24.47-5.05,4.12-10.03,8.34-15,12.57l5.91,5.91c7.05-9.09,15.62-17.26,20.74-27.7.75-1.54.76-3.23-.33-4.63-.97-1.25-2.8-2.03-4.38-1.49-5.83,1.98-10.89,5.29-15.89,8.81-2.32,1.63-4.65,3.28-7.08,4.74-2.84,1.71-4.79,2.66-7.48,3.52l4.05,6.96c5.8-7.21,12.51-13.64,19.52-19.65,7.52-6.45,14.59-11.78,22.8-17.49,4.17-2.89,8.39-5.7,12.67-8.42l-4.17-7.13c-18.58,12.68-37.78,24.45-55.94,37.74-5.26,3.85-10.43,7.81-15.47,11.94l6.39,4.93c.09-.13.52-.57.52-.72,0,.04-.65.81-.22.29.1-.12.19-.24.28-.35.39-.48.8-.95,1.21-1.41.85-.94,1.74-1.83,2.67-2.69,1.02-.95,2.07-1.85,3.14-2.73.24-.2.49-.4.73-.59.18-.15,1.16-.89.26-.21.59-.45,1.18-.9,1.78-1.34,5.1-3.74,10.5-7.06,15.9-10.37,5.59-3.42,11.21-6.8,16.63-10.49,5.1-3.47,10.15-7.2,14.44-11.65s7.8-9.57,8.81-15.56c.27-1.64-.06-3.15-1.44-4.22-1.17-.9-3.17-1.25-4.46-.31-10.5,7.62-21.33,14.93-30.82,23.84h5.7c-1.19-1.24-2.68-2.19-4.11-3.12-.67-.44-1.35-.88-2-1.36.64.48-.17-.16-.29-.27-.34-.31-.64-.63-.93-.98-1.17-1.4-3.44-1.44-4.92-.64-12.94,7.03-23.58,17.62-36.54,24.61-.82.44-1.65.87-2.49,1.27-.44.21-.88.41-1.33.61-.07.03-.63.28-.13.06.57-.25-.35.14-.46.19-1.72.68-3.48,1.23-5.28,1.64l4.32,7.42c1.95-2.05,4.05-3.96,6.23-5.78.53-.44,1.06-.88,1.6-1.31.27-.22.55-.44.82-.65.16-.12.32-.25.47-.37.65-.51-.5.38-.06.05,1.24-.94,2.48-1.87,3.73-2.78,5.39-3.91,10.95-7.59,16.47-11.31,11.15-7.51,22.7-15.18,31.73-25.26,4.73-5.28,8.65-11.21,10.86-17.98.53-1.62-.24-3.5-1.53-4.49-1.45-1.12-3.13-1.06-4.75-.33-15.61,7.05-29.59,17.23-43.35,27.29-14.14,10.33-28.2,21-43.73,29.19-2.05,1.08-4.13,2.11-6.23,3.09-1.07.49-2.14.97-3.22,1.44-.15.07-.76.31,0,0-.28.12-.57.23-.85.35-.51.21-1.02.41-1.54.61-4.28,1.66-8.67,3.03-13.15,4.03l4.83,6.28c.57-.76-.47.55-.06.08.16-.18.3-.38.45-.56.28-.34.56-.68.85-1.01.7-.8,1.42-1.58,2.17-2.34,1.44-1.46,2.95-2.85,4.51-4.18.78-.67,1.57-1.32,2.36-1.96.45-.36.91-.72,1.37-1.08-.67.52-.16.13-.03.02.28-.21.57-.43.85-.64,1.95-1.46,3.93-2.87,5.94-4.24,7.98-5.45,16.33-10.35,24.6-15.34,3.79-2.29,7.57-4.59,11.27-7.03,2.95-1.95,5.81-4.02,8.81-5.89,7.12-4.42,14.46-8.48,21.27-13.39,7.15-5.16,15.01-11.54,16.24-20.83.19-1.4-.93-2.94-2.07-3.61-1.38-.81-2.83-.65-4.22,0-13.21,6.21-25.01,15.03-36.35,24.13-5.91,4.75-11.71,9.64-17.54,14.5-2.92,2.43-5.84,4.86-8.79,7.26-1.47,1.19-2.94,2.37-4.42,3.55-.71.56-1.42,1.12-2.13,1.68-.33.26-.66.51-.99.77.47-.37-.08.06-.15.11-.22.17-.44.34-.66.51-6.54,5-13.29,9.74-20.42,13.86l5.68,5.68c.31-.45.63-.9.95-1.34.16-.22.34-.44.5-.66.39-.54-.62.75.07-.08.75-.91,1.5-1.82,2.29-2.7,1.59-1.76,3.28-3.42,5.04-5.02s3.63-3.14,5.52-4.62c-.62.48.02-.02.18-.14.24-.19.49-.37.73-.56.49-.37.99-.74,1.49-1.1,1-.73,2.02-1.46,3.04-2.17,8.39-5.84,17.25-10.98,25.85-16.5,4.76-3.06,9.41-6.26,13.84-9.77,1.6-1.27,1.45-3.94.32-5.4s-3.64-2.27-5.31-1.06c-1.56,1.13-2.81,2.36-3.82,4.02-1.06,1.76-.53,4.08,1.06,5.31,1.71,1.32,3.8,1,5.4-.32,3.75-3.1,7.31-6.4,10.35-10.21,1.29-1.62,1.67-3.65.32-5.39-1.13-1.46-3.67-2.3-5.3-1.06-12.55,9.57-24.55,19.9-39,27.11,1.65,2.14,3.3,4.27,4.95,6.41,1.04-1.09,2.13-2.12,3.27-3.09.59-.5,1.19-.98,1.79-1.47.13-.11.61-.47-.03.02.13-.1.27-.2.4-.31.36-.27.72-.54,1.08-.81,2.65-1.94,5.4-3.75,8.13-5.56,5.46-3.63,11.1-7.32,15.57-12.17,2.68-2.9,4.74-6.09,6.24-9.74,1.02-2.49-1.53-5.15-3.91-5.14-8.19.05-16.08,3.2-23.26,6.88-7.85,4.02-15.17,9.02-22.3,14.17-6.65,4.8-13.19,9.75-19.91,14.45-9.42,6.59-18.78,13.27-28.05,20.07-10.5,7.7-20.88,15.56-31.11,23.6l5.66,5.66c8.15-8.19,16.4-13.88,25.3-20.68,9.34-7.14,18.88-14.43,26.53-23.44,3.96-4.68,7.3-9.73,9.43-15.51,1-2.7-2.13-5.9-4.85-4.85-9.78,3.74-18.94,8.92-27.67,14.67-9.3,6.13-18.16,12.94-26.67,20.12-4.35,3.67-8.6,7.44-12.75,11.33l5.31,5.31c11.15-12.09,25.15-21.21,35.95-33.66,3.01-3.47,5.8-7.18,8.03-11.21.86-1.56.52-3.56-.93-4.63-1.55-1.16-3.26-.85-4.72.28-10.51,8.16-19.71,17.96-29.11,27.34-5.13,5.12-10.3,10.21-15.67,15.08-2.63,2.38-5.3,4.72-8.05,6.96-.61.5-1.23.99-1.84,1.48-.33.26-.66.52-.99.78.42-.32-.55.42-.69.52-1.31.99-2.63,1.95-3.98,2.88-2.92,2.02-5.95,3.88-9.09,5.53-.75.39-1.5.76-2.27,1.12-.33.15-.66.3-.99.45-.19.08-.38.17-.57.25-.5.22.52-.21.01,0-1.53.61-3.07,1.17-4.65,1.63l3.5,6.01c10.72-10.4,22.79-19.3,33.38-29.83,2.96-2.95,5.79-6.03,8.41-9.29,1.09-1.35,1.43-3.12.27-4.57-1-1.25-3.05-1.91-4.49-.9-15.94,11.3-32.63,21.95-50.39,30.16-4.55,2.11-8.9,3.89-13.85,5.5l3.88,5.05c4.93-6.96,11.13-12.86,17.15-18.92,2.6-2.62-1.33-6.49-4.03-4.03h0Z"/>
  <path class="cls-2" d="M490.29,556.03c16.63-15.14,37.99-23.58,57.92-33.34,5.62-2.75,11.17-5.64,16.54-8.85l-5.06-5.06c-2.49,5.39-5.68,10.4-9.23,15.14-.21.28-.42.55-.63.83-.14.18-.28.37-.42.55.04-.06.32-.41.05-.07-.55.7-1.1,1.39-1.65,2.08-1.03,1.26-2.07,2.51-3.13,3.74-2.28,2.64-4.64,5.22-7.05,7.75-9.81,10.27-20.44,19.75-31.23,28.99-5.28,4.52-10.62,8.98-15.93,13.48l5.53,5.53c16.58-14.6,33.42-28.06,52.48-39.39,5.36-3.19,10.83-6.14,16.45-8.85l-5.24-5.24c-.56.8-1.14,1.58-1.72,2.37-.3.4-.6.8-.9,1.2-.05.07-.44.58-.09.12-.19.25-.39.5-.59.75-1.3,1.65-2.63,3.27-3.98,4.87-2.9,3.42-5.93,6.73-9.05,9.96-6.34,6.57-12.96,12.87-19.91,18.79-1.81,1.54-3.64,3.06-5.5,4.55-.5.4-1,.8-1.5,1.19-.2.16-.4.31-.6.47-.07.05-.84.65-.48.38s-.25.19-.33.25c-.24.19-.49.37-.73.56-.48.36-.96.72-1.45,1.08l5.47,5.47c.49-.69.99-1.38,1.5-2.06.26-.35.53-.71.79-1.06.13-.18.27-.36.41-.54.06-.07.75-.96.21-.27,1.24-1.6,2.51-3.17,3.81-4.73,2.75-3.29,5.61-6.49,8.59-9.58s6.27-6.27,9.62-9.18c1.67-1.45,3.37-2.87,5.12-4.22-.51.4.53-.4.71-.53.4-.3.81-.6,1.22-.9.91-.66,1.82-1.29,2.76-1.92,1.83-1.22,3.72-2.37,5.66-3.41.95-.51,1.91-.99,2.88-1.44.2-.09.4-.18.6-.27.12-.05,1.14-.46.25-.11.5-.19.99-.39,1.49-.58l-3.89-6.69c-10.42,10.03-22.86,17.66-33.26,27.71-3.08,2.98-5.88,6.17-8.46,9.59-1.2,1.59-.39,4.06,1.03,5.16,1.69,1.31,3.67.95,5.25-.31,6.75-5.36,12.99-11.32,19.55-16.9,1.67-1.42,3.35-2.81,5.07-4.16.2-.16.4-.32.6-.47.07-.06.58-.45.12-.09.41-.31.81-.62,1.22-.93.92-.69,1.84-1.36,2.78-2.01,3.47-2.43,7.11-4.61,10.97-6.38.22-.1.45-.2.67-.3.05-.02,1.14-.47.41-.18.56-.23,1.13-.45,1.7-.66,1.02-.38,2.06-.72,3.1-1.03,1.16-.34,2.34-.63,3.52-.87.6-.12,1.19-.22,1.79-.32.15-.03.78-.12.03-.01.36-.05.73-.09,1.09-.13l-3.44-6c-.38.53-.77,1.05-1.16,1.57-.16.21-.32.42-.47.63-.76,1.01.24-.31-.22.28-.81,1.04-1.65,2.07-2.49,3.08-1.64,1.95-3.33,3.85-5.07,5.71-3.6,3.86-7.38,7.56-11.2,11.19-7.7,7.32-15.62,14.42-22.92,22.14-4.17,4.41-8.17,9.02-11.65,13.99-.96,1.37-.59,3.66.62,4.77,1.39,1.27,3.1,1.37,4.77.62,6.66-3,12.85-6.92,18.81-11.11,1.22-.86-.23.16.38-.25.15-.1.3-.2.45-.3.4-.27.8-.55,1.2-.82.85-.59,1.7-1.19,2.55-1.79,1.57-1.11,3.12-2.23,4.67-3.37,3.26-2.38,6.48-4.81,9.71-7.23,12.41-9.32,24.99-19.08,39.31-25.33.21-.09.42-.18.63-.27.33-.14-.28.11.28-.11.48-.19.95-.38,1.43-.57.89-.35,1.79-.68,2.7-.99,1.89-.65,3.8-1.21,5.74-1.68.95-.23,1.91-.44,2.88-.62.48-.09.96-.17,1.44-.25.16-.03.32-.05.48-.07,1.06-.17-.73.07.33-.05,1.92-.21,3.84-.34,5.78-.34l-2.54-6.14c-9.28,8.59-19.04,16.65-28.55,24.98-3.17,2.78.96,8.13,4.51,5.85,5.55-3.57,10.71-7.66,15.19-12.52l-5.91-4.56c-.84,1.66-1.79,3.24-2.85,4.76-.31.44-.63.87-.95,1.3-.08.11-.44.56,0,0-.14.17-.27.34-.41.51-.67.83-1.36,1.63-2.08,2.42-2.89,3.19-6.08,6.09-9.4,8.82-.82.67-1.65,1.34-2.48,1.99-.6.47-1.46,1.13-2.52,1.91-1.83,1.36-3.69,2.67-5.56,3.98-3.65,2.55-7.37,4.99-11.1,7.41s-7.59,4.88-11.33,7.41l3.98,6.81c19.29-13.11,38.31-26.99,59.32-37.26,5.87-2.87,11.22-5.16,17.46-7.25l-4.35-5.65c-.39.58-.79,1.15-1.2,1.71-.2.28-.41.56-.62.84-.04.06-.75.97-.25.33-.87,1.11-1.77,2.2-2.71,3.26-1.82,2.07-3.75,4.04-5.76,5.93-4.33,4.08-8.33,7.22-12.8,10.44-9.61,6.92-19.82,12.93-29.85,19.2-5.27,3.29-10.5,6.65-15.53,10.31-1.68,1.22-2.67,3.51-1.42,5.43s3.38,2.29,5.43,1.42c19.06-8.07,35.71-20.77,54.69-28.98.75-.32.35-.15.19-.08.38-.16.76-.32,1.15-.47.7-.28,1.41-.56,2.11-.83,1.35-.51,2.71-1,4.08-1.45,2.74-.91,5.52-1.68,8.34-2.3l-4.92-4.92c-.12.56-.33,1.09-.47,1.64-.17.66.38-.73-.02.06-.15.3-.29.6-.46.89-.29.52-.63,1.01-.96,1.51-.5.75.36-.4-.09.13-.23.28-.46.55-.7.82-.92,1.03-1.92,1.98-2.97,2.87-.27.23-.53.45-.8.67-.15.12-.92.73-.55.44s-.42.31-.58.43c-.34.25-.68.5-1.02.74-5.18,3.68-10.77,6.71-16,10.3-2.86,1.96-5.69,4.07-8.06,6.61-2.65,2.85-.07,7.89,3.91,6.72,10.95-3.22,21.59-8.51,29.79-16.57l-6.69-3.89c-.18.54-.36,1.07-.58,1.6-.16.4.2-.39-.12.25-.11.22-.22.45-.33.68-.51,1.01-1.08,1.99-1.7,2.93-.31.48-.64.94-.98,1.4-.14.19-.52.69-.18.26-.16.2-.32.4-.48.6-.77.95-1.58,1.86-2.41,2.76-3.18,3.42-6.7,6.51-9.99,9.82-2.81,2.83.03,7.74,3.89,6.69,6.21-1.69,11.46-5.47,16.41-9.44,2.4-1.92,4.73-3.92,7.13-5.85.3-.24.61-.49.91-.73.11-.08.97-.75.42-.33.61-.46,1.22-.92,1.84-1.36,1.21-.86,2.46-1.68,3.74-2.43l-5.41-5.41c-1.12,2.04-2.12,4.15-3.3,6.15-1.34,2.26-3.27,3.92-2.88,6.77.29,2.16,2.22,3.71,4.42,3.42,1.38-.18,2.41-1,3.11-2.17.26-.42.45-.89.66-1.33.14-.27.29-.54.42-.81.05-.1.14-.19.18-.3-.05.14-.75.79-1.05,1,1.68-1.17,2.62-3.49,1.41-5.37-1.08-1.67-3.57-2.66-5.37-1.41-1.03.72-1.71,1.63-2.28,2.73-.19.36-.35.73-.54,1.09-.37.71-.4.4.18-.08l1.73-1.01h-.03c1.27.34,2.55.68,3.82,1.02l-.02-.02,1.01,1.73c.07.94.11,1.19.13.76-.11.74-.13.88-.05.4l-1.01,1.73c2.56-3.21,4.31-6.74,6.29-10.31,1.9-3.43-1.93-7.43-5.41-5.41-5.35,3.1-9.98,7.27-14.78,11.14-.56.45-1.12.9-1.69,1.34-1.01.79.59-.44-.42.33-.31.23-.62.46-.93.69-1.18.87-2.38,1.7-3.61,2.47s-2.44,1.45-3.72,2.05c-.06.03-1.15.51-.37.18-.33.14-.67.27-1.01.39-.67.25-1.36.46-2.05.65l3.89,6.69c7.17-7.23,15.54-13.79,18.82-23.84,1.27-3.9-3.94-6.59-6.69-3.89-7.19,7.07-16.53,11.63-26.27,14.47l3.91,6.72c.96-1.03,1.99-1.98,3.07-2.87.27-.22.55-.43.81-.65.43-.37-.56.41-.1.08.12-.09.24-.18.36-.28.66-.5,1.34-.98,2.02-1.45,2.65-1.84,5.4-3.52,8.14-5.22,5.4-3.35,11.16-6.75,15.48-11.49,2.28-2.5,4.21-5.45,4.94-8.8.66-3.05-1.86-5.6-4.92-4.92-20.77,4.62-38.45,17.11-56.78,27.23-5.1,2.82-10.29,5.47-15.66,7.74l4.01,6.86c19.18-13.95,41.03-24.14,58.59-40.32,4.78-4.4,9.13-9.28,12.76-14.69,1.84-2.74-1.23-6.71-4.35-5.65-22.6,7.67-42.84,20.49-62.41,33.9-5.44,3.73-10.86,7.5-16.3,11.23-1.7,1.16-2.63,3.52-1.41,5.4,1.09,1.69,3.57,2.66,5.4,1.41,14.7-10.02,30.77-18.88,42.97-32.07,3.18-3.44,6.18-7.24,8.23-11.48.81-1.68.6-3.68-.97-4.85-1.44-1.07-3.65-1.11-4.94.29-4.24,4.64-8.5,8.09-13.62,11.41l4.51,5.85c9.48-8.37,19.17-16.49,28.36-25.16,2.27-2.15.52-6.16-2.54-6.14-15.13.14-29.21,7.22-41.68,15.19-13.57,8.67-25.97,18.99-39.21,28.15-3.5,2.42-7.13,4.68-10.84,6.78-1.72.97-3.46,1.91-5.23,2.79-.88.44-1.78.87-2.68,1.28-.44.2-.89.4-1.33.6-.2.09-.39.17-.59.26.63-.27.06-.03-.24.1l4.45,5.78c-.07.09.72-.95.42-.55s.5-.64.43-.54c.29-.37.58-.75.87-1.12-.37.48.15-.19.24-.3.83-1.06,1.68-2.1,2.55-3.12,1.67-1.97,3.39-3.9,5.15-5.78,3.64-3.89,7.45-7.61,11.31-11.28,7.67-7.29,15.57-14.35,22.85-22.05,4.11-4.35,8.01-8.91,11.48-13.78,1.66-2.33-.53-6.34-3.44-6-18.78,2.16-33.43,15.28-47.07,27.25-3.68,3.24-7.37,6.47-11.21,9.52l6.28,4.85c.41-.55-.08.08.34-.45.29-.36.58-.73.87-1.08.55-.67,1.11-1.32,1.68-1.97,1.2-1.35,2.44-2.65,3.73-3.91,2.5-2.46,5.14-4.78,7.84-7.01,5.52-4.57,11.3-8.81,16.88-13.31,3.14-2.53,6.21-5.15,9.12-7.95,1.23-1.18,1.57-3.39.63-4.85s-2.82-2.47-4.52-1.84c-8.33,3.09-15.66,8.23-22.43,13.91s-13.31,12.37-19.16,19.29c-3.08,3.64-6.03,7.39-8.8,11.27-.98,1.38-.59,3.73.63,4.85s3.4,1.7,4.85.63c14.69-10.9,28.32-23.53,40.12-37.52,3.27-3.87,6.4-7.87,9.28-12.04.96-1.38.54-3.51-.6-4.64-1.26-1.26-3.11-1.36-4.64-.6-20.15,10-38.67,22.76-56.08,36.96-4.92,4.02-9.74,8.16-14.51,12.37-1.58,1.4-1.43,4.1,0,5.53,1.59,1.59,3.91,1.37,5.53,0,10.03-8.53,20.15-16.96,29.87-25.84,10.57-9.65,20.78-19.79,29.53-31.14,2.16-2.8,4.22-5.68,6.09-8.68.89-1.42,1.73-2.86,2.52-4.34.36-.66.7-1.33,1.03-2.01.17-.35.35-.71.51-1.06.06-.13.12-.26.18-.4.41-.95.51-1.18.3-.72-.12.26-.11.23.03-.09.65-1.54.69-3.21-.58-4.48-1.13-1.13-3.11-1.46-4.48-.58-19.08,12.24-40.59,20.16-59.38,32.9-5.31,3.6-10.37,7.58-14.99,12.03-2.4,2.31,1.2,5.86,3.64,3.64h0Z"/>
  <path class="cls-2" d="M535.32,244.5c-.02-1.5-1-3.26-2.75-3.03-.96.12-1.79.65-1.91,1.69s.46,1.8,1.39,2.14c.46.16-.3-.21.11.05.11.07.23.13.35.2.14.08.84.59.47.28.47.4.9.85,1.3,1.32-.31-.37.1.14.13.18.1.14.2.29.29.43.22.34.42.68.62,1.03.4.72.76,1.48,1.09,2.23.02.06.23.54.1.22.08.19.16.39.24.59.17.44.34.89.49,1.33.31.88.59,1.77.84,2.66s.5,1.81.71,2.73c.25,1.09.3,2.19.84,3.19s1.84,1.48,2.91,1.18c1.14-.31,1.81-1.34,1.89-2.48s-.48-2.4-.78-3.51c-.27-.99-.57-1.98-.89-2.96-.67-2.03-1.45-4.04-2.43-5.95-1.55-3.04-4.1-6.34-7.77-6.55l.98,3.63c.45-.2-.12.04-.18.03l-.84-.23c-.28-.16-.32-.45-.22.01.38,1.7,3.03,1.31,3.02-.41h0Z"/>
  <path class="cls-2" d="M546.83,260.01c.75-.51,1.58-.89,2.36-1.35,1.16-.67,2.36-1.27,3.58-1.82.45-.2-.1.04.04-.02.16-.06.31-.13.47-.19.36-.14.73-.27,1.1-.4.63-.21,1.27-.39,1.93-.53.17-.03.35-.05.52-.09.16-.04-.58.05-.08.01.3-.02.59-.04.89-.04.13,0,.26.02.39.02.41,0-.55-.14-.17-.02.12.04.27.08.4.1.46.08-.38-.24-.12-.07.09.06.19.12.29.16.3.14-.36-.39-.16-.12.03.04.18.23.23.24-.08-.02-.31-.54-.19-.23.02.06.08.15.12.21.21.29-.14-.51-.06-.14.03.13.07.26.11.39.14.55-.06-.09,0-.1,0,0,.01.41.02.44.02.45-.22.16.04-.15-.04.05-.06.25-.08.32-.1.46-.03-.17.1-.21-.02,0-.17.29-.18.32-.02.09.44-.45.14-.18-.08.07-.16.15-.23.23-.31.36.46-.28.13-.09-.12.07-.22.15-.34.22-.1.06-.21.11-.32.17-.09.05-.51.24-.09.05s-.01,0-.12.03c-.17.06-.34.11-.51.16-.58.17-1.17.29-1.76.38-.04,0-.44.09-.45.07,0,0,.69-.08.22-.03-.08,0-.16.02-.23.03-.34.04-.68.07-1.03.1-.7.06-1.39.1-2.09.14-1.41.08-2.84.11-4.24.28-1.57.19-3.23.41-4.43,1.55-.81.77-.95,2.1-.39,3.05s1.81,1.54,2.84,1.16c.39-.15.8-.29,1.21-.38.26-.06.52-.1.78-.15.41-.08-.73.08-.14.02.15-.02.31-.03.46-.05,1.43-.16,2.87-.22,4.31-.32,2.9-.2,6.42-.34,8.88-2.08,1.48-1.05,2.42-2.5,2.55-4.34.12-1.65-.47-3.5-1.7-4.65-2.54-2.36-6.44-1.51-9.34-.4s-6.01,2.57-8.32,4.76c-1.81,1.72.58,4.97,2.71,3.52h0Z"/>
  <path class="cls-2" d="M543.53,265.68c1.45,0,1.45-2.25,0-2.25s-1.45,2.25,0,2.25h0Z"/>
  <path class="cls-2" d="M541.98,263.05c-1.01,7.11-1.25,15.13,4.08,20.68,2.24,2.34,6.46-.75,4.57-3.53-1.22-1.8-1.37-3.34-1-5.27.21-1.06.46-2.1.63-3.16.21-1.3.2-2.57.22-3.88l-3.39,2.59h.03c-.66-.85-1.31-1.71-1.97-2.57v.05c.11-.45.24-.9.36-1.35-.09.18-.21.34-.32.5-.18.23-.17.23.02-.03-.09.11-.17.22-.26.32-.41.49-.94.99-1.03,1.64l1.24-1.61h-.02c1.09.15,2.17.29,3.26.43.11.09.57,1.14.49.77-.05-.2-.13-.4-.18-.59-.05-.19-.08-.37-.13-.56-.04-.22-.03-.12.04.29,0-.51-.11-.2-.31.93l-.97.97.05-.04-1.36.37c-1.58.03-1.54-.89-.99.13.11.21.2.41.27.65.19.65.28,1.25.35,1.9.2,1.78.39,3.51,1.09,5.17,1.25,2.97,3.98,4.91,5.5,7.69l1.65-4.06c-.38.08-.45.1-.22.05-.35-.01-.37,0-.05.04-.27-.09-.31-.09-.12,0,.18.09.16.07-.08-.06-.43-.21.22.27-.25-.19-.2-.19-.39-.38-.59-.57-1.1-1.05-2.3-1.92-3.83-2.23-1.83-.37-4.3,1.29-3.42,3.42,1.32,3.22,2.72,7.54,6.27,8.85,2.48.91,4.76-2.87,2.65-4.55-1.75-1.39-2.66-3.64-3.55-5.78l-3.42,3.42c.19.03.37.07.56.13-.25-.12-.23-.11.06.03.14.08.28.17.42.27-.24-.19-.24-.18,0,.03.46.42.9.86,1.38,1.26,1.68,1.36,3.57,1.7,5.68,1.2,1.78-.42,2.48-2.55,1.65-4.06-1.33-2.41-3.56-4.14-4.96-6.47-1.3-2.17-.79-4.94-1.63-7.27-.52-1.46-1.41-3.08-2.76-3.92s-3.23-.5-4.06.96c-.78,1.38-.32,4.55.99,5.62.84.69,2.26,1.18,3.26.42.54-.41,1.16-.95,1.26-1.68l-.69,1.19c.99-1.07,1.91-2.24,2.1-3.71.16-1.25-.96-2.18-1.97-2.59h-.03c-1.67-.68-3.37.99-3.39,2.57-.02,1.15-.47,2.33-.74,3.45-.32,1.29-.56,2.59-.72,3.9-.34,2.8.26,5.6,1.94,7.9l4.57-3.53c-2.4-2.33-3.14-5.32-3.3-8.41-.15-2.84.36-6.09-1.18-8.64-.82-1.35-3.46-1.34-3.72.49h0Z"/>
  <path class="cls-2" d="M550.53,291.55c.99,2.26,1.53,4.83,2.25,7.2s1.57,4.9,2.13,7.39c1.11,4.94,3.78,9.99,7.87,13.06,2.62,1.96,6.05,3.37,9.33,3.57s3.72-4.65.74-5.48c-2.74-.77-4.51-1.08-6.8-2.61-.11-.07-.22-.16-.33-.24.04.03.28.23.04.03-.21-.17-.41-.34-.61-.51-.43-.37-.85-.76-1.24-1.17-.91-.95-1.11-1.24-1.82-2.35-2.56-4-3.84-8.24-5.38-12.77-.93-2.73-2.17-5.13-3.65-7.6-.99-1.66-3.26-.21-2.52,1.48h0Z"/>
  <path class="cls-2" d="M549.96,289.7c.26.75.47,1.52.63,2.3.03.16.06.32.1.47.17.72-.01-.26.03.16s.05.81.05,1.22c-.02,1.23-.22,2.44-.25,3.67-.07,3.39,1.96,6.44,5.04,7.86,2.44,1.12,5.24,1.39,7.89,1.51,2.5.11,5.12.06,7.56-.55,1.52-.38,2.97-1.21,3.42-2.82.34-1.24-.1-2.64-1.24-3.31-.23-.14-.48-.24-.74-.31l-.66-.09c.57.08.75.1.53.07-.13-.13-.54-.09-.78-.1-1.1-.05-2.37,1.06-2.22,2.22,0,.08.01.16,0,.24l.33-1.23c.1-.14,1.48-1.58.29-.39-.16.16-.32.41-.45.58.25-.34.45-.61.83-.84-.23.14.82-.27.4-.18-.12.02-.26.09-.38.13-.28.1-.56.2-.85.27-.16.04-.33.07-.49.1-.15.03-.94.14-.39.07.58-.08-.27.03-.38.04-.22.02-.43.04-.65.06-.56.05-1.13.08-1.69.1-1.09.04-2.19.03-3.28-.03-.55-.03-1.11-.07-1.66-.13-.1-.01-.2-.03-.3-.03-.41-.02.59.1.2.03-.28-.05-.56-.09-.84-.14-.43-.08-.85-.17-1.27-.29-.17-.05-.35-.11-.52-.16-.7-.21.47.3,0,0-.56-.35-1.13-.68-1.68-1.03-.47-.29-.11-.09-.02-.01-.11-.1-.22-.22-.33-.32-.1-.09-.3-.41.02.06-.1-.14-.18-.28-.27-.43-.32-.51,0,.25-.08-.15-.04-.24-.12-.49-.18-.73-.05-.18.02-.42.01.13,0-.13-.03-.26-.03-.38,0-.26-.02-.52-.02-.78.05-3.26.09-6.28-2.28-8.83-1.35-1.46-4.05.05-3.4,1.98h0Z"/>
  <path class="cls-2" d="M547.23,269.53c2.09.08,4.18.05,6.28.11.88.02,1.75.08,2.62.17.25.03.24.03-.02,0,.12.02.23.03.35.05.23.04.45.08.68.13.38.08.76.18,1.13.29.21.06.41.14.61.21.12.04.56.25.09.03.38.18.73.38,1.08.63-.28-.21-.12-.1.05.06.15.14.3.29.45.44.09.09.51.66.17.17.09.14.19.27.28.41.12.19.24.39.34.59.05.1.36.82.14.26.17.43.31.86.43,1.3.13.5.22,1,.31,1.51.04.3.05.31.01.04.02.16.04.33.05.49.03.35.06.69.08,1.04.09,1.56,1.34,2.77,2.95,2.56s2.38-1.7,2.16-3.25c-.5-3.59-1.94-7.22-5.15-9.21-2.74-1.7-5.94-2.02-9.1-2.04-2.01,0-3.98.14-5.98.25-2.42.14-2.44,3.69,0,3.77h0Z"/>
  <path class="cls-2" d="M554.16,258.45c.42-.08.84-.2,1.27-.26l-.66.09c.2-.03.4-.03.6-.01l-.66-.09c.17.02.32.07.48.13l-.6-.25c.11.05.21.1.31.16l-1.15-2.83c-.03.08-.06.16-.09.23l.25-.6c-.09.21-.2.4-.33.59l.4-.51c-.11.15-.24.28-.39.39l.51-.4c-.13.1-.26.17-.41.24l.61-.26c-.16.07-.33.11-.5.13l.68-.09c-.23.03-.47.03-.7,0l.69.09c-.3-.04-.58-.13-.85-.24l.62.26c-.37-.16-.72-.37-1.04-.61v4.47c.06-.03.12-.07.19-.09l-.62.26c.58-.24,1.16-.47,1.73-.72l-.64.27c.28-.12.59-.21.85-.36s.52-.37.72-.6c.12-.14.26-.28.39-.42.58-.58.81-1.45.59-2.23-.2-.72-.84-1.46-1.6-1.6-.39-.07-.78-.12-1.17-.16-.06,0-.12-.01-.18-.02-.13-.01-.26,0-.39.05-.14.01-.29.03-.43.06-.3.09-.6.25-.88.39-.41.2-.77.48-1.17.7-.79.43-1.28,1.35-1.28,2.24,0,.47.12.9.35,1.31.23.39.54.7.93.93.6.43,1.29.76,1.99.97.86.26,1.72.26,2.6.1.4-.07.79-.26,1.15-.44s.69-.45.98-.73c.63-.62,1.05-1.43,1.29-2.26l.09-.67c.01-.35-.06-.67-.22-.97-.2-.49-.55-.94-1.03-1.2-.38-.21-.8-.4-1.22-.48-.6-.11-1.01-.13-1.59-.05s-1.17.26-1.76.4-1.15.6-1.45,1.12-.43,1.29-.24,1.87.55,1.15,1.12,1.45l.58.24c.43.12.86.12,1.29,0h0Z"/>
</svg>