<?xml version="1.0" encoding="UTF-8"?>
<svg id="_レイヤー_1" data-name="レイヤー 1" xmlns="http://www.w3.org/2000/svg" viewBox="0 0 841.89 595.28">
  <defs>
    <style>
      .cls-1 {
        stroke: #000;
        stroke-miterlimit: 10;
        stroke-width: .47px;
      }
    </style>
  </defs>
  <g>
    <path class="cls-1" d="M390.26,308.66c.63-1.31-4.73-7.16-5.92-7.7-1.34-.61-2.84-.54-4.28-.45-1.08.07-3.31-.16-4.03.33-.85.57-1.82,2.53-2.48,3.39-.74.97-1.56,1.99-1.87,3.2-.5,1.94.13,5.02-.6,6.2-.09.14-.23.25-.4.36-.09-.05-.92-1.19-1-1.25-.94-.72-4.56-7.3-4.56-8.4,0-1.03,2.08-5.47,2.5-7.34,1.39-6.07,3.71-14.88,1.96-20.67-1.31-4.33-11.02-16.77-14.71-19.89-2.9-2.45-6.48-4.57-9.95-6.11-1.67-.74-7.48-2.21-8.09-2.72-.54-.44-.73-2.03-1.21-2.78-2.69-4.18-1.13-4.56-2.45-8.06-.29-.77-1.46-.71-1.78-1.92-.22-.83-.73-6-.64-6.59.13-.84,1.65-1.09,1.6-2.98-.07-2.73-2.64-4.07-3.36-5.98-.45-1.2-.19-2.47-.67-3.66-.56-1.38-1.93-2.61-2.91-3.69-1.86-2.06-3.81-4.04-5.76-6.01-2.13-2.15-4.28-4.27-6.45-6.37-1.16-1.13-2.11-2.47-3.39-3.49-1.77-1.4-3-1.04-5.1-.56-.76.18-1.52.31-2.25.58-.34.16-.67.33-.97.54-.02.02-.04.04,0,.12-.08.03-.14.07-.22.1-.35.31-.68.63-.98,1-.85,1.04-1.72,2.51-2.02,3.83-.32,1.41.28,1.92,1.13,3.01,1.41,1.78,2.82,3.55,4.22,5.33,3.24,4.09,6.47,8.17,9.71,12.26.27.34,1.33,2.17,1.78,2.25,3.67.58,3.81,1.99,5.79,4.09,2.31,2.46,3.55,1.51,2.84,6.5-.19,1.36-1.25,8.37-1.43,8.78-.08.18-.98.21-1.26.9-.34.82-.33,2.78-.47,2.92-.12.12-2.28.13-3.07.32-9.55,2.34-17.74,6.6-24.03,14.27-2.34,2.86-3.74,6.82-5.55,9.11-.76.96-2.35,1.31-3.36,2.37-2.72,2.85-3.74,8.15-3.45,11.99.17,2.22,2.23,6.35,2.18,7.16-.04.68-3.39,10.72-3.85,11.53-1.02,1.82-2.85,1.1-3.29,4.79-.37,3.12.61,4.07,1.1,5.91-.05.03-.09.05-.14.07-.04.83-.08,1.62-.1,2.36-.13,4.49-1.29,9.13.03,13.62.82,2.79,4.49,8.31,7.74,8.29.3,0,5.28-1.46,5.71-1.66,3.43-1.55-.52-5.18-1.08-7.57,2.32-.24.11,2,2.92,2.33,4.46.53,3.24-5.83,2.17-8.36-.15-.35-3-3.9-3.41-4.31-.62-.6-2-.56-2.22-.87-.38-.54.12-2.34-.11-3.28-.07-.27-.93-2.02-1.02-2.34.33-.48.65-1.03.75-1.73.35-2.49-1.28-3.64-1.21-5.45.03-.82,1.82-6.59,2.45-5.93.58,4,3.61,8.35,6.2,11.42,1.01,1.19,4.63,3.89,4.78,4.16.62,1.07-.37,6.46-.95,7.75-.9,1.97-2.91,2.38-3.2,5.5-.1,1.11.42,2.46.67,3.53.11.48.6,1.2.4,1.74-.27.73-1.24.63-1.74,1.14-.82.84-1.3,2.36-1.76,3.42-1.14,2.64-2.12,5.39-2.93,8.15l-13.83.69-5.87,1.22c5.44.33,10.91.39,16.35.63,29.75,1.34,61.01-.22,90.77-2.47,1.94-.15,3.92.09,5.86-.01-.32-.82-3.24-1.07-4.09-1.15-1.36-.14-5.11.2-5.69-.18-.16-.1-.97-2.31-1.92-3.33-.99-1.06-8.49-7.65-9.32-7.98-.71-.28-1.81.17-1.9-.72-.1-1.05,1.09-2.28,1.06-3.48-.12-4.41-2.79-4.21-4.64-6.54-1.46-1.84-1.86-5.06-3.25-7.09l6-5.25c2,3.15.76,6.5,2.57,9.49,1.56,2.57,5.66,3.2,8.22,1.89.92-.35,1.77-.5,2.31-.25.9.41,1.13,1.85,2.81,2.17,4.26.82,10.87-1.15,12.33-5.91,1.12-3.65-7.45-2.58-8.95-1.77-2.73-2.69-.92-5.68.63-8.38,2.85,2.1,7.14,3.25,9.59-.02ZM365.06,299.69c-2.41-.86-3.98-3.1-2.32-5.42.26-.36,2.91-1.19,3.56-2,.47,2.69-.99,4.85-1.23,7.42ZM362.76,290.88c-13.87,2.51-17.55-23.82-4.9-23.73,11.51.08,15.21,21.87,4.9,23.73ZM302.71,325.66c4.84-.62,4.19,4.68,3,7.94l-3.62.08c1.84-2.2,1.61-5.45.62-8.02ZM306.06,321.26l-3.97-.55,1.28-6.13,4.23.63c-.01,1.28-.38,5.77-1.54,6.06ZM303.33,313.91c.46-4.72,5.45-3.84,4.93.62-1.68-.77-3.15-1.67-4.93-.62ZM307.67,304.3c-1.58-.41-2.98-.2-4.56-.38l-2.87-4.84,14.2-2.48c-.97,4.61,1.77,6.66,4.32,9.89-1.89-.5-5.02,1.22-6.51,1-.68-.1-2.69-2.69-4.58-3.18ZM311.35,264.45c1.58-.02,3.66-.13,5.09-.78,3.37-1.53,3.21-2.52,8.19-2.92,10.85-.87,24.51-.38,34.27,4.63-7.29.27-12.12,4.7-12.65,12.04l-4-.63c-2.09-18.33-27.75-19.12-29.08-.01l-2.43.04c-.91-4.38,1.57-8.25.61-12.36ZM332.23,289.37c-18.37,4.6-22.9-28.44-1.58-24.77,11.49,1.98,14.62,21.5,1.58,24.77ZM309.53,269.74c-.29,2.52.2,5.12-.1,7.63l-7.16,1.83c-1.92.13-1.8-4.69-3.27-5.79l-4.32-3.39c4.3-1.02,9.79-4.35,14.04-4.85,3.73-.43.96,3.16.8,4.57ZM298.39,276.81l-5.43-.12-1.98-3.57c3.85-.2,6.32-.46,7.41,3.7ZM298.98,277.46c.15,1.78,1.57,7.96.07,8.97l-4.98.89-.62-9.89,5.52.03ZM301.32,286.85c.32-2.1.04-4.18.22-6.27l8.58-1.92c.18,3.14.11,8.39,1.6,11.08.95,1.74,3.14,2.37,2.04,5.55l-14.15,2.28c-2.34-3.36,1.1-6.75,1.71-10.72ZM341.94,307.08c1.47.08,12.01,1.2,12,2.19-2.98,2.28-5.68,5.45-9.26,6.79-4.6,1.73-14.32,1.5-19.36.86-3.68-.47-7.24-1.54-10.8-2.47-.03-2.36-.48-4.22-1.93-6.1,9.67-1.06,19.58-1.82,29.35-1.27ZM320.42,306.53c-.64-1.87-3.87-3.72-4.43-5-.66-1.51.03-3.4-.93-4.93,2.82-1.48,46.58-.65,45.68,2.15l-6,8.88c-11.29-1.68-22.97-2.65-34.32-1.1ZM315.06,295.36c1.17-3.73-2.24-5.3-2.95-7.87-.71-2.57-.2-6.23-1.37-8.82l3.06.02c2.07,17.9,27.01,18.21,28.43-.02,5.43-1.12,4.61,3.31,6.44,6.83,2.33,4.47,7.47,8.69,12.69,8.62v3.09c-15.19-3.22-30.89-2.94-46.31-1.85ZM358.89,263.83l-8-2.8-5.59-8.31c2.26-.39,14.77,10.13,13.58,11.12ZM342.54,251.46c1.88,1.22,6.43,6.86,7.09,8.98l-17.29-1.23c-2.04-3.88-3.86-7.44-7.4-10.21h9.57c.95,0,7.05,1.83,8.03,2.47ZM333.89,245.29l.92.94v.92s-9.87,0-9.87,0v-1.85h8.95ZM331.61,238.61l.74,4.82h-6.79s.07-4.87.07-4.87c2.09-.68,3.93-.83,5.98.05ZM328.33,227.98c1.38.43.89,5.89,1.54,7.41-.77-.64-2.57-.4-2.97-.73-.71-.58-1.84-7.71,1.42-6.68ZM329.26,222.41c-4.32.84-5.29-1.21-7.41-4.32,3.62.25,5.89.79,7.41,4.32ZM309.84,198.89l15.71,16.1-6.79-.31-14.2-16.37c1.77.1,3.77-.48,5.28.58ZM314.75,221.78l-14.44-18.35,2.42-4.51,1.27.39,13.86,15.71-3.11,6.76ZM317.79,221.78c-.44.82.19,1.59-1.5,1.25-.08-1.33.46-2.51.93-3.7.31-.78,1.29-2.81,2.15-3.09.83,1.82-.65,3.81-1.58,5.54ZM320.62,219.32c1.08-.81,2.77,2.97,3.68,3.4l-2.46,3.4c-3.5-1.84-2.42-3.77-1.21-6.8ZM321.85,227.35c.69-3.16,6.43-6,8.64-3.69,1.52,1.58-3.4.69-4.33.9-2.35.53-2.34,2.42-4.31,2.8ZM323.69,249.3c1.52.7,8.21,8.79,7.42,10.2l-7.92-.1-2.3-4.81-4.59-4.36c2.15-.26,5.39-1.86,7.39-.94ZM314.61,250.97c3.22.42,7.41,5.81,7.25,9.15-4.09-.2-6.73,3.34-11.06,3.68-1.26-4.02-5.22-6.45-9.32-6.16,1.91-2.44,10.24-7.05,13.13-6.68ZM305.21,259.16c1.26.39,6.01,4.34,3.23,5.16-6.4,1.18-12.29,4.1-18.08,6.93,2.76-5.87,7.05-14.5,14.85-12.09ZM287.45,275.67c4.18,1.13,4.65,17.04-1.7,16.63-4.22-.66-4.1-18.2,1.7-16.63ZM278.63,307.71c.36-1.32,1.91-1.43,3.03-1.17.83,2.1,1.12,4.56-.1,6.59l-3.17.81-.24-1.18.79-.1c2.89-.84,2.5-4.59-.32-4.95ZM282.96,306.49c3.57-.06,3.55,4.5,2.08,6.83l-2.7-.04c1.79-2.35,1.1-4.17.62-6.79ZM285.84,314.41c.13.02.26.03.39.05-.05.13-.2.07-.39-.05ZM286.96,314.8v3.1s-8.03,1.23-8.03,1.23c-.92-5.37,4.31-4.3,8.03-4.33ZM278.31,330.87l.29-8.66,6.49-2.46,1.24,9.27-8.02,1.85ZM288.81,320.37l4.93,4.94c-3.79,1.68-5.47-1.35-4.93-4.94ZM287.58,321.25c.64,2.56.73,5.14.6,7.77-2.07-1.84-1.38-6.6-1.84-9.27,1.86-.3.98.47,1.24,1.5ZM282.33,304.63l3.1-8.65,2.93,1.52c-1.88,2.98-1.33,9.54-6.03,7.13ZM288.2,294.12l3.13-6.76c.67-3.27.48-8.68-1.66-11.39-1.1-1.4-2.45-1.04-3-2.24,8.75-.69,8.04,17.82,1.54,20.39ZM293.45,287.94l5.56.3-1.51,1.6-4.05-.05v-1.85ZM300.23,307.72l-2.98-3.5-1.32-3.89,3.62-.57,2.37,4.57-1.69,3.39ZM300.78,327.88l-1.77-.38c.31-3.09,3.08-2.1,3.59.46.39,2.01-.39,4.53-2.11,5.69l-2.09-1.52,2.47-.3-.08-3.95ZM297.13,337.28c1.81-1.5,8.21-.2,10.79-.62l.62,6.18h-14.2c.69-1.46,1.59-4.57,2.79-5.56ZM309.17,348.4h-16.67l.62-2.47h16.05v2.47ZM341.9,344.39s-29.53.84-29.56.84c-1.28.04-1.64-6.04-1.81-6.86-.19-.95-.56-1.89-1.28-2.57-.39-.37-1.21-.38-1.53-.84-.59-.85.43-1.25.82-1.93,2.6-4.58-2.3-7.41-.25-12.32,10.29,4.48,21.78,4.78,32.61,2.05,2.71-.68,4.92-1.98,7.55-2.41.22.18,2.32,4.85,2.36,5.15.15,1.1-1.09,2.33-1.21,4.15-.06.92.1,1.83.34,2.72.12.46.84,1.68,0,1.87-1.17.27-2.27-.42-3.36.54-.82.72-1.25,2.23-1.64,3.2-.69,1.71-1.32,5.38-3.02,6.42ZM360.31,346.45l-17.19-.53,4.42-9.78c2.07-.11,4.59-.57,6.42.48.44.25,6.59,6.42,6.78,6.86.49,1.11.02,2.01-.43,2.97ZM351.49,328.74c-.16-2.48,3.14-2.4,4.01-.62,1.41,2.9-.17,6.2-1.86,6.2-.02,0-.04,0-.06,0-.77-.03-1.55-.75-2.09-2.49,3.79,3.33,4.39-5.06,0-3.09ZM372.76,346.54h-11.11v-1.85h11.11v1.85ZM363.19,336.01l7.1,6.2h-9.57l-5.87-6.18c2.25.41,6.4-1.28,8.34-.03ZM355.81,334c2.63-2.39.84-5.8-.62-8.34,5.1-.76,6.33,9.76.62,8.34ZM356.42,324.41c-4.11.6-5.74-2.51-2.16-4.94l2.16,4.94ZM346.58,317.34c-.63.12-2.02.81-1.88-.34,1.7-.56,3.46-1.76,4.88-2.84,1.19-.91,4.93-4.61,5.6-4.92.8-.36,2.1,1.1,3.1.96-2.68,3.88-7.12,6.26-11.7,7.14ZM359.51,309.31l-3.7-.98,5.56-9.88c6.32,1.96-.17,7.37-1.86,10.86ZM365.06,307.73l1.86,4.32-2.38.57c-.93-1.72-2.74-4.57.52-4.89ZM364.46,319.47l2.79.64c1.02-1.86-.2-4.74-2.48-4.38-.63.1.11,1.55-.93,1.27.36-4.87,4.63-2.2,4.92,1.63.3,4.03-3.85,4.44-4.3.85ZM388.06,307.43c-3.93.8-5.36-3.1-7.41-5.55,3.9-.16,5.44,2.83,7.41,5.55ZM371.69,320.42c-1.28.25-1.96-1.54-1.96-3.11.01,0,.05-.01.05-.02-.02-.12-.04-.25-.04-.37.04-.58.18-1.11.43-1.44,3.16-1.11,3.06,4.64,1.52,4.94ZM372.63,308.68c3.1.18,1.71,4.28,1.22,6.18-1.86,1.79-1.13-5.69-1.22-6.18ZM383.12,317.96c-2.94,6.25-9.59,6.84-9.25-1.24,1.08.21,1.04,1.79,2.11,2.52,2.62,1.78,4.4-1.5,7.14-1.28ZM377.91,304.97l-2.21,4.32-2.36-2.16c3.82-7.52,6.73-4.45,11,.61-1.12,1.46-.92.61-1.89.06-.93-.53-3.94-2.96-4.54-2.83Z"/>
    <path class="cls-1" d="M362.87,289.14c.84-.14,1.98-.82,2.6-1.41,5.3-5.06.88-19.25-7.51-19-10.93.32-7.12,22.46,4.91,20.41ZM364.45,274.34c2.12,3.49,3.34,6.93,1.36,10.95-2.42,4.91-8.16,3.36-10.89-.48-6.69-9.39,2.08-22.72,9.53-10.47Z"/>
    <path class="cls-1" d="M360.18,275.8l-1.27.39c-.02-1.14-2.84-4.89-4.03-3.09-1.61,2.23,2.51,4.45,2.58,5.89l-2.18,3.81c-.12,1.27,1.85,2.66,3.02,1.78l1.52-2.81c4.36,6.9,7.8,2.75,2.25-2.26l2.38-5.17-2.07-1.18-2.2,2.64Z"/>
    <path class="cls-1" d="M329.57,274.33c-1.88-1.58-3.02-4.23-5.86-3.7-.66,3.06,1.37,3.97,3.04,5.95.23,1.33-4.24,3.36-2.48,5.51,2,2.45,3.8-.89,5.31-2.18l4.64,3.42,1.16-1.39-2.93-5.35c5.4-5.03.82-8.63-2.87-2.26Z"/>
    <path class="cls-1" d="M329.4,265.84c-14.97-1.84-14.43,20.69-1.7,22.11,15.28,1.71,15.03-20.47,1.7-22.11ZM327.14,286.66c-10.46-1.65-11.5-21.92,2.9-19.59,11.13,1.8,11.81,21.92-2.9,19.59Z"/>
    <path class="cls-1" d="M286.35,289.82c3.9-.02,4.24-9.92,1.14-11.7-5.17-1.65-5.21,11.72-1.14,11.7Z"/>
  </g>
  <g>
    <g>
      <path d="M272.64,373.56v-9.44h13.67v9.44h-13.67Z"/>
      <path d="M304.61,382.02h-3.35c-8.86,0-11.94-4.6-11.94-10.72v-16.88h10.05v16c0,1.69.88,2.5,2.33,2.5h2.4c1.62,0,2.47-.91,2.47-2.5v-16h10.08v16.88c0,6.12-3.15,10.72-12.04,10.72Z"/>
      <path d="M341.95,382.32c-4.36,0-6.66-2.98-8.12-6.87l-3.25-8.69c-.07-.3-.17-.41-.27-.41-.14,0-.2.14-.2.44v15.22h-9.34v-19.42c0-5.55,3.28-8.36,7.85-8.36,4.87,0,6.73,2.98,7.68,5.72l3.38,9.78c.07.37.14.47.34.47.14,0,.27-.1.27-.47v-15.26h9.37v19.32c0,5.92-2.94,8.53-7.71,8.53Z"/>
      <path d="M381.63,382.02v-5.01c0-1.39-.61-2-2.03-2h-3.89v7h-10.32v-27.6h17.12c5.85,0,9.34,2.17,9.34,9.78v1.62c0,2.2-.64,3.92-1.83,5.21,1.39,1.05,1.89,2.71,1.89,5.07v5.92h-10.28ZM381.8,365.31c0-1.32-.54-1.79-2.03-1.79h-4.06v3.65h4.06c1.52,0,2.03-.71,2.03-1.56v-.3Z"/>
      <path d="M411.63,382.15h-3.55c-9.74,0-12.01-2.57-12.01-11.87v-4.16c0-9.27,2.27-11.87,12.01-11.87h3.55c9.03,0,12.14,2.6,12.14,11.87v4.16c0,9.3-2.44,11.87-12.14,11.87ZM413.69,366.29c0-1.93-.71-3.18-3.18-3.18h-1.32c-2,0-3.18.78-3.18,3.18v3.65c0,2.37.71,3.21,3.18,3.21h1.32c2.47,0,3.18-1.32,3.18-3.21v-3.65Z"/>
      <path d="M442.14,382.49h-1.59c-9.74,0-13.26-3.01-13.26-12.28v-3.82c0-8.96,3.18-12.48,13.13-12.48h1.56c9.03,0,12.79,3.65,12.79,10.28v1.35h-9.71v-.37c0-1.42-.95-2.13-3.08-2.13h-1.08c-2.67,0-3.48,1.15-3.48,3.35v3.82c0,2.44,1.46,3.21,3.62,3.21h1.12c2.33,0,3.08-1.12,3.08-2.4v-.74h9.61v1.42c0,7.54-3.72,10.79-12.69,10.79Z"/>
      <path d="M475.39,382.02v-10.12h-6.36v10.12h-10.15v-27.6h10.15v8.42h6.36v-8.42h10.18v27.6h-10.18Z"/>
      <path d="M500.25,382.02c-8.05,0-10.39-4.26-10.39-10.49v-5.24c0-7,1.49-11.87,10.49-11.87h15.9v8.73h-14.11c-1.29,0-1.93.44-2.13,1.86h15.02v6.5h-15.05c0,1.25.27,1.86,2.17,1.86h14.11v8.66h-16Z"/>
      <path d="M536.84,382.02v-5.01c0-1.39-.61-2-2.03-2h-3.89v7h-10.32v-27.6h17.12c5.85,0,9.34,2.17,9.34,9.78v1.62c0,2.2-.64,3.92-1.83,5.21,1.39,1.05,1.89,2.71,1.89,5.07v5.92h-10.28ZM537.01,365.31c0-1.32-.54-1.79-2.03-1.79h-4.06v3.65h4.06c1.52,0,2.03-.71,2.03-1.56v-.3Z"/>
      <path d="M550.54,373.56v-9.44h13.67v9.44h-13.67Z"/>
    </g>
    <g>
      <path d="M278.93,396.21h-.69c-4.25,0-5.78-1.31-5.78-5.35v-1.67c0-3.91,1.39-5.44,5.72-5.44h.68c3.94,0,5.57,1.59,5.57,4.48v.59h-4.23v-.16c0-.62-.41-.93-1.34-.93h-.47c-1.16,0-1.52.5-1.52,1.46v1.67c0,1.06.63,1.4,1.58,1.4h.49c1.02,0,1.34-.49,1.34-1.05v-.32h4.19v.62c0,3.29-1.62,4.7-5.53,4.7Z"/>
      <path d="M287.08,396.01v-12.04h4.17v12.04h-4.17Z"/>
      <path d="M294.07,387.3v-3.33h4.23v3.33h-4.23ZM294.07,396.01v-8.03h4.23v8.03h-4.23Z"/>
      <path d="M309.17,396.01v-4.5c0-.44-.15-.63-.74-.63v5.13h-3.05v-5.13c-.44.03-.75.22-.75.63v4.5h-3.91v-5.82c0-1.86,1.39-3.08,3.54-3.08h5.29c2.14,0,3.54,1.22,3.54,3.08v5.82h-3.92Z"/>
      <path d="M322.6,396.01h-3.7c-2.7,0-3.51-1.34-3.51-3.7v-8.36h4.25v3.26c.27-.06.55-.09.84-.09h2.26c2.33,0,3.39,1.39,3.39,3.71v1.43c0,2.49-.9,3.74-3.52,3.74ZM321.88,391.43c0-.22-.12-.4-.47-.4h-1.36c-.19,0-.41.09-.41.35v.33c0,.22.12.4.41.4h1.36c.35,0,.47-.15.47-.44v-.24Z"/>
      <path d="M328.89,387.3v-3.33h4.23v3.33h-4.23ZM328.89,396.01v-8.03h4.23v8.03h-4.23Z"/>
      <path d="M342.42,396.01v-4.23c0-.56-.28-.75-.8-.75h-.94c-.55,0-.87.28-.87.75v4.23h-4.29v-5.69c0-1.96,1.11-3.21,3.1-3.21h4.82c1.99,0,3.3,1.25,3.3,3.21v5.69h-4.32Z"/>
      <path d="M359.23,388.91v.37c0,1.34-.16,1.87-2.09,1.87h-3.33v.65h3.4c2.09,0,2.65.91,2.65,2.02v.41c0,1.5-.62,2.08-2.65,2.08h-5.81c-2.23,0-2.8-.4-2.8-2.08v-.41c0-1.03.21-1.7,1.53-1.93v-.8c-.99-.18-1.15-.71-1.15-1.81v-.32c0-1.15.19-1.83,2.11-1.83h5.16v-.59l4.29-.84v2.98l-1.31.24ZM354.94,389.13c0-.19-.13-.32-.49-.32h-.69c-.35,0-.47.13-.47.32h0c0,.24.09.35.47.35h.69c.37,0,.49-.1.49-.34h0ZM355.31,393.98c0-.16-.09-.28-.47-.28h-1.18c-.32,0-.37.15-.37.28v.09c0,.24.03.34.37.34h1.18c.41,0,.47-.1.47-.34v-.09Z"/>
      <path d="M377.75,394.58v1.7h-4.67c-4.08,0-4.89-2.03-4.89-3.79v-.59c0-.96.37-1.74,1.37-2.39-.63-.62-.9-1.45-.9-2.06v-.16c0-2.51,1.52-3.82,5.14-3.82h.5c4.01,0,5.07,1.8,5.07,3.69v.41c0,1.25-.6,2.17-1.58,2.64l3.17,1.72v4.58l-3.21-1.93ZM372.76,391.55c-.6.19-.69.31-.69.49v.21c0,.22.24.41,1.02.41h1.49l-1.81-1.11ZM375.04,387.38c0-.13-.07-.34-.74-.34h-.5c-.52,0-.6.18-.6.31v.1c0,.1.06.19.74.59.96-.29,1.11-.5,1.11-.59v-.07Z"/>
      <path d="M395.39,396.21h-.69c-4.25,0-5.78-1.31-5.78-5.35v-1.67c0-3.91,1.39-5.44,5.72-5.44h.68c3.94,0,5.57,1.59,5.57,4.48v.59h-4.23v-.16c0-.62-.41-.93-1.34-.93h-.47c-1.16,0-1.52.5-1.52,1.46v1.67c0,1.06.63,1.4,1.58,1.4h.49c1.02,0,1.34-.49,1.34-1.05v-.32h4.19v.62c0,3.29-1.62,4.7-5.53,4.7Z"/>
      <path d="M411.68,396.01h-5.47c-1.95,0-3.02-1.06-3.02-2.49v-.62c0-1.42,1.05-2.33,2.83-2.33h4.36c0-.31-.13-.47-.55-.47h-6.19v-3.02h7.62c2.55,0,3.29,1.27,3.29,3.52v3.07c0,1.42-.99,2.34-2.87,2.34ZM410.31,393.02c0-.12-.09-.24-.32-.24h-2.23c-.28,0-.35.09-.35.24v.12c0,.15.07.25.35.25h2.23c.25,0,.32-.07.32-.25v-.12Z"/>
      <path d="M422.75,390.97v5.04h-4.26v-5.04h-2.08v-3.36h2.08v-.4c0-2.24,1-3.24,3.58-3.24h4.64v3.15h-3.23c-.41,0-.65.18-.71.49h3.94v3.36h-3.96Z"/>
      <path d="M436.9,392.52h-4.51c.03.29.16.52.63.52h6.37v2.98h-7.62c-2.27,0-3.21-1.02-3.21-3.42v-2.8c0-1.36.85-2.74,2.96-2.74h5.22c1.93,0,2.89,1.03,2.89,2.64v.47c0,1.47-.62,2.36-2.73,2.36ZM435.66,389.97c0-.18-.13-.32-.38-.32h-2.27c-.38,0-.63.22-.63.58v.13h2.9c.22,0,.38-.09.38-.31v-.07Z"/>
      <path d="M456.6,396.01h-5.56c-2.27,0-3.58-1.37-3.58-3.45v-5.44h3.91v4.44c0,.56.27.71.83.71h.09v-5.14h3.05v5.14h.12c.56,0,.83-.15.83-.71v-4.44h3.91v5.44c0,2.08-1.3,3.45-3.58,3.45Z"/>
      <path d="M470.7,396.01h-5.47c-1.95,0-3.02-1.06-3.02-2.49v-.62c0-1.42,1.05-2.33,2.83-2.33h4.36c0-.31-.13-.47-.55-.47h-6.19v-3.02h7.62c2.55,0,3.29,1.27,3.29,3.52v3.07c0,1.42-.99,2.34-2.87,2.34ZM469.33,393.02c0-.12-.09-.24-.32-.24h-2.23c-.28,0-.35.09-.35.24v.12c0,.15.07.25.35.25h2.23c.25,0,.32-.07.32-.25v-.12Z"/>
      <path d="M481.18,391.03c-.91,0-1.34.6-1.34,1.19v3.79h-4.23v-3.88c0-3.54,2.12-5.03,4.63-5.03h4.67v3.92h-3.73Z"/>
      <path d="M495.29,392.52h-4.51c.03.29.16.52.63.52h6.37v2.98h-7.62c-2.27,0-3.21-1.02-3.21-3.42v-2.8c0-1.36.85-2.74,2.96-2.74h5.22c1.93,0,2.89,1.03,2.89,2.64v.47c0,1.47-.62,2.36-2.73,2.36ZM494.06,389.97c0-.18-.13-.32-.38-.32h-2.27c-.38,0-.63.22-.63.58v.13h2.9c.22,0,.38-.09.38-.31v-.07Z"/>
      <path d="M507.36,396.01v-4.32c0-.4-.15-.65-.65-.65h-1.31c-.49,0-.65.21-.65.71v4.26h-4.25v-12.04h4.25v3.38c.32-.13.65-.22.97-.22h2.39c2.36,0,3.49.93,3.49,3.64v5.25h-4.25Z"/>
      <path d="M521.22,396.09h-3.32c-2.71,0-3.89-1.27-3.89-3.63v-1.83c0-2.31,1.21-3.6,3.89-3.6h3.32c2.76,0,3.82,1.43,3.82,3.55v1.95c0,2.14-1.06,3.55-3.82,3.55ZM521.06,391.37c0-.28-.16-.56-.59-.56h-1.86c-.46,0-.6.29-.6.56v.38c0,.34.1.57.6.57h1.86c.49,0,.59-.32.59-.57v-.38Z"/>
      <path d="M534.78,396.03h-4.78c-1.95,0-3.05-.83-3.05-3.14v-5.76h4.23v4.39c0,.35.16.59.49.59h1.44c.31,0,.49-.13.49-.59v-4.39h4.25v5.76c0,2.02-1.14,3.14-3.07,3.14Z"/>
      <path d="M547.29,396h-7.56v-3.05h6c.34,0,.4-.07.4-.22v-.04c0-.16-.1-.25-.4-.25h-3.08c-2.15,0-3.11-.8-3.11-2.56v-.18c0-1.99,1.25-2.61,3.11-2.61h7.66v2.67h-5.85c-.31,0-.43.09-.43.25v.03c0,.15.12.24.43.24h2.83c2.2,0,3.35.65,3.35,2.51v.21c0,1.78-.78,3.02-3.35,3.02Z"/>
      <path d="M560.83,392.52h-4.51c.03.29.16.52.63.52h6.37v2.98h-7.62c-2.27,0-3.21-1.02-3.21-3.42v-2.8c0-1.36.85-2.74,2.96-2.74h5.22c1.93,0,2.89,1.03,2.89,2.64v.47c0,1.47-.62,2.36-2.73,2.36ZM559.59,389.97c0-.18-.13-.32-.38-.32h-2.27c-.38,0-.63.22-.63.58v.13h2.9c.22,0,.38-.09.38-.31v-.07Z"/>
    </g>
  </g>
  <g>
    <path d="M417.54,282.75v-16.1c0-2.03-.24-2.77-2.13-2.84v18.94h-7.21v-18.94c-1.73.13-2.1,1.05-2.1,2.84v16.1h-9.34v-16.98c0-8.05,3.42-10.79,11.57-10.79h7.34c8.25,0,11.27,2.37,11.27,10.79v16.98h-9.4Z"/>
    <path d="M441.11,282.75c-8.05,0-10.39-4.26-10.39-10.49v-5.24c0-7,1.49-11.87,10.49-11.87h15.9v8.73h-14.11c-1.29,0-1.93.44-2.13,1.86h15.02v6.5h-15.05c0,1.25.27,1.86,2.17,1.86h14.11v8.66h-16Z"/>
    <path d="M475.68,283.22h-1.59c-9.74,0-13.26-3.01-13.26-12.28v-3.82c0-8.96,3.18-12.48,13.13-12.48h1.56c9.03,0,12.79,3.65,12.79,10.28v1.35h-9.71v-.37c0-1.42-.95-2.13-3.08-2.13h-1.08c-2.67,0-3.48,1.15-3.48,3.35v3.82c0,2.44,1.46,3.21,3.62,3.21h1.12c2.33,0,3.08-1.12,3.08-2.4v-.74h9.61v1.42c0,7.54-3.72,10.79-12.69,10.79Z"/>
    <path d="M508.93,282.75v-10.11h-6.36v10.11h-10.15v-27.6h10.15v8.42h6.36v-8.42h10.18v27.6h-10.18Z"/>
    <path d="M539.81,282.75v-4.16h-6.7v4.16h-9.64v-16.85c0-8.39,1.93-11.26,10.86-11.26h3.75c8.93,0,11.3,2.88,11.3,11.26v16.85h-9.57ZM539.81,265.9c0-1.76-.27-2.27-1.83-2.27h-3.08c-1.52,0-1.79.51-1.79,2.27v3.89h6.7v-3.89Z"/>
    <path d="M414.8,310.93h-7.48v5.65h-10.05v-27.6h17.59c5.58,0,9.37,2.71,9.37,10.05v2.2c0,5.78-2.84,9.71-9.44,9.71ZM414.12,299.86c0-1.66-.54-1.86-2.03-1.86h-4.77v3.79h4.77c1.45,0,2.03-.41,2.03-1.62v-.3Z"/>
    <path d="M443.79,316.57h-3.35c-8.86,0-11.94-4.6-11.94-10.72v-16.88h10.05v16c0,1.69.88,2.5,2.33,2.5h2.4c1.62,0,2.47-.91,2.47-2.5v-16h10.08v16.88c0,6.12-3.15,10.72-12.04,10.72Z"/>
    <path d="M472.43,298.07c-2.06,0-2.47.71-2.47,2.61v.27h15.46v7.92h-15.46v7.71h-10.08v-15.73c0-7.98,3.35-11.87,10.45-11.87h15.9v9.1h-13.8Z"/>
    <path d="M502.81,298.07c-2.06,0-2.47.71-2.47,2.61v.27h15.46v7.92h-15.46v7.71h-10.08v-15.73c0-7.98,3.35-11.87,10.45-11.87h15.9v9.1h-13.8Z"/>
    <path d="M538.26,310.96v5.62h-10.28v-5.65c-6.36-.81-8.32-4.4-8.32-10.59v-11.37h9.57v10.69c0,1.66.88,2.3,2.3,2.3h3.42c1.59,0,2.44-.71,2.44-2.3v-10.69h9.61v11.37c0,5.89-2.06,9.78-8.73,10.62Z"/>
    <path d="M417.54,350.4v-16.1c0-2.03-.24-2.77-2.13-2.84v18.94h-7.21v-18.94c-1.73.13-2.1,1.05-2.1,2.84v16.1h-9.34v-16.98c0-8.05,3.42-10.79,11.57-10.79h7.34c8.25,0,11.27,2.37,11.27,10.79v16.98h-9.4Z"/>
    <path d="M429.85,350.26v-10.12h9.98v10.12h-9.98Z"/>
    <path d="M460.83,344.75h-7.48v5.65h-10.05v-27.6h17.59c5.58,0,9.37,2.71,9.37,10.05v2.2c0,5.79-2.84,9.71-9.44,9.71ZM460.16,333.69c0-1.66-.54-1.86-2.03-1.86h-4.77v3.79h4.77c1.45,0,2.03-.41,2.03-1.62v-.3Z"/>
    <path d="M473.51,341.94v-9.44h13.67v9.44h-13.67Z"/>
    <path d="M505.41,350.77h-3.62c-9.03,0-11.7-2.6-11.7-11.7v-4.6c0-9.51,2.81-11.94,11.6-11.94h3.89c8.69,0,11.57,2.44,11.57,11.94v4.6c0,9.1-2.71,11.7-11.74,11.7ZM507.92,334.47c0-2.44-.91-3.11-2.33-3.11h-3.89c-1.69,0-2.44.71-2.44,3.11v4.6c0,2.23.61,2.84,2.54,2.84h3.62c1.66,0,2.5-.98,2.5-2.84v-4.6Z"/>
    <path d="M536.26,350.77h-3.62c-9.03,0-11.7-2.6-11.7-11.7v-4.6c0-9.51,2.81-11.94,11.6-11.94h3.89c8.69,0,11.57,2.44,11.57,11.94v4.6c0,9.1-2.71,11.7-11.74,11.7ZM538.76,334.47c0-2.44-.91-3.11-2.33-3.11h-3.89c-1.69,0-2.44.71-2.44,3.11v4.6c0,2.23.61,2.84,2.54,2.84h3.62c1.66,0,2.5-.98,2.5-2.84v-4.6Z"/>
    <path d="M558.28,350.4v-16.85c0-.51-.27-.74-.74-.74h-6.22v-9.95h11.43c3.82,0,6.16,2.47,6.16,6.09v21.45h-10.62Z"/>
  </g>
</svg>