<?xml version="1.0" encoding="UTF-8"?>
<svg id="_レイヤー_1" data-name="レイヤー 1" xmlns="http://www.w3.org/2000/svg" viewBox="0 0 841.89 1190.55">
  <defs>
    <style>
      .cls-1 {
        fill: #040000;
      }

      .cls-2 {
        fill: #231815;
      }
    </style>
  </defs>
  <g>
    <g>
      <path d="M111.56,964v-9.66h21.83v9.66h-21.83Z"/>
      <path d="M156.45,944.51v32.22h27.6v-32.22h9.75v30.25c0,3.6-.72,6.06-2.17,7.39s-4.2,1.99-8.26,1.99h-26.22c-4.03,0-6.75-.66-8.17-1.97-1.42-1.31-2.13-3.78-2.13-7.41v-30.25h9.61Z"/>
      <path d="M211.42,984.14v-39.63h6.63l33.64,26.31v-26.31h8.74v39.63h-6.68l-33.54-26.73v26.73h-8.79Z"/>
      <path d="M314.43,984.14v-39.63h35.7c3.26,0,5.63.6,7.09,1.81,1.46,1.21,2.2,3.17,2.2,5.88v9.34c0,2.69-.73,4.62-2.2,5.81-1.46,1.19-3.83,1.78-7.09,1.78h-5.45l18.86,15.01h-13.87l-16.61-15.01h-9.11v15.01h-9.52ZM346.01,951.33h-22.06v10.98h22.06c1.68,0,2.83-.24,3.46-.73.62-.49.94-1.31.94-2.47v-4.58c0-1.16-.31-1.98-.94-2.47s-1.78-.73-3.46-.73Z"/>
      <path d="M374.38,953.84c0-3.6.7-6.06,2.11-7.37,1.4-1.31,4.13-1.97,8.19-1.97h30.66c4.09,0,6.83.66,8.21,1.97,1.39,1.31,2.08,3.77,2.08,7.37v20.91c0,3.63-.71,6.1-2.13,7.41-1.42,1.31-4.14,1.97-8.17,1.97h-30.66c-4.06,0-6.79-.66-8.19-1.97-1.4-1.31-2.11-3.78-2.11-7.41v-20.91ZM384.04,976.54h31.94v-24.76h-31.94v24.76Z"/>
      <path d="M477.07,951.78h-26.04v24.76h26.04v-8.42l9.75,1.97v4.67c0,3.6-.72,6.06-2.15,7.39-1.44,1.33-4.18,1.99-8.24,1.99h-24.76c-4,0-6.71-.66-8.15-1.97-1.43-1.31-2.15-3.78-2.15-7.41v-20.91c0-3.6.71-6.06,2.13-7.37,1.42-1.31,4.14-1.97,8.17-1.97h24.76c4.09,0,6.84.66,8.26,1.97,1.42,1.31,2.13,3.77,2.13,7.37v3.84l-9.75,1.42v-7.32Z"/>
      <path d="M502.7,984.14v-39.63h9.75v15.06h30.16v-15.06h9.66v39.63h-9.66v-16.7h-30.16v16.7h-9.75Z"/>
      <path d="M569.97,984.14v-39.63h42.51v7h-32.77v8.65h19.08v6.82h-19.08v9.75h33.27v7.41h-43.02Z"/>
      <path d="M626.95,984.14v-39.63h35.7c3.26,0,5.63.6,7.09,1.81,1.46,1.21,2.2,3.17,2.2,5.88v9.34c0,2.69-.73,4.62-2.2,5.81-1.46,1.19-3.83,1.78-7.09,1.78h-5.45l18.86,15.01h-13.87l-16.61-15.01h-9.11v15.01h-9.52ZM658.53,951.33h-22.06v10.98h22.06c1.68,0,2.83-.24,3.46-.73.62-.49.94-1.31.94-2.47v-4.58c0-1.16-.31-1.98-.94-2.47s-1.78-.73-3.46-.73Z"/>
      <path d="M683.51,964v-9.66h21.83v9.66h-21.83Z"/>
    </g>
    <g>
      <path d="M125.05,993.77h-11.56v11.66h11.56v-3.96l4.29.89v2.18c0,1.69-.32,2.83-.95,3.44-.63.61-1.84.92-3.62.92h-11c-1.79,0-3-.3-3.63-.92s-.94-1.76-.94-3.44v-9.71c0-1.67.31-2.82.94-3.43s1.84-.92,3.63-.92h11c1.78,0,2.98.31,3.62.92.63.62.95,1.76.95,3.43v1.74l-4.29.68v-3.49Z"/>
      <path d="M138.98,1008.9v-15.1h3.71v12.27h11.84v2.82h-15.55Z"/>
      <path d="M160.82,1008.9v-15.1h3.66v15.1h-3.66Z"/>
      <path d="M173.36,1008.9v-15.1h2.95l7.39,8.96,7.36-8.96h2.96v15.1h-3.42v-10.39l-6.75,8.58h-.71l-6.83-8.33v10.15h-2.95Z"/>
      <path d="M202.89,1008.9v-15.1h13.56c1.27,0,2.18.23,2.74.69.56.46.84,1.21.84,2.24v1.81c0,.69-.22,1.25-.66,1.69-.44.44-1.08.74-1.92.89.85.14,1.51.46,1.98.97.47.51.71,1.14.71,1.91v1.94c0,.99-.39,1.73-1.17,2.22-.78.49-1.95.74-3.52.74h-12.55ZM214.76,996.26h-8.25v3.57h8.25c.64,0,1.08-.08,1.31-.24.23-.16.35-.44.35-.84v-1.43c0-.4-.12-.67-.34-.83-.23-.16-.66-.24-1.32-.24ZM214.76,1002.33h-8.25v3.85h8.25c.7,0,1.17-.1,1.42-.3.25-.2.38-.55.38-1.05v-1.15c0-.5-.12-.85-.38-1.05s-.72-.31-1.42-.31Z"/>
      <path d="M228.5,1008.9v-15.1h3.66v15.1h-3.66Z"/>
      <path d="M241.03,1008.9v-15.1h2.53l12.81,10.03v-10.03h3.33v15.1h-2.54l-12.78-10.18v10.18h-3.35Z"/>
      <path d="M283.39,996.57h-11.49v9.43h11.49v-3.21h-6v-2.68h9.61v5.21c0,1.38-.27,2.33-.81,2.82-.54.5-1.58.75-3.11.75h-10.93c-1.53,0-2.57-.25-3.11-.75-.54-.5-.81-1.44-.81-2.82v-7.97c0-1.37.27-2.31.81-2.81.54-.5,1.58-.75,3.11-.75h10.93c1.52,0,2.56.24,3.1.73s.82,1.37.82,2.65v.4l-3.61.61v-1.62Z"/>
      <path d="M315.87,1008.9c-1.8,0-3.02-.31-3.66-.92s-.96-1.76-.96-3.43v-1.2c0-.8.14-1.43.41-1.88s.9-.97,1.88-1.55l3.75-2.25c-.55-.46-.95-.92-1.2-1.35-.25-.44-.38-.92-.38-1.44v-1.03c0-1.22.34-2.09,1.01-2.6s1.86-.77,3.56-.77h3.71c1.78,0,2.99.27,3.63.8.64.53.96,1.5.96,2.91v1.12l-3.33.56v-2.46h-6.03v1.33l8.68,7.22,4.27-3.57,2.44,2.11-4.25,3.52,5.82,4.9h-5.61l-3.03-2.56-1.64,1.46c-.49.42-.95.71-1.38.86s-1.13.24-2.08.24h-6.55ZM314.86,1005.69h8.54l1.71-1.46-5.53-4.6-4.72,2.91v3.16Z"/>
      <path d="M375.75,993.77h-11.56v11.66h11.56v-3.96l4.29.89v2.18c0,1.69-.32,2.83-.95,3.44s-1.84.92-3.62.92h-11c-1.79,0-3-.3-3.62-.92-.63-.61-.94-1.76-.94-3.44v-9.71c0-1.67.31-2.82.94-3.43.63-.62,1.84-.92,3.62-.92h11c1.78,0,2.98.31,3.62.92s.95,1.76.95,3.43v1.74l-4.29.68v-3.49Z"/>
      <path d="M387.38,1008.9l8.96-15.1h3.54l9.1,15.1h-4.13l-1.9-3.31h-9.99l-1.9,3.31h-3.68ZM394.53,1002.83h6.92l-3.52-6.29-3.4,6.29Z"/>
      <path d="M414.89,1008.9v-15.1h16.02v2.7h-12.31v3.94h6.62v2.81h-6.62v5.65h-3.71Z"/>
      <path d="M436.66,1008.9v-15.1h16.2v2.67h-12.48v3.29h7.27v2.6h-7.27v3.71h12.67v2.82h-16.39Z"/>
      <path d="M480.54,1008.9l-6.14-15.1h3.85l3.96,10.53,4.25-10.53h2.53l4.22,10.53,3.89-10.53h3.33l-6.07,15.1h-2.51l-4.36-10.67-4.43,10.67h-2.53Z"/>
      <path d="M504.49,1008.9l8.96-15.1h3.54l9.1,15.1h-4.13l-1.9-3.31h-9.99l-1.9,3.31h-3.68ZM511.64,1002.83h6.92l-3.52-6.29-3.4,6.29Z"/>
      <path d="M532,1008.9v-15.1h13.6c1.24,0,2.14.23,2.7.69.56.46.84,1.21.84,2.24v3.56c0,1.02-.28,1.76-.84,2.21-.56.45-1.46.68-2.7.68h-2.07l7.18,5.72h-5.28l-6.33-5.72h-3.47v5.72h-3.62ZM544.03,996.4h-8.4v4.18h8.4c.64,0,1.08-.09,1.32-.28.24-.19.36-.5.36-.94v-1.74c0-.44-.12-.75-.36-.94-.24-.19-.68-.28-1.32-.28Z"/>
      <path d="M557.35,1008.9v-15.1h16.2v2.67h-12.48v3.29h7.27v2.6h-7.27v3.71h12.67v2.82h-16.39Z"/>
      <path d="M581.2,1008.9v-15.1h3.71v5.74h11.49v-5.74h3.68v15.1h-3.68v-6.36h-11.49v6.36h-3.71Z"/>
      <path d="M608.6,997.36c0-1.37.27-2.31.8-2.81.53-.5,1.57-.75,3.12-.75h11.68c1.56,0,2.6.25,3.13.75.53.5.79,1.44.79,2.81v7.97c0,1.38-.27,2.33-.81,2.82-.54.5-1.58.75-3.11.75h-11.68c-1.55,0-2.59-.25-3.12-.75-.54-.5-.8-1.44-.8-2.82v-7.97ZM612.28,1006.01h12.17v-9.43h-12.17v9.43Z"/>
      <path d="M640.3,993.8v12.27h10.51v-12.27h3.71v11.52c0,1.37-.28,2.31-.83,2.82-.55.51-1.6.76-3.15.76h-9.99c-1.54,0-2.57-.25-3.11-.75-.54-.5-.81-1.44-.81-2.82v-11.52h3.66Z"/>
      <path d="M677.33,996.51h-10.39v3.19h9.83c1.54,0,2.59.25,3.12.74.54.49.8,1.43.8,2.82v2.07c0,1.38-.27,2.33-.82,2.82-.55.5-1.58.75-3.1.75h-9.8c-1.56,0-2.61-.25-3.16-.75-.55-.5-.83-1.44-.83-2.82v-.42l3.28-.61v1.78h11.11v-3.45h-9.78c-1.55,0-2.59-.25-3.14-.76-.55-.5-.82-1.44-.82-2.82v-1.69c0-1.36.27-2.29.82-2.8s1.59-.76,3.14-.76h8.96c1.52,0,2.57.24,3.13.72.56.48.85,1.33.85,2.55v.37l-3.19.68v-1.62Z"/>
      <path d="M689.2,1008.9v-15.1h16.2v2.67h-12.48v3.29h7.27v2.6h-7.27v3.71h12.67v2.82h-16.39Z"/>
    </g>
  </g>
  <g>
    <path class="cls-1" d="M753.66,183.11c-1.14-.68-3.03-.3-3.03-.3-1.02.3-1.62-.27-1.62-.27-.62-.54-1.43-1-1.43-1-1.2-.32-1.71.72-1.71.72-.59.96.57,1.58.57,1.58l-.61.95c-.67-.56-.91-.35-.91-.35-.92.72-1.03,2.09-1.03,2.09-1.58,1.37-4.13,5.33-4.13,5.33-.44.76-1.02.43-1.02.43-3.45-1.54-4.8-3.63-4.8-3.63-.52-.9-1.48-2.34-1.48-2.34l3.92-1.26c1.12-.36.53-1.3.53-1.3l-.44-1.09c.41-.6,2.22-.94,2.22-.94,1.62.24,1.85-.57,1.85-.57.05-.24.25-.46.41-.6.29-.26.52-.59.64-.96.37-1.14-.49-1.61-.49-1.61-1.2-1.19-2.81,1.02-2.81,1.02-.34.39-.85,1.34-.85,1.34l-.14.08c-.49.29-1.01.53-1.55.74l-.22.08-.1-.33c-2.85.85-6.77,2.57-6.77,2.57-.13-.16-.35-.34-.6-.52l-.46-.31c-.73-.46-1.53-.86-1.53-.86l-3.88-6.33c-.17-1-1.35-2.07-1.35-2.07-.33-.73-1.35-2.02-1.35-2.02-.55-1.73-1.89-1.99-1.89-1.99-.71-1.2-2.76-3.65-2.76-3.65-.14-.66-.93-1.45-.93-1.45-1.1-2.47-3.89-6.12-3.89-6.12-.5-.55-1.04-1.65-1.04-1.65-.62-1.72-1.45-2.35-1.45-2.35-.18-.14-.36-.2-.55-.23v-.02h-14.59v786.59h14.59V197.17c.1-.04.19-.09.19-.09.03.61.39.43.39.43.63-.2,1.27-1.07,1.27-1.07.56.24.69-.22.69-.22.62-.84.41-1.97.41-1.97-.09-.68.68-.84.68-.84,3.7-1.72,4.93-4.42,4.93-4.42.99-.46,1.3-1.5,1.3-1.5.54.13.58-.07.58-.07l.62-.66c1.44,2.33,5.59,5.04,5.59,5.04.37,1.06,1.52.53,1.52.53l.85-.35c3.48,3.36,9.99,5.05,9.99,5.05,1.58.53,3.3.95,3.3.95,3.35.62,3.66-1.98,3.66-1.98-.11-3.62,4.63-8.35,4.63-8.35,1.24-.5.8-.79.8-.79l-.71-.6c1.02-1.25,3.6-1.09,3.6-1.09,1.89-.16,2.35-.96,2.35-.96.56-.86.04-1.11.04-1.11ZM714.38,180.16c-.77,1.52-.38,3.63-.38,3.63l-.97,1.95c-.17.26-.35,1.65-.35,1.65,0,.38-.26.85-.26.85-1.48,1.16-1.94,2.09-1.94,2.09-1.06,1.17-2.68,2.11-2.68,2.11-.33.13-.6.26-.83.39v-35.25c.22.25.39.3.39.3.82.18,1.53,1.47,1.53,1.47.66,2.52,3.06,6.6,3.06,6.6.68,1.89,2,3.84,2,3.84-1,.37-1.07,1.47-1.07,1.47l-.54,1.43c-1.55,1-.42,1.38-.42,1.38l-.23,1.16c-.21.57.05.82.05.82.49.41,2.17,1.07,2.17,1.07l.42.91c-.26.13-.24.28-.24.28.65.91.28,1.84.28,1.84Z"/>
    <rect class="cls-1" x="664.05" y="153.91" width="15.71" height="786.59"/>
    <rect class="cls-1" x="654" y="153.91" width="3.7" height="786.59"/>
    <rect class="cls-1" x="624.17" y="153.91" width="3.45" height="786.59"/>
    <rect class="cls-1" x="642.06" y="153.91" width="2.98" height="786.59"/>
    <rect class="cls-1" x="600.95" y="153.91" width="14.26" height="786.59"/>
    <rect class="cls-1" x="585.63" y="153.91" width="3.7" height="786.59"/>
    <rect class="cls-1" x="557.81" y="153.91" width="5" height="786.59"/>
    <rect class="cls-1" x="573.29" y="153.91" width="3.38" height="786.59"/>
    <rect class="cls-1" x="532.7" y="153.91" width="14.03" height="786.59"/>
    <rect class="cls-1" x="491.87" y="153.91" width="10.94" height="786.59"/>
    <rect class="cls-1" x="481.93" y="153.91" width="5.1" height="786.59"/>
    <rect class="cls-1" x="439.13" y="153.91" width="14.57" height="786.59"/>
    <rect class="cls-1" x="408.44" y="153.91" width="3.22" height="786.59"/>
    <rect class="cls-1" x="424.62" y="153.91" width="2.78" height="786.59"/>
    <rect class="cls-1" x="397.28" y="153.91" width="3.75" height="786.59"/>
    <path class="cls-1" d="M362.48,402.95c-.79.79-1.81,1.7-3.05,2.71-.79.65-1.73,1.62-2.08,2.16-.35.54-.83,1.03-1.06,1.1s-.91.59-1.52,1.15c-1.1,1.03-2.7,1.95-4.06,2.34-.4.11-.76.14-.79.05-.21-.49,1.1-2.52,1.7-2.66.3-.07.51-.79.24-.83-.27-.04-.92-1.54-.85-1.97.05-.33-.04-.42-.49-.49-.35-.05-.61-.23-.72-.49-.1-.22-.24-.41-.32-.42-.08-.01-.43-.22-.78-.45-1.93-.96-3.71-.09-4.64,1.16-.82,1.12-.72,3.08.19,3.76.64.48.58.73-.44,1.75-1.49,1.5-5.27,7.39-5.72,8.92-.23.77-.22.78.86,2.16,1.28,1.64,2.74,3.08,3.86,3.82.84.55.96.9.42,1.22-.17.1-.33.29-.35.43-.06.42-2.36,1.92-2.15,2.77.03.13.36.17.49.17.17,0,.68-.16.61.3,0,.89,1.26,1.86,2.29,1.71,1.08-.03,2.16-.56,2.13-1.51-.02-.36.05-.58.16-.57.1.02.16-.05.11-.15-.14-.32.41-.3.84.03.23.17.34.31.26.3-.08,0-.1.1-.04.24.19.43.13.95-.08.77-.13-.11-.17-.06-.12.16.04.19-.02.31-.15.3-.12-.01-.07.07.12.18.27.16.43.09.77-.3.33-.39.45-.44.54-.22.07.16.21.31.31.34.24.33,1.17,1.03,1.29,1.11,1.54.84,3.76.74,5.33.25,1.55-.73,3.4-1.58,4.68-2.1.41-.19.45-.17.5.22-.4,1.87-.64,4.02-1.21,5.68-.2.57-.28.63-.66.5-.24-.08-.44-.08-.46,0-.05.34-.11.43-.32.52-.15.07-.16.19-.02.43.16.27.24.29.41.12.14-.14.14-.06.02.23-.78,1.86-.64,2.17,1.22,2.61,1.01.24,1.46.44,1.81.81.25.27.65.52.89.56.01,0,.03,0,.05,0v496.71h16.56V153.91h-16.56v249.03ZM345.39,426.58c-1.84-.69-3.09-3.86-3.81-5.19h0c-.3-.55-.32-.71-.09-.89.15-.12.32-.33.38-.48.27-.41.62-.78.85-1.14.25-.4.48-.72.51-.72.18.42,4.2,7.34,2.16,8.41ZM358.98,426.2c-.57-.13-.84.19-1.3.28-1.41.29.42-2.1.48-2.11h0c.09.01.15.11.14.21.11.45,1.09,1.43.69,1.62ZM362.48,439.7c-.14-.05-.3-.07-.45-.03-.27.08-.44-.1-.37-.39.05-.22.38-.83.82-1.58v2ZM362.48,424.98l-.4-.63h0c-.52-.82-1.03-1.8-1.12-2.17-.2-.78-1.09-2.01-2.04-2.83l-.65-.57-.78.24c-.92.28-2.54,1.55-3.79,2.96-.88.99-1.2,1.2-1.14.75.02-.13.04-.79.06-1.48.02-1.09.09-1.35.51-1.94.62-.89.6-1.63-.09-2.83l-.53-.92,1.02-.69c1.4-.95,2.75-2.19,4.32-3.95.73-.82,1.58-1.71,1.88-1.99.31-.27.73-.65.93-.84.14-.12,1.01-1.41,1.84-2.57v19.47Z"/>
    <rect class="cls-1" x="319.79" y="153.91" width="4.29" height="786.59"/>
    <rect class="cls-1" x="331.34" y="153.91" width="4.33" height="786.59"/>
    <rect class="cls-1" x="290.12" y="153.91" width="3.23" height="830.17"/>
    <rect class="cls-1" x="306.31" y="153.91" width="2.79" height="830.17"/>
    <rect class="cls-1" x="265.43" y="153.91" width="5.15" height="830.17"/>
    <rect class="cls-1" x="279.06" y="153.91" width="3.66" height="830.17"/>
    <rect class="cls-1" x="240.56" y="153.91" width="16.56" height="786.59"/>
    <rect class="cls-1" x="213.95" y="153.91" width="3.72" height="786.59"/>
    <rect class="cls-1" x="229.27" y="153.91" width="3.75" height="786.59"/>
    <rect class="cls-1" x="188.1" y="153.91" width="14.76" height="786.59"/>
    <rect class="cls-1" x="161.47" y="153.91" width="13.05" height="786.59"/>
    <rect class="cls-1" x="135.01" y="153.91" width="12.86" height="786.59"/>
    <rect class="cls-1" x="107.36" y="153.91" width="16.56" height="786.59"/>
  </g>
  <g>
    <path class="cls-2" d="M117.18,145.94v3.06h-9.84v-2.56c2.92-4.77,4.65-7.72,5.2-8.85.55-1.13.82-2.02.82-2.65,0-.49-.08-.85-.25-1.09-.17-.24-.42-.36-.76-.36s-.59.13-.76.4c-.17.27-.25.79-.25,1.58v1.71h-4.01v-.65c0-1,.05-1.79.16-2.38.1-.58.36-1.15.76-1.71.41-.56.93-.99,1.58-1.27s1.43-.43,2.34-.43c1.78,0,3.12.44,4.04,1.32s1.37,2,1.37,3.35c0,1.03-.26,2.11-.77,3.26-.51,1.14-2.02,3.57-4.53,7.29h4.91Z"/>
    <path class="cls-2" d="M128.18,138.84c.68.23,1.19.6,1.52,1.12s.5,1.74.5,3.66c0,1.42-.16,2.53-.49,3.32-.33.79-.89,1.38-1.68,1.79-.8.41-1.82.62-3.07.62-1.42,0-2.53-.24-3.34-.71-.81-.48-1.34-1.06-1.59-1.75-.25-.69-.38-1.89-.38-3.59v-1.42h4.47v2.91c0,.78.05,1.27.14,1.48.09.21.3.32.61.32.35,0,.58-.13.69-.4.11-.27.17-.96.17-2.08v-1.24c0-.69-.08-1.19-.23-1.51s-.38-.53-.69-.63c-.3-.1-.89-.16-1.76-.17v-2.6c1.06,0,1.72-.04,1.97-.12.25-.08.43-.26.54-.53.11-.27.17-.7.17-1.28v-1c0-.63-.06-1.04-.19-1.24-.13-.2-.33-.3-.6-.3-.31,0-.52.11-.64.32-.11.21-.17.66-.17,1.34v1.47h-4.47v-1.53c0-1.71.39-2.87,1.17-3.47s2.03-.9,3.73-.9c2.13,0,3.58.42,4.34,1.25.76.83,1.14,1.99,1.14,3.47,0,1-.14,1.73-.41,2.17-.27.45-.75.85-1.44,1.22Z"/>
    <path class="cls-2" d="M132.67,144.24h4.47c0,.83.01,1.36.03,1.58.02.22.11.4.27.55.16.15.38.22.65.22.23,0,.42-.07.57-.21.15-.14.23-.32.25-.54.02-.22.03-.67.03-1.34v-2.86c-.22.48-.55.84-1,1.08-.44.24-.99.36-1.65.36-.82,0-1.54-.22-2.17-.67-.63-.44-1.03-.97-1.2-1.59-.17-.62-.25-1.46-.25-2.51v-1.43c0-1.25.05-2.19.15-2.8.1-.61.36-1.18.77-1.7.41-.52.99-.92,1.72-1.21s1.58-.43,2.55-.43c1.2,0,2.18.17,2.95.5s1.36.81,1.78,1.43c.42.62.67,1.28.73,1.96s.1,2.02.1,3.99v2.49c0,2.13-.03,3.56-.09,4.28-.06.72-.32,1.4-.77,2.04-.45.64-1.07,1.12-1.84,1.44-.78.32-1.67.48-2.69.48-1.26,0-2.29-.2-3.09-.61s-1.38-.98-1.73-1.72c-.35-.74-.53-1.67-.53-2.79ZM137.14,138.65c0,.75.1,1.22.29,1.4.2.18.4.27.6.27.31,0,.54-.11.68-.34.14-.22.22-.67.22-1.32v-3.24c0-.79-.07-1.31-.21-1.55-.14-.24-.36-.37-.68-.37-.19,0-.39.09-.6.28-.21.19-.31.7-.31,1.52v3.35Z"/>
    <path class="cls-2" d="M152.71,131.07v17.93h-4.47v-9.61c0-1.39-.03-2.22-.1-2.5-.07-.28-.25-.49-.55-.64-.3-.14-.96-.22-2-.22h-.44v-2.09c2.16-.46,3.81-1.42,4.93-2.87h2.63Z"/>
    <path class="cls-2" d="M162.21,131.07v17.93h-4.47v-9.61c0-1.39-.03-2.22-.1-2.5-.07-.28-.25-.49-.55-.64-.3-.14-.96-.22-2-.22h-.44v-2.09c2.16-.46,3.81-1.42,4.93-2.87h2.63Z"/>
    <path class="cls-2" d="M174.45,145.94v3.06h-9.84v-2.56c2.92-4.77,4.65-7.72,5.2-8.85.55-1.13.82-2.02.82-2.65,0-.49-.08-.85-.25-1.09-.17-.24-.42-.36-.76-.36s-.59.13-.76.4c-.17.27-.25.79-.25,1.58v1.71h-4.01v-.65c0-1,.05-1.79.16-2.38.1-.58.36-1.15.76-1.71.41-.56.93-.99,1.58-1.27s1.43-.43,2.34-.43c1.78,0,3.12.44,4.04,1.32s1.37,2,1.37,3.35c0,1.03-.26,2.11-.77,3.26-.51,1.14-2.02,3.57-4.53,7.29h4.91Z"/>
    <path class="cls-2" d="M184.93,131.07v3.91l-2.86,14.02h-4.45l3.18-14.71h-4.42v-3.22h8.55Z"/>
    <path class="cls-2" d="M196.44,145.94v3.06h-9.84v-2.56c2.92-4.77,4.65-7.72,5.2-8.85.55-1.13.82-2.02.82-2.65,0-.49-.08-.85-.25-1.09-.17-.24-.42-.36-.76-.36s-.59.13-.76.4c-.17.27-.25.79-.25,1.58v1.71h-4.01v-.65c0-1,.05-1.79.16-2.38.1-.58.36-1.15.76-1.71.41-.56.93-.99,1.58-1.27s1.43-.43,2.34-.43c1.78,0,3.12.44,4.04,1.32s1.37,2,1.37,3.35c0,1.03-.26,2.11-.77,3.26-.51,1.14-2.02,3.57-4.53,7.29h4.91Z"/>
    <path class="cls-2" d="M209.59,137.14v5.98c0,1.36-.07,2.35-.22,2.97s-.45,1.2-.92,1.74-1.03.93-1.68,1.16c-.66.24-1.39.35-2.2.35-1.07,0-1.96-.12-2.67-.37-.71-.25-1.27-.63-1.69-1.16-.42-.52-.72-1.08-.9-1.66-.18-.58-.27-1.5-.27-2.76v-6.26c0-1.65.14-2.88.43-3.7s.85-1.48,1.69-1.97c.84-.5,1.87-.74,3.07-.74.98,0,1.86.17,2.64.51.77.34,1.35.76,1.74,1.26.38.5.64,1.05.78,1.67s.21,1.61.21,2.97ZM205.12,135.63c0-.95-.05-1.55-.14-1.79-.09-.24-.31-.36-.65-.36s-.55.13-.66.38c-.11.25-.16.84-.16,1.77v8.75c0,1.04.05,1.67.15,1.88s.32.32.65.32.55-.13.65-.38c.1-.25.15-.82.15-1.69v-8.88Z"/>
    <path class="cls-2" d="M220.46,138.84c.68.23,1.19.6,1.52,1.12s.5,1.74.5,3.66c0,1.42-.16,2.53-.49,3.32-.33.79-.89,1.38-1.68,1.79-.8.41-1.82.62-3.07.62-1.42,0-2.53-.24-3.34-.71-.81-.48-1.34-1.06-1.59-1.75-.25-.69-.38-1.89-.38-3.59v-1.42h4.47v2.91c0,.78.05,1.27.14,1.48.09.21.3.32.61.32.35,0,.58-.13.69-.4.11-.27.17-.96.17-2.08v-1.24c0-.69-.08-1.19-.23-1.51s-.38-.53-.69-.63c-.3-.1-.89-.16-1.76-.17v-2.6c1.06,0,1.72-.04,1.97-.12.25-.08.43-.26.54-.53.11-.27.17-.7.17-1.28v-1c0-.63-.06-1.04-.19-1.24-.13-.2-.33-.3-.6-.3-.31,0-.52.11-.64.32-.11.21-.17.66-.17,1.34v1.47h-4.47v-1.53c0-1.71.39-2.87,1.17-3.47s2.03-.9,3.73-.9c2.13,0,3.58.42,4.34,1.25.76.83,1.14,1.99,1.14,3.47,0,1-.14,1.73-.41,2.17-.27.45-.75.85-1.44,1.22Z"/>
    <path class="cls-2" d="M234.59,145.94v3.06h-9.84v-2.56c2.92-4.77,4.65-7.72,5.2-8.85.55-1.13.82-2.02.82-2.65,0-.49-.08-.85-.25-1.09-.17-.24-.42-.36-.76-.36s-.59.13-.76.4c-.17.27-.25.79-.25,1.58v1.71h-4.01v-.65c0-1,.05-1.79.16-2.38.1-.58.36-1.15.76-1.71.41-.56.93-.99,1.58-1.27s1.43-.43,2.34-.43c1.78,0,3.12.44,4.04,1.32s1.37,2,1.37,3.35c0,1.03-.26,2.11-.77,3.26-.51,1.14-2.02,3.57-4.53,7.29h4.91Z"/>
    <path class="cls-2" d="M245.59,138.84c.68.23,1.19.6,1.52,1.12s.5,1.74.5,3.66c0,1.42-.16,2.53-.49,3.32-.33.79-.89,1.38-1.68,1.79-.8.41-1.82.62-3.07.62-1.42,0-2.53-.24-3.34-.71-.81-.48-1.34-1.06-1.59-1.75-.25-.69-.38-1.89-.38-3.59v-1.42h4.47v2.91c0,.78.05,1.27.14,1.48.09.21.3.32.61.32.35,0,.58-.13.69-.4.11-.27.17-.96.17-2.08v-1.24c0-.69-.08-1.19-.23-1.51s-.38-.53-.69-.63c-.3-.1-.89-.16-1.76-.17v-2.6c1.06,0,1.72-.04,1.97-.12.25-.08.43-.26.54-.53.11-.27.17-.7.17-1.28v-1c0-.63-.06-1.04-.19-1.24-.13-.2-.33-.3-.6-.3-.31,0-.52.11-.64.32-.11.21-.17.66-.17,1.34v1.47h-4.47v-1.53c0-1.71.39-2.87,1.17-3.47s2.03-.9,3.73-.9c2.13,0,3.58.42,4.34,1.25.76.83,1.14,1.99,1.14,3.47,0,1-.14,1.73-.41,2.17-.27.45-.75.85-1.44,1.22Z"/>
    <path class="cls-2" d="M260.63,137.14v5.98c0,1.36-.07,2.35-.22,2.97s-.45,1.2-.92,1.74-1.03.93-1.68,1.16c-.66.24-1.39.35-2.2.35-1.07,0-1.96-.12-2.67-.37-.71-.25-1.27-.63-1.69-1.16-.42-.52-.72-1.08-.9-1.66-.18-.58-.27-1.5-.27-2.76v-6.26c0-1.65.14-2.88.43-3.7s.85-1.48,1.69-1.97c.84-.5,1.87-.74,3.07-.74.98,0,1.86.17,2.64.51.77.34,1.35.76,1.74,1.26.38.5.64,1.05.78,1.67s.21,1.61.21,2.97ZM256.15,135.63c0-.95-.05-1.55-.14-1.79-.09-.24-.31-.36-.65-.36s-.55.13-.66.38c-.11.25-.16.84-.16,1.77v8.75c0,1.04.05,1.67.15,1.88s.32.32.65.32.55-.13.65-.38c.1-.25.15-.82.15-1.69v-8.88Z"/>
    <path class="cls-2" d="M272.22,131.07v11.71h1.27v3.06h-1.27v3.16h-4.47v-3.16h-5.32v-3.06l3.86-11.71h5.92ZM267.75,142.79v-7.63l-1.98,7.63h1.98Z"/>
    <path class="cls-2" d="M283.69,138.84c.68.23,1.19.6,1.52,1.12s.5,1.74.5,3.66c0,1.42-.16,2.53-.49,3.32-.33.79-.89,1.38-1.68,1.79-.8.41-1.82.62-3.07.62-1.42,0-2.53-.24-3.34-.71-.81-.48-1.34-1.06-1.59-1.75-.25-.69-.38-1.89-.38-3.59v-1.42h4.47v2.91c0,.78.05,1.27.14,1.48.09.21.3.32.61.32.35,0,.58-.13.69-.4.11-.27.17-.96.17-2.08v-1.24c0-.69-.08-1.19-.23-1.51s-.38-.53-.69-.63c-.3-.1-.89-.16-1.76-.17v-2.6c1.06,0,1.72-.04,1.97-.12.25-.08.43-.26.54-.53.11-.27.17-.7.17-1.28v-1c0-.63-.06-1.04-.19-1.24-.13-.2-.33-.3-.6-.3-.31,0-.52.11-.64.32-.11.21-.17.66-.17,1.34v1.47h-4.47v-1.53c0-1.71.39-2.87,1.17-3.47.78-.6,2.03-.9,3.73-.9,2.13,0,3.58.42,4.34,1.25.76.83,1.14,1.99,1.14,3.47,0,1-.14,1.73-.41,2.17-.27.45-.75.85-1.44,1.22Z"/>
    <path class="cls-2" d="M297.82,145.94v3.06h-9.84v-2.56c2.92-4.77,4.65-7.72,5.2-8.85.55-1.13.82-2.02.82-2.65,0-.49-.08-.85-.25-1.09-.17-.24-.42-.36-.76-.36s-.59.13-.76.4c-.17.27-.25.79-.25,1.58v1.71h-4.01v-.65c0-1,.05-1.79.16-2.38.1-.58.36-1.15.76-1.71.41-.56.93-.99,1.58-1.27s1.43-.43,2.34-.43c1.78,0,3.12.44,4.04,1.32s1.37,2,1.37,3.35c0,1.03-.26,2.11-.77,3.26-.51,1.14-2.02,3.57-4.53,7.29h4.91Z"/>
    <path class="cls-2" d="M310.97,137.14v5.98c0,1.36-.07,2.35-.22,2.97s-.45,1.2-.92,1.74c-.46.54-1.03.93-1.68,1.16-.66.24-1.39.35-2.2.35-1.07,0-1.96-.12-2.67-.37-.71-.25-1.27-.63-1.69-1.16-.42-.52-.72-1.08-.9-1.66-.18-.58-.27-1.5-.27-2.76v-6.26c0-1.65.14-2.88.43-3.7s.85-1.48,1.69-1.97c.84-.5,1.87-.74,3.07-.74.98,0,1.86.17,2.64.51.77.34,1.35.76,1.74,1.26.38.5.64,1.05.78,1.67s.21,1.61.21,2.97ZM306.5,135.63c0-.95-.05-1.55-.14-1.79-.09-.24-.31-.36-.65-.36s-.55.13-.66.38c-.11.25-.16.84-.16,1.77v8.75c0,1.04.05,1.67.15,1.88s.32.32.65.32.55-.13.65-.38c.1-.25.15-.82.15-1.69v-8.88Z"/>
    <path class="cls-2" d="M322.56,131.07v11.71h1.27v3.06h-1.27v3.16h-4.47v-3.16h-5.32v-3.06l3.86-11.71h5.92ZM318.09,142.79v-7.63l-1.98,7.63h1.98Z"/>
    <path class="cls-2" d="M333.51,131.07v3.91l-2.86,14.02h-4.45l3.18-14.71h-4.42v-3.22h8.55Z"/>
    <path class="cls-2" d="M343.77,138.84c.68.23,1.19.6,1.52,1.12s.5,1.74.5,3.66c0,1.42-.16,2.53-.49,3.32-.33.79-.89,1.38-1.68,1.79-.8.41-1.82.62-3.07.62-1.42,0-2.53-.24-3.34-.71-.81-.48-1.34-1.06-1.59-1.75-.25-.69-.38-1.89-.38-3.59v-1.42h4.47v2.91c0,.78.05,1.27.14,1.48.09.21.3.32.61.32.35,0,.58-.13.69-.4.11-.27.17-.96.17-2.08v-1.24c0-.69-.08-1.19-.23-1.51s-.38-.53-.69-.63c-.3-.1-.89-.16-1.76-.17v-2.6c1.06,0,1.72-.04,1.97-.12.25-.08.43-.26.54-.53.11-.27.17-.7.17-1.28v-1c0-.63-.06-1.04-.19-1.24-.13-.2-.33-.3-.6-.3-.31,0-.52.11-.64.32-.11.21-.17.66-.17,1.34v1.47h-4.47v-1.53c0-1.71.39-2.87,1.17-3.47s2.03-.9,3.73-.9c2.13,0,3.58.42,4.34,1.25.76.83,1.14,1.99,1.14,3.47,0,1-.14,1.73-.41,2.17-.27.45-.75.85-1.44,1.22Z"/>
    <path class="cls-2" d="M355.15,131.07v17.93h-4.47v-9.61c0-1.39-.03-2.22-.1-2.5-.07-.28-.25-.49-.55-.64-.3-.14-.96-.22-2-.22h-.44v-2.09c2.16-.46,3.81-1.42,4.93-2.87h2.63Z"/>
    <path class="cls-2" d="M364.65,131.07v17.93h-4.47v-9.61c0-1.39-.03-2.22-.1-2.5-.07-.28-.25-.49-.55-.64-.3-.14-.96-.22-2-.22h-.44v-2.09c2.16-.46,3.81-1.42,4.93-2.87h2.63Z"/>
    <path class="cls-2" d="M377.8,137.14v5.98c0,1.36-.07,2.35-.22,2.97s-.45,1.2-.92,1.74-1.03.93-1.68,1.16c-.66.24-1.39.35-2.2.35-1.07,0-1.96-.12-2.67-.37-.71-.25-1.27-.63-1.69-1.16-.42-.52-.72-1.08-.9-1.66-.18-.58-.27-1.5-.27-2.76v-6.26c0-1.65.14-2.88.43-3.7s.85-1.48,1.69-1.97c.84-.5,1.87-.74,3.07-.74.98,0,1.86.17,2.64.51.77.34,1.35.76,1.74,1.26.38.5.64,1.05.78,1.67s.21,1.61.21,2.97ZM373.33,135.63c0-.95-.05-1.55-.14-1.79-.09-.24-.31-.36-.65-.36s-.55.13-.66.38c-.11.25-.16.84-.16,1.77v8.75c0,1.04.05,1.67.15,1.88s.32.32.65.32.55-.13.65-.38c.1-.25.15-.82.15-1.69v-8.88Z"/>
    <path class="cls-2" d="M388.68,138.84c.68.23,1.19.6,1.52,1.12s.5,1.74.5,3.66c0,1.42-.16,2.53-.49,3.32-.33.79-.89,1.38-1.68,1.79-.8.41-1.82.62-3.07.62-1.42,0-2.53-.24-3.34-.71-.81-.48-1.34-1.06-1.59-1.75-.25-.69-.38-1.89-.38-3.59v-1.42h4.47v2.91c0,.78.05,1.27.14,1.48.09.21.3.32.61.32.35,0,.58-.13.69-.4.11-.27.17-.96.17-2.08v-1.24c0-.69-.08-1.19-.23-1.51s-.38-.53-.69-.63c-.3-.1-.89-.16-1.76-.17v-2.6c1.06,0,1.72-.04,1.97-.12.25-.08.43-.26.54-.53.11-.27.17-.7.17-1.28v-1c0-.63-.06-1.04-.19-1.24-.13-.2-.33-.3-.6-.3-.31,0-.52.11-.64.32-.11.21-.17.66-.17,1.34v1.47h-4.47v-1.53c0-1.71.39-2.87,1.17-3.47s2.03-.9,3.73-.9c2.13,0,3.58.42,4.34,1.25.76.83,1.14,1.99,1.14,3.47,0,1-.14,1.73-.41,2.17-.27.45-.75.85-1.44,1.22Z"/>
    <path class="cls-2" d="M402.28,131.07v11.71h1.27v3.06h-1.27v3.16h-4.47v-3.16h-5.32v-3.06l3.86-11.71h5.92ZM397.81,142.79v-7.63l-1.98,7.63h1.98Z"/>
    <path class="cls-2" d="M415.11,131.07v2.87h-5.55v3.04c.69-.82,1.59-1.23,2.68-1.23,1.23,0,2.17.34,2.8,1.04.63.69.95,2.02.95,3.98v2.56c0,1.27-.06,2.2-.18,2.8-.12.59-.38,1.14-.78,1.65s-.95.89-1.67,1.16c-.71.27-1.58.4-2.61.4-1.15,0-2.17-.2-3.05-.6-.88-.4-1.5-1-1.87-1.8-.37-.8-.55-2.03-.55-3.7v-.97h4.47v1.12c0,1.16.04,1.98.12,2.47.08.49.36.73.84.73.22,0,.4-.07.54-.21.14-.14.21-.29.22-.45.01-.16.02-.87.04-2.12v-3.55c0-.67-.07-1.13-.21-1.37-.14-.24-.37-.37-.7-.37-.21,0-.38.06-.52.19-.14.12-.23.26-.27.4-.04.14-.06.48-.06,1h-4.43l.19-9.04h9.6Z"/>
    <path class="cls-2" d="M428.93,137.14v5.98c0,1.36-.07,2.35-.22,2.97s-.45,1.2-.92,1.74-1.03.93-1.68,1.16c-.66.24-1.39.35-2.2.35-1.07,0-1.96-.12-2.67-.37-.71-.25-1.27-.63-1.69-1.16-.42-.52-.72-1.08-.9-1.66-.18-.58-.27-1.5-.27-2.76v-6.26c0-1.65.14-2.88.43-3.7s.85-1.48,1.69-1.97c.84-.5,1.87-.74,3.07-.74.98,0,1.86.17,2.64.51.77.34,1.35.76,1.74,1.26.38.5.64,1.05.78,1.67s.21,1.61.21,2.97ZM424.46,135.63c0-.95-.05-1.55-.14-1.79-.09-.24-.31-.36-.65-.36s-.55.13-.66.38c-.11.25-.16.84-.16,1.77v8.75c0,1.04.05,1.67.15,1.88s.32.32.65.32.55-.13.65-.38c.1-.25.15-.82.15-1.69v-8.88Z"/>
    <path class="cls-2" d="M440.52,131.07v11.71h1.27v3.06h-1.27v3.16h-4.47v-3.16h-5.32v-3.06l3.86-11.71h5.92ZM436.05,142.79v-7.63l-1.98,7.63h1.98Z"/>
    <path class="cls-2" d="M453.23,145.94v3.06h-9.84v-2.56c2.92-4.77,4.65-7.72,5.2-8.85.55-1.13.82-2.02.82-2.65,0-.49-.08-.85-.25-1.09-.17-.24-.42-.36-.76-.36s-.59.13-.76.4c-.17.27-.25.79-.25,1.58v1.71h-4.01v-.65c0-1,.05-1.79.16-2.38.1-.58.36-1.15.76-1.71.41-.56.93-.99,1.58-1.27s1.43-.43,2.34-.43c1.78,0,3.12.44,4.04,1.32s1.37,2,1.37,3.35c0,1.03-.26,2.11-.77,3.26-.51,1.14-2.02,3.57-4.53,7.29h4.91Z"/>
    <path class="cls-2" d="M462.73,131.07v17.93h-4.47v-9.61c0-1.39-.03-2.22-.1-2.5-.07-.28-.25-.49-.55-.64-.3-.14-.96-.22-2-.22h-.44v-2.09c2.16-.46,3.81-1.42,4.93-2.87h2.63Z"/>
    <path class="cls-2" d="M476.07,135.83h-4.47c0-.83,0-1.36-.03-1.58-.02-.22-.11-.4-.27-.55-.16-.15-.38-.22-.65-.22-.23,0-.42.07-.56.21s-.23.32-.25.54c-.02.22-.03.67-.03,1.34v2.86c.23-.48.56-.84,1.01-1.08.44-.24.99-.36,1.64-.36.82,0,1.54.22,2.17.66.63.44,1.03.97,1.2,1.59s.25,1.46.25,2.51v1.43c0,1.25-.05,2.19-.14,2.8-.1.61-.35,1.18-.77,1.7-.42.52-.99.92-1.72,1.21-.73.29-1.57.43-2.54.43-1.2,0-2.19-.17-2.96-.5s-1.36-.81-1.78-1.43-.66-1.28-.73-1.97-.11-2.02-.11-4v-2.48c0-2.13.03-3.56.09-4.28.06-.72.32-1.4.77-2.04.45-.64,1.06-1.12,1.84-1.45.78-.32,1.68-.48,2.7-.48,1.25,0,2.28.2,3.09.61.8.41,1.38.98,1.73,1.72.35.74.52,1.67.52,2.79ZM471.6,141.43c0-.63-.07-1.07-.21-1.31-.14-.24-.37-.35-.69-.35s-.54.11-.68.34c-.14.23-.22.67-.22,1.32v3.24c0,.79.07,1.31.21,1.55.14.24.36.37.68.37.19,0,.39-.09.6-.28.21-.19.31-.7.31-1.52v-3.36Z"/>
    <path class="cls-2" d="M486.87,138.84c.68.23,1.19.6,1.52,1.12s.5,1.74.5,3.66c0,1.42-.16,2.53-.49,3.32-.33.79-.89,1.38-1.68,1.79-.8.41-1.82.62-3.07.62-1.42,0-2.53-.24-3.34-.71-.81-.48-1.34-1.06-1.59-1.75-.25-.69-.38-1.89-.38-3.59v-1.42h4.47v2.91c0,.78.05,1.27.14,1.48.09.21.3.32.61.32.35,0,.58-.13.69-.4.11-.27.17-.96.17-2.08v-1.24c0-.69-.08-1.19-.23-1.51s-.38-.53-.69-.63c-.3-.1-.89-.16-1.76-.17v-2.6c1.06,0,1.72-.04,1.97-.12.25-.08.43-.26.54-.53.11-.27.17-.7.17-1.28v-1c0-.63-.06-1.04-.19-1.24-.13-.2-.33-.3-.6-.3-.31,0-.52.11-.64.32-.11.21-.17.66-.17,1.34v1.47h-4.47v-1.53c0-1.71.39-2.87,1.17-3.47s2.03-.9,3.73-.9c2.13,0,3.58.42,4.34,1.25.76.83,1.14,1.99,1.14,3.47,0,1-.14,1.73-.41,2.17-.27.45-.75.85-1.44,1.22Z"/>
    <path class="cls-2" d="M499.89,138.83c.66.27,1.16.66,1.52,1.19s.53,1.79.53,3.77c0,1.45-.14,2.51-.42,3.2-.28.69-.83,1.25-1.64,1.69s-1.9.66-3.27.66-2.38-.21-3.16-.63c-.78-.42-1.33-.98-1.67-1.67s-.5-1.85-.5-3.47c0-1.09.08-2.03.25-2.83.17-.8.69-1.44,1.57-1.92-.55-.27-.97-.69-1.25-1.27-.28-.58-.42-1.32-.42-2.21,0-1.54.43-2.7,1.28-3.47.86-.77,2.14-1.16,3.84-1.16,1.97,0,3.33.41,4.09,1.23.75.82,1.13,1.99,1.13,3.51,0,.97-.12,1.66-.37,2.09-.25.43-.75.85-1.52,1.27ZM497.47,142.43c0-.69-.07-1.14-.21-1.37-.14-.23-.36-.34-.66-.34s-.51.11-.64.33c-.13.22-.19.68-.19,1.38v2.33c0,.78.07,1.27.22,1.5.14.22.37.33.68.33s.53-.11.64-.34c.11-.22.17-.73.17-1.52v-2.29ZM497.38,134.98c0-.61-.05-1.01-.16-1.2s-.31-.29-.61-.29-.5.11-.6.32c-.1.21-.16.6-.16,1.18v1.36c0,.54.06.91.18,1.12s.32.31.6.31.49-.1.6-.3.16-.62.16-1.26v-1.23Z"/>
    <path class="cls-2" d="M514.9,137.14v5.98c0,1.36-.07,2.35-.22,2.97s-.45,1.2-.92,1.74-1.03.93-1.68,1.16c-.66.24-1.39.35-2.2.35-1.07,0-1.96-.12-2.67-.37-.71-.25-1.27-.63-1.69-1.16-.42-.52-.72-1.08-.9-1.66-.18-.58-.27-1.5-.27-2.76v-6.26c0-1.65.14-2.88.43-3.7s.85-1.48,1.69-1.97c.84-.5,1.87-.74,3.07-.74.98,0,1.86.17,2.64.51.77.34,1.35.76,1.74,1.26.38.5.64,1.05.78,1.67s.21,1.61.21,2.97ZM510.42,135.63c0-.95-.05-1.55-.14-1.79-.09-.24-.31-.36-.65-.36s-.55.13-.66.38c-.11.25-.16.84-.16,1.77v8.75c0,1.04.05,1.67.15,1.88s.32.32.65.32.55-.13.65-.38c.1-.25.15-.82.15-1.69v-8.88Z"/>
    <path class="cls-2" d="M524.26,131.07v17.93h-4.47v-9.61c0-1.39-.03-2.22-.1-2.5-.07-.28-.25-.49-.55-.64-.3-.14-.96-.22-2-.22h-.44v-2.09c2.16-.46,3.81-1.42,4.93-2.87h2.63Z"/>
    <path class="cls-2" d="M535.99,131.07v11.71h1.27v3.06h-1.27v3.16h-4.47v-3.16h-5.32v-3.06l3.86-11.71h5.92ZM531.51,142.79v-7.63l-1.98,7.63h1.98Z"/>
    <path class="cls-2" d="M547.59,138.83c.66.27,1.16.66,1.52,1.19s.53,1.79.53,3.77c0,1.45-.14,2.51-.42,3.2-.28.69-.83,1.25-1.64,1.69s-1.9.66-3.27.66-2.38-.21-3.16-.63c-.78-.42-1.33-.98-1.67-1.67s-.5-1.85-.5-3.47c0-1.09.08-2.03.25-2.83.17-.8.69-1.44,1.57-1.92-.55-.27-.97-.69-1.25-1.27-.28-.58-.42-1.32-.42-2.21,0-1.54.43-2.7,1.28-3.47.86-.77,2.14-1.16,3.84-1.16,1.97,0,3.33.41,4.09,1.23.75.82,1.13,1.99,1.13,3.51,0,.97-.12,1.66-.37,2.09-.25.43-.75.85-1.52,1.27ZM545.16,142.43c0-.69-.07-1.14-.21-1.37-.14-.23-.36-.34-.66-.34s-.51.11-.64.33c-.13.22-.19.68-.19,1.38v2.33c0,.78.07,1.27.22,1.5.14.22.37.33.68.33s.53-.11.64-.34c.11-.22.17-.73.17-1.52v-2.29ZM545.08,134.98c0-.61-.05-1.01-.16-1.2s-.31-.29-.61-.29-.5.11-.6.32c-.1.21-.16.6-.16,1.18v1.36c0,.54.06.91.18,1.12s.32.31.6.31.49-.1.6-.3.16-.62.16-1.26v-1.23Z"/>
    <path class="cls-2" d="M562.59,137.14v5.98c0,1.36-.07,2.35-.22,2.97s-.45,1.2-.92,1.74-1.03.93-1.68,1.16c-.66.24-1.39.35-2.2.35-1.07,0-1.96-.12-2.67-.37-.71-.25-1.27-.63-1.69-1.16-.42-.52-.72-1.08-.9-1.66-.18-.58-.27-1.5-.27-2.76v-6.26c0-1.65.14-2.88.43-3.7s.85-1.48,1.69-1.97c.84-.5,1.87-.74,3.07-.74.98,0,1.86.17,2.64.51.77.34,1.35.76,1.74,1.26.38.5.64,1.05.78,1.67s.21,1.61.21,2.97ZM558.12,135.63c0-.95-.05-1.55-.14-1.79-.09-.24-.31-.36-.65-.36s-.55.13-.66.38c-.11.25-.16.84-.16,1.77v8.75c0,1.04.05,1.67.15,1.88s.32.32.65.32.55-.13.65-.38c.1-.25.15-.82.15-1.69v-8.88Z"/>
    <path class="cls-2" d="M571.96,131.07v17.93h-4.47v-9.61c0-1.39-.03-2.22-.1-2.5-.07-.28-.25-.49-.55-.64-.3-.14-.96-.22-2-.22h-.44v-2.09c2.16-.46,3.81-1.42,4.93-2.87h2.63Z"/>
    <path class="cls-2" d="M581.46,131.07v17.93h-4.47v-9.61c0-1.39-.03-2.22-.1-2.5-.07-.28-.25-.49-.55-.64-.3-.14-.96-.22-2-.22h-.44v-2.09c2.16-.46,3.81-1.42,4.93-2.87h2.63Z"/>
    <path class="cls-2" d="M594.61,137.14v5.98c0,1.36-.07,2.35-.22,2.97s-.45,1.2-.92,1.74-1.03.93-1.68,1.16c-.66.24-1.39.35-2.2.35-1.07,0-1.96-.12-2.67-.37-.71-.25-1.27-.63-1.69-1.16-.42-.52-.72-1.08-.9-1.66-.18-.58-.27-1.5-.27-2.76v-6.26c0-1.65.14-2.88.43-3.7s.85-1.48,1.69-1.97c.84-.5,1.87-.74,3.07-.74.98,0,1.86.17,2.64.51.77.34,1.35.76,1.74,1.26.38.5.64,1.05.78,1.67s.21,1.61.21,2.97ZM590.13,135.63c0-.95-.05-1.55-.14-1.79-.09-.24-.31-.36-.65-.36s-.55.13-.66.38c-.11.25-.16.84-.16,1.77v8.75c0,1.04.05,1.67.15,1.88s.32.32.65.32.55-.13.65-.38c.1-.25.15-.82.15-1.69v-8.88Z"/>
    <path class="cls-2" d="M605.48,138.84c.68.23,1.19.6,1.52,1.12s.5,1.74.5,3.66c0,1.42-.16,2.53-.49,3.32-.33.79-.89,1.38-1.68,1.79-.8.41-1.82.62-3.07.62-1.42,0-2.53-.24-3.34-.71-.81-.48-1.34-1.06-1.59-1.75-.25-.69-.38-1.89-.38-3.59v-1.42h4.47v2.91c0,.78.05,1.27.14,1.48.09.21.3.32.61.32.35,0,.58-.13.69-.4.11-.27.17-.96.17-2.08v-1.24c0-.69-.08-1.19-.23-1.51s-.38-.53-.69-.63c-.3-.1-.89-.16-1.76-.17v-2.6c1.06,0,1.72-.04,1.97-.12.25-.08.43-.26.54-.53.11-.27.17-.7.17-1.28v-1c0-.63-.06-1.04-.19-1.24-.13-.2-.33-.3-.6-.3-.31,0-.52.11-.64.32-.11.21-.17.66-.17,1.34v1.47h-4.47v-1.53c0-1.71.39-2.87,1.17-3.47s2.03-.9,3.73-.9c2.13,0,3.58.42,4.34,1.25.76.83,1.14,1.99,1.14,3.47,0,1-.14,1.73-.41,2.17-.27.45-.75.85-1.44,1.22Z"/>
    <path class="cls-2" d="M609.96,144.24h4.47c0,.83.01,1.36.03,1.58.02.22.11.4.27.55.16.15.38.22.65.22.23,0,.42-.07.57-.21.15-.14.23-.32.25-.54.02-.22.03-.67.03-1.34v-2.86c-.22.48-.55.84-1,1.08-.44.24-.99.36-1.65.36-.82,0-1.54-.22-2.17-.67-.63-.44-1.03-.97-1.2-1.59-.17-.62-.25-1.46-.25-2.51v-1.43c0-1.25.05-2.19.15-2.8.1-.61.36-1.18.77-1.7.41-.52.99-.92,1.72-1.21s1.58-.43,2.55-.43c1.2,0,2.18.17,2.95.5s1.36.81,1.78,1.43c.42.62.67,1.28.73,1.96s.1,2.02.1,3.99v2.49c0,2.13-.03,3.56-.09,4.28-.06.72-.32,1.4-.77,2.04-.45.64-1.07,1.12-1.84,1.44-.78.32-1.67.48-2.69.48-1.26,0-2.29-.2-3.09-.61s-1.38-.98-1.73-1.72c-.35-.74-.53-1.67-.53-2.79ZM614.44,138.65c0,.75.1,1.22.29,1.4.2.18.4.27.6.27.31,0,.54-.11.68-.34.14-.22.22-.67.22-1.32v-3.24c0-.79-.07-1.31-.21-1.55-.14-.24-.36-.37-.68-.37-.19,0-.39.09-.6.28-.21.19-.31.7-.31,1.52v3.35Z"/>
    <path class="cls-2" d="M632.87,131.07v2.87h-5.55v3.04c.69-.82,1.59-1.23,2.68-1.23,1.23,0,2.17.34,2.8,1.04.63.69.95,2.02.95,3.98v2.56c0,1.27-.06,2.2-.18,2.8-.12.59-.38,1.14-.78,1.65s-.95.89-1.67,1.16c-.71.27-1.58.4-2.61.4-1.15,0-2.17-.2-3.05-.6-.88-.4-1.5-1-1.87-1.8-.37-.8-.55-2.03-.55-3.7v-.97h4.47v1.12c0,1.16.04,1.98.12,2.47.08.49.36.73.84.73.22,0,.4-.07.54-.21.14-.14.21-.29.22-.45.01-.16.02-.87.04-2.12v-3.55c0-.67-.07-1.13-.21-1.37-.14-.24-.37-.37-.7-.37-.21,0-.38.06-.52.19-.14.12-.23.26-.27.4-.04.14-.06.48-.06,1h-4.43l.19-9.04h9.6Z"/>
    <path class="cls-2" d="M644.54,138.84c.68.23,1.19.6,1.52,1.12s.5,1.74.5,3.66c0,1.42-.16,2.53-.49,3.32-.33.79-.89,1.38-1.68,1.79-.8.41-1.82.62-3.07.62-1.42,0-2.53-.24-3.34-.71-.81-.48-1.34-1.06-1.59-1.75-.25-.69-.38-1.89-.38-3.59v-1.42h4.47v2.91c0,.78.05,1.27.14,1.48.09.21.3.32.61.32.35,0,.58-.13.69-.4.11-.27.17-.96.17-2.08v-1.24c0-.69-.08-1.19-.23-1.51s-.38-.53-.69-.63c-.3-.1-.89-.16-1.76-.17v-2.6c1.06,0,1.72-.04,1.97-.12.25-.08.43-.26.54-.53.11-.27.17-.7.17-1.28v-1c0-.63-.06-1.04-.19-1.24-.13-.2-.33-.3-.6-.3-.31,0-.52.11-.64.32-.11.21-.17.66-.17,1.34v1.47h-4.47v-1.53c0-1.71.39-2.87,1.17-3.47s2.03-.9,3.73-.9c2.13,0,3.58.42,4.34,1.25.76.83,1.14,1.99,1.14,3.47,0,1-.14,1.73-.41,2.17-.27.45-.75.85-1.44,1.22Z"/>
    <path class="cls-2" d="M658.67,145.94v3.06h-9.84v-2.56c2.92-4.77,4.65-7.72,5.2-8.85.55-1.13.82-2.02.82-2.65,0-.49-.08-.85-.25-1.09-.17-.24-.42-.36-.76-.36s-.59.13-.76.4c-.17.27-.25.79-.25,1.58v1.71h-4.01v-.65c0-1,.05-1.79.16-2.38.1-.58.36-1.15.76-1.71.41-.56.93-.99,1.58-1.27s1.43-.43,2.34-.43c1.78,0,3.12.44,4.04,1.32s1.37,2,1.37,3.35c0,1.03-.26,2.11-.77,3.26-.51,1.14-2.02,3.57-4.53,7.29h4.91Z"/>
    <path class="cls-2" d="M669.8,138.83c.66.27,1.16.66,1.52,1.19s.53,1.79.53,3.77c0,1.45-.14,2.51-.42,3.2-.28.69-.83,1.25-1.64,1.69s-1.9.66-3.27.66-2.38-.21-3.16-.63c-.78-.42-1.33-.98-1.67-1.67s-.5-1.85-.5-3.47c0-1.09.08-2.03.25-2.83.17-.8.69-1.44,1.57-1.92-.55-.27-.97-.69-1.25-1.27-.28-.58-.42-1.32-.42-2.21,0-1.54.43-2.7,1.28-3.47.86-.77,2.14-1.16,3.84-1.16,1.97,0,3.33.41,4.09,1.23.75.82,1.13,1.99,1.13,3.51,0,.97-.12,1.66-.37,2.09-.25.43-.75.85-1.52,1.27ZM667.38,142.43c0-.69-.07-1.14-.21-1.37-.14-.23-.36-.34-.66-.34s-.51.11-.64.33c-.13.22-.19.68-.19,1.38v2.33c0,.78.07,1.27.22,1.5.14.22.37.33.68.33s.53-.11.64-.34c.11-.22.17-.73.17-1.52v-2.29ZM667.29,134.98c0-.61-.05-1.01-.16-1.2s-.31-.29-.61-.29-.5.11-.6.32c-.1.21-.16.6-.16,1.18v1.36c0,.54.06.91.18,1.12s.32.31.6.31.49-.1.6-.3.16-.62.16-1.26v-1.23Z"/>
    <path class="cls-2" d="M684.8,137.14v5.98c0,1.36-.07,2.35-.22,2.97s-.45,1.2-.92,1.74-1.03.93-1.68,1.16c-.66.24-1.39.35-2.2.35-1.07,0-1.96-.12-2.67-.37-.71-.25-1.27-.63-1.69-1.16-.42-.52-.72-1.08-.9-1.66-.18-.58-.27-1.5-.27-2.76v-6.26c0-1.65.14-2.88.43-3.7s.85-1.48,1.69-1.97c.84-.5,1.87-.74,3.07-.74.98,0,1.86.17,2.64.51.77.34,1.35.76,1.74,1.26.38.5.64,1.05.78,1.67s.21,1.61.21,2.97ZM680.33,135.63c0-.95-.05-1.55-.14-1.79-.09-.24-.31-.36-.65-.36s-.55.13-.66.38c-.11.25-.16.84-.16,1.77v8.75c0,1.04.05,1.67.15,1.88s.32.32.65.32.55-.13.65-.38c.1-.25.15-.82.15-1.69v-8.88Z"/>
    <path class="cls-2" d="M694.17,131.07v17.93h-4.47v-9.61c0-1.39-.03-2.22-.1-2.5-.07-.28-.25-.49-.55-.64-.3-.14-.96-.22-2-.22h-.44v-2.09c2.16-.46,3.81-1.42,4.93-2.87h2.63Z"/>
    <path class="cls-2" d="M705.89,131.07v11.71h1.27v3.06h-1.27v3.16h-4.47v-3.16h-5.32v-3.06l3.86-11.71h5.92ZM701.42,142.79v-7.63l-1.98,7.63h1.98Z"/>
  </g>
</svg>