<?xml version="1.0" encoding="UTF-8"?>
<svg id="_レイヤー_1" data-name="レイヤー 1" xmlns="http://www.w3.org/2000/svg" viewBox="0 0 244.49 474.08">
  <defs>
    <style>
      .cls-1 {
        fill: #040000;
      }

      .cls-2 {
        fill: #231815;
      }
    </style>
  </defs>
  <g>
    <g>
      <path d="M64.9,369.96h-5.41v-12.23h5.41v12.23Z"/>
      <path d="M53.98,344.82h18.04v-15.46h-18.04v-5.46h16.94c2.02,0,3.4.41,4.14,1.22s1.11,2.35,1.11,4.63v14.69c0,2.26-.37,3.78-1.1,4.58-.73.79-2.12,1.19-4.15,1.19h-16.94v-5.38Z"/>
      <path d="M76.18,314.04h-22.2v-3.72l14.74-18.84h-14.74v-4.9h22.2v3.74l-14.97,18.79h14.97v4.92Z"/>
      <path d="M76.18,256.34h-22.2v-19.99c0-1.83.34-3.15,1.01-3.97.67-.82,1.77-1.23,3.29-1.23h5.23c1.5,0,2.59.41,3.26,1.23.67.82,1,2.14,1,3.97v3.05l8.41-10.56v7.77l-8.41,9.3v5.1h8.41v5.33ZM57.8,238.65v12.35h6.15v-12.35c0-.94-.14-1.59-.41-1.94-.27-.35-.73-.53-1.38-.53h-2.56c-.65,0-1.11.18-1.38.53s-.41,1-.41,1.94Z"/>
      <path d="M59.21,222.76c-2.02,0-3.39-.39-4.13-1.18-.73-.79-1.1-2.31-1.1-4.59v-17.17c0-2.29.37-3.82,1.1-4.6.73-.78,2.11-1.17,4.13-1.17h11.71c2.03,0,3.42.4,4.15,1.19.74.79,1.1,2.32,1.1,4.57v17.17c0,2.27-.37,3.8-1.1,4.59-.73.79-2.12,1.18-4.15,1.18h-11.71ZM71.92,217.35v-17.89h-13.87v17.89h13.87Z"/>
      <path d="M58.06,165.24v14.58h13.87v-14.58h-4.72l1.1-5.46h2.61c2.02,0,3.4.4,4.14,1.2.74.8,1.11,2.34,1.11,4.61v13.87c0,2.24-.37,3.76-1.1,4.56-.73.8-2.12,1.2-4.15,1.2h-11.71c-2.02,0-3.39-.4-4.13-1.19-.73-.8-1.1-2.32-1.1-4.58v-13.87c0-2.29.37-3.83,1.1-4.63.73-.8,2.11-1.19,4.13-1.19h2.15l.79,5.46h-4.1Z"/>
      <path d="M76.18,150.89h-22.2v-5.46h8.43v-16.89h-8.43v-5.41h22.2v5.41h-9.36v16.89h9.36v5.46Z"/>
      <path d="M76.18,113.21h-22.2v-23.81h3.92v18.35h4.84v-10.69h3.82v10.69h5.46v-18.63h4.15v24.09Z"/>
      <path d="M76.18,81.3h-22.2v-19.99c0-1.83.34-3.15,1.01-3.97.67-.82,1.77-1.23,3.29-1.23h5.23c1.5,0,2.59.41,3.26,1.23.67.82,1,2.14,1,3.97v3.05l8.41-10.56v7.77l-8.41,9.3v5.1h8.41v5.33ZM57.8,63.62v12.35h6.15v-12.35c0-.94-.14-1.59-.41-1.94-.27-.35-.73-.53-1.38-.53h-2.56c-.65,0-1.11.18-1.38.53s-.41,1-.41,1.94Z"/>
      <path d="M64.9,49.62h-5.41v-12.23h5.41v12.23Z"/>
    </g>
    <g>
      <path d="M81.57,362.41v6.47h6.53v-6.47h-2.22l.5-2.4h1.22c.94,0,1.59.18,1.93.53.34.36.51,1.03.51,2.03v6.16c0,1-.17,1.68-.51,2.03s-.98.53-1.93.53h-5.44c-.94,0-1.58-.18-1.92-.53s-.52-1.03-.52-2.03v-6.16c0-1,.17-1.67.52-2.03.35-.35.99-.53,1.92-.53h.98l.38,2.4h-1.95Z"/>
      <path d="M90.05,354.6h-8.46v-2.08h6.87v-6.63h1.58v8.71Z"/>
      <path d="M90.05,342.37h-8.46v-2.05h8.46v2.05Z"/>
      <path d="M90.05,335.35h-8.46v-1.65l5.02-4.14-5.02-4.12v-1.66h8.46v1.91h-5.82l4.8,3.78v.4l-4.67,3.83h5.68v1.65Z"/>
      <path d="M90.05,318.81h-8.46v-7.6c0-.71.13-1.22.39-1.53.26-.31.67-.47,1.25-.47h1.02c.38,0,.7.12.95.37.25.25.41.6.5,1.07.08-.47.26-.84.54-1.11.28-.26.64-.4,1.07-.4h1.08c.55,0,.97.22,1.24.65.28.44.42,1.09.42,1.97v7.03ZM82.97,312.16v4.62h2v-4.62c0-.36-.05-.6-.14-.73-.09-.13-.25-.2-.47-.2h-.8c-.22,0-.38.06-.46.19-.09.13-.13.37-.13.74ZM86.36,312.16v4.62h2.16v-4.62c0-.39-.06-.66-.17-.8-.11-.14-.31-.21-.59-.21h-.64c-.28,0-.48.07-.59.21s-.17.4-.17.8Z"/>
      <path d="M90.05,304.47h-8.46v-2.05h8.46v2.05Z"/>
      <path d="M90.05,297.45h-8.46v-1.42l5.62-7.18h-5.62v-1.87h8.46v1.43l-5.7,7.16h5.7v1.87Z"/>
      <path d="M83.14,273.72v6.44h5.28v-6.44h-1.8v3.36h-1.5v-5.38h2.92c.78,0,1.3.15,1.58.45.28.3.42.88.42,1.74v6.12c0,.86-.14,1.44-.42,1.74-.28.3-.81.45-1.58.45h-4.46c-.77,0-1.29-.15-1.57-.45-.28-.3-.42-.88-.42-1.74v-6.12c0-.85.14-1.43.41-1.74s.77-.46,1.48-.46h.22l.34,2.02h-.91Z"/>
      <path d="M90.05,255.53c0,1.01-.17,1.69-.52,2.05s-.99.54-1.92.54h-.67c-.45,0-.8-.08-1.05-.23s-.54-.5-.87-1.05l-1.26-2.1c-.26.31-.51.53-.76.67-.24.14-.51.21-.81.21h-.58c-.68,0-1.17-.19-1.45-.57s-.43-1.04-.43-1.99v-2.08c0-1,.15-1.67.45-2.03.3-.36.84-.54,1.63-.54h.63l.31,1.87h-1.38v3.38h.74l4.04-4.86-2-2.39,1.18-1.37,1.97,2.38,2.74-3.26v3.14l-1.44,1.7.82.92c.23.27.4.53.48.78s.13.63.13,1.17v3.67ZM88.25,256.1v-4.78l-.82-.96-2.58,3.1,1.63,2.65h1.77Z"/>
      <path d="M81.57,221.99v6.47h6.53v-6.47h-2.22l.5-2.4h1.22c.94,0,1.59.18,1.93.53s.51,1.03.51,2.03v6.16c0,1-.17,1.68-.51,2.03-.34.35-.98.53-1.93.53h-5.44c-.94,0-1.58-.18-1.92-.53-.35-.35-.52-1.03-.52-2.03v-6.16c0-1,.17-1.67.52-2.03s.99-.53,1.92-.53h.98l.38,2.4h-1.95Z"/>
      <path d="M90.05,215.48l-8.46-5.02v-1.98l8.46-5.1v2.31l-1.86,1.06v5.6l1.86,1.06v2.06ZM86.65,211.48v-3.88l-3.53,1.97,3.53,1.9Z"/>
      <path d="M90.05,200.07h-8.46v-8.97h1.51v6.89h2.21v-3.71h1.57v3.71h3.16v2.08Z"/>
      <path d="M90.05,187.88h-8.46v-9.07h1.49v6.99h1.85v-4.07h1.45v4.07h2.08v-7.1h1.58v9.18Z"/>
      <path d="M90.05,163.3l-8.46,3.44v-2.16l5.9-2.22-5.9-2.38v-1.42l5.9-2.36-5.9-2.18v-1.87l8.46,3.4v1.41l-5.98,2.44,5.98,2.48v1.42Z"/>
      <path d="M90.05,149.89l-8.46-5.02v-1.98l8.46-5.1v2.31l-1.86,1.06v5.6l1.86,1.06v2.06ZM86.65,145.88v-3.88l-3.53,1.97,3.53,1.9Z"/>
      <path d="M90.05,134.48h-8.46v-7.62c0-.7.13-1.2.39-1.51.26-.31.67-.47,1.25-.47h1.99c.57,0,.99.16,1.24.47.25.31.38.82.38,1.51v1.16l3.2-4.02v2.96l-3.2,3.54v1.94h3.2v2.03ZM83.04,127.74v4.71h2.34v-4.71c0-.36-.05-.6-.16-.74-.1-.13-.28-.2-.53-.2h-.98c-.25,0-.42.07-.53.2-.1.13-.16.38-.16.74Z"/>
      <path d="M90.05,120.28h-8.46v-9.07h1.49v6.99h1.85v-4.07h1.45v4.07h2.08v-7.1h1.58v9.18Z"/>
      <path d="M90.05,106.93h-8.46v-2.08h3.21v-6.43h-3.21v-2.06h8.46v2.06h-3.56v6.43h3.56v2.08Z"/>
      <path d="M83.58,91.58c-.77,0-1.29-.15-1.57-.45-.28-.3-.42-.88-.42-1.75v-6.54c0-.87.14-1.46.42-1.75.28-.3.8-.44,1.57-.44h4.46c.78,0,1.3.15,1.58.45.28.3.42.88.42,1.74v6.54c0,.87-.14,1.45-.42,1.75-.28.3-.81.45-1.58.45h-4.46ZM88.42,89.52v-6.82h-5.28v6.82h5.28Z"/>
      <path d="M81.59,73.83h6.87v-5.89h-6.87v-2.08h6.45c.77,0,1.29.16,1.58.46.28.31.42.9.42,1.76v5.59c0,.86-.14,1.44-.42,1.74-.28.3-.81.45-1.58.45h-6.45v-2.05Z"/>
      <path d="M83.1,53.09v5.82h1.79v-5.51c0-.87.14-1.45.41-1.75.28-.3.8-.45,1.58-.45h1.16c.78,0,1.3.15,1.58.46.28.31.42.88.42,1.74v5.49c0,.87-.14,1.46-.42,1.77-.28.31-.81.46-1.58.46h-.23l-.34-1.84h1v-6.22h-1.93v5.48c0,.87-.14,1.45-.42,1.76-.28.31-.81.46-1.58.46h-.95c-.76,0-1.28-.15-1.57-.46s-.42-.89-.42-1.76v-5.02c0-.85.14-1.44.41-1.75.27-.32.75-.47,1.43-.47h.21l.38,1.79h-.91Z"/>
      <path d="M90.05,46.44h-8.46v-9.07h1.49v6.99h1.85v-4.07h1.45v4.07h2.08v-7.1h1.58v9.18Z"/>
    </g>
  </g>
  <rect class="cls-1" x="94.81" y="37.39" width="102.69" height="8.13"/>
  <rect class="cls-1" x="94.81" y="52.55" width="90.69" height="8.75"/>
  <rect class="cls-1" x="94.81" y="64.83" width="98.82" height="2.06"/>
  <rect class="cls-1" x="94.81" y="81.58" width="77.67" height="1.92"/>
  <rect class="cls-1" x="94.81" y="71.88" width="94.14" height="1.66"/>
  <rect class="cls-1" x="94.81" y="88.5" width="73.61" height="7.94"/>
  <rect class="cls-1" x="94.81" y="102.9" width="102.69" height="2.06"/>
  <rect class="cls-1" x="94.81" y="117.67" width="84.93" height="2.78"/>
  <rect class="cls-1" x="94.81" y="109.95" width="102.69" height="1.88"/>
  <rect class="cls-1" x="94.81" y="126.63" width="78.01" height="7.81"/>
  <rect class="cls-1" x="94.81" y="151.08" width="73.61" height="6.09"/>
  <rect class="cls-1" x="94.81" y="159.87" width="91.84" height="2.84"/>
  <rect class="cls-1" x="94.81" y="178.43" width="95.89" height="8.11"/>
  <rect class="cls-1" x="94.81" y="201.84" width="94.14" height="1.79"/>
  <rect class="cls-1" x="94.81" y="193.07" width="102.69" height="1.55"/>
  <rect class="cls-1" x="94.81" y="207.76" width="84.93" height="2.09"/>
  <rect class="cls-1" x="94.81" y="220" width="94.14" height="9.22"/>
  <rect class="cls-1" x="94.81" y="250.61" width="73.61" height="2.39"/>
  <rect class="cls-1" x="94.81" y="244.15" width="73.61" height="2.41"/>
  <rect class="cls-1" x="94.81" y="267.72" width="60.03" height="1.8"/>
  <rect class="cls-1" x="94.81" y="258.95" width="73.61" height="1.55"/>
  <rect class="cls-1" x="94.81" y="280.4" width="60.03" height="2.87"/>
  <rect class="cls-1" x="94.81" y="273.64" width="60.03" height="2.04"/>
  <rect class="cls-1" x="94.81" y="287.9" width="51.34" height="9.22"/>
  <rect class="cls-1" x="94.81" y="309.86" width="61.59" height="2.07"/>
  <rect class="cls-1" x="94.81" y="301.31" width="57.58" height="2.09"/>
  <rect class="cls-1" x="94.81" y="318.11" width="63.82" height="8.22"/>
  <rect class="cls-1" x="94.81" y="333.88" width="45.33" height="7.27"/>
  <rect class="cls-1" x="94.81" y="348.73" width="8.67" height="7.16"/>
  <path class="cls-2" d="M121.65,388.65c.58-.46,1.4-1.35,1.43-2.6.03-1.25-.96-2.73-1.54-3.29-.58-.56-1.6-.69-2.11-.69s-.75.03-1.34.29c-.6.25-.63.66-.77.83-.15.15-.41.06-.81.06-.39.01-.53,0-.63.15-.1.17.04.74.04.74,0,0-.2.12-.35.23-.14.1-.03.3-.05.41-.05.15-.18.2-.18.2l-.15-.06c-.15-.07-.26.06-.3.26-.03.2-.21.2-.21.2,0,0-.25-.29-.38-.54-.12-.24-.18-.28-.2-.94,0-.66-.38-2.18-.4-2.85-.01-.66.2-1.69.13-2.79-.07-1.1-.47-2.09-.54-3.03-.07-.94-.24-2.33-.24-2.83,0-.5-.06-1.25-.04-1.99.02-.72.22-.96.27-1.41.06-.47,0-.45-.13-.61-.15-.16-.19-.24-.53-.4-.05-.02-.09-.04-.13-.06v-5.86h-17.69v9.22h16.32v.02s.21,1.62-.27,3.76c-.48,2.13-.23,3.62-.11,4.34.13.72.35,1.33.45,1.8.09.45.17,1.52.24,3.26.07,1.74.44,2.51.69,3,.24.49-.07.67-.21,1.59-.14.93,0,.66-.4,1.59-.38.92-1.27,1.72-1.69,2.58-.42.87-1.09,2.36-1.67,4.43-.59,2.06.03,4.12.23,4.71.19.59-.11,1.64-.06,2.81.06,1.16-.23.59-.53,2.28-.31,1.7-.71,3.34-1.1,4.57-.39,1.22-.38,1.88-.41,3.1-.04,1.2-.25,3.59-.43,4.29-.19.68.21,1.32.87,2.15.67.86.72,1.45.99,2.21.25.76.32,2.48.56,3.37.22.86.72,2.95.61,4.79-.11,1.8-.33,2.62-.33,2.62-.18.04-.44.27-.62.51-.17.21-.12.46-.36.9-.24.41-.27,1.04-.52,1.6-.26.55-.7,1.04-.78,1.82-.08.79.42,1.16,1.23,1.01.82-.16,1.77-.69,2.52-1.78.75-1.1,1.02-1.68,2.09-2.13,1.07-.46.75-.9.62-1.52-.14-.61-.48-.58-.79-.96-.3-.33-.35-.32-.46-.61-.11-.3.03-1.66.14-2.61.1-.94.3-2.75.45-3.62.15-.86,0-2.4,0-2.4,0,0,1.94,1.54,2.79,2.49.85.97,1.68,2.3,1.65,2.75,0,.44.1,1.06.2,1.46.08.4.51,1.13.31,2.07-.2.95-.04.74.37,1.61.41.86.84.03,1.34-.84.49-.83.56-2.64.65-3.05.06-.41.13-.38.4-.59.28-.21.61-.66.95-1.22.34-.56-.11-1.12-.35-1.31-.25-.18-1.73-.38-1.88-.43-.13-.03-.33-.29-.59-.6-.26-.32-.73-.82-1.73-2.35-.98-1.52-1.68-2.93-3.42-4.01-1.75-1.07-2.08-1.39-2.08-1.39l.02-.31c.02-.32.28-.57.92-1.58.64-.99.75-1.62,1.25-2.46.5-.83.72-1.56.96-1.84.24-.28.5-.52.48-.44-.02.09.26.24.67.44.4.21,1.16.23,1.64.18.48-.05.73-.31,1.11-.54.36-.24.41-.81.37-2.22-.02-1.38,0-.73-.05-1.68-.06-.95-.25-.96-.25-.96,0,0,.34-.21.93-.62.6-.44,1.66-1.5,1.96-2,.27-.49.58-1.46.92-2.24.34-.77.07-1.33-.14-2.66-.23-1.34-.82-4.06-.82-4.06,0,0,.04-.08.15-.45.11-.34-.04-.34-.24-.66-.21-.29-.13-.24-.13-.88s-.14-1.04-.25-1.42c-.14-.4-.19-.42-.22-.77-.01-.35-.29-.8-.29-.8,0,0,.51-1.03.79-1.67.27-.64.56-.6,1.15-1.07ZM118.35,402.17c-.44.99-.69,1.65-.94,2.6-.25.96-.7,1.36-.78,1.71-.07.34-.72-.56-.91-1.04-.18-.46-.08-1.2.17-2.02.24-.82.43-.95.98-1.92.54-.95,1.09-1.56,1.07-1.75,0,0,.25.72.45,1.09.19.4.4.35-.04,1.33Z"/>
</svg>