<?xml version="1.0" encoding="UTF-8"?>
<svg id="_レイヤー_1" data-name="レイヤー 1" xmlns="http://www.w3.org/2000/svg" viewBox="0 0 425.2 425.2">
  <defs>
    <style>
      .cls-1 {
        fill: #231815;
      }
    </style>
  </defs>
  <g>
    <g>
      <path class="cls-1" d="M212.41,330.07h-4.83v-10.91h4.83v10.91Z"/>
      <path class="cls-1" d="M202.66,307.62h16.11v-13.8h-16.11v-4.87h15.13c1.8,0,3.03.36,3.69,1.09.66.73,1,2.1,1,4.13v13.11c0,2.01-.33,3.38-.98,4.08-.66.71-1.89,1.06-3.71,1.06h-15.13v-4.8Z"/>
      <path class="cls-1" d="M222.47,280.14h-19.81v-3.32l13.16-16.82h-13.16v-4.37h19.81v3.34l-13.36,16.77h13.36v4.39Z"/>
      <path class="cls-1" d="M222.47,228.64h-19.81v-17.85c0-1.63.3-2.82.9-3.55.6-.73,1.58-1.1,2.94-1.1h4.66c1.35,0,2.31.37,2.91,1.1.6.73.9,1.91.9,3.55v2.72l7.5-9.43v6.93l-7.5,8.31v4.55h7.5v4.76ZM206.06,212.85v11.03h5.49v-11.03c0-.84-.12-1.41-.37-1.73-.24-.31-.66-.47-1.23-.47h-2.29c-.58,0-.99.16-1.24.47-.24.31-.37.89-.37,1.73Z"/>
      <path class="cls-1" d="M207.33,198.67c-1.8,0-3.03-.35-3.69-1.05-.66-.7-.98-2.07-.98-4.1v-15.33c0-2.04.33-3.41.98-4.11.66-.69,1.88-1.04,3.69-1.04h10.46c1.81,0,3.05.35,3.71,1.06.66.71.98,2.07.98,4.08v15.33c0,2.03-.33,3.39-.98,4.1-.66.7-1.89,1.05-3.71,1.05h-10.46ZM218.67,193.84v-15.97h-12.38v15.97h12.38Z"/>
      <path class="cls-1" d="M206.3,147.32v13.02h12.38v-13.02h-4.21l.98-4.87h2.34c1.8,0,3.03.36,3.69,1.07.66.72,1,2.09,1,4.12v12.38c0,2-.33,3.36-.98,4.07-.66.72-1.89,1.08-3.71,1.08h-10.46c-1.8,0-3.03-.36-3.69-1.06-.66-.71-.98-2.07-.98-4.08v-12.38c0-2.04.33-3.42.98-4.13.66-.71,1.88-1.06,3.69-1.06h1.92l.71,4.87h-3.66Z"/>
      <path class="cls-1" d="M222.47,134.51h-19.81v-4.87h7.53v-15.08h-7.53v-4.83h19.81v4.83h-8.35v15.08h8.35v4.87Z"/>
      <path class="cls-1" d="M222.47,100.87h-19.81v-21.26h3.5v16.38h4.33v-9.54h3.41v9.54h4.88v-16.63h3.71v21.51Z"/>
      <path class="cls-1" d="M222.47,72.39h-19.81v-17.85c0-1.63.3-2.82.9-3.55.6-.73,1.58-1.1,2.94-1.1h4.66c1.35,0,2.31.37,2.91,1.1.6.73.9,1.91.9,3.55v2.72l7.5-9.43v6.93l-7.5,8.31v4.55h7.5v4.76ZM206.06,56.6v11.03h5.49v-11.03c0-.84-.12-1.41-.37-1.73-.24-.31-.66-.47-1.23-.47h-2.29c-.58,0-.99.16-1.24.47-.24.31-.37.89-.37,1.73Z"/>
      <path class="cls-1" d="M212.41,44.1h-4.83v-10.91h4.83v10.91Z"/>
    </g>
    <g>
      <path class="cls-1" d="M227.28,322.7v5.78h5.83v-5.78h-1.98l.45-2.14h1.09c.84,0,1.41.16,1.72.48.31.32.46.92.46,1.81v5.5c0,.9-.15,1.5-.46,1.81-.31.31-.88.47-1.72.47h-4.86c-.84,0-1.41-.16-1.72-.47-.31-.31-.46-.92-.46-1.81v-5.5c0-.89.16-1.49.46-1.81.31-.32.88-.48,1.72-.48h.87l.34,2.14h-1.74Z"/>
      <path class="cls-1" d="M234.84,315.74h-7.55v-1.86h6.14v-5.92h1.41v7.78Z"/>
      <path class="cls-1" d="M234.84,304.82h-7.55v-1.83h7.55v1.83Z"/>
      <path class="cls-1" d="M234.84,298.55h-7.55v-1.47l4.48-3.7-4.48-3.68v-1.48h7.55v1.71h-5.19l4.29,3.37v.36l-4.17,3.42h5.07v1.47Z"/>
      <path class="cls-1" d="M234.84,283.78h-7.55v-6.78c0-.63.12-1.09.35-1.37.23-.28.6-.42,1.12-.42h.91c.34,0,.62.11.85.33.22.22.37.54.44.96.07-.42.23-.75.49-.99.25-.23.57-.35.96-.35h.97c.49,0,.86.2,1.11.58.25.39.37.98.37,1.76v6.28ZM228.52,277.85v4.12h1.79v-4.12c0-.32-.04-.54-.12-.65-.08-.12-.22-.17-.42-.17h-.71c-.2,0-.33.06-.41.17-.08.11-.12.33-.12.66ZM231.56,277.85v4.12h1.93v-4.12c0-.35-.05-.59-.15-.71-.1-.13-.27-.19-.52-.19h-.58c-.25,0-.43.06-.53.19-.1.13-.16.36-.16.71Z"/>
      <path class="cls-1" d="M234.84,270.98h-7.55v-1.83h7.55v1.83Z"/>
      <path class="cls-1" d="M234.84,264.72h-7.55v-1.26l5.02-6.41h-5.02v-1.66h7.55v1.27l-5.09,6.39h5.09v1.67Z"/>
      <path class="cls-1" d="M228.68,243.53v5.74h4.71v-5.74h-1.6v3h-1.35v-4.8h2.61c.69,0,1.16.14,1.41.41.25.27.37.79.37,1.56v5.46c0,.77-.12,1.29-.37,1.56-.25.27-.72.41-1.41.41h-3.98c-.68,0-1.15-.14-1.4-.41-.25-.27-.38-.79-.38-1.56v-5.46c0-.76.12-1.28.37-1.55.25-.27.69-.41,1.33-.41h.2l.3,1.81h-.81Z"/>
      <path class="cls-1" d="M234.84,227.3c0,.9-.16,1.51-.46,1.83-.31.32-.88.48-1.72.48h-.61c-.4,0-.71-.07-.94-.21-.23-.14-.49-.45-.78-.94l-1.13-1.87c-.23.27-.46.47-.67.6-.22.12-.46.19-.72.19h-.51c-.61,0-1.04-.17-1.3-.51-.26-.34-.39-.93-.39-1.78v-1.86c0-.89.14-1.49.4-1.81.27-.32.75-.48,1.46-.48h.56l.28,1.67h-1.23v3.02h.66l3.61-4.34-1.79-2.14,1.05-1.22,1.76,2.13,2.45-2.91v2.81l-1.28,1.52.73.82c.21.24.35.48.43.69.08.22.12.57.12,1.04v3.28ZM233.24,227.8v-4.27l-.73-.85-2.3,2.76,1.46,2.36h1.58Z"/>
      <path class="cls-1" d="M227.28,197.36v5.78h5.83v-5.78h-1.98l.45-2.14h1.09c.84,0,1.41.16,1.72.48.31.32.46.92.46,1.81v5.5c0,.9-.15,1.5-.46,1.81-.31.31-.88.47-1.72.47h-4.86c-.84,0-1.41-.16-1.72-.47-.31-.31-.46-.92-.46-1.81v-5.5c0-.89.16-1.49.46-1.81.31-.32.88-.48,1.72-.48h.87l.34,2.14h-1.74Z"/>
      <path class="cls-1" d="M234.84,191.55l-7.55-4.48v-1.77l7.55-4.55v2.07l-1.66.95v4.99l1.66.95v1.84ZM231.81,187.97v-3.46l-3.15,1.76,3.15,1.7Z"/>
      <path class="cls-1" d="M234.84,177.79h-7.55v-8.01h1.35v6.16h1.97v-3.31h1.4v3.31h2.83v1.86Z"/>
      <path class="cls-1" d="M234.84,166.9h-7.55v-8.1h1.34v6.24h1.64v-3.64h1.3v3.64h1.85v-6.34h1.41v8.19Z"/>
      <path class="cls-1" d="M234.84,144.97l-7.55,3.07v-1.93l5.27-1.98-5.27-2.13v-1.26l5.27-2.11-5.27-1.94v-1.66l7.55,3.03v1.26l-5.33,2.18,5.33,2.21v1.26Z"/>
      <path class="cls-1" d="M234.84,132.99l-7.55-4.48v-1.77l7.55-4.55v2.07l-1.66.95v4.99l1.66.95v1.84ZM231.81,129.41v-3.46l-3.15,1.76,3.15,1.7Z"/>
      <path class="cls-1" d="M234.84,119.23h-7.55v-6.8c0-.62.12-1.07.35-1.35.23-.28.6-.42,1.12-.42h1.78c.51,0,.88.14,1.11.42.23.28.34.73.34,1.35v1.04l2.86-3.59v2.64l-2.86,3.16v1.74h2.86v1.81ZM228.59,113.22v4.2h2.09v-4.2c0-.32-.04-.54-.14-.66-.09-.12-.25-.18-.47-.18h-.87c-.22,0-.38.06-.47.18-.1.12-.14.34-.14.66Z"/>
      <path class="cls-1" d="M234.84,106.56h-7.55v-8.1h1.34v6.24h1.64v-3.64h1.3v3.64h1.85v-6.34h1.41v8.19Z"/>
      <path class="cls-1" d="M234.84,94.64h-7.55v-1.86h2.87v-5.75h-2.87v-1.84h7.55v1.84h-3.18v5.75h3.18v1.86Z"/>
      <path class="cls-1" d="M229.07,80.94c-.68,0-1.15-.13-1.4-.4-.25-.27-.38-.79-.38-1.56v-5.84c0-.78.13-1.3.38-1.57.25-.26.72-.4,1.4-.4h3.98c.69,0,1.16.14,1.41.41.25.27.37.79.37,1.56v5.84c0,.77-.12,1.29-.37,1.56-.25.27-.72.4-1.41.4h-3.98ZM233.39,79.09v-6.08h-4.71v6.08h4.71Z"/>
      <path class="cls-1" d="M227.29,65.09h6.14v-5.26h-6.14v-1.86h5.76c.68,0,1.15.14,1.41.41.25.28.38.8.38,1.57v5c0,.77-.12,1.29-.37,1.56-.25.27-.72.41-1.41.41h-5.76v-1.83Z"/>
      <path class="cls-1" d="M228.65,46.57v5.19h1.6v-4.92c0-.77.12-1.29.37-1.56.25-.27.72-.4,1.41-.4h1.04c.69,0,1.16.14,1.41.41.25.27.37.79.37,1.55v4.9c0,.78-.12,1.31-.37,1.58-.25.28-.72.41-1.41.41h-.21l-.3-1.64h.89v-5.55h-1.72v4.89c0,.77-.13,1.3-.38,1.57-.25.27-.72.41-1.41.41h-.85c-.68,0-1.15-.14-1.4-.41-.25-.27-.38-.8-.38-1.57v-4.48c0-.76.12-1.28.36-1.56.24-.28.67-.42,1.28-.42h.18l.34,1.6h-.81Z"/>
      <path class="cls-1" d="M234.84,40.64h-7.55v-8.1h1.34v6.24h1.64v-3.64h1.3v3.64h1.85v-6.34h1.41v8.19Z"/>
    </g>
  </g>
  <path class="cls-1" d="M213.56,398.05c-.26-.57-.29-1.21-.53-1.63-.25-.44-.19-.7-.37-.91-.18-.24-.44-.47-.63-.52,0,0-.22-.83-.33-2.66-.11-1.86.4-3.99.62-4.87.24-.91.31-2.65.57-3.43.28-.77.32-1.37,1.01-2.24.67-.85,1.08-1.5.89-2.19-.19-.71-.4-3.14-.44-4.36-.03-1.24-.02-1.91-.41-3.15-.4-1.25-.8-2.92-1.12-4.64-.3-1.72-.59-1.14-.54-2.32.06-1.18-.25-2.25-.06-2.85.2-.59.83-2.69.23-4.78-.59-2.1-1.27-3.61-1.7-4.5-.42-.88-1.33-1.69-1.72-2.62-.41-.94-.27-.67-.41-1.62-.14-.93-.46-1.12-.21-1.62.26-.5.64-1.27.7-3.05.07-1.77.15-2.85.24-3.32.1-.47.33-1.1.46-1.83.12-.74.38-2.25-.11-4.41-.49-2.18-.27-3.82-.27-3.82l-1.3-3.4s-.18-.46-.33-.13c-.16.35-.29.39-.44.55-.14.16-.19.14-.13.62.06.46.26.7.28,1.43.02.75-.05,1.51-.04,2.02,0,.52-.17,1.92-.24,2.88-.07.96-.48,1.97-.55,3.08-.07,1.12.14,2.16.13,2.84-.02.68-.4,2.22-.41,2.9-.02.67-.09.72-.2.96-.14.26-.39.55-.39.55,0,0-.18,0-.21-.2-.04-.21-.15-.34-.3-.27l-.15.06s-.14-.06-.19-.21c-.03-.11.09-.31-.05-.41-.15-.11-.35-.23-.35-.23,0,0,.15-.57.05-.75-.1-.16-.24-.14-.64-.15-.41,0-.67.09-.82-.06-.15-.17-.18-.58-.78-.84-.6-.27-.83-.3-1.36-.3s-1.55.13-2.14.7c-.59.57-1.6,2.08-1.57,3.34.04,1.27.87,2.17,1.46,2.64.6.48.9.44,1.17,1.09.29.66.81,1.7.81,1.7,0,0-.29.45-.3.81-.03.36-.08.38-.22.78-.11.39-.25.79-.25,1.44s.08.6-.13.9c-.19.32-.35.32-.24.67.11.37.15.45.15.45,0,0-.6,2.76-.83,4.13-.22,1.36-.49,1.92-.15,2.71.34.79.65,1.78.93,2.28.3.51,1.38,1.59,1.99,2.03.61.42.95.63.95.63,0,0-.19,0-.25.98-.05.97-.04.31-.05,1.71-.04,1.43.02,2.01.38,2.25.39.23.63.5,1.13.55.49.05,1.26.03,1.67-.19.42-.21.7-.36.68-.45-.02-.08.25.17.49.45.25.28.47,1.03.98,1.87.51.86.63,1.5,1.27,2.5.65,1.02.92,1.28.93,1.61l.02.31s-.34.32-2.12,1.41c-1.77,1.1-2.48,2.53-3.48,4.07-1.01,1.56-1.49,2.07-1.75,2.39-.27.31-.46.58-.6.61-.16.05-1.65.25-1.91.43-.25.19-.7.76-.36,1.33.34.56.69,1.02.97,1.24.28.21.34.18.41.6.08.42.16,2.25.66,3.1.51.88.95,1.73,1.37.85.42-.89.58-.67.38-1.64-.21-.95.23-1.7.31-2.1.1-.41.21-1.04.21-1.49-.03-.46.82-1.81,1.68-2.8.87-.97,2.84-2.53,2.84-2.53,0,0-.16,1.56,0,2.44.15.89.36,2.72.46,3.68.11.96.25,2.34.14,2.65-.11.3-.17.29-.47.62-.31.38-.66.35-.8.97-.14.63-.46,1.07.63,1.54,1.09.45,1.36,1.04,2.12,2.16.76,1.11,1.73,1.64,2.56,1.81.83.16,1.34-.22,1.25-1.02-.08-.78-.53-1.28-.79-1.85M204.77,365.41c-.19.49-.85,1.4-.92,1.06-.08-.35-.54-.77-.8-1.74-.26-.96-.51-1.63-.96-2.64-.44-.99-.23-.95-.04-1.35.19-.38.45-1.11.45-1.11-.02.19.54.81,1.09,1.78.56.99.75,1.12,1,1.95.26.83.36,1.58.18,2.05"/>
</svg>