<?xml version="1.0" encoding="UTF-8"?>
<svg id="_レイヤー_1" data-name="レイヤー 1" xmlns="http://www.w3.org/2000/svg" viewBox="0 0 850.39 850.39">
  <defs>
    <style>
      .cls-1 {
        fill: #231815;
      }

      .cls-2 {
        fill: none;
        stroke: #231815;
        stroke-linecap: round;
        stroke-linejoin: round;
        stroke-width: 3.04px;
      }
    </style>
  </defs>
  <g>
    <line class="cls-2" x1="299.53" y1="272.72" x2="243.52" y2="293.41"/>
    <line class="cls-2" x1="338.38" y1="337.18" x2="261.52" y2="401.61"/>
    <line class="cls-2" x1="243.52" y1="293.41" x2="183.25" y2="392.33"/>
    <line class="cls-2" x1="183.25" y1="392.33" x2="261.52" y2="401.61"/>
    <line class="cls-2" x1="261.52" y1="401.61" x2="219.75" y2="426.63"/>
    <line class="cls-2" x1="219.75" y1="426.63" x2="183.25" y2="392.33"/>
    <line class="cls-2" x1="183.25" y1="392.33" x2="145.99" y2="417.72"/>
    <line class="cls-2" x1="219.75" y1="426.63" x2="145.99" y2="417.72"/>
    <line class="cls-2" x1="145.99" y1="417.72" x2="189.65" y2="456.75"/>
    <line class="cls-2" x1="189.65" y1="456.75" x2="219.75" y2="426.63"/>
    <line class="cls-2" x1="219.75" y1="426.63" x2="270.08" y2="450.85"/>
    <line class="cls-2" x1="270.08" y1="450.85" x2="330.76" y2="471.06"/>
    <line class="cls-2" x1="330.76" y1="471.06" x2="396.7" y2="445.74"/>
    <line class="cls-2" x1="396.7" y1="445.74" x2="464.08" y2="445.74"/>
    <line class="cls-2" x1="464.08" y1="445.74" x2="491.88" y2="380.26"/>
    <line class="cls-2" x1="491.88" y1="380.26" x2="520.55" y2="332.45"/>
    <line class="cls-2" x1="520.55" y1="332.45" x2="449.14" y2="300.15"/>
    <line class="cls-2" x1="449.14" y1="300.15" x2="491.88" y2="380.26"/>
    <line class="cls-2" x1="491.88" y1="380.26" x2="417.59" y2="369.4"/>
    <line class="cls-2" x1="417.59" y1="369.4" x2="449.14" y2="300.15"/>
    <line class="cls-2" x1="417.59" y1="369.4" x2="338.38" y2="337.18"/>
    <line class="cls-2" x1="261.52" y1="401.61" x2="356.11" y2="397.76"/>
    <line class="cls-2" x1="356.11" y1="397.76" x2="338.38" y2="337.18"/>
    <line class="cls-2" x1="356.11" y1="397.76" x2="417.59" y2="369.4"/>
    <line class="cls-2" x1="261.52" y1="401.61" x2="270.08" y2="450.85"/>
    <line class="cls-2" x1="330.76" y1="471.06" x2="261.52" y2="401.61"/>
    <line class="cls-2" x1="356.11" y1="397.76" x2="330.76" y2="471.06"/>
    <line class="cls-2" x1="356.11" y1="397.76" x2="396.7" y2="445.74"/>
    <line class="cls-2" x1="464.08" y1="445.74" x2="417.59" y2="369.4"/>
    <line class="cls-2" x1="417.59" y1="369.4" x2="396.7" y2="445.74"/>
    <line class="cls-2" x1="510.89" y1="202.58" x2="560.38" y2="277.47"/>
    <line class="cls-2" x1="560.38" y1="277.47" x2="449.14" y2="300.15"/>
    <line class="cls-2" x1="520.55" y1="332.45" x2="560.38" y2="277.47"/>
    <line class="cls-2" x1="560.38" y1="277.47" x2="561.13" y2="339.11"/>
    <line class="cls-2" x1="561.13" y1="339.11" x2="520.55" y2="332.45"/>
    <line class="cls-2" x1="491.88" y1="380.26" x2="561.13" y2="339.11"/>
    <line class="cls-2" x1="561.13" y1="339.11" x2="579.43" y2="368.72"/>
    <line class="cls-2" x1="579.43" y1="368.72" x2="491.88" y2="380.26"/>
    <line class="cls-2" x1="491.88" y1="380.26" x2="555.44" y2="417.72"/>
    <line class="cls-2" x1="555.44" y1="417.72" x2="579.43" y2="368.72"/>
    <line class="cls-2" x1="555.44" y1="417.72" x2="464.08" y2="445.74"/>
    <line class="cls-2" x1="464.08" y1="445.74" x2="471.52" y2="461.03"/>
    <line class="cls-2" x1="464.08" y1="445.74" x2="402.39" y2="483.36"/>
    <line class="cls-2" x1="330.76" y1="471.06" x2="333.9" y2="487.35"/>
    <line class="cls-2" x1="330.76" y1="471.06" x2="402.39" y2="483.36"/>
    <line class="cls-2" x1="330.76" y1="471.06" x2="263.56" y2="481.34"/>
    <line class="cls-2" x1="263.56" y1="481.34" x2="270.08" y2="450.85"/>
    <line class="cls-2" x1="189.65" y1="456.75" x2="211.45" y2="485.37"/>
    <line class="cls-2" x1="211.45" y1="485.37" x2="266.88" y2="505.01"/>
    <line class="cls-2" x1="333.9" y1="487.35" x2="263.56" y2="481.34"/>
    <line class="cls-2" x1="183.25" y1="392.33" x2="240.64" y2="325.89"/>
    <line class="cls-2" x1="240.64" y1="325.89" x2="261.52" y2="401.61"/>
    <line class="cls-2" x1="240.64" y1="325.89" x2="243.52" y2="293.41"/>
    <line class="cls-2" x1="240.64" y1="325.89" x2="299.53" y2="272.72"/>
    <line class="cls-2" x1="299.53" y1="272.72" x2="378" y2="259.68"/>
    <line class="cls-2" x1="378" y1="259.68" x2="405.69" y2="208.28"/>
    <line class="cls-2" x1="405.69" y1="208.28" x2="349.89" y2="225.93"/>
    <line class="cls-2" x1="349.89" y1="225.93" x2="378" y2="259.68"/>
    <line class="cls-2" x1="349.89" y1="225.93" x2="299.53" y2="272.72"/>
    <line class="cls-2" x1="243.52" y1="293.41" x2="349.89" y2="225.93"/>
    <line class="cls-2" x1="299.53" y1="272.72" x2="344.23" y2="291.81"/>
    <line class="cls-2" x1="344.23" y1="291.81" x2="338.38" y2="337.18"/>
    <line class="cls-2" x1="344.23" y1="291.81" x2="240.64" y2="325.89"/>
    <line class="cls-2" x1="240.64" y1="325.89" x2="338.38" y2="337.18"/>
    <line class="cls-2" x1="338.38" y1="337.18" x2="449.14" y2="300.15"/>
    <line class="cls-2" x1="344.23" y1="291.81" x2="378" y2="259.68"/>
    <line class="cls-2" x1="378" y1="259.68" x2="449.14" y2="300.15"/>
    <line class="cls-2" x1="449.14" y1="300.15" x2="344.23" y2="291.81"/>
    <line class="cls-2" x1="490.51" y1="226.72" x2="408.89" y2="208.28"/>
    <line class="cls-2" x1="490.51" y1="226.72" x2="560.38" y2="277.47"/>
    <line class="cls-2" x1="490.51" y1="226.72" x2="378" y2="259.68"/>
    <line class="cls-2" x1="490.51" y1="226.72" x2="449.14" y2="300.15"/>
    <line class="cls-2" x1="405.69" y1="208.28" x2="485.67" y2="208.28"/>
    <line class="cls-2" x1="485.67" y1="208.28" x2="490.51" y2="226.72"/>
    <line class="cls-2" x1="485.67" y1="208.28" x2="510.89" y2="202.58"/>
    <line class="cls-2" x1="219.75" y1="426.63" x2="263.56" y2="481.34"/>
    <line class="cls-2" x1="189.65" y1="456.75" x2="263.56" y2="481.34"/>
    <line class="cls-2" x1="263.56" y1="481.34" x2="266.88" y2="505.01"/>
    <line class="cls-2" x1="211.45" y1="485.37" x2="263.56" y2="481.34"/>
    <line class="cls-2" x1="333.9" y1="487.35" x2="402.39" y2="483.36"/>
    <line class="cls-2" x1="402.39" y1="483.36" x2="396.7" y2="445.74"/>
    <line class="cls-2" x1="490.51" y1="226.72" x2="510.89" y2="202.58"/>
  </g>
  <path class="cls-1" d="M151.04,492.12c-.26-.57-.31-1.27-.55-1.71-.27-.45-.21-.74-.38-.97-.21-.24-.47-.5-.66-.54,0,0-.26-.86-.36-2.8-.13-1.96.41-4.21.65-5.13.24-.95.31-2.8.6-3.61.28-.8.34-1.44,1.05-2.38.7-.89,1.13-1.57.94-2.31-.19-.74-.43-3.31-.47-4.6-.04-1.3-.02-2.01-.44-3.32-.43-1.32-.85-3.09-1.17-4.92-.34-1.81-.63-1.18-.57-2.44.06-1.25-.27-2.38-.06-3.01.19-.62.86-2.84.24-5.04-.63-2.22-1.35-3.82-1.8-4.74-.45-.92-1.41-1.8-1.82-2.78-.43-.98-.28-.72-.43-1.71-.14-.97-.48-1.18-.21-1.7.27-.53.64-1.34.72-3.23.09-1.86.17-2.99.27-3.48.11-.5.36-1.17.49-1.94.12-.78.4-2.38-.11-4.66-.52-2.28-.29-4.03-.29-4.03l-1.36-3.58s-.21-.5-.38-.15c-.16.37-.28.41-.44.6-.17.16-.21.13-.15.64.05.5.26.73.29,1.53.02.77-.05,1.57-.03,2.13,0,.53-.18,2.01-.26,3.03-.07,1.02-.51,2.06-.59,3.25-.07,1.18.16,2.28.14,3,0,.73-.41,2.34-.43,3.08-.03.7-.08.73-.21.99-.15.29-.41.6-.41.6,0,0-.19,0-.23-.23-.04-.22-.16-.35-.33-.29l-.15.07s-.15-.07-.21-.21c-.03-.13.09-.35-.07-.45-.14-.12-.35-.24-.35-.24,0,0,.16-.6.05-.79-.11-.18-.26-.15-.69-.15s-.7.09-.86-.08c-.17-.18-.18-.6-.82-.89-.64-.28-.89-.31-1.45-.31s-1.64.15-2.26.75c-.6.61-1.67,2.2-1.64,3.53.03,1.34.91,2.29,1.54,2.79.62.51.95.46,1.23,1.17.3.67.85,1.78.85,1.78,0,0-.29.47-.31.86-.02.38-.09.39-.22.82-.13.41-.27.84-.27,1.52s.09.63-.12.95c-.2.33-.37.33-.27.7.11.38.17.47.17.47,0,0-.63,2.91-.88,4.36-.24,1.44-.5,2.02-.15,2.86.36.84.7,1.86.98,2.41.31.54,1.47,1.68,2.11,2.13.64.45.99.68.99.68,0,0-.19,0-.27,1.02-.04,1.02-.02.33-.04,1.82-.04,1.5.02,2.11.4,2.38.4.24.65.53,1.18.57.52.05,1.34.03,1.77-.21.44-.21.74-.36.71-.47-.02-.09.26.19.53.47.25.31.49,1.08,1.02,1.98.54.89.69,1.6,1.36,2.65.68,1.07.96,1.34.99,1.69l.02.34s-.36.32-2.24,1.48c-1.87,1.16-2.62,2.67-3.67,4.3-1.05,1.63-1.56,2.17-1.86,2.51-.27.34-.47.63-.61.64-.18.05-1.77.26-2.02.47-.27.19-.73.79-.4,1.4.37.6.72,1.09,1.03,1.31.29.22.35.2.43.65.08.44.16,2.36.69,3.27.53.92,1.01,1.81,1.43.88.45-.94.61-.71.41-1.71-.23-1.01.24-1.8.32-2.22.11-.44.22-1.11.21-1.57-.02-.5.86-1.92,1.79-2.96.92-1.03,2.99-2.68,2.99-2.68,0,0-.16,1.65,0,2.57.15.95.39,2.87.49,3.87.11,1.05.26,2.49.14,2.83-.11.3-.16.27-.48.64-.32.39-.7.37-.86,1.02-.16.67-.49,1.12.67,1.63,1.15.5,1.43,1.1,2.23,2.28.79,1.16,1.82,1.74,2.7,1.91.88.15,1.42-.23,1.33-1.08-.08-.83-.57-1.36-.84-1.96M141.75,457.7c-.19.5-.89,1.47-.97,1.12-.08-.37-.55-.82-.84-1.83-.26-1.02-.53-1.76-1.01-2.8-.47-1.05-.24-1.02-.03-1.43.19-.41.47-1.16.47-1.16,0,.19.57.84,1.17,1.88.58,1.03.79,1.17,1.05,2.04.26.89.37,1.68.17,2.18"/>
  <polygon class="cls-1" points="471.52 461.03 402.39 483.36 333.9 487.35 266.88 505.01 242.08 495.18 231.65 510.18 271.53 520.8 334.02 520.8 399.05 506.41 485.67 503.09 579.43 510.18 639.21 500.83 692.46 500.83 696.88 467.72 724.49 453.37 710.13 422.18 649.52 396.97 600.73 405.02 560.76 406.86 555.44 417.72 471.52 461.03"/>
  <path class="cls-1" d="M555.44,417.72l5.32-10.86-5.32,10.86Z"/>
  <g>
    <path class="cls-1" d="M133.64,544.51v-9.66h21.83v9.66h-21.83Z"/>
    <path class="cls-1" d="M178.53,525.02v32.22h27.6v-32.22h9.75v30.25c0,3.6-.73,6.06-2.17,7.39-1.45,1.33-4.2,1.99-8.26,1.99h-26.22c-4.03,0-6.75-.66-8.17-1.97-1.42-1.31-2.13-3.78-2.13-7.41v-30.25h9.61Z"/>
    <path class="cls-1" d="M233.49,564.65v-39.63h6.64l33.64,26.31v-26.31h8.74v39.63h-6.68l-33.54-26.73v26.73h-8.79Z"/>
    <path class="cls-1" d="M336.51,564.65v-39.63h35.7c3.26,0,5.63.6,7.09,1.81,1.46,1.21,2.2,3.17,2.2,5.88v9.34c0,2.69-.73,4.62-2.2,5.81-1.46,1.19-3.83,1.78-7.09,1.78h-5.45l18.85,15.01h-13.87l-16.61-15.01h-9.11v15.01h-9.52ZM368.08,531.84h-22.06v10.98h22.06c1.68,0,2.83-.24,3.46-.73.62-.49.94-1.31.94-2.47v-4.58c0-1.16-.31-1.98-.94-2.47s-1.78-.73-3.46-.73Z"/>
    <path class="cls-1" d="M396.46,534.35c0-3.6.7-6.06,2.11-7.37s4.13-1.97,8.19-1.97h30.66c4.09,0,6.83.66,8.21,1.97,1.39,1.31,2.08,3.77,2.08,7.37v20.91c0,3.63-.71,6.1-2.13,7.41-1.42,1.31-4.14,1.97-8.17,1.97h-30.66c-4.06,0-6.79-.66-8.19-1.97-1.4-1.31-2.11-3.78-2.11-7.41v-20.91ZM406.11,557.05h31.94v-24.76h-31.94v24.76Z"/>
    <path class="cls-1" d="M499.15,532.29h-26.04v24.76h26.04v-8.42l9.75,1.97v4.67c0,3.6-.72,6.06-2.15,7.39-1.43,1.33-4.18,1.99-8.24,1.99h-24.76c-4,0-6.71-.66-8.15-1.97-1.43-1.31-2.15-3.78-2.15-7.41v-20.91c0-3.6.71-6.06,2.13-7.37,1.42-1.31,4.14-1.97,8.17-1.97h24.76c4.09,0,6.84.66,8.26,1.97s2.13,3.77,2.13,7.37v3.84l-9.75,1.42v-7.32Z"/>
    <path class="cls-1" d="M524.78,564.65v-39.63h9.75v15.06h30.16v-15.06h9.66v39.63h-9.66v-16.7h-30.16v16.7h-9.75Z"/>
    <path class="cls-1" d="M592.05,564.65v-39.63h42.51v7h-32.77v8.65h19.08v6.82h-19.08v9.75h33.27v7.41h-43.02Z"/>
    <path class="cls-1" d="M649.03,564.65v-39.63h35.7c3.26,0,5.63.6,7.09,1.81,1.46,1.21,2.2,3.17,2.2,5.88v9.34c0,2.69-.73,4.62-2.2,5.81-1.46,1.19-3.83,1.78-7.09,1.78h-5.45l18.85,15.01h-13.87l-16.61-15.01h-9.11v15.01h-9.52ZM680.6,531.84h-22.06v10.98h22.06c1.68,0,2.83-.24,3.46-.73.62-.49.94-1.31.94-2.47v-4.58c0-1.16-.31-1.98-.94-2.47s-1.78-.73-3.46-.73Z"/>
    <path class="cls-1" d="M705.59,544.51v-9.66h21.83v9.66h-21.83Z"/>
  </g>
  <g>
    <path class="cls-1" d="M147.13,574.28h-11.56v11.66h11.56v-3.96l4.29.89v2.18c0,1.69-.32,2.83-.95,3.44-.63.61-1.84.92-3.62.92h-11c-1.79,0-3-.3-3.63-.92-.63-.61-.94-1.76-.94-3.44v-9.71c0-1.67.31-2.82.94-3.43.63-.62,1.84-.92,3.63-.92h11c1.78,0,2.98.31,3.62.92.63.62.95,1.76.95,3.43v1.74l-4.29.68v-3.49Z"/>
    <path class="cls-1" d="M161.06,589.41v-15.1h3.71v12.27h11.84v2.82h-15.55Z"/>
    <path class="cls-1" d="M182.9,589.41v-15.1h3.66v15.1h-3.66Z"/>
    <path class="cls-1" d="M195.43,589.41v-15.1h2.95l7.39,8.96,7.36-8.96h2.96v15.1h-3.42v-10.39l-6.75,8.58h-.71l-6.83-8.33v10.15h-2.95Z"/>
    <path class="cls-1" d="M224.96,589.41v-15.1h13.56c1.27,0,2.18.23,2.74.69.56.46.84,1.21.84,2.24v1.81c0,.69-.22,1.25-.66,1.69s-1.08.74-1.92.89c.85.14,1.51.46,1.98.97.47.51.71,1.14.71,1.91v1.94c0,.99-.39,1.73-1.17,2.22-.78.49-1.95.74-3.52.74h-12.55ZM236.84,576.77h-8.25v3.57h8.25c.64,0,1.08-.08,1.31-.24.23-.16.35-.44.35-.84v-1.43c0-.4-.11-.67-.34-.83-.23-.16-.67-.24-1.32-.24ZM236.84,582.84h-8.25v3.85h8.25c.7,0,1.17-.1,1.42-.3.25-.2.38-.55.38-1.05v-1.15c0-.5-.12-.85-.38-1.05s-.72-.31-1.42-.31Z"/>
    <path class="cls-1" d="M250.57,589.41v-15.1h3.66v15.1h-3.66Z"/>
    <path class="cls-1" d="M263.11,589.41v-15.1h2.53l12.81,10.03v-10.03h3.33v15.1h-2.54l-12.78-10.18v10.18h-3.35Z"/>
    <path class="cls-1" d="M305.47,577.09h-11.49v9.43h11.49v-3.21h-6v-2.68h9.61v5.21c0,1.38-.27,2.33-.81,2.82-.54.5-1.58.75-3.11.75h-10.93c-1.53,0-2.57-.25-3.11-.75-.54-.5-.81-1.44-.81-2.82v-7.97c0-1.37.27-2.31.81-2.81.54-.5,1.58-.75,3.11-.75h10.93c1.52,0,2.56.24,3.1.73.55.49.82,1.37.82,2.65v.4l-3.61.61v-1.62Z"/>
    <path class="cls-1" d="M337.95,589.41c-1.8,0-3.02-.31-3.66-.92-.64-.62-.96-1.76-.96-3.43v-1.2c0-.8.14-1.43.41-1.88.27-.45.9-.97,1.88-1.55l3.75-2.25c-.55-.46-.94-.92-1.19-1.35-.25-.44-.38-.92-.38-1.44v-1.03c0-1.22.34-2.09,1.01-2.6.67-.51,1.86-.77,3.56-.77h3.71c1.78,0,2.99.27,3.63.8.64.53.96,1.5.96,2.91v1.12l-3.33.56v-2.46h-6.03v1.33l8.68,7.22,4.27-3.57,2.44,2.11-4.25,3.52,5.82,4.9h-5.61l-3.03-2.56-1.64,1.46c-.49.42-.95.71-1.39.86s-1.13.24-2.08.24h-6.56ZM336.94,586.2h8.54l1.71-1.46-5.53-4.6-4.72,2.91v3.16Z"/>
    <path class="cls-1" d="M397.83,574.28h-11.56v11.66h11.56v-3.96l4.29.89v2.18c0,1.69-.32,2.83-.95,3.44-.63.61-1.84.92-3.62.92h-11c-1.79,0-3-.3-3.63-.92-.63-.61-.94-1.76-.94-3.44v-9.71c0-1.67.31-2.82.94-3.43.63-.62,1.84-.92,3.63-.92h11c1.78,0,2.98.31,3.62.92.63.62.95,1.76.95,3.43v1.74l-4.29.68v-3.49Z"/>
    <path class="cls-1" d="M409.46,589.41l8.96-15.1h3.54l9.1,15.1h-4.13l-1.9-3.31h-9.99l-1.9,3.31h-3.68ZM416.61,583.34h6.92l-3.52-6.29-3.4,6.29Z"/>
    <path class="cls-1" d="M436.97,589.41v-15.1h16.02v2.7h-12.31v3.94h6.62v2.81h-6.62v5.65h-3.71Z"/>
    <path class="cls-1" d="M458.74,589.41v-15.1h16.2v2.67h-12.48v3.29h7.27v2.6h-7.27v3.71h12.67v2.82h-16.39Z"/>
    <path class="cls-1" d="M502.62,589.41l-6.14-15.1h3.85l3.96,10.53,4.25-10.53h2.53l4.22,10.53,3.89-10.53h3.33l-6.07,15.1h-2.51l-4.36-10.67-4.43,10.67h-2.53Z"/>
    <path class="cls-1" d="M526.57,589.41l8.96-15.1h3.54l9.1,15.1h-4.13l-1.9-3.31h-9.99l-1.9,3.31h-3.68ZM533.72,583.34h6.92l-3.52-6.29-3.4,6.29Z"/>
    <path class="cls-1" d="M554.08,589.41v-15.1h13.6c1.24,0,2.14.23,2.7.69.56.46.84,1.21.84,2.24v3.56c0,1.02-.28,1.76-.84,2.21s-1.46.68-2.7.68h-2.08l7.18,5.72h-5.28l-6.33-5.72h-3.47v5.72h-3.63ZM566.11,576.91h-8.4v4.18h8.4c.64,0,1.08-.09,1.32-.28.24-.19.36-.5.36-.94v-1.74c0-.44-.12-.75-.36-.94-.24-.19-.68-.28-1.32-.28Z"/>
    <path class="cls-1" d="M579.43,589.41v-15.1h16.2v2.67h-12.48v3.29h7.27v2.6h-7.27v3.71h12.67v2.82h-16.39Z"/>
    <path class="cls-1" d="M603.27,589.41v-15.1h3.71v5.74h11.49v-5.74h3.68v15.1h-3.68v-6.36h-11.49v6.36h-3.71Z"/>
    <path class="cls-1" d="M630.68,577.87c0-1.37.27-2.31.8-2.81.53-.5,1.58-.75,3.12-.75h11.68c1.56,0,2.6.25,3.13.75.53.5.79,1.44.79,2.81v7.97c0,1.38-.27,2.33-.81,2.82-.54.5-1.58.75-3.11.75h-11.68c-1.55,0-2.59-.25-3.12-.75-.54-.5-.8-1.44-.8-2.82v-7.97ZM634.36,586.52h12.17v-9.43h-12.17v9.43Z"/>
    <path class="cls-1" d="M662.37,574.31v12.27h10.51v-12.27h3.71v11.52c0,1.37-.28,2.31-.83,2.82-.55.51-1.6.76-3.15.76h-9.99c-1.54,0-2.57-.25-3.11-.75-.54-.5-.81-1.44-.81-2.82v-11.52h3.66Z"/>
    <path class="cls-1" d="M699.4,577.02h-10.39v3.19h9.83c1.54,0,2.59.25,3.12.74.54.49.8,1.43.8,2.82v2.07c0,1.38-.27,2.33-.82,2.82-.55.5-1.58.75-3.1.75h-9.8c-1.56,0-2.61-.25-3.16-.75-.55-.5-.83-1.44-.83-2.82v-.42l3.28-.61v1.78h11.11v-3.45h-9.78c-1.55,0-2.59-.25-3.14-.76-.55-.5-.82-1.44-.82-2.82v-1.69c0-1.36.27-2.29.82-2.8.55-.51,1.59-.76,3.14-.76h8.96c1.52,0,2.57.24,3.13.72s.85,1.33.85,2.55v.37l-3.19.68v-1.62Z"/>
    <path class="cls-1" d="M711.27,589.41v-15.1h16.2v2.67h-12.48v3.29h7.27v2.6h-7.27v3.71h12.67v2.82h-16.39Z"/>
  </g>
</svg>