<?xml version="1.0" encoding="UTF-8"?>
<svg id="_レイヤー_1" data-name="レイヤー 1" xmlns="http://www.w3.org/2000/svg" viewBox="0 0 372.91 310.8">
  <defs>
    <style>
      .cls-1 {
        fill: #231815;
      }
    </style>
  </defs>
  <g>
    <path d="M332.8,248.99c-.55,0-1.12-.08-1.66.01-1.47.26-2.28-.46-3.07-1.62-.82-1.2-1.81-2.36-2.95-3.25-.95-.74-1.68-1.67-2.61-2.41-.85-.68-1.73-1.32-2.56-2.02-1.05-.88-2.07-1.8-3.1-2.69-.15-.13-.3-.26-.47-.37-1.39-.96-2.71-2.03-4.19-2.83-.83-.45-1.69-.85-2.53-1.3-.75-.4-1.7-.42-2.56-.62-1.28-.3-2.55-.68-3.84-.9-.93-.16-1.69-.96-2.72-.64-.38.12-.8.16-1.12.37-.58.38-1.14.83-1.64,1.31-.31.29.08,1.03.51,1.09.85.12,1.71.2,2.56.37,1.3.26,2.59.6,3.89.87,1.63.33,3.3.53,4.9.98.46.13.92.89,1.06,1.45.34,1.35.48,2.74.73,4.11.19,1.05-.54,1.93-1.6,1.88-.13,0-.32-.08-.36-.18-.33-.82-1.07-.71-1.74-.85-1.15-.23-2.27-.62-3.41-.84-1-.19-2.03-.23-3.05-.37-.59-.08-1.31.55-1.8-.37-.09-.17-.9-.12-1.26.07-.41.22-.72.25-1.16.15-.27-.06-.6.16-.91.22-.81.15-1.57.62-2.46.22-.24-.11-.64.12-.97.19-.58.12-1.17.19-1.74.35-2.49.69-4.99,1.32-7.44,2.14-1.17.39-2.23,1.12-3.34,1.71-.07.04-.15.2-.13.22.07.08.21.19.27.17,1.19-.44,2.43.04,3.69-.3.91-.24,2.01-.3,2.99-.48.73-.13,1.72.11,2.24-.78.05-.08.27-.09.41-.09.86,0,1.88.28,2.53-.08.61-.34.96-.07,1.44-.1,1.04-.05,2.08-.26,3.1-.46.21-.04.37-.35.55-.52.12-.11.24-.22.36-.32.07.13.13.29.23.39.15.14.38.37.5.33.48-.16.94-.42,1.4-.63.1-.05.26-.15.31-.11.9.63,1.96.72,2.98.95.2.05.35.47.45.74.18.47-.09,1.28.89,1.13.03,0,.11.29.17.44.08.19.21.38.25.58.26,1.12,1.57.91,2.1,1.68.16.23.27.5.41.75-.26.08-.52.24-.79.24-14.57.01-29.15,0-43.72.02-.51,0-.82-.05-.76-.67.04-.45,0-.9-.05-1.35-.17-1.47-.36-2.95-.58-4.41-.02-.11-.37-.19-.58-.26-.11-.04-.23-.03-.35-.04.04-.11.08-.22.12-.34.14-.42.44-.84.4-1.25-.08-1.04-.3-2.07-.49-3.1-.02-.13-.16-.24-.25-.36-.14.16-.41.31-.41.47-.02,2.16-.06,4.33.01,6.48.04.98.28,1.97.51,2.94.11.49.39.94.59,1.41.17.38.01.5-.36.47-.05,0-.1,0-.15,0-2.21.04-2.3-.07-2.4-2.26-.06-1.4-.22-2.8-.33-4.2-.04-.55-.07-1.1-.09-1.66-.02-.42-.2-.48-.52-.25-.14.1-.3.19-.41.33-.81.99-1.64,1.97-2.42,3-.57.76-1.1,1.56-1.6,2.36-.45.73-.82,1.52-1.29,2.24-.21.32-.57.54-.93.09-.19-.24-.37-.5-.58-.72-.51-.55-1.47-.52-2.14-.02-.32.24-.73.37-1.1.53-.2.08-.44.08-.64.17-1.12.5-1.87.32-2.23-1.02-.36-1.35-.7-2.7-1.11-4.03-.17-.55-.48-1.06-.78-1.55-.06-.09-.49-.11-.54-.03-.78,1.17-1.5,2.37-2.28,3.54-.5.75-.93,1.8-1.65,2.09-.77.31-1.07.88-1.59,1.33-.11.09-.34.07-.51.07-.98,0-1.97.03-2.95-.02-.21,0-.56-.24-.59-.42-.16-.8-.28-1.62-.31-2.43-.07-2.03-.1-4.07-.11-6.1,0-1.68.02-3.35.06-5.03,0-.25.19-.5.31-.73.24-.47.47-.95.77-1.38.19-.28.55-.45.75-.72.48-.66,1.01-1.3,1.36-2.03.75-1.53,1.44-3.1,2.06-4.69.37-.94.55-1.95.84-2.92.28-.91.62-1.8.87-2.71.27-1.01.59-2.02.67-3.05.09-1.05-.17-2.13-.09-3.18.04-.56.42-1.14.78-1.6.48-.6,1.14-1.05,1.65-1.62,1.33-1.47,2.66-2.95,3.92-4.48.77-.93,1.4-1.97,2.09-2.95.07-.1.14-.19.23-.27.2-.16.57-.29.59-.47.06-.46.04-.96-.09-1.41-.41-1.45-.87-2.9-1.36-4.33-.24-.71-.61-1.37-.92-2.06-.04-.09-.1-.17-.13-.26-.41-1.31-.81-2.62-1.21-3.93-.26-.85-.48-1.72-.78-2.55-.18-.5-.57-.92-.74-1.41-.46-1.35-.8-2.74-1.31-4.07-.26-.67-.78-1.23-1.17-1.84-.17-.27-.3-.56-.51-.8-.15-.18-.39-.29-.59-.43-.07.23-.27.57-.19.67.48.56-.09,1.57.83,1.92.04.02.06.13.07.2.14,1.07.26,2.15.42,3.22.03.18.18.35.27.52.07.15.22.32.19.45-.3,1.21.28,2.33.31,3.5,0,.11.05.27.13.33.6.44-.1.67-.18.99-.02.09-.39.12-.6.15-.17.02-.45-.05-.49.03-.38.67-.85.39-1.35.2-.32-.12-.69-.21-1.03-.2-.53,0-.85-.22-1.01-.71-.02-.05-.01-.12-.04-.14-.25-.2-.51-.4-.77-.6.08.31.16.62.23.93.23,1.1.5,2.19.67,3.3.07.41-.69.69-1.07.31-.38-.38-1.17-.36-1.15-1.14,0-.06-.23-.14-.36-.18-.88-.26-1.44-.21-1.34.99.05.58-.82.81-1.63.56-.73-.22-1.34-.63-2-.99-.77-.41-1.75-.45-2.62-.68-.61-.16-1.26-.3-1.78-.63-.31-.19-.39-.74-.56-1.14-.4-.9-.83-1.79-1.18-2.71-.35-.9-.62-1.84-.92-2.76-.02-.05,0-.12-.02-.15-.64-.77-.75-1.78-1.2-2.63-.05-.09-.18-.12-.27-.18-.03.09-.1.18-.09.27.18,1.21.32,2.42.57,3.62.16.76.54,1.48.69,2.25.18.93.16,1.89.36,2.82.18.85.57,1.66.77,2.51.08.37.04.91-.19,1.18-.21.26-.73.33-1.11.35-.21,0-.46-.26-.63-.46-.43-.52-.79-1.12-1.25-1.6-.48-.5-1.02-.98-1.62-1.32-.9-.51-1.87-.9-2.82-1.31-.03-.01-.35.36-.3.46.33.77.75,1.5,1.08,2.27.51,1.19,1.11,2.34,1.09,3.73,0,.64.47,1.28.6,1.94.11.58.59.93.62,1.61.04,1.05.46,2.1.74,3.14.44,1.64.39,3.25-.14,4.86-.22.67-.45,1.34-.62,2.03-.29,1.14-.61,2.28-.78,3.44-.12.85-.45,1.54-.8,2.3-.62,1.32-.89,2.8-1.33,4.2-.21.65-.47,1.29-.74,1.91-.42.98-.88,1.94-1.32,2.91-.04.09-.04.27-.07.28-.99.11-.47.87-.59,1.35-.06.25-.14.54-.31.7-.76.71-1,1.65-1.36,2.57-.43,1.1-1.09,2.1-1.64,3.16-.33.63-.66,1.26-.95,1.91-.33.73-.81,1.47-.88,2.23-.1,1.18-.86,2.4.22,3.6.54.6.6,1.62,1.12,2.25.66.82.55,2.05,1.58,2.65.24.14.23.67.42.97.24.36.57.66.85,1,.13.16.2.36.3.55-.17.06-.34.16-.51.16-2.34.01-4.69.02-7.03-.01-.23,0-.51-.2-.67-.39-.36-.43-.72-.87-.96-1.37-.45-.93-.82-1.9-1.22-2.85-.08-.2-.14-.42-.24-.61-.03-.05-.26-.05-.3,0-.37.53-.71,1.08-1.1,1.6-.1.13-.45.25-.55.19-.34-.24-.82-.54-.86-.86-.06-.44.24-.93.38-1.4.05-.17.04-.37.13-.5.15-.22.38-.58.53-.56.88.12,1.16-.62,1.53-1.09.67-.84,1.19-1.8,1.78-2.71.06-.1.14-.22.24-.26,1.48-.62,1.89-1.82,1.95-3.31.02-.55.35-1.09.48-1.64.1-.46.07-.95.17-1.42.11-.52.28-1.03.44-1.54.05-.16.17-.31.23-.47.34-.88.59-1.82,1.04-2.65.73-1.33,1.59-2.58,2.39-3.86.01-.02.03-.04.04-.06.43-1.36.85-2.71,1.28-4.07.04-.14.06-.33.16-.41,1.04-.87,1.22-2.2,1.8-3.31.55-1.05,1.16-2.07,1.63-3.14.58-1.32.8-2.74.64-4.17-.14-1.16-.29-2.37-.72-3.44-.34-.86-.3-1.69-.42-2.54-.15-1.07-.39-2.16-.93-3.18-.6-1.12-.87-2.41-1.34-3.6-.57-1.46-1.23-2.88-1.8-4.34-.36-.92-.6-1.88-.94-2.8-.37-1.02-.61-2.08-1.34-2.97-.26-.32-.13-1.01-.07-1.52.06-.52.13-.69-.61-.72-1.05-.04-2.09-.49-3.13-.76-.31-1.14-1.53-1.43-2.13-2.3-.25-.37-.48-.34-.63.08-.42,1.19-.81,2.38-1.24,3.57-.12.34-.3.65-.46.97-.5.97-.67,2.03-.26,3.02.18.44.68.77.8,1.32.02.08.36.15.53.11.66-.12,1.2.01,1.74.47.44.37,1.06.51,1.54.84.99.7,1.94,1.46,2.91,2.18.14.1.3.23.46.24,1.14.05,1.66.93,2.25,1.69.09.12.13.37.07.51-.55,1.33-1.63,1.52-2.34.28-.5-.88-1.34-1.22-2-1.82-.68-.62-1.56-1.01-2.37-1.49-.1-.06-.27,0-.41,0,.05.09.09.2.16.28,1.06,1.09,2.08,2.22,3.2,3.25.7.64.81,1.52.1,2.16-.69.62-.84.64-1.3-.24-.77-1.47-2.04-2.49-3.13-3.67-.5-.53-.94-1.12-1.37-1.71-.41-.57-.85-.8-1.53-.41-.65.38-1.44-.1-1.5-.83-.09-1.14-.28-2.27-.3-3.41-.01-.78.22-1.57.31-2.35.06-.47.08-.95.1-1.42.05-.98.05-1.96.13-2.94.04-.46.2-.91.31-1.37.02-.07.09-.17.07-.21-.51-.79.18-1.5.16-2.27-.02-.64.25-1.29.43-1.93.18-.62.13-1.15-.4-1.61-.72-.61-1.4-1.27-2.11-1.9-.14-.12-.32-.25-.49-.25-.92-.03-1.85-.05-2.77,0-.21.01-.52.28-.58.48-.46,1.54-.95,3.07-1.27,4.64-.27,1.33-.31,2.7-.47,4.05-.13,1.05-.29,2.09-.43,3.13-.02.12-.07.26-.04.37.44,1.6-.37,3.17-.11,4.76.04.24.03.52.14.73.18.33.42.6.05.97-.07.07.1.45.23.64.48.72.65,1.67,1.55,2.09.1.05.21.19.21.29.03,1.13,1.05,1.66,1.51,2.51.34.65.69,1.39.69,2.09,0,.62-.62.08-.95.12-.26.03-.54-.04-.8-.09-.13-.03-.28-.09-.35-.19-.21-.31-.37-.65-.57-.97-.03-.05-.17-.04-.26-.06-.02.14-.11.35-.05.42.48.55.12,1.01.02,1.59-.19,1.09.04,2.26.11,3.4.02.31.08.63.17.93.19.66.46,1.3.61,1.96.19.87-.35,1.55-1.22,1.65-.59.07-1.1-.65-1.11-1.33-.02-1.34-.15-2.67-.21-4.01-.04-.88-.11-1.76-.06-2.63.04-.7-.25-.48-.57-.3-.89.49-1.54,1.13-1.88,2.15-.32.96-.89,1.83-1.32,2.76-.29.62-.57,1.25-.8,1.9-.45,1.26-.88,2.52-1.29,3.79-.34,1.04-.64,2.09-.95,3.14-.46,1.6-1.1,3.18-1.33,4.81-.27,2.01-1.09,3.94-.77,6.06.18,1.19-.07,2.43-.03,3.65.02.69.18,1.4.38,2.07.34,1.12.77,2.21,1.17,3.31.08.21.14.46.29.6.4.36.43.61.02,1.02-.19.2-.28.7-.17.96.66,1.62,1.21,3.32,2.78,4.38.4.27.7.67,1.02,1.04.14.16.35.39.32.54-.08.4-.27.78-.44,1.15-.03.06-.21.11-.26.08-.59-.38-1.37-.44-1.78-1.16-.6-1.06-1.26-2.09-1.93-3.11-.39-.59-1.07-1.07-1.21-1.7-.17-.76-1.14-1.45-.36-2.38.13-.16.09-.55.01-.8-.43-1.44-.8-2.91-1.38-4.29-.57-1.37-.41-2.79-.57-4.18-.07-.63.19-1.4.54-1.96.57-.91.32-1.89.52-2.82.24-1.13.58-2.23.84-3.35.09-.39.07-.81.17-1.19.34-1.24.71-2.46,1.06-3.69.19-.68.36-1.38.56-2.06.31-1.1.65-2.19.95-3.29.06-.22-.02-.48-.04-.72-.18.14-.43.23-.54.42-.66,1.09-1.32,2.18-1.91,3.3-.69,1.3-1.33,2.62-1.93,3.96-.3.67-.46,1.41-.72,2.1-.42,1.16-.84,2.31-1.31,3.45-.19.45-.49.83-1.12.56-.14-.06-.35.05-.53.08.11.17.18.41.34.51,1.2.77,1.73,1.94,2.03,3.27.06.26.11.52.21.76.42,1.03-.16,3.32-1.08,3.6-1.36.42-2.78,1.04-4.07-.35-.61-.66-1.28-1.21-1.3-2.21,0-.44-.26-.56-.63-.29-.28.21-.56.43-.82.66-.74.65-1.73.83-2.56.44-.25-.12-.87-1.37-.82-1.64.02-.1.05-.21.03-.3-.55-1.69,1.15-2.23,1.72-3.34.07-.14.32-.2.37-.34.25-.62.57-1.25.65-1.89.07-.6-.01-1.29-.25-1.85-.53-1.22-1.16-2.39-1.82-3.55-.36-.63-.79-1.56-1.32-1.67-.85-.17-.71-.94-1.22-1.26-.52-.32-.86-.91-1.34-1.32-.57-.48-1.19-.93-1.84-1.3-.16-.09-.62.13-.8.33-.18.2-.2.55-.27.84-.11.48-.15.91-.78,1.09-.44.12-.77.61-.52,1.15.49,1.04.96,2.1,1.56,3.08.24.39.84.53,1.19.88.19.19.25.57.24.87-.02.56-.17,1.1-.22,1.66-.06.76-.16,1.49-.72,2.09-.09.09.05.45.14.66.14.29.51.57.48.82-.23,1.9.68,3.56,1.06,5.32.31,1.46.73,2.89,1.11,4.33.2.73.45,1.45.65,2.18.14.49.19,1.01.35,1.49.23.72.48,1.43.78,2.13.44,1.03.93,2.04,1.42,3.05.28.57.63,1.1.89,1.67.11.25.16.57.1.83-.04.2-.3.35-.47.52-.13-.19-.28-.38-.38-.58-.05-.1.01-.29-.06-.36-.11-.13-.29-.2-.44-.3-.04.16-.15.33-.12.47.37,1.46.7,2.93,1.19,4.35.27.78.8,1.46,1.22,2.19.01.02.04.04.05.06.18.43.36.85.55,1.28-.53,0-1.06.04-1.58.01-.14,0-.33-.16-.38-.3-.2-.54-.34-1.11-.54-1.66-.11-.31-.31-.6-.46-.9-.17-.36-.34-.71-.48-1.08-.36-.97-.71-1.95-1.06-2.93-.05-.14-.07-.3-.12-.44-.45-1.21-.78-2.49-1.38-3.63-1.05-1.97-2.28-3.85-3.42-5.76-.17-.28-.31-.56-.47-.84-.11.34-.3.68-.3,1.03,0,.9-.9.48-1.22.89-.08-.14-.15-.28-.23-.42-.18-.33-.36-.66-.52-.99-.08-.17-.18-.37-.16-.54.09-.62.39-1.25.32-1.84-.15-1.21.13-2.37.15-3.56.02-1.25.38-2.5.51-3.76.09-.79.53-1.49.28-2.41-.14-.52.39-1.3.76-1.87.91-1.4.55-2.73-.13-4.04-.53-1.02-1.41-1.84-1.52-3.08-.04-.4-.38-.77-.57-1.16-.5-1.03-.98-2.06-1.48-3.08-.34-.71-.97-1.39-1-2.11-.06-1.27-.67-2.31-1.05-3.43-.24-.69-.95-1.24-1.52-1.78-.42-.4-.93-.69-1.42-1.01-.47-.31-1.34-.15-1.81.21-1.39,1.05-1.78,2.48-1.72,4.12.02.59-.13,1.2-.06,1.77.09.69.31,1.38.53,2.05.52,1.68,1.08,3.35,1.61,5.02.06.18.09.43.01.59-.46.93.13,1.43.74,1.92.75.6.74,1.36.17,2.09-.77.97-1.45,2.03-2.11,3.09-.55.89-1.04,1.82-1.53,2.75-.16.32-.51.71.21.93.18.05.3.62.27.94-.02.25-.4.45-.47.72-.36,1.27-1.46,1.41-2.48,1.73-.74.23-1.43.62-2.11,1-.15.08-.2.42-.22.64-.07.71-.57,1.03-1.18.72-.61-.31-1.21-.63-1.83-.92-.77-.36-1.54-.72-2.34-1.02-.55-.21-1.15-.28-1.71-.46-1.64-.51-3.34-.65-5.04-.83-.4-.04-.78-.31-1.19-.39-.34-.07-.71,0-1.06,0,.13.23.24.48.39.69.61.86,1.12,1.82,1.86,2.54,1,.96,1.65,2.13,2.41,3.24.05.08.11.16.15.24.25.65.47,1.32.75,1.95.29.67.62,1.33.98,1.97.24.41.47.74,1.12.35.6-.35,1.38-.49,2.09-.54.3-.02.75.38.91.7.13.26.04.76-.14,1.02-.44.62-.39,1.14,0,1.75.18.28.36.86.23,1.01-.41.42.06,1.45-.97,1.39,0,.1-.03.26.02.29.32.21.65.53,1.01.58,2,.27,2.12,2.17,1.48,3.47-.04.08-.17.14-.18.22-.05.59-.05,1.12-.72,1.49-.45.25-.67.89-1.06,1.29-.42.44-2.56.56-3.03.18-.18-.14-.25-.42-.39-.62-.2-.29-.43-.55-.62-.85-.11-.17-.18-.39-.19-.59-.06-.7-.67-1.7-1.21-1.78-.31-.04-.67.06-.98.19-.72.3-1.41.73-2.15.94-.31.09-.99-.13-1.07-.36-.19-.52-.12-1.13-.12-1.71,0-.1.16-.19.22-.3.12-.21.21-.43.32-.65-.23-.03-.49,0-.69-.09-.45-.22-1.01-.4-1.27-.78-.37-.54.06-1.19.45-1.51.72-.58.85-1.26.82-2.09-.02-.52.09-1.04.13-1.57.11-1.28-.45-2.31-1.18-3.29-.88-1.16-1.75-2.33-2.64-3.49-.18-.23-.42-.4-.63-.6-.36-.36-.7-.73-1.05-1.1-.15-.16-.26-.39-.45-.47-.37-.17-1.19.13-.72-.83.03-.07-.57-.43-.85-.69-.28-.26-.54-.55-.79-.84-.08-.09-.1-.27-.18-.29-1.04-.28-1.51-1.17-2.17-1.89-.35-.39-.98-.52-1.33-.91-.9-1-2.08-1.22-3.3-1.54-.68-.18-1.22-.89-1.81-1.39-.5-.43-.91-.89-.79-1.65.12-.74.43-1.03,1.16-.85.73.19,1.2.03,1.45-.73.08-.24.37-.51.62-.58.5-.16,1.06-.15,1.57-.28.78-.2.83.48,1.18.85.43.45.92.87,1.43,1.23,1.23.85,2.49,1.66,3.74,2.47.59.38,1.22.7,1.77,1.13.65.51,1.21,1.13,1.83,1.66.23.2.55.3.82.44.06-.34.21-.69.16-1-.04-.25.15-.83-.5-.7-.04,0-.16-.1-.16-.16-.12-.87-.6-1.39-1.45-1.6-.18-.05-.38-.18-.49-.33-.66-.89-1.54-1.28-2.64-1.22-.09,0-.23-.01-.28-.07-.48-.66-1.14-1.28-1.33-2.02-.12-.47.33-1.24.75-1.67.65-.68,1.47-1.19,2.24-1.75,1.25-.92,2.54-1.77,3.75-2.74,1.6-1.28,3.17-2.6,4.66-4,1.19-1.12,2.25-2.37,3.34-3.58.92-1.01,1.79-2.07,2.7-3.08.85-.93,1.69-1.89,2.62-2.73,1.03-.94,1.69-2.13,2.52-3.21.59-.77,1.31-1.45,1.88-2.24.69-.95,1.26-1.99,1.94-2.96.61-.87,1.22-1.77,1.97-2.51.46-.45.69-.92.9-1.48.37-.96,1-1.73,1.72-2.49.81-.86,1.39-1.94,2.08-2.92.56-.79,1.11-1.59,1.68-2.37,1.05-1.43,1.54-3.08,1.64-4.78.04-.63-.48-1.36-.9-1.93-.51-.68-1.18-1.24-1.8-1.83-.19-.18-.49-.37-.71-.34-.19.03-.39.33-.51.55-.34.67-.51,1.45-.97,2.01-.8.99-1.71,1.91-2.67,2.75-.94.82-2,1.51-3.02,2.23-1.09.76-2.19,1.53-3.53,1.79-.11.02-.23.08-.33.14-.92.63-1.91.8-3.01.53-1.16-.28-2.32-.36-3.42-1.07-1.05-.67-2.21-1.23-3.21-1.98-.4-.3-.55-.91-.85-1.36-.8-1.21-1.9-2.32-2.35-3.65-.49-1.48-1.47-2.91-1.19-4.61.02-.14,0-.33-.08-.44-1.05-1.57-.64-3.14-.13-4.78.4-1.29,1.3-2.13,2.2-3.02,1.16-1.14,2.25-2.34,3.37-3.52.1-.1.24-.18.32-.29.13-.2.24-.42.35-.63-.19-.01-.39.03-.55-.04-.45-.2-.88-.45-1.32-.69-.13-.07-.24-.18-.37-.21-.97-.26-1.95-.5-2.92-.77-1.51-.42-3.01-.87-4.52-1.29-.26-.07-.55-.05-.82-.1-.95-.18-1.9-.49-2.86-.53-1.63-.08-3.26-.17-4.89.2-.75.17-1.58.02-2.36.07-1.15.07-2.36-.02-3.43.33-1.24.41-2.51.62-3.75.96-.71.2-1.45.28-2.14.51-1.09.37-2.21.71-3.22,1.26-1.43.78-2.76,1.74-4.13,2.62-.43.28-.86.55-1.25.88-.47.4-.87.77-.98,1.52-.11.72-.73,1.39-1.18,2.03-.39.55-.9,1.02-1.31,1.56-.54.7-1.64.7-2.19.02-.28-.34-.62-.64-.96-.92-.32-.27-1.34.23-1.35.7,0,.46-.26.5-.57.7-.52.33-.93.83-1.35,1.29-.91,1.01-1.81,2.02-2.68,3.06-.26.31-.44.7-.6,1.07-.26.63-.45,1.28-.7,1.91-.21.52-.43,1.06-.72,1.54-.77,1.26-1.5,2.53-1.83,3.97-.07.32.03.72.18,1.02.04.09.55,0,.81-.1,1.27-.47,2.18-1.44,3.11-2.37.68-.68,2.7-.65,3.26.1.03.04.06.08.07.13.15,1.05.62,2.18.37,3.13-.29,1.1-1.11,2.13-1.89,3.01-.28.32-1.16.2-1.74.13-2.05-.26-3.9.32-5.66,1.26-.51.27-.31.69-.1,1.08.28.51.59,1,.81,1.54.17.41.07.69-.51.71-.74.02-1.23.74-1.21,1.88.03,1.38.21,2.75.35,4.13.02.2.24.37.29.58.19.73.33,1.48.53,2.21.28,1.02.6,2.03.91,3.05.24.75.6,1.48.73,2.24.26,1.54,1.13,2.78,1.82,4.12.45.88.97,1.73,1.45,2.6.36.66.65,1.37,1.07,1.98.77,1.11,1.62,2.17,2.44,3.24.64.84,1.3,1.68,1.96,2.5.32.39.64.79,1.01,1.13,1.38,1.29,2.78,2.55,4.17,3.82.02.02.04.03.06.04.84.41,1.74.75,2.51,1.26.81.54,1.91.5,2.56,1.34.06.08.22.1.34.11,1.52.17,2.17,1.04,1.84,2.53-.04.17-.27.34-.45.43-.29.15-.61.24-.92.35-.22-.72-1.11-.32-1.5-1.01-.66-1.17-2.05-1.52-3.15-2.19-.73-.44-1.4-.98-2.12-1.44-.39-.25-.87-.39-1.23-.68-1.18-.95-2.37-1.9-3.45-2.96-.84-.82-1.53-1.8-2.27-2.72-.33-.41-.6-.87-1.22-.43-.08.06-.26.03-.37-.02-.77-.34-1.57-.63-2.28-1.07-.47-.29-.55-.1-.66.26-.34,1.08-.61,2.2-1.05,3.24-.19.44-.52.79-.62,1.32-.13.65.12.8.67.81.45,0,.92-.04,1.35.07.27.07.47.4.7.61-.22.1-.43.19-.65.29-.23.1-.46.21-.69.32.19.13.4.24.58.39.65.53,1.29,1.08,1.95,1.59.38.3.8.54,1.21.81,1.3.84,2.61,1.66,3.91,2.5,1.1.72,2.17,1.51,3.3,2.18.34.2.93.22,1.31.09.65-.24,1.36-.04,1.64.59.12.27.34.58.59.69.83.36,1.49.81,1.84,1.71.1.25.48.75,1.07.35.57-.38.74.48.79.6.49,1.08,1.29,1.78,2.19,2.51,1.22.99,2.23,2.23,3.39,3.29.61.56,1.44.89,2,1.48.35.36.68.67,1.11.9.4.21.77.49,1.19.64.56.2,1.15.41,1.73.42.53,0,1.06-.27,1.6-.37.14-.03.38.11.45.23.24.44.57.91.58,1.38.02.73-.11,1.49-.32,2.19-.11.37-1.45.3-1.85,0-.18-.13-.42-.18-.63-.27.11.29.13.7.33.85,1.49,1.08,3.01,2.12,4.55,3.13.76.5,1.58.92,2.37,1.38.15.09.28.19.41.31.7.6,1.41,1.2,2.12,1.81-.09.01-.27.05-.44.05-2.7,0-5.4,0-8.09,0-.87,0-1.39-.67-2.08-1.03-.83-.44-1.05-1.51-2.09-1.76-.32-.07-.49-.84-.69-1.31-.18-.41-.29-.86-.49-1.26-.68-1.38-1.36-2.76-2.07-4.13-.65-1.26-1.63-2.23-2.69-3.14-.93-.8-1.79-1.67-2.69-2.5-.67-.62-1.31-1.31-2.08-1.78-.41-.25-1.07-.22-1.6-.15-.66.08-1.31-.61-1.97-.02-.06.05-.27-.07-.4-.13-.02,0,.02-.18.06-.25.57-.97.48-1.17-.57-1.56-.49-.18-.96-.45-1.43-.68-.8-.39-1.6-.76-2.39-1.17-.29-.15-.53-.4-.81-.57-1.17-.72-2.35-1.42-3.53-2.12-.17-.1-.42-.1-.54-.23-1.06-1.1-2.01-2.34-3.19-3.29-.9-.73-1.42-1.71-2.19-2.51-.68-.71-1.42-1.36-2.02-2.12-.21-.26-.17-.82-.08-1.2.26-1,.59-1.99.93-2.96.41-1.19.85-2.36,1.3-3.53.11-.29.29-.56.45-.83.66-1.15-.19-1.95-.67-2.81-.71-1.26-1.72-2.34-1.97-3.86-.09-.58-.47-1.12-.72-1.67-.06-.13-.12-.26-.15-.4-.25-1.25-.37-2.54-.77-3.73-.61-1.78-.43-3.61-.59-5.42-.1-1.08-.34-2.15-.38-3.24-.06-1.79-.04-3.59,0-5.38.02-1.05.02-1.11-1-.92-1.87.34-3.74.7-5.61,1.06-.93.18-1.85.43-2.78.51-.33.03-.7-.34-1.03-.56-.15-.1-.27-.26-.39-.39-.39-.41-.79-.83-1.18-1.24-.07-.07-.1-.17-.17-.24-.73-.65-1.48-1.28-2.2-1.95-.28-.26-.47-.62-.75-.88-1.02-.94-2.08-1.84-3.07-2.81-.62-.6-1.21-1.25-1.68-1.96-.38-.57,0-1.21.12-1.84.35-1.88.53-3.79.8-5.69.04-.28.09-.6.25-.82.49-.69,1.07-1.31,1.55-2.01.18-.27.12-.69.28-.99.51-.97-.04-1.29-.84-1.59-.32-.12-.56-.46-.83-.71-.75-.68-1.45-1.42-2.26-2.01-.67-.48-1.55-.66-2.19-1.16-.78-.61-1.71-.51-2.53-.85-.63-.26-.77-.94-.64-1.53.09-.41.46-1.03.74-1.05.47-.03,1,.3,1.45.56,1.46.85,2.93,1.69,4.34,2.61.78.51,1.45,1.18,2.18,1.77.53.42.83.31,1.07-.29.34-.84.7-1.67,1.1-2.47.12-.23.44-.36.65-.56,1.11-1.04,2.13-2.15,3.49-2.9.87-.48,1.6-1.21,2.44-1.75,1.21-.76,2.46-1.46,3.7-2.17.72-.41,1.45-.8,2.17-1.19.11-.06.2-.19.31-.2,1.01-.1.68-.59.43-1.2-.29-.72-.4-1.5-.6-2.26-.08-.31-.14-.65-.31-.9-.43-.65-.94-1.25-1.38-1.9-.88-1.3-2.27-1.54-3.18-.28-.71.98-1.73,1.32-2.59,1.94-.97.69-2.12,1.12-3.11,1.78-.9.6-1.69,1.36-2.53,2.04-1,.81-2.05,1.56-3.01,2.41-.6.53-1.02,1.26-1.63,1.78-.83.7-1.74,1.31-2.65,1.91-.42.28-.9.57-1.38.66-.93.16-.98-.08-.8-.98.14-.69.57-.98,1.03-1.33.85-.66,1.69-1.34,2.54-2,.88-.68,1.89-1.24,2.64-2.04,1.18-1.26,2.68-2.09,3.92-3.27.63-.59,1.46-.96,2.22-1.41,1.52-.91,3.03-1.8,4.3-3.08.5-.51,1.24-.78,1.86-1.18.26-.17.5-.38.74-.59.65-.57,2-.11,2.28.69.2.58.55,1.13.92,1.63,1.36,1.86,1.96,4.2,3.7,5.83.16.15.09.56.09.84,0,.8.28,1.06,1.09,1.17,1.48.2,2.97.34,4.41.69,1.58.38,3.15.86,4.64,1.5,1.29.56,2.38,1.6,3.68,2.08,1.28.47,2.03,1.8,3.5,1.89.25.01.54.47.68.78.37.82.67.96,1.41.46.56-.38,1.09-.82,1.61-1.25.09-.07.07-.27.11-.4-.12.05-.91.27-.98.36-1.08.36-1.21-.23-1.86-.12-.36-.05-.6-.77-.96-1.1-.75-.7-1.53-1.38-2.34-2.01-.52-.4-1.08-.85-1.68-1-1.16-.28-2.08-1.05-3.2-1.36-.1-.03-.2-.05-.3-.05-1.29.01-1.9-.49-1.94-1.79-.06-2.11-.02-3.71-.03-5.81,0-1.32-.01-2.63.03-3.94.01-.46.32-.93.25-1.36-.37-2.14.25-4.25.2-6.38-.01-.53.26-1.05.3-1.58.16-2.41.45-4.78,1.2-7.1.32-.99.38-2.05.64-3.06.19-.73.54-1.41.79-2.13.11-.3.14-.63.23-.93.56-1.87,1.12-3.75,1.71-5.61.27-.86.45-1.82.98-2.5,1.18-1.52,1.63-3.38,2.46-5.05.7-1.42,1.79-2.59,2.37-4.07.18-.45.65-.8.81-1.25.21-.56.45-1.25.3-1.77-.25-.86-.8-1.63-1.23-2.44-.67-1.27-1.33-2.55-2.03-3.81-.8-1.44-1.63-2.85-2.44-4.28-.06-.11-.11-.23-.14-.35-.47-2.13-.9-4.26-.57-6.46.23-1.54.38-3.11.75-4.62.28-1.14.82-2.22,1.26-3.33.41-1.03.78-2.08,1.27-3.07.38-.74.86-1.45,1.42-2.07,1.16-1.27,2.4-2.47,3.63-3.67.24-.23.64-.3.89-.53,1.06-.95,2.05-1.99,3.16-2.88.54-.43,1.28-.52,1.87-1.03.44-.38.53-.71.53-1.17,0-.95-.13-1.91,0-2.84.17-1.19.48-2.37.85-3.52.37-1.11.82-2.22,1.37-3.25.46-.85,1.04-1.68,1.73-2.35.42-.4,1.14-.49,1.74-.69.02,0,.2.25.2.39,0,.71.4.95,1.04,1.1.66.16,1.26.56,1.92.77,1,.33,2.02.56,3.02.89.77.26,1.53.58,2.27.93.88.42,1.73.89,2.59,1.35.75.4,1.49.82,2.24,1.22.99.53,1.97,1.06,2.97,1.56.36.18.81.19,1.13.41,1.13.77,1.29,2.11.28,3-.3.26-.94.25-1.41.19-2.12-.25-3.32.73-3.91,2.62-.32,1.03-.44,2.14-.56,3.22-.07.67.35.9.93.55.52-.31.76,0,.75.4-.01.51-.13,1.05-.34,1.52-.1.21-.51.3-.79.4-.16.05-.35.01-.52.01.09.13.17.27.27.39.41.44.84.86,1.23,1.31.53.61,1.03,1.26,1.57,1.86,1,1.1,1.86,2.33,3.15,3.16.3.2.47.6.7.91.26.34.5.7.78,1.03.06.07.25.1.35.06.65-.23,1.27-.58,1.93-.71,1.37-.26,2.76-.46,4.15-.59,1.97-.19,3.98-.1,5.91-.47,2.88-.56,5.75-.44,8.59-.05,1.68.23,3.33.39,5.02.5,1.44.09,2.86.56,4.27.96,1.6.45,3.15,1.09,4.77,1.47,1.71.4,3.1,1.4,4.66,2.08.97.42,1.97.79,2.87,1.33.78.47,1.42,1.17,2.16,1.72.52.39,1.14.64,1.64,1.06,1.54,1.29,3.02,2.66,4.57,3.94.86.72,1.49,1.72,2.61,2.14.26.1.4.49.63.71.47.47,1.01.87,1.43,1.38.29.36.42.84.58,1.19.25-.32.59-.67.84-1.07.24-.38.4-.82.59-1.23.25-.56.51-1.11.75-1.68.65-1.52,1.26-3.05,1.94-4.55.3-.67.71-1.29,1.06-1.93.37-.69.74-1.39,1.09-2.09.28-.54.54-1.09.8-1.64.4-.81.77-1.62,1.2-2.41.37-.69.77-1.36,1.19-2.02.73-1.14,1.5-2.25,2.21-3.39.68-1.09,1.27-2.23,1.98-3.29.39-.59.97-1.06,1.41-1.63.47-.61.87-1.28,1.3-1.92.37-.54.74-1.09,1.12-1.62.86-1.18,1.69-2.39,2.6-3.52.72-.89,1.55-1.69,2.31-2.55,1.42-1.61,2.8-3.25,4.23-4.85.76-.85,1.64-1.61,2.37-2.49,1.09-1.31,2.55-2.2,3.69-3.46,1.07-1.18,2.36-2.18,3.6-3.2.84-.69,1.77-1.26,2.65-1.9.6-.44,1.16-.94,1.79-1.34,1.67-1.06,3.35-2.09,5.04-3.12.67-.41,1.33-.83,2.04-1.15.8-.36,1.65-.6,2.47-.94,1.73-.71,3.69-.83,5.24-2.02.15-.11.51-.09.69.01.58.35,1.12.39,1.67-.04.07-.06.19-.13.26-.11.63.17,1.35.24,1.87.58.57.37,1,.98,1.41,1.55.24.32-.2,1.01-.67,1.13-.14.04-.3.03-.45.05-.55.06-1.33-.37-1.36.71-.02.6-.11,1.2-.15,1.8-.05.84-.09,1.69-.14,2.53-.01.17-.08.35-.08.52,0,.11.07.22.11.32.07-.08.17-.14.22-.23.26-.49.48-1.01.77-1.48.45-.72.96-1.41,1.45-2.1.02-.03.1-.03.14-.05.61-.29,2.48,0,2.97.48.07.07.16.15.25.15.9.05.88.69.91,1.34,0,.25.08.61.26.73.36.25.6.07.8-.35.06-.13.6-.18.85-.07.67.28,1.3.66,1.94,1.01.66.36,1.3.74,1.97,1.07.23.11.52.1.79.14.07-.09.14-.18.2-.27-.53-.44-1.04-.93-1.61-1.32-.91-.64-1.15-1.99-.87-2.77.16-.45,1.05-.73,1.47-.52.37.18.78.3,1.18.42.12.04.27-.02.37.04.55.29,1.03.26,1.68.12.67-.14,1.5.47,2.25.76.2.08.37.19.56.29.35.18.83.27,1.02.56.33.51.75.43,1.08.23.12-.07-.02-.65-.11-.98-.07-.27-.33-.5-.35-.77-.02-.23.17-.68.3-.69.42-.04.86.05,1.29.13.3.06.59.19.89.25.04,0,.21-.27.18-.33-.16-.26-.33-.57-.58-.7-.74-.37-1.52-.67-2.28-.99-.04-.02-.11-.04-.14-.02-.98.69-1.36-.46-2-.73-.61-.26-.28-1.41.41-1.66.72-.26,1.54-.29,2.31-.39.32-.04.67-.09.98-.02.92.19,1.88.33,2.74.69.83.35,1.59.9,2.33,1.44,1.31.97,2.58,1.99,3.85,3.01.38.3.69.68,1.03,1.03.1.11.18.28.3.32,1.64.5,2.31,2.14,3.6,3.09,1.17.86,1.99,2.19,2.93,3.35.37.46.75.91.67,1.63-.04.35.32.75.53,1.11.5.85,1.01,1.71,1.54,2.54.15.24.43.39.58.63.52.85,1.03,1.72,1.52,2.59.23.4.4.84.59,1.26.34.78.69,1.56.98,2.36.07.2-.06.48-.1.72-.29-.11-.71-.14-.83-.35-.34-.56-.52-1.21-.82-1.8-.45-.9-.88-1.84-1.45-2.66-.4-.57-.67-1.46-1.69-1.32-.05,0-.13-.16-.19-.26-.21-.33-.41-.68-.63-1-.65-.92-1.29-1.84-1.97-2.74-.17-.22-.45-.36-.65-.57-.68-.7-1.32-1.44-2.03-2.11-1.11-1.05-2.26-2.05-3.39-3.07-.32-.29-.63-.6-.95-.89-.39-.35-.66-.79-1.33-.88-.47-.06-.84-.73-1.29-1.09-.41-.33-.86-.6-1.3-.89-.18-.12-.36-.24-.55-.34-.13-.07-.28-.1-.42-.14.01.16,0,.32.05.48.02.08.11.16.19.21.88.63,1.77,1.25,2.66,1.87.02.01.06.01.07.03.09.47.4.64.82.85.42.21.64.78.99,1.15.77.84,1.61,1.62,2.35,2.49.4.46.64,1.06.97,1.58.1.15.29.24.41.39.2.25.39.51.57.77.14.2.22.46.39.63.61.65,1.3,1.24,1.85,1.93.33.41.49.97.68,1.48.18.49.25,1.02.47,1.49.11.24.4.46.65.54.45.13.39.48.52.78.34.76.75,1.48,1.16,2.2.29.51.61,1.01.91,1.52.47.79.93,1.58,1.4,2.37.04.06.13.09.15.15.62,1.4,1.23,2.8,1.85,4.2.58,1.3,1.18,2.59,1.74,3.9.5,1.16,1.12,2.26,1.42,3.51.2.84.66,1.62.96,2.44.09.24,0,.55.08.8.31.96.66,1.91.98,2.87.45,1.36.93,2.72,1.31,4.1.19.7.07,1.47.25,2.17.34,1.32.86,2.6,1.19,3.93.21.83.2,1.71.29,2.57.01.12-.01.26.04.37.86,1.74.84,3.66,1.1,5.52.14.98.58,1.92.7,2.91.21,1.72.26,3.45.41,5.17.12,1.43.36,2.85.39,4.27.07,2.93.07,5.87.05,8.8-.01,1.77-.07,3.53-.18,5.3-.12,1.83-.33,3.66-.48,5.49-.06.75-.01,1.5-.08,2.25-.12,1.42-.09,2.89-.47,4.24-.33,1.2-.2,2.44-.54,3.62-.17.58-.04,1.24-.13,1.85-.15,1.02-.43,2.02-.53,3.04-.06.58.13,1.19.23,1.94.23-1.34.42-2.55.63-3.75.29-1.65.58-3.3.89-4.95.17-.9.4-1.78.57-2.68.09-.5.1-1.01.18-1.51.18-1.23.34-2.46.57-3.68.22-1.14.54-2.26.76-3.4.1-.49.02-1.01.12-1.5.58-2.93.62-5.9.56-8.87-.01-.74.26-1.49.4-2.24.01-.07.05-.16.02-.22-.72-2.01-.13-4.1-.36-6.14-.02-.17.23-.54.24-.53.42.16,1.02.24,1.19.56.56,1.05,1.23,2.03,1.3,3.34.06,1.1.59,2.17.89,3.26.07.25-.02.55.06.8.13.45.38.87.48,1.32.08.34.02.72,0,1.07-.03.66-.08,1.31-.12,1.96-.07,1.04-.13,2.08-.23,3.12-.1,1-.34,1.99-.34,2.99,0,1.15-.2,2.23-.56,3.31-.21.62-.16,1.33-.24,2-.22,1.86-.43,3.72-.68,5.58-.16,1.2-.32,2.41-.56,3.6-.26,1.34-.63,2.66-.9,4-.13.64-.1,1.32-.18,1.97-.05.45-.18.88-.26,1.32-.25,1.45-.49,2.91-.73,4.36-.34,1.98-.47,4.03-1.09,5.93-.43,1.33-.29,2.74-.86,4.01-.05.11.07.31.11.46.13-.1.33-.17.37-.3.54-1.52,1.29-2.95,1.62-4.55.24-1.17.86-2.25,1.25-3.4.36-1.05.65-2.12.94-3.19.2-.71.38-1.43.53-2.15.4-1.95.75-3.91,1.15-5.86.25-1.2.61-2.38.84-3.59.16-.86.16-1.75.27-2.62.29-2.22.67-4.42.89-6.65.15-1.54.07-3.1.15-4.64.06-1.17.26-2.32.3-3.49.05-1.48,0-2.96,0-4.44,0-.49,0-.98-.03-1.46-.07-1.52-.14-3.04-.23-4.56-.11-1.78-.22-3.57-.38-5.35-.09-1.01-.21-2.02-.42-3.01-.38-1.76-.85-3.5-1.25-5.26-.16-.7-.18-1.44-.3-2.15-.18-1.05-.39-2.1-.62-3.14-.36-1.61-.73-3.21-1.12-4.81-.35-1.41-.72-2.82-1.13-4.22-.25-.84-.6-1.65-.87-2.49-.2-.61-.34-1.24-.53-1.85-.54-1.69-1.1-3.37-1.66-5.05-.41-1.23-.84-2.46-1.24-3.69-.56-1.68-1.08-3.37-1.66-5.05-.48-1.39-.94-2.8-1.56-4.13-.53-1.12-1.28-2.13-1.92-3.2-.63-1.07-1.22-2.18-1.85-3.25-.42-.71-.88-1.4-1.32-2.09-.63-.98-1.24-1.97-1.91-2.92-.84-1.18-1.61-2.44-2.64-3.42-.64-.6-.87-1.44-1.59-1.98-.68-.51-1.18-1.27-1.69-1.96-.5-.68-.84-1.48-1.37-2.13-.42-.53-.99-.96-1.55-1.35-1.31-.93-2.69-1.79-2.82-3.64-.02-.27-.27-.52-.4-.79-.28-.59-.52-1.24.03-1.74.48-.43,1.04-.15,1.61.07.53.21,1.19.33,1.74.21,1.01-.22,1.9,0,2.83.3,1.53.51,3.09.93,4.59,1.5.77.29,1.4.91,2.17,1.21,1.9.74,3.55,1.9,5.11,3.15,2,1.6,3.83,3.41,5.72,5.14.87.8,1.77,1.58,2.55,2.46.85.95,1.56,2.03,2.38,3.01.41.49.9.91,1.36,1.36.11.11.22.21.3.33.94,1.49,1.86,3,2.83,4.49.69,1.07,1.46,2.09,2.15,3.15.27.41.44.89.66,1.34.85,1.79,1.7,3.58,2.55,5.37.06.13.05.3.1.44.26.63.54,1.25.79,1.88.46,1.15.94,2.3,1.36,3.47.6,1.69,1.16,3.4,1.73,5.11.19.56.4,1.13.55,1.7.43,1.67.7,3.39,1.28,5.01.51,1.41.75,2.85,1.07,4.28.4,1.76.98,3.49,1.37,5.25.18.82.08,1.7.18,2.54.08.63.3,1.24.41,1.87.12.71.16,1.43.27,2.15.22,1.47.47,2.93.7,4.4.03.17.09.4.01.52-.38.56-.2,1.1-.16,1.71.17,2.35.15,4.72.29,7.07.07,1.11.35,2.22.49,3.33.09.67.14,1.34.14,2.01,0,1.18-.05,2.35-.07,3.53-.02,1.43,0,2.87-.07,4.3-.07,1.26-.25,2.52-.37,3.78-.08.77-.11,1.54-.22,2.3-.25,1.67-.5,3.34-.84,5-.29,1.36-.73,2.68-1.08,4.03-.27,1.06-.44,2.14-.76,3.18-.43,1.38-.96,2.72-1.43,4.09-.09.26-.1.54-.14.81-.18,1.24-.97,2.22-1.44,3.33-.6,1.41-1.2,2.82-1.8,4.23-.47,1.1-.91,2.21-1.4,3.29-.45,1.01-.91,2.02-1.43,2.99-.62,1.16-1.35,2.27-1.97,3.43-.64,1.19-1.22,2.4-1.8,3.62-.38.8-.77,1.61-1.04,2.45-.65,1.95-1.15,3.92-1.26,6-.06,1.2-.53,2.38-.86,3.56-.05.17-.32.3-.52.39-.4.18-.8.37-1.23.46-.22.05-.58-.03-.71-.19-1.54-1.91-1.57-4.15-1.3-6.44.18-1.53.38-3.05.6-4.57.06-.43.24-.85.33-1.28.02-.11-.1-.24-.16-.37-.09.1-.21.19-.25.31-.35.91-.77,1.8-1.01,2.74-.3,1.18-.51,2.38-.63,3.59-.08.83-.04,1.69.1,2.52.21,1.2.51,2.38.87,3.55.18.59.43,1.41.89,1.63.81.39,1.48,1.21,2.62.95.5-.11,1.17-.35,1.8.22.47.42,1.29.45,1.94.69.18.07.36.25.47.42.69,1.06,1.32,2.15,2.19,3.11,1.17,1.29,2.25,2.67,2.85,4.4.21.6,1.1.96,1.69,1.43.83.67,1.88,1.02,2.48,2.03.3.5.96.79,1.44,1.18.7.56,1.45,1.06,2.07,1.7.6.63,1.03,1.37,1.9,1.78.65.31,1.12,1.01,1.66,1.54.53.52,1.24.96,1.52,1.59.69,1.52,2.27,2.09,3.24,3.29.55.68,1.32,1.19,1.89,1.86.62.74,1.12,1.58,1.69,2.37.07.09.22.13.33.19v6.66c-.12-.08-.27-.14-.35-.25-.85-1.19-1.3-2.69-2.72-3.43-.05-.03-.05-.14-.1-.2-.61-.77-1.19-1.57-1.84-2.31-.87-.99-1.78-1.94-2.68-2.9-1.04-1.12-2.06-2.25-3.14-3.34-.67-.67-1.38-1.32-2.15-1.87-1.15-.81-2.31-1.59-3.27-2.65-.68-.75-1.52-1.39-2.38-1.92-.7-.43-1.53-.64-2.3-.97-.12-.05-.23-.17-.31-.28-.34-.53-.67-1.07-1.02-1.59-.06-.09-.22-.12-.33-.18,0,.13-.04.27-.01.39.08.37.3.75.25,1.1-.21,1.44.15,2.25,1.34,3.04,1.03.68,2.02,1.43,3.03,2.16.9.65,1.82,1.27,2.7,1.94.59.45,1.09,1.02,1.72,1.41.51.32,1.02.52,1.33,1.12.24.47.69.9,1.15,1.16.8.45,1.45.93,2.03,1.71,1.21,1.64,2.56,3.18,4.32,4.31.63.4,1.2.99,1.62,1.62.82,1.24,1.78,2.28,3.09,3v35.4ZM206.41,51.52c-.61.67-1.22,1.33-1.82,2.01-.43.48-.9.94-1.28,1.47-1.09,1.54-2.11,3.13-3.21,4.66-.74,1.04-1.63,1.97-2.36,3.02-.63.9-1.13,1.9-1.69,2.85-.82,1.39-1.67,2.77-2.47,4.18-.53.94-.93,1.96-1.51,2.87-.51.8-.99,1.59-1.14,2.54-.01.08-.13.15-.19.23-.43.64-.93,1.24-1.25,1.93-.88,1.86-1.73,3.74-2.5,5.65-.54,1.31-.98,2.67-1.37,4.03-.2.68-.54,1.06-1.23,1.17-.38.06-.88-.12-1.02.52-.09.39-.52.8-.45,1.12.13.6.52,1.14.8,1.71.12-.09.26-.17.36-.28.25-.28.45-.76.74-.82.56-.11.63-.49.76-.88.3-.88.54-1.79.9-2.65.25-.6.63-1.15.97-1.72.43-.71,1.14-.29,1.72-.41.06.33.13.67.19,1,.04.2.08.39.1.59.08.72.34,1.48.19,2.15-.26,1.17.03,2.45-.72,3.55-.22.32-.08.89-.17,1.32-.25,1.18-.57,2.35-.78,3.54-.24,1.34-.38,2.69-.57,4.04-.03.22-.12.43-.18.65-.29,1.05-.75,2.09-.83,3.16-.16,2.28-.2,4.56-.64,6.81-.29,1.5-.23,3.04-.47,4.57-.33,2.13-.09,4.34-.12,6.52-.02,1.54-.14,3.07-.15,4.61,0,.92.14,1.84.17,2.76.02.84-.03,1.68-.03,2.52,0,.09.12.19.18.28.07-.08.26-.56.27-.64.04-.69.2-1.1.19-1.79-.01-1.09.03-2.08.03-3.17,0-1.06.04-2.11.08-3.17.03-.7,0-1.42.15-2.1.15-.67-.57-1.41.19-2.01.03-.02,0-.14-.02-.21-.05-.44-.14-.89-.15-1.33,0-.23.26-.51.19-.68-.45-1.06-.1-1.84.34-2.63.19-.35.92-.75,1.18-.63.55.26.87.85,1.48,1.21,1.03.62,1.13,1.92,1.09,3.11-.01.28,0,.56,0,.84-.02.42-.1.83-.09,1.25.01.67.24,1.38.08,1.99-.42,1.57-.25,2.11,1.08,2.9.3.18.5.61.63.97.12.34.09.73.13,1.09.03-.91.41-1.57,1.19-1.95.53-.26,1.24-.67,1.65-.5.42.17.72.95.82,1.52.19,1.03.18,2.1.31,3.14.03.22.29.49.52.59.56.25.84.62.88,1.24.08,1.35.16,2.69.3,4.03.05.51.13,1.26.46,1.45.71.42.57.98.58,1.54.02.75-.05,1.51.02,2.26.1,1.23.26,2.46.43,3.68.08.59.26,1.16.37,1.75.26,1.33.51,2.67.78,3.99.05.24.17.51.34.68,1.11,1.11,2.24,2.19,3.36,3.29.69.67,1.36,1.35,2.06,2,.24.22.59.32.83.54,1.08,1,2.08,2.08,3.21,3.01.91.75,1.96,1.33,2.94,1.99.23.16.48.32.65.54.7.92,1.48,1.73,2.5,2.32.68.39,1.28.94,1.92,1.4,1.18.84,2.18,1.96,3.65,2.35.1.03.16.2.26.23.57.16.84.82,1.63.72.81-.1,1.67.15,2.5.29.76.13,1.51.43,2.28.49,1.64.11,3.27-.04,4.89-.44,1.18-.29,2.41-.4,3.61-.63.68-.13,1.36-.49,2.03-.46,1.86.1,3.6-.49,5.39-.79.3-.05.66.04.89-.11,1.17-.74,2.6-.31,3.84-.94.82-.41,1.76-.64,2.55-1.18.2-.13.41-.27.63-.34,1.99-.6,3.91-1.31,5.27-3.01.06-.07.16-.12.25-.14.84-.21,1.69-.41,2.53-.59.11-.02.36.11.36.13-.15.68-.16,1.49-.56,1.99-.32.39-1.14.34-1.7.58-.55.24-1.45.29-1.46,1-.01.8-.5,1.09-.94,1.53-.32.32-.63.73-.75,1.15-.1.36.09.8.15,1.2-.69-.7-1.03.08-1.29.31-1.1.98-2.1,2.07-3.16,3.1-.56.55-1.19,1.04-1.73,1.61-.28.3-.42.72-.68,1.06-.72.95-1.48,1.87-2.18,2.83-.23.31-.34.7-.5,1.06-.18.42-.23,1.1-.53,1.24-.82.37-.73,1.07-.93,1.71-.28.91.59,1.34.71,2.06.07.43.21.87.39,1.27.26.58.59,1.13.88,1.7.38.74.72,1.5,1.13,2.22.51.91,1.1,1.78,1.6,2.7.58,1.06,1.08,2.16,1.64,3.22.13.25.41.44.53.69.61,1.33,1.02,2.78,2.38,3.62.15.09.22.32.31.5.19.4.3.87.58,1.19.84.97.96,2.18,1.27,3.33.06.2.19.39.3.57.73,1.17,1.87,2.19,1.41,3.8-.02.07-.02.16,0,.22.6,1.24-.25,2.31-.41,3.46-.12.88-.43,1.75-.72,2.6-.29.86-.7,1.68-.99,2.54-.3.87-.61,1.76-.75,2.67-.14.96.07,1.99-.14,2.92-.45,1.92-.48,3.82-.12,5.74.03.17-.04.35-.04.53,0,.26,0,.52,0,.79.19-.12.38-.24.56-.37.07-.05.11-.15.17-.22.75-.89,1.49-1.8,2.25-2.68.31-.36.73-.64,1.03-1.01,1.26-1.57,2.42-3.22,3.74-4.74,1.2-1.37,2.54-2.62,3.85-3.89,1.17-1.14,2.37-2.24,3.57-3.35.45-.42.97-.78,1.38-1.24.69-.78,1.29-1.64,2-2.41.98-1.07,2.03-2.08,3.03-3.14.78-.83,1.51-1.71,2.3-2.54.49-.51,1.04-.95,1.57-1.42.33-.29.67-.58.97-.89.13-.14.16-.38.29-.52,1.14-1.22,2.27-2.43,3.44-3.62,1.16-1.19,2.35-2.36,3.54-3.53,1.1-1.07,2.18-2.16,3.34-3.18,1.41-1.24,2.9-2.41,4.34-3.61.16-.13.29-.31.45-.42.53-.37,1.09-.69,1.61-1.08.73-.54,1.39-1.18,2.15-1.68.46-.3.73-.52.42-1.09-.53-.99-1.03-1.99-1.52-3-.59-1.22-1.17-2.45-1.74-3.68-.04-.08-.06-.17-.09-.26-.39-.88-.74-1.78-1.17-2.63-.26-.52-.82-.88-.35-1.62.19-.3,0-.84-.05-1.27,0-.04-.44-.11-.49-.03-.31.43-.57.91-.85,1.36-.39.65-.79,1.29-1.19,1.94-.52.84-1.1,1.65-1.53,2.52-.57,1.16-1.04,2.37-1.53,3.56-.26.64-.44,1.32-.73,1.94-.28.59-.59,1.2-1.02,1.69-.6.68-1.57.95-1.92,1.96-.26.75-1.34.91-1.78.33-.22-.29-.38-.77-.31-1.12.26-1.28.61-2.54.95-3.8.23-.85.49-1.68.73-2.52.04-.13-.02-.29-.03-.43-.15.06-.38.09-.45.2-.4.63-.79,1.27-1.12,1.94-.47.96-.81,1.98-1.34,2.9-.82,1.43-1.59,2.85-1.87,4.5-.03.18-.3.46-.45.46-.44,0-1.03.03-1.29-.23-.5-.48-.49-1.21-.29-1.87.22-.74.57-1.45.71-2.2.35-1.92.33-3.91,1.25-5.71.07-.13-.05-.36-.08-.54-.17.08-.37.13-.49.26-.31.34-.56.74-.87,1.08-1.04,1.15-2.11,2.29-2.74,3.72-.2.45-.38.84-.69,1.23-.33.41-.42,1.02-.68,1.5-.29.53-.69,1-.97,1.53-.63,1.19-1.22,2.41-1.83,3.61-.05.09-.19.13-.28.2-.37.27-.84.47-1.07.83-.28.44-.02,1.23-1,1.14-.2-.02-.48.58-.67.92-.18.32-.31.6-.72.27-.08-.06-.23-.09-.33-.07-.64.14-1.67-.26-1.99-.84-.16-.3-.17-.9-.34-.93-.89-.17-.86-.91-1.17-1.52-.18.68-.29,1.37-.36,2.05-.07.64-.6,1.15-1.17.93-.68-.26-1.39-.29-1.91-1.14-.71-1.16-.86-2.34-.99-3.59-.06-.53.02-1.07-.04-1.6-.1-.8-.36-1.6-.38-2.4-.05-2.66-.05-5.32-.02-7.98.02-1.91.07-3.81.19-5.71.07-1.14.29-2.27.43-3.4.04-.32.03-.65.08-.96.24-1.52.5-3.05.75-4.57.2-1.23.41-2.46.6-3.7.12-.79.23-1.59.29-2.38.14-1.91.21-3.82.37-5.73.13-1.6.36-3.2.5-4.8.1-1.2.06-2.41.17-3.6.15-1.72.39-3.43.56-5.14.12-1.26.2-2.52.29-3.78.02-.22-.04-.44-.05-.67-.05-.86-.26-1.77-.09-2.59.34-1.66.4-3.31.23-4.98-.12-1.18-.21-2.36-.39-3.53-.09-.57-.04-1.3-.95-1.39-.31-.03-.46-.29-.12-.64.19-.2.17-.62.18-.95,0-.2-.13-.41-.14-.62-.03-.57-.18-.72-.81-.54-.41.12-1.15-.02-1.38-.32-.74-.95-1.25-2.06-1.95-3.04-.79-1.11-1.41-2.39-2.64-3.12-.45-.27-1.07-.3-1.16-.99,0-.04-.13-.05-.2-.09-1.93-1.24-4.17-1.23-6.31-1.36-1-.06-2.04.59-3.06.95-.37.13-.83.25-1.03.53-.49.66-1.14.96-1.87,1.22-.36.13-.75.36-.98.66-.6.75-1.31,1.38-1.8,2.26-.44.8-.96,1.51-1.04,2.44-.02.2.01.44-.09.59-.6.93-.14,1.93-.23,2.88-.04.42-.06.92-.29,1.23-.24.33-1.64.24-1.71-.06-.11-.46-.19-1.06.02-1.43.31-.56,0-.72-.34-.78-.52-.1-.97-.16-1.09-.8-.02-.1-.26-.19-.41-.24-1-.35-1.46-1.31-.9-2.11.91-1.27,1.86-2.53,2.91-3.69,1.08-1.18,2.31-2.23,3.48-3.34.09-.08.22-.11.33-.17,1.12-.55,2.35-.95,3.33-1.69,1.28-.97,2.78-.91,4.18-1.31,1.15-.33,2.07.76,3.28.58.65-.1,1.4.33,2.09.57.62.21,1.28.4,1.82.76.85.56,1.61,1.24,2.41,1.87.27.21.56.39.84.58-.13-.33-.25-.67-.38-1-.59-1.59-1.17-3.18-1.77-4.76-.32-.85-.7-1.68-1.04-2.52-.46-1.13-.93-2.25-1.36-3.39-.38-.99-.77-1.97-1.08-2.98-.33-1.1-.44-2.27-.86-3.33-.59-1.48-.94-3.01-1.2-4.56-.07-.43-.1-.98-.37-1.22-.24-.22-.84-.21-1.2-.08-.93.33-1.82.76-2.7,1.21-.19.1-.39.43-.38.65.02.66.14,1.32.23,1.98.23,1.69.44,3.39.72,5.08.07.41.4.77.54,1.18.08.23.11.58-.02.75-.25.34-.64.58-.92.9-.45.51-.76.35-1.24-.02-.46-.34-.81-1.1-1.62-.72-.06.03-.28-.09-.3-.17-.21-.66-.53-1.33-.54-2-.03-1.37-.19-2.68-.83-3.9-.09-.17-.51-.37-.6-.3-.87.63-1.78,1.23-2.53,1.99-.59.59-1.03,1.36-1.44,2.1-.33.61-.79.31-1.15.23-.34-.08-.53-1.23-.3-1.45.61-.58.99-1.33,1.67-1.91,1.06-.9,1.91-2.04,3.21-2.68.17-.08.34-.44.3-.62-.28-1.25-.6-2.5-.95-3.74-.37-1.31-.92-2.59-1.15-3.92-.34-1.95-.47-3.95-.69-5.92-.07-.62-.06-1.26-.18-1.87-.3-1.56-.78-3.1-.95-4.68-.26-2.42-.37-4.87-.46-7.31-.07-2.15-.13-4.32.02-6.47.12-1.64.2-3.29.34-4.93.16-1.91.12-3.84.17-5.76,0-.31,0-.63,0-1.13-.3.44-.52.69-.66.98-.55,1.14-1.06,2.31-1.61,3.45-.76,1.56-1.56,3.09-2.3,4.66-.52,1.11-1.02,2.23-1.44,3.38-.47,1.27-.82,2.59-1.27,3.88-.44,1.25-1.03,2.45-1.4,3.72-.57,1.99-.86,4.08-2.14,5.81-.04.05-.02.15-.04.22-.46,1.62-.92,3.24-1.37,4.85-.01.05-.03.09-.05.14-.29.86-.6,1.7-.85,2.57-.25.89-.4,1.8-.66,2.68-.22.74-.6,1.43-.81,2.18-.31,1.13-.5,2.28-.78,3.42-.31,1.21.16,2.47-.39,3.69-.28.6-.62,1.03-1.18,1.03-.63,0-.99-.53-1.05-1.15-.19-1.8-.11-3.55.42-5.34.58-1.99.78-4.09,1.16-6.14.24-1.3.49-2.6.75-3.89.22-1.07.48-2.14.7-3.21.16-.78.21-1.59.41-2.35.22-.83.58-1.61.84-2.43.3-.95.56-1.9.81-2.86.33-1.29.62-2.59.95-3.88.06-.22.2-.41.31-.62.16-.33.37-.64.48-.98.25-.72.46-1.46.69-2.2.39-1.23.73-2.47,1.19-3.67.49-1.3,1.09-2.57,1.65-3.85.27-.63.57-1.24.83-1.87.04-.11-.07-.28-.11-.43-.13.08-.31.13-.39.24-.15.23-.2.53-.36.75-.21.28-.5.5-.73.76-.57.66-.87,1.5-1.57,2.11-.74.65-1.11,1.64-1.82,2.39-.83.88-1.33,2.08-1.96,3.15-.84,1.43-1.77,2.81-2.45,4.31-.78,1.73-1.73,3.33-2.71,4.94-.27.45-.4.87-1.03.85-.15,0-.35.18-.44.34-.34.54-.66,1.1-.96,1.66-.33.62-.58,1.27-.93,1.88-.62,1.09-1.3,2.15-1.93,3.23-.19.31-.31.67-.48.99-.72,1.36-1.54,2.68-2.13,4.1-.42,1-1.23,1.9-1.06,3.13.01.1-.19.23-.26.36-.13.24-.24.49-.35.75-.49,1.14.4,1.94.74,2.86.4,1.09.97,2.11,1.46,3.16.48,1.04.92,2.08,1.42,3.11.2.42.39.94.74,1.17.56.37.7.89.78,1.43.04.28-.06.74-.25.85-.3.18-.75.23-1.12.18-1.02-.15-.89-1.03-1.01-1.75-.09-.54-.06-1.16-.32-1.6-.52-.88-1.19-1.68-1.39-2.73-.04-.21-.18-.4-.28-.61-.42-.92-.9-1.81-1.24-2.75-.17-.48-.3-.66-.83-.53-.98.24-1.7-.54-1.5-1.52.17-.8.19-1.57-.48-2.22-.38-.38-.68-.85-.97-1.31-.19-.29-.31-.63-.43-.96-.24-.65.16-1.18.81-.98.61.19,1.15.52,1.29,1.29.07.41.34.79.55,1.17.02.04.32.03.36-.04.6-1,1.23-2,1.75-3.04.46-.92.78-1.91,1.22-2.84.85-1.79,1.75-3.55,2.6-5.35.39-.82.69-1.69,1.04-2.53.24-.58.44-1.19.75-1.74.61-1.09,1.31-2.13,1.91-3.22.86-1.55,1.67-3.13,2.48-4.7.2-.38.32-.81.48-1.21-.07-.04-.13-.09-.2-.13-.39.49-.72,1.06-1.19,1.46-1.22,1.05-2.17,2.32-3.12,3.59-1.09,1.45-1.99,3.04-3.04,4.51-1.04,1.46-2.17,2.86-3.28,4.27-.42.54-.93,1.01-1.32,1.56-.53.74-.97,1.54-1.46,2.3-.44.67-.92,1.31-1.33,2-.76,1.26-1.51,2.53-2.22,3.82-.37.66-.67,1.36-.99,2.04-.26.55-.48,1.12-.75,1.67-.83,1.68-1.68,3.35-2.5,5.03-.42.86-.78,1.74-1.18,2.61-.1.23-.26.43-.33.67-.57,1.81-1.16,3.61-1.67,5.44-.58,2.04-1.13,4.1-1.59,6.17-.22.99-.17,2.04-.35,3.04-.06.3-.44.69-.74.77-.48.11-1.03,0-1.54-.03-.05,0-.12-.17-.11-.26.03-1.03-.13-2.1.14-3.06.43-1.52-.06-2.84-.47-4.21-.22-.75-.54-1.49-.65-2.26-.18-1.22,0-2.38.6-3.52.41-.78.5-1.74.7-2.62.27-1.21.5-2.44.75-3.65.02-.1.02-.2.06-.29.67-1.63,1.32-3.27,2.01-4.9.17-.4.52-.73.7-1.13.73-1.62,1.41-3.25,2.14-4.87.22-.49.52-.95.8-1.42.57-.96,1.17-1.91,1.72-2.88.84-1.46,1.58-2.97,2.48-4.39.95-1.49,2.02-2.9,3.05-4.33.91-1.27,1.85-2.5,2.75-3.78.53-.76.98-1.57,1.49-2.39-.13-.02-.26-.08-.36-.05-.44.15-.88.37-1.01-.36,0-.05-.11-.13-.17-.13-.98,0-.9-1.03-.85-1.33.14-.72-.29-1.3-.21-1.96.07.01.19.06.22.02.62-.67,1.24-1.35,1.85-2.04.02-.03-.02-.12-.04-.18-.09.02-.23.01-.28.07-.58.7-1.16,1.42-1.73,2.13ZM184.08,182.3c.32.54,1.11.63,1.6.19.35-.32.65-.72.89-1.14.45-.8,1.54-1.23,1.39-2.39-.01-.1.25-.33.41-.36,1.07-.17,1.12-.96,1.19-1.79.12-1.49.2-2.99.88-4.38.17-.34.34-.86.2-1.13-.39-.76-.88-1.52-1.47-2.13-.51-.52-1.32-.75-1.82-1.28-.63-.67-1.09-1.5-1.61-2.28-.96-1.42-1.82-2.92-2.9-4.25-.44-.54-.42-1.52-1.36-1.65-.03,0-.06-.08-.07-.13-.16-.66-.39-1.32-.47-1.99-.15-1.19-.19-2.39-.32-3.58-.07-.67-.27-1.32-.35-1.99-.15-1.34-.22-2.69-.37-4.02-.18-1.59-.44-3.17-.59-4.75-.21-2.24-.35-4.48-.51-6.72-.03-.43.08-.89-.05-1.27-.15-.43-.42-.9-.77-1.15-.15-.11-.72.21-1,.46-1.21,1.08-2.38,2.2-3.56,3.32-.43.41-1.01.79-1.21,1.31-.3.8-.79.73-1.42.69-.55-.03-.84-.42-1.25-.67-1.22-.76-2.48-1.47-3.74-2.17-1.56-.86-3.13-1.69-4.7-2.52-.38-.2-.78-.48-1.19-.51-.46-.03-.78-.1-1.1-.47-.3-.34-.77-.54-1.17-.07-.47.55-.96,1.1-1.36,1.71-.5.76-.92,1.57-1.38,2.36-.5.85-1.01,1.7-1.5,2.56-.25.44-.45.91-.67,1.36-.7,1.45-1.39,2.9-2.11,4.34-.11.21-.38.37-.62.46-.71.27-1.35-.02-1.85-.48-.87-.8-1.77-1.48-2.98-1.64-.19-.03-.39-.11-.56-.22-.87-.55-1.72-1.12-2.58-1.68-1.21-.79-2.38-1.66-3.64-2.35-1.55-.85-3.2-1.52-4.77-2.34-.76-.4-1.33-.03-1.68.43-.9,1.21-1.72,2.5-2.48,3.8-.79,1.34-1.45,2.76-2.22,4.11-.24.43-.3,1.04-.97,1.17-.17.03-.29.39-.43.6.2.13.39.3.61.38.53.18,1.06.35,1.6.47.51.11,1.16,0,1.52.27.93.71,2.29-.11,3.07.94.03.04.14,0,.22,0,.72,0,.96.37.76,1.05-.05.16.22.59.26.58.53-.16,1.16-.24,1.54-.59.43-.4.78-.62,1.37-.49.34.07.7.02,1.05.03,1.51,0,3.02,0,4.53.03.19,0,.43.05.57.17.75.65,1.51,1.3,2.21,2,1.08,1.07,2.09,2.2,3.18,3.26,1.45,1.41,2,3.26,2.53,5.09.31,1.07.36,2.21.57,3.32.05.25.27.51.48.68.28.23.66.33.95.55.61.46,1.25.91,1.75,1.47.8.89,1.48,1.88,2.24,2.81.36.44.83.78,1.14,1.24.36.55.59,1.18.9,1.77.15.28.41.51.54.79.48,1.06.95,2.13,1.39,3.2.68,1.64,1.36,3.28,2.02,4.93.77,1.91.72,4.1,2,5.83.05.06,0,.27-.08.33-.49.37-.31.76-.09,1.18.06.11.08.26.06.38-.05.33-.21.65-.19.97.06.84.21,1.67.31,2.5.02.12.03.28-.03.37-.55.74.05.68.46.62.47-.07.94-.24,1.39-.41.48-.18.93-.45,1.41-.62,1.16-.39,2.33-.73,3.49-1.12.33-.11.6-.39.92-.53.56-.23,1.2-.31,1.69-.62,1.38-.88,2.7-1.84,4.03-2.78.81-.57,1.63-1.14,2.42-1.73.88-.66,1.75-1.35,2.62-2.04.11-.09.21-.21.26-.33.18-.4.34-.81.54-1.32ZM313.05,105.14c.08.02.15.05.23.07.12.23.22.47.36.68.2.31.43.6.64.91.1.14.14.33.26.44.89.88,1.53,1.85,1.65,3.15.04.46-.05,1.06.06,1.31.36.82.24,1.58.21,2.39-.05,1.44.03,2.89,0,4.33,0,.36-.26.72-.32,1.09-.22,1.52-.42,3.05-.59,4.57-.19,1.72-.33,3.45-.49,5.18-.03.27,0,.56-.09.82-.2.67-.67,1.34-.63,1.99.15,2.36-.77,4.49-1.22,6.72-.23,1.17-.61,2.32-.86,3.49-.11.53.03,1.13-.11,1.65-.29,1.06-.7,2.1-1.05,3.14-.27.79-.53,1.59-.78,2.39-.29.93-.59,1.86-.83,2.81-.11.45.11,1.15-.14,1.38-.79.72-.67,1.69-.96,2.55-.04.11.02.26.04.38.1-.08.24-.15.3-.26.18-.3.31-.62.48-.92.72-1.28,1.5-2.52,2.14-3.83.41-.85.59-1.82.91-2.72.08-.24.35-.41.45-.64.32-.76.6-1.54.89-2.31.5-1.33,1.01-2.66,1.49-4,.36-1,.67-2.02,1.01-3.03.28-.83.62-1.65.85-2.49.32-1.18.46-2.42.88-3.56.71-1.91,1.2-3.83,1.06-5.89,0-.12.13-.24.18-.37.09-.2.22-.4.26-.61.12-.8.22-1.61.29-2.41.18-1.85.38-3.69.32-5.56-.05-1.62.16-3.25.25-4.88.01-.22.07-.47.01-.67-.28-.99-.6-1.96-.91-2.94-.03-.1-.07-.24-.15-.28-.59-.34-.62-.5-.11-1,.44-.42.64-.91.57-1.53-.13-1.07-.23-2.15-.28-3.23-.02-.35.37-.83.24-1.04-.54-.83-.3-1.68-.3-2.54-.01-1.55-.07-3.1-.12-4.65-.02-.69-.02-1.4-.15-2.08-.19-.93-.58-1.82-.72-2.75-.16-1.06-.05-2.17-.21-3.23-.19-1.28-.51-2.54-.83-3.79-.29-1.13-.71-2.22-.99-3.35-.34-1.4-.55-2.83-.88-4.23-.29-1.23-.67-2.44-.98-3.67-.12-.46-.1-.96-.27-1.4-.62-1.6-1.46-3.14-1.87-4.78-.33-1.32-.7-2.61-1.25-3.85-.56-1.25-1.11-2.5-1.7-3.73-.64-1.31-1.56-2.54-1.93-3.91-.32-1.19-1.11-1.96-1.7-2.91-.8-1.3-1.6-2.59-2.42-3.87-.11-.18-.3-.4-.48-.43-.69-.11-.8-.64-.96-1.16-.04-.14-.02-.32-.1-.43-.44-.7-.91-1.39-1.36-2.08-.18-.28-.29-.75-.53-.84-1.49-.54-2.3-1.77-3.24-2.92-1.02-1.25-2.08-2.46-3.19-3.64-.7-.74-1.51-1.39-2.28-2.07-.55-.47-1.1-.95-1.69-1.37-.74-.51-1.52-.97-2.28-1.43-.16-.1-.35-.14-.52-.21,0,.25-.08.6.05.74.52.59,1.02,1.31,1.69,1.64.98.47,1.4,1.35,2.06,2.07.48.52.91,1.07,1.39,1.59.54.58,1.17,1.1,1.66,1.72.66.82,1.25,1.71,1.84,2.58.71,1.04,1.43,2.08,2.07,3.16,1.33,2.22,2.6,4.47,3.9,6.71.62,1.07,1.48,1.98,1.88,3.21.27.81.91,1.5,1.3,2.28.81,1.65,1.49,3.38,2.35,5,1.09,2.06,2.48,3.96,3.17,6.22.34,1.12.77,2.21,1.11,3.33.27.88.47,1.78.67,2.68.32,1.41.66,2.82.89,4.25.22,1.41.33,2.84.46,4.27.04.49.31,1.07-.41,1.35-.07.03-.15.24-.12.33.21.57-.05,1-.35,1.44-.31.46-.76.92-.28,1.55.03.04-.06.17-.09.26-.12.45-.22.91-.38,1.35-.04.12-.24.19-.36.29-.15-.24-.5-.59-.43-.71.39-.7-.1-1.28-.19-1.9-.21-1.44-.48-2.88-.76-4.31-.11-.56-.3-1.1-.49-1.64-.27-.77-.58-1.52-.85-2.29-.23-.68-.38-1.38-.65-2.04-.22-.52-.54-1-.87-1.46-.08-.11-.37-.07-.57-.1-.08.63-.33,1.29-.22,1.89.36,1.91.85,3.79,1.28,5.69.02.07.03.14.06.21.47,1.23,1.02,2.43,1.39,3.68.3.99.38,2.05.56,3.08.09.51.15,1.03.24,1.54.24,1.29.51,2.57.74,3.86.09.51.06,1.03.12,1.54.29,2.18.62,4.35.88,6.53.12.97.14,1.96.16,2.95.04,2.08.05,4.16.07,6.24.03,1.97.09,3.94.08,5.91,0,1-.11,2.01-.15,3.01,0,.17.08.34.13.52.12-.18.31-.35.35-.55.08-.42.08-.85.13-1.27.16-1.24.4-2.48.49-3.73.11-1.62,0-3.26.15-4.88.1-1.02-.27-2.06.24-3.1.19-.38-.15-1.01-.17-1.52-.01-.37.1-.74.16-1.12ZM270.81,55.66c-.07.04-.15.08-.22.11.11.49.16.99.33,1.46.7,1.93,1.49,3.84,1.49,5.95,0,.07.02.15.05.22.32.68.72,1.32.95,2.03.37,1.09.68,2.21.92,3.34.45,2.16.85,4.34,1.23,6.52.22,1.26.35,2.54.52,3.81.01.07.02.15.05.22.78,1.51,1.06,3.13,1.23,4.81.16,1.51.56,3,.8,4.51.24,1.54.45,3.1.6,4.65.16,1.55.28,3.1.33,4.65.06,1.79,0,3.59.06,5.38.04.99.22,1.97.35,2.96.1.8.3,1.61.31,2.41,0,.84-.24,1.69-.23,2.53.01,1.21.18,2.43.23,3.64.08,1.7.15,3.4.17,5.1.02,1.72-.04,3.44-.02,5.15.02,1.39.11,2.77.17,4.15,0,.17-.02.35-.06.52-.22.96-.48,1.91-.65,2.88-.16.9-.23,1.81-.34,2.72-.04.32,0,.66-.11.95-.36,1.01.23,2.14-.42,3.12-.1.15-.05.56.09.7.59.58,1.23,1.1,1.87,1.63.03.02.27-.1.28-.18.05-.34-.08-.8.1-.99.52-.56.57-1.22.68-1.91.3-1.89.73-3.77.95-5.68.29-2.48.44-4.98.65-7.46.05-.54.19-.94.87-.61.29.14.62.23.94.25.16.01.47-.17.47-.28.09-1.5.16-3,.19-4.5.03-1.12,0-2.24,0-3.36,0-.02,0-.05.01-.07.09-.78.2-1.55.26-2.33.09-1.28.12-2.56.21-3.84.02-.23.23-.45.35-.67.23.16.49.29.68.48.18.19.24.52.45.66,1.23.83,1.29,2.22,1.72,3.43.08.21.16.42.24.64.12-.25.26-.49.37-.75.04-.11.03-.26,0-.37-.22-.59.03-1.05.54-1.17.31-.07.76.19,1.07.41.3.21.45.3.58-.11.08-.27.26-.52.27-.79.04-.85-.03-1.71.02-2.56.17-2.66.05-5.29-.32-7.93-.26-1.89-.26-3.82-.46-5.73-.21-1.96-.16-3.93-.73-5.88-.27-.92-.57-1.15-1.42-1.31-.62-.12-.83.39-1.16.42-.85.07-.69.5-.68,1.06.03,1.62,0,3.24-.06,4.86-.09,2.12-.24,4.23-.37,6.34,0,.11-.09.22-.13.33-.13-.06-.33-.1-.36-.19-.2-.52-.44-1.05-.52-1.59-.16-1.15-.17-2.32-.37-3.46-.19-1.05-.59-2.06-.83-3.11-.22-.97-.32-1.97-.53-2.94-.08-.36-.28-.94-.5-.98-1.43-.25-1.89-1.34-2.35-2.47-.25-.6-.6-1.15-.85-1.75-.1-.24-.19-.65-.07-.77.36-.38.15-.68.04-1.05-.23-.72-.38-1.47-.6-2.19-.17-.55-.44-1.08-.56-1.64-.31-1.43-.46-2.91-.87-4.32-.53-1.78-1.28-3.49-1.88-5.25-.41-1.19-.71-2.42-1.11-3.61-.42-1.24-.85-2.47-1.36-3.68-.64-1.51-1.36-2.98-2.05-4.46-.48-1.02-.99-2.03-1.49-3.04ZM104.72,60.7c-1.14.25-2.09.41-3.01.68-.53.16-1.08.41-1.51.75-1.01.78-1.96,1.64-2.92,2.49-.16.14-.25.35-.35.54-.27.54-.56,1.08-.79,1.65-.32.79-.69,1.59-.86,2.42-.2.94-.23,1.93-.3,2.9-.03.45.04.91.06,1.36.02.56.48,1.19-.34,1.63-.16.09-.18.89-.08.94.62.27.41.79.48,1.22.1.69-.24,1.36.15,2.09.48.88.7,1.89,1.14,2.8.69,1.43,1.96,2.51,2.63,3.97.02.04.35.02.46-.07,1.41-1.18,2.81-2.38,4.21-3.57,1.59-1.34,3.14-2.73,4.78-3.99.96-.74,2.08-1.27,3.12-1.9.14-.09.27-.19.42-.26,1.01-.51,2.01-1.04,3.04-1.49.68-.29,1.53-.3,2.09-.71,1.07-.79,2.31-1.09,3.51-1.51.53-.19.49-.59.28-.89-.33-.46-.83-.8-1.17-1.26-.34-.45-.49-1.07-.87-1.46-.89-.91-1.88-1.73-2.82-2.6-.37-.34-.63-.83-1.05-1.09-1.15-.74-2.34-1.41-3.53-2.07-.81-.45-1.63-.89-2.48-1.26-.56-.24-1.19-.32-1.78-.49-.89-.27-1.78-.55-2.53-.79ZM61.88,168.14c-.05.01-.11.03-.16.04.13.44.21.91.4,1.31.22.45.53.87.84,1.28.91,1.17,1.82,2.35,3.51,2.43.87.04,1.74.18,2.61.29.81.1,1.62.34,2.42.3.75-.04,1.6.74,2.27-.19.11-.15.31-.4.42-.37,1.21.29,1.52-.83,2.17-1.38.15-.13.21-.37.29-.57.23-.57.31-1.29.72-1.67.98-.92,1.28-2.19,1.83-3.3.7-1.42,1.54-2.72,2.42-4.01.56-.82,1.42-1.61.39-2.67-.05-.05-.06-.14-.07-.21-.11-.72-.19-1.44-.32-2.15-.06-.33-.24-.64-.31-.98-.12-.56-.19-1.14-.28-1.71-.03-.17-.02-.43-.12-.47-.8-.39-1.61-.76-2.44-1.07-.4-.15-.86-.22-1.29-.2-1.26.05-2.52.15-3.78.28-.24.02-.45.38-.69.39-1.12.03-1.84.82-2.71,1.32-1.06.61-1.83,1.63-3.01,2.09-.4.15-.82.32-1.14.59-.76.64-1.46,1.35-2.2,2.01-.35.32-.88.52-1.08.9-.32.6-.43,1.32-.63,1.98-.04.14-.12.27-.14.42-.13.73-.36,1.46-.33,2.18.04,1.06.26,2.11.41,3.16ZM266.25,137.43c.42-1.5.86-3.05,1.28-4.6.09-.34.21-.58.61-.41.29.13.61.24.83.45.46.42.54.11.58-.26.16-1.36.32-2.72.43-4.08.06-.68-.05-1.37.02-2.04.19-1.85.46-3.69.64-5.54.1-1.05.08-2.11.11-3.16.02-.75.32-1.13,1.03-.93.77.22,1.05.58,1.76.98.71.4.73,1.02.66,1.8-.13,1.37-.02,2.77-.03,4.16,0,.82.02,1.64-.06,2.44-.12,1.25-.38,2.49-.47,3.74-.07,1.02-.1,1.96-.18,2.98-.07.99-.2,1.97-.33,2.95-.26,1.94-.26,3.89-.49,5.84-.09.77-.16,1.47-.17,2.38-.07.83-.06,1.73-.18,2.56-.01.1.12.23.19.35.09-.1.24-.18.27-.29.21-.89.45-1.78.58-2.69.24-1.63.41-3.27.61-4.9.14-1.08.3-2.16.42-3.25.14-1.26.25-2.53.37-3.8.13-1.39.32-2.77.38-4.16.08-1.98.03-3.96.09-5.94.03-1.02.26-2.03.3-3.05.04-.85-.03-1.7-.08-2.55-.06-.87-.18-1.73-.23-2.6-.01-.2.2-.42.19-.62-.04-.7-.17-1.39-.21-2.09-.05-.75-.01-1.51-.05-2.27-.12-2.24-.27-4.48-.39-6.72-.07-1.33-.1-2.66-.15-3.99,0-.15-.1-.3-.15-.46-.15.07-.29.15-.44.22-.4.18-.79.45-1.21.52-.69.11-1.37-.49-2.1-.08-.05.03-.19-.06-.27-.11-.28-.18-.58-.34-.81-.56-.16-.16-.32-.41-.32-.62-.02-1.05.01-2.11,0-3.16,0-.22-.08-.44-.12-.66-.07,0-.15.01-.22.02,0,.45.04.89,0,1.34-.15,1.57-1.91,3.03-3.66,1.91-.12-.07-.27-.08-.41-.12-.04.15-.13.32-.11.46.13.85.33,1.69.42,2.54.14,1.23.09,2.5.33,3.7.36,1.79.81,3.57.81,5.41,0,.13.08.35.15.36.79.14.54.3.04.53-.07.03-.09.21-.1.32-.09.94.48,1.84.15,2.8-.03.08.03.19.05.29.08.43.2.86.25,1.3.07.67.17,1.36.1,2.03-.1.92.44,1.82.02,2.73-.16.34-.49.67-.51,1.01-.06,1.33-.1,2.67-.02,4,.13,2.35.24,4.68-.41,6.98-.1.34.01.74.05,1.11.03.32.18.64.14.94-.09.73-.19,1.42,0,2.19.19.78.04,1.64.04,2.39ZM164.91,204.42c-.34.87.34,1.33.77,1.8,1.19,1.31,2.49,2.52,3.67,3.84.55.62.93,1.39,1.41,2.08.12.16.35.24.54.35.07-.19.15-.38.21-.58.05-.17.06-.35.12-.51.53-1.4,1.55-2.63,1.45-4.26-.02-.3.21-.7.45-.91,1.11-.94,1.96-2.13,3.37-2.79,1.12-.53,1.96-1.64,2.97-2.44,1.3-1.04,2.66-2,3.96-3.04.47-.38.95-.82,1.26-1.33.31-.52.68-.72,1.22-.78.71-.07.85-.31.6-.96-.11-.28-.25-.55-.34-.83-.22-.72-1.25-1.25-.54-2.22.07-.1-.09-.45-.23-.59-.6-.6-.68-1.33-.69-2.12,0-.13-.2-.37-.22-.37-.46.19-.91.4-1.34.64-.3.17-.55.41-.85.58-.41.24-.86.42-1.25.68-.79.52-1.52,1.12-2.33,1.61-1.04.63-1.96,1.52-3.27,1.63-.16.01-.3.18-.46.23-.83.28-1.67.81-2.48.76-1.48-.09-2.81.42-4.14.8-.88.25-1.54,1.05-1.59,2.12-.01.27,0,.66-.17.79-.89.7-.89,1.71-1.08,2.67-.13.65-.23,1.34-.54,1.92-.21.4-.81.61-.5,1.21ZM106.71,42.91c-.18.03-.32.02-.37.07-.44.51-1,.97-1.26,1.56-.51,1.13-.79,2.37-1.3,3.5-.52,1.16-.43,2.33-.3,3.52.02.17.2.46.32.47.57.04.64.4.62.83-.04.59.12.76.79.82,1.08.1,2.31-.26,3.19.8.27.32.73.51,1.14.66,1.06.41,2.15.7,3.13,1.31.68.43,1.43.74,2.11,1.16.81.5,1.57,1.07,2.37,1.59.13.08.33.04.5.06,0-.16,0-.33,0-.49-.01-.72-.19-1.5,0-2.16.42-1.45,1.03-2.84,1.57-4.25.05-.13.13-.28.24-.36.82-.65,1.63-1.3,2.48-1.91.38-.27.3-.49.03-.7-.35-.27-.75-.47-1.13-.7-1.17-.72-2.29-1.51-3.51-2.14-.94-.48-1.98-.75-2.98-1.11-.9-.31-1.79-.65-2.71-.9-.95-.26-1.93-.42-2.89-.65-.18-.04-.33-.21-.5-.29-.53-.25-1.07-.48-1.54-.7ZM90.7,74.54c.05-.01.11-.02.16-.03.03-.65-.06-1.34.12-1.95.39-1.33.62-2.71,1.51-3.88.61-.81.68-1.9,1.48-2.71.84-.85,1.36-2.01,2.02-3.03.09-.14.2-.3.33-.4.9-.68,1.81-1.32,2.69-2.01.29-.23.45-.68.76-.84,1.3-.64,2.58-1.44,4.15-.97.48.14.96.25,1.45.37.73.18,1.48.3,2.19.53,1.24.4,2.48.83,3.68,1.32.81.33,1.69.65,2.33,1.22,1.07.96,2.61,1.31,3.38,2.63.04.06.1.13.16.16,1,.36,1.38,1.37,2.13,2,.61.5.74,1.6,1.86,1.47.05,0,.12.19.18.28.54.83.81,1.8,1.56,2.53.38.37.65.37,1.03.29.42-.08.84-.18,1.23-.32.2-.07.35-.26.52-.4-.18-.09-.36-.18-.54-.26-.31-.14-.65-.24-.93-.43-.25-.17-.45-.41-.64-.65-.1-.12-.15-.29-.2-.44-.06-.19-.06-.42-.16-.58-.8-1.23-1.52-2.53-2.46-3.64-.92-1.09-2.03-2.03-3.12-2.96-.65-.55-1.43-.96-2.15-1.43-1.2-.79-2.36-1.65-3.61-2.36-1.34-.76-2.76-1.39-4.16-2.04-.98-.45-1.94-.74-3.07-.32-.62.23-1.44.16-2.1-.03-.34-.1-.44-.26-.64.12-.07.13-.29.17-.44.26-.94.62-1.9,1.22-2.83,1.88-.88.63-1.74,1.3-2.58,1.98-.48.38-.96.77-1.36,1.23-.62.73-1.18,1.53-1.75,2.3-.53.72-1.17,1.39-1.53,2.19-.68,1.52-1.33,3.08-1.75,4.68-.5,1.89-.81,3.83-1.09,5.77-.25,1.72.28,3.38.82,4.98.34,1.02,1.03,1.92,1.58,2.86.9,1.58,1.8,3.16,2.72,4.72.47.79.68,1.71,1.44,2.36.34.29.38.34.59-.03.37-.67.83-1.29,1.13-1.99.11-.26-.02-.75-.21-1-.31-.41-.81-.67-1.16-1.05-.36-.39-.58-.92-.96-1.28-1.33-1.21-1.9-2.9-2.43-4.46-.72-2.12-.91-4.41-1.32-6.63ZM296.4,207.44c-.18-1.67-.23-3.11-.54-4.5-.11-.51-.89-1.27-1.27-1.22-.65.09-1.29.66-1.83,1.15-.54.5-.9,1.2-1.42,1.72-1.09,1.08-2.24,2.09-3.35,3.14-.63.6-1.19,1.29-1.84,1.87-.71.63-1.54,1.13-2.22,1.78-1.45,1.39-2.86,2.81-4.24,4.27-1.26,1.34-2.46,2.73-3.66,4.12-1.42,1.64-2.81,3.31-4.23,4.95-.95,1.1-1.93,2.17-2.92,3.24-.72.77-1.48,1.49-2.22,2.24-.77.78-1.56,1.54-2.28,2.36-.3.35-.49.74,0,1.24.39.39.54,1.01.79,1.53.06.12.11.31.21.34.1.04.3-.04.38-.13.54-.59,1.07-1.2,1.59-1.81.34-.4.66-.82,1.01-1.21.74-.83,1.52-1.63,2.24-2.47.68-.79,1.25-1.67,1.97-2.42,1-1.04,2.11-1.98,3.14-3.01.81-.81,1.48-1.78,2.37-2.49.76-.61,1.41-1.35,2.25-1.91,1.31-.89,2.36-2.17,3.53-3.27.46-.43.92-.85,1.39-1.27.64-.57,1.3-1.1,1.91-1.7.62-.6,1.14-1.29,1.77-1.89.44-.42,1-.72,1.46-1.12.72-.63,1.4-1.31,2.1-1.97.18-.18.34-.38.54-.54.4-.31.85-.58,1.24-.91.36-.31.62-.56,1.03-.02.17.22.56.32.87.36.07,0,.2-.44.22-.47ZM130.6,163.57c.03.35,0,.71.09,1.04.19.77.41,1.53.65,2.28.21.65.37,1.35.73,1.91,1.04,1.6,2.46,2.81,4.23,3.58.99.43,2.04.6,3.07.43.84-.14,1.62-.57,2.44-.82,1.77-.54,3.03-1.8,4.35-2.98.07-.06.08-.18.12-.27.19-.4.41-.8.58-1.21.09-.22.1-.48.15-.72.09-.49.21-.98.28-1.48.1-.77.42-1.63.21-2.3-.37-1.15-1.08-2.19-1.65-3.26-.05-.09-.2-.12-.27-.21-.41-.49-.91-.95-1.21-1.5-.52-.94-1.16-1.63-2.28-1.77-.33-.04-.79-.11-.95-.34-.36-.51-.8-.48-1.26-.37-.36.08-.5.07-.66-.33-.1-.26-.63-.59-.84-.52-.75.27-1.52.59-2.15,1.07-.91.7-1.77,1.49-2.52,2.35-.75.85-1.28,1.89-2.02,2.75-.69.8-1.06,1.64-1.08,2.69ZM132.98,114.87c-.14-.74-.82-2.57-1.35-3.42-.44-.7-.77-1.46-1.17-2.18-.13-.23-.33-.44-.53-.62-.26-.22-.62-.34-.84-.59-.72-.83-1.7-1.3-2.7-1.38-1.01-.07-1.97-.66-3.05-.21-1.3.54-2.74.73-3.95,1.53-.36.24-.75.44-1.1.69-.49.35-.94.73-1.42,1.09-.2.15-.43.24-.62.39-1.4,1.13-1.61,2.88-1.93,4.41-.29,1.36.07,2.88.28,4.31.1.69.54,1.33.78,2.01.21.61.44,1.14,1,1.56.48.37.8.96,1.2,1.44.34.41.63.92,1.06,1.18,1.31.78,2.77.92,4.26.72.39-.05.84-.02.87-.62,0-.06.27-.19.39-.16,1.15.3,2.03-.65,3.12-.66.03,0,.06-.08.1-.11.59-.43,1.16-.92,1.8-1.26,1.1-.6,2.35-.99,2.85-2.32.22-.58.59-1.13.67-1.72.18-1.36.22-2.73.31-4.1ZM160.74,101.23c0,.63-.06,1.04.01,1.43.23,1.18.41,2.38.8,3.52.39,1.15.94,2.26,1.54,3.31.26.45.8.74,1.23,1.09.36.3.7.69,1.12.87.78.34,1.6.62,2.43.82.43.1.93.01,1.38-.05.38-.05.74-.23,1.11-.3.39-.07.82,0,1.17-.13,1.21-.46,2.4-.99,3.59-1.5.09-.04.14-.14.22-.19.44-.27.9-.52,1.33-.81.51-.34,1.19-.46,1.21-1.34.01-.45.29-1.01,1.02-.96.18.02.52-.18.56-.34.44-1.47.36-2.97-.01-4.43-.1-.4-.47-.73-.64-1.12-.26-.58-.89-.97-.66-1.82.39-1.46-.25-2.85-1.39-3.57-1.32-.83-2.31-2.27-4.03-2.41-.04,0-.1-.03-.13-.07-1.15-1.31-2.64-.67-4.02-.71-.39-.01-.79-.07-1.18-.05-.25.01-.54.08-.73.22-.62.47-1.13,1.16-1.82,1.45-1.43.59-2.49,1.56-3.11,2.89-.65,1.37-1.23,2.82-1.02,4.2ZM248.1,43.03c-.07,0-.15.02-.22.02.34,1.39-.73,2.77.1,4.17.06.1-.03.29-.03.44,0,.65-.17,1.37.05,1.94.47,1.2.58,2.41.57,3.67,0,.79-.04,1.59.07,2.37.19,1.35.48,2.68.75,4.02.22,1.11.33,2.26.76,3.29.33.8.4,1.58.55,2.39.3,1.69.67,3.37,1.01,5.06.08.39.07.8.17,1.18.43,1.72.92,3.43,1.33,5.16.15.65.07,1.35.23,1.99.25.97.65,1.89.93,2.85.27.92.43,1.88.69,2.81.3,1.06.63,2.12,1.01,3.16.27.75.72,1.43.95,2.18.48,1.6.87,3.23,1.28,4.85.09.35.1.72.21,1.06.29.88.61,1.75.92,2.62.12.35.21.73.38,1.06.07.14.31.21.47.31.03-.18.11-.37.08-.54-.33-1.72-.67-3.44-1.01-5.16-.36-1.78-.72-3.56-1.08-5.34-.21-.99-.42-1.99-.65-2.98-.28-1.22-.61-2.43-.88-3.66-.43-2.02-.79-4.05-1.23-6.07-.25-1.15-.68-2.27-.9-3.43-.33-1.76-.55-3.55-.81-5.32-.03-.2-.06-.4-.12-.59-.26-.84-.56-1.66-.78-2.5-.21-.8-.37-1.62-.52-2.43-.29-1.55-.55-3.1-.83-4.65-.18-1.01-.36-2.01-.59-3.01-.21-.9-.5-1.79-.7-2.69-.17-.81-.21-1.65-.41-2.45-.22-.89-.59-1.75-.84-2.63-.28-.98-.5-1.98-.76-2.97-.02-.06-.07-.11-.11-.17ZM59.05,160.41c1.19-1.49,3.24-2,4.46-3.61.81-1.06,2.03-1.67,3.18-2.35.97-.58,1.85-1.32,2.79-1.95.97-.64,1.8-1.63,3.16-1.42.05,0,.11,0,.15-.03,1.29-.89,2.81-.46,4.18-.54,1.14-.07,2.34.81,3.53,1.23.38.13.8.13,1.2.2.13.02.38.05.38.1.08.79.77.63,1.24.82.44.17.94.27,1.29.56.92.76,1.77,1.61,2.66,2.41.19.17.48.23.64.42.42.47,1.29.18,1.52.97.24.86.61,1.12,1.09.12.01-.03.09-.04.14-.04.44-.05.68-.32.49-.71-.11-.22-.47-.41-.73-.42-.42-.02-.65-.14-.73-.56-.03-.18-.14-.37-.27-.5-.48-.52-.92-1.1-1.48-1.52-.82-.62-1.73-1.12-2.61-1.67-.52-.32-1.08-.6-1.59-.93-.93-.61-1.8-1.28-3.03-1.31-.75-.02-1.49-.41-2.23-.64-.55-.17-1.08-.41-1.64-.48-.56-.08-1.14.01-1.71.02-.47,0-1.08-.38-1.24.47-.01.06-.15.13-.24.13-.71.03-1.44-.02-2.14.1-.27.04-.54.65-.72.61-.32-.07-.55-.6-.87-.66-1.12-.21-2.19,0-3.15.65-1.54,1.05-3.19,1.98-4.57,3.2-.88.77-1.89,1.38-2.67,2.38-.78,1.01-.88,2.09-1.28,3.14-.06.15.05.39.13.56.2.4.43.78.68,1.24ZM123.83,129.14s.02-.08.03-.12c.5-.04,1.02-.03,1.5-.15.63-.16,1.25-.39,1.46-1.12.03-.1.02-.3-.04-.33-.12-.06-.4-.08-.41-.05-.26.77-.89.25-1.33.37-.47.13-.97.1-1.46.17-.55.07-1.12.3-1.65.23-2.16-.3-4.22-.88-5.63-2.75-.53-.7-1.05-1.41-1.65-2.05-.45-.47-.9-.9-.96-1.6-.01-.16-.14-.32-.25-.45-.78-.92-.99-1.98-.83-3.15.03-.22,0-.45-.02-.68-.12-1.92-.06-3.83.26-5.73.06-.36.18-.75.39-1.03.98-1.28,1.85-2.65,3.3-3.49.48-.28.87-.87,1.36-.96,1.51-.28,2.67-1.62,4.33-1.41.07,0,.15-.03.21-.07,1.29-.57,2.63-.52,3.98-.29.41.07.79.31,1.19.47.26.11.56.17.79.33.62.41,1.23.83,1.81,1.3.93.75,2,1.39,2.34,2.67.08.28.29.52.41.79.6,1.35,1.48,2.59,1.62,4.13.12,1.4.66,2.78.29,4.2-.2.78-.52,1.53-.76,2.31-.15.5-.1,1.14-.4,1.49-.62.73-1.36,1.39-2.15,1.92-1.14.77-2.37,1.39-3.55,2.09-.24.15-.49.37-.61.62-.19.38.14.92.45.81.53-.18,1.05-.42,1.55-.67.48-.24.9-.62,1.4-.79,1.57-.53,2.56-1.61,3.19-3.1.24-.56.42-1.19.81-1.63.78-.88,1.45-1.73.89-2.98-.04-.09.02-.23.05-.35.08-.29.28-.6.24-.87-.16-1.1.2-2.17-.32-3.33-.53-1.17-.46-2.58-1.21-3.76-.86-1.35-1.54-2.8-2.33-4.2-.21-.37-.49-.72-.81-1-1.16-1-2.65-1.22-4.07-1.46-1.46-.24-2.95-.32-4.44.25-.95.37-2.04.37-3.06.56-.19.03-.36.16-.53.26-.6.34-1.17.84-1.82.98-.97.2-1.64.64-2.11,1.5-.14.25-.45.42-.7.61-.35.26-.76.45-1.06.76-1.18,1.2-1.48,2.84-2.1,4.32-.12.29-.28.6-.3.9-.1,1.44-.23,2.88-.21,4.32.01.69.27,1.41.53,2.07.36.93.99,1.77,1.2,2.72.25,1.11,1.28,1.46,1.79,2.31.37.61,1.05,1.03,1.58,1.54.24.24.41.61.69.74.96.46,1.81,1.12,2.99,1.18,1.38.07,2.75.41,4.12.64ZM275.1,243.2c.07.1.15.2.22.29.34-.19.74-.32,1.02-.57.88-.79,1.7-1.65,2.58-2.44.68-.61,1.42-1.15,2.12-1.74,1.43-1.22,2.78-2.55,4.28-3.67,1.54-1.15,3.21-2.13,4.83-3.15,1.36-.86,2.89-1.51,3.61-3.1.03-.08.15-.11.23-.17.45-.33.84-.68.84-1.33,0-.22.25-.46.44-.63.06-.05.34.07.47.18.35.28.61.17.64-.21.05-.63.02-1.27-.05-1.89-.01-.11-.36-.27-.56-.26-.22,0-.58.14-.61.27-.12.55-.22.5-.56.12-.37-.41-.75-1.04-1.46-.48-.52.4-1.06.78-1.52,1.24-.71.71-1.34,1.51-2.06,2.21-1.16,1.13-2.38,2.19-3.54,3.32-1.14,1.11-2.24,2.27-3.34,3.43-.49.51-.92,1.07-1.39,1.6-.64.73-1.29,1.44-1.92,2.18-.7.81-1.36,1.65-2.07,2.45-.72.81-1.47,1.58-2.21,2.37ZM167.87,90.62c-.35.04-.52.07-.7.09-.83-.11-1.67-.17-2.21-.85-.03-.07-.32-.14-.38-.08-.73.63-1.45,1.27-2.14,1.93-.39.37-.72.82-1.12,1.19-.47.43-1.05.76-1.45,1.23-1.29,1.5-1.72,3.44-1.76,5.26-.06,2.72-.62,5.51.31,8.2.34.98.72,1.95,1.11,2.91.18.45.39.91.67,1.31.41.58.87,1.12,1.35,1.64.13.15.43.13.61.25.25.15.44.4.69.52.53.24,1.07.44,1.62.63.28.1.57.2.86.21,2.04.1,4.09.25,6.14.24,1.45,0,2.9-.23,4.12-1.15.58-.43,1.12-.97,1.96-.61.1.04.29-.13.43-.22.83-.48.79-1.43,1.14-2.17.08-.17-.01-.43-.02-.65-.22.06-.48.07-.66.19-.88.57-1.72,1.22-2.63,1.74-.82.47-1.86.04-2.71.66-.59.43-1.35.64-2.06.88-1.08.36-2.15.9-3.34.3-.55-.28-1.16-.42-1.73-.65-.98-.39-2.05-.59-2.79-1.49-.57-.7-1.4-1.23-1.84-1.99-.64-1.11-1.07-2.34-1.5-3.56-.22-.62-.3-1.31-.36-1.98-.15-1.53-.3-3.06-.36-4.59-.02-.45.27-.91.35-1.38.36-2.06,1-3.96,2.81-5.24.75-.53,1.55-1,2.25-1.59.65-.55,1.27-.84,2.11-.48.14.06.4-.08.57-.17.2-.11.36-.28.7-.56ZM172.26,214.44c.14.29.18.54.27.56.14.03.33-.08.46-.18,1.18-.91,1.93-1.06,2.87-.22.54.49.45.1.56-.19.26-.69.46-1.4.78-2.05.45-.93.99-1.82,1.47-2.74.45-.87.76-1.82,1.3-2.63,1.11-1.68,2.33-3.29,3.51-4.92.35-.49.62-1.21,1.1-1.39.81-.31,1.01-.93,1.32-1.55.07-.14.08-.31.11-.46-.16.03-.34.02-.46.11-.88.61-1.77,1.2-2.61,1.86-.77.61-1.55,1.24-2.2,1.97-.64.72-1.77.9-2.1,1.95-.01.03-.08.05-.13.07-.43.24-.9.43-1.28.73-.81.63-1.65,1.26-1.74,2.43,0,.13-.13.26-.22.37-.42.56-.96,1.07-1.23,1.69-.66,1.52-1.2,3.1-1.77,4.59ZM57.12,163.96c-.1-.03-.2-.05-.29-.08-.48,1.08-1.04,2.12-1.41,3.24-.29.84-.36,1.76-.5,2.65-.24,1.48-.34,2.82,1.11,3.94,1.48,1.15,2.71,2.6,3.95,4.03.94,1.08,2.2,1.88,3.34,2.78.13.1.4.08.58.04,1.37-.31,2.72-.67,4.09-.95,2-.41,4.02-.76,6.02-1.15.15-.03.28-.2.42-.3-.15-.05-.29-.11-.45-.15-1.31-.35-2.6.48-3.91.06-.02,0-.05,0-.07,0-1.49.63-2.96-.17-4.44-.08-.1,0-.2-.03-.29-.07-.96-.45-1.92-.92-2.89-1.37-1.08-.5-2.09-1.12-2.87-2.02-.58-.67-1.14-1.37-1.58-2.13-.29-.49-.32-1.13-.52-1.68-.62-1.74-.71-3.51-.41-5.32.08-.48.07-.97.11-1.45ZM299.78,197.39c-.53.55-.97.95-1.34,1.41-.25.32-.33.78-.6,1.06-.51.54-.48.92-.05,1.52.34.48.61,1.1.65,1.68.09,1.41.02,2.84.05,4.26,0,.26.14.55.3.77.53.71.92,1.45.9,2.36-.02,1-.02,2.01,0,3.01.01.68.23,1.39.08,2.02-.25,1.03.24,1.86.56,2.7.32.85.18,1.22-.42,1.9-.62.7-1.72.62-2.18,1.61-.18.4-.2.44.05.69.15.15.23.38.34.57.31.52.66,1.03.94,1.57.46.88.54.15.74-.15.24-.37.43-.84.77-1.07.77-.52,1.43-1.71,1.26-2.66-.1-.57-.43-1.11-.46-1.68-.07-1.4.02-2.81-.05-4.21-.09-1.73-.27-3.46-.43-5.19-.18-1.96-.41-3.92-.58-5.88-.11-1.22-.16-2.44-.21-3.65-.03-.68.03-1.37.01-2.05,0-.14-.15-.28-.34-.61ZM246.13,69.61s.05,0,.08,0c-.02.12-.03.25-.06.37-.32,1.56-.79,3.12-.04,4.71.09.2,0,.49-.05.74-.06.32-.25.64-.24.96.07,2.05.18,4.09.26,6.14.04,1.03.02,2.07.04,3.11,0,.19.07.37.11.56.2-.07.41-.12.59-.22.74-.4,1.47-.8,2.19-1.22.52-.3,1.31-.31,1.07-1.32-.4-1.73-.69-3.48-1.06-5.22-.11-.5-.37-.96-.48-1.46-.35-1.63-.68-3.27-.99-4.91-.31-1.58-.59-3.17-.89-4.75-.02-.12-.16-.21-.24-.32-.04.08-.12.16-.12.24-.06.86-.11,1.72-.16,2.59ZM127.76,161.93c.06.03.11.06.17.1.06.29.1.59.17.88.29,1.31.56,2.62.89,3.92.2.77.43,1.55.77,2.27.42.89.93,1.75,1.49,2.57.37.55.47,1.27,1.22,1.59,1.28.55,2.09,1.78,3.56,2.2,1.06.31,2.15.51,3.08.33,1.49-.3,2.89-1.07,4.3-1.7.21-.1.28-.53.41-.81-.24.03-.49.04-.72.11-.72.23-1.42.65-2.15.72-1.87.17-3.72.4-5.57-.44-1.06-.48-2.21-.8-2.94-1.74-.64-.83-1.61-1.42-1.91-2.52-.34-1.22-.62-2.48-1.13-3.63-.96-2.17-.39-4.1.74-5.96.35-.57.9-1.01,1.32-1.55.35-.46.56-1.06.97-1.45,1.05-.99,2.15-1.94,3.29-2.81.41-.31.49-.64.23-.9-.14-.14-.71-.03-.94.16-.63.51-1.1,1.27-1.79,1.67-1.15.67-1.4,2.3-2.89,2.54-.02,0-.03.04-.05.06-.35.49-.74.95-1.03,1.47-.53.96-.99,1.96-1.48,2.94ZM204.28,174.91c-.15-.38-.33-.88-.55-1.37-.32-.72-.68-1.42-1-2.14-.18-.39-.27-.82-.47-1.2-.17-.32-.43-.59-.66-.88-.03.41-.06.81-.09,1.22-.05.66.14,1.52-.21,1.92-.71.83-.48,1.76-.68,2.64-.01.05.17.21.24.2.45-.08.91-.31,1.34-.25.52.07,1.18-.88,1.57.19.03.09.25.12.38.18.03-.11.06-.23.13-.51ZM142,152.83c-.59-.05-.64.24-.43.59.12.2.36.46.55.46.99,0,1.46.77,2.07,1.34.28.26.67.41.94.67.67.64,1.3,1.33,1.97,1.97.12.12.33.14.5.2-.03-.21,0-.47-.1-.63-.21-.33-.47-.63-.75-.9-.94-.93-2.01-1.75-2.81-2.78-.57-.73-1.24-.83-1.94-.91ZM160.62,226.51c.19,1.09.33,2.07.55,3.02.1.42.28.91.58,1.18.61.55.91,1.21,1.07,1.97.02.11.16.2.25.29.02-.14.09-.29.05-.41-.25-.7-.57-1.38-.79-2.09-.4-1.32-.73-2.65-1.11-3.98-.06-.2-.25-.37-.38-.55-.09.21-.18.42-.23.55ZM173,90.67c-.05.04-.18.13-.31.21.11.11.2.25.33.34,1.2.75,2.41,1.49,3.61,2.25.22.14.4.34.62.47.11.06.28.03.42.05-.05-.14-.06-.32-.16-.41-.85-.72-1.73-1.41-2.27-2.42-.05-.1-.17-.2-.27-.22-.62-.1-1.24-.17-1.97-.27ZM135.16,245.77c.01.05.06.35.1.35.25,0,.56,0,.75-.13.52-.34.93-.85,1.51-1.07.64-.24.74-.62.5-.95-.23-.31-.43-.85-1.24-.63-1.42.38-1.4,1.38-1.62,2.43ZM139.64,151.76c-.87.1-1.47.14-2.06.25-.26.05-.5.25-.73.41-.04.03,0,.3.03.3.26.03.54.1.78.03,1.04-.34,2.08-.37,3.14-.16.14.03.3-.07.45-.11-.07-.08-.13-.2-.22-.23-.54-.2-1.08-.37-1.39-.48ZM83.69,174.96c-.04-.06-.18-.49-.42-.56-.53-.15-2.08,1.38-1.95,1.98.08.36.54.75.92.91.48.2,1.39-1.12,1.45-2.33ZM149.77,167.62c-.15-.28-.23-.42-.3-.56-.06.12-.11.23-.17.35-.19.36-.33.77-.59,1.08-.65.78-1.36,1.5-2.03,2.27-.09.1-.07.29-.1.44.13-.06.29-.08.38-.17.61-.59,1.25-1.17,1.8-1.81.4-.48.68-1.06,1-1.58ZM129.08,242.22c.03.05.07.11.1.16,1.2-.82,2.41-1.62,3.59-2.46.16-.11.19-.38.22-.58.02-.13-.03-.33-.13-.39-.11-.06-.39-.06-.49.02-.72.58-1.45,1.16-2.1,1.79-.46.44-.8.97-1.19,1.46ZM164.31,198.59c.06.02.13.04.19.06.23-.46.47-.93.7-1.39.08-.15.15-.31.22-.47-.23-.08-.45-.21-.68-.21-.1,0-.28.24-.3.39-.07.53-.1,1.07-.14,1.61ZM180.53,96.03c-.76-.04-1.01.31-.8.9.07.19.08.39.15.57.04.1.18,1.01.26,1.09.07-.09.44-.58.48-.68.12-.35-.09-1.13,0-1.49.03-.13-.05-.28-.08-.39ZM284.32,29.77l-.12.1c.12.16.2.37.35.48.33.24.68.45,1.03.65.19.1.4.15.61.23-.09-.21-.12-.52-.28-.63-.51-.32-1.06-.56-1.6-.84ZM160.39,225.41c.13-.04.27-.08.4-.11-.1-.44-.18-.89-.3-1.33-.03-.09-.21-.18-.32-.2-.06,0-.21.19-.19.26.12.46.27.92.41,1.37ZM149.21,165.78s.06.03.09.04c0,.13-.02.26,0,.37.04.15.12.29.18.43.11-.14.25-.26.34-.41.05-.08.04-.2.02-.29-.07-.34-.16-.67-.25-1-.13.28-.26.57-.39.85ZM238.29,114.25c-.08-.06-.65-.26-.74-.32-.45.58-.97,1.48-1.41,2.07-.05.06-.03.21.02.29.03.04.3.48.33.44.45-.62,1.35-1.85,1.79-2.48Z"/>
    <path d="M68.82,44.14c1.25.12,2.51.21,3.76.38.39.05.76.34,1.14.5,2.11.89,4,2.14,5.46,3.9.82.98,1.47,2.14,2.02,3.31.79,1.68.85,3.5.75,5.34-.02.34.16.7.11,1.03-.08.55-.27,1.09-.43,1.64-.54,1.85-1.28,3.65-1.34,5.63-.04,1.21-.2,2.41-.33,3.61-.03.26-.19.5-.27.75-.28.88-.63,1.74-.8,2.63-.23,1.19-.4,2.41-.44,3.62-.02.82.2,1.66.36,2.48.2,1.02.39,2.05.7,3.04.35,1.09.8,2.15,1.27,3.2.37.84.82,1.64,1.24,2.45.04.09.07.19.13.26.75.9.78,1.38.14,2.49-.2.35-.34.81-.65,1.02-.68.45-1.34.05-1.93-.32-.72-.44-1.45-.89-2.12-1.39-.66-.49-1.23-1.09-1.88-1.59-.75-.58-1.53-1.14-2.33-1.66-.85-.55-1.68-1.2-2.61-1.5-1.44-.46-2.93-.82-4.52-.41-.97.25-2.03.16-3.03.32-1.46.23-2.91.56-4.37.84-.34.06-.7.03-1.05.08-1.54.23-3.12.34-4.6.77-.86.25-1.59-.03-2.38.01-.96.05-1.91.21-2.87.29-1.18.1-2.09-.5-2.99-1.18-.8-.61-1.66-1.14-2.47-1.73-.42-.31-.78-.69-1.19-1.02-.25-.2-.67-.31-.79-.56-.59-1.21-1.09-2.46-1.63-3.7-.22-.51-.47-1-.66-1.52-.16-.44-.28-.9-.36-1.36-.25-1.45-.21-2.91-.04-4.35.07-.61.44-1.2.75-1.75.72-1.27,1.36-2.63,2.3-3.72.54-.63,1.12-1.54,2.22-1.53.14,0,.27-.15.42-.22.85-.42,1.69-.89,2.57-1.24.93-.37,1.89-.64,2.85-.92.42-.12.87-.15,1.3-.23,1.81-.33,3.61-.66,5.42-.98.64-.11.6-.65.67-1.09.06-.37-.02-.76.05-1.13.22-1.01.44-2.03.74-3.02.33-1.08.67-2.18,1.16-3.2.59-1.22,1.3-2.4,2.5-3.17.09-.06.11-.21.17-.32.88-1.73,2.14-3.11,3.94-3.84,1.24-.5,2.52-1,3.95-.94Z"/>
    <path d="M50.01,115.13c.12-.94.14-1.91.38-2.82.18-.69.59-1.35.99-1.96.46-.71.36-1.06-.35-1.5-.83-.52-1.77-1.03-2.33-1.8-.93-1.26-1.83-2.51-2.2-4.19-.32-1.47.02-2.78.22-4.09.14-.92.91-1.91,1.68-2.52,1.3-1.02,2.78-1.85,4.27-2.57.7-.34,1.62-.3,2.43-.29,1.15,0,2.31.05,3.44.22.72.11,1.4.47,2.11.71.29.1.6.16.89.26.66.24,1.39.39,1.96.77.9.6,1.79,1.19,2.77,1.68,1.12.56,2.08,1.48,3.04,2.33,1.1.97,2.14,2.01,3.17,3.06.82.84,1.66,1.69,2.36,2.63.56.75.92,1.65,1.38,2.47.09.16.3.27.37.43.6,1.29,1.64,2.36,1.86,3.86.1.68.48,1.33.72,1.99.08.21.13.43.18.65.16.67.28,1.36.5,2.01.22.66-.14,1.12-.52,1.51-.4.41-.9.15-1.38-.02-1.17-.43-2.35-.82-3.53-1.21-1.28-.42-2.57-.37-3.82.06-.99.34-1.93.82-2.89,1.23-.34.15-.68.27-1.01.45-.36.19-.7.42-1.04.64-1.06.7-2.12,1.4-3.18,2.1-.2.13-.38.3-.59.39-.48.21-.97.39-1.45.59-.43.18-.88.32-1.27.56-.76.48-1.51.16-2.26.04-.46-.08-.89-.29-1.35-.36-1.07-.18-1.93-.62-2.46-1.6-.08-.14-.22-.29-.36-.35-.8-.33-1.15-1.01-1.49-1.74-.55-1.16-1.23-2.26-1.19-3.61Z"/>
    <path d="M131.95,187.73c-.22,1.06-.44,2.12-.65,3.18-.22,1.06-.36,2.15-.68,3.19-.28.89-.63,1.81-1.19,2.54-.84,1.11-1.89,2.06-2.85,3.07-.55.57-1.02,1.27-1.67,1.68-1.02.63-2.13,1.11-3.25,1.53-1.11.42-2.28.71-3.42,1.05-.1.03-.2.11-.28.09-1.06-.27-2.11-.55-3.17-.83-.31-.08-.67-.07-.92-.24-.93-.63-1.88-1.25-2.72-2-.64-.57-1.16-1.29-1.66-1.99-.73-1.01-1.4-2.07-2.09-3.1-.03-.04-.05-.1-.04-.14.22-1.56-.8-2.88-.8-4.42,0-1.07-.45-2.18-.25-3.19.27-1.39-.19-2.94.78-4.19.04-.05.02-.15.04-.22.23-.75.36-1.54.72-2.22.58-1.11,1.29-2.15,1.98-3.2.18-.27.47-.63.73-.65.75-.05,1.07-.62,1.55-1.02.36-.3.81-.51,1.22-.75.43-.25.92-.45,1.31-.76,1.09-.88,2.35-.51,3.55-.53.85-.02,1.71.07,2.56.18.45.06.89.25,1.33.4.47.15.95.28,1.39.49.8.36,1.62.7,2.34,1.18,1.06.71,2.06,1.52,3.05,2.33.24.2.37.56.51.87.75,1.54,1.61,3.05,2.2,4.65.33.91.19,1.98.26,2.98l.15.05ZM127.63,188.64c-.08-.01-.16-.03-.23-.04.13-1.72-.51-3.23-1.24-4.72-.22-.44-.36-.96-.68-1.29-.62-.64-1.33-1.18-2.02-1.74-.35-.28-.71-.65-1.12-.75-.78-.2-1.61-.34-2.41-.31-1.35.05-2.73.13-4.04.42-.71.16-1.46.51-1.82,1.41-.39.97-.8,2.03-1.95,2.47-.21.08-.4.4-.45.64-.29,1.26-.55,2.52-.8,3.79-.09.45-.22.91-.19,1.35.03.62.22,1.22.29,1.84.18,1.75.59,3.35,2.11,4.51,1.16.88,2.36,1.58,3.8,1.82.19.03.38.19.56.18.78-.04,1.65.1,2.3-.22,1.42-.7,2.72-1.62,4.06-2.48,1.01-.65,2-1.34,2.59-2.41.31-.56.4-1.24.57-1.87.24-.87.47-1.73.7-2.6ZM108,189.73c.33,1.73.55,3.07.85,4.39.16.69.31,1.45.7,2.02.73,1.08,1.55,2.12,2.48,3.03,1.01.99,2.02,2.08,3.41,2.55,1.44.48,2.9.63,4.34-.11.57-.29,1.22-.5,1.85-.58.57-.08.83-.21.74-.82-.09-.68.39-.87.94-1.02.63-.17,1.37-.27,1.81-.67,1.09-.98,2.06-2.1,3.02-3.21.17-.19.08-.62.07-.93,0-.05-.24-.17-.27-.14-.2.17-.38.35-.55.55-.32.39-.57.89-.96,1.18-.91.66-1.68,1.49-2.78,1.93-1.32.53-2.22,1.8-3.58,2.32-1.16.44-2.36.73-3.54.17-1.06-.5-2.09-1.07-3.08-1.68-1.33-.82-2.48-1.85-3.18-3.29-.25-.52-.4-1.1-.59-1.65-.27-.81-.64-1.61-.76-2.44-.21-1.51-.1-3.02.44-4.48.08-.21.13-.44.12-.66-.08-1.45.38-2.7,1.31-3.8.15-.18.2-.45.32-.67.36-.69.56-1.55,1.58-1.6.14,0,.27-.2.41-.28.86-.5,1.66-1.23,2.59-1.46,2.22-.55,4.49-.71,6.72.12.34.13.79.09,1.06.3.99.79,1.92,1.65,2.89,2.47.97.82,1.62,1.82,1.91,3.07.11.5.41.95.53,1.45.24.98.64,2,.55,2.97-.14,1.45-.66,2.85-.99,4.28-.05.21.06.46.1.7.17-.19.44-.35.49-.56.25-1.01.26-2.1.68-3.03.66-1.46.5-2.93.19-4.32-.32-1.45-1.05-2.82-1.65-4.21-.22-.51-.47-1.12-.89-1.41-1.13-.77-1.95-1.98-3.36-2.34-.49-.12-.96-.34-1.43-.53-.68-.28-1.34-.7-2.04-.83-.98-.19-1.99-.23-2.99-.22-.74.01-1.5.12-2.2.36-.5.17-.96.57-1.34.95-1.03,1.06-2.36,1.76-3.29,2.95-.6.76-1.18,1.46-1.21,2.48,0,.14-.05.37-.14.4-.73.3-.77,1.03-.85,1.6-.24,1.68-.34,3.38-.46,4.71Z"/>
    <path d="M111.1,226.65c-.49-.22-.95-.43-1.42-.62-.49-.2-.97-.5-1.47-.55-1.22-.12-2.07-1.06-3.26-1.29-.84-.16-1.64-.61-2.41-1.03-.24-.13-.27-.61-.47-.87-.45-.6.26-.47.41-.69.4-.57.76-.42,1.3-.06.78.51,1.67.86,2.54,1.23.9.38,1.81.74,2.74,1.01.73.21,1.51.22,2.24.44.31.09.55.46.78.74.1.12.08.38.19.46.4.3.14.44-.11.59-.35.21-.71.43-1.07.65Z"/>
    <path d="M227.9,156.25c.25.63.66,1.17.61,1.68-.06.62-1.22.81-1.82.33-.5-.39-.92-.88-1.42-1.27-.48-.37-.31-.8-.19-1.23.16-.56.33-1.13.54-1.67.17-.42.43-.81.6-1.23.06-.15.06-.46-.04-.53-.27-.19-.6-.33-.92-.43-.56-.18-1.12-.35-1.7-.45-.3-.05-.69-.03-.94.12-.91.55-1.68,1.23-1.67,2.45,0,.17-.19.35-.2.52-.03.41-.16.94.03,1.2.54.72.81,1.46,1.02,2.34.2.82.82,1.6,1.66,2.02,1.01.51,2.04.98,3.07,1.45.39.18.82.27,1.23.41.83.29.6.99.44,1.5-.08.24-.65.42-1.01.44-.76.04-1.5-.08-1.94-.84-.05-.09-.21-.13-.33-.16-1.16-.27-2.04-1.08-3.08-1.58-.97-.46-1.35-1.39-1.79-2.25-.4-.78-.65-1.63-1.06-2.41-.25-.47-.76-.81-.97-1.29-.48-1.08-.84-2.21-1.26-3.31-.32-.83-.7-1.63-.97-2.47-.34-1.06-.61-2.14-.86-3.22-.08-.34.02-.71-.01-1.07-.02-.21-.06-.49-.21-.62-.6-.53-1.24-.91-2.1-1.01-.61-.07-1.16-.53-1.75-.77-.31-.12-.67-.24-.98-.19-.4.06-.69.06-1.07-.18-.86-.53-.94-1.44-.2-2.14.65-.61,1.44-.36,2.15-.52.15-.04.41.41.63.64.31.32.59.68.92.97,1.43,1.24,3.33,1.33,4.99,2.02.64.26,1.44.14,2.16.22.85.09,1.7.27,2.54.27,1.02,0,2.04-.15,3.06-.24.72-.06,1.44-.11,2.16-.19,1.82-.2,3.65-.36,5.46-.64,1.51-.24,3.01-.62,4.5-.96.58-.13,1.14-.31,1.71-.49.13-.04.21-.22.34-.25.23-.06.59-.18.69-.08.6.61,1.03,1.3,1.38,2.14.62,1.48.62,2.99.68,4.49.06,1.47.01,3-.35,4.42-.48,1.88-1.29,3.69-2.31,5.37-.45.75-.81,1.56-1.27,2.31-.26.43-.64.79-.96,1.18-.23.28-.42.62-.71.84-.27.2-.69.46-.94.38-.43-.14-1.09-.52-1.09-.82-.01-.48.3-1.18.69-1.42,1.1-.66,1.99-1.37,2.65-2.56.84-1.51,1.1-3.21,1.93-4.71.47-.85.56-1.94.75-2.93.07-.34.05-.89-.15-1.05-.22-.17-.74-.09-1.08.03-1.26.45-2.48,1.01-3.74,1.43-.85.28-1.93.15-2.6.63-.82.59-1.79.33-2.63.9-.75.52-1.54,1.04-2.18,1.66-.43.41-.55,1.16-.73,1.78-.04.13.26.38.44.53.14.12.32.17.49.25-.15.14-.31.28-.31.28ZM219.93,145.71c-.93-.07-1.15.24-.77,1.25.11.28.25.55.29.84.1.77.56,1.19,1.27,1.37.59.15,1.2.24,1.79.37,1.26.27,2.5.64,3.77.81.9.11,1.84-.04,2.76-.1.57-.04,1.16-.06,1.71-.2,1.04-.27,2.07-.61,3.1-.93.77-.24,1.56-.44,2.31-.73.6-.23,1.19-.54,1.74-.88.57-.35,1.04-.95,1.64-1.11.79-.21.73-.67.62-1.2-.12-.58-.31-1.14-.49-1.71-.03-.09-.18-.22-.25-.21-.65.09-1.3.17-1.94.32-1.38.32-2.74.71-4.12.99-.62.13-1.28.02-1.92.1-1,.13-1.99.35-2.99.48-1.45.2-2.91.41-4.37.51-1.32.09-2.66.02-4.15.02Z"/>
    <path d="M256.55,120.06c.34,1.39-.55,2.2-1.52,2.96-.14.11-.27.23-.37.37-.78,1.02-1.94,1.02-3.05,1.19-.22.03-.42.16-.63.26-.55.26-1.11.75-1.65.73-.66-.03-1.4-.35-1.93-.78-.8-.65-1.57-1.4-2.11-2.27-.72-1.15-1.42-2.29-1.49-3.8-.08-1.79.37-3.35,1.26-4.81.49-.79,1.12-1.57,1.87-2.12,1.06-.77,2.4-1.27,3.67-.82,1.12.4,2.21.95,3.1,1.92.67.72,1.43,1.37,1.76,2.29.55,1.56,1.33,3.08,1.1,4.86ZM250.25,121.35c.37-.21.71-.47,1.1-.61.55-.21.84-.56.91-1.14.04-.29.16-.56.19-.85.04-.33.14-.74,0-.99-.36-.65-.88-1.21-1.27-1.85-.3-.49-1.29-.82-1.67-.42-.66.71-1.3,1.45-1.16,2.53.08.58.23,1.15.28,1.73.07.78.79,1.49,1.61,1.59Z"/>
    <path d="M209.87,115.54c-.54-1.19-.89-2.27-1.49-3.18-.69-1.04-1.07-2.28-2.07-3.15-.4-.35-.56-.96-.85-1.44-.32-.53-.66-1.05-1-1.58-.07-.1-.21-.2-.21-.3-.02-1.05-.96-1.46-1.48-2.16-.28-.37-.49-.8-.77-1.17-.36-.47-.79-.9-1.15-1.38-.17-.22-.42-.64-.33-.75.28-.39.67-.72,1.07-1,.05-.04.41.3.58.5.21.24.39.5.55.77.26.43.45.9.73,1.3.75,1.06,1.59,2.05,2.3,3.14.65.99,1.17,2.07,1.78,3.09.23.38.54.71.85,1.04.07.08.27.11.37.07.08-.03.18-.23.15-.31-.15-.42-.26-.88-.53-1.22-.34-.43-.58-.83-.76-1.38-.23-.72-.77-1.35-1.21-2-.44-.65-.93-1.25-1.38-1.9-.71-1.04-1.36-2.12-2.12-3.12-.43-.57-1.05-.99-1.54-1.53-.2-.22-.44-.63-.36-.82.14-.34.47-.69.81-.84.17-.08.55.24.8.41.17.12.29.32.45.46.98.84,1.46,2.02,2.15,3.06,1.05,1.6,2.28,3.1,3.23,4.76.74,1.3,1.18,2.77,1.76,4.16.14.34.34.67.52,1,.52.97,1.08,1.91,1.19,3.06.04.43.39.83.58,1.25.15.35.31.71.4,1.08.09.39-.07.84.52,1.02.27.08-.09,1.35-.4,1.54-.24.15-.56.31-.65.54-.18.5-.41.47-.91.01.3.81.56,1.37-.06,1.91-.66.57-1.48.42-1.89-.33-.23-.41-.71-.69-1.09-1.02-.37-.32-.74-.63-1.12-.94-.06-.05-.13-.08-.2-.1-1.7-.58-2.96-1.9-4.53-2.65-1.05-.5-1.91-1.5-3.25-1.39-.46.04-.95-.85-.71-1.28.23-.4.56-.59,1.2-.52,1.15.12,1.94.8,2.82,1.32,1.54.93,2.98,2.04,4.49,3.03.7.46,1.46.82,2.19,1.22.09.05.23.01.35.02,0-.14.04-.34-.04-.41-.42-.42-.86-.83-1.3-1.22-.67-.58-1.33-1.18-2.03-1.72-.58-.45-1.17-.95-1.84-1.21-1.57-.62-3.02-1.43-4.46-2.3-.48-.29-1.05-.51-1.6-.6-.92-.16-.53-.84-.53-1.3,0-.14.58-.42.88-.4,1.32.08,2.27.96,3.35,1.59.57.34,1.07,1.01,1.91.78.08-.02.23,0,.27.06.66,1.1,2.06,1.18,2.86,2.08.35.4.77.73,1.18,1.08.47.39.95.77,1.55,1.25Z"/>
    <path d="M243.86,104.18c-.25.19-.6.63-1.04.74-1.36.34-2.54,1.02-3.59,1.87-1.15.93-2.23,1.94-3.26,3-.5.52-.82,1.21-1.21,1.83-.16.25-.27.52-.42.77-.43.76-.95.84-1.54.2-.11-.12-.1-.45-.02-.61.34-.63.7-1.25,1.11-1.84.65-.94,1.31-1.87,2.02-2.76.28-.35.68-.61,1.05-.87.85-.58,1.39-1.62,2.54-1.79.17-.03.29-.32.47-.45.68-.51,1.33-1.05,2.05-1.48.81-.47,1.85.2,1.83,1.38Z"/>
    <path d="M213.55,133.05c-.13-.33-.27-.65-.38-.99-.27-.79-.54-1.58-.79-2.38-.03-.1.06-.28.15-.36.2-.16.43-.37.67-.4,1.5-.2,2.35-1.46,3.55-2.14.73-.42,1.29-.31,1.59.31.2.41.18.7-.25.94-.75.43-1.46.92-2.23,1.33-1.25.67-1.39,1.11-.9,2.41.33.87.57,1.79.73,2.7.12.73-.34,1.06-1.33,1.12-.62.04-.7-.37-.74-.86-.05-.55-.17-1.09-.26-1.63l.19-.06Z"/>
    <path d="M219.93,134.18c.05-.06.24-.29.43-.52.3-.34.49-.06.8.05.88.3,1.34,1.01,1.9,1.64.43.49.21.87-.04,1.32-.28.5-.51.23-.89.11-.53-.17-.97-.33-1.18-.89-.05-.13-.18-.24-.3-.31-.71-.43-.71-.43-.73-1.41Z"/>
    <path d="M138.91,167.15c0-.55-.04-1.11.01-1.65.04-.41-.1-.58-.48-.57-.87,0-1.73,0-2.6.05-.28.02-.56.17-.82.3-.49.24-1.9-.12-1.99-.6-.05-.29.24-.75.51-.94.6-.42.65-.49.07-.86-.44-.28-.37-1.56.15-1.66.81-.16,1.66-.15,2.49-.15.6,0,1.19.13,1.78.11.12,0,.32-.44.32-.67,0-1.08-.08-2.16-.07-3.24,0-.73.61-1.19,1.28-1.06.1.02.26.04.27.08.13.94,1.31,1.37,1.13,2.49-.1.63.03,1.3,0,1.95-.02.62.28.91.85.88.61-.03,1.21-.23,1.81-.21.7.02,1.45.08,2.07.36.33.15.5.79.61,1.24.04.18-.29.45-.44.69-.12.19-.37.46-.31.56.45.82-.21,1.37-.56,1.87-.2.29-.96.23-1.47.25-.09,0-.28-.35-.29-.55-.03-.56-.45-.92-1.13-.96-.7-.04-.65.47-.68.91,0,.12.01.25.05.37.23.82.3,1.51-.42,2.25-.4.41-.49.98-1.27.93-.59-.04-.82-.26-.86-.79-.03-.45-.04-.91-.07-1.36.01,0,.02,0,.04,0Z"/>
    <path d="M129.52,112.63c.28.73.56,1.47.85,2.19.17.41.51.8.51,1.2,0,.32-.3.76-.6.96-.6.4-1.29.68-1.95,1.01-.11.05-.23.11-.34.12-.68.06-.88.48-.49,1.11.23.37.54.71.69,1.1.15.41.15.87.18,1.31.03.52-.21.72-.73.92-1.03.4-1.98,1.01-2.95,1.55-.56.31-1.6-.13-1.88-.69-.48-.94-1.05-1.84-1.6-2.74-.12-.19-.31-.44-.53.01-.1.2-.41.39-.64.42-.5.08-.86.22-.92.79-.01.12-.21.3-.33.31-.94.01-1.94-.84-2.29-1.74-.24-.64-.59-1.24-.98-1.81-.37-.54-.34-1.28.16-1.72.19-.17.25-.49.45-.62.53-.38,1.11-.68,1.66-1.04.19-.12.44-.25.5-.44.15-.43-.47-1.68-.88-1.91-.06-.03-.19-.05-.19-.09-.08-.63-.15-1.27-.19-1.9,0-.12.11-.31.21-.35.79-.27,1.59-.48,2.37-.76.45-.16.93-.33,1.29-.62.54-.44,1.19-.5,1.51.11.45.84.77,1.74,1.15,2.61.13.29.32.55.41.85.16.5.34.39.7.17.45-.26.98-.5,1.48-.52.78-.04,1.38-.38,2.01-.78.22-.14.65-.24.82-.13.33.22.54.61.79.93-.08.06-.17.11-.25.17ZM120.31,113.66c-.06.03-.13.06-.19.09.1.46.13.96.32,1.38.44.93.98,1.82,1.47,2.74.55,1.02,1.06,2.07,1.66,3.07.2.33.71.8.92.72.5-.18.96-.58,1.32-1,.16-.18.12-.68-.01-.94-.5-.96-1.06-1.88-1.63-2.81-.44-.71-.95-1.38-1.36-2.11-.53-.96-.96-1.98-1.5-2.93-.24-.43-1.11-.39-1.49.09-.15.19,0,.68.09,1,.07.25.26.47.4.7ZM126.95,115.73l.11.22c.33-.11.69-.16.99-.33.5-.27.5-1.56-.03-1.65-.39-.07-.87.24-1.29.43-.15.07-.24.29-.35.44-.61-.58-.63.53-1.08.38.18.3.34.6.54.88.05.06.23.09.32.05.27-.12.52-.28.79-.42ZM120.3,117.89c-.32-.22-.64-.51-1.01-.67-.29-.13-.77-.24-.97-.09-.36.27-.58.74-.84,1.14-.03.05.06.18.11.26.16.25.31.51.51.73.09.1.31.19.4.15.55-.31,1.08-.65,1.61-1,.08-.05.09-.22.19-.51Z"/>
    <path d="M167.41,108.44c-.22-.88-.42-1.76-.69-2.63-.05-.16-.4-.25-.62-.33-.13-.05-.35.03-.43-.05-.76-.7-1.11.04-1.28.48-.31.81-.95.67-1.45.56-.49-.11-.82-.46-.72-1.18.18-1.26.08-2.52-.36-3.77-.17-.48.15-1.21.43-1.73.07-.14.82,0,1.21.12.68.21,2.04-.17,2.41-.77.07-.12.16-.29.12-.41-.22-.72-.59-1.42-.67-2.15-.07-.63.06-1.36.34-1.93.27-.55.89-.63,1.49-.29.13.07.39.04.53-.04,1.11-.62,2.19-.34,3.17.22.31.18.4.79.55,1.21.08.23.09.49.12.73.08.54.14,1.09.24,1.63.14.74.94,1.28,1.8,1.31.88.02,1.76.07,2.63.13.75.05,1.17.49,1.15,1.25,0,.46-.11.91-.14,1.37,0,.12.06.32.15.38.94.57.27,1.49.49,2.22.02.05-.09.2-.16.22-.74.19-1.49.37-2.24.53-.62.13-1.28.16-1.86.38-.25.09-.5.55-.5.85,0,.81.16,1.62.22,2.44.03.37.03.76-.04,1.12-.11.52-1.19.84-1.6.51-.67-.55-1.32-.52-2.08-.16-.48.23-1.17.41-1.59.22-.39-.18-.59-.86-.77-1.36-.11-.31-.02-.69-.02-1.04.05-.01.11-.02.16-.04ZM169.04,96.12c-.44.04-.78.14-1.09.09-.84-.15-.89.35-.78.93.11.62.35,1.23.44,1.85.22,1.47.39,2.95.59,4.42.2,1.45.44,2.89.6,4.34.08.73.59.64,1.05.68.14.01.28-.09.42-.11.76-.09,1.37-1.02,1.01-1.7-.37-.71-.46-1.39-.25-2.16.09-.33.06-.7,0-1.05-.21-1.41-.32-2.87-.75-4.22-.24-.77-.22-1.52-.41-2.27-.13-.5-.32-.91-.84-.81ZM175.43,102.5c.02-.88-.66-1.53-1.24-1.31-.17.07-.41.07-.58,0-.79-.31-1.2,0-1.1.83.05.42.11.85.18,1.27.11.64.5.83,1.11.52.28-.14.55-.44.83-.44.71,0,.97-.27.79-.87ZM163.84,102.52c-.02,1.05.05,1.1.99.84.29-.08.58-.22.87-.23.82-.03.54-.64.54-1.04,0-.58-.42-.49-.81-.41-.24.05-.5.12-.74.08-.73-.12-.97.19-.84.77Z"/>
    <path d="M121.36,184.78c0,.6-.04,1.21.01,1.81.03.41.15.53.72.42.87-.17,1.71-.88,2.65-.43.36.18.62.59.9.91.2.23.46.45.55.72.11.33.22.78.09,1.07-.3.63-1.44.82-2.12.65-.9-.23-1.84-.72-2.78-.11-.15.1-.33.35-.3.48.17.74.45,1.47.6,2.21.05.24-.08.63-.26.78-.44.38-.93.7-1.45.96-.68.35-1.26-.12-1.56-.57-.6-.87-1.08-1.85-.52-2.98.21-.42-.31-1.16-.78-1.19-1.14-.08-2.26-.05-3.35.42-.66.28-1.89-.18-2.12-.68-.22-.48.07-2.03.46-2.36.09-.07.22-.12.34-.13,1.55-.16,3.1-.29,4.65-.46.18-.02.5-.24.49-.35-.05-.71-.05-1.46-.29-2.11-.33-.87-.37-1.75.22-2.41.1-.11.44-.11.6-.02.68.37,1.35.42,2.13.27.29-.06.92.44,1.01.78.19.74.14,1.54.18,2.31-.02,0-.04,0-.06,0Z"/>
  </g>
  <g>
    <g>
      <path class="cls-1" d="M39.99,263.63v-4.8h10.85v4.8h-10.85Z"/>
      <path class="cls-1" d="M62.31,253.94v16.01h13.72v-16.01h4.84v15.03c0,1.79-.36,3.01-1.08,3.67s-2.09.99-4.11.99h-13.03c-2,0-3.35-.33-4.06-.98-.71-.65-1.06-1.88-1.06-3.68v-15.03h4.78Z"/>
      <path class="cls-1" d="M89.62,273.64v-19.7h3.3l16.72,13.08v-13.08h4.34v19.7h-3.32l-16.67-13.28v13.28h-4.37Z"/>
      <path class="cls-1" d="M140.82,273.64v-19.7h17.74c1.62,0,2.8.3,3.53.9s1.09,1.57,1.09,2.92v4.64c0,1.33-.36,2.3-1.09,2.89-.73.59-1.9.89-3.53.89h-2.71l9.37,7.46h-6.89l-8.26-7.46h-4.53v7.46h-4.73ZM156.51,257.33h-10.96v5.46h10.96c.83,0,1.41-.12,1.72-.36.31-.24.47-.65.47-1.23v-2.27c0-.58-.16-.99-.47-1.23-.31-.24-.88-.36-1.72-.36Z"/>
      <path class="cls-1" d="M170.62,258.58c0-1.79.35-3.01,1.05-3.66.7-.65,2.05-.98,4.07-.98h15.24c2.03,0,3.39.33,4.08.98.69.65,1.03,1.87,1.03,3.66v10.39c0,1.8-.35,3.03-1.06,3.68-.71.65-2.06.98-4.06.98h-15.24c-2.02,0-3.37-.33-4.07-.98-.7-.65-1.05-1.88-1.05-3.68v-10.39ZM175.42,269.86h15.88v-12.3h-15.88v12.3Z"/>
      <path class="cls-1" d="M221.65,257.56h-12.94v12.3h12.94v-4.19l4.84.98v2.32c0,1.79-.36,3.01-1.07,3.67-.71.66-2.08.99-4.09.99h-12.3c-1.99,0-3.34-.33-4.05-.98s-1.07-1.88-1.07-3.68v-10.39c0-1.79.35-3.01,1.06-3.66.71-.65,2.06-.98,4.06-.98h12.3c2.03,0,3.4.33,4.11.98.71.65,1.06,1.87,1.06,3.66v1.91l-4.84.71v-3.64Z"/>
      <path class="cls-1" d="M234.39,273.64v-19.7h4.84v7.48h14.99v-7.48h4.8v19.7h-4.8v-8.3h-14.99v8.3h-4.84Z"/>
      <path class="cls-1" d="M267.83,273.64v-19.7h21.13v3.48h-16.29v4.3h9.48v3.39h-9.48v4.84h16.54v3.68h-21.38Z"/>
      <path class="cls-1" d="M296.14,273.64v-19.7h17.74c1.62,0,2.8.3,3.53.9.73.6,1.09,1.57,1.09,2.92v4.64c0,1.33-.36,2.3-1.09,2.89-.73.59-1.9.89-3.53.89h-2.71l9.37,7.46h-6.89l-8.26-7.46h-4.53v7.46h-4.73ZM311.84,257.33h-10.96v5.46h10.96c.83,0,1.41-.12,1.72-.36s.47-.65.47-1.23v-2.27c0-.58-.16-.99-.47-1.23s-.88-.36-1.72-.36Z"/>
      <path class="cls-1" d="M324.26,263.63v-4.8h10.85v4.8h-10.85Z"/>
    </g>
    <g>
      <path class="cls-1" d="M46.69,278.42h-5.74v5.8h5.74v-1.97l2.13.44v1.08c0,.84-.16,1.41-.47,1.71s-.91.46-1.8.46h-5.47c-.89,0-1.49-.15-1.8-.46-.31-.3-.47-.87-.47-1.71v-4.83c0-.83.16-1.4.47-1.71.31-.31.91-.46,1.8-.46h5.47c.88,0,1.48.15,1.8.46s.47.88.47,1.71v.87l-2.13.34v-1.73Z"/>
      <path class="cls-1" d="M53.62,285.94v-7.5h1.85v6.1h5.88v1.4h-7.73Z"/>
      <path class="cls-1" d="M64.47,285.94v-7.5h1.82v7.5h-1.82Z"/>
      <path class="cls-1" d="M70.7,285.94v-7.5h1.46l3.67,4.45,3.66-4.45h1.47v7.5h-1.7v-5.16l-3.35,4.26h-.36l-3.4-4.14v5.04h-1.46Z"/>
      <path class="cls-1" d="M85.38,285.94v-7.5h6.74c.63,0,1.08.11,1.36.34.28.23.42.6.42,1.11v.9c0,.34-.11.62-.33.84-.22.22-.54.37-.95.44.42.07.75.23.98.48.23.25.35.57.35.95v.96c0,.49-.19.86-.58,1.1s-.97.37-1.75.37h-6.24ZM91.28,279.66h-4.1v1.78h4.1c.32,0,.53-.04.65-.12s.17-.22.17-.42v-.71c0-.2-.06-.33-.17-.41s-.33-.12-.65-.12ZM91.28,282.68h-4.1v1.91h4.1c.35,0,.58-.05.71-.15.12-.1.19-.27.19-.52v-.57c0-.25-.06-.42-.19-.52-.12-.1-.36-.15-.71-.15Z"/>
      <path class="cls-1" d="M98.11,285.94v-7.5h1.82v7.5h-1.82Z"/>
      <path class="cls-1" d="M104.34,285.94v-7.5h1.26l6.37,4.98v-4.98h1.66v7.5h-1.27l-6.35-5.06v5.06h-1.66Z"/>
      <path class="cls-1" d="M125.39,279.82h-5.71v4.69h5.71v-1.59h-2.98v-1.33h4.77v2.59c0,.69-.13,1.16-.4,1.4-.27.25-.78.37-1.55.37h-5.43c-.76,0-1.28-.12-1.55-.37-.27-.25-.4-.72-.4-1.4v-3.96c0-.68.13-1.15.4-1.4.27-.25.78-.37,1.55-.37h5.43c.76,0,1.27.12,1.54.36s.41.68.41,1.32v.2l-1.79.3v-.81Z"/>
      <path class="cls-1" d="M141.53,285.94c-.9,0-1.5-.15-1.82-.46-.32-.31-.48-.87-.48-1.71v-.6c0-.4.07-.71.2-.94s.45-.48.93-.77l1.86-1.12c-.27-.23-.47-.45-.59-.67-.12-.22-.19-.45-.19-.71v-.51c0-.61.17-1.04.5-1.29.33-.25.92-.38,1.77-.38h1.85c.88,0,1.48.13,1.8.4.32.27.48.75.48,1.45v.55l-1.65.28v-1.22h-3v.66l4.32,3.59,2.12-1.78,1.21,1.05-2.11,1.75,2.89,2.44h-2.79l-1.51-1.27-.81.73c-.24.21-.47.35-.69.43-.22.08-.56.12-1.04.12h-3.26ZM141.03,284.35h4.25l.85-.73-2.75-2.29-2.35,1.45v1.57Z"/>
      <path class="cls-1" d="M171.29,278.42h-5.74v5.8h5.74v-1.97l2.13.44v1.08c0,.84-.16,1.41-.47,1.71s-.91.46-1.8.46h-5.47c-.89,0-1.49-.15-1.8-.46-.31-.3-.47-.87-.47-1.71v-4.83c0-.83.16-1.4.47-1.71.31-.31.91-.46,1.8-.46h5.47c.88,0,1.48.15,1.8.46s.47.88.47,1.71v.87l-2.13.34v-1.73Z"/>
      <path class="cls-1" d="M177.07,285.94l4.45-7.5h1.76l4.52,7.5h-2.05l-.94-1.65h-4.97l-.94,1.65h-1.83ZM180.63,282.93h3.44l-1.75-3.13-1.69,3.13Z"/>
      <path class="cls-1" d="M190.75,285.94v-7.5h7.96v1.34h-6.12v1.96h3.29v1.4h-3.29v2.81h-1.85Z"/>
      <path class="cls-1" d="M201.57,285.94v-7.5h8.05v1.33h-6.2v1.64h3.61v1.29h-3.61v1.85h6.3v1.4h-8.15Z"/>
      <path class="cls-1" d="M223.37,285.94l-3.05-7.5h1.91l1.97,5.23,2.11-5.23h1.26l2.1,5.23,1.93-5.23h1.66l-3.02,7.5h-1.25l-2.17-5.3-2.2,5.3h-1.26Z"/>
      <path class="cls-1" d="M235.28,285.94l4.45-7.5h1.76l4.52,7.5h-2.05l-.94-1.65h-4.97l-.94,1.65h-1.83ZM238.83,282.93h3.44l-1.75-3.13-1.69,3.13Z"/>
      <path class="cls-1" d="M248.95,285.94v-7.5h6.76c.62,0,1.07.11,1.34.34.28.23.42.6.42,1.11v1.77c0,.51-.14.88-.42,1.1-.28.23-.73.34-1.34.34h-1.03l3.57,2.84h-2.63l-3.15-2.84h-1.72v2.84h-1.8ZM254.93,279.73h-4.18v2.08h4.18c.32,0,.54-.05.65-.14s.18-.25.18-.47v-.87c0-.22-.06-.38-.18-.47s-.34-.14-.65-.14Z"/>
      <path class="cls-1" d="M261.55,285.94v-7.5h8.05v1.33h-6.2v1.64h3.61v1.29h-3.61v1.85h6.3v1.4h-8.15Z"/>
      <path class="cls-1" d="M273.4,285.94v-7.5h1.85v2.85h5.71v-2.85h1.83v7.5h-1.83v-3.16h-5.71v3.16h-1.85Z"/>
      <path class="cls-1" d="M287.02,280.21c0-.68.13-1.15.4-1.4.27-.25.78-.37,1.55-.37h5.81c.77,0,1.29.12,1.56.37.26.25.39.71.39,1.4v3.96c0,.69-.13,1.16-.4,1.4-.27.25-.78.37-1.55.37h-5.81c-.77,0-1.29-.12-1.55-.37-.27-.25-.4-.72-.4-1.4v-3.96ZM288.85,284.5h6.05v-4.69h-6.05v4.69Z"/>
      <path class="cls-1" d="M302.77,278.44v6.1h5.22v-6.1h1.85v5.73c0,.68-.14,1.15-.41,1.4-.27.25-.8.38-1.56.38h-4.97c-.76,0-1.28-.12-1.55-.37-.27-.25-.4-.72-.4-1.4v-5.73h1.82Z"/>
      <path class="cls-1" d="M321.18,279.78h-5.16v1.59h4.89c.77,0,1.29.12,1.55.37.27.25.4.71.4,1.4v1.03c0,.69-.14,1.16-.41,1.4-.27.25-.79.37-1.54.37h-4.87c-.77,0-1.3-.12-1.57-.37-.27-.25-.41-.72-.41-1.4v-.21l1.63-.3v.88h5.52v-1.72h-4.86c-.77,0-1.29-.13-1.56-.38s-.41-.72-.41-1.4v-.84c0-.68.14-1.14.41-1.39s.79-.38,1.56-.38h4.45c.76,0,1.28.12,1.56.36.28.24.42.66.42,1.27v.18l-1.59.34v-.81Z"/>
      <path class="cls-1" d="M327.08,285.94v-7.5h8.05v1.33h-6.2v1.64h3.61v1.29h-3.61v1.85h6.3v1.4h-8.15Z"/>
    </g>
  </g>
</svg>