<?xml version="1.0" encoding="UTF-8"?>
<svg id="_レイヤー_1" data-name="レイヤー 1" xmlns="http://www.w3.org/2000/svg" viewBox="0 0 334.62 504.72">
  <defs>
    <style>
      .cls-1 {
        stroke-width: 2.12px;
      }

      .cls-1, .cls-2 {
        fill: none;
        stroke: #231815;
        stroke-linecap: round;
        stroke-linejoin: round;
      }

      .cls-3 {
        fill: #fff;
      }

      .cls-4 {
        fill: #231815;
      }

      .cls-2 {
        stroke-width: 2.18px;
      }

      .cls-5 {
        fill: #221714;
      }
    </style>
  </defs>
  <g>
    <g>
      <path class="cls-3" d="M272.73,414.92c-5.4-1.48-10.88-2.44-16.38-3.44s-10.77-2.82-16.21-3.98c-4.68-1-6.67,1.96-8.16,5.95-.83,2.23-1.34,4.62-2.61,6.66s-3.2,3.4-3.97,5.74c-3.24,9.85,14.22,11.96,20.27,12.8,5.28.74,10.68,1.32,16.01,1.44,2.54.06,5-.13,7.38-1.07,1.97-.78,3.53-2.34,5.6-2.79,4.18-.9,3.94-6.15,1.08-8.27-1.2-.89-.7-3.98-.63-5.16.26-4.39-6.47-6.29-8.43-2.28-1.01,2.06-2.14,3.79-3.72,5.46l7.56,2c-.85-3.13-1.49-6.23-1.83-9.45-.51-4.86-7.35-6.39-8.88-1.2-.94,3.19-2.1,6.19-3.6,9.16h7.81c-1.21-2.01-2.43-4.03-3.64-6.04-1.78-2.95-6.02-2.91-7.81,0-1,1.63-1.74,3.28-2.43,5.07l8.88,1.2c-.03-2.85-.36-5.6-.95-8.39-.82-3.94-6.35-4.24-8.27-1.08l-3.03,5,7.1-.92-1.25-1.02c-1.73-1.42-4.74-2.05-6.4,0-.79.97-1.57,1.94-2.36,2.92,2.57,1.07,5.15,2.13,7.72,3.2-.19-1.88-.39-3.77-.58-5.65-.44-4.22-6-6.46-8.43-2.28l-2.03,3.5,8.27,1.08c-.36-2.59-.93-5.05-1.75-7.53-1.25-3.81-6.07-4.34-8.27-1.08-1.09,1.61-2.03,3.25-2.87,5l7.1-.92c-2.3-2.88-6.58-1.84-8.2,1.1-2.11,3.82-1.09,9.41.06,13.36.84,2.89,4.05,4.08,6.64,2.7s4.51-3.3,5.7-5.99c2.35-5.27-5.44-9.88-7.81-4.57-.63,1.42-1.09,2.02-2.46,2.75l6.64,2.7c-.51-1.73-1.6-5.06-.74-6.9l-3.9,2.24.55-.06-3.2-1.32.31.39c1.75,2.18,5.93,1.53,7.1-.92.84-1.75,1.78-3.39,2.87-5l-8.27-1.08c.82,2.48,1.39,4.94,1.75,7.53.56,4.02,6.48,4.16,8.27,1.08l2.03-3.5-8.43-2.28c.19,1.88.39,3.77.58,5.65.35,3.41,4.99,6.58,7.72,3.2.79-.97,1.57-1.94,2.36-2.92h-6.4l1.25,1.02c2.25,1.84,5.48,1.77,7.1-.92l3.03-5-8.27-1.08c.42,2.02.6,3.92.62,5.98.06,5.37,7.11,5.79,8.88,1.2.38-1.03.89-2,1.52-2.9h-7.81c1.21,2.01,2.43,4.03,3.64,6.04,1.66,2.76,6.24,3.12,7.81,0,1.85-3.66,3.35-7.39,4.51-11.32l-8.88-1.2c.42,4.03,1.09,7.94,2.15,11.85.87,3.22,5.21,4.48,7.56,2,2.1-2.21,3.79-4.55,5.14-7.29l-8.43-2.28c-.32,5.4.64,9.67,5.11,12.97.36-2.76.72-5.51,1.08-8.27-2.7.58-4.52,2.55-7.07,3.33-3.25,1-7.99-.06-11.27-.33-3.71-.31-7.4-.71-11.06-1.44-3.17-.64-8.02-1.23-10.15-3.87l1.16,4.4c.46-2.39,3.28-4.68,4.33-6.93s1.38-5.97,2.89-7.73l-3.2,1.32c2.4.28,5.02,1.61,7.43,2.19,2.85.68,5.74,1.23,8.63,1.75,5.5,1,10.99,1.96,16.38,3.44s8.02-7.18,2.4-8.72h0Z"/>
      <path class="cls-4" d="M231.86,419.22c1.59-4.21,3.49-8.43,4.82-12.74.53-1.71.84-2.88.6-4.68-.22-1.64-1.22-2.72-1.58-4.26l-.46,3.48c1.91-4.32,10.33-4.31,14.41-3.52,4.68.91,9,.87,13.34,2.96,4.72,2.27,8.9,4.23,10.36,9.66,1.35,5.03,1.34,12.14-.39,17.03l8.88,1.2c-.69-5.47,2.24-11.42.66-16.74-1.68-5.66-7.43-4.92-12.05-6.13-5.41-1.42-10.3-2.91-15.95-3.1-6.14-.21-12.15.29-18.05-1.75l-2.4,8.72c7.86,1.4,15.77,2.55,23.72,3.4,5.29.57,14.84,1.93,14.7-6.27-.11-6.82-8.62-8.06-13.76-8.73-7.95-1.04-16-1.71-24.01-2.14-5.82-.32-5.8,8.73,0,9.04,4.83.26,9.65.67,14.47,1.13,2.39.23,4.79.45,7.18.72,1,.12,6.76,1.89,7.46,1.53,2.1-2.77,2.02-4.02-.24-3.75-1.29-.12-2.58-.25-3.87-.38-2.53-.26-5.06-.54-7.58-.85-5.24-.66-10.46-1.49-15.66-2.42-5.7-1.02-7.96,6.8-2.4,8.72,9.27,3.2,19.11.64,28.44,3.17,3.97,1.07,7.99,2.8,12.18,2.78-1.41,0-.37-2.06-.95.67-.34,1.61-.48,3.38-.71,5.02-.36,2.5-.53,4.84-.21,7.36.63,4.96,7.09,6.26,8.88,1.2,2.83-7.99,2.47-20.29-2.03-27.64-4.04-6.59-14.48-12.13-22.16-12.52-4.64-.24-8.95-1.63-13.65-1.11-3.74.41-8.73.54-11.99,2.62-3.72,2.36-5.61,6.5-4.41,10.64.26.89.68,1.15.67,2.03-.02,1.24-1.09,2.93-1.55,4.14-1.15,3.03-2.3,6.07-3.44,9.1-2.06,5.45,6.68,7.81,8.72,2.4h0Z"/>
      <path class="cls-3" d="M263.78,381.98c-.83,0-1.62.32-2.23.88s-.88,1.33-1.06,2.12c-.04.16-.08.33-.12.48-.03.09-.06.17-.09.26.08-.22-.01.01-.03.05-.08.14-.17.27-.26.4-.02.03-.16.21-.06.08s-.07.09-.09.11c-.52.67-.92,1.29-1.01,2.15-.05.56.53,1.1,1.08,1.08.63-.03,1.02-.47,1.08-1.08-.03.34,0-.12.06-.16-.06.13-.07.16-.03.08.01-.02.02-.05.03-.07.03-.06.06-.11.09-.17.07-.11.14-.22.22-.32.16-.22-.14.18.03-.03.03-.04.07-.08.1-.13.44-.57.81-1.12,1-1.82.08-.29.13-.59.22-.88.02-.07.05-.14.07-.22.06-.19-.05.07.01-.03.04-.06.07-.12.1-.18.1-.17-.09.08,0,0,.05-.05.09-.1.14-.15.02-.02.2-.17.07-.07s.06-.04.09-.05c.06-.04.12-.06.18-.1.1-.07-.19.05,0,0,.06-.02.13-.04.19-.06.16-.04.09-.06,0,0,.06-.03.18-.01.24-.01.56,0,1.1-.49,1.08-1.08s-.47-1.08-1.08-1.08h0Z"/>
      <path class="cls-4" d="M242.4,437.3c-5.89-1.54-12.16-3.24-16.32-7.99s-5.38-11.44-4.58-17.51c1.37-10.37,8.6-19.81,19.16-21.87,6.87-1.34,14.13.39,20.67,2.5,4.81,1.55,9.59,3.71,13.45,7.05s6.39,7.57,7.41,12.49c1.12,5.39.59,11.41-1.62,16.46-1.2,2.75-2.99,5.33-5.46,7.08-3.21,2.26-7.22,2.97-11.03,3.47-7.88,1.04-15.67.25-23.26-2.08-1.33-.41-1.9,1.67-.57,2.08,7.23,2.22,14.73,3.12,22.27,2.34,3.57-.37,7.27-.88,10.6-2.28,2.91-1.23,5.31-3.19,7.16-5.74,3.49-4.81,4.8-11.16,4.58-17.02s-2.06-11.08-5.71-15.44-8.25-6.98-13.21-9.01c-6.72-2.75-14.29-4.72-21.59-4.44-5.8.22-11.28,2.31-15.66,6.15s-7.18,8.84-8.58,14.27c-1.61,6.23-1.3,13,1.61,18.8,3.1,6.17,8.94,9.48,15.33,11.45,1.58.49,3.19.91,4.79,1.33,1.34.35,1.91-1.73.57-2.08h0Z"/>
      <path class="cls-4" d="M254.61,441.22c-.14-.18.05.06.06.08.04.06.09.12.13.18.09.12.18.24.27.36.14.2.29.41.42.62.11.18.21.36.3.56.06.12.01.17-.02-.05,0,.04.03.09.05.13.03.09.06.19.09.28.02.09.04.17.06.26.02.11-.01.21,0-.07,0,.05.01.09.01.14.02.21.02.42.01.63,0,.26-.03.52-.06.78-.01.13-.03.27-.05.4,0,.04-.04.33,0,.06-.01.09-.03.19-.04.28-.08.56.13,1.18.75,1.32.51.12,1.24-.16,1.32-.75.17-1.19.38-2.44.07-3.62s-1.12-2.15-1.85-3.09c-.35-.45-1.16-.39-1.52,0-.44.47-.37,1.04,0,1.52h0Z"/>
      <path class="cls-4" d="M258.69,446.03c-1.81-1.06-3.95.92-3.52,2.83s2.65,2.69,4.33,2.19c.96-.28,1.8-.96,2.17-1.9s.1-1.95-.6-2.6c-.62-.58-1.45-.86-2.27-1-.88-.15-1.87-.29-2.74.02-1.12.4-1.8,1.43-1.51,2.62.24.99,1.23,1.83,2.28,1.45.72-.26,1.11-1.21.48-1.8-1.18-1.08-2.75-1.51-4.32-1.18-.36.08-.66.41-.75.75-.11.41.03.73.28,1.05,1.36,1.74,3.92,2.45,5.99,1.7.55-.2.91-.73.75-1.32-.15-.53-.77-.95-1.32-.75-.81.29-1.39.29-2.13.08-.1-.03-.2-.07-.3-.1-.21-.07.08.05-.13-.05-.19-.1-.37-.19-.55-.31-.03-.02-.27-.2-.12-.08-.07-.06-.13-.11-.2-.17-.17-.16-.32-.33-.46-.51l-.48,1.8c.73-.15,1.64.09,2.22.63l.48-1.8c-.19.07.25.04.2.03-.08-.02.33.21.17.08.03.02.13.2.04.04-.01-.02-.07-.14-.01,0s0,.01,0-.02c-.05-.25,0,.16,0,.01,0-.25-.07.11,0-.06.03-.09-.02-.07,0-.02l-.02.06c.05-.08.05-.09,0-.02l-.03.05.08-.07c-.06.03-.1.03.05-.01-.02,0-.13.05-.01,0,.08-.03.17-.05.26-.07,0,0,.18-.03.07-.01-.12.01.11,0,.13,0,.13,0,.26,0,.4,0,.11,0,.23.02.34.03.07,0,.15.02.22.03-.11-.01-.07,0,.02,0,.23.04.46.08.69.14.11.03.23.07.34.1.03,0,.22.09.1.04-.1-.05.07.04.09.05.06.04.28.19.13.07.05.04.22.23.16.15-.08-.11.03.05.04.08.05.12,0-.05-.02-.05.01,0,.05.24.02,0,0,.06,0,.13,0,.2.02-.24-.08.14-.03.05.05-.11-.19.24-.05.07-.03.04-.07.08-.11.11-.02.02-.18.16-.09.09.08-.06-.06.04-.06.04-.08.05-.15.09-.23.14-.11.06,0,.01.01,0-.06.03-.13.05-.2.07-.05.02-.1.03-.15.04-.03,0-.25.03-.11.02.1,0-.21,0-.25,0-.05,0-.1,0-.15,0-.17-.01.23.06-.06,0-.11-.03-.22-.05-.33-.09-.05-.01-.09-.03-.14-.05.06.02.14.09,0-.02-.08-.05-.17-.1-.25-.15.16.12-.09-.1-.13-.15.13.14-.06-.1-.09-.17.1.22.01,0,0-.01l-.02-.09c.01.12.02.14.02.06,0,0,0-.13,0-.13-.02.16-.02.08.03-.02.05-.11-.02.04-.02.05.04-.07.08-.13.12-.2.07-.1-.02.03-.03.04.05-.05.11-.11.16-.16.09-.08-.03.03-.04.03.03-.02.24-.12.1-.07-.12.05.01,0,.03,0,.24-.08-.13,0,0,0,.12,0-.07-.01-.08-.02.26.09-.19-.12.06.03,1.2.7,2.28-1.16,1.09-1.86h0Z"/>
      <path class="cls-4" d="M259.94,449.58c.46-.13.92-.23,1.39-.29l-.29.04c.8-.11,1.61-.12,2.41-.03.26.03.59-.14.76-.32.19-.19.33-.49.32-.76s-.1-.57-.32-.76c-.22-.2-.46-.28-.76-.32-1.37-.14-2.77,0-4.09.37-.54.15-.93.77-.75,1.32s.74.92,1.32.75h0Z"/>
      <path class="cls-4" d="M270.23,435.5c1.18,2.3,1.67,4.87,1.5,7.44-.04.58.52,1.08,1.08,1.08.62,0,1.04-.49,1.08-1.08.2-2.95-.44-5.91-1.79-8.53-.27-.52-.99-.67-1.47-.39-.53.31-.65.95-.39,1.47h0Z"/>
      <path class="cls-4" d="M273.26,441.32c-1.08.15-1.9,1.14-2.15,2.15s-.03,2.28.84,2.97c.52.41,1.15.66,1.82.62.59-.04,1.19-.22,1.68-.56,1.03-.72,1.71-2,1.28-3.27-.36-1.07-1.34-1.89-2.45-2.08-.57-.1-1.16-.11-1.71.1-.71.27-1.4.79-1.6,1.56-.24.93.38,1.64.99,2.24.51.51,1.08.93,1.76,1.18s1.47.22,2.06-.17c.52-.34.95-.88,1.1-1.49.16-.66.03-1.43-.52-1.88-.39-.33-.85-.48-1.36-.5-.29-.01-.58.02-.87.06-.75.09-1.57.27-2.1.86s-.76,1.38-.54,2.12c.13.44.41.77.79,1.03.47.32,1.21.1,1.47-.39.29-.55.11-1.13-.39-1.47.15.12.19.16.13.1-.02-.01-.03-.03-.05-.04.12.16.15.2.1.13-.01-.02-.02-.04-.03-.05-.09-.14.08.27.04.1,0-.04-.02-.08-.03-.13l.04.29c-.01-.09-.01-.18,0-.27l-.04.29c0-.07.02-.14.04-.2,0,0,.04-.11.04-.11.02,0-.13.25-.05.13.02-.02.05-.07.06-.1.03-.08-.18.2-.07.09.02-.02.04-.04.06-.06.1-.11-.18.12-.07.05.07-.04.15-.09.22-.13.13-.07-.08.03-.1.04.03-.03.1-.03.14-.05.18-.05.36-.09.55-.11l-.29.04c.35-.05.73-.09,1.08-.05l-.29-.04s.1.02.15.03c.22.06-.07-.02-.06-.03l.04.02c.06.04.05.03-.05-.04-.16-.13-.05-.04-.02-.01.08.1-.1-.14-.1-.13,0,0,.04.07.04.08.06.09-.08-.29-.06-.14,0,.03.02.07.02.1l-.04-.29c.01.09.01.17,0,.26l.04-.29c0,.06-.02.11-.03.17,0,.03-.02.06-.03.09-.04.13.06-.14.06-.15-.04.03-.07.13-.1.18-.13.2.16-.17.03-.04-.04.05-.09.09-.13.13-.1.09.11-.09.12-.09-.02,0-.06.04-.09.06-.02.01-.05.03-.07.04-.15.09.1-.06.13-.05-.04-.01-.15.04-.2.05l.29-.04c-.14.02-.28,0-.42,0l.29.04c-.12-.02-.24-.05-.35-.09-.24-.08.2.11.02,0-.05-.03-.1-.05-.15-.08-.1-.06-.2-.12-.29-.19-.17-.12.18.15.03.02-.05-.05-.11-.09-.16-.14-.19-.16-.36-.34-.53-.52-.08-.08-.15-.2-.24-.26.11.14.13.17.06.08l-.03-.05c-.05-.1-.04-.07.04.1-.01-.04-.02-.07-.03-.11l.04.29c0-.06,0-.11,0-.17l-.04.29s.02-.11.03-.11c0,0-.11.25-.04.11.08-.16-.14.15-.05.06.03-.03.05-.06.08-.08.04-.04.21-.18.04-.05s.02,0,.07-.03c.04-.02.12-.05.15-.08,0,0-.27.1-.14.06.03,0,.05-.02.08-.03.12-.04.24-.06.36-.08l-.29.04c.2-.02.39-.02.59,0l-.29-.04c.11.02.22.04.33.07s.43.18.06,0c.09.04.18.08.26.13.05.03.1.06.14.09.19.13-.13-.11-.07-.05.08.07.15.14.22.22.06.07.11.19-.06-.09.03.05.06.09.09.14s.05.1.08.14c.08.15-.1-.27-.04-.1.03.11.06.21.08.33l-.04-.29c.02.15.02.3,0,.44l.04-.29c-.02.1-.04.2-.07.3-.08.24.11-.21.03-.05-.02.04-.04.08-.06.12-.03.05-.06.1-.09.15-.12.18.04-.08.06-.08-.03,0-.2.21-.23.24-.04.04-.08.07-.12.1.26-.23.13-.1.05-.05-.09.06-.18.11-.27.16-.2.1.25-.09.07-.03-.05.02-.1.03-.15.05-.11.03-.21.05-.32.07l.29-.04c-.16.02-.32.02-.48,0l.29.04c-.09-.01-.17-.03-.25-.06-.1-.03-.18-.1.09.05-.04-.02-.08-.04-.12-.06s-.08-.05-.12-.07c-.15-.08.21.18.09.07-.06-.05-.11-.11-.17-.16-.11-.12.17.24.07.1-.02-.03-.04-.06-.06-.1-.06-.11-.12-.34,0,.02-.05-.15-.09-.29-.11-.45l.04.29c-.02-.18-.02-.37,0-.55l-.04.29c.03-.19.07-.36.14-.54.06-.16-.14.29-.03.08.02-.03.04-.07.05-.1.03-.04.05-.09.08-.13.12-.18-.13.15-.07.08s.12-.13.18-.19c.08-.07.21-.12-.09.06.04-.02.07-.05.11-.07s.08-.04.12-.06c.15-.08-.29.1-.1.04.1-.03.19-.05.29-.07.25-.03.52-.29.64-.49.14-.23.19-.57.11-.83s-.25-.51-.49-.64c-.27-.15-.53-.15-.83-.11h0Z"/>
      <path class="cls-4" d="M274.97,445.59l.35.69c.07.13.16.23.28.3.1.1.23.16.37.19.14.04.29.05.43.02.14,0,.28-.05.4-.13l.22-.17c.13-.13.23-.29.28-.48l.04-.29c0-.19-.05-.38-.15-.54l-.35-.69c-.07-.13-.16-.23-.28-.3-.1-.1-.23-.16-.37-.19-.14-.04-.29-.05-.43-.02-.14,0-.28.05-.4.13l-.22.17c-.13.13-.23.29-.28.48l-.04.29c0,.19.05.38.15.54h0Z"/>
      <path class="cls-4" d="M274.96,446.42l1.83,1.23c.22.15.58.18.83.11s.52-.26.64-.49c.13-.25.2-.55.11-.83s-.25-.48-.49-.64l-1.83-1.23c-.22-.15-.58-.18-.83-.11s-.52.26-.64.49c-.13.25-.2.55-.11.83s.25.48.49.64h0Z"/>
      <path class="cls-4" d="M239.6,437.38c-.54.78-1.21,1.53-1.6,2.39-.47,1.02-.51,2.15-.58,3.26-.03.56.52,1.1,1.08,1.08.61-.03,1.04-.47,1.08-1.08.02-.32.04-.64.07-.96.01-.14.03-.27.04-.41.01-.08.05-.28,0,.06,0-.05.02-.1.02-.15.03-.18.07-.36.12-.54.02-.08.05-.16.08-.23.11-.29-.12.23,0-.01.41-.83,1.04-1.56,1.57-2.32.32-.46.1-1.22-.39-1.47-.55-.29-1.13-.11-1.47.39h0Z"/>
      <path class="cls-4" d="M237.34,442.62c-1.48.94-2.73,2.85-2.06,4.66.6,1.6,2.5,2.66,4.12,1.84,1.71-.86,1.83-3.2,1.1-4.74-.37-.78-1.11-1.46-1.97-1.66s-1.83.08-2.46.71c-.7.69-.87,1.72-.42,2.59.4.78,1.24,1.23,2.04,1.49,1.59.52,3.68.79,5.13-.25.66-.48,1.17-1.19,1.08-2.05-.11-1.02-.82-1.68-1.75-2.01-.78-.28-1.71-.31-2.53-.35-1.01-.05-2.01.07-2.94.48-1.89.85-2.89,3.07-1.76,4.93,1.21,2,3.76,2.21,5.69,1.21.52-.27.67-.99.39-1.47-.31-.52-.96-.65-1.47-.39-.43.22-.91.34-1.44.32-.02,0-.26-.03-.15,0,.1.01-.09-.02-.09-.02-.15-.04-.3-.07-.44-.14.13.06-.14-.09-.18-.11-.02-.01-.19-.14-.11-.07.07.06-.13-.13-.13-.13-.04-.04-.07-.08-.11-.12-.12-.13.07.11-.03-.03-.07-.1-.13-.21-.19-.32.08.14,0,0-.01-.03-.02-.07-.04-.13-.06-.2-.01-.03-.04-.21-.01-.02,0-.07-.01-.14-.01-.21s0-.14.01-.21c-.01.07-.04.14.02-.02.02-.06.04-.13.06-.19,0,.02-.07.14,0,.03s.11-.2.18-.3c-.1.14,0,0,.02-.02.06-.06.12-.12.18-.18.02-.02.18-.16.09-.08-.08.07.05-.04.06-.04.12-.08.23-.15.36-.21.06-.03.12-.06.19-.09-.02,0-.13.05-.02.01.16-.06.33-.11.5-.14.52-.12,1.21-.1,1.82-.05.31.02.63.05.94.09.17.02-.17-.03,0,0,.05,0,.1.02.15.03.14.03.29.07.43.11.03,0,.21.09.09.03s.04.03.04.03c0,.02.13.09,0-.02.05.04.09.08.13.12-.11-.12-.04,0-.02,0-.05,0-.01-.16-.02-.05-.02.15,0-.2,0-.05,0,.18-.03.07.02-.02-.03.08-.07.12.04-.05-.02.03-.03.07-.05.1-.09.1.15-.11.03-.03-.03.02-.06.06-.08.09-.11.13-.02.02.03,0-.05.03-.09.07-.14.1-.1.06-.21.12-.31.17.2-.09-.11.03-.18.05-.1.03-.22.04-.32.07-.14.06.17,0,.01,0-.06,0-.12.01-.18.01-.14,0-.29,0-.43,0-.65-.04-1.28-.16-1.92-.36-.06-.02-.13-.04-.19-.07,0,0-.16-.07-.06-.02.11.05-.08-.04-.1-.05-.06-.03-.12-.06-.17-.1-.04-.03-.08-.05-.12-.08.15.11.02,0,0-.02-.03-.03-.12-.15-.01,0-.01-.02-.15-.24-.07-.12.07.1,0-.04,0-.05l.02.11v-.09s.04.28.01.04c0,.03-.11.21,0,.03.01-.02.09-.13.02-.03-.09.11.04-.03.06-.05.09-.08-.03.02-.04.03.06-.04.13-.08.19-.12.13-.08-.16.04,0,0,.06-.01.12-.03.18-.05.11-.04-.04.01-.06,0,.06,0,.12,0,.18,0-.26-.02.18.11,0,.01.04.02.09.05.13.07.07.04.16.14.06.04.05.05.26.29.16.15.07.1.13.2.18.3.02.04.05.09.07.14-.07-.16,0,0,0,.03.04.15.09.29.11.44.02.13,0-.02,0-.04,0,.07.01.14.01.2,0,.14,0,.28-.02.41.02-.19-.03.11-.05.17-.01.05-.03.1-.05.15.06-.19-.05.08-.06.11,0,0-.09.15-.03.06.07-.1-.09.1-.11.12-.03.03-.15.1-.02.02-.03.02-.25.12-.11.07.12-.05-.01,0-.03,0-.23.06.12.02,0,0-.05,0-.12,0-.17,0-.1.02.17.05-.01,0-.08-.02-.35-.13-.16-.04-.05-.03-.11-.05-.16-.08-.02-.01-.23-.15-.12-.07.11.08-.04-.04-.07-.06-.06-.05-.11-.11-.16-.16-.01-.01-.1-.13-.03-.03.08.11-.05-.1-.07-.12-.1-.14-.03-.05,0,.01-.03-.07-.05-.14-.07-.22-.01-.04-.02-.09-.03-.13.03.19,0-.13,0-.14,0-.05,0-.11,0-.16,0-.11-.04.1.02-.08.02-.07.04-.14.06-.21l.03-.1c-.04.07-.04.08,0,0,.14-.32.25-.47.41-.65.1-.11.21-.21.32-.31.15-.14.08-.07.04-.04.09-.07.18-.13.27-.18.49-.31.69-.96.39-1.47s-.98-.7-1.47-.39h0Z"/>
      <path class="cls-4" d="M235.93,409.52c6.26,2.08,12.73,3.38,19.23,4.47s13.34,2.13,20.01,3.18l-.64-1.58c-2.1,3.48-2.48,7.55-2.41,11.53.03,1.58-.29,4.07.98,5.26.58.55,1.43.81,2.16,1.1,1.15.45,2.33.81,3.53,1.11,1.34.34,1.92-1.74.57-2.08-.9-.23-1.79-.48-2.66-.79-.66-.23-1.78-.45-2.16-1.06-.34-.54-.2-1.65-.23-2.3-.03-.83-.05-1.65-.04-2.48.02-3.21.44-6.41,2.12-9.2.33-.54.05-1.47-.64-1.58-6.67-1.06-13.35-2.07-20.01-3.18s-12.97-2.39-19.23-4.47c-1.32-.44-1.88,1.64-.57,2.08h0Z"/>
      <path class="cls-4" d="M235.69,408.02l-.13.06.54-.15c-.26.03-.49-.16-.75-.24-.38-.12-.78-.15-1.16-.03-1.03.35-1.18,1.43-1.39,2.34-.48,2.12-1.09,4.22-1.83,6.27-.36,1-.74,1.99-1.16,2.97-.21.49-.43.98-.65,1.46-.04.09-.3.53-.18.48.11-.05-.27-.13-.39-.17-2.2-.82-4.39-1.66-6.58-2.48-1.3-.49-1.86,1.59-.57,2.08,2.27.85,4.52,1.8,6.82,2.57,2.42.81,3.2-2.29,3.89-3.96.84-2.06,1.56-4.16,2.15-6.3.15-.56.3-1.12.43-1.68.04-.15.48-1.51.37-1.62-.49.03-.62.08-.39.14.04.01.08.02.12.04.16.09.38.17.56.23.5.15.92.07,1.39-.13.54-.23.65-1.01.39-1.47-.31-.55-.94-.62-1.47-.39h0Z"/>
      <path class="cls-4" d="M258.72,388.53c.15.03.21.4.27.21.02-.05-.06-.22-.07-.27-.06-.24-.12-.47-.17-.71-.11-.44-.2-.88-.29-1.33-.16-.86-.23-1.74-.16-2.62.13-1.6.96-2.91,2.28-3.81.46-.31,1.14-.77,1.72-.55s.33.6-.06.89c-.63.46-1.41.67-2.04,1.15-.59.45-1.08,1.03-1.44,1.69-.81,1.48-1.04,3.19-1.21,4.84-.06.58.54,1.08,1.08,1.08.63,0,1.02-.5,1.08-1.08.16-1.51.35-3.37,1.46-4.52.69-.72,1.72-.94,2.49-1.55s1.38-1.68,1.09-2.73c-.28-1-1.2-1.74-2.2-1.91-1.12-.19-2.22.26-3.13.89s-1.7,1.36-2.27,2.3-.86,2.03-.98,3.13c-.14,1.26.04,2.55.3,3.79.22,1.05.37,2.96,1.69,3.19.57.1,1.16-.16,1.32-.75.14-.52-.18-1.22-.75-1.32h0Z"/>
      <path class="cls-4" d="M261.76,380.75c.85.77,1.6,1.62,2.23,2.58.05.07.37.69.42.68-.25.03.07-.5.09-.48,0,0-.21.13-.22.14-.42.24-.88.39-1.28.66-.87.58-1.62,1.37-2.13,2.29-.26.48-.48,1-.61,1.54-.06.25-.09.51-.13.77-.01.09-.08.28-.07.37.03.24-.37-.08.36.03-.57-.09-1.16.14-1.32.75-.14.51.17,1.24.75,1.32.89.13,1.68-.2,2.1-1.03.31-.63.28-1.35.5-2.01.35-1.08,1.16-1.97,2.17-2.48.52-.26,1.06-.45,1.46-.91.57-.66.52-1.46.11-2.2-.73-1.33-1.79-2.54-2.9-3.55-1.02-.93-2.55.59-1.52,1.52h0Z"/>
      <path class="cls-4" d="M241.12,414.49c-.62-1.29-2.49-1.74-3.63-.88s-1.29,2.89-.1,3.84c.29.23.62.24.91,0,.66-.55.73-1.42.98-2.19.09-.27.25-.53.52-.69.04-.02.08-.04.12-.07,0,0,.11-.05.03-.02.09-.03.17-.05.26-.08.11-.03.07-.02.03-.01.04,0,.09,0,.14,0s.09,0,.14,0c.16,0-.06-.03.1.01.09.02.17.04.25.08-.07-.03.1.06.14.08s.08.05.11.07c-.07-.06.03.03.05.05.03.03.06.06.09.09.02.02.09.12.05.05.13.18.16.24.21.41.01.04.02.09.03.13.02.11,0-.08,0,.04,0,.09.01.12-.02.19.02-.05-.07.06-.02.03.02-.01.06-.03,0-.02-.11.03.08-.02-.04,0-.02,0-.16.03-.07.02-.22.02-.44,0-.66,0-.48-.02-.96-.06-1.42-.22-.2-.07-.39-.16-.6-.19-.31-.05-.61-.01-.89.13-.44.22-.75.66-.88,1.13s-.18,1.13-.03,1.6c.18.57.72.74,1.24.85,1.01.22,2.08.27,3.02-.22.4-.21.76-.54,1-.92.36-.57.25-1.23-.4-1.51-.57-.24-1.14-.15-1.73-.1-.1,0-.2.02-.3.02-.04,0-.08,0-.13,0s-.14-.02-.05,0c-.1-.02-.2-.04-.3-.08.1.04.01,0,0-.01-.16-.09.09.07-.05-.04-.02-.02-.07-.09,0,0-.05-.08-.02.02-.04-.1,0-.04-.01-.19-.02-.28,0-.27-.02-.55-.1-.8-.18-.55-.53-1-1.01-1.32v1.12c.34-.16.71-.27,1.08-.32.08-.01.17-.02.26-.02.03,0,.2.02.22,0-.06.05-.18-.14-.2-.18.05.1.02-.04.01.07,0,.04,0,.08,0,.12,0-.08,0-.07-.01.03-.02.08-.04.15-.06.23-.05.18-.11.36-.18.53-.13.36-.28.72-.36,1.09-.09.4-.15.86-.02,1.26.16.47.6.74,1.1.73.41-.01.83-.16,1.22-.27.44-.12.89-.24,1.33-.36.34-.09.54-.46.45-.79s-.46-.54-.79-.45c-.46.12-.92.25-1.38.37-.21.06-.43.12-.64.17-.06.02-.13.04-.2.04.06,0,.05-.01-.03,0-.08,0-.09,0-.02,0,.1.03.16.09.19.19-.02-.08-.02-.1-.01-.06,0-.01,0-.17,0-.22,0-.12.04-.29.09-.44.1-.37.26-.73.38-1.09.26-.73.47-1.87-.5-2.19-.4-.13-.88-.05-1.28.03-.46.08-.89.24-1.31.44-.47.22-.37.87,0,1.12.23.15.41.42.47.75,0-.02,0-.08,0,0,0,.05,0,.11,0,.17,0,.11,0,.22.01.33.02.28.08.55.23.78.5.79,1.47.82,2.3.73.22-.02.45-.06.67-.03.03,0,.17.07.23.06-.01,0-.06-.03-.06-.04-.09-.5-.04-.5-.16-.29,0,0-.07.1-.02.04-.03.04-.06.07-.09.1s-.07.06-.1.1c0,0-.09.08-.03.03-.06.05-.14.09-.21.13-.04.02-.08.05-.12.07-.02,0-.14.06-.07.04-.4.16-.83.18-1.26.15-.21-.02-.41-.06-.62-.1-.12-.02-.23-.05-.35-.08-.04-.01-.08-.02-.13-.03-.07-.02-.04-.04-.02-.01s.08.12.1.14c.02.02,0,.04,0-.04,0-.11,0-.22,0-.33,0-.19.02-.45.07-.58.02-.04.04-.08.06-.12,0-.01.07-.09.02-.03.03-.03.06-.07.09-.09-.04.03-.05.02.03-.01-.03.01-.09.02.02,0-.04,0-.09-.02.02,0-.03,0-.09-.03.06.01.06.02.12.04.18.06.48.18.95.28,1.46.33.45.04.93.08,1.39.02.54-.07.99-.37,1.19-.89.15-.42.11-.9-.04-1.31-.32-.83-1.06-1.47-1.96-1.59-.98-.13-2.04.38-2.49,1.28-.2.4-.3.83-.41,1.26-.02.1-.05.19-.08.29-.01.04-.03.08-.04.12-.01.03-.05.13-.02.05-.04.09-.09.19-.15.27.02-.03.07-.07-.02.01-.05.04-.09.09-.14.13h.91c-.09-.07-.18-.15-.25-.24.08.1-.02-.03-.03-.06-.01-.02-.1-.19-.07-.13.03.06-.03-.09-.04-.11-.02-.06-.03-.11-.04-.17,0-.03-.01-.06-.02-.09,0,.07,0,.07,0,.03,0-.06,0-.12,0-.18s0-.12,0-.18c0-.05,0-.04,0,.03,0-.04.01-.08.02-.12.01-.06.03-.11.04-.17,0-.03.07-.18.02-.06.05-.1.11-.21.17-.3-.07.09.03-.02.05-.05.02-.02.15-.13.05-.05.04-.03.1-.07.14-.09.01,0,.18-.09.05-.03.11-.04.22-.07.33-.09-.14.03.03,0,.06,0,.06,0,.11,0,.17,0s.12,0,.17.01c-.14-.02.02,0,.06.02.06.01.11.03.17.05.04.01.16.07.06.02.1.05.2.11.3.17-.11-.07.05.04.07.06.04.04.08.08.12.12.03.03.03.03-.01-.02.02.02.03.05.05.07.03.06.07.12.1.18.15.31.6.4.88.23.32-.19.38-.57.23-.88h0Z"/>
      <path class="cls-4" d="M265.37,418.22c-.89-.11-1.78-.11-2.5.49s-.69,1.6-.28,2.4c.36.7,1.06,1.44,1.91,1.32.99-.14,1.26-1.37,1.35-2.2.05-.52.07-1.24-.59-1.34-.55-.08-.91.46-.86.96.09.79.69,1.61,1.43,1.9s1.68.06,2.06-.66.08-1.6-.48-2.14c-.62-.6-1.46-.7-2.26-.91s-1.7-.9-2.35-.09c-.28.34-.33.83-.39,1.26-.07.5-.11,1,0,1.5.16.75.74,1.49,1.52,1.67.87.2,1.7-.28,2.18-1s.51-1.65.52-2.47c0-.45-.09-.92-.44-1.24s-.8-.39-1.23-.32c-.39.06-.72.26-1.04.48-.3.2-.54.32-.9.37-.81.11-1.43.59-1.73,1.35s-.09,1.54.43,2.13,1.38,1.05,2.15,1.28c.83.25,1.71.22,2.5-.14.34-.15.65-.39.89-.67.23-.26.26-.65,0-.91-.23-.23-.68-.27-.91,0-.48.55-1.2.7-1.91.54-.43-.1-.81-.28-1.18-.51-.29-.18-.6-.39-.75-.7-.05-.1-.06-.19-.06-.28,0-.01,0-.15,0-.08,0,.06.01-.05.01-.05,0-.04.02-.09.04-.13,0-.02.04-.1.01-.04.12-.28.27-.42.51-.48.21-.05.42-.06.63-.1.23-.05.45-.16.66-.28.32-.19.6-.46.94-.52.01,0,.1,0,.1.03.01.06,0,.24,0,.36,0,.42-.02.84-.13,1.25-.09.33-.26.65-.56.81-.12.07-.21.1-.35.08-.06,0-.19-.06-.25-.11-.25-.2-.36-.46-.4-.79-.03-.23-.01-.48.02-.71s.12-.48.14-.71c0,0,.02-.08.02-.08,0,0-.16.12-.16.12,0,0-.06,0-.06,0,0,0,.17.04.15.04.19.06.38.17.58.25.42.17.87.24,1.3.35.4.1.77.23.99.52.03.04.09.14.12.21,0,0,.04.13.04.12,0-.07,0,.07,0,.08,0,.1.03-.07,0,.02-.01.03,0,.04-.06.09.06-.05-.15.06-.06.03-.03.01-.07.02-.1.02-.05,0-.04,0,0,0h-.07c-.11,0-.22-.03-.34-.12s-.23-.24-.31-.4c-.04-.08-.07-.13-.1-.22-.01-.04-.02-.08-.04-.12-.02-.12-.04-.1-.04.06-.04.14-.04.18.01.1l-.23.23.03-.02-.33.09h.04c-.11-.03-.22-.06-.33-.09l.04.02-.32-.56c.02.28.02.57-.04.85-.03.16-.07.32-.12.47-.03.09-.12.22-.13.31,0,0,.02,0,.02,0,.04-.07.07.04-.01,0,.07.05-.05-.05-.02-.02,0,0-.11-.07-.12-.08-.15-.11-.27-.29-.37-.47-.11-.19-.24-.43-.2-.66.02-.11.12-.22.21-.28.42-.3,1.07-.19,1.6-.13.35.04.65-.33.65-.65,0-.39-.3-.6-.65-.65h0Z"/>
      <path class="cls-4" d="M232.18,410.01c-1.03-.44-2.06-.39-3.06.13-.92.48-1.59,1.36-2.08,2.26-.94,1.72-1.9,3.83-1.16,5.79.69,1.81,2.57,2.76,4.4,2.01s2.88-2.54,2.9-4.51c.01-1.1-.24-2.2-.55-3.24-.29-.97-.59-2.14-1.67-2.48s-1.99.55-2.46,1.45c-.5.97-.93,1.98-1.01,3.08-.14,1.87,1.26,4.06,3.34,3.9,1.74-.13,3.04-2.29,2.05-3.83-.69-1.07-1.92-1.03-3.04-.99-.26,0-.39.02-.6-.04-.06-.02-.11-.04-.17-.06.23.09,0-.02-.05-.05-.04-.03-.24-.2-.06-.04-.07-.06-.13-.12-.19-.18-.04-.04-.08-.09-.12-.13-.04-.05-.08-.09-.12-.14.07.08.08.09.03.03-.92-1.32-1.5-2.9-3.15-3.47-.55-.19-1.18.22-1.32.75-.16.59.2,1.14.75,1.32.19.07.03,0,0,0,.05.03.11.05.16.08.04.02.07.05.11.07.14.08-.12-.11,0,0,.08.07.16.14.23.22.04.04.08.09.12.14.14.14-.04-.06.03.04.29.4.53.84.79,1.27.57.96,1.26,1.88,2.37,2.23.69.22,1.39.09,2.09.09.18,0,.15.02.28.03.2,0,.14.04.09.03-.17-.03.07.02.02.02.03,0-.2-.19-.02-.01,0,0-.07-.18-.03-.06.02.04.02.21.02.06,0-.16-.01.08-.02.11.02-.27-.06.13-.02.02.04-.1-.08.15-.11.2-.1.17-.03.03,0,0-.04.04-.09.09-.13.13.16-.15-.22.08.01,0-.06.02-.12.04-.17.05.1-.02.16.02-.01-.02.15.03-.18-.04-.22-.06-.17-.07.1.06-.05-.03-.05-.03-.1-.06-.15-.09.07.05-.21-.22-.21-.21-.31-.38-.41-.82-.35-1.37.07-.7.4-1.37.72-1.99.08-.15.15-.3.25-.43-.04.06.1-.14.11-.11.13.21-.55-.03-.54-.03-.05,0-.02-.06.03.05.06.14.02.03.06.11.29.74.49,1.54.65,2.32.13.67.19,1.39.03,2.06-.13.57-.3.87-.74,1.28-.2.18-.23.2-.51.36-.1.06-.44.18-.56.2.05,0-.25,0-.32,0-.13,0,0,0,.03,0-.07-.01-.13-.03-.2-.05-.03,0-.19-.07-.04,0-.05-.02-.1-.05-.14-.08-.14-.09-.15-.09-.28-.24-.08-.09-.08-.1-.17-.26-.06-.1-.08-.16-.14-.35-.02-.08-.04-.16-.06-.24,0-.02-.03-.26-.02-.13-.01-.16-.02-.32,0-.48.05-.76.38-1.49.7-2.16s.68-1.44,1.26-1.98c.19-.18.46-.35.7-.42.22-.07.55-.09.66-.04.54.23,1.15.16,1.47-.39.26-.45.15-1.25-.39-1.47h0Z"/>
      <path class="cls-4" d="M228.54,410.78c.23-.05-.14-.02-.02,0,.01,0,.18,0,.18,0,0,.03-.24-.06-.04,0,.02,0,.17.03.17.05-.13-.06-.16-.07-.09-.03.03.02.07.03.1.05.02.01.12.06.13.08-.11-.09-.13-.1-.07-.05.03.02.06.05.09.08.04.03.07.07.11.11.03.03.05.06.08.09.05.06.03.04-.05-.06,0,0,.08.12.09.13.02.03.19.35.19.35-.05-.12-.06-.15-.03-.07.01.04.03.08.04.11.02.05.03.1.04.15,0,.04.02.08.02.12.01.08.01.05,0-.09.03.04.01.15.01.2,0,.07,0,.13,0,.2,0,.21.03-.08,0,.04-.04.15-.06.3-.11.45-.02.07-.05.15-.08.22-.07.19.04-.06-.02.04-.08.14-.14.28-.22.42-.16.28-.34.54-.53.8-.05.06-.13.17-.04.05-.05.06-.1.13-.15.19-.11.14-.22.27-.34.41-.36.43-.45,1.11,0,1.52.4.37,1.14.46,1.52,0,1.11-1.34,2.32-2.9,2.08-4.76-.24-1.75-1.79-3.25-3.62-2.87-.55.11-.92.8-.75,1.32.19.58.73.88,1.32.75h0Z"/>
      <path class="cls-4" d="M253.33,355.72c.54-2.36.91-3.78,1.17-4.34.38-1.07,1.75-2.61,2.68-3.38.39-.35.79-.57,1.2-.61.31-.02.47-.11.56-.14.09-.02.48.24,1.29.78,1.56,1.11,1.66,3.97.26,6.04-1.36,2.08-3.65,12.86-3.95,14.35-.12.73-.01,1.42.19,1.9,1.18,2.4,3.19,3.7,5.59,3.27,1-.12,2.05-.64,3.15-1.58.5-.46,1.29-1.17,2.25-2.28,2.08-2.14,2.5-2.4,3.92-1.81.74.26,1.16.53,1.29.74.33.48-5.16,5.69-6.5,6.31-1.44.69-2.08.77-3.73.43-3.6-.56-7.56-3.01-8.57-5.37-.1-.16-.29-.47-.53-.96-.25-.46-.39-.8-.45-.94-.38-.66-.75-3.14-.64-7.28.07-1.09.28-2.77.82-5.13ZM270.43,353.83c1.34,1.9-.27,4.28-2.32,1.42-1.57-2.22.56-4,2.32-1.42ZM274.1,353.51c1.3,1.89-.31,4.27-2.35,1.37-1.57-2.22.59-3.94,2.35-1.37Z"/>
      <path class="cls-5" d="M308.46,374.89c-.94.28-1.74-1.57-2.13-2.17-.84-1.3-1.84-2.44-3.26-3.1-2.69-1.24-5.48-.59-8.3-.46-1.06.05-2.28.08-3.21-.5-1.05-.65-1.53-2.06-2.42-2.91-2.28-2.17-5.49-1.92-8.36-1.53-1.15.16-1.78,1.64-1.5,2.65.34,1.24,1.49,1.66,2.65,1.5s2.51-.34,3.6.09,1.6,1.82,2.35,2.67c1.9,2.16,4.92,2.51,7.62,2.29,2.27-.19,5.33-1.02,6.9,1.14.93,1.28,1.57,2.66,2.88,3.63s2.8,1.33,4.34.87c2.65-.79,1.52-4.95-1.14-4.15h0Z"/>
      <path class="cls-4" d="M229.37,396.82c-3.61,1.21-4.13,3.98-5.57,7.05-.77,1.64-2.06,2.89-2.58,4.68-.63,2.18.29,3.77.27,5.88l.62-2.28.24-.13c-4.8,3.23-.28,11.07,4.57,7.81,1.58-1.06,2.95-2.28,3.46-4.2.41-1.55-.59-3.99-.34-4.91s1.86-2.81,2.38-4.11c.29-.72.57-1.81.89-2.08l-2,1.16.46-.15c5.49-1.84,3.14-10.58-2.4-8.72h0Z"/>
    </g>
    <rect class="cls-3" x="193.76" y="341.98" width="49.45" height="124.65"/>
    <path class="cls-4" d="M243.94,450.03c0,.18-.07.32-.2.41-.04.03-.04.03,0,0,.01,0,.15-.07.08-.04.16-.07.33-.11.5-.15.35-.09.7-.17,1.05-.27l-.59-1.4c-.38.21-.71.5-1.11.68-.67.3-.36,1.19.18,1.4,1.2.46,2.39-.23,3.6-.18l-.66-1.15c-.12.16-.21.34-.32.51-.35.53.13,1.09.66,1.15.65.08,1.29-.05,1.93-.15.5-.08,1.08-.18,1.54.07l-.38-.66c0,.1-.02.2-.04.31-.07.34.05.67.35.86.4.25.92.3,1.29-.03.29-.26.32-.6.42-.85.15-.39-.16-.84-.53-.94-.43-.12-.79.15-.94.53-.03.06-.05.12-.05.18-.04.27-.04.27.02,0l.54-.22h.02c.12.3.23.59.35.87.05-.23.08-.47.1-.71.02-.26-.16-.54-.38-.66-1.38-.76-2.79.05-4.24-.13l.66,1.15c.11-.17.21-.35.32-.51.35-.5-.13-1.13-.66-1.15-.59-.02-1.17.11-1.75.22-.49.1-.97.2-1.45.01l.18,1.4c.4-.18.73-.47,1.11-.68.76-.42.24-1.62-.59-1.4-.72.19-2.69.4-2.55,1.51.05.41.31.76.76.76.37,0,.81-.35.76-.76h0Z"/>
    <path class="cls-4" d="M263.26,451.94c1.02-.02,4.92-.89,5.28.45.11.43.72.76,1.12.46,1.03-.79,2.43-1.87,3.79-1.38v-1.47c-1.06.4-2.19-.11-3.29.01-.68.07-1.12,1.04-.39,1.42,4.78,2.49,10.18-.23,15.15,1.11.95.25,1.36-1.22.41-1.47-2.38-.64-4.85-.38-7.28-.2s-5.21.44-7.5-.76l-.39,1.42c1.25-.14,2.47.4,3.7-.07.71-.27.74-1.21,0-1.47-1.79-.64-3.59.48-4.97,1.53l1.12.46c-.71-2.67-4.81-1.61-6.75-1.58-.98.02-.98,1.54,0,1.53h0Z"/>
  </g>
  <g>
    <path class="cls-4" d="M168.07,136.96c3.37-10.03,4.19-15.94,4.19-21.85h-46.63v-22.53h70.35v23.05c0,7.93-1.05,16.77-4.19,25.52l-23.73-4.19ZM125.71,138.01c14.82-.6,17.29-4.87,17.29-14.45v-5.99h24.77v7.78c0,27.99-10.78,35.93-39.74,37.12l-2.32-24.47Z"/>
    <path class="cls-4" d="M197.11,220.03c-10.18,13.4-27.62,17.36-70.65,17.36l-1.57-29.64c4.49.15,8.68.22,12.65.22,28.74,0,42.81-4.64,55.83-16.69l3.74,28.74ZM161.78,200.35c-8.76-4.42-23.35-9.58-33.9-12.27l9.36-22c10.4,2.17,25.22,6.81,34.5,11.23l-9.96,23.05Z"/>
    <path class="cls-4" d="M167.24,310.6v-3.22h-12.57v3.22h-27.92v-67.44h68.41v67.51l-27.92-.07ZM167.24,267.33h-12.57v14.97h12.57v-14.97Z"/>
    <path class="cls-4" d="M197.48,370.39c-10.18,13.4-27.62,17.36-70.65,17.36l-1.57-26.87c4.86.15,11.9.22,17.29.22h8.08c-9.36-3.44-19.98-6.21-26.57-7.56l9.43-18.41c9.36,1.95,23.13,6.81,32.03,11.23l-7.04,13.62c16.24-2.32,25.97-7.19,35.25-15.79l3.74,26.2ZM170.54,345.47c-8.61-4.42-21.18-9.58-31.51-12.27l9.43-17.66c10.4,2.17,23.65,6.81,32.11,11.23l-10.03,18.71Z"/>
    <path class="cls-4" d="M134.76,454.89v-20.43h18.79v-17.74h-15.64v-19.76h55.08v19.76h-15.64v17.74h18.71v20.43h-61.3Z"/>
  </g>
  <g>
    <path class="cls-4" d="M239.58,106.35c0,19.2-10.11,21.66-32.89,21.66l-1.12-13.33c16.48,0,19.49-1.49,20.21-7.46h-4.53c-.65,2.06-1.34,3.66-2.07,4.82l-14.67-1.05c2.32-3.88,5.04-12.71,5.14-17.21h13.84c0,.76-.04,1.59-.18,2.83h16.26v9.74Z"/>
    <path class="cls-4" d="M205.13,139.39v-9.38h33.91v9.38h-33.91ZM239.04,148.12c0,13.73-5.91,16.12-32.82,16.12l-.72-11.27c17.75,0,20.61-.76,21.05-2.83h-21.37v-9.42h33.87v7.39Z"/>
    <path class="cls-4" d="M217.31,199.75v-13.29c-3.37.69-6.12,1.16-9.27,1.56l-3.88-13.33c10.03-1.2,22.28-4.85,29.2-8.77l6.67,12.46c-2.21,1.41-5.07,2.72-8.26,3.95v17.42h-14.45Z"/>
    <path class="cls-4" d="M238.68,236.7c-9.74-1.77-23.11-2.64-34.09-2.64v-10.11c12.03,0,25.32.62,35.14,1.96l-1.05,10.79ZM205.53,211.93v-9.45h33.11v9.45h-33.11ZM206.33,222.9v-9.6h31.52v9.6h-31.52Z"/>
    <path class="cls-4" d="M239.58,264.53c-4.93,6.48-13.37,8.4-34.2,8.4l-.76-14.34c2.17.07,4.2.11,6.12.11,13.91,0,20.72-2.25,27.02-8.08l1.81,13.91ZM222.49,255.01c-4.24-2.14-11.3-4.64-16.41-5.94l4.53-10.65c5.04,1.05,12.21,3.3,16.7,5.43l-4.82,11.16Z"/>
    <path class="cls-4" d="M239.55,287.54c0,19.2-10.11,21.66-32.89,21.66l-1.12-13.33c16.48,0,19.49-1.49,20.21-7.46h-4.53c-.65,2.07-1.34,3.7-2.07,4.85l-14.67-1.09c2.32-3.88,5-12.71,5.11-17.21h13.87c0,.76-.04,1.63-.18,2.86h8.33c.58,1.34,1.09,2.54,1.59,4.13l6.34-2.03v7.61ZM233.97,280.55c-.47-1.49-1.12-3.04-1.85-4.49l2.43-.69c.8,1.45,1.41,2.93,1.96,4.24l-2.54.94ZM237.66,279.43c-.47-1.41-1.05-2.83-1.81-4.27l2.36-.65c.72,1.23,1.41,2.72,1.96,4.09l-2.5.83Z"/>
    <path class="cls-4" d="M235.02,344.24c-2.03-.4-4.67-1.2-6.45-2.03-2.54,1.38-5.51,1.96-9.02,1.96-7.97,0-11.95-3.37-11.95-9.42,0-2.93,2.03-6.3,5.36-8.19-1.05-1.74-1.88-3.62-1.88-5.83,0-4.53,2.97-8.62,10-8.62,6.27,0,9.67,3.51,9.67,8.22,0,3.95-2.39,6.96-5.94,8.55.83.83,1.16.98,2.79,1.81.47-.83.83-1.99,1.01-3.12l8.48.58c-.43,2.35-1.12,4.46-1.96,6.05.98.36,1.81.62,2.9.83l-3.01,9.2ZM217.71,332.76c-.72.54-.98,1.01-.98,1.52,0,1.05,1.16,1.99,2.32,1.99.43,0,.98-.11,1.7-.69-1.38-1.01-2.1-1.78-3.04-2.83ZM222.41,320.8c0-.76-.29-1.59-1.23-1.59-.8,0-1.38.51-1.38,1.59,0,.65.33,1.45.87,2.21,1.2-.51,1.74-1.2,1.74-2.21Z"/>
    <path class="cls-4" d="M222.41,371.31c-2.39,4.85-5.36,8.4-10.25,10.61l-8.08-10.47c5.54-2.14,7.43-6.23,7.43-10.25h-5.65v-10.98h6.23v-2.86h12.28v2.86h14.6v20.18c0,9.74-3.99,11.19-14.38,11.23l-2.17-10.32ZM227.23,361.2h-2.9c0,3.37-.51,6.41-1.74,9.6,3.77,0,4.64-.58,4.64-1.96v-7.64Z"/>
    <path class="cls-4" d="M205.57,403.77c17.03-.04,19.31-2.21,19.31-7.14h-19.34v-12.24h33.11v10.18c0,18.22-6.12,23.22-31.95,23.26l-1.12-14.05Z"/>
    <path class="cls-4" d="M209.41,450.69v-9.89h9.09v-8.58h-7.57v-9.56h26.66v9.56h-7.57v8.58h9.06v9.89h-29.67Z"/>
  </g>
  <g>
    <path class="cls-3" d="M212.18,38.55c-1.34.02-2.64.35-3.88.82-1.07.41-2.53.79-3.15,1.84-.25.43-.34.92-.65,1.31s-.78.71-1.22.99c-1.15.73-2.32,1.42-3.48,2.12-.66.4-.62,1.6.23,1.75,2.02.38,4.14-.34,5.42-1.98.62-.8.84-1.95,1.61-2.62.71-.61,1.71-.81,2.59-1.02l-.93-1.6c-.76.61-1.57,1.16-2.41,1.66-1.06.64-.09,2.3.97,1.66.98-.59,1.91-1.25,2.8-1.96.8-.64-.08-1.81-.93-1.6-.92.22-1.88.47-2.7.96-.89.54-1.45,1.31-1.89,2.24-.39.83-.82,1.52-1.64,1.99-.72.41-1.57.59-2.39.44l.23,1.75c1.08-.66,2.16-1.31,3.24-1.97.91-.56,1.85-1.21,2.37-2.18.19-.35.26-.84.57-1.11.39-.33,1.07-.5,1.54-.69,1.18-.47,2.4-.86,3.68-.88s1.24-1.93,0-1.92h0Z"/>
    <path class="cls-1" d="M228.4,71.96c2.66,20.26-9.24,24.76-27.83,24.58-23.25-.22-33.95-8.16-27.83-24.58,4.74-12.72,12.46-24.58,27.83-24.58s26.07,11.12,27.83,24.58Z"/>
    <path class="cls-4" d="M201.59,50.98c-.28-1.9,2.85-3.62,4.11-4.52,1.73-1.24,3.52-2.42,5.4-3.41s3.86-1.78,5.95-2.21c1.52-.32,5.22-1.07,6.06.81.79,1.77-3.04,1.93-4,2.07-2.3.34-4.57.86-6.79,1.55s-4.18,1.55-6.24,2.43c-2.21.95-4.47,1.77-6.91,1.57-1.55-.13-1.54,2.29,0,2.42,4.67.39,8.85-2.46,13.13-3.87,2.28-.75,4.62-1.32,7-1.7,1.75-.27,3.78-.33,5.19-1.56,1.31-1.15,1.5-3.01.53-4.45-1.11-1.64-3.11-2.06-4.98-2.03-4.36.06-8.51,1.8-12.18,4.04-2.06,1.26-4.07,2.66-5.95,4.18-1.7,1.37-2.98,3.05-2.65,5.33.23,1.54,2.56.88,2.33-.64h0Z"/>
    <path class="cls-4" d="M200.1,48.04c-.72.15-1.16-1.08-.65-1.53.74-.65,1.75-1.11,2.58-1.63.89-.56,1.79-1.12,2.68-1.68,1.71-1.07,3.39-2.21,5.15-3.2.93-.53,3.15-1.37,3.43.33.25,1.53,2.59.88,2.33-.64-.42-2.55-3.46-3.24-5.56-2.46-1.4.52-2.64,1.42-3.9,2.21s-2.51,1.57-3.76,2.35-2.51,1.56-3.76,2.35c-1.04.66-1.89,1.49-1.9,2.8-.01,2.11,1.88,3.86,3.98,3.44,1.53-.31.88-2.64-.64-2.33h0Z"/>
    <path class="cls-4" d="M184.89,49.02c-3.19,1.19-6.09,3.53-7.63,6.61-.73,1.46-.76,3.87,1.33,4.13,1.16.14,1.99-.69,2.71-1.47s1.41-1.51,2.11-2.26c1.63-1.75,3.27-3.5,4.9-5.25.47-.5.45-1.21,0-1.71-1.24-1.41-3.28-.88-4.75-.23-1.57.7-2.93,1.8-4.2,2.94s-2.56,2.29-3.18,3.91c-.57,1.49-.32,3.41.93,4.48.5.42,1.22.49,1.71,0,.43-.43.5-1.29,0-1.71-.24-.21-.28-.24-.4-.49.05.11-.07-.22-.07-.22,0,0-.06-.36-.04-.22-.04-.48.02-.84.24-1.27.57-1.11,1.6-1.94,2.51-2.76s1.96-1.66,3.1-2.26c.52-.28,1.08-.52,1.66-.62-.17.03.24-.02.23-.02.04,0,.39.03.21,0,.03,0,.31.1.22.06.05.02.03.04.12.13v-1.71c-2.36,2.53-4.72,5.06-7.08,7.59-.15.16-.29.32-.45.47-.06.05-.24.16-.28.23-.07.13-.03-.03.16.04.13.05.18.14.24.26-.02-.04-.04-.23-.02,0,0-.06,0-.12,0-.18s0-.12.01-.18c0,.03-.03.16,0,.02.08-.36.08-.34.22-.59.63-1.18,1.47-2.22,2.46-3.12,1.06-.96,2.32-1.74,3.65-2.23.61-.23,1.03-.82.85-1.49-.16-.59-.87-1.08-1.49-.85h0Z"/>
    <path class="cls-4" d="M176.73,90.24c-1.2-.41-2.46-.25-3.69-.1-.81.1-2.17.42-2.8-.29.09.1-.1-.24-.13-.32-.1-.27-.17-.55-.24-.82-.15-.54-.28-1.09-.5-1.61-.57-1.35-1.75-2.47-2.84-3.41-.57-.49-1.5-.48-1.9.24-.84,1.51-.27,3.36.38,4.83s1.59,2.97,2.95,3.87c.7.47,1.53-.04,1.78-.72.46-1.25-.17-2.68-.9-3.69-.82-1.14-1.92-2.16-3.25-2.66s-2.74-.09-3.31,1.25c-.67,1.56-.15,3.32,1.16,4.36s3.31,1.61,5.04,1.4c1.21-.14,1.62-1.52.61-2.26-.92-.66-1.97-1.07-2.93-1.66-.3-.18-.56-.43-.74-.81s-.22-1.14-.2-1.69c.05-1.56-2.37-1.56-2.42,0s.31,3.16,1.59,4.19c1.06.85,2.38,1.27,3.47,2.06l.61-2.26c-.68.08-1.2.04-1.8-.09-.3-.07-.74-.2-.94-.29-.21-.1-.61-.32-.7-.39-.48-.37-.67-.68-.64-1.19,0-.14.03-.22.08-.39.07-.24-.1.12.06-.12.05-.08.03-.05-.06.07.1-.09.08-.08-.06.03.04-.03.09-.06.14-.08-.17.07-.19.08-.07.05-.19.02-.22.02-.08.01.06,0,.11,0,.17,0-.33-.06-.03,0,.04.02.05.02.44.16.18.05.13.06.26.13.39.2.13.08.26.16.39.25.19.14-.06-.06.14.11.26.21.5.45.73.7.37.4.65.78.9,1.38-.1-.24.14.67.1.3.01.13.02.25,0,.38.02-.32-.03.03-.06.11l1.78-.72c-.21-.14.08.08-.11-.08-.11-.1-.22-.2-.32-.31-.16-.17-.33-.37-.46-.54-.41-.54-.75-1.15-1.04-1.76-.25-.53-.44-1.1-.56-1.67-.03-.15-.05-.38-.05-.64,0-.24-.01.07.03-.21.01-.05.03-.11.05-.16-.05.12-.05.12.01,0l-1.9.24c.99.85,2.12,1.85,2.49,3.1.34,1.14.5,2.47,1.47,3.28,1.03.86,2.35.98,3.63.85,1.2-.12,2.5-.46,3.68-.06,1.48.5,2.11-1.83.64-2.33h0Z"/>
    <path class="cls-4" d="M182.13,59.94c.88.05,1.75.14,2.34.85.71.86,1.04,2.05,1.63,2.99,1.33,2.12,3.63,2.96,5.87,1.55.96-.6,1.45-1.57,2.01-2.51.69-1.17,1.63-1.24,2.9-1.09.94.11,2.15.25,2.93.85.65.49,1.12,1.22,1.57,1.87.98,1.42,1.98,3.05,3.68,3.68s3.89,0,5.09-1.36,1.11-2.98,1.61-4.56c.63-1.99,2.92.06,3.71.91,1.46,1.56,3.46,3.6,5.79,2.35,2.01-1.08,2.14-3.54,2.95-5.41.62-1.41-1.47-2.65-2.09-1.22-.37.84-.61,1.72-.9,2.59-.2.61-.5,1.73-1.21,1.96-.79.26-1.54-.6-2.02-1.09-.77-.79-1.47-1.65-2.37-2.31-1.43-1.04-3.83-1.55-5.25-.18-1.09,1.05-1.09,2.67-1.45,4.04s-1.79,2.72-3.31,1.9c-1.3-.71-2.04-2.43-2.91-3.56-1.27-1.66-2.73-2.38-4.78-2.72-2.35-.39-4.52-.27-5.9,1.89-.6.94-1.17,2.53-2.62,2.28-1.1-.18-1.68-1.92-2.1-2.76-1.15-2.26-2.62-3.21-5.17-3.35-1.56-.09-1.55,2.33,0,2.42h0Z"/>
    <path class="cls-4" d="M172.22,75.04s-.17-.15-.09-.06c.03.04.07.08.11.11.09.07-.09-.08-.08-.1,0,.01.05.07.05.09.09.27-.04-.21,0,0,0,.03.02.07.02.1.04.12-.03.18,0-.09-.01.14.02.3.01.44,0,.16-.01.32-.02.48-.02.84.18,1.72.87,2.27,1.38,1.09,3.26.78,4.73.05.7-.35,1.39-.87,1.77-1.56.31-.55.15-1.35-.43-1.66s-1.32-.15-1.66.43c-.02.04-.05.08-.08.13-.09.16.19-.21.06-.08-.09.09-.18.18-.27.27-.17.15.11-.08.05-.03-.05.04-.11.08-.16.11-.12.08-.25.16-.38.23-.06.03-.13.07-.19.1-.03.02-.07.03-.1.05-.11.06.13-.05.12-.05-.15.03-.3.11-.45.16-.14.04-.28.08-.42.11-.07.01-.14.02-.21.04-.13.03.15-.02.15-.02-.04,0-.1.01-.14.01-.14.01-.27.01-.41,0-.07,0-.13-.02-.2-.02,0,0,.27.06.16.02-.04-.01-.09-.02-.13-.03-.06-.01-.15-.06-.21-.06,0,0,.24.12.15.06-.03-.02-.06-.03-.08-.04-.05-.02-.11-.08-.16-.09,0,0,.2.18.12.1-.03-.03-.06-.06-.09-.09-.02-.02-.05-.06-.07-.07s.19.21.1.11c-.02-.02-.02-.07-.05-.08.01,0,.08.25.06.15,0-.05-.03-.13-.05-.18-.04-.11.02.16.02.16,0-.04,0-.09-.01-.13-.02-.28,0-.57.01-.85,0-.39-.02-.81-.15-1.19-.21-.59-.57-1-1.07-1.38s-1.37-.1-1.66.43c-.34.63-.11,1.25.43,1.66h0Z"/>
    <path class="cls-4" d="M188.66,77.79c.96-.21.8-.07.82.9s0,2.04.25,3.04c.46,1.81,1.76,2.73,3.56,2.93s3.85.23,5.74.32,4.04.2,5.62-.84c.79-.52,1.24-1.36,1.39-2.27.19-1.13-.21-2.26-.06-3.37.08-.59.31-.53.99-.64.95-.16,1.94-.15,2.9-.14,1.67.02,3.33.14,4.98.34.95.11,1.8,0,2.22,1.01s.69,1.9,1.84,2.19c1.86.48,4.75-.51,6.17-1.73.88-.76,1.28-1.83,1.47-2.95.14-.82.03-2.45.81-2.96,1.3-.85.08-2.95-1.22-2.09-1.92,1.26-1.51,3.34-2.11,5.26-.28.91-.98,1.25-1.82,1.58-.49.19-2.11.88-2.65.56-.02-.01-.25-.82-.36-1.07-.23-.52-.51-.88-.94-1.24-.89-.73-1.79-.81-2.89-.92-1.68-.17-3.35-.35-5.04-.39s-3.69-.14-5.23.59c-1.84.88-1.48,2.89-1.4,4.59.04.83.07,1.49-.75,1.83-.93.38-2.12.3-3.1.28-1.94-.04-3.91-.18-5.85-.29-.7-.04-1.41-.07-1.76-.73-.46-.86-.29-2.07-.31-3-.07-2.44-1.43-3.65-3.88-3.11-1.52.33-.88,2.67.64,2.33h0Z"/>
    <path class="cls-4" d="M153.1,91c-.43.45-.78.97-1.09,1.5-.44.75.11,1.89,1.05,1.82,2.76-.21,5.49-.61,8.26-.21l-.53-2.02c-.11.12-.21.25-.31.38-.06.07-.11.15-.17.22.07-.09.07-.09,0,0-.82.95-.02,2.23,1.18,2.02.11-.02.21-.05.32-.08.04-.01.3-.06.13-.05.65-.05,1.21-.52,1.21-1.21,0-.62-.55-1.26-1.21-1.21-.39.03-.72.15-1.09.22l1.18,2.02c.12-.14.23-.3.35-.44.05-.06.05-.06,0,0,.04-.06.09-.11.14-.16.55-.6.43-1.88-.53-2.02-1.55-.22-3.1-.32-4.67-.24-1.41.08-2.82.26-4.23.36l1.05,1.82c.21-.36.43-.71.71-1.01.45-.47.47-1.24,0-1.71s-1.26-.48-1.71,0h0Z"/>
    <path class="cls-4" d="M162.36,94.32c1.56,0,1.56-2.42,0-2.42s-1.56,2.42,0,2.42h0Z"/>
    <path class="cls-4" d="M183.38,74.9c-1.7,4.71-3.43,9.44-4.33,14.39-.18.99-.34,1.99-.43,3-.04.44-.06.88-.16,1.31-.04.15-.07.3-.13.43-.12.29.1.03-.03.1-.55.25-1.51.07-2.1.08-.76,0-1.58,0-2.3.25-1.07.36-1.23,2.05,0,2.33,1.62.38,3.27.33,4.92.12,1.13-.14,1.73-1.58.61-2.26-2.13-1.29-7.45-1.66-8.03,1.62-.15.85.34,1.42,1.17,1.53,2.15.29,4.37.33,6.34-.69,1.38-.72.16-2.81-1.22-2.09-1.55.8-3.45.58-5.11.36l1.17,1.53c.24-1.4,3.65-.67,4.47-.18l.61-2.26c-1.41.18-2.87.3-4.27-.03v2.33c1.47-.5,3.14.14,4.61-.4,1.92-.7,1.75-3.23,1.97-4.87.72-5.5,2.72-10.78,4.6-15.97.53-1.47-1.81-2.1-2.33-.64h0Z"/>
    <path class="cls-4" d="M227.39,79.76c.45,1.9.42,3.79.35,5.73-.04.92-.06,1.84-.02,2.76.05,1.02.26,2.01.39,3.03.06.47-.02.95.11,1.41.17.58.6.96,1.05,1.32.78.62,1.54.87,2.53.97.71.08,1.44.02,2.1.24l.38-2.82c-1.45.07-2.99.61-4.45.36l-.38,2.82c2-.07,4.01.09,6.01-.17l-1.44-1.44c-.02.15-.12.47-.13.49-.02.04-.07.06-.04.04.09-.06-.08.12.07-.05-.08.1-.15-.03.03,0-.08-.01-.17,0-.25,0,.22.03.05.01-.07-.02-.6-.19-1.13-.5-1.65-1.08-1.23-1.38-3.26.65-2.03,2.03.93,1.05,2.38,1.92,3.81,1.95,1.99.04,2.94-1.58,3.13-3.36.07-.71-.72-1.53-1.44-1.44-1.99.26-4.01.09-6.01.17-.71.03-1.32.53-1.41,1.24-.08.65.32,1.45,1.03,1.57,1.78.3,3.44-.17,5.21-.26,1.63-.08,1.93-2.29.38-2.82-.72-.24-1.5-.25-2.25-.3-.53-.03-.99-.05-1.31-.34-.08-.07-.16-.14-.24-.21-.16-.12-.12-.24.02.05.09.21.13.73.13.26.01-.75-.17-1.48-.29-2.22-.26-1.66-.15-3.36-.09-5.03.07-1.92-.04-3.81-.48-5.68s-3.19-1.04-2.77.76h0Z"/>
    <path class="cls-4" d="M144.97,80.04c-2.42-.01-4.81-.33-7.23-.18s-5.45.62-6.29,3.21c-.21.64.24,1.3.85,1.49,3.74,1.18,7.55-.21,11.34,0,1.35.07,2.84.23,4.15-.18,1.44-.45,2.44-2.18,1.18-3.44-1.09-1.09-2.94-.74-4.33-.73-1.56.01-1.56,2.44,0,2.42.59,0,1.19-.07,1.78-.05.31,0,.56.13.86.11-.01,0-.01.04-.02-.03-.01-.13-.18-.26-.14-.43.03-.08.07-.15.13-.21.12-.08.12-.08,0,0-.1-.03-.03.02-.16.06-.27.08-.44.1-.71.12-.74.06-1.49.03-2.23-.01-3.68-.19-7.6,1.19-11.2.05l.85,1.49c.06-.18.23-.41.42-.55.39-.27.62-.36,1.06-.49,1.09-.33,2.23-.41,3.36-.44,2.12-.05,4.23.2,6.35.22,1.56,0,1.56-2.41,0-2.42h0Z"/>
    <path class="cls-4" d="M131.58,83.14c-.61,2.4-.31,5.16.4,7.51.33,1.09.79,2.17,1.68,2.92s2.04,1.09,3.21,1.22,2.26.02,3.38-.05c1.04-.06,2.09-.08,3.13-.2,2.19-.25,4.79-.89,5.73-3.15.53-1.26.52-2.7.66-4.04.16-1.59.74-3.18,1.36-4.64.26-.61.18-1.29-.43-1.66-.51-.3-1.4-.17-1.66.43-.97,2.28-1.56,4.49-1.78,6.95-.07.79-.09,1.8-.63,2.45s-1.46.89-2.24,1.06c-1.77.39-3.69.37-5.5.45-1.71.07-3.63.09-4.35-1.75-.8-2.05-1.16-4.71-.62-6.86.38-1.51-1.95-2.16-2.33-.64h0Z"/>
    <path class="cls-4" d="M150.56,83.1c.13-.05.26-.11.4-.14.06-.02.13-.03.19-.05-.16.02-.18.02-.04,0,.07,0,.3-.04.36,0-.18-.03-.2-.03-.06,0,.06.01.11.03.17.04.05.02.11.04.16.06-.16-.07-.18-.07-.06-.01.09.06.19.12.28.18-.16-.11-.09-.07.01.03.08.08.16.17.23.26-.21-.25.03.06.06.12.06.1.11.21.17.32-.15-.28.02.06.04.13.04.12.07.23.1.35.03.14.04.24.02.04.01.12.02.24.03.37s0,.24-.01.36c-.01.13-.01.12,0-.03-.01.07-.02.14-.04.22-.05.26-.13.52-.22.77.11-.29-.02.02-.05.08-.05.09-.1.18-.15.26-.03.05-.06.09-.1.14.11-.13.12-.15.04-.05-.07.08-.14.16-.22.24s-.16.15-.24.22c-.1.08-.09.07.05-.04-.04.03-.09.06-.14.1-.8.55-1.72.89-2.6,1.29-.58.27-.76,1.14-.43,1.66.38.6,1.04.72,1.66.43,1.65-.76,3.51-1.45,4.33-3.23.88-1.9.72-4.43-.96-5.86-1.01-.86-2.38-1.11-3.62-.6-.58.24-1.06.81-.85,1.49.18.56.86,1.11,1.49.85h0Z"/>
    <path class="cls-4" d="M136.81,68.15c.24-.05-.15-.01.07-.01.08,0,.17,0,.26,0,.22-.03-.23-.05-.03,0,.24.05-.03-.02-.03-.02.19.1-.11-.1-.07-.06.16.14-.1-.13-.06-.08.13.2-.09-.23-.03-.06,0,.03.02.06.02.08.02.13,0-.28-.02-.14-.02.12,0,.27,0,.39-.01.24.03-.11,0-.04-.03.08-.03.17-.05.26-.07.32-.18.63-.3.94-.03.07-.06.15-.09.22s.1-.23,0,0c-.06.14-.13.29-.2.43-.11.22-.22.45-.33.67-.48.92-.98,1.87-1.03,2.92-.07,1.42.91,2.44,1.96,3.22.52.39,1.35.09,1.66-.43.36-.62.09-1.26-.43-1.66-.15-.11-.36-.31-.52-.48-.04-.04-.08-.08-.11-.13.01.02.1.14.03.03-.06-.1-.12-.19-.17-.3.12.27.02-.03,0-.1-.05-.11.01.08.01.1,0-.04,0-.09,0-.13,0-.1.06-.37,0-.08.03-.11.05-.22.08-.33.03-.1.06-.2.1-.29.02-.05.04-.1.06-.15-.08.2,0,.01.01-.02.11-.25.23-.49.36-.73s.26-.51.39-.76c.64-1.31,1.49-3.14.75-4.58-.57-1.1-1.83-1.2-2.91-1-.64.12-1.01.9-.85,1.49.19.68.84.97,1.49.85h0Z"/>
    <path class="cls-4" d="M143.08,68.28c.08.17.15.34.23.51.13.28-.03-.09.06.14.08.2.16.4.21.61.01.05.03.1.04.15.02.13.02.09-.01-.12,0,0,0,.18,0,.18.04.18.09-.32,0-.04-.06.2-.05-.04.05-.08,0,0-.23.36-.23.37.12-.15.14-.18.06-.08-.03.04-.07.08-.1.12-.05.07-.11.13-.17.19-.39.46-.78.92-1.14,1.4-.57.77-1.05,1.74-.51,2.66.1.17.23.33.36.48.04.04.07.09.11.13.07.09.27.23.02.02.12.1.22.32.29.45.06.1.11.21.16.32-.09-.23.07.23.08.27.2.62.84,1.02,1.49.85s1.04-.86.85-1.49c-.17-.53-.38-1.07-.71-1.53-.14-.21-.3-.4-.46-.6-.04-.04-.07-.09-.11-.13-.13-.15.18.28.04.05-.06-.1-.08-.23.05.13-.08-.25,0,.3.01.11,0,.34-.04.25,0,.12.04-.11.02-.08-.05.11.02-.05.05-.09.07-.13.29-.47.49-.72.84-1.14.52-.62,1.18-1.24,1.35-2.07.23-1.12-.36-2.21-.82-3.19-.28-.59-1.13-.74-1.66-.43-.61.36-.71,1.06-.43,1.66h0Z"/>
  </g>
  <path class="cls-2" d="M95.68,153.06c-11.79-.21-26.4,6.12-31.85,17.96-4.34,9.45-5.87,22.68,5.17,33.69,7.72,7.7,22.76,10.86,32.9,7.77,5.96-1.81,11.02-4.04,15.35-8.11,4.86-4.56,6.97-14.47,6.8-20.66-.23-8.39-2.37-15.48-7.09-21.05-3.72-4.38-13.91-9.47-21.29-9.6Z"/>
  <path class="cls-4" d="M78.09,160.15c-5.36-1.23-10.59-3.46-16.14-3.67-3.27-.12-7.04.86-9.81,2.61-1.11.7-2.27,1.78-2,3.22.23,1.24,1.31,2.02,2.46,2.31,3.12.8,6.82-.4,9.81-1.24,1.35-.38,2.69-.87,4.06-1.13,3.47-.67,7.05.37,10.54.37,1.29,0,1.29-2,0-2-4.22,0-8.31-1.13-12.47.06-2.79.8-5.6,1.72-8.5,2.05-1.02.12-2.54.33-3.48-.24s-.09-1.25.57-1.68c2.3-1.47,5.49-2.36,8.22-2.35,5.55.03,10.85,2.38,16.19,3.61,1.25.29,1.79-1.64.53-1.93h0Z"/>
  <path class="cls-4" d="M79.06,161.2c.61-2.71,2.02-7.06-1.33-8.54-1.83-.81-3.98-.89-5.94-1.09s-4.09-.61-5.92.07c-2.2.82-2.95,3.18-3.44,5.27-.3,1.25,1.63,1.79,1.93.53.33-1.39.76-3.23,1.99-3.84,1.17-.58,3.18-.25,4.61-.11,1.79.17,3.68.27,5.41.79.31.09.44.14.61.23.1.05.21.11.31.17.21.13,0-.01.15.12.05.05.26.31.12.11.06.08.11.17.16.26.07.13-.02-.13.05.13.03.12.07.24.09.37-.01-.08.01.08.02.24,0,.17,0,.35,0,.52-.01.35-.05.7-.1,1.03-.16,1.08-.41,2.15-.64,3.22-.28,1.25,1.65,1.79,1.93.53h0Z"/>
  <path class="cls-4" d="M117.53,204.18c.85.14,1.7.2,2.55.28.16.01.32.03.49.05.23.02-.22-.05,0,0,.08.02.17.03.25.04.14.03.26.07.4.11.16.04.07.04-.03-.02.06.03.13.06.19.1.03.02.22.16.07.04s.03.04.06.06c.17.12,0-.03,0-.02.03.06.07.11.1.17.14.22-.01-.12.02.04.02.06.04.13.06.19.03.09.04.19.06.28.05.25-.01-.22,0,.05.08,1.18-.14,2.34-.38,3.48-.14.66.47,1.54,1.23,1.23,1.22-.5,2.41-1.05,3.7-1.36l-1.13-1.47c-.6.88-1.53,1.46-2.48,1.9l1.47,1.13c.29-1.61,2.08-2.42,3.59-2.69l-1.23-.7c.06.37-.11.61-.43.82-.44.29-1.02.44-1.52.49-.54.06-1,.42-1,1,0,.5.46,1.06,1,1,1.05-.11,2.09-.38,2.93-1.06s1.14-1.72.96-2.79c-.1-.57-.74-.79-1.23-.7-2.14.38-4.57,1.78-4.99,4.09-.16.89.65,1.51,1.47,1.13,1.28-.59,2.39-1.45,3.19-2.62.52-.76-.34-1.66-1.13-1.47-1.28.31-2.48.86-3.7,1.36l1.23,1.23c.41-1.92,1.2-5.05-.74-6.44-.62-.44-1.38-.56-2.12-.64-.4-.04-.79-.07-1.19-.1-.22-.02-.44-.04-.66-.06-.04,0-.41-.05-.17-.02-.12-.02-.24-.04-.35-.06-.53-.09-1.08.14-1.23.7-.13.48.16,1.14.7,1.23h0Z"/>
  <path class="cls-4" d="M93.08,181.65c-1.76,4.51-5.39,9-3.5,14.09.21.56.65.78,1.23.7.51-.07.99-.07,1.45.1.08.03.11.04.23.16-.01-.01.13.22.09.11.19.46.04.95-.31,1.47-.11.17-.21.26-.48.42.12-.07-.14,0-.03,0-.02,0,0,.02-.04-.02.03.04-.17-.18-.15-.15-.12-.17-.21-.35-.29-.54-.31-.76-.42-1.61-.49-2.42l-.5.86c.62-.27,3.48-.96,3.27.43l1.23-.7c-.66-.2-1.33-.1-1.91-.5-.42-.28-1.15-.11-1.37.36-.36.79-.68,1.52-.76,2.4-.1,1.13,1.7,1.35,1.96.27.1-.39.16-.79.29-1.17l-1.47.6c.06.03-.05-.43.03.08.03.21.05.41.12.61.43,1.2,2.36.69,1.93-.53-.11-.3-.04-.62-.14-.93-.16-.45-.51-.75-.93-.96-.6-.29-1.25-.05-1.47.6-.13.39-.19.78-.29,1.17l1.96.27c.05-.49.29-.94.49-1.39l-1.37.36c.78.52,1.54.44,2.39.7.47.14,1.15-.17,1.23-.7.55-3.71-3.78-3.76-6.21-2.69-.29.13-.52.55-.5.86.18,1.87,1.11,6.46,4.06,4.85,1.56-.85,2.38-3.24,1.37-4.77-.86-1.3-2.53-1.33-3.92-1.14l1.23.7c-1.7-4.58,1.91-8.95,3.5-13.03.47-1.2-1.47-1.72-1.93-.53h0Z"/>
  <path class="cls-4" d="M91.97,196.95l-.09.42,1.93.53.09-.42c.28-1.25-1.65-1.79-1.93-.53l-.09.42c-.28,1.25,1.65,1.79,1.93.53l.09-.42c.28-1.25-1.65-1.79-1.93-.53h0Z"/>
  <path class="cls-4" d="M95.88,208.59c2.71,1.29,1.12,5.87.42,7.93-.98,2.87-2.31,5.86-4.13,8.31-.48.64.18,1.49.86,1.5.86.02,1.56-.34,2.09-1s.81-1.49,1.49-1.97l-1.5-.86c.21,1.61-.21,3.11-1.93,3.56-1.24.33-.72,2.26.53,1.93,2.53-.67,3.72-2.99,3.4-5.49-.09-.67-.81-1.36-1.5-.86-.63.45-1.09.98-1.51,1.64-.27.43-.49,1.08-1.06,1.06l.86,1.5c2.08-2.8,3.58-6.3,4.6-9.61.89-2.9,1.85-7.72-1.61-9.36-1.16-.55-2.17,1.17-1.01,1.73h0Z"/>
  <path class="cls-4" d="M106.78,157.69c-1.48-.83-3.28-1.15-4.93-1.39-2.25-.33-4.56-.49-6.83-.25-1.8.19-3.87.57-5.21,1.89s-1.59,3.45-.64,5.14c1.04,1.85,3.01,3.16,4.81,4.2,1.58.91,3.24,1.65,4.93,2.33,3.22,1.3,8.67,3.57,11.65.63,1.93-1.91,1.71-5.29.74-7.59-1.23-2.92-3.82-5.02-6.8-5.98-1.23-.39-1.75,1.54-.53,1.93,2.23.71,4.17,2.22,5.26,4.31.83,1.6,1.33,4.27.04,5.79-.97,1.13-2.81.99-4.13.77-1.77-.3-3.48-.91-5.15-1.56-2.93-1.15-6.16-2.5-8.35-4.83-.92-.98-1.57-2.35-.58-3.54.89-1.06,2.67-1.33,3.95-1.47,2.08-.23,4.23-.12,6.29.18,1.47.22,3.14.45,4.46,1.19,1.12.63,2.13-1.1,1.01-1.73h0Z"/>
  <path class="cls-4" d="M98.66,157.45c.3,4.2,2.92,7.59,4.64,11.29.23.49.93.61,1.37.36.5-.29.59-.88.36-1.37-1.54-3.32-4.09-6.51-4.36-10.28-.04-.54-.43-1-1-1-.51,0-1.04.46-1,1h0Z"/>
  <path class="cls-4" d="M94.15,165.71c4.42-1.86,8.81-4.28,13.74-4.12,1.29.04,1.29-1.96,0-2-5.15-.16-9.67,2.25-14.28,4.2-.5.21-.85.66-.7,1.23.12.47.73.91,1.23.7h0Z"/>
  <path class="cls-4" d="M95.38,153.55c2.94-.62,6.22-.1,9.09.6,2.66.66,6.17,1.68,7.86,4.03.74,1.04,2.48.04,1.73-1.01-2-2.78-5.64-4.08-8.83-4.89s-7.01-1.38-10.39-.66c-1.26.27-.73,2.2.53,1.93h0Z"/>
  <path class="cls-4" d="M120.47,168.35c3.03-1.24,5.78-3.21,7.22-6.23.23-.49.14-1.08-.36-1.37-.44-.25-1.14-.13-1.37.36-.16.34-.33.66-.53.98-.1.16-.2.31-.3.46-.05.07-.09.13-.14.2,0,0-.19.24-.08.11-.45.56-.95,1.07-1.5,1.53-.06.05-.13.1-.19.15-.04.03-.17.14-.07.05-.16.12-.31.23-.48.34-.3.2-.6.4-.92.58s-.61.34-.92.49c-.16.08-.33.16-.5.23-.09.04-.18.08-.28.12.15-.07-.12.05-.13.05-.5.2-.85.67-.7,1.23.13.47.73.9,1.23.7h0Z"/>
  <path class="cls-4" d="M128.13,160.32c-.17-.81-.46-1.6-.62-2.42,0-.04-.05-.3-.04-.21s-.02-.17-.02-.21c-.01-.19,0-.38,0-.57,0-.07,0-.06,0,.03,0-.05.02-.09.03-.14.02-.09.05-.18.07-.27.02-.07.02-.06-.01.02.02-.04.04-.09.06-.13.05-.1.12-.2.18-.29h-1.73c.27.42.38.69.46,1.25-.03-.19.01.19.02.23,0,.13.01.27.01.4,0,.26-.01.51-.03.76-.08,1.05-.26,2.09-.18,3.15.04.52.43,1.03,1,1,.51-.02,1.04-.44,1-1-.09-1.12.13-2.24.19-3.36.07-1.2-.09-2.42-.75-3.45-.43-.67-1.29-.62-1.73,0-1.25,1.75-.24,3.86.15,5.71.11.51.74.86,1.23.7.54-.17.82-.68.7-1.23h0Z"/>
  <path class="cls-4" d="M62.36,178.96c1.09,1.11,2.12,2.37,3.61,2.95,1.4.55,3.09.52,4.5.03,2.89-1.01,4.34-3.77,6.51-5.71s5.38-2.37,8.19-3.21c3-.89,5.42-2.51,6.94-5.3.62-1.13-1.11-2.14-1.73-1.01-1.43,2.62-3.67,3.83-6.47,4.59-2.46.66-5.04,1.12-7.18,2.59s-3.4,3.85-5.47,5.38c-1.18.88-2.74,1.28-4.19.91s-2.35-1.64-3.32-2.63c-.9-.92-2.31.49-1.41,1.41h0Z"/>
  <path class="cls-4" d="M72.71,207.65c1.57,1.41,3.54,1.74,5.47.89,1.72-.76,3.15-2.28,4.04-3.92.75-1.38,1.02-2.94,1.56-4.4.44-1.2,1.13-2.41,2.54-2.47,1.28-.06,1.29-2.06,0-2-3.59.16-4.38,3.72-5.28,6.53-.82,2.54-4.12,6.46-6.92,3.95-.96-.86-2.37.55-1.41,1.41h0Z"/>
  <path class="cls-4" d="M96.35,193.51c5.37-.02,10.48-1.26,13.94-5.64.86-1.09,1.6-2.26,2.25-3.48s1.14-2.62,1.82-3.88,1.75-2.14,2.73-3.1c1.17-1.15,2.02-2.4,2.48-3.99.36-1.24-1.57-1.77-1.93-.53-.81,2.77-3.53,4.03-4.92,6.44-.64,1.11-1.05,2.36-1.63,3.51s-1.26,2.34-2.06,3.41c-3.09,4.16-7.73,5.25-12.68,5.27-1.29,0-1.29,2.01,0,2h0Z"/>
  <path class="cls-4" d="M122.95,443.46c-3.53-.02-7.05-.31-10.58-.56-2.9-.21-5.81-.22-8.7-.42-4.84-.34-9.54-1.13-14.4-.67-6.55.62-13.01,1.9-19.53,2.7-4.9.61-9.8,1.09-14.68,1.88-3.12.51-6.32.35-9.43.97-2.23.45-5.28.77-6.93,2.5-.89.93.52,2.35,1.41,1.41.73-.76,1.84-1.01,2.83-1.25,1.12-.27,2.26-.55,3.39-.77,2.74-.52,5.56-.41,8.31-.79,4.92-.67,9.83-1.31,14.75-1.91,6.15-.75,12.24-1.94,18.41-2.6,2.54-.27,5-.45,7.54-.26,2.38.18,4.76.47,7.14.68,2.97.26,5.95.24,8.92.44,3.84.26,7.68.6,11.54.63,1.29,0,1.29-1.99,0-2h0Z"/>
  <path class="cls-4" d="M43.02,453.61c13.06,0,26.11.72,39.15,1.43,3.22.18,6.44.35,9.66.51s6.37.45,9.54.27c5.7-.33,11.03-2.09,16.54-3.41,2.03-.49,4.09-.94,6.05-1.68,1.59-.61,3.36-1.38,4.02-3.06.47-1.2-1.46-1.72-1.93-.53s-2.82,1.76-3.88,2.1c-1.65.52-3.34.89-5.02,1.3-5.41,1.31-10.65,3.07-16.26,3.31-3.09.14-6.22-.15-9.31-.31s-5.94-.31-8.92-.47c-6.27-.34-12.54-.69-18.82-.96-6.94-.3-13.88-.5-20.83-.5-1.29,0-1.29,2,0,2h0Z"/>
  <path class="cls-4" d="M122.5,445.91c1.73,0,3.66-.23,5.27,0-.07-.01.15.03.2.03.1.02.21.04.31.06.18.04.35.1.52.16.14.05-.15-.08-.03,0,.03.02.07.03.1.05.06.04.13.08.19.12-.14-.09,0,0,.06.06.04.04.23.28.12.12.11.15.2.32.28.49.05.1,0-.02-.01-.03.02.04.03.09.05.13.04.12.08.24.11.36.02.09.04.19.06.28,0,.05.05.28.04.2,0-.06.02.2.03.26,0,.12.02.23.02.35,0,.25,0,.51,0,.76,0,.13-.02.27-.03.4,0,.06-.04.32-.03.26,0-.05-.04.23-.05.29-.02.11-.04.21-.06.32-.05.22-.11.44-.17.66-.38,1.23,1.55,1.76,1.93.53.57-1.84.72-4.23-.23-5.97-1.06-1.92-3.48-1.97-5.41-1.96-1.08,0-2.16.1-3.24.1-1.29,0-1.29,2,0,2h0Z"/>
  <path class="cls-4" d="M37.5,451.48c-.02,1.66-.3,3.44.41,5s2.15,2.6,3.58,3.29c1.56.75,3.18,1.02,4.89,1.12,2.12.12,4.24.26,6.36.4,4.31.29,8.63.6,12.95.77s8.52-.07,12.75.35c2.32.23,4.63.58,6.95.86s4.5.43,6.73.87c2.03.4,4.06.86,6.12.99s4.04-.49,6.08-1.05,3.99-.97,5.96-1.65c1.76-.61,3.51-1.21,5.33-1.6s3.45-.78,5.16-1.25c2.57-.7,5.2-1.48,7.58-2.72,1.39-.73,3.58-2.17,2.81-4.06-.48-1.18-2.41-.66-1.93.53.13.32.03.46-.39.84-.62.56-1.43.94-2.18,1.29-2.01.93-4.16,1.56-6.29,2.15-1.66.46-3.34.86-5.03,1.23-3.14.68-6.07,2.01-9.18,2.77-1.92.47-3.87,1.16-5.81,1.47s-4.03-.14-5.94-.52c-3.95-.78-7.9-1.14-11.89-1.66-7.86-1.03-15.8-.71-23.71-1.21-4.35-.27-8.71-.52-13.06-.83-1.8-.13-3.64-.73-5-1.95-1.67-1.48-1.27-3.42-1.24-5.43.02-1.29-1.98-1.29-2,0h0Z"/>
  <path class="cls-4" d="M101.85,456.85c-.96.33-2.15.92-2.1,2.12.02.41.17.79.36,1.15.07.13.14.25.21.38.03.06.06.12.1.18.01.03.03.06.04.09,0,.02.02.04.03.06.05.09-.1-.25-.06-.15.03.08.06.16.08.24,0,.03.02.07.02.11,0,.02,0,.04.01.06,0,0-.02-.29-.02-.17,0,.07-.02.18,0,.25,0,0,.05-.25.02-.19,0,.02,0,.04-.01.06-.01.05-.03.1-.05.15-.18.49.2,1.12.7,1.23.57.13,1.04-.17,1.23-.7.29-.77,0-1.57-.37-2.25-.06-.12-.13-.23-.19-.35-.03-.06-.06-.11-.09-.17-.02-.04-.07-.16.01.03s.03.06.01.02c-.02-.05-.03-.11-.04-.16-.04-.13.01.22.02.17,0-.03,0-.07,0-.1,0-.13-.04.22-.02.17,0-.02.01-.05.02-.07.02-.12-.09.17-.06.14.02-.02.05-.07.05-.09,0-.02-.19.21-.07.1.03-.03.06-.05.08-.08.12-.12-.19.13-.07.05.05-.03.09-.06.14-.09.1-.06.2-.11.3-.16.06-.03.16-.05-.09.03.04-.01.07-.03.11-.04.08-.03.16-.06.24-.09.49-.17.87-.69.7-1.23-.16-.49-.7-.88-1.23-.7h0Z"/>
  <path class="cls-4" d="M34.52,456.23c-.2-1.76-.39-3.52-.74-5.25-.18-.9-.4-1.81-.75-2.66s-.77-1.54-1.62-1.88c-.51-.2-1.09.23-1.23.7-.3,1.05-.36,2.19-.56,3.26-.13.74-.28,1.47-.48,2.19-.09.32-.19.63-.3.94-.04.11-.07.16,0,.01-.03.06-.05.12-.08.18-.06.12-.13.24-.2.36-.11.19.08-.06,0,0-.04.03-.09.08-.11.12-.1.15.15-.1.05-.04-.18.11.19-.06.06-.02-.18.06.13-.01.1,0-.19,0,.23.04.09.01-.21-.05.17.08.03.01-.2-.1.09.09-.01,0-.67-.56-1.66-.2-1.71.71,0,.12-.02.37-.1.38-.04.06-.03.05.02-.03.1-.07.1-.07,0-.01l.09-.04c-.11.03-.1.03.03.02-.03.01-.3-.02-.09.02-.1-.01-.19-.04-.28-.08.14.05-.12-.07-.15-.08-.12-.07-.19-.12-.29-.2-.41-.35-1.01-.4-1.41,0-.36.36-.41,1.06,0,1.41.73.62,1.66,1.11,2.65.86,1.04-.26,1.47-1.28,1.52-2.25l-1.71.71c.64.53,1.42.75,2.17.3.65-.39.98-1.15,1.25-1.82.57-1.47.79-3.09,1.03-4.64.09-.58.14-1.18.31-1.74l-1.23.7c-.31-.12-.12-.04-.04,0-.38-.24-.05-.02-.05-.03.07.03.18.28.02.01.03.05.07.1.1.16.09.14.15.29.23.43.12.22-.07-.2.02.05.04.1.08.21.12.31.29.81.47,1.66.64,2.51.09.45.16.91.23,1.36.08.53.11.73.16,1.11.08.65.15,1.3.22,1.95.06.54.42,1,1,1,.49,0,1.06-.46,1-1h0Z"/>
  <path class="cls-4" d="M130.22,461.21c-.02-.48-.06-.97-.04-1.46,0-.04.03-.3,0-.13.02-.13.05-.26.08-.38.01-.04.12-.28.04-.13.06-.12.13-.24.21-.35l-1.37.36c.12.05.22.13.33.18.09.05-.1-.11.02.02.04.04.08.08.12.12,0,0,.16.19.08.09s.07.1.07.1c.07.11.13.22.19.33.25.46.44.96.69,1.42s.93.63,1.37.36c.24-.15.46-.3.7-.45.12-.08.25-.16.38-.23.06-.04.13-.07.19-.1.03-.01.27-.15.13-.07-.13.08.06-.02.09-.03.06-.02.12-.02.18-.05.09-.04-.26.02-.04.01s-.15-.03-.06,0c.07.02.04,0-.12-.05.07.04.06.03-.01-.02-.15-.09.06.12-.02-.01-.11-.2.09.2,0,.03-.06-.13.05.18.06.21.1.38.45.67.83.72.35.05.84-.12,1-.48.21-.48.38-.98.56-1.47s.27-.75.53-1.2.12-1.12-.36-1.37-1.09-.12-1.37.36-.47.96-.66,1.46c-.08.21-.15.42-.22.63-.04.1-.07.21-.11.31-.01.04-.14.37-.1.26l1.83.24c-.14-.55-.41-1.07-.91-1.37-.44-.26-.95-.28-1.43-.17-.77.18-1.42.71-2.08,1.13l1.37.36c-.58-1.11-.98-2.42-2.21-2.98-.52-.24-1.03-.12-1.37.36-.72,1.02-.62,2.26-.57,3.45.02.52.45,1.02,1,1,.52-.02,1.02-.44,1-1h0Z"/>
</svg>