<?xml version="1.0" encoding="UTF-8"?>
<svg id="_レイヤー_1" data-name="レイヤー 1" xmlns="http://www.w3.org/2000/svg" viewBox="0 0 286.41 341.69">
  <defs>
    <style>
      .cls-1 {
        stroke: #040000;
        stroke-miterlimit: 10;
        stroke-width: .21px;
      }
    </style>
  </defs>
  <path class="cls-1" d="M177.4,199.09v-2.9h5.87v2.82h8.94v2.99h5.91v2.99h2.96v5.91h-2.87v2.99c-2.02,0-3.89,0-5.91,0v2.99h-2.99c0,1.03,0,1.91,0,2.94h-5.96v2.95h-14.83v-2.88h-8.94v-2.88c-10.92,0-21.74,0-32.71,0v2.83h-8.88v2.92h-14.88v-2.84h-5.96v-2.99h-2.94v-2.99h-5.96v-2.94h-2.92v-5.96h2.84v-2.94h5.91v-2.99h8.94v-2.9h5.98v2.88l.04-.04h-2.97c0,1.15,0,2.08,0,3.01h-2.98v2.98h-2.89v5.9h2.89v2.98h2.98v2.89c3.05,0,5.93,0,8.87,0,0-1.03,0-1.96,0-2.89h2.98v-2.98h2.97v-2.97c1.96,0,3.92,0,5.94,0,0-1.1,0-2.04,0-2.97h2.98v-2.98h3.06v-3h2.93v-2.82h14.91v2.93h2.93v2.89h2.96v2.98h2.98v2.97h5.94v2.97h2.97v2.98h2.98v2.89c3.05,0,5.93,0,8.87,0,0-1.03,0-1.96,0-2.89h2.98v-2.98h2.89v-5.9h-2.89v-2.98h-2.98c0-.97,0-1.94,0-3.01h-2.97l.04.04Z"/>
  <path class="cls-1" d="M79.31,160.4h-2.94v-5.89h-3v-8.97l-.04.04h3.06v-6.02h2.94v-2.8h2.99v2.9h2.99v2.85h2.94v-2.97h2.99v-2.79h2.94v2.88h2.99v2.89h5.91v-2.95h2.99c0-1.03,0-1.91,0-2.83h2.99v2.92h2.94v2.83h5.97v-2.89h2.99v-2.87h2.94v2.96h2.99v2.82h5.97c0-1,0-1.92,0-2.93h2.94v-2.81h2.99v2.89h2.99v2.86h5.91v-2.96h2.99v-2.8h2.99v2.93h2.94v2.79h5.96v-2.9h2.99v-2.84h2.94v2.92h2.94v2.84h5.97v-2.88h2.99v-2.88h2.94v2.96h2.99v2.83h2.99v-2.92h2.94c0-1.01,0-1.93,0-2.82h2.99v2.89h2.99v2.87h2.94v-2.96h2.99v-2.82h2.99v2.93h2.94v5.92h2.96l-.04-.04v8.86h-2.9v6c-1.11,0-2.08,0-3.04,0l.04.04c-.01-2.99-.03-5.97-.04-8.96.97,0,1.93,0,2.89,0v-2.93h-2.89v-5.86h-2.93v5.86h-3.06c0,1.08,0,1.99,0,2.87h-2.93v-2.87c-1.09,0-2.02,0-2.96,0,0-.97,0-1.93,0-2.9h-2.85v2.86h2.89v2.9h-8.99v-2.86c-1.08,0-2.01,0-2.94,0v-2.89h-2.93c0,1.03,0,1.96,0,2.89h-3.07v2.87h-5.91v-2.87c-1.09,0-2.02,0-2.96,0v-2.89h-2.93v2.89h-3.07c0,1.08,0,1.99,0,2.87h-5.91v-2.87c-1.09,0-2.02,0-2.96,0v-2.89h-2.93v2.89h-3.07v2.87h-5.91v-2.87c-1.09,0-2.02,0-2.96,0v-2.89h-2.93v2.89h-3.07v2.87h-5.91v-2.87c-1.09,0-2.02,0-2.96,0,0-.97,0-1.93,0-2.89h-2.93v2.89h-3.07v2.87h-5.91v-2.87c-1.09,0-2.02,0-2.96,0,0-.97,0-1.93,0-2.89h-2.93v2.89h-3.07c0,1.08,0,1.99,0,2.87h-5.91v-2.87c-1.09,0-2.02,0-2.96,0,0-.97,0-1.93,0-2.89h-2.93v2.89h-3.06v2.87h-2.94v-2.87c-1.09,0-2.02,0-2.96,0,0-1.96,0-3.91,0-5.86h-2.93c0,2.02,0,3.94,0,5.86h-2.89v2.93h2.89c-.01,2.99-.03,5.97-.04,8.96l.04-.04Z"/>
  <path class="cls-1" d="M94.17,175.26h-5.93v-2.9h-2.94v-2.99h-2.99v-2.94h-3c0-2.12,0-4.08,0-6.04,0,0-.04.04-.04.04h3.06v2.87h2.94v-2.96h2.99v-2.81h2.99v2.93h2.94v2.81h5.96v-2.89h2.99v-2.87h2.94v2.96h2.99c0,1.03,0,1.91,0,2.82h5.96v-2.92h2.94v-2.82h2.99v2.89h2.99v2.88h5.91v-2.95h2.99v-2.83h2.99v2.92h2.94v2.83h5.96v-2.88h2.99v-2.89h2.94v2.95h2.99v2.84h5.96v-2.97h2.99c0-1.03,0-1.91,0-2.79h2.99v2.93h2.94v2.79h5.96v-2.9h2.99v-2.85h2.94v2.97h2.99v2.8h5.96c0-1.01,0-1.92,0-2.93h2.94v-2.8h2.99v2.89h2.99v2.86h5.91c0-.99,0-1.9,0-2.87h2.96l-.04-.04c0,1.92,0,3.84,0,5.92h-2.93v2.98h-2.93c0,1.01,0,1.91,0,2.99h-3.06l.04.04v-3.01h-3.01l.04.04v-2.89h-3.01v2.89l.04-.04h-3.07v2.91h-5.91v-2.87c-1.09,0-2.03,0-2.96,0v-2.89h-2.93v2.89h-3.07v2.87h-5.91c0-.99,0-1.9,0-2.87-1.09,0-2.02,0-2.96,0v-2.89h-2.93v2.89h-3.07c0,1.08,0,1.99,0,2.87h-5.91v-2.87c-1.09,0-2.02,0-2.96,0v-2.89h-2.93v2.89h-3.07v2.87h-5.91v-2.87c-1.09,0-2.02,0-2.96,0v-2.89h-2.93v2.89h-3.07v2.87h-5.91v-2.87c-1.09,0-2.02,0-2.96,0,0-.97,0-1.93,0-2.89h-2.93v2.89h-3.07v2.87h-5.91v-2.87c-1.09,0-2.02,0-2.96,0,0-.97,0-1.93,0-2.89h-2.93v2.89h-3.07v3.03c-2.09,0-4.01,0-5.94,0,0-1,0-2,0-3.04h-2.93v-2.89h-2.84v2.85c1.03,0,1.96,0,2.89,0,0,.97,0,1.93,0,3.03h2.93c0,.99,0,1.97,0,2.96l.04-.04Z"/>
  <path class="cls-1" d="M248.74,240.79v2.83h2.83v11.91h-2.79v2.94h2.81v5.93h-5.8v-2.88h-2.99v-2.94h-2.99v-2.95h-5.91v8.76h-5.92v-23.58h20.77ZM245.68,246.7h-11.74v2.8h11.74v-2.8Z"/>
  <path class="cls-1" d="M94.26,240.76c6.92,0,13.74,0,20.66,0v2.85h2.92v11.91h-2.77v2.99h2.79v5.86h-5.85v-2.83h-2.94v-2.99h-2.99v-2.89h-5.97v8.74h-5.86v-23.64ZM100.16,249.5h11.7v-2.8h-11.7v2.8Z"/>
  <path class="cls-1" d="M201.22,264.36v-23.6h23.6v5.85c-5.85,0-11.72,0-17.65,0v2.94h11.72v5.96h-11.69v2.99h17.65v5.86h-23.63Z"/>
  <path class="cls-1" d="M123.84,240.74h17.85c0,.96,0,1.87,0,2.88h2.88v17.85h-2.83v2.88h-17.85v-2.83h-2.88v-17.85h2.83v-2.93ZM126.95,246.69v11.71h11.7v-11.71h-11.7Z"/>
  <path class="cls-1" d="M79.24,240.76h5.92v23.6h-5.86v-2.83h-2.94v-2.99h-2.99v-2.94h-2.99v-2.95h-2.94v11.73h-5.92v-23.58h5.86v2.83h2.94v2.99h2.99v2.94h2.99v2.95h2.94v-11.75Z"/>
  <path class="cls-1" d="M180.42,317.88v-17.64h5.81v2.74h2.99v-2.76h5.96v2.78h2.94v-2.75h5.96v2.8h5.87v14.82c-1.87,0-3.77,0-5.78,0v-11.68h-2.99v2.81h-2.94v8.87h-5.96v-11.68h-2.99v2.82h-2.94v8.87h-5.93Z"/>
  <path class="cls-1" d="M147.72,261.55v-17.86h2.85v-2.9h17.85v2.81h2.89v5.9h-5.79v-2.77h-11.84v11.71h11.74v-2.81h5.93v5.81h-2.84v2.9c-5.97,0-11.83,0-17.85,0,0-.87,0-1.78,0-2.79h-2.95Z"/>
  <path class="cls-1" d="M180.28,249.54h11.91v-8.74h5.9v23.59h-5.78v-8.74h-11.91v8.71h-5.9v-23.59h5.78v8.77Z"/>
  <path class="cls-1" d="M213.15,294.26h5.8v5.82h11.9v2.98h2.89v11.9h-2.81v2.89c-5.96,0-11.82,0-17.78,0v-23.6ZM219.06,306.14v5.8h8.75v-5.8h-8.75Z"/>
  <path class="cls-1" d="M213.02,103.97h2.93v8.84h3.01v3.05l.04-.04h-2.89v5.99h2.89l-.04-.04v5.99l.04-.04h-2.94v17.84c-1.11,0-2.08,0-3.04,0l.04.04v-17.9h-3.06v-5.83h-2.93c0,1.97,0,3.87,0,5.92h-3.03v2.84h-2.93c0-.99,0-1.9,0-2.87-1.09,0-2.02,0-2.95,0v-2.89h-2.93v2.89h-3.04v2.85h-5.92v-2.89h2.97v-2.97c.97,0,1.94,0,2.98,0v-2.98h2.97v-2.97c1.96,0,3.92,0,6.03,0v2.92h2.93v-2.95h3.03v-2.85h2.93v2.78h2.96v-14.77l-.04.04Z"/>
  <path class="cls-1" d="M76.21,317.91c-5.93,0-11.75,0-17.68,0v-2.84h-2.93v-11.9h2.8v-2.99h11.9c0-2.02,0-3.88,0-5.86,2,0,3.9,0,5.9,0v23.59ZM61.57,306.14v5.82c2.96,0,5.81,0,8.72,0v-5.82h-8.72Z"/>
  <path class="cls-1" d="M73.37,145.54h-2.94v-17.84h-3.04l.04.04v-5.99l-.04.04h2.89v-5.99h-2.89l.04.04v-2.94h2.91v-8.95h3.03l-.04-.04v14.79h3.07v-2.8h2.93v2.95h2.98v2.83h2.98c0-.99,0-1.9,0-2.91,2.08,0,4,0,5.92,0v2.97c1.11,0,2.04,0,2.97,0v2.97c1.1,0,2.04,0,2.97,0v2.98h2.98c0,.96,0,1.93,0,2.9h-6.02v-2.86c-1.08,0-2.01,0-2.94,0,0-.97,0-1.93,0-2.89h-2.93v2.89h-3.06v2.87h-2.93v-2.95h-3.03v-5.81h-2.93c0,1.98,0,3.88,0,5.93h-2.96v17.79l.04-.04Z"/>
  <path class="cls-1" d="M37.74,261.52h-2.93v-20.75h5.76v17.64h11.91v-17.61h5.9v20.62h-2.79v2.93c-6.02,0-11.88,0-17.85,0v-2.84Z"/>
  <path class="cls-1" d="M102.96,315.03h-2.82v2.84h-17.85v-2.82h-2.89v-11.91h2.82v-2.89h17.85v2.82h2.89v11.96ZM85.3,311.93h11.7v-5.76h-11.7v5.76Z"/>
  <path class="cls-1" d="M141.64,279.33h-2.88v-2.94h-2.89v-5.89c1.9,0,3.8,0,5.8,0v2.83h2.99v2.95h2.94c0-.9,0-1.82,0-2.88h2.99v-2.89h5.89c0,1.9,0,3.8,0,5.8h-2.83v2.99h-2.95v2.94h2.88v2.99h2.89v5.89h-5.8v-2.83h-2.99v-2.95h-2.94v2.88h-2.99v2.89h-5.89v-5.8h2.83v-2.99h2.95v-2.99Z"/>
  <path class="cls-1" d="M150.6,56.36v2.94h11.89v3.04l.04-.04h-6.04v2.91h-2.94v-2.78h-2.99v2.76h-2.99v-2.79h-2.94v2.78h-2.99v-2.76h-2.99v2.8h-2.94c0-.99,0-1.9,0-2.78h-2.99v2.76h-2.99v-2.8h-2.94c0,.98,0,1.9,0,2.87h-11.87l.04.04v-2.96h8.84v-2.94h11.97v-3.06l-.04.04c1-.02,2.01-.03,3.01-.05,0,.97,0,1.93,0,2.9h2.85v-2.86h-2.89c.02-3.98.03-7.95.05-11.93l-.04.04c1.01-.01,2.01-.03,3.02-.04v8.85h3v-2.91c1.08,0,2.01,0,2.94,0,0,1.99,0,3.99,0,5.98-.97,0-1.93,0-2.9,0v2.85h2.86v-2.89c1,.02,2.01.03,3.01.05l-.04-.04Z"/>
  <path class="cls-1" d="M159.48,300.22v5.83h-14.72v5.91h14.68v5.93c-5.85,0-11.68,0-17.66,0v-2.86h-2.96v-11.85h2.86v-2.96h17.8Z"/>
  <path class="cls-1" d="M126.79,300.06v5.96h-8.78v11.85h-5.96v-11.7h-5.9v-5.96h5.76v-5.9h5.96v5.76h8.92Z"/>
  <path class="cls-1" d="M189.24,178.24v2.96h-11.81v2.94h-8.99v11.98l.04-.04h-3.04v-11.85c-1.08,0-2.01,0-2.94,0v-5.99h3.01v2.89h2.93v-2.89h3.01c0,.97,0,1.93,0,2.89h2.93v-2.89h3.06v-2.88h2.93v2.79h3.03v-2.78h2.93v2.91h2.95l-.04-.04Z"/>
  <path class="cls-1" d="M117.95,196.12v-11.88h-8.88v-2.94h-11.92v-3.06l-.04.04h3.06v-2.92h2.93v2.79h3.03v-2.79h2.93v2.87h2.95c0,.97,0,1.93,0,2.89h2.93v-2.89h3.01c0,.97,0,1.93,0,2.89h2.93v-2.89h3.01c0,2,0,3.99,0,5.99h-3.04v11.85h-2.94l.04.04Z"/>
  <path class="cls-1" d="M162.54,317.88v-23.56h5.81v23.56h-5.81Z"/>
  <path class="cls-1" d="M218.96,115.86h2.96v2.9h2.93v5.96h3.02v29.79l.04-.04h-3.04v-26.75h-2.94l.04.04v-5.99h-3.01l.04.04v-5.99l-.04.04Z"/>
  <path class="cls-1" d="M58.51,154.5v-29.68h2.92v-5.96h2.93v-3c1.12,0,2.09,0,3.06,0,0,0-.04-.04-.04-.04v5.99l.04-.04h-3.01v5.99l.04-.04h-3.04v26.75h-2.94l.04.04Z"/>
  <path class="cls-1" d="M219.01,154.5c0-8.93,0-17.86,0-26.8,0,0-.04.04-.04.04h3.01l-.04-.04v26.75h-2.97l.04.04Z"/>
  <path class="cls-1" d="M67.38,127.7c0,8.93,0,17.86,0,26.8l.04-.04h-2.97v-26.75l-.04.04h3.01l-.04-.04Z"/>
  <path class="cls-1" d="M19.95,246.69c3.93,0,7.77,0,11.69,0v5.76h-11.69v-5.76Z"/>
  <path class="cls-1" d="M266.46,252.51h-11.7v-5.78c3.87,0,7.74,0,11.7,0v5.78Z"/>
  <path class="cls-1" d="M177.32,306.2v11.69h-5.81v-11.69h5.81Z"/>
  <path class="cls-1" d="M224.95,163.37h-2.94c0,1.99,0,3.88,0,5.87h-5.98v-2.89l-.04.04h3.01v-8.96l-.04.04h3.04v3.01h2.91v2.93l.04-.04Z"/>
  <path class="cls-1" d="M70.35,166.35v2.89h-5.87v-5.87h-3.04l.04.04v-3.04h3.01v-2.91h2.93l-.04-.04v8.96h3.01l-.04-.04Z"/>
  <path class="cls-1" d="M210.05,92.08h2.97c0,4.01,0,7.95,0,11.89,0,0,.04-.04.04-.04h-5.99v-2.97h3.02v-8.92l-.04.04Z"/>
  <path class="cls-1" d="M73.36,103.97v-11.89h2.97s-.04-.04-.04-.04v8.92h3.02v2.97h-5.99l.04.04Z"/>
  <path class="cls-1" d="M129.9,312.1h5.76v5.78h-5.76v-5.78Z"/>
  <path class="cls-1" d="M150.65,26.68v-2.89h11.84v2.89l.04-.04c-3.98,0-7.95,0-11.93,0l.04.04Z"/>
  <path class="cls-1" d="M180.33,68.3c2.91,0,5.83,0,8.91,0v2.97l.04-.04h-3.06v2.91h-2.94v-2.87c-1.09,0-2.03,0-2.96,0,.01-1.01.03-2.01.04-3.02l-.04.04Z"/>
  <path class="cls-1" d="M162.49,26.68h2.96v2.9h2.89v5.98h-2.88l.04.04v-2.97h-3.02c.01-2,.03-3.99.04-5.99l-.04.04Z"/>
  <path class="cls-1" d="M230.85,169.32v2.89h-5.9v-8.84l-.04.04h3.04v5.95h2.94l-.04-.04Z"/>
  <path class="cls-1" d="M177.3,300.07h-5.76v-5.78h5.76v5.78Z"/>
  <path class="cls-1" d="M97.15,71.27v-2.97h8.91l-.04-.04c.01,1.01.03,2.01.04,3.02h-3.06v2.87h-2.94v-2.91h-2.96l.04.04Z"/>
  <path class="cls-1" d="M171.41,65.32h8.92v2.97s.04-.04.04-.04h-2.97c0,1.15,0,2.08,0,3.02-1,0-2.01,0-3.01,0v-2.98h-2.98c.01-1,.03-2.01.04-3.01l-.04.04Z"/>
  <path class="cls-1" d="M106.06,68.3v-2.98c3.02,0,5.97,0,8.92,0,0,0-.04-.04-.04-.04.01,1,.03,2.01.04,3.01-.97,0-1.94,0-2.98,0v2.98c-1,0-2.01,0-3.01,0v-3.02h-2.97l.04.04Z"/>
  <path class="cls-1" d="M61.43,163.37c0,2.91,0,5.82,0,8.83h-5.9v-2.88l-.04.04h3.04v-5.95h2.94l-.04-.04Z"/>
  <path class="cls-1" d="M135.79,56.36h-2.9v-11.85h2.89l-.04-.04v11.93l.04-.04Z"/>
  <path class="cls-1" d="M156.55,47.44v5.89h-2.9v3.02c-1.11,0-2.08,0-3.04,0l.04.04c-.01-2-.03-3.99-.04-5.99.97,0,1.94,0,2.97,0v-2.97c1.01.01,2.01.03,3.02.04l-.04-.04Z"/>
  <path class="cls-1" d="M70.35,157.48h2.89v8.87c-.96,0-1.93,0-2.9,0,0,0,.04.04.04.04v-8.96l-.04.04Z"/>
  <path class="cls-1" d="M162.49,62.35h8.92v2.98s.04-.04.04-.04h-8.92v-2.97l-.04.04Z"/>
  <path class="cls-1" d="M55.53,169.32h-2.9c0-2.94,0-5.82,0-8.87h2.89l-.04-.04c0,2.99,0,5.97,0,8.96l.04-.04Z"/>
  <path class="cls-1" d="M230.86,160.45h2.89v8.87c-.96,0-1.93,0-2.9,0l.04.04v-8.96l-.04.04Z"/>
  <path class="cls-1" d="M198.16,172.29v2.97h-5.94l.04.04v-5.99l-.04.04h3.01l-.04-.04v3.01h3.01l-.04-.04Z"/>
  <path class="cls-1" d="M216.04,166.35h-2.9v-8.87h2.89s-.04-.04-.04-.04v8.96l.04-.04Z"/>
  <path class="cls-1" d="M207.08,86.13h2.97v5.95s.04-.04.04-.04h-2.97v-5.95l-.04.04Z"/>
  <path class="cls-1" d="M91.2,74.24v-2.97c2.02,0,3.98,0,5.94,0l-.04-.04v2.97h-5.94l.04.04Z"/>
  <path class="cls-1" d="M112.01,199.09v-2.97h5.94s-.04-.04-.04-.04v2.97c-2.1,0-4.02,0-5.94,0l.04.04Z"/>
  <path class="cls-1" d="M165.47,35.55v5.95h-2.97l.04.04c-.01-2-.03-3.99-.04-5.99,1,.01,2.01.03,3.01.04l-.04-.04Z"/>
  <path class="cls-1" d="M227.88,154.5h2.98v5.95l.04-.04h-2.97v-5.95l-.04.04Z"/>
  <path class="cls-1" d="M55.53,160.45v-5.95c1.04,0,2.01,0,2.98,0,0,0-.04-.04-.04-.04v5.95h-2.97l.04.04Z"/>
  <path class="cls-1" d="M76.34,92.08v-5.95h2.97l-.04-.04v5.95h-2.97l.04.04Z"/>
  <path class="cls-1" d="M138.76,41.54v-5.94h2.97l-.04-.04c.01,2,.03,3.99.04,5.99-1-.01-2.01-.03-3.01-.04l.04.04Z"/>
  <path class="cls-1" d="M189.24,71.27h5.94v2.97l.04-.04c-1.96,0-3.92,0-5.94,0v-2.97l-.04.04Z"/>
  <path class="cls-1" d="M168.44,196.12c1.92,0,3.85,0,5.94,0v2.97l.04-.04c-1.96,0-3.92,0-5.94,0v-2.97l-.04.04Z"/>
  <path class="cls-1" d="M147.68,29.65v-2.97c1.03,0,2,0,2.97,0,0,0-.04-.04-.04-.04.01,1,.03,2.01.04,3.01-1.01-.01-2.01-.03-3.02-.04l.04.04Z"/>
  <path class="cls-1" d="M204.11,83.16h2.97v2.97s.04-.04.04-.04c-1,.01-2.01.03-3.01.04.01-1.01.03-2.01.04-3.02l-.04.04Z"/>
  <path class="cls-1" d="M67.38,154.5h2.98c0,1.03,0,2,0,2.98,0,0,.04-.04.04-.04h-3.01l.04.04v-3.01l-.04.04Z"/>
  <path class="cls-1" d="M216.04,157.48v-2.98c1.03,0,2,0,2.98,0l-.04-.04v3.01l.04-.04h-3.01l.04.04Z"/>
  <path class="cls-1" d="M97.15,178.24h-2.98v-2.98l-.04.04h2.97c0,1.11,0,2.04,0,2.97l.04-.04Z"/>
  <path class="cls-1" d="M192.22,175.26v2.98h-2.98s.04.04.04.04v-2.97h2.97l-.04-.04Z"/>
  <path class="cls-1" d="M159.52,44.47v2.97c-1.03,0-2,0-2.97,0l.04.04c-.01-1-.03-2.01-.04-3.01,1.01.01,2.01.03,3.02.04l-.04-.04Z"/>
  <path class="cls-1" d="M108.99,199.09h3.02l-.04-.04v3.01h-2.97c.01-1,.03-2.01.04-3.01l-.04.04Z"/>
  <path class="cls-1" d="M174.38,199.09c1.01,0,2.01,0,3.02,0,0,0-.04-.04-.04-.04.01,1,.03,2.01.04,3.01h-2.97v-3.01l-.04.04Z"/>
  <path class="cls-1" d="M79.31,86.13v-2.97h2.97s-.04-.04-.04-.04c.01,1.01.03,2.01.04,3.02l-3.01-.04.04.04Z"/>
  <path class="cls-1" d="M201.13,80.19h2.97v2.97l.04-.04c-1,.01-2.01.03-3.01.04.01-1.01.03-2.01.04-3.02l-.04.04Z"/>
  <path class="cls-1" d="M162.49,41.5v2.98c-1.03,0-2,0-2.98,0,0,0,.04.04.04.04-.01-1.01-.03-2.01-.04-3.02,1,.01,2.01.03,3.01.04l-.04-.04Z"/>
  <path class="cls-1" d="M135.78,44.52v-2.98c1.03,0,2,0,2.98,0l-.04-.04v3.01l.04-.04c-1,0-2.01,0-3.01,0l.04.04Z"/>
  <path class="cls-1" d="M82.28,83.16v-2.97h2.97l-.04-.04c.01,1.01.03,2.01.04,3.02-1-.01-2.01-.03-3.01-.04l.04.04Z"/>
  <path class="cls-1" d="M198.16,77.21h2.97v2.97l.04-.04c-1.01.01-2.01.03-3.02.04.01-1,.03-2.01.04-3.01l-.04.04Z"/>
  <path class="cls-1" d="M85.25,80.19c0-.93,0-1.87,0-2.97h2.97l-.04-.04c.01,1,.03,2.01.04,3.01-1.01-.01-2.01-.03-3.02-.04l.04.04Z"/>
  <path class="cls-1" d="M141.73,35.6v-2.97h2.97l-.04-.04c.01,1.01.03,2.01.04,3.02-1-.01-2.01-.03-3.01-.04l.04.04Z"/>
  <path class="cls-1" d="M195.19,74.24h2.98v2.98s.04-.04.04-.04h-2.97v-2.97l-.04.04Z"/>
  <path class="cls-1" d="M144.7,32.63v-2.98c1.03,0,2,0,2.98,0l-.04-.04c.01,1,.03,2.01.04,3.01-1.01-.01-2.01-.03-3.02-.04l.04.04Z"/>
  <path class="cls-1" d="M88.23,77.21v-2.98c1.03,0,2,0,2.98,0l-.04-.04v2.97h-2.97l.04.04Z"/>
  <path class="cls-1" d="M126.87,196.12h-3.01v-11.93c12.89,0,25.79,0,38.68,0v11.93h-3.01v-8.84c-10.87,0-21.68,0-32.65,0v8.84Z"/>
  <path class="cls-1" d="M159.56,196.08v5.99h-3.01v-5.99h3.01Z"/>
  <path class="cls-1" d="M126.83,202.06v-5.99h3.01v5.99h-3.01Z"/>
  <path class="cls-1" d="M171.41,210.94h8.96v3.01c-2.99,0-5.97,0-8.96,0v-3.01Z"/>
  <path class="cls-1" d="M106.02,210.94h8.96v3.01h-8.96v-3.01Z"/>
  <path class="cls-1" d="M106.06,204.99v5.99h-3.01v-5.99h3.01Z"/>
  <path class="cls-1" d="M120.88,205.03v-3.01c2.06,0,4.03,0,5.99,0v3.01h-5.99Z"/>
  <path class="cls-1" d="M117.91,208.01v-3.01h3.01c0,1,0,2.01,0,3.01h-3.01Z"/>
  <path class="cls-1" d="M159.52,202.02h5.99v3.01h-5.99v-3.01Z"/>
  <path class="cls-1" d="M165.47,204.99h3.01v3.01c-1,0-2.01,0-3.01,0v-3.01Z"/>
  <path class="cls-1" d="M180.33,210.98v-5.99h3.01v5.99h-3.01Z"/>
  <path class="cls-1" d="M109.03,202.02v3.01h-3.01c0-1,0-2.01,0-3.01h3.01Z"/>
  <path class="cls-1" d="M180.37,205.03h-3.01v-3.01c1,0,2.01,0,3.01,0v3.01Z"/>
  <path class="cls-1" d="M114.94,210.98v-3.01h3.01c0,1,0,2.01,0,3.01h-3.01Z"/>
  <path class="cls-1" d="M168.44,207.97h3.01v3.01c-1,0-2.01,0-3.01,0v-3.01Z"/>
  <path class="cls-1" d="M120.93,127.74c0-1.99,0-3.99,0-5.98l-.04.04h9v-3.03h2.93v-2.83h3.04v2.93h2.93v2.8h5.95v-2.89h2.98v-2.87h2.93v2.95h2.98v2.84h5.95v-2.91c1.09,0,2.02,0,2.95,0,0,.97,0,1.94,0,2.97,1.11,0,2.04,0,2.97,0-.01,1.01-.03,2.01-.04,3.02l.04-.04h-3.01v3.01l.04-.04h-2.96v2.92h-5.91v-2.92h-3.07l.04.04v-2.89h-3.01v2.89l.04-.04h-2.96v2.92c-2.02,0-3.88,0-5.91,0v-2.92h-3.07l.04.04v-2.89h-3.01v2.89l.04-.04h-2.96v2.91h-5.9v-2.92h-3.06l.04.04Z"/>
  <path class="cls-1" d="M100.07,127.75c.01-1,.03-2.01.04-3.01l-.04.04h14.9l-.04-.04v3.01h-14.86Z"/>
  <path class="cls-1" d="M186.27,124.73c.01,1,.03,2.01.04,3.01-4.97-.01-9.94-.03-14.9-.04l.04.04c-.01-1.01-.03-2.01-.04-3.02,4.97.01,9.93.03,14.9.04l-.04-.04Z"/>
  <path class="cls-1" d="M120.92,121.76c-1.01,0-2.01,0-3.02,0l.04.04v-3.01h2.97c-.01,1-.03,2.01-.04,3.01l.04-.04Z"/>
  <path class="cls-1" d="M117.91,121.76v2.98h-2.98s.04.04.04.04v-2.97h2.97l-.04-.04Z"/>
  <path class="cls-1" d="M168.48,127.7c-1,0-2.01,0-3.01,0l.04.04v-3.01l-.04.04c1-.01,2.01-.03,3.01-.04-.01,1.01-.03,2.01-.04,3.02l.04-.04Z"/>
  <path class="cls-1" d="M88.19,127.71h3.01v2.89h-3.01v-2.89Z"/>
  <path class="cls-1" d="M120.88,127.7v2.89h-2.86v-2.85c.97,0,1.93,0,2.9,0,0,0-.04-.04-.04-.04Z"/>
  <path class="cls-1" d="M135.74,127.7v2.89h-2.93c0-.96,0-1.93,0-2.89l-.04.04h3.01l-.04-.04Z"/>
  <path class="cls-1" d="M150.6,127.7v2.89h-2.93c0-.96,0-1.93,0-2.89l-.04.04h3.01l-.04-.04Z"/>
  <path class="cls-1" d="M165.47,127.7v2.89h-2.93v-2.89l-.04.04h3.01l-.04-.04Z"/>
  <path class="cls-1" d="M171.41,127.7v2.89h-2.93v-2.89l-.04.04h3.01l-.04-.04Z"/>
  <path class="cls-1" d="M195.19,127.71h3.01v2.89h-3.01v-2.89Z"/>
  <path class="cls-1" d="M79.27,151.53v-3.01h3.01v3.01h-3.01Z"/>
  <path class="cls-1" d="M91.16,148.51h3.01v2.89h-3.01v-2.89Z"/>
  <path class="cls-1" d="M106.02,148.51h3.01v2.89h-3.01v-2.89Z"/>
  <path class="cls-1" d="M120.88,148.51h3.01v2.89h-3.01v-2.89Z"/>
  <path class="cls-1" d="M150.6,148.51h3.01v2.89h-3.01v-2.89Z"/>
  <path class="cls-1" d="M165.47,148.51h3.01v2.89h-3.01v-2.89Z"/>
  <path class="cls-1" d="M180.33,148.51h3.01v2.89h-3.01c0-.96,0-1.92,0-2.89Z"/>
  <path class="cls-1" d="M207.12,148.51v3.01h-3.01v-3.01c1,0,2.01,0,3.01,0Z"/>
  <path class="cls-1" d="M135.74,148.51h3.01v2.89h-3.01v-2.89Z"/>
  <path class="cls-1" d="M103.05,169.32h3.01v2.89h-3.01v-2.89Z"/>
  <path class="cls-1" d="M117.91,169.32h3.01v2.89h-3.01v-2.89Z"/>
  <path class="cls-1" d="M132.77,169.32h3.01v2.89h-3.01v-2.89Z"/>
  <path class="cls-1" d="M147.63,169.32h3.01v2.89h-3.01v-2.89Z"/>
  <path class="cls-1" d="M162.49,169.32h3.01v2.89h-3.01v-2.89Z"/>
  <path class="cls-1" d="M177.36,169.32h3.01v2.89h-3.01v-2.89Z"/>
  <path class="cls-1" d="M114.98,178.28h-3.01v-2.89h3.01v2.89Z"/>
  <path class="cls-1" d="M120.92,178.28h-3.01v-2.89h3.01v2.89Z"/>
  <path class="cls-1" d="M126.87,178.28h-3.01v-2.89h3.01v2.89Z"/>
  <path class="cls-1" d="M132.81,178.28h-3.01v-2.89h3.01v2.89Z"/>
  <path class="cls-1" d="M138.76,178.28c-1,0-2.01,0-3.01,0v-2.89h3.01v2.89Z"/>
  <path class="cls-1" d="M144.7,178.28c-1,0-2.01,0-3.01,0v-2.89h3.01v2.89Z"/>
  <path class="cls-1" d="M150.65,178.28c-1,0-2.01,0-3.01,0v-2.89h3.01v2.89Z"/>
  <path class="cls-1" d="M156.59,178.28c-1,0-2.01,0-3.01,0v-2.89h3.01v2.89Z"/>
  <path class="cls-1" d="M162.53,178.28c-1,0-2.01,0-3.01,0v-2.89h3.01v2.89Z"/>
  <path class="cls-1" d="M168.48,178.28c-1,0-2.01,0-3.01,0v-2.89h3.01v2.89Z"/>
  <path class="cls-1" d="M174.42,178.28c-1,0-2.01,0-3.01,0v-2.89h3.01v2.89Z"/>
  <path class="cls-1" d="M129.84,178.24v2.89h-3.01v-2.89h3.01Z"/>
  <path class="cls-1" d="M135.78,178.24v2.89h-3.01v-2.89h3.01Z"/>
  <path class="cls-1" d="M141.73,178.24v2.89h-3.01v-2.89h3.01Z"/>
  <path class="cls-1" d="M147.67,178.24v2.89h-3.01v-2.89h3.01Z"/>
  <path class="cls-1" d="M153.62,178.24v2.89h-3.01v-2.89h3.01Z"/>
  <path class="cls-1" d="M159.56,178.24v2.89h-3.01v-2.89h3.01Z"/>
  <path class="cls-1" d="M195.23,118.83c-1-.01-2.01-.03-3.01-.04l.04.04c-.01-4.97-.03-9.94-.04-14.9,1.01.01,2.01.03,3.02.04,0,0-.04-.04-.04-.04.01,4.97.03,9.94.04,14.9Z"/>
  <path class="cls-1" d="M201.13,98.02v-2.89h3.01v2.89h-3.01Z"/>
  <path class="cls-1" d="M198.16,100.99v-3.01h3.01v3.01h-3.01Z"/>
  <path class="cls-1" d="M204.11,97.98h3.01v3.01h-3.01v-3.01Z"/>
  <path class="cls-1" d="M195.19,101c1-.01,2.01-.03,3.01-.04v2.97c-1.07,0-2.05,0-3.02,0l.04.04v-3.01l-.04.04Z"/>
  <path class="cls-1" d="M189.24,121.76c.01,1,.03,2.01.04,3.01-1.01-.01-2.01-.03-3.02-.04,0,0,.04.04.04.04v-2.97h2.97s-.04-.04-.04-.04Z"/>
  <path class="cls-1" d="M192.26,121.8c-1.01-.01-2.01-.03-3.02-.04,0,0,.04.04.04.04v-2.97h2.97l-.04-.04c.01,1.01.03,2.01.04,3.02Z"/>
  <path class="cls-1" d="M94.17,118.78c-1,.01-2.01.03-3.01.04.01-4.97.03-9.94.04-14.9,0,0-.04.04-.04.04,1.01-.01,2.01-.03,3.02-.04-.01,4.97-.03,9.94-.04,14.9l.04-.04Z"/>
  <path class="cls-1" d="M82.24,98.02v-2.89h3.01v2.89h-3.01Z"/>
  <path class="cls-1" d="M79.27,100.99v-3.01h3.01c0,.93,0,1.87,0,3.01h-3.01Z"/>
  <path class="cls-1" d="M85.21,97.98h3.01v3.01h-3.01v-3.01Z"/>
  <path class="cls-1" d="M88.19,100.95c1,.01,2.01.03,3.01.04l-.04-.04v3.01s.04-.04.04-.04c-.93,0-1.87,0-3.02,0v-2.97Z"/>
  <path class="cls-1" d="M97.14,121.76c-1,.01-2.01.03-3.01.04.01-1.01.03-2.01.04-3.02,0,0-.04.04-.04.04h2.97v2.97l.04-.04Z"/>
  <path class="cls-1" d="M100.12,124.73c-1.01.01-2.01.03-3.02.04.01-1.01.03-2.01.04-3.02l-.04.04h2.97c0,1.11,0,2.04,0,2.97l.04-.04Z"/>
  <path class="cls-1" d="M168.48,71.23v2.89h-3.01v-2.89h3.01Z"/>
  <path class="cls-1" d="M162.53,71.23v2.89h-3.01v-2.89h3.01Z"/>
  <path class="cls-1" d="M156.59,71.23v2.89h-3.01v-2.89h3.01Z"/>
  <path class="cls-1" d="M150.65,71.23v2.89h-3.01v-2.89h3.01Z"/>
  <path class="cls-1" d="M144.7,71.23v2.89h-3.01v-2.89h3.01Z"/>
  <path class="cls-1" d="M138.76,71.23v2.89h-3.01v-2.89h3.01Z"/>
  <path class="cls-1" d="M132.81,71.23v2.89h-3.01v-2.89c1,0,2.01,0,3.01,0Z"/>
  <path class="cls-1" d="M126.87,71.23v2.89h-3.01v-2.89c1,0,2.01,0,3.01,0Z"/>
  <path class="cls-1" d="M120.92,71.23v2.89h-3.01v-2.89c1,0,2.01,0,3.01,0Z"/>
  <path class="cls-1" d="M171.45,68.25c0,1,0,2.01,0,3.01-1,0-2.01,0-3.01,0v-3.01h3.01Z"/>
  <path class="cls-1" d="M165.51,71.27h-3.01v-2.89h3.01v2.89Z"/>
  <path class="cls-1" d="M159.56,71.27h-3.01v-2.89h3.01v2.89Z"/>
  <path class="cls-1" d="M153.62,71.27h-3.01v-2.89h3.01v2.89Z"/>
  <path class="cls-1" d="M147.67,71.27h-3.01v-2.89h3.01v2.89Z"/>
  <path class="cls-1" d="M141.73,71.27h-3.01v-2.89h3.01v2.89Z"/>
  <path class="cls-1" d="M135.78,71.27c-1,0-2.01,0-3.01,0v-2.89h3.01v2.89Z"/>
  <path class="cls-1" d="M123.89,71.27c-1,0-2.01,0-3.01,0v-2.89h3.01v2.89Z"/>
  <path class="cls-1" d="M114.94,71.27v-3.01h3.01v3.01c-1,0-2.01,0-3.01,0Z"/>
  <path class="cls-1" d="M129.84,71.27c-1,0-2.01,0-3.01,0v-2.89h3.01c0,.96,0,1.92,0,2.89Z"/>
  <path class="cls-1" d="M150.6,32.62v-3.01c2.91,0,5.83,0,8.96,0v3.01h-8.96Z"/>
  <path class="cls-1" d="M159.56,41.54h-3.01v-5.99h3.01v5.99Z"/>
  <path class="cls-1" d="M144.66,35.55c1,0,2.01,0,3.01,0v5.99h-3.01v-5.99Z"/>
  <path class="cls-1" d="M150.65,47.44v3.01c-1,0-2.01,0-3.01,0v-3.01h3.01Z"/>
  <path class="cls-1" d="M153.62,44.47v3.01c-1,0-2.01,0-3.01,0v-3.01h3.01Z"/>
  <path class="cls-1" d="M156.59,41.5v3.01h-3.01v-3.01h3.01Z"/>
  <path class="cls-1" d="M141.69,41.5c1,0,2.01,0,3.01,0v3.01h-3.01v-3.01Z"/>
  <path class="cls-1" d="M162.53,35.6c-1,0-2.01,0-3.01,0v-3.01c1,0,2.01,0,3.01,0v3.01Z"/>
  <path class="cls-1" d="M147.63,35.6v-3.01c1,0,2.01,0,3.01,0v3.01h-3.01Z"/>
  <path class="cls-1" d="M171.45,98.02c0-.93,0-1.86,0-2.89,4.92,0,9.78,0,14.82,0v2.89l.04-.04h-14.9l.04.04Z"/>
  <path class="cls-1" d="M100.12,98.02c0-.93,0-1.86,0-2.89h14.82v2.89l.04-.04h-14.9l.04.04Z"/>
  <path class="cls-1" d="M201.13,86.09h3.01v2.89h-3.01v-2.89Z"/>
  <path class="cls-1" d="M183.3,86.09h3.01v2.89h-3.01v-2.89Z"/>
  <path class="cls-1" d="M94.17,98.02v-2.89h2.93v2.89l.04-.04h-3.01l.04.04Z"/>
  <path class="cls-1" d="M117.95,98.02v-2.89h2.93v2.89l.04-.04h-3.01l.04.04Z"/>
  <path class="cls-1" d="M129.84,98.02v-2.89h2.93v2.89l.04-.04h-3.01l.04.04Z"/>
  <path class="cls-1" d="M141.73,98.02v-2.89h2.93v2.89l.04-.04h-3.01l.04.04Z"/>
  <path class="cls-1" d="M153.62,98.02v-2.89h2.93v2.89l.04-.04h-3.01l.04.04Z"/>
  <path class="cls-1" d="M165.51,98.02v-2.89h2.93v2.89l.04-.04h-3.01l.04.04Z"/>
  <path class="cls-1" d="M189.29,98.02v-2.89h2.93v2.89l.04-.04h-3.01l.04.04Z"/>
  <path class="cls-1" d="M91.2,101v-2.98c1.03,0,2,0,2.98,0,0,0-.04-.04-.04-.04.01,1.01.03,2.01.04,3.02-1-.01-2.01-.03-3.01-.04l.04.04Z"/>
  <path class="cls-1" d="M97.1,98.02c1.01,0,2.01,0,3.02,0l-.04-.04v3.02h-2.97c.01-1.01.03-2.01.04-3.02l-.04.04Z"/>
  <path class="cls-1" d="M114.93,98.02c1.01,0,2.01,0,3.02,0,0,0-.04-.04-.04-.04.01,1.01.03,2.01.04,3.02h-2.97v-3.02l-.04.04Z"/>
  <path class="cls-1" d="M120.88,98.02h2.97v2.97l.04-.04c-1.01.01-2.01.03-3.02.04.01-1,.03-2.01.04-3.01l-.04.04Z"/>
  <path class="cls-1" d="M126.87,100.99v-2.97c1.03,0,2,0,2.97,0,0,0-.04-.04-.04-.04v2.97h-2.97l.04.04Z"/>
  <path class="cls-1" d="M132.77,98.02h2.97v2.97l.04-.04h-2.97v-2.97l-.04.04Z"/>
  <path class="cls-1" d="M138.76,100.99v-2.97c1.03,0,2,0,2.97,0l-.04-.04v2.97h-2.97l.04.04Z"/>
  <path class="cls-1" d="M144.66,98.02h2.97v2.97l.04-.04h-2.97v-2.97l-.04.04Z"/>
  <path class="cls-1" d="M150.65,100.99v-2.97c1.03,0,2,0,2.97,0l-.04-.04v2.97h-2.97l.04.04Z"/>
  <path class="cls-1" d="M156.55,98.02h2.97v2.97l.04-.04h-2.97v-2.97l-.04.04Z"/>
  <path class="cls-1" d="M162.54,100.99v-2.97c1.03,0,2,0,2.97,0l-.04-.04c.01,1,.03,2.01.04,3.01-1.01-.01-2.01-.03-3.02-.04l.04.04Z"/>
  <path class="cls-1" d="M168.44,98.02c1.01,0,2.01,0,3.02,0l-.04-.04v3.02c-1.11,0-2.04,0-2.97,0,.01-1.01.03-2.01.04-3.02l-.04.04Z"/>
  <path class="cls-1" d="M186.27,98.02h3.02l-.04-.04c.01,1.01.03,2.01.04,3.02h-2.97v-3.02l-.04.04Z"/>
  <path class="cls-1" d="M192.21,98.02h2.98v2.98l.04-.04c-1,.01-2.01.03-3.01.04.01-1.01.03-2.01.04-3.02l-.04.04Z"/>
  <path class="cls-1" d="M123.85,100.99c1.01,0,2.01,0,3.02,0,0,0-.04-.04-.04-.04v3.02h-2.97c.01-1.01.03-2.01.04-3.02l-.04.04Z"/>
  <path class="cls-1" d="M135.74,100.99c1.01,0,2.01,0,3.02,0,0,0-.04-.04-.04-.04v2.89h-2.93v-2.89l-.04.04Z"/>
  <path class="cls-1" d="M147.63,100.99c1.01,0,2.01,0,3.02,0,0,0-.04-.04-.04-.04v2.89h-2.93v-2.89l-.04.04Z"/>
  <path class="cls-1" d="M159.52,100.99c1.01,0,2.01,0,3.02,0,0,0-.04-.04-.04-.04.01,1.01.03,2.01.04,3.02h-2.97v-3.02l-.04.04Z"/>
  <path class="cls-1" d="M171.41,86.09h3.01v2.89h-3.01v-2.89Z"/>
  <path class="cls-1" d="M159.52,86.09h3.01v2.89h-3.01v-2.89Z"/>
  <path class="cls-1" d="M147.63,86.09h3.01v2.89h-3.01v-2.89Z"/>
  <path class="cls-1" d="M135.74,86.09h3.01v2.89h-3.01v-2.89Z"/>
  <path class="cls-1" d="M123.85,86.09c1,0,2.01,0,3.01,0,0,.93,0,1.86,0,2.89h-3.01v-2.89Z"/>
  <path class="cls-1" d="M111.96,86.09c1,0,2.01,0,3.01,0v2.89h-3.01v-2.89Z"/>
  <path class="cls-1" d="M100.07,86.09c1,0,2.01,0,3.01,0v2.89h-3.01v-2.89Z"/>
  <path class="cls-1" d="M91.16,86.09v2.89h-2.93v-2.89s-.04.04-.04.04h3.01l-.04-.04Z"/>
  <path class="cls-1" d="M82.24,86.09c1,0,2.01,0,3.01,0v2.89h-3.01v-2.89Z"/>
  <path class="cls-1" d="M198.16,86.09v2.89h-2.93v-2.89l-.04.04h3.01l-.04-.04Z"/>
  <path class="cls-1" d="M198.16,83.16c1-.01,2.01-.03,3.01-.04v3.01c-1.01-.01-2.01-.03-3.02-.04l.04.04v-3.01l-.04.04Z"/>
  <path class="cls-1" d="M192.22,83.12c1,.01,2.01.03,3.01.04,0,0-.04-.04-.04-.04v3.01l.04-.04c-.93,0-1.87,0-3.02,0v-2.97Z"/>
  <path class="cls-1" d="M186.27,86.13v-3.01h3.01v3.01h-3.01Z"/>
  <path class="cls-1" d="M180.33,83.12h3.01v3.01h-3.01v-3.01Z"/>
  <path class="cls-1" d="M174.38,86.13v-3.01h3.01v3.01h-3.01Z"/>
  <path class="cls-1" d="M168.44,83.12h3.01v3.01h-3.01v-3.01Z"/>
  <path class="cls-1" d="M162.49,86.13v-3.01h3.01v3.01h-3.01Z"/>
  <path class="cls-1" d="M156.55,83.12h3.01v3.01h-3.01v-3.01Z"/>
  <path class="cls-1" d="M150.6,86.13v-3.01h3.01v3.01h-3.01Z"/>
  <path class="cls-1" d="M144.66,83.12h3.01v3.01h-3.01v-3.01Z"/>
  <path class="cls-1" d="M138.71,86.13v-3.01h3.01v3.01h-3.01Z"/>
  <path class="cls-1" d="M132.77,83.12h3.01v3.01h-3.01v-3.01Z"/>
  <path class="cls-1" d="M126.83,86.13v-3.01h3.01v3.01h-3.01Z"/>
  <path class="cls-1" d="M120.88,83.12h3.01v3.01h-3.01v-3.01Z"/>
  <path class="cls-1" d="M114.94,86.13v-3.01h3.01v3.01h-3.01Z"/>
  <path class="cls-1" d="M108.99,83.12h3.01v3.01h-3.01v-3.01Z"/>
  <path class="cls-1" d="M103.05,86.13v-3.01h3.01v3.01h-3.01Z"/>
  <path class="cls-1" d="M97.1,83.12h3.01v3.01h-3.01v-3.01Z"/>
  <path class="cls-1" d="M91.16,83.16c1-.01,2.01-.03,3.01-.04v2.97c-1.07,0-2.05,0-3.02,0,0,0,.04.04.04.04v-3.01l-.04.04Z"/>
  <path class="cls-1" d="M85.21,83.12c1,.01,2.01.03,3.01.04l-.04-.04v3.01s.04-.04.04-.04c-1.01.01-2.01.03-3.02.04v-3.01Z"/>
  <path class="cls-1" d="M189.24,83.16v-2.89h3.01v2.89h-3.01Z"/>
  <path class="cls-1" d="M177.36,83.16v-2.89h3.01v2.89h-3.01Z"/>
  <path class="cls-1" d="M165.47,83.16v-2.89h3.01v2.89h-3.01Z"/>
  <path class="cls-1" d="M153.58,83.16v-2.89h3.01v2.89h-3.01Z"/>
  <path class="cls-1" d="M141.69,83.16v-2.89h3.01v2.89h-3.01Z"/>
  <path class="cls-1" d="M129.8,83.16v-2.89h3.01v2.89c-1,0-2.01,0-3.01,0Z"/>
  <path class="cls-1" d="M117.91,83.16v-2.89h3.01v2.89c-1,0-2.01,0-3.01,0Z"/>
  <path class="cls-1" d="M106.02,83.16v-2.89h3.01v2.89c-1,0-2.01,0-3.01,0Z"/>
  <path class="cls-1" d="M94.13,83.16v-2.89h3.01v2.89c-1,0-2.01,0-3.01,0Z"/>
  <path class="cls-1" d="M111.96,71.23c1,0,2.01,0,3.01,0v2.89h-3.01v-2.89Z"/>
  <path class="cls-1" d="M106.02,71.23c1,0,2.01,0,3.01,0v2.89h-3.01v-2.89Z"/>
  <path class="cls-1" d="M171.41,71.23h3.01v2.89h-3.01v-2.89Z"/>
  <path class="cls-1" d="M177.36,71.23h3.01v2.89h-3.01v-2.89Z"/>
  <path class="cls-1" d="M198.2,80.14c-.01,1.01-.03,2.01-.04,3.02l.04-.04h-3.01s.04.04.04.04v-3.02h2.97Z"/>
  <path class="cls-1" d="M88.23,83.16c-.01-1.01-.03-2.01-.04-3.02h2.97v3.02s.04-.04.04-.04h-3.01l.04.04Z"/>
  <path class="cls-1" d="M162.49,103.92h3.01v14.9h-3.01v-14.9Z"/>
  <path class="cls-1" d="M120.88,103.92h3.01v14.9h-3.01v-14.9Z"/>
  <path class="cls-1" d="M165.47,118.79h3.01v3.01c-1,0-2.01,0-3.01,0v-3.01Z"/>
  <path class="cls-1" d="M171.45,124.77c-1,0-2.01,0-3.01,0v-3.01h3.01v3.01Z"/>
  <path class="cls-1" d="M108.94,112.95h2.97v2.77h-2.93c0-.9,0-1.86,0-2.82,0,0-.04.05-.04.05Z"/>
  <path class="cls-1" d="M94.13,100.95h3.01v3.01h-3.01v-3.01Z"/>
  <path class="cls-1" d="M120.92,100.95v3.01h-3.01v-3.01h3.01Z"/>
  <path class="cls-1" d="M106.11,109.81h-2.97v-2.77h2.93c0,.9,0,1.86,0,2.82,0,0,.04-.05.04-.05Z"/>
  <path class="cls-1" d="M109.04,109.91v-2.88h2.85v2.84h-2.89l.04.04Z"/>
  <path class="cls-1" d="M108.99,109.86c-.02,1.03-.03,2.05-.05,3.08,0,0,.04-.05.04-.05-.99-.02-1.97-.04-2.96-.06l.04.04c.01-1.02.03-2.05.04-3.07,0,0-.04.05-.04.05.99.02,1.98.03,2.97.05,0,0-.04-.04-.04-.04Z"/>
  <path class="cls-1" d="M106.02,112.84v2.89h-2.86v-2.85c.97,0,1.93,0,2.9,0,0,0-.04-.04-.04-.04Z"/>
  <path class="cls-1" d="M165.47,103.97c0-1,0-2.01,0-3.01h3.01v3.01h-3.01Z"/>
  <path class="cls-1" d="M189.24,100.95c1,0,2.01,0,3.01,0v3.01h-3.01v-3.01Z"/>
  <path class="cls-1" d="M177.45,109.81h-2.97v-2.77h2.93c0,.9,0,1.86,0,2.82,0,0,.04-.05.04-.05Z"/>
  <path class="cls-1" d="M180.43,109.96v-2.97h2.77v2.93c-.9,0-1.86,0-2.82,0,0,0,.05.04.05.04Z"/>
  <path class="cls-1" d="M177.4,112.88c.01-1.02.03-2.05.04-3.07,0,0-.04.05-.04.05,1.01.03,2.02.07,3.03.1,0,0-.05-.04-.05-.04-.02.99-.04,1.98-.06,2.96l.04-.04c-1,0-2,0-3.01,0,0,0,.04.04.04.04Z"/>
  <path class="cls-1" d="M180.32,112.88h2.89v2.86h-2.85c0-.97,0-1.93,0-2.9,0,0-.04.04-.04.04Z"/>
  <path class="cls-1" d="M177.36,112.84v2.89h-2.86v-2.85c.97,0,1.93,0,2.9,0,0,0-.04-.04-.04-.04Z"/>
</svg>