<?xml version="1.0" encoding="UTF-8"?>
<svg id="_レイヤー_1" data-name="レイヤー 1" xmlns="http://www.w3.org/2000/svg" viewBox="0 0 672.35 768.66">
  <path d="M55.32,479.9h-5.95v-5.83h-5.81v-6.01h5.64v-5.9h6.01v-6.01h17.85v-6h29.91v-5.89h41.84v-6.1h23.87v-5.9h-5.77v-6.01h-5.9v-6.01h-6.01v-5.9h-6.01v-11.99h-5.9v-6.01h-6.01v-11.87h-6.03v-18.11l-.09.08h6.16v12.03h5.91v11.99h6.02v5.91h6.01v11.99h5.91v6.01h6.01v5.91h6.01v6.01h5.91v6.01h6.01v5.9h11.99v6.02h5.91v6.01h11.99v5.91h11.99v6.01h17.86v6.01h23.94v5.91h23.94v5.74h83.58v-5.94h41.86v-5.91h11.99v-6.01h11.88v-6.01h11.99v-5.91h11.99v-6.01h5.91v-6.01h11.99v-5.91h6.01v-6.01h5.91v-6.01h6.01v-5.91h6.01v-6.01h5.9v-11.99h6.01v-5.91h6.01v-11.99h5.91v-11.81h5.96l-.08-.08c.03,6.01.05,12.01.08,18.02h-6.16v12.02h-5.64v5.91h23.75l-.09-.08v5.95h-29.73v5.9h-6.01v6.01h-5.91v6.01h-6.01v5.91h-5.89v6.02h29.54v6.01h41.87v5.91h29.92v6.01h17.86v6.01h6.02v5.91h5.89v6.01h-5.63v6.04h-6.16l.08.09v-6.16h-6.13v-5.91h-12v-6.01h-29.81v-6.01h-41.87v-5.64h-53.82v5.88h-11.61v6.01h23.82v5.91h11.6v6.01h-11.8v6.01h-23.94v5.91h-35.9v5.74h-179.19v-5.94h-23.94v-5.91h-29.92v-6.01h-11.63v-6.01h11.86v-5.91h17.59v-6.01h-11.79v-5.65h-41.87v5.81h-47.84v6.01h-23.83v6.01h-17.97v5.91h-5.91v5.95l.08-.09ZM222.48,468.19h-29.51v5.62h29.51v-5.62ZM473.44,473.82v-5.63h-23.49v5.63h23.49Z"/>
  <path d="M431.75,234.96h17.88v-5.9h5.9v-5.89h6.11v5.69h17.84v5.86h6.01v-5.65h6v-5.95h5.9v5.73h6v5.82h6v-5.7h6v-5.79h6v5.61h5.96c0-9.86,0-19.76,0-29.66,0,0-.08.1-.08.1h5.97v71.47h6.01v5.91h6.01v6.01h5.91v18.09h6.16l-.08-.09v6.15h-6.02v17.83h-5.7v23.82h5.82v6.11h-12.1v11.82h-5.91l.08.08v-24.07h6.01v-23.66c2.03-.09,3.86-.17,5.7-.25v-23.73h-11.79v-12.11h-6.05v-35.7h-5.9v-11.79h-5.9v11.79h-6.16v5.77h-5.9v-5.77h-5.95v-5.82h-5.9v5.82h-6.16v5.77h-17.85v-5.77c-2.19,0-4.07,0-5.95,0,0-1.94,0-3.88,0-5.83h-5.73v5.75h5.82v5.83h-24.05v-5.85h-5.92l.09.09v-12.03s-.09.09-.09.09Z"/>
  <path d="M533.46,593.61h-11.99v17.67h-11.77v-47.49h41.55v5.69h5.87v23.94h-5.58v6.01h5.62v11.77h-11.77v-5.7h-5.91v-6.01h-6.01v-5.89ZM545.29,575.74h-23.64v5.57h23.64v-5.57Z"/>
  <path d="M276.37,611.19v-5.63h-5.8v-6.01h-6.01v-5.82h-11.99v17.54h-11.79v-47.45h41.49v5.63h5.89v23.94h-5.54v6.01h5.58v11.79h-11.82ZM276.27,575.77h-23.53v5.62h23.53v-5.62Z"/>
  <path d="M288.31,234.96h11.91v-5.9h5.89v-5.89h6.1v5.69h11.86v5.87h6v-5.64h6v-5.96h5.89v5.7h6.11v5.93h11.86v-5.78h12.13l-.08-.09v5.97h6.06v5.98h5.98v5.98h5.98v5.83h-12.11v-5.74h-5.91v-5.82h-5.9v5.82h-6.16v5.77h-11.87v-5.77h-5.95v-5.82h-5.9v5.82h-6.16v5.77h-11.87v-5.77h-5.95v-5.82h-5.9v5.82h-6.16v5.77h-11.87v-5.77h-5.95v-6.07h6.06v-5.97l-.08.09Z"/>
  <path d="M455.84,611.21v-47.45h47.45v11.76h-35.49v5.91h23.58v11.99h-23.51v6.01h35.5v11.77h-47.52Z"/>
  <path d="M222.4,611.28h-11.66v-5.72h-6.01v-6.01h-5.91v-6.01h-6.01v-5.8h-6.01v23.54h-11.77v-47.48h11.66v5.68h6.01v6.01h5.91v6.01h6.01v5.8h6.01v-23.54h11.77v47.52Z"/>
  <path d="M300.24,611.21v-5.69h-5.69v-35.89h5.69v-5.8h35.89v5.69h5.8v35.89h-5.69v5.8h-36ZM330.13,575.82h-23.64v23.43h23.64v-23.43Z"/>
  <path d="M449.65,688.94v-5.59h11.9c.08,1.83.16,3.66.25,5.71h11.62v29.77h-11.59v-23.53h-6.01v5.62h-6.02v17.91h-11.89v-23.55h-6.01v5.65h-6.02v17.91h-11.78v-35.51h11.65v5.57h6.02v-5.61h11.88v5.65h6.01Z"/>
  <path d="M521.39,497.83v5.95h-5.83v5.91h-6.01v6.02h-29.8v6.03h-53.97l.08.09v-6.14h23.94v-5.89h11.67v-5.91h-17.77v-5.97h77.78l-.09-.08Z"/>
  <path d="M402.16,563.69h11.59v17.67h23.94v-17.53h11.84v47.44h-11.66v-17.6h-23.94v17.53h-11.77v-47.52Z"/>
  <path d="M360.22,575.78v23.55h23.66v-5.66h11.81v11.69h-5.62v5.83h-35.9v-5.63h-5.82v-35.9h5.65v-5.82h35.9v5.66h5.81v11.86h-11.65v-5.58h-23.84Z"/>
  <path d="M246.56,521.73h-53.75v-5.82h-29.81v-6.01h-6.01v-5.91h-12.02v-6.16l-.09.08h77.78v5.97h-17.75v6.01h11.77v5.99h29.81v5.93l.08-.09Z"/>
  <path d="M479.73,718.79v-47.44h11.69v11.72h23.93v5.9h5.89v23.93h-5.61v5.89h-35.89ZM509.33,695.27h-17.58v11.55h17.58v-11.55Z"/>
  <path d="M192.72,683.22v-11.84h11.81v47.39h-35.61v-5.72h-5.93v-23.82h5.8v-6.01h23.93ZM175.02,695.22v11.59h17.55v-11.59h-17.55Z"/>
  <path d="M121.23,563.76h11.67v35.5h23.94v-35.5h11.77v41.65h-5.69v5.8h-35.89v-5.7h-5.8v-41.75Z"/>
  <path d="M252.57,683.36v5.69h5.69v23.94h-5.69v5.8h-35.89v-5.69h-5.8v-23.94h5.69v-5.8h36ZM222.73,706.8h23.62v-11.52h-23.62v11.52Z"/>
  <path d="M294.38,133.35v-5.95h5.83v-11.87h5.88v-6.01h-5.55v-12.01h5.79l-.08-.09v6.16h6.12v5.9h17.96v6h53.46v5.68h-59.64v-5.6h-11.99v5.96h-5.72v5.89h41.63v5.95l.08-.09h-5.95v5.86h-5.9v-5.62h-6.01v5.55h-6.01v-5.59h-5.91v5.62h-6.01v-5.55h-6.01v5.58h-5.9v-5.87h-6.16l.09.09Z"/>
  <path d="M330.19,653.33v-6.01h5.83v-5.91h-5.79v-6.01h-5.8v-11.85h11.66v5.68h6.01v5.94h5.91v-5.79h6.01v-5.8h11.85v11.66h-5.68v6.01h-5.94v5.91h5.79v6.01h5.8v11.85h-11.66v-5.68h-6.01v-5.94h-5.91v5.79h-6.01v5.8h-11.85v-11.66h5.79Z"/>
  <path d="M336.1,718.78v-5.69h-5.69v-23.94h5.69v-5.8h35.75v11.66h-29.48v11.99h29.52v11.77h-35.78Z"/>
  <path d="M425.77,521.73v5.83h-179.21v-5.83l-.08.09c6.57-.01,13.13-.04,19.7-.04,53.23,0,106.45.03,159.68.04l-.08-.09Z"/>
  <path d="M306.11,695.04h-17.66v23.79h-11.98v-23.63h-11.84v-11.99h11.68v-11.84h11.88v11.68h17.92v11.99Z"/>
  <path d="M156.92,258.86v-5.95h11.8v-5.9h6.01v-6.01h11.88v-6.03h18.12l-.08-.09c.03,2.02.06,4.03.09,6.05-3.93,0-7.86,0-11.8,0v5.74h11.72v-5.82c6,.03,12,.06,18.01.09,0,0-.08-.08-.08-.08,0,2.02,0,4.04-.01,6.05l.09-.09h-12.14v6.13h-35.78v5.83h-17.9l.09.08Z"/>
  <path d="M127.04,366.35h-5.95v-17.77h-5.89v-23.92h-5.96v-41.84h5.66v-6.03h6.16l-.08-.09c.03,6.01.05,12.01.08,18.02h-5.8v23.94h5.79v23.92h5.9v23.85l.09-.08Z"/>
  <path d="M306.33,97.5v-5.95h11.8v-5.89h23.92v-6.1h17.95v-5.8h29.92v5.8l.09-.08h-24.07v6.09h-17.68c-.09,2.03-.17,3.86-.26,5.99h-23.73v5.94c-6-.03-12.01-.06-18.01-.09l.08.09Z"/>
  <path d="M378.2,671.33h11.6v47.43h-11.6v-47.43Z"/>
  <path d="M425.85,139.24c-6,0-12.01,0-18.01,0l.08.09v-24.03h-18.02c0-2.18,0-4.06,0-5.93,15.97.03,31.93.05,47.9.08l-.08-.08v6.12h-23.65v17.79h11.78c-.03,2.02-.05,4.04-.08,6.06l.08-.09Z"/>
  <path d="M599.09,294.72h11.91v5.81h5.9v6h6.11v11.97h5.79v35.88h-5.8l.08.09v-30.04h-6.08v-11.86h-6v-6.11h-6v-5.89h-5.82v-5.94l-.08.09Z"/>
  <path d="M407.67,718.86h-11.59v-23.53h11.59v23.53Z"/>
  <path d="M114.83,587.39h-23.53v-11.58h23.53v11.58Z"/>
  <path d="M563.42,575.68h23.56v11.66h-23.56v-11.66Z"/>
  <path d="M144.97,497.83h-41.83v-5.98l-.09.08h41.83v5.98l.09-.08Z"/>
  <path d="M563.22,491.86v5.98h-41.83l.09.08v-5.98h41.83l-.09-.08Z"/>
  <path d="M599.08,384.28v5.91h-11.84v6.03h-18.04l.08.09v-6.12h12.06v-5.84h17.82l-.09-.08Z"/>
  <path d="M449.68,109.46h5.9v11.81h6.05v6.12l.09-.08h-5.98v6.06c-2.02,0-4.04,0-6.06,0,0-1.95,0-3.91,0-5.98h-5.98v-6.13h6.06v-11.88l-.08.09Z"/>
  <path d="M485.53,163.16v29.88h-5.97s.08.09.08.09c-.03-9.99-.06-19.98-.09-29.96,2.02.03,4.04.05,6.06.08l-.09-.08Z"/>
  <path d="M372.07,228.98v-29.88h5.98l-.08-.09c.03,9.99.05,19.98.08,29.97-2.02-.03-4.04-.06-6.06-.09l.08.09Z"/>
  <path d="M443.78,175.1h-5.97v-23.9l-.09.08h12.04v5.97h-6.06v17.93l.08-.09Z"/>
  <path d="M407.84,139.24v5.82h-29.79v-5.82l-.09.08c9.99,0,19.98,0,29.97,0l-.08-.09Z"/>
  <path d="M515.32,193.25c1.88-.09,3.77-.18,6.06-.28,0-5.89,0-11.82,0-17.74,0,0-.08.1-.08.1h5.98c0,7.91,0,15.91,0,23.9,0,0,.08-.1.08-.09-3.83,0-7.65,0-11.96,0,0-2.14,0-4.06,0-5.98,0,0-.08.1-.08.1Z"/>
  <path d="M378.05,139.25h-29.89v-5.98s-.08.09-.08.09h29.88v5.98l.09-.08Z"/>
  <path d="M246.57,187.14v-5.82h29.79v5.82l.09-.08h-29.97l.09.08Z"/>
  <path d="M390,187.14v-5.82h29.79v5.82l.09-.08h-29.97l.09.08Z"/>
  <path d="M103.13,491.86h-29.88v-5.98l-.09.08h29.88v5.98l.09-.08Z"/>
  <path d="M234.61,228.89h-5.82v-29.79h5.82l-.08-.09v29.97l.08-.09Z"/>
  <path d="M593.1,485.88v5.98h-29.88l.09.08v-5.98h29.88l-.09-.08Z"/>
  <path d="M288.31,199.1h5.82v29.79h-5.82l.08.09v-29.97l-.08.09Z"/>
  <path d="M431.75,199.1h5.82v29.79h-5.82l.08.09v-29.97l-.08.09Z"/>
  <path d="M569.29,294.72v-5.82h29.79v5.83l.08-.09h-29.97l.09.08Z"/>
  <path d="M324.01,718.85h-11.6v-11.58h11.6v11.58Z"/>
  <path d="M479.56,193.03v5.82h-23.82v-5.82l-.09.08c8,0,15.99,0,23.99,0l-.08-.09Z"/>
  <path d="M569.2,396.23v5.98h-23.91l.09.08v-5.98h23.91l-.08-.09Z"/>
  <path d="M396.06,682.98v-11.58h11.64v11.58h-11.64Z"/>
  <path d="M138.98,79.48h-5.81v-17.83h5.81l-.09-.09c0,6,0,12,0,18l.09-.09Z"/>
  <path d="M198.85,79.36h-5.88v-17.71h5.78l-.09-.09c.04,5.96.07,11.92.11,17.89,0,0,.08-.1.08-.1Z"/>
  <path d="M258.61,79.36h-5.87v-17.82c1.8,0,3.73,0,5.66,0,0,0-.1-.08-.1-.08.08,6,.15,12,.23,18,0,0,.08-.1.08-.1Z"/>
  <path d="M389.91,79.57h17.93v5.98l.09-.08h-17.93v-5.98l-.09.08Z"/>
  <path d="M407.84,85.54h17.93v5.98l.09-.08h-17.93v-5.98l-.09.08Z"/>
  <path d="M425.77,91.52h17.93v5.98l.09-.08h-17.93v-5.98l-.09.08Z"/>
  <path d="M157.04,115.53c-.04-6.04-.08-12.07-.11-18.11l-.09.09h5.8v17.94c-1.84,0-3.77,0-5.7,0,0,0,.1.08.1.08Z"/>
  <path d="M216.69,115.42c-.04-5.96-.07-11.92-.11-17.89,0,0-.08.1-.08.1h5.88v17.71h-5.78l.09.09Z"/>
  <path d="M276.26,97.62h5.88v17.71h-5.78l.09.09c-.04-5.96-.07-11.92-.11-17.89,0,0-.08.1-.08.1Z"/>
  <path d="M443.69,97.5h5.98v11.96s.08-.09.08-.09h-12.04l.08.08v-6.12h5.98v-5.91l-.09.08Z"/>
  <path d="M611.04,479.9v5.98h-17.93l.09.08v-5.98h17.93l-.08-.09Z"/>
  <path d="M73.25,485.88h-17.94c0-2.08,0-4.03,0-5.98l-.08.09h17.93v5.98l.09-.08Z"/>
  <path d="M461.62,127.38h17.93v5.98l.09-.08c-6.01.03-12.01.05-18.02.08.03-2.02.06-4.04.09-6.06l-.09.08Z"/>
  <path d="M138.78,133.17c.08,6,.15,12,.23,18,0,0,.08-.1.08-.1h-5.87v-17.82c1.8,0,3.73,0,5.66,0,0,0-.1-.08-.1-.08Z"/>
  <path d="M198.85,151.08h-5.88v-17.71h5.78l-.09-.09c.04,5.96.07,11.92.11,17.89,0,0,.08-.1.08-.1Z"/>
  <path d="M204.73,234.96v-5.82h17.84v5.81l.09-.08h-18.01l.08.09Z"/>
  <path d="M138.99,264.84v-5.98h17.93l-.09-.08v5.98h-17.93l.09.08Z"/>
  <path d="M156.92,187.13c0-6,0-12,0-18l-.09.09h5.81v17.83h-5.81l.09.09Z"/>
  <path d="M216.81,187.24c-.08-6-.15-12-.22-18,0,0-.08.1-.08.1h5.87v17.82c-1.8,0-3.73,0-5.66,0,0,0,.1.08.1.08Z"/>
  <path d="M258.31,133.17v17.91h-5.57v-17.83c1.8,0,3.73,0,5.67,0,0,0-.1-.08-.1-.08Z"/>
  <path d="M479.55,133.35h11.95v5.98l.09-.08h-11.95v-5.98l-.09.08Z"/>
  <path d="M294.3,133.26v5.98h-11.95l.09.09v-5.98c4.07,0,8.01,0,11.95,0,0,0-.09-.09-.09-.09Z"/>
  <path d="M622.99,354.39v11.95h-5.98l.08.09v-11.95h5.98l-.08-.09Z"/>
  <path d="M449.76,187.05h-5.98v-11.95l-.08.09c2.02-.03,4.04-.06,6.06-.09-.03,4.01-.05,8.03-.08,12.04,0,0,.08-.09.08-.09Z"/>
  <path d="M515.43,163.25h5.87c0,4.08,0,8.07,0,12.07,0,0,.08-.1.08-.09-1.86,0-3.72,0-5.87,0v-12.06l-.09.09Z"/>
  <path d="M557.33,300.7v-5.98h11.96l-.09-.08v5.98h-11.95l.08.09Z"/>
  <path d="M121.06,276.79v-5.98h11.95l-.08-.09v5.98h-11.95l.08.09Z"/>
  <path d="M258.42,163.16v11.76h-5.73v-11.68h5.82l-.09-.09Z"/>
  <path d="M222.57,234.95c4.01,0,8.03,0,12.04,0l-.08-.09v5.98h-11.95l.08.08v-6.06l-.09.08Z"/>
  <path d="M431.75,228.89v6.07l.08-.09-6.06.09v-5.98h6.06l-.08-.09Z"/>
  <path d="M425.77,193.12h5.98v5.98l.08-.09h-5.98v-5.98l-.08.09Z"/>
  <path d="M366.02,157.27h6.07c0,2,0,3.93,0,5.85,0,0,.08-.1.08-.1h-6.06v-5.84l-.09.09Z"/>
  <path d="M497.36,192.94v5.97h-5.57v-5.89c1.81,0,3.74,0,5.67,0,0,0-.1-.08-.1-.08Z"/>
  <path d="M144.75,198.91v5.97h-5.57v-5.89c1.81,0,3.74,0,5.67,0,0,0-.1-.08-.1-.08Z"/>
  <path d="M204.52,198.91v5.97h-5.57v-5.89c1.81,0,3.74,0,5.67,0,0,0-.1-.08-.1-.08Z"/>
  <path d="M354.26,163.34v-6.18c1.86,0,3.8,0,5.74,0,0,0-.1-.08-.1-.08v6.18c-1.86,0-3.8,0-5.74,0,0,0,.1.08.1.08Z"/>
  <path d="M348.15,163.15h-6.07c0-2,0-3.93,0-5.85,0,0-.08.1-.08.1h6.06v5.84l.09-.09Z"/>
  <path d="M330.36,163.34v-6.06h5.84l-.09-.09v6.07c-2,0-3.93,0-5.85,0,0,0,.1.08.1.08Z"/>
  <path d="M318.2,157.27h5.96v5.96l.09-.09h-5.96v-5.96l-.09.09Z"/>
  <path d="M306.45,163.34v-6.18c1.86,0,3.8,0,5.74,0,0,0-.1-.08-.1-.08v6.18c-1.86,0-3.8,0-5.74,0,0,0,.1.08.1.08Z"/>
  <path d="M348.09,193.13c1.98-.04,3.96-.07,5.94-.11,0,0-.1-.08-.1-.08v5.88h-5.76v-5.78l-.09.09Z"/>
  <path d="M342.1,193.04v5.81h-5.88c0-1.93,0-3.87,0-5.81,0,0-.09.08-.09.08h6.06l-.09-.08Z"/>
  <path d="M330.14,193.05v5.79h-5.99c0-1.84,0-3.76,0-5.69,0,0-.08.1-.08.1,2.05-.04,4.1-.08,6.15-.11l-.09-.09Z"/>
  <path d="M234.61,234.96v-6.07l-.08.09h6.06v5.98c-2.02-.03-4.04-.06-6.06-.09l.08.09Z"/>
  <path d="M288.31,228.89c0,2.02,0,4.05,0,6.07,0,0,.08-.09.08-.09-2.02.03-4.04.06-6.06.09v-5.98h6.06l-.08-.09Z"/>
  <path d="M294.3,157.27h5.96v5.96l.09-.09h-5.96v-5.96l-.09.09Z"/>
  <path d="M288.19,157.08v6.07h-5.85l.08.09v-6.06l-.08.09c1.98-.04,3.96-.07,5.94-.1,0,0-.1-.08-.1-.08Z"/>
  <path d="M145.09,55.76v-5.97h5.57v5.89c-1.81,0-3.74,0-5.67,0,0,0,.1.08.1.08Z"/>
  <path d="M306.12,192.94v5.88h-5.76v-5.78l-.09.09c1.98-.04,3.96-.07,5.94-.11,0,0-.1-.08-.1-.08Z"/>
  <path d="M276.44,163.15c-2.02,0-4.04,0-6.06,0l.08.09v-6.06l-.08.08h6.06l-.08-.08v6.06l.08-.09Z"/>
  <path d="M282.34,193.12h5.98v5.98l.08-.09h-5.98v-5.98l-.08.09Z"/>
  <path d="M234.61,199.1v-5.98h5.98l-.08-.09v5.98h-5.98l.08.09Z"/>
  <path d="M258.51,163.25v-5.98h5.98l-.08-.09v6.06l.08-.09c-2.02,0-4.04,0-6.07.01,0,0,.09.09.09.09Z"/>
  <path d="M210.69,163.15h-5.96v-5.96l-.09.09h5.96v5.96l.09-.09Z"/>
  <path d="M210.61,193.05v5.87c-2.07,0-4.08,0-6.09,0,0,0,.1.08.09.08,0-1.86,0-3.71,0-5.87h6.09l-.09-.09Z"/>
  <path d="M144.89,157.27h6.07c0,2,0,3.93,0,5.85,0,0,.08-.1.08-.1h-6.06v-5.84l-.09.09Z"/>
  <path d="M503.46,151.29h5.97v5.97s.09-.08.09-.08h-6.06l.08.08v-6.06l-.08.09Z"/>
  <path d="M150.73,192.94v5.98c-2.07,0-4.02,0-5.97,0,0,0,.1.08.09.08,0-1.84,0-3.69,0-5.98,2.15,0,4.06,0,5.98,0,0,0-.1-.08-.1-.08Z"/>
  <path d="M133.01,270.82v-5.98h5.98l-.09-.08v5.98h-5.98l.08.09Z"/>
  <path d="M509.45,187.15h5.87c0,2.07,0,4.08,0,6.09,0,0,.08-.1.08-.09-1.86,0-3.71,0-5.87,0v-6.09l-.09.09Z"/>
  <path d="M503.34,186.96v5.98c-2.07,0-4.02,0-5.97,0,0,0,.1.08.09.08,0-1.84,0-3.69,0-5.98,2.15,0,4.06,0,5.98,0,0,0-.1-.08-.1-.08Z"/>
  <path d="M491.59,163.15c-2.02,0-4.04,0-6.06,0l.09.08c-.03-2.02-.06-4.04-.09-6.06,2.02,0,4.04,0,6.06,0-.03,2.02-.05,4.04-.08,6.06,0,0,.08-.09.08-.09Z"/>
  <path d="M407.93,157.25v-5.79h5.99c0,1.84,0,3.76,0,5.69,0,0,.08-.1.08-.1-2.05.04-4.1.08-6.15.11l.09.09Z"/>
  <path d="M390.09,157.05c-2.01.08-4.03.15-6.05.23,0,0,.1.08.1.08v-5.97h5.87c0,1.9,0,3.83,0,5.76,0,0,.08-.1.08-.1Z"/>
  <path d="M455.74,193.04h-5.98v-5.98l-.08.09c2.02-.03,4.04-.05,6.06-.08-.03,2.02-.06,4.04-.09,6.06l.09-.08Z"/>
  <path d="M366.1,157.18c-2.06-.03-4.13-.07-6.19-.1,0,0,.1.08.09.08,0-1.86,0-3.71,0-5.74h6.02c0,1.97,0,3.91,0,5.84,0,0,.09-.09.09-.09Z"/>
  <path d="M419.79,187.14h5.98v5.98l.08-.09h-5.98v-5.98l-.09.08Z"/>
  <path d="M336.2,157.27v-5.8h5.81c0,1.9,0,3.9,0,5.91,0,0,.08-.1.08-.09-1.99-.03-3.98-.07-5.97-.1,0,0,.09.09.09.09Z"/>
  <path d="M318.29,157.18c-2.06-.03-4.13-.07-6.19-.1,0,0,.1.08.09.08,0-1.86,0-3.71,0-5.74h6.02c0,1.97,0,3.91,0,5.84,0,0,.09-.09.09-.09Z"/>
  <path d="M378.05,163.23v-5.87c2.07,0,4.08,0,6.09,0,0,0-.1-.08-.09-.08,0,1.86,0,3.71,0,5.87h-6.09l.09.09Z"/>
  <path d="M384.02,193.12v-5.98h5.98s-.09-.08-.09-.08v5.98h-5.98l.09.08Z"/>
  <path d="M366.02,187.15h5.8v5.73h-5.71v-5.82l-.09.09Z"/>
  <path d="M359.9,186.96v5.98c-2.07,0-4.02,0-5.97,0,0,0,.1.08.09.08,0-1.84,0-3.69,0-5.98,2.15,0,4.06,0,5.98,0,0,0-.1-.08-.1-.08Z"/>
  <path d="M294.38,157.18c-2.06-.03-4.13-.07-6.19-.1,0,0,.1.08.09.08,0-1.86,0-3.71,0-5.74h6.02c0,1.97,0,3.91,0,5.84,0,0,.09-.09.09-.09Z"/>
  <path d="M348.17,193.04c-2.03,0-4.05,0-6.08,0,0,0,.09.08.09.08v-6.06l-.08.09h5.98c0,2.07,0,4.03,0,5.98,0,0,.09-.09.09-.09Z"/>
  <path d="M276.36,151.29h5.98v5.98l.08-.09h-6.06l.08.08v-6.06l-.08.09Z"/>
  <path d="M330.23,193.13v-5.98h5.98l-.08-.09v6.06s.09-.08.09-.08c-2.02,0-4.05,0-6.07,0,0,0,.09.09.09.09Z"/>
  <path d="M264.49,157.27v-5.98c2.07,0,4.03,0,5.98,0l-.08-.09v6.06l.08-.08h-6.06l.08.09Z"/>
  <path d="M318.1,187.27h5.98c0,2.07,0,4.02,0,5.97,0,0,.08-.1.08-.09-1.84,0-3.69,0-5.98,0,0-2.15,0-4.06,0-5.98,0,0-.08.1-.08.1Z"/>
  <path d="M204.74,157.18h-5.9c0-2.08,0-4.09,0-6.1,0,0-.08.1-.08.09,1.86,0,3.71,0,5.89,0,0,2.22,0,4.16,0,6.1,0,0,.09-.09.09-.09Z"/>
  <path d="M144.97,157.18h-5.89c0-2.08,0-4.09,0-6.11,0,0-.08.1-.08.09,1.86,0,3.71,0,5.89,0,0,2.22,0,4.16,0,6.1,0,0,.09-.09.09-.09Z"/>
  <path d="M497.49,145.31h5.98v5.98l.08-.09c-2.02.03-4.04.05-6.06.08.03-2.02.06-4.04.09-6.06l-.08.09Z"/>
  <path d="M378.04,199.1v-5.98c2.08,0,4.03,0,5.98,0l-.09-.08v5.98h-5.98l.08.09Z"/>
  <path d="M437.81,151.2h-5.98v-5.98l-.09.08h5.98v5.98l.09-.08Z"/>
  <path d="M276.23,145.13c.04,2.05.08,4.11.13,6.16l.08-.09h-6.06l.08.09v-6.08c2.01,0,3.93,0,5.86,0,0,0-.1-.08-.1-.08Z"/>
  <path d="M491.51,139.33h5.98v5.98l.08-.09h-5.98v-5.98l-.09.08Z"/>
  <path d="M300.36,193.04h-5.98v-5.98l-.09.09h5.98c0,2.07,0,4.02,0,5.98,0,0,.09-.09.09-.09Z"/>
  <path d="M276.36,187.14h5.98v5.98l.08-.09h-5.98v-5.98l-.09.08Z"/>
  <path d="M395.96,163.15h-5.87c0-2.07,0-4.08,0-6.09,0,0-.08.1-.08.09,1.86,0,3.71,0,5.87,0v6.09l.09-.09Z"/>
  <path d="M431.84,145.23h-5.98v-5.98l-.08.09c2.02-.03,4.04-.06,6.06-.09-.03,2.02-.05,4.04-.08,6.06l.09-.08Z"/>
  <path d="M617.02,366.35v5.98h-5.98l.08.09v-5.98h5.98l-.08-.09Z"/>
  <path d="M240.58,193.12v-5.98h5.98s-.09-.08-.09-.08v5.98h-5.98l.08.09Z"/>
  <path d="M611.04,372.32v5.98h-5.98l.08.09v-5.98h5.98l-.08-.09Z"/>
  <path d="M210.7,193.13v-5.9c2.08,0,4.09,0,6.1,0,0,0-.1-.08-.09-.08,0,1.86,0,3.71,0,5.89-2.22,0-4.16,0-6.1,0,0,0,.09.09.09.09Z"/>
  <path d="M156.84,187.05v5.89c-2.08,0-4.09,0-6.11,0,0,0,.1.08.09.08,0-1.86,0-3.71,0-5.89,2.22,0,4.16,0,6.1,0,0,0-.09-.09-.09-.09Z"/>
  <path d="M605.06,378.3v5.98h-5.98l.09.08v-5.98h5.98l-.08-.09Z"/>
  <path d="M282.34,139.24v5.9c-2.08,0-4.09,0-6.1,0,0,0,.1.08.09.08,0-1.86,0-3.71,0-5.89,2.22,0,4.16,0,6.1,0,0,0-.09-.09-.09-.09Z"/>
  <path d="M509.53,187.07c-2.06-.03-4.13-.07-6.19-.1,0,0,.1.08.09.08,0-1.86,0-3.71,0-5.74h6.02c0,1.97,0,3.91,0,5.84,0,0,.09-.09.09-.09Z"/>
  <path d="M437.56,186.96h-5.62v-5.61h5.62v5.61Z"/>
  <path d="M407.85,157.17v6.09c-2.01,0-3.94,0-5.87,0,0,0,.1.08.1.08v-6.08c2,0,3.93,0,5.86,0,0,0-.09-.09-.09-.09Z"/>
  <path d="M366.1,187.07c-2.06-.03-4.13-.07-6.19-.1,0,0,.1.08.09.08,0-1.86,0-3.71,0-5.74h6.02c0,1.97,0,3.91,0,5.84,0,0,.09-.09.09-.09Z"/>
  <path d="M336.21,187.15v-5.82h5.89v5.82l.08-.09h-6.06l.08.09Z"/>
  <path d="M312.31,187.13v-5.82h5.79c0,2.03,0,3.99,0,5.95,0,0,.08-.1.08-.09-1.99-.04-3.97-.08-5.95-.13,0,0,.09.09.09.09Z"/>
  <path d="M294.38,187.07h-5.82v-5.74h5.73c0,1.95,0,3.89,0,5.83,0,0,.09-.09.09-.09Z"/>
  <path d="M419.87,163.15h-5.87c0-2.07,0-4.08,0-6.09,0,0-.08.1-.08.09,1.86,0,3.71,0,5.87,0v6.09l.09-.09Z"/>
  <path d="M425.98,163.34v-5.97h5.57v5.89c-1.81,0-3.74,0-5.67,0,0,0,.1.08.1.08Z"/>
  <path d="M509.44,163.16v5.81h-5.88v-5.81l-.09.08h6.06l-.09-.08Z"/>
  <path d="M497.48,163.16v5.81h-5.89v-5.82l-.08.09h6.06l-.09-.08Z"/>
  <path d="M419.78,163.23c2.06.03,4.13.07,6.19.1,0,0-.1-.08-.09-.08,0,1.86,0,3.71,0,5.74h-6.02c0-1.97,0-3.91,0-5.84,0,0-.09.09-.09.09Z"/>
  <path d="M395.88,163.23c2.06.03,4.13.07,6.19.1,0,0-.1-.08-.09-.08,0,1.86,0,3.71,0,5.74h-6.02c0-1.97,0-3.91,0-5.84,0,0-.09.09-.09.09Z"/>
  <path d="M377.97,163.14v5.8h-5.81c0-1.9,0-3.9,0-5.91,0,0-.08.1-.08.09,1.99.03,3.98.07,5.97.1,0,0-.09-.09-.09-.09Z"/>
  <path d="M348.07,163.23c2.06.03,4.13.07,6.19.1,0,0-.1-.08-.09-.08,0,1.86,0,3.71,0,5.74h-6.02c0-1.97,0-3.91,0-5.84,0,0-.09.09-.09.09Z"/>
  <path d="M264.28,127.2v5.98c-2.07,0-4.02,0-5.97,0,0,0,.1.08.09.08,0-1.85,0-3.69,0-5.98,2.15,0,4.06,0,5.98,0,0,0-.1-.08-.1-.08Z"/>
  <path d="M198.74,133.37v-5.98h5.98l-.09-.09v5.98c-2.07,0-4.02,0-5.98,0,0,0,.09.09.09.09Z"/>
  <path d="M144.75,127.2v5.98c-2.07,0-4.02,0-5.97,0,0,0,.1.08.09.08,0-1.84,0-3.69,0-5.98,2.15,0,4.06,0,5.98,0,0,0-.1-.08-.1-.08Z"/>
  <path d="M270.26,121.22v5.98c-2.07,0-4.02,0-5.97,0,0,0,.1.08.09.08,0-1.85,0-3.69,0-5.98,2.15,0,4.06,0,5.98,0,0,0-.1-.08-.1-.08Z"/>
  <path d="M204.72,127.39v-6.09c2.01,0,3.94,0,5.87,0,0,0-.1-.08-.1-.08v6.08c-2,0-3.93,0-5.86,0,0,0,.09.09.09.09Z"/>
  <path d="M150.85,121.33v5.87c-2.07,0-4.08,0-6.09,0,0,0,.1.08.09.08,0-1.86,0-3.71,0-5.87h6.09l-.09-.09Z"/>
  <path d="M276.37,115.33v5.9c-2.08,0-4.09,0-6.1,0,0,0,.1.08.09.08,0-1.86,0-3.71,0-5.89,2.22,0,4.16,0,6.1,0,0,0-.09-.09-.09-.09Z"/>
  <path d="M216.6,115.33v5.9c-2.08,0-4.09,0-6.1,0,0,0,.1.08.09.08,0-1.86,0-3.71,0-5.89,2.22,0,4.16,0,6.1,0,0,0-.09-.09-.09-.09Z"/>
  <path d="M150.93,121.41v-5.89c2.08,0,4.09,0,6.11,0,0,0-.1-.08-.09-.08,0,1.86,0,3.71,0,5.89-2.22,0-4.16,0-6.1,0,0,0,.09.09.09.09Z"/>
  <path d="M324.16,163.23c2.06.03,4.13.07,6.19.1,0,0-.1-.08-.09-.08,0,1.86,0,3.71,0,5.74h-6.02c0-1.97,0-3.91,0-5.84,0,0-.09.09-.09.09Z"/>
  <path d="M300.25,163.23c2.06.03,4.13.07,6.19.1,0,0-.1-.08-.09-.08,0,1.86,0,3.71,0,5.74h-6.02c0-1.97,0-3.91,0-5.84,0,0-.09.09-.09.09Z"/>
  <path d="M282.34,163.15v5.82h-5.89v-5.82l-.08.09h6.06l-.08-.09Z"/>
  <path d="M270.39,163.15v5.82h-5.89v-5.82l-.08.09h6.06l-.08-.09Z"/>
  <path d="M210.61,163.23h5.9c0,2.08,0,4.09,0,6.1,0,0,.08-.1.08-.09-1.86,0-3.71,0-5.89,0,0-2.22,0-4.16,0-6.1,0,0-.09.09-.09.09Z"/>
  <path d="M270.39,91.53h5.87c0,2.07,0,4.08,0,6.09,0,0,.08-.1.08-.09-1.86,0-3.71,0-5.87,0v-6.09l-.09.09Z"/>
  <path d="M210.63,91.53h5.87c0,2.07,0,4.08,0,6.09,0,0,.08-.1.08-.09-1.86,0-3.71,0-5.87,0v-6.09l-.09.09Z"/>
  <path d="M156.93,97.42h-5.98v-5.98l-.09.09h5.98c0,2.07,0,4.02,0,5.98,0,0,.09-.09.09-.09Z"/>
  <path d="M156.93,169.14h-5.89c0-2.08,0-4.09,0-6.11,0,0-.08.1-.08.09,1.86,0,3.71,0,5.89,0,0,2.22,0,4.16,0,6.1,0,0,.09-.09.09-.09Z"/>
  <path d="M270.48,91.44h-5.98v-5.98l-.09.09h5.98c0,2.07,0,4.02,0,5.98,0,0,.09-.09.09-.09Z"/>
  <path d="M210.72,91.44h-5.98v-5.98l-.09.09h5.98c0,2.07,0,4.02,0,5.98,0,0,.09-.09.09-.09Z"/>
  <path d="M150.95,91.44h-6.09c0-2.01,0-3.94,0-5.87,0,0-.08.1-.08.1h6.08c0,2,0,3.93,0,5.86,0,0,.09-.09.09-.09Z"/>
  <path d="M515.51,163.16c-2.03,0-4.05,0-6.08,0l.09.08v-6.06s-.09.08-.09.08h5.99c0,2.08,0,4.03,0,5.99,0,0,.09-.09.09-.09Z"/>
  <path d="M264.5,85.47h-5.9c0-2.08,0-4.09,0-6.1,0,0-.08.1-.08.09,1.86,0,3.71,0,5.89,0,0,2.22,0,4.16,0,6.1,0,0,.09-.09.09-.09Z"/>
  <path d="M204.74,85.47h-5.9c0-2.08,0-4.09,0-6.1,0,0-.08.1-.08.09,1.86,0,3.71,0,5.89,0,0,2.22,0,4.16,0,6.1,0,0,.09-.09.09-.09Z"/>
  <path d="M138.89,79.56h5.89c0,2.08,0,4.09,0,6.11,0,0,.08-.1.08-.09-1.86,0-3.71,0-5.89,0,0-2.22,0-4.16,0-6.1,0,0-.09.09-.09.09Z"/>
  <path d="M503.55,163.16h-6.07l.09.08c-.03-2.02-.05-4.04-.08-6.06,2.02.03,4.04.06,6.06.09l-.08-.08v6.06l.09-.08Z"/>
  <path d="M264.4,55.59v5.87c-2.07,0-4.08,0-6.09,0,0,0,.1.08.09.08,0-1.86,0-3.71,0-5.87h6.09l-.09-.09Z"/>
  <path d="M198.74,61.65v-5.98h5.98l-.09-.09v5.98c-2.07,0-4.02,0-5.98,0,0,0,.09.09.09.09Z"/>
  <path d="M138.98,61.65v-5.89c2.08,0,4.09,0,6.11,0,0,0-.1-.08-.09-.08,0,1.86,0,3.72,0,5.89-2.22,0-4.16,0-6.1,0,0,0,.09.09.09.09Z"/>
  <path d="M264.48,55.67v-5.81h5.74v5.73c-1.95,0-3.89,0-5.83,0,0,0,.09.09.09.09Z"/>
  <path d="M204.72,55.67v-5.81h5.74v5.73c-1.95,0-3.89,0-5.83,0,0,0,.09.09.09.09Z"/>
  <path d="M312.23,187.05v5.9c-2.08,0-4.09,0-6.1,0,0,0,.1.08.09.08,0-1.86,0-3.71,0-5.89,2.22,0,4.16,0,6.1,0,0,0-.09-.09-.09-.09Z"/>
  <path d="M276.45,390.34v-5.95h5.83v-5.9h6.01v-6.01h17.85v-5.88h29.91v5.63h6.02v11.99h5.9v6.01h6.12v17.88h5.9v-5.72h5.9v-5.89h23.94c.08,1.84.16,3.67.25,5.71h5.75v6.01h5.94v5.9h-5.81v6.01h-5.9v6.01h-11.99v5.8h-107.6v-5.8l-.09.08h6.12v-6.07c2.17,0,4.04,0,5.91,0,0,1.94,0,3.88,0,5.83h5.73v-5.75h-5.82c0-2.02,0-4.03,0-6.05,4.01,0,8.03,0,12.04,0v11.79h5.89v-11.78h6.07v5.81h11.86v-11.78h6.07v5.81h11.86v-11.78c2.02,0,4.04,0,6.05,0,0,1.94,0,3.88,0,5.83h5.73v-5.75h-5.82v-11.95h-5.97v-11.95h-5.97v-5.82h-5.89v5.81c-1.99-.04-3.97-.08-5.96-.11v-5.67h-5.89v5.58c2.09,0,4.03,0,5.97,0,0,2.01,0,4.02,0,6.1h5.89c0,2.02,0,4.04,0,6.06h-12.1v-5.98h-11.88v-5.82h-5.89v5.81h-5.98v5.98c-4.01-.03-8.02-.06-12.03-.09l.09.08Z"/>
  <path d="M401.86,330.49v5.82h-143.34v-5.82l-.09.08h143.52l-.09-.08Z"/>
  <path d="M479.55,330.49v17.86h-5.88v5.93h-17.92v-5.72h-5.99v-18.07l-.09.08c2.02-.03,4.04-.06,6.06-.09v12.14h6.04v5.64h6.01v-5.89h5.9v-11.81h5.95l-.09-.08Z"/>
  <path d="M449.76,330.49c-15.97,0-31.94,0-47.9,0,0,0,.09.08.09.08v-6.06l-.08.08h47.81v5.98l.09-.08Z"/>
  <path d="M258.52,330.49h-47.81v-5.98l-.09.08h47.89l-.08-.08v6.06l.09-.08Z"/>
  <path d="M521.39,288.75h5.91v5.89h6.12v5.93h-5.99v5.99h-5.88v6h-12.11l.08.09v-6.16h6.04v-5.91h5.91v-11.92l-.08.09Z"/>
  <path d="M210.71,324.52h-35.86v-5.98l-.09.08h35.94l-.08-.08v6.06l.09-.08Z"/>
  <path d="M264.49,420.13h-5.82v-17.77h5.64v-6.04h6.16l-.08-.09c.03,4.01.05,8.03.08,12.04h-6.06v11.95l.08-.09Z"/>
  <path d="M138.9,306.59c6,.03,12.01.06,18.01.09,0,0-.08-.09-.08-.09v6.06l.08-.09h-18.01v-5.97Z"/>
  <path d="M174.85,318.54h-17.94v-5.98s-.08.09-.08.09h18.01l-.08-.08v6.06l.09-.08Z"/>
  <path d="M503.46,318.54v5.97h-17.92l.08.09v-5.98h17.93l-.09-.08Z"/>
  <path d="M120.97,294.64h12.04v6.06h-12.04v-6.06Z"/>
  <path d="M132.93,300.61h6.06v6.06h-6.06v-6.06Z"/>
  <path d="M509.44,312.56v5.98h-5.98l.09.08v-5.98h5.98l-.08-.09Z"/>
  <path d="M485.54,324.51v5.98h-5.98l.09.08v-5.98h5.98l-.08-.09Z"/>
  <path d="M270.47,396.32v-5.98h5.98l-.09-.08c.03,2.02.06,4.04.09,6.06l-6.06-.08.08.09Z"/>
  <path d="M270.47,426.12h-5.98v-5.98l-.08.09h5.98v5.98l.09-.08Z"/>
  <path d="M443.78,503.81v5.82h-221.21v-5.82c33.83.01,67.67.04,101.5.04,39.9,0,79.81-.03,119.71-.04Z"/>
  <path d="M593.11,354.48v-29.97h5.82v29.97h-5.82Z"/>
  <path d="M575.18,372.41v-5.9h5.93v-6.14h6.1v12.04h-12.04Z"/>
  <path d="M545.3,384.36v-6.06h18.01v6.06h-18.01Z"/>
  <path d="M563.23,378.39v-6.06h12.04v6.06h-12.04Z"/>
  <path d="M533.35,384.28h12.04v5.82h-12.04v-5.82Z"/>
  <path d="M587.22,318.62h-12.04v-5.82h12.04v5.82Z"/>
  <path d="M563.31,330.49v12.04h-6.06v-12.04h6.06Z"/>
  <path d="M575.26,318.54v6.06h-6.06v-6.06h6.06Z"/>
  <path d="M593.19,324.6h-6.06v-6.06h6.06v6.06Z"/>
  <path d="M569.29,324.52v6.06h-6.06v-6.06h6.06Z"/>
  <path d="M557.33,342.45v6.06h-6.06v-6.06h6.06Z"/>
  <path d="M587.13,360.46v-6.06h6.06v6.06h-6.06Z"/>
  <path d="M156.92,306.68v-5.95h-5.9v-5.89h-5.89v-6.11h5.7v-5.9h17.94v-5.99h11.87v-6h11.98v-5.81h41.82v17.74h6.15l-.08-.09v5.81h6.06v-5.81l-.08.09h5.95v-11.89h5.9v-5.89h6.01v5.64h6.01v5.96h5.9v-5.73h6.01v-5.82h6.01v5.62h5.9v5.89h11.99v-5.61h6.01v-5.97h5.9v5.71h6.12v5.93h11.88v-5.81h6.01v-5.79h6.01v5.7h5.9v5.87h11.99v-5.69h6.01v-5.94h5.9v5.79h6.01v5.8h11.99v-5.68h5.91v-5.88h6.01v5.67h6.01v5.95h11.88v-5.76h6.01v-5.81h6.01v5.65h5.9v5.88h11.99v-5.64h6.01v-5.96h5.9v5.86h12.14l-.08-.09v12.13h12.11v5.91h11.98v6.01h5.64v5.91h-11.8v-6.09h-23.96v-5.85h-5.92v-5.82h-5.9v5.82h-6.16v5.77h-11.87v-5.77h-5.95v-5.82h-5.9v5.82h-6.16v5.77h-11.87v-5.77h-5.95v-5.82h-5.9v5.82h-6.16v5.77h-11.87v-5.77h-5.95v-5.82h-5.9v5.82h-6.16v5.77h-11.87v-5.77h-5.95v-5.82h-5.9v5.82h-6.16v5.77h-11.87v-5.77h-5.95v-5.82h-5.9v5.82h-6.16v5.77h-11.87v-5.77h-5.95v-5.82h-5.9v5.82h-6.16v5.77h-5.9v-5.77h-5.95v-11.79h-5.89v11.78h-5.82v5.9h5.82v6.15h17.99v5.9h17.96v5.76h11.88v-5.6h6.01v5.57h23.93v-5.65h5.9v5.62h23.93v-5.59h6.01v5.56h23.93v-5.53h5.9v5.61h23.93v-5.76h29.84l-.09-.09v12.09h-53.78v5.92l.08-.08h-143.52l.08.08v-6.06h-47.89l.08.08v-6.06h-35.94l.08.08v-6.06h-18.01l.08.09Z"/>
  <path d="M479.64,270.82v-5.83h17.76c.08,1.85.17,3.68.25,5.64h11.72v-5.66h6v5.67h6.02v18.1l.08-.09h-6.14v-6.09h-17.9v-5.87h-5.98v-5.97h-11.89l.08.09Z"/>
  <path d="M240.58,282.77v-35.95h5.98c-.03,11.98-.05,23.96-.08,35.95,0,0,.08-.09.08-.09h-6.06l.08.09Z"/>
  <path d="M389.91,240.85h29.97v6.06h-29.97v-6.06Z"/>
  <path d="M246.48,240.85h29.97v6.06h-29.97v-6.06Z"/>
  <path d="M419.79,240.93v-6.06h6.06v6.06h-6.06Z"/>
  <path d="M276.36,246.82c2.02,0,4.04,0,6.06,0v5.81h-6.06v-5.81Z"/>
  <path d="M306.24,246.82c2.02,0,4.04,0,6.06,0v5.81h-6.06v-5.81Z"/>
  <path d="M336.12,246.82c2.02,0,4.04,0,6.06,0v5.81h-6.06v-5.81Z"/>
  <path d="M366.01,246.82c2.02,0,4.04,0,6.06,0v5.81h-6.06v-5.81Z"/>
  <path d="M431.75,246.81v5.81h-5.74v-5.73c1.95,0,3.89,0,5.83,0,0,0-.09-.09-.09-.09Z"/>
  <path d="M491.51,246.82h6.06v5.81h-6.06v-5.81Z"/>
  <path d="M515.42,246.82h6.06v5.81h-6.06v-5.81Z"/>
  <path d="M377.96,228.89h6.06v6.06c-2.02,0-4.04,0-6.06,0v-6.06Z"/>
  <path d="M276.36,240.93v-6.06h6.06c0,2.02,0,4.04,0,6.06h-6.06Z"/>
  <path d="M383.94,234.87h6.06v6.06c-2.02,0-4.04,0-6.06,0v-6.06Z"/>
  <path d="M348.08,103.39h41.92v6.06h-41.92v-6.06Z"/>
  <path d="M324.17,97.41h23.99v6.06h-23.99v-6.06Z"/>
  <path d="M222.56,246.9h11.78v5.74h-11.69c0-1.94,0-3.89,0-5.83,0,0-.09.09-.09.09Z"/>
  <path d="M240.5,234.87h6.06v6.06h-6.06v-6.06Z"/>
  <path d="M455.74,139.25v6.06h-11.88v-5.98h-12.1v-5.98h-5.98v-6.06h18.01v5.98h5.98v5.98h5.98Z"/>
  <path d="M461.71,133.27v6.06h-6.06v-6.06c2.02,0,4.04,0,6.06,0Z"/>
  <path d="M455.65,187.14c.03-4.01.06-8.02.09-12.04l-.09.08h6.12v5.71h5.92v-11.77l-.08.09h5.82v17.92h-17.77Z"/>
  <path d="M455.74,175.11c-2.02.03-4.04.05-6.06.08,0-6,0-12.01,0-18.01h11.95v6.06l.09-.08h-6.06v12.04s.09-.08.09-.08Z"/>
  <path d="M455.65,145.23h12.04v6.06h-12.04v-6.06Z"/>
  <path d="M467.61,151.2h6.06v6.06h-6.06v-6.06Z"/>
  <path d="M473.58,157.18h6.06v6.06h-6.06v-6.06Z"/>
  <path d="M461.62,163.24h5.98v5.98l.08-.09h-5.98v-5.98l-.09.08Z"/>
  <path d="M479.56,157.26v-5.81h6.06v5.81h-6.06Z"/>
  <path d="M395.9,211.06h17.74v5.73h-17.65v-5.82l-.09.09Z"/>
  <path d="M395.98,210.97h-5.82v-5.74h5.73c0,1.95,0,3.89,0,5.83,0,0,.09-.09.09-.09Z"/>
  <path d="M264.4,210.97v5.81h-17.68v-5.72h17.77l-.09-.09Z"/>
  <path d="M264.49,211.06v-5.82h5.74v5.73c-1.95,0-3.89,0-5.83,0,0,0,.09.09.09.09Z"/>
  <path d="M497.57,157.26h-6.06v-6.06h6.06v6.06Z"/>
  <path d="M336.21,390.26c0,4.01,0,8.02,0,12.04-2.02-.03-4.04-.06-6.06-.09,0,0,.08.09.08.09v-6.06h-6.06l.09.08c-.03-2.02-.06-4.04-.09-6.06h12.04Z"/>
  <path d="M294.38,390.34c-.03-2.02-.06-4.04-.09-6.06,2.02,0,4.04,0,6.06,0-.03,2.02-.06,4.04-.09,6.06l.09-.08h-6.06l.09.08Z"/>
  <path d="M300.26,390.34h5.98v5.98l.09-.08h-6.06l.08.08v-6.06l-.09.08Z"/>
  <path d="M306.24,396.32h5.98v5.98l.09-.08h-6.06l.08.08v-6.06l-.09.08Z"/>
  <path d="M324.25,402.2c-2.02.03-4.04.06-6.06.09v-5.98h6.06s-.09-.08-.09-.08v6.06l.08-.09Z"/>
  <path d="M318.28,402.21v6.06c-2.02-.03-4.04-.06-6.06-.09l.08.09v-6.06l-.09.08c2.02-.03,4.04-.05,6.06-.08Z"/>
  <path d="M270.38,408.19h12.04v6.06h-12.04v-6.06Z"/>
  <path d="M282.34,408.27v-6.06c4.01.03,8.02.06,12.04.09l-.08-.09v6.06s.08-.09.08-.09c-4.01.03-8.02.06-12.04.09Z"/>
  <path d="M288.31,390.26c2.02.03,4.04.05,6.06.08,0,0-.09-.08-.09-.08v6.06l.08-.09h-6.06v-5.97Z"/>
  <path d="M282.42,402.29h-6.06v-6.06h6.06v6.06Z"/>
  <path d="M294.37,402.3c0-2.02,0-4.05,0-6.07,0,0-.08.09-.08.09h6.06l-.08-.08v6.06l.08-.08h-6.06l.08.09Z"/>
  <path d="M306.24,414.25c.03-2.02.06-4.04.09-6.06l-.09.08h6.06l-.08-.09v6.06h-5.98Z"/>
  <path d="M324.17,408.27c.03-2.02.05-4.04.08-6.06,0,0-.08.09-.08.09h6.06l-.08-.09v6.06h-5.98Z"/>
  <path d="M324.17,384.36c0-2.02,0-4.04,0-6.06,2.02,0,4.04,0,6.06,0v6.06h-6.06Z"/>
  <path d="M300.26,408.19c.03,2.02.06,4.04.09,6.06-2.02,0-4.04,0-6.06,0,.03-2.02.05-4.04.08-6.06,0,0-.08.09-.08.09h6.06l-.09-.08Z"/>
  <path d="M306.33,408.19c-2.02,0-4.05,0-6.07,0,0,0,.09.08.09.08v-6.06l-.08.08h6.06l-.08-.08v6.06l.09-.08Z"/>
  <path d="M479.64,312.56v6.06h-12.04v-6.06h12.04Z"/>
  <path d="M497.57,300.61v6.06h-12.04v-6.06h12.04Z"/>
  <path d="M455.73,306.68v-5.82h11.72v5.74c-3.95,0-7.88,0-11.8,0,0,0,.09.09.09.09Z"/>
  <path d="M431.75,288.66c2.02,0,4.04,0,6.06,0v5.81h-6.06v-5.81Z"/>
  <path d="M258.43,294.72c0-2.02,0-4.04,0-6.06,2.02,0,4.04,0,6.06,0v6.06h-6.06Z"/>
  <path d="M282.34,288.66c2.02,0,4.04,0,6.06,0v5.81h-6.06v-5.81Z"/>
  <path d="M312.22,288.66c2.02,0,4.04,0,6.06,0v5.81h-6.06v-5.81Z"/>
  <path d="M342.1,288.66c2.02,0,4.04,0,6.06,0v5.81h-6.06v-5.81Z"/>
  <path d="M371.98,288.66c2.02,0,4.04,0,6.06,0v5.81h-6.06v-5.81Z"/>
  <path d="M401.86,288.66c2.02,0,4.04,0,6.06,0v5.81h-6.06v-5.81Z"/>
  <path d="M461.63,288.66c2.02,0,4.04,0,6.06,0v5.81h-6.06v-5.81Z"/>
  <path d="M485.62,306.59v6.06h-6.06v-6.06h6.06Z"/>
  <path d="M467.69,318.54v6.06h-6.06v-6.06h6.06Z"/>
  <path d="M461.71,324.52v6.06h-6.06v-6.06h6.06Z"/>
</svg>